ISO-10303-21;
HEADER;
FILE_DESCRIPTION(('CATIA V5 STEP Exchange','CAx-IF Rec.Pracs.--- Model Styling and Organization---1.4--- 2014-01-23','CAx-IF Rec.Pracs.---Representation and Presentation of Product Manufacturing Information (PMI)---4.0---2014-10-13','CAx-IF Rec.Pracs.---3D Tessellated Data Validation Properties---0.5---2014-09-14'),'2;1');

FILE_NAME('C:\\Users\\e_mdemir\\OneDrive - Alstom\\Desktop\\STEP\\AR00000242312.stp','2022-03-01T16:47:40+00:00',('none'),('none'),'CATIA Version 5-6 Release 2016 SP5 HF59','CATIA V5 STEP AP242','none');

FILE_SCHEMA(('AP242_MANAGED_MODEL_BASED_3D_ENGINEERING_MIM_LF  {1 0 10303 442 1 1 4}'));

ENDSEC;
DATA;
#5=PRODUCT('M3D-242312','','TOP SIDE BRACKET',(#2)) ;
#2=PRODUCT_CONTEXT(' ',#1,'mechanical') ;
#1=APPLICATION_CONTEXT('managed model based 3d engineering') ;
#10=PRODUCT_DEFINITION('MASTER',' ',#6,#3) ;
#3=PRODUCT_DEFINITION_CONTEXT('part definition',#1,' ') ;
#11=PRODUCT_DEFINITION_SHAPE(' ',' ',#10) ;
#1464=MECHANICAL_DESIGN_GEOMETRIC_PRESENTATION_REPRESENTATION(' ',(#29),#16) ;
#19=SHAPE_REPRESENTATION(' ',(#18),#16) ;
#7=PRODUCT_CATEGORY('part','specification') ;
#17=CARTESIAN_POINT(' ',(0.,0.,0.)) ;
#31=CARTESIAN_POINT('Axis2P3D Location',(61.,31.,8.)) ;
#36=CARTESIAN_POINT('Line Origine',(58.5415,9.00000000008,8.)) ;
#40=CARTESIAN_POINT('Vertex',(58.5415,25.,8.)) ;
#42=CARTESIAN_POINT('Vertex',(58.5415,31.,8.)) ;
#45=CARTESIAN_POINT('Axis2P3D Location',(61.,25.,8.)) ;
#49=CARTESIAN_POINT('Vertex',(63.4585,25.,8.)) ;
#52=CARTESIAN_POINT('Line Origine',(63.4585,9.00000000008,8.)) ;
#56=CARTESIAN_POINT('Vertex',(63.4585,31.,8.)) ;
#59=CARTESIAN_POINT('Axis2P3D Location',(61.,31.,8.)) ;
#71=CARTESIAN_POINT('Axis2P3D Location',(61.,25.,8.)) ;
#76=CARTESIAN_POINT('Axis2P3D Location',(61.,31.,8.)) ;
#88=CARTESIAN_POINT('Axis2P3D Location',(0.,25.,80.)) ;
#93=CARTESIAN_POINT('Line Origine',(26.3508893593,25.,60.8830368803)) ;
#97=CARTESIAN_POINT('Vertex',(82.1622776602,25.,42.2792407799)) ;
#99=CARTESIAN_POINT('Vertex',(-29.4604989415,25.,79.4868329805)) ;
#102=CARTESIAN_POINT('Axis2P3D Location',(-32.6227766017,25.,70.)) ;
#106=CARTESIAN_POINT('Vertex',(-32.6227766017,25.,80.)) ;
#109=CARTESIAN_POINT('Line Origine',(-38.8113883008,25.,80.)) ;
#113=CARTESIAN_POINT('Vertex',(-45.,25.,80.)) ;
#116=CARTESIAN_POINT('Axis2P3D Location',(-45.,25.,70.)) ;
#120=CARTESIAN_POINT('Vertex',(-55.,25.,70.)) ;
#123=CARTESIAN_POINT('Line Origine',(-55.,25.,43.5)) ;
#127=CARTESIAN_POINT('Vertex',(-55.,25.,17.)) ;
#130=CARTESIAN_POINT('Line Origine',(-34.5,25.,17.)) ;
#134=CARTESIAN_POINT('Vertex',(-14.,25.,17.)) ;
#137=CARTESIAN_POINT('Line Origine',(-14.,25.,17.5)) ;
#141=CARTESIAN_POINT('Vertex',(-14.,25.,18.)) ;
#144=CARTESIAN_POINT('Axis2P3D Location',(-11.5,25.,18.)) ;
#148=CARTESIAN_POINT('Vertex',(-9.,25.,18.)) ;
#151=CARTESIAN_POINT('Line Origine',(-9.,25.,11.5)) ;
#155=CARTESIAN_POINT('Vertex',(-9.,25.,5.)) ;
#158=CARTESIAN_POINT('Axis2P3D Location',(-4.,25.,5.)) ;
#162=CARTESIAN_POINT('Vertex',(-4.,25.,0.)) ;
#165=CARTESIAN_POINT('Line Origine',(30.,25.,0.)) ;
#169=CARTESIAN_POINT('Vertex',(64.,25.,0.)) ;
#172=CARTESIAN_POINT('Axis2P3D Location',(64.,25.,5.)) ;
#176=CARTESIAN_POINT('Vertex',(69.,25.,5.)) ;
#179=CARTESIAN_POINT('Line Origine',(69.,25.,11.5)) ;
#183=CARTESIAN_POINT('Vertex',(69.,25.,18.)) ;
#186=CARTESIAN_POINT('Axis2P3D Location',(71.5,25.,18.)) ;
#190=CARTESIAN_POINT('Vertex',(74.,25.,18.)) ;
#193=CARTESIAN_POINT('Line Origine',(74.,25.,17.5)) ;
#197=CARTESIAN_POINT('Vertex',(74.,25.,17.)) ;
#200=CARTESIAN_POINT('Line Origine',(81.5,25.,17.)) ;
#204=CARTESIAN_POINT('Vertex',(89.,25.,17.)) ;
#207=CARTESIAN_POINT('Line Origine',(89.,25.,24.8962038997)) ;
#211=CARTESIAN_POINT('Vertex',(89.,25.,32.7924077994)) ;
#214=CARTESIAN_POINT('Axis2P3D Location',(79.,25.,32.7924077994)) ;
#243=CARTESIAN_POINT('Axis2P3D Location',(40.,25.,44.3730669589)) ;
#247=CARTESIAN_POINT('Vertex',(37.5415,25.,44.3730669589)) ;
#249=CARTESIAN_POINT('Vertex',(42.4585,25.,44.3730669589)) ;
#252=CARTESIAN_POINT('Axis2P3D Location',(40.,25.,44.3730669589)) ;
#261=CARTESIAN_POINT('Axis2P3D Location',(-28.,25.,32.)) ;
#265=CARTESIAN_POINT('Vertex',(-30.4585,25.,32.)) ;
#267=CARTESIAN_POINT('Vertex',(-25.5415,25.,32.)) ;
#270=CARTESIAN_POINT('Axis2P3D Location',(-28.,25.,32.)) ;
#279=CARTESIAN_POINT('Axis2P3D Location',(-42.3648460498,25.,71.4670901072)) ;
#283=CARTESIAN_POINT('Vertex',(-44.8233460498,25.,71.4670901072)) ;
#285=CARTESIAN_POINT('Vertex',(-39.9063460498,25.,71.4670901072)) ;
#288=CARTESIAN_POINT('Axis2P3D Location',(-42.3648460498,25.,71.4670901072)) ;
#298=CARTESIAN_POINT('Axis2P3D Location',(89.,31.,40.)) ;
#303=CARTESIAN_POINT('Line Origine',(26.3508893593,31.,60.8830368802)) ;
#307=CARTESIAN_POINT('Vertex',(82.1622776602,31.,42.2792407799)) ;
#309=CARTESIAN_POINT('Vertex',(-29.4604989415,31.,79.4868329805)) ;
#312=CARTESIAN_POINT('Line Origine',(-29.4604989415,28.,79.4868329805)) ;
#317=CARTESIAN_POINT('Line Origine',(82.1622776602,28.,42.2792407799)) ;
#329=CARTESIAN_POINT('Axis2P3D Location',(-55.,0.,0.)) ;
#334=CARTESIAN_POINT('Line Origine',(-55.,-3.,3.)) ;
#338=CARTESIAN_POINT('Vertex',(-55.,-3.,6.)) ;
#340=CARTESIAN_POINT('Vertex',(-55.,-3.,0.)) ;
#343=CARTESIAN_POINT('Line Origine',(-55.,5.5,6.)) ;
#347=CARTESIAN_POINT('Vertex',(-55.,14.,6.)) ;
#350=CARTESIAN_POINT('Axis2P3D Location',(-55.,14.,17.)) ;
#355=CARTESIAN_POINT('Line Origine',(-55.,28.,70.)) ;
#359=CARTESIAN_POINT('Vertex',(-55.,31.,70.)) ;
#362=CARTESIAN_POINT('Line Origine',(-55.,31.,43.5)) ;
#366=CARTESIAN_POINT('Vertex',(-55.,31.,17.)) ;
#369=CARTESIAN_POINT('Axis2P3D Location',(-55.,14.,17.)) ;
#373=CARTESIAN_POINT('Vertex',(-55.,14.,0.)) ;
#376=CARTESIAN_POINT('Line Origine',(-55.,5.5,0.)) ;
#392=CARTESIAN_POINT('Axis2P3D Location',(17.,14.,17.)) ;
#397=CARTESIAN_POINT('Axis2P3D Location',(-14.,14.,17.)) ;
#401=CARTESIAN_POINT('Vertex',(-14.,14.,6.)) ;
#404=CARTESIAN_POINT('Line Origine',(17.,14.,6.)) ;
#416=CARTESIAN_POINT('Axis2P3D Location',(-14.,31.,18.)) ;
#421=CARTESIAN_POINT('Line Origine',(-14.,13.,0.)) ;
#425=CARTESIAN_POINT('Vertex',(-14.,14.,0.)) ;
#427=CARTESIAN_POINT('Vertex',(-14.,12.,0.)) ;
#430=CARTESIAN_POINT('Axis2P3D Location',(-14.,14.,17.)) ;
#434=CARTESIAN_POINT('Vertex',(-14.,31.,17.)) ;
#437=CARTESIAN_POINT('Line Origine',(-14.,31.,17.5)) ;
#441=CARTESIAN_POINT('Vertex',(-14.,31.,18.)) ;
#444=CARTESIAN_POINT('Line Origine',(-14.,28.,18.)) ;
#449=CARTESIAN_POINT('Line Origine',(-14.,13.,6.)) ;
#453=CARTESIAN_POINT('Vertex',(-14.,12.,6.)) ;
#456=CARTESIAN_POINT('Line Origine',(-14.,12.,3.)) ;
#472=CARTESIAN_POINT('Axis2P3D Location',(69.,13.,6.)) ;
#477=CARTESIAN_POINT('Line Origine',(69.,31.,11.5)) ;
#481=CARTESIAN_POINT('Vertex',(69.,31.,18.)) ;
#483=CARTESIAN_POINT('Vertex',(69.,31.,5.)) ;
#486=CARTESIAN_POINT('Line Origine',(69.,28.,18.)) ;
#491=CARTESIAN_POINT('Line Origine',(69.,28.,5.)) ;
#503=CARTESIAN_POINT('Axis2P3D Location',(74.,14.,17.)) ;
#507=CARTESIAN_POINT('Vertex',(74.,14.,6.)) ;
#510=CARTESIAN_POINT('Line Origine',(17.,14.,6.)) ;
#514=CARTESIAN_POINT('Vertex',(89.,14.,6.)) ;
#517=CARTESIAN_POINT('Axis2P3D Location',(89.,14.,17.)) ;
#529=CARTESIAN_POINT('Axis2P3D Location',(0.,14.,0.)) ;
#534=CARTESIAN_POINT('Axis2P3D Location',(79.,-3.,0.)) ;
#538=CARTESIAN_POINT('Vertex',(79.,-13.,0.)) ;
#540=CARTESIAN_POINT('Vertex',(89.,-3.,0.)) ;
#543=CARTESIAN_POINT('Line Origine',(17.,-13.,0.)) ;
#547=CARTESIAN_POINT('Vertex',(-45.,-13.,0.)) ;
#550=CARTESIAN_POINT('Axis2P3D Location',(-45.,-3.,0.)) ;
#555=CARTESIAN_POINT('Line Origine',(-34.5,14.,0.)) ;
#560=CARTESIAN_POINT('Axis2P3D Location',(-11.5,12.,0.)) ;
#564=CARTESIAN_POINT('Vertex',(-9.06250989239,11.4444444444,0.)) ;
#567=CARTESIAN_POINT('Axis2P3D Location',(-7.1125178063,11.,0.)) ;
#571=CARTESIAN_POINT('Vertex',(-7.1125178063,13.,0.)) ;
#574=CARTESIAN_POINT('Line Origine',(30.,13.,0.)) ;
#578=CARTESIAN_POINT('Vertex',(67.1125178063,13.,0.)) ;
#581=CARTESIAN_POINT('Axis2P3D Location',(67.1125178063,11.,0.)) ;
#585=CARTESIAN_POINT('Vertex',(69.0625098924,11.4444444444,0.)) ;
#588=CARTESIAN_POINT('Axis2P3D Location',(71.5,12.,0.)) ;
#592=CARTESIAN_POINT('Vertex',(74.,12.,0.)) ;
#595=CARTESIAN_POINT('Line Origine',(74.,13.,0.)) ;
#599=CARTESIAN_POINT('Vertex',(74.,14.,0.)) ;
#602=CARTESIAN_POINT('Line Origine',(81.5,14.,0.)) ;
#606=CARTESIAN_POINT('Vertex',(89.,14.,0.)) ;
#609=CARTESIAN_POINT('Line Origine',(89.,5.5,0.)) ;
#630=CARTESIAN_POINT('Axis2P3D Location',(45.,0.,0.)) ;
#634=CARTESIAN_POINT('Vertex',(40.5,5.51091059616E-016,4.4408920985E-016)) ;
#636=CARTESIAN_POINT('Vertex',(49.5,0.,0.)) ;
#639=CARTESIAN_POINT('Axis2P3D Location',(45.,0.,0.)) ;
#648=CARTESIAN_POINT('Axis2P3D Location',(-25.,0.,0.)) ;
#652=CARTESIAN_POINT('Vertex',(-29.5,5.51091059616E-016,4.4408920985E-016)) ;
#654=CARTESIAN_POINT('Vertex',(-20.5,0.,0.)) ;
#657=CARTESIAN_POINT('Axis2P3D Location',(-25.,0.,0.)) ;
#667=CARTESIAN_POINT('Axis2P3D Location',(-11.5,12.,2.33999999953)) ;
#672=CARTESIAN_POINT('Line Origine',(-9.06250989239,11.4444444444,2.33999999953)) ;
#676=CARTESIAN_POINT('Vertex',(-9.06250989239,11.4444444444,6.)) ;
#679=CARTESIAN_POINT('Axis2P3D Location',(-11.5,12.,6.)) ;
#691=CARTESIAN_POINT('Axis2P3D Location',(17.,14.,17.)) ;
#696=CARTESIAN_POINT('Line Origine',(17.,31.,17.)) ;
#700=CARTESIAN_POINT('Vertex',(74.,31.,17.)) ;
#702=CARTESIAN_POINT('Vertex',(89.,31.,17.)) ;
#705=CARTESIAN_POINT('Axis2P3D Location',(89.,14.,17.)) ;
#710=CARTESIAN_POINT('Axis2P3D Location',(74.,14.,17.)) ;
#722=CARTESIAN_POINT('Axis2P3D Location',(71.5,12.,2.33999999953)) ;
#727=CARTESIAN_POINT('Line Origine',(69.0625098924,11.4444444444,2.33999999953)) ;
#731=CARTESIAN_POINT('Vertex',(69.0625098924,11.4444444444,6.)) ;
#734=CARTESIAN_POINT('Axis2P3D Location',(71.5,12.,6.)) ;
#738=CARTESIAN_POINT('Vertex',(74.,12.,6.)) ;
#741=CARTESIAN_POINT('Line Origine',(74.,12.,2.33999999953)) ;
#753=CARTESIAN_POINT('Axis2P3D Location',(45.,0.,2.33999999953)) ;
#758=CARTESIAN_POINT('Line Origine',(49.5,0.,2.33999999953)) ;
#762=CARTESIAN_POINT('Vertex',(49.5,0.,6.)) ;
#765=CARTESIAN_POINT('Axis2P3D Location',(45.,0.,6.)) ;
#769=CARTESIAN_POINT('Vertex',(40.5,2.54949250394E-015,6.)) ;
#772=CARTESIAN_POINT('Line Origine',(40.5,5.51091059616E-016,2.33999999953)) ;
#784=CARTESIAN_POINT('Axis2P3D Location',(45.,0.,6.)) ;
#796=CARTESIAN_POINT('Axis2P3D Location',(-25.,0.,2.33999999953)) ;
#801=CARTESIAN_POINT('Line Origine',(-20.5,0.,2.33999999953)) ;
#805=CARTESIAN_POINT('Vertex',(-20.5,0.,6.)) ;
#808=CARTESIAN_POINT('Axis2P3D Location',(-25.,0.,6.)) ;
#812=CARTESIAN_POINT('Vertex',(-29.5,2.54949250394E-015,6.)) ;
#815=CARTESIAN_POINT('Line Origine',(-29.5,5.51091059616E-016,2.33999999953)) ;
#827=CARTESIAN_POINT('Axis2P3D Location',(-25.,0.,6.)) ;
#839=CARTESIAN_POINT('Axis2P3D Location',(79.,-3.,16.3962038997)) ;
#844=CARTESIAN_POINT('Line Origine',(89.,-3.,16.3962038997)) ;
#848=CARTESIAN_POINT('Vertex',(89.,-3.,6.)) ;
#851=CARTESIAN_POINT('Axis2P3D Location',(79.,-3.,6.)) ;
#855=CARTESIAN_POINT('Vertex',(79.,-13.,6.)) ;
#858=CARTESIAN_POINT('Line Origine',(79.,-13.,16.3962038997)) ;
#870=CARTESIAN_POINT('Axis2P3D Location',(0.,-13.,6.)) ;
#875=CARTESIAN_POINT('Line Origine',(17.,-13.,6.)) ;
#879=CARTESIAN_POINT('Vertex',(-45.,-13.,6.)) ;
#882=CARTESIAN_POINT('Line Origine',(-45.,-13.,3.)) ;
#894=CARTESIAN_POINT('Axis2P3D Location',(-7.1125178063,11.,3.)) ;
#899=CARTESIAN_POINT('Axis2P3D Location',(-7.1125178063,11.,6.)) ;
#903=CARTESIAN_POINT('Vertex',(-7.1125178063,13.,6.)) ;
#906=CARTESIAN_POINT('Line Origine',(-7.1125178063,13.,3.)) ;
#918=CARTESIAN_POINT('Axis2P3D Location',(0.,13.,0.)) ;
#923=CARTESIAN_POINT('Line Origine',(30.,13.,6.)) ;
#927=CARTESIAN_POINT('Vertex',(67.1125178063,13.,6.)) ;
#930=CARTESIAN_POINT('Line Origine',(67.1125178063,13.,3.)) ;
#942=CARTESIAN_POINT('Axis2P3D Location',(67.1125178063,11.,3.)) ;
#947=CARTESIAN_POINT('Axis2P3D Location',(67.1125178063,11.,6.)) ;
#959=CARTESIAN_POINT('Axis2P3D Location',(-45.,-3.,35.)) ;
#964=CARTESIAN_POINT('Axis2P3D Location',(-45.,-3.,6.)) ;
#976=CARTESIAN_POINT('Axis2P3D Location',(0.,14.,6.)) ;
#981=CARTESIAN_POINT('Line Origine',(89.,5.5,6.)) ;
#986=CARTESIAN_POINT('Line Origine',(74.,13.,6.)) ;
#1016=CARTESIAN_POINT('Line Origine',(17.,31.,17.)) ;
#1028=CARTESIAN_POINT('Axis2P3D Location',(79.,9.,32.7924077994)) ;
#1033=CARTESIAN_POINT('Line Origine',(89.,9.,32.7924077994)) ;
#1037=CARTESIAN_POINT('Vertex',(89.,31.,32.7924077994)) ;
#1040=CARTESIAN_POINT('Axis2P3D Location',(79.,31.,32.7924077994)) ;
#1052=CARTESIAN_POINT('Axis2P3D Location',(89.,0.,0.)) ;
#1057=CARTESIAN_POINT('Line Origine',(89.,31.,24.8962038997)) ;
#1073=CARTESIAN_POINT('Axis2P3D Location',(74.,31.,-2.)) ;
#1078=CARTESIAN_POINT('Line Origine',(74.,28.,18.)) ;
#1082=CARTESIAN_POINT('Vertex',(74.,31.,18.)) ;
#1085=CARTESIAN_POINT('Line Origine',(74.,31.,17.5)) ;
#1101=CARTESIAN_POINT('Axis2P3D Location',(71.5,8.33999999952,18.)) ;
#1106=CARTESIAN_POINT('Axis2P3D Location',(71.5,31.,18.)) ;
#1118=CARTESIAN_POINT('Axis2P3D Location',(64.,28.,5.)) ;
#1123=CARTESIAN_POINT('Line Origine',(64.,28.,-8.881784197E-016)) ;
#1127=CARTESIAN_POINT('Vertex',(64.,31.,0.)) ;
#1130=CARTESIAN_POINT('Axis2P3D Location',(64.,31.,5.)) ;
#1142=CARTESIAN_POINT('Line Origine',(-4.,28.,0.)) ;
#1146=CARTESIAN_POINT('Vertex',(-4.,31.,0.)) ;
#1149=CARTESIAN_POINT('Line Origine',(30.,31.,0.)) ;
#1161=CARTESIAN_POINT('Axis2P3D Location',(-4.,28.,5.)) ;
#1166=CARTESIAN_POINT('Line Origine',(-9.,28.,5.)) ;
#1170=CARTESIAN_POINT('Vertex',(-9.,31.,5.)) ;
#1173=CARTESIAN_POINT('Axis2P3D Location',(-4.,31.,5.)) ;
#1185=CARTESIAN_POINT('Axis2P3D Location',(-9.,13.,6.)) ;
#1190=CARTESIAN_POINT('Line Origine',(-9.,28.,18.)) ;
#1194=CARTESIAN_POINT('Vertex',(-9.,31.,18.)) ;
#1197=CARTESIAN_POINT('Line Origine',(-9.,31.,11.5)) ;
#1209=CARTESIAN_POINT('Axis2P3D Location',(-11.5,8.33999999952,18.)) ;
#1214=CARTESIAN_POINT('Axis2P3D Location',(-11.5,31.,18.)) ;
#1226=CARTESIAN_POINT('Axis2P3D Location',(-45.,9.,70.)) ;
#1231=CARTESIAN_POINT('Line Origine',(-45.,9.,80.)) ;
#1235=CARTESIAN_POINT('Vertex',(-45.,31.,80.)) ;
#1238=CARTESIAN_POINT('Axis2P3D Location',(-45.,31.,70.)) ;
#1250=CARTESIAN_POINT('Axis2P3D Location',(0.,31.,80.)) ;
#1255=CARTESIAN_POINT('Line Origine',(-38.8113883008,31.,80.)) ;
#1259=CARTESIAN_POINT('Vertex',(-32.6227766017,31.,80.)) ;
#1262=CARTESIAN_POINT('Line Origine',(-32.6227766017,28.,80.)) ;
#1274=CARTESIAN_POINT('Axis2P3D Location',(-32.6227766017,28.,70.)) ;
#1279=CARTESIAN_POINT('Axis2P3D Location',(-32.6227766017,31.,70.)) ;
#1291=CARTESIAN_POINT('Axis2P3D Location',(0.,31.,80.)) ;
#1320=CARTESIAN_POINT('Axis2P3D Location',(40.,31.,44.3730669589)) ;
#1324=CARTESIAN_POINT('Vertex',(42.4585,31.,44.3730669589)) ;
#1326=CARTESIAN_POINT('Vertex',(37.5415,31.,44.3730669589)) ;
#1329=CARTESIAN_POINT('Axis2P3D Location',(40.,31.,44.3730669589)) ;
#1338=CARTESIAN_POINT('Axis2P3D Location',(-28.,31.,32.)) ;
#1342=CARTESIAN_POINT('Vertex',(-25.5415,31.,32.)) ;
#1344=CARTESIAN_POINT('Vertex',(-30.4585,31.,32.)) ;
#1347=CARTESIAN_POINT('Axis2P3D Location',(-28.,31.,32.)) ;
#1356=CARTESIAN_POINT('Axis2P3D Location',(-42.3648460498,31.,71.4670901072)) ;
#1360=CARTESIAN_POINT('Vertex',(-39.9063460498,31.,71.4670901072)) ;
#1362=CARTESIAN_POINT('Vertex',(-44.8233460498,31.,71.4670901072)) ;
#1365=CARTESIAN_POINT('Axis2P3D Location',(-42.3648460498,31.,71.4670901072)) ;
#1375=CARTESIAN_POINT('Axis2P3D Location',(40.,31.,44.3730669589)) ;
#1380=CARTESIAN_POINT('Line Origine',(37.5415,9.00000000008,44.3730669589)) ;
#1385=CARTESIAN_POINT('Line Origine',(42.4585,9.00000000008,44.3730669589)) ;
#1404=CARTESIAN_POINT('Axis2P3D Location',(-28.,31.,32.)) ;
#1409=CARTESIAN_POINT('Line Origine',(-30.4585,9.00000000008,32.)) ;
#1414=CARTESIAN_POINT('Line Origine',(-25.5415,9.00000000008,32.)) ;
#1433=CARTESIAN_POINT('Axis2P3D Location',(-42.3648460498,31.,71.4670901072)) ;
#1438=CARTESIAN_POINT('Line Origine',(-44.8233460498,9.00000000008,71.4670901072)) ;
#1443=CARTESIAN_POINT('Line Origine',(-39.9063460498,9.00000000008,71.4670901072)) ;
#8=PRODUCT_RELATED_PRODUCT_CATEGORY('part',$,(#5)) ;
#29=STYLED_ITEM(' ',(#28),#21) ;
#28=PRESENTATION_STYLE_ASSIGNMENT((#27)) ;
#27=SURFACE_STYLE_USAGE(.BOTH.,#26) ;
#26=SURFACE_SIDE_STYLE(' ',(#25)) ;
#25=SURFACE_STYLE_FILL_AREA(#24) ;
#24=FILL_AREA_STYLE(' ',(#23)) ;
#23=FILL_AREA_STYLE_COLOUR(' ',#22) ;
#38=VECTOR('Line Direction',#37,1.) ;
#54=VECTOR('Line Direction',#53,1.) ;
#95=VECTOR('Line Direction',#94,1.) ;
#111=VECTOR('Line Direction',#110,1.) ;
#125=VECTOR('Line Direction',#124,1.) ;
#132=VECTOR('Line Direction',#131,1.) ;
#139=VECTOR('Line Direction',#138,1.) ;
#153=VECTOR('Line Direction',#152,1.) ;
#167=VECTOR('Line Direction',#166,1.) ;
#181=VECTOR('Line Direction',#180,1.) ;
#195=VECTOR('Line Direction',#194,1.) ;
#202=VECTOR('Line Direction',#201,1.) ;
#209=VECTOR('Line Direction',#208,1.) ;
#305=VECTOR('Line Direction',#304,1.) ;
#314=VECTOR('Line Direction',#313,1.) ;
#319=VECTOR('Line Direction',#318,1.) ;
#336=VECTOR('Line Direction',#335,1.) ;
#345=VECTOR('Line Direction',#344,1.) ;
#357=VECTOR('Line Direction',#356,1.) ;
#364=VECTOR('Line Direction',#363,1.) ;
#378=VECTOR('Line Direction',#377,1.) ;
#406=VECTOR('Line Direction',#405,1.) ;
#423=VECTOR('Line Direction',#422,1.) ;
#439=VECTOR('Line Direction',#438,1.) ;
#446=VECTOR('Line Direction',#445,1.) ;
#451=VECTOR('Line Direction',#450,1.) ;
#458=VECTOR('Line Direction',#457,1.) ;
#479=VECTOR('Line Direction',#478,1.) ;
#488=VECTOR('Line Direction',#487,1.) ;
#493=VECTOR('Line Direction',#492,1.) ;
#512=VECTOR('Line Direction',#511,1.) ;
#545=VECTOR('Line Direction',#544,1.) ;
#557=VECTOR('Line Direction',#556,1.) ;
#576=VECTOR('Line Direction',#575,1.) ;
#597=VECTOR('Line Direction',#596,1.) ;
#604=VECTOR('Line Direction',#603,1.) ;
#611=VECTOR('Line Direction',#610,1.) ;
#674=VECTOR('Line Direction',#673,1.) ;
#698=VECTOR('Line Direction',#697,1.) ;
#729=VECTOR('Line Direction',#728,1.) ;
#743=VECTOR('Line Direction',#742,1.) ;
#760=VECTOR('Line Direction',#759,1.) ;
#774=VECTOR('Line Direction',#773,1.) ;
#803=VECTOR('Line Direction',#802,1.) ;
#817=VECTOR('Line Direction',#816,1.) ;
#846=VECTOR('Line Direction',#845,1.) ;
#860=VECTOR('Line Direction',#859,1.) ;
#877=VECTOR('Line Direction',#876,1.) ;
#884=VECTOR('Line Direction',#883,1.) ;
#908=VECTOR('Line Direction',#907,1.) ;
#925=VECTOR('Line Direction',#924,1.) ;
#932=VECTOR('Line Direction',#931,1.) ;
#983=VECTOR('Line Direction',#982,1.) ;
#988=VECTOR('Line Direction',#987,1.) ;
#1018=VECTOR('Line Direction',#1017,1.) ;
#1035=VECTOR('Line Direction',#1034,1.) ;
#1059=VECTOR('Line Direction',#1058,1.) ;
#1080=VECTOR('Line Direction',#1079,1.) ;
#1087=VECTOR('Line Direction',#1086,1.) ;
#1125=VECTOR('Line Direction',#1124,1.) ;
#1144=VECTOR('Line Direction',#1143,1.) ;
#1151=VECTOR('Line Direction',#1150,1.) ;
#1168=VECTOR('Line Direction',#1167,1.) ;
#1192=VECTOR('Line Direction',#1191,1.) ;
#1199=VECTOR('Line Direction',#1198,1.) ;
#1233=VECTOR('Line Direction',#1232,1.) ;
#1257=VECTOR('Line Direction',#1256,1.) ;
#1264=VECTOR('Line Direction',#1263,1.) ;
#1382=VECTOR('Line Direction',#1381,1.) ;
#1387=VECTOR('Line Direction',#1386,1.) ;
#1411=VECTOR('Line Direction',#1410,1.) ;
#1416=VECTOR('Line Direction',#1415,1.) ;
#1440=VECTOR('Line Direction',#1439,1.) ;
#1445=VECTOR('Line Direction',#1444,1.) ;
#32=DIRECTION('Axis2P3D Direction',(0.,-1.,-0.)) ;
#33=DIRECTION('Axis2P3D XDirection',(1.,0.,0.)) ;
#37=DIRECTION('Vector Direction',(0.,-1.,0.)) ;
#46=DIRECTION('Axis2P3D Direction',(0.,-1.,-0.)) ;
#53=DIRECTION('Vector Direction',(0.,-1.,0.)) ;
#60=DIRECTION('Axis2P3D Direction',(0.,-1.,-0.)) ;
#72=DIRECTION('Axis2P3D Direction',(0.,-1.,-0.)) ;
#77=DIRECTION('Axis2P3D Direction',(0.,-1.,-0.)) ;
#89=DIRECTION('Axis2P3D Direction',(0.,-1.,0.)) ;
#90=DIRECTION('Axis2P3D XDirection',(0.,0.,-1.)) ;
#94=DIRECTION('Vector Direction',(-0.94868329805,0.,0.316227766018)) ;
#103=DIRECTION('Axis2P3D Direction',(0.,-1.,0.)) ;
#110=DIRECTION('Vector Direction',(1.,0.,0.)) ;
#117=DIRECTION('Axis2P3D Direction',(0.,-1.,0.)) ;
#124=DIRECTION('Vector Direction',(0.,0.,-1.)) ;
#131=DIRECTION('Vector Direction',(1.,0.,0.)) ;
#138=DIRECTION('Vector Direction',(0.,0.,1.)) ;
#145=DIRECTION('Axis2P3D Direction',(0.,-1.,0.)) ;
#152=DIRECTION('Vector Direction',(0.,0.,1.)) ;
#159=DIRECTION('Axis2P3D Direction',(0.,-1.,0.)) ;
#166=DIRECTION('Vector Direction',(-1.,0.,0.)) ;
#173=DIRECTION('Axis2P3D Direction',(0.,-1.,0.)) ;
#180=DIRECTION('Vector Direction',(0.,0.,1.)) ;
#187=DIRECTION('Axis2P3D Direction',(0.,-1.,0.)) ;
#194=DIRECTION('Vector Direction',(0.,0.,1.)) ;
#201=DIRECTION('Vector Direction',(1.,0.,0.)) ;
#208=DIRECTION('Vector Direction',(0.,0.,-1.)) ;
#215=DIRECTION('Axis2P3D Direction',(0.,-1.,0.)) ;
#244=DIRECTION('Axis2P3D Direction',(0.,-1.,0.)) ;
#253=DIRECTION('Axis2P3D Direction',(0.,-1.,0.)) ;
#262=DIRECTION('Axis2P3D Direction',(0.,-1.,0.)) ;
#271=DIRECTION('Axis2P3D Direction',(0.,-1.,0.)) ;
#280=DIRECTION('Axis2P3D Direction',(0.,-1.,0.)) ;
#289=DIRECTION('Axis2P3D Direction',(0.,-1.,0.)) ;
#299=DIRECTION('Axis2P3D Direction',(0.316227766017,0.,0.948683298051)) ;
#300=DIRECTION('Axis2P3D XDirection',(-0.948683298051,0.,0.316227766017)) ;
#304=DIRECTION('Vector Direction',(-0.948683298051,0.,0.316227766017)) ;
#313=DIRECTION('Vector Direction',(0.,-1.,0.)) ;
#318=DIRECTION('Vector Direction',(0.,-1.,0.)) ;
#330=DIRECTION('Axis2P3D Direction',(1.,0.,0.)) ;
#331=DIRECTION('Axis2P3D XDirection',(0.,1.,0.)) ;
#335=DIRECTION('Vector Direction',(0.,0.,-1.)) ;
#344=DIRECTION('Vector Direction',(0.,-1.,0.)) ;
#351=DIRECTION('Axis2P3D Direction',(1.,0.,0.)) ;
#356=DIRECTION('Vector Direction',(0.,-1.,0.)) ;
#363=DIRECTION('Vector Direction',(0.,0.,-1.)) ;
#370=DIRECTION('Axis2P3D Direction',(1.,0.,0.)) ;
#377=DIRECTION('Vector Direction',(0.,-1.,0.)) ;
#393=DIRECTION('Axis2P3D Direction',(1.,0.,0.)) ;
#394=DIRECTION('Axis2P3D XDirection',(-0.,-1.83697019872E-016,-1.)) ;
#398=DIRECTION('Axis2P3D Direction',(1.,0.,0.)) ;
#405=DIRECTION('Vector Direction',(1.,0.,0.)) ;
#417=DIRECTION('Axis2P3D Direction',(-1.,-0.,-0.)) ;
#418=DIRECTION('Axis2P3D XDirection',(0.,0.,-1.)) ;
#422=DIRECTION('Vector Direction',(0.,-1.,0.)) ;
#431=DIRECTION('Axis2P3D Direction',(-1.,-0.,-0.)) ;
#438=DIRECTION('Vector Direction',(0.,0.,-1.)) ;
#445=DIRECTION('Vector Direction',(0.,-1.,0.)) ;
#450=DIRECTION('Vector Direction',(0.,-1.,0.)) ;
#457=DIRECTION('Vector Direction',(0.,0.,-1.)) ;
#473=DIRECTION('Axis2P3D Direction',(1.,0.,0.)) ;
#474=DIRECTION('Axis2P3D XDirection',(0.,-1.,0.)) ;
#478=DIRECTION('Vector Direction',(0.,0.,-1.)) ;
#487=DIRECTION('Vector Direction',(0.,1.,0.)) ;
#492=DIRECTION('Vector Direction',(0.,-1.,0.)) ;
#504=DIRECTION('Axis2P3D Direction',(1.,0.,0.)) ;
#511=DIRECTION('Vector Direction',(1.,0.,0.)) ;
#518=DIRECTION('Axis2P3D Direction',(1.,0.,0.)) ;
#530=DIRECTION('Axis2P3D Direction',(-0.,0.,1.)) ;
#531=DIRECTION('Axis2P3D XDirection',(0.,-1.,0.)) ;
#535=DIRECTION('Axis2P3D Direction',(-0.,0.,1.)) ;
#544=DIRECTION('Vector Direction',(1.,0.,0.)) ;
#551=DIRECTION('Axis2P3D Direction',(-0.,0.,1.)) ;
#556=DIRECTION('Vector Direction',(1.,0.,0.)) ;
#561=DIRECTION('Axis2P3D Direction',(-0.,0.,1.)) ;
#568=DIRECTION('Axis2P3D Direction',(-0.,0.,1.)) ;
#575=DIRECTION('Vector Direction',(-1.,0.,0.)) ;
#582=DIRECTION('Axis2P3D Direction',(-0.,0.,1.)) ;
#589=DIRECTION('Axis2P3D Direction',(-0.,0.,1.)) ;
#596=DIRECTION('Vector Direction',(0.,1.,0.)) ;
#603=DIRECTION('Vector Direction',(1.,0.,0.)) ;
#610=DIRECTION('Vector Direction',(0.,-1.,0.)) ;
#631=DIRECTION('Axis2P3D Direction',(-0.,0.,1.)) ;
#640=DIRECTION('Axis2P3D Direction',(-0.,0.,1.)) ;
#649=DIRECTION('Axis2P3D Direction',(-0.,0.,1.)) ;
#658=DIRECTION('Axis2P3D Direction',(-0.,0.,1.)) ;
#668=DIRECTION('Axis2P3D Direction',(-0.,0.,1.)) ;
#669=DIRECTION('Axis2P3D XDirection',(-1.,1.22464679915E-016,-0.)) ;
#673=DIRECTION('Vector Direction',(0.,0.,1.)) ;
#680=DIRECTION('Axis2P3D Direction',(-0.,0.,1.)) ;
#692=DIRECTION('Axis2P3D Direction',(1.,0.,0.)) ;
#693=DIRECTION('Axis2P3D XDirection',(-0.,-1.83697019872E-016,-1.)) ;
#697=DIRECTION('Vector Direction',(1.,0.,0.)) ;
#706=DIRECTION('Axis2P3D Direction',(1.,0.,0.)) ;
#711=DIRECTION('Axis2P3D Direction',(1.,0.,0.)) ;
#723=DIRECTION('Axis2P3D Direction',(-0.,0.,1.)) ;
#724=DIRECTION('Axis2P3D XDirection',(-1.,1.22464679915E-016,-0.)) ;
#728=DIRECTION('Vector Direction',(0.,0.,1.)) ;
#735=DIRECTION('Axis2P3D Direction',(-0.,0.,1.)) ;
#742=DIRECTION('Vector Direction',(0.,0.,1.)) ;
#754=DIRECTION('Axis2P3D Direction',(-0.,0.,1.)) ;
#755=DIRECTION('Axis2P3D XDirection',(1.,0.,0.)) ;
#759=DIRECTION('Vector Direction',(0.,0.,1.)) ;
#766=DIRECTION('Axis2P3D Direction',(-0.,0.,1.)) ;
#773=DIRECTION('Vector Direction',(0.,0.,1.)) ;
#785=DIRECTION('Axis2P3D Direction',(-0.,0.,1.)) ;
#797=DIRECTION('Axis2P3D Direction',(-0.,0.,1.)) ;
#798=DIRECTION('Axis2P3D XDirection',(1.,0.,0.)) ;
#802=DIRECTION('Vector Direction',(0.,0.,1.)) ;
#809=DIRECTION('Axis2P3D Direction',(-0.,0.,1.)) ;
#816=DIRECTION('Vector Direction',(0.,0.,1.)) ;
#828=DIRECTION('Axis2P3D Direction',(-0.,0.,1.)) ;
#840=DIRECTION('Axis2P3D Direction',(0.,0.,-1.)) ;
#841=DIRECTION('Axis2P3D XDirection',(1.,1.83697019872E-016,0.)) ;
#845=DIRECTION('Vector Direction',(0.,0.,-1.)) ;
#852=DIRECTION('Axis2P3D Direction',(0.,0.,-1.)) ;
#859=DIRECTION('Vector Direction',(0.,0.,-1.)) ;
#871=DIRECTION('Axis2P3D Direction',(0.,-1.,0.)) ;
#872=DIRECTION('Axis2P3D XDirection',(0.,0.,-1.)) ;
#876=DIRECTION('Vector Direction',(1.,0.,0.)) ;
#883=DIRECTION('Vector Direction',(0.,0.,-1.)) ;
#895=DIRECTION('Axis2P3D Direction',(0.,0.,-1.)) ;
#896=DIRECTION('Axis2P3D XDirection',(-0.974996043044,0.222222222222,0.)) ;
#900=DIRECTION('Axis2P3D Direction',(0.,0.,-1.)) ;
#907=DIRECTION('Vector Direction',(0.,0.,-1.)) ;
#919=DIRECTION('Axis2P3D Direction',(0.,1.,-0.)) ;
#920=DIRECTION('Axis2P3D XDirection',(-1.,0.,0.)) ;
#924=DIRECTION('Vector Direction',(-1.,0.,0.)) ;
#931=DIRECTION('Vector Direction',(0.,0.,-1.)) ;
#943=DIRECTION('Axis2P3D Direction',(0.,0.,-1.)) ;
#944=DIRECTION('Axis2P3D XDirection',(-7.66053886991E-015,1.,0.)) ;
#948=DIRECTION('Axis2P3D Direction',(0.,0.,-1.)) ;
#960=DIRECTION('Axis2P3D Direction',(0.,0.,-1.)) ;
#961=DIRECTION('Axis2P3D XDirection',(1.83697019872E-016,-1.,-0.)) ;
#965=DIRECTION('Axis2P3D Direction',(0.,0.,-1.)) ;
#977=DIRECTION('Axis2P3D Direction',(-0.,0.,1.)) ;
#978=DIRECTION('Axis2P3D XDirection',(0.,-1.,0.)) ;
#982=DIRECTION('Vector Direction',(0.,-1.,0.)) ;
#987=DIRECTION('Vector Direction',(0.,1.,0.)) ;
#1017=DIRECTION('Vector Direction',(1.,0.,0.)) ;
#1029=DIRECTION('Axis2P3D Direction',(0.,-1.,0.)) ;
#1030=DIRECTION('Axis2P3D XDirection',(1.,0.,-6.66133814775E-016)) ;
#1034=DIRECTION('Vector Direction',(0.,-1.,0.)) ;
#1041=DIRECTION('Axis2P3D Direction',(0.,-1.,0.)) ;
#1053=DIRECTION('Axis2P3D Direction',(1.,0.,0.)) ;
#1054=DIRECTION('Axis2P3D XDirection',(0.,1.,0.)) ;
#1058=DIRECTION('Vector Direction',(0.,0.,-1.)) ;
#1074=DIRECTION('Axis2P3D Direction',(1.,0.,-0.)) ;
#1075=DIRECTION('Axis2P3D XDirection',(0.,0.,1.)) ;
#1079=DIRECTION('Vector Direction',(0.,-1.,0.)) ;
#1086=DIRECTION('Vector Direction',(0.,0.,1.)) ;
#1102=DIRECTION('Axis2P3D Direction',(0.,1.,-0.)) ;
#1103=DIRECTION('Axis2P3D XDirection',(-1.,0.,0.)) ;
#1107=DIRECTION('Axis2P3D Direction',(0.,1.,-0.)) ;
#1119=DIRECTION('Axis2P3D Direction',(0.,-1.,0.)) ;
#1120=DIRECTION('Axis2P3D XDirection',(-1.83697019872E-016,-0.,-1.)) ;
#1124=DIRECTION('Vector Direction',(0.,-1.,0.)) ;
#1131=DIRECTION('Axis2P3D Direction',(0.,-1.,0.)) ;
#1143=DIRECTION('Vector Direction',(0.,-1.,0.)) ;
#1150=DIRECTION('Vector Direction',(-1.,0.,0.)) ;
#1162=DIRECTION('Axis2P3D Direction',(0.,-1.,0.)) ;
#1163=DIRECTION('Axis2P3D XDirection',(-1.,-0.,1.83697019872E-016)) ;
#1167=DIRECTION('Vector Direction',(0.,-1.,0.)) ;
#1174=DIRECTION('Axis2P3D Direction',(0.,-1.,0.)) ;
#1186=DIRECTION('Axis2P3D Direction',(1.,0.,0.)) ;
#1187=DIRECTION('Axis2P3D XDirection',(0.,-1.,0.)) ;
#1191=DIRECTION('Vector Direction',(0.,-1.,0.)) ;
#1198=DIRECTION('Vector Direction',(0.,0.,1.)) ;
#1210=DIRECTION('Axis2P3D Direction',(0.,1.,-0.)) ;
#1211=DIRECTION('Axis2P3D XDirection',(-1.,0.,0.)) ;
#1215=DIRECTION('Axis2P3D Direction',(0.,1.,-0.)) ;
#1227=DIRECTION('Axis2P3D Direction',(0.,-1.,0.)) ;
#1228=DIRECTION('Axis2P3D XDirection',(1.83697019872E-016,0.,1.)) ;
#1232=DIRECTION('Vector Direction',(0.,-1.,0.)) ;
#1239=DIRECTION('Axis2P3D Direction',(0.,-1.,0.)) ;
#1251=DIRECTION('Axis2P3D Direction',(-0.,0.,1.)) ;
#1252=DIRECTION('Axis2P3D XDirection',(0.,-1.,0.)) ;
#1256=DIRECTION('Vector Direction',(1.,0.,0.)) ;
#1263=DIRECTION('Vector Direction',(0.,-1.,0.)) ;
#1275=DIRECTION('Axis2P3D Direction',(0.,-1.,0.)) ;
#1276=DIRECTION('Axis2P3D XDirection',(0.316227766017,0.,0.948683298051)) ;
#1280=DIRECTION('Axis2P3D Direction',(0.,-1.,0.)) ;
#1292=DIRECTION('Axis2P3D Direction',(0.,-1.,0.)) ;
#1293=DIRECTION('Axis2P3D XDirection',(0.,0.,-1.)) ;
#1321=DIRECTION('Axis2P3D Direction',(0.,-1.,0.)) ;
#1330=DIRECTION('Axis2P3D Direction',(0.,-1.,0.)) ;
#1339=DIRECTION('Axis2P3D Direction',(0.,-1.,0.)) ;
#1348=DIRECTION('Axis2P3D Direction',(0.,-1.,0.)) ;
#1357=DIRECTION('Axis2P3D Direction',(0.,-1.,0.)) ;
#1366=DIRECTION('Axis2P3D Direction',(0.,-1.,0.)) ;
#1376=DIRECTION('Axis2P3D Direction',(0.,-1.,-0.)) ;
#1377=DIRECTION('Axis2P3D XDirection',(1.,0.,0.)) ;
#1381=DIRECTION('Vector Direction',(0.,-1.,0.)) ;
#1386=DIRECTION('Vector Direction',(0.,-1.,0.)) ;
#1405=DIRECTION('Axis2P3D Direction',(0.,-1.,-0.)) ;
#1406=DIRECTION('Axis2P3D XDirection',(1.,0.,0.)) ;
#1410=DIRECTION('Vector Direction',(0.,-1.,0.)) ;
#1415=DIRECTION('Vector Direction',(0.,-1.,0.)) ;
#1434=DIRECTION('Axis2P3D Direction',(0.,-1.,-0.)) ;
#1435=DIRECTION('Axis2P3D XDirection',(1.,0.,0.)) ;
#1439=DIRECTION('Vector Direction',(0.,-1.,0.)) ;
#1444=DIRECTION('Vector Direction',(0.,-1.,0.)) ;
#15=UNCERTAINTY_MEASURE_WITH_UNIT(LENGTH_MEASURE(0.005),#12,'distance_accuracy_value','CONFUSED CURVE UNCERTAINTY') ;
#18=AXIS2_PLACEMENT_3D(' ',#17,$,$) ;
#34=AXIS2_PLACEMENT_3D('Cylinder Axis2P3D',#31,#32,#33) ;
#47=AXIS2_PLACEMENT_3D('Circle Axis2P3D',#45,#46,$) ;
#61=AXIS2_PLACEMENT_3D('Circle Axis2P3D',#59,#60,$) ;
#73=AXIS2_PLACEMENT_3D('Circle Axis2P3D',#71,#72,$) ;
#78=AXIS2_PLACEMENT_3D('Circle Axis2P3D',#76,#77,$) ;
#91=AXIS2_PLACEMENT_3D('Plane Axis2P3D',#88,#89,#90) ;
#104=AXIS2_PLACEMENT_3D('Circle Axis2P3D',#102,#103,$) ;
#118=AXIS2_PLACEMENT_3D('Circle Axis2P3D',#116,#117,$) ;
#146=AXIS2_PLACEMENT_3D('Circle Axis2P3D',#144,#145,$) ;
#160=AXIS2_PLACEMENT_3D('Circle Axis2P3D',#158,#159,$) ;
#174=AXIS2_PLACEMENT_3D('Circle Axis2P3D',#172,#173,$) ;
#188=AXIS2_PLACEMENT_3D('Circle Axis2P3D',#186,#187,$) ;
#216=AXIS2_PLACEMENT_3D('Circle Axis2P3D',#214,#215,$) ;
#245=AXIS2_PLACEMENT_3D('Circle Axis2P3D',#243,#244,$) ;
#254=AXIS2_PLACEMENT_3D('Circle Axis2P3D',#252,#253,$) ;
#263=AXIS2_PLACEMENT_3D('Circle Axis2P3D',#261,#262,$) ;
#272=AXIS2_PLACEMENT_3D('Circle Axis2P3D',#270,#271,$) ;
#281=AXIS2_PLACEMENT_3D('Circle Axis2P3D',#279,#280,$) ;
#290=AXIS2_PLACEMENT_3D('Circle Axis2P3D',#288,#289,$) ;
#301=AXIS2_PLACEMENT_3D('Plane Axis2P3D',#298,#299,#300) ;
#332=AXIS2_PLACEMENT_3D('Plane Axis2P3D',#329,#330,#331) ;
#352=AXIS2_PLACEMENT_3D('Circle Axis2P3D',#350,#351,$) ;
#371=AXIS2_PLACEMENT_3D('Circle Axis2P3D',#369,#370,$) ;
#395=AXIS2_PLACEMENT_3D('Cylinder Axis2P3D',#392,#393,#394) ;
#399=AXIS2_PLACEMENT_3D('Circle Axis2P3D',#397,#398,$) ;
#419=AXIS2_PLACEMENT_3D('Plane Axis2P3D',#416,#417,#418) ;
#432=AXIS2_PLACEMENT_3D('Circle Axis2P3D',#430,#431,$) ;
#475=AXIS2_PLACEMENT_3D('Plane Axis2P3D',#472,#473,#474) ;
#505=AXIS2_PLACEMENT_3D('Circle Axis2P3D',#503,#504,$) ;
#519=AXIS2_PLACEMENT_3D('Circle Axis2P3D',#517,#518,$) ;
#532=AXIS2_PLACEMENT_3D('Plane Axis2P3D',#529,#530,#531) ;
#536=AXIS2_PLACEMENT_3D('Circle Axis2P3D',#534,#535,$) ;
#552=AXIS2_PLACEMENT_3D('Circle Axis2P3D',#550,#551,$) ;
#562=AXIS2_PLACEMENT_3D('Circle Axis2P3D',#560,#561,$) ;
#569=AXIS2_PLACEMENT_3D('Circle Axis2P3D',#567,#568,$) ;
#583=AXIS2_PLACEMENT_3D('Circle Axis2P3D',#581,#582,$) ;
#590=AXIS2_PLACEMENT_3D('Circle Axis2P3D',#588,#589,$) ;
#632=AXIS2_PLACEMENT_3D('Circle Axis2P3D',#630,#631,$) ;
#641=AXIS2_PLACEMENT_3D('Circle Axis2P3D',#639,#640,$) ;
#650=AXIS2_PLACEMENT_3D('Circle Axis2P3D',#648,#649,$) ;
#659=AXIS2_PLACEMENT_3D('Circle Axis2P3D',#657,#658,$) ;
#670=AXIS2_PLACEMENT_3D('Cylinder Axis2P3D',#667,#668,#669) ;
#681=AXIS2_PLACEMENT_3D('Circle Axis2P3D',#679,#680,$) ;
#694=AXIS2_PLACEMENT_3D('Cylinder Axis2P3D',#691,#692,#693) ;
#707=AXIS2_PLACEMENT_3D('Circle Axis2P3D',#705,#706,$) ;
#712=AXIS2_PLACEMENT_3D('Circle Axis2P3D',#710,#711,$) ;
#725=AXIS2_PLACEMENT_3D('Cylinder Axis2P3D',#722,#723,#724) ;
#736=AXIS2_PLACEMENT_3D('Circle Axis2P3D',#734,#735,$) ;
#756=AXIS2_PLACEMENT_3D('Cylinder Axis2P3D',#753,#754,#755) ;
#767=AXIS2_PLACEMENT_3D('Circle Axis2P3D',#765,#766,$) ;
#786=AXIS2_PLACEMENT_3D('Circle Axis2P3D',#784,#785,$) ;
#799=AXIS2_PLACEMENT_3D('Cylinder Axis2P3D',#796,#797,#798) ;
#810=AXIS2_PLACEMENT_3D('Circle Axis2P3D',#808,#809,$) ;
#829=AXIS2_PLACEMENT_3D('Circle Axis2P3D',#827,#828,$) ;
#842=AXIS2_PLACEMENT_3D('Cylinder Axis2P3D',#839,#840,#841) ;
#853=AXIS2_PLACEMENT_3D('Circle Axis2P3D',#851,#852,$) ;
#873=AXIS2_PLACEMENT_3D('Plane Axis2P3D',#870,#871,#872) ;
#897=AXIS2_PLACEMENT_3D('Cylinder Axis2P3D',#894,#895,#896) ;
#901=AXIS2_PLACEMENT_3D('Circle Axis2P3D',#899,#900,$) ;
#921=AXIS2_PLACEMENT_3D('Plane Axis2P3D',#918,#919,#920) ;
#945=AXIS2_PLACEMENT_3D('Cylinder Axis2P3D',#942,#943,#944) ;
#949=AXIS2_PLACEMENT_3D('Circle Axis2P3D',#947,#948,$) ;
#962=AXIS2_PLACEMENT_3D('Cylinder Axis2P3D',#959,#960,#961) ;
#966=AXIS2_PLACEMENT_3D('Circle Axis2P3D',#964,#965,$) ;
#979=AXIS2_PLACEMENT_3D('Plane Axis2P3D',#976,#977,#978) ;
#1031=AXIS2_PLACEMENT_3D('Cylinder Axis2P3D',#1028,#1029,#1030) ;
#1042=AXIS2_PLACEMENT_3D('Circle Axis2P3D',#1040,#1041,$) ;
#1055=AXIS2_PLACEMENT_3D('Plane Axis2P3D',#1052,#1053,#1054) ;
#1076=AXIS2_PLACEMENT_3D('Plane Axis2P3D',#1073,#1074,#1075) ;
#1104=AXIS2_PLACEMENT_3D('Cylinder Axis2P3D',#1101,#1102,#1103) ;
#1108=AXIS2_PLACEMENT_3D('Circle Axis2P3D',#1106,#1107,$) ;
#1121=AXIS2_PLACEMENT_3D('Cylinder Axis2P3D',#1118,#1119,#1120) ;
#1132=AXIS2_PLACEMENT_3D('Circle Axis2P3D',#1130,#1131,$) ;
#1164=AXIS2_PLACEMENT_3D('Cylinder Axis2P3D',#1161,#1162,#1163) ;
#1175=AXIS2_PLACEMENT_3D('Circle Axis2P3D',#1173,#1174,$) ;
#1188=AXIS2_PLACEMENT_3D('Plane Axis2P3D',#1185,#1186,#1187) ;
#1212=AXIS2_PLACEMENT_3D('Cylinder Axis2P3D',#1209,#1210,#1211) ;
#1216=AXIS2_PLACEMENT_3D('Circle Axis2P3D',#1214,#1215,$) ;
#1229=AXIS2_PLACEMENT_3D('Cylinder Axis2P3D',#1226,#1227,#1228) ;
#1240=AXIS2_PLACEMENT_3D('Circle Axis2P3D',#1238,#1239,$) ;
#1253=AXIS2_PLACEMENT_3D('Plane Axis2P3D',#1250,#1251,#1252) ;
#1277=AXIS2_PLACEMENT_3D('Cylinder Axis2P3D',#1274,#1275,#1276) ;
#1281=AXIS2_PLACEMENT_3D('Circle Axis2P3D',#1279,#1280,$) ;
#1294=AXIS2_PLACEMENT_3D('Plane Axis2P3D',#1291,#1292,#1293) ;
#1322=AXIS2_PLACEMENT_3D('Circle Axis2P3D',#1320,#1321,$) ;
#1331=AXIS2_PLACEMENT_3D('Circle Axis2P3D',#1329,#1330,$) ;
#1340=AXIS2_PLACEMENT_3D('Circle Axis2P3D',#1338,#1339,$) ;
#1349=AXIS2_PLACEMENT_3D('Circle Axis2P3D',#1347,#1348,$) ;
#1358=AXIS2_PLACEMENT_3D('Circle Axis2P3D',#1356,#1357,$) ;
#1367=AXIS2_PLACEMENT_3D('Circle Axis2P3D',#1365,#1366,$) ;
#1378=AXIS2_PLACEMENT_3D('Cylinder Axis2P3D',#1375,#1376,#1377) ;
#1407=AXIS2_PLACEMENT_3D('Cylinder Axis2P3D',#1404,#1405,#1406) ;
#1436=AXIS2_PLACEMENT_3D('Cylinder Axis2P3D',#1433,#1434,#1435) ;
#39=LINE('Line',#36,#38) ;
#55=LINE('Line',#52,#54) ;
#96=LINE('Line',#93,#95) ;
#112=LINE('Line',#109,#111) ;
#126=LINE('Line',#123,#125) ;
#133=LINE('Line',#130,#132) ;
#140=LINE('Line',#137,#139) ;
#154=LINE('Line',#151,#153) ;
#168=LINE('Line',#165,#167) ;
#182=LINE('Line',#179,#181) ;
#196=LINE('Line',#193,#195) ;
#203=LINE('Line',#200,#202) ;
#210=LINE('Line',#207,#209) ;
#306=LINE('Line',#303,#305) ;
#315=LINE('Line',#312,#314) ;
#320=LINE('Line',#317,#319) ;
#337=LINE('Line',#334,#336) ;
#346=LINE('Line',#343,#345) ;
#358=LINE('Line',#355,#357) ;
#365=LINE('Line',#362,#364) ;
#379=LINE('Line',#376,#378) ;
#407=LINE('Line',#404,#406) ;
#424=LINE('Line',#421,#423) ;
#440=LINE('Line',#437,#439) ;
#447=LINE('Line',#444,#446) ;
#452=LINE('Line',#449,#451) ;
#459=LINE('Line',#456,#458) ;
#480=LINE('Line',#477,#479) ;
#489=LINE('Line',#486,#488) ;
#494=LINE('Line',#491,#493) ;
#513=LINE('Line',#510,#512) ;
#546=LINE('Line',#543,#545) ;
#558=LINE('Line',#555,#557) ;
#577=LINE('Line',#574,#576) ;
#598=LINE('Line',#595,#597) ;
#605=LINE('Line',#602,#604) ;
#612=LINE('Line',#609,#611) ;
#675=LINE('Line',#672,#674) ;
#699=LINE('Line',#696,#698) ;
#730=LINE('Line',#727,#729) ;
#744=LINE('Line',#741,#743) ;
#761=LINE('Line',#758,#760) ;
#775=LINE('Line',#772,#774) ;
#804=LINE('Line',#801,#803) ;
#818=LINE('Line',#815,#817) ;
#847=LINE('Line',#844,#846) ;
#861=LINE('Line',#858,#860) ;
#878=LINE('Line',#875,#877) ;
#885=LINE('Line',#882,#884) ;
#909=LINE('Line',#906,#908) ;
#926=LINE('Line',#923,#925) ;
#933=LINE('Line',#930,#932) ;
#984=LINE('Line',#981,#983) ;
#989=LINE('Line',#986,#988) ;
#1019=LINE('Line',#1016,#1018) ;
#1036=LINE('Line',#1033,#1035) ;
#1060=LINE('Line',#1057,#1059) ;
#1081=LINE('Line',#1078,#1080) ;
#1088=LINE('Line',#1085,#1087) ;
#1126=LINE('Line',#1123,#1125) ;
#1145=LINE('Line',#1142,#1144) ;
#1152=LINE('Line',#1149,#1151) ;
#1169=LINE('Line',#1166,#1168) ;
#1193=LINE('Line',#1190,#1192) ;
#1200=LINE('Line',#1197,#1199) ;
#1234=LINE('Line',#1231,#1233) ;
#1258=LINE('Line',#1255,#1257) ;
#1265=LINE('Line',#1262,#1264) ;
#1383=LINE('Line',#1380,#1382) ;
#1388=LINE('Line',#1385,#1387) ;
#1412=LINE('Line',#1409,#1411) ;
#1417=LINE('Line',#1414,#1416) ;
#1441=LINE('Line',#1438,#1440) ;
#1446=LINE('Line',#1443,#1445) ;
#48=CIRCLE('generated circle',#47,2.4585) ;
#62=CIRCLE('generated circle',#61,2.4585) ;
#74=CIRCLE('generated circle',#73,2.4585) ;
#79=CIRCLE('generated circle',#78,2.4585) ;
#105=CIRCLE('generated circle',#104,10.) ;
#119=CIRCLE('generated circle',#118,10.) ;
#147=CIRCLE('generated circle',#146,2.5) ;
#161=CIRCLE('generated circle',#160,5.) ;
#175=CIRCLE('generated circle',#174,5.) ;
#189=CIRCLE('generated circle',#188,2.5) ;
#217=CIRCLE('generated circle',#216,10.) ;
#246=CIRCLE('generated circle',#245,2.4585) ;
#255=CIRCLE('generated circle',#254,2.4585) ;
#264=CIRCLE('generated circle',#263,2.4585) ;
#273=CIRCLE('generated circle',#272,2.4585) ;
#282=CIRCLE('generated circle',#281,2.4585) ;
#291=CIRCLE('generated circle',#290,2.4585) ;
#353=CIRCLE('generated circle',#352,11.) ;
#372=CIRCLE('generated circle',#371,17.) ;
#400=CIRCLE('generated circle',#399,11.) ;
#433=CIRCLE('generated circle',#432,17.) ;
#506=CIRCLE('generated circle',#505,11.) ;
#520=CIRCLE('generated circle',#519,11.) ;
#537=CIRCLE('generated circle',#536,10.) ;
#553=CIRCLE('generated circle',#552,10.) ;
#563=CIRCLE('generated circle',#562,2.5) ;
#570=CIRCLE('generated circle',#569,2.) ;
#584=CIRCLE('generated circle',#583,2.) ;
#591=CIRCLE('generated circle',#590,2.5) ;
#633=CIRCLE('generated circle',#632,4.5) ;
#642=CIRCLE('generated circle',#641,4.5) ;
#651=CIRCLE('generated circle',#650,4.5) ;
#660=CIRCLE('generated circle',#659,4.5) ;
#682=CIRCLE('generated circle',#681,2.5) ;
#708=CIRCLE('generated circle',#707,17.) ;
#713=CIRCLE('generated circle',#712,17.) ;
#737=CIRCLE('generated circle',#736,2.5) ;
#768=CIRCLE('generated circle',#767,4.5) ;
#787=CIRCLE('generated circle',#786,4.5) ;
#811=CIRCLE('generated circle',#810,4.5) ;
#830=CIRCLE('generated circle',#829,4.5) ;
#854=CIRCLE('generated circle',#853,10.) ;
#902=CIRCLE('generated circle',#901,2.) ;
#950=CIRCLE('generated circle',#949,2.) ;
#967=CIRCLE('generated circle',#966,10.) ;
#1043=CIRCLE('generated circle',#1042,10.) ;
#1109=CIRCLE('generated circle',#1108,2.5) ;
#1133=CIRCLE('generated circle',#1132,5.) ;
#1176=CIRCLE('generated circle',#1175,5.) ;
#1217=CIRCLE('generated circle',#1216,2.5) ;
#1241=CIRCLE('generated circle',#1240,10.) ;
#1282=CIRCLE('generated circle',#1281,10.) ;
#1323=CIRCLE('generated circle',#1322,2.4585) ;
#1332=CIRCLE('generated circle',#1331,2.4585) ;
#1341=CIRCLE('generated circle',#1340,2.4585) ;
#1350=CIRCLE('generated circle',#1349,2.4585) ;
#1359=CIRCLE('generated circle',#1358,2.4585) ;
#1368=CIRCLE('generated circle',#1367,2.4585) ;
#92=PLANE('',#91) ;
#302=PLANE('',#301) ;
#333=PLANE('',#332) ;
#420=PLANE('',#419) ;
#476=PLANE('',#475) ;
#533=PLANE('',#532) ;
#874=PLANE('',#873) ;
#922=PLANE('',#921) ;
#980=PLANE('',#979) ;
#1056=PLANE('',#1055) ;
#1077=PLANE('',#1076) ;
#1189=PLANE('',#1188) ;
#1254=PLANE('',#1253) ;
#1295=PLANE('',#1294) ;
#35=CYLINDRICAL_SURFACE('generated cylinder',#34,2.4585) ;
#396=CYLINDRICAL_SURFACE('generated cylinder',#395,11.) ;
#671=CYLINDRICAL_SURFACE('generated cylinder',#670,2.5) ;
#695=CYLINDRICAL_SURFACE('generated cylinder',#694,17.) ;
#726=CYLINDRICAL_SURFACE('generated cylinder',#725,2.5) ;
#757=CYLINDRICAL_SURFACE('generated cylinder',#756,4.5) ;
#800=CYLINDRICAL_SURFACE('generated cylinder',#799,4.5) ;
#843=CYLINDRICAL_SURFACE('generated cylinder',#842,10.) ;
#898=CYLINDRICAL_SURFACE('generated cylinder',#897,2.) ;
#946=CYLINDRICAL_SURFACE('generated cylinder',#945,2.) ;
#963=CYLINDRICAL_SURFACE('generated cylinder',#962,10.) ;
#1032=CYLINDRICAL_SURFACE('generated cylinder',#1031,10.) ;
#1105=CYLINDRICAL_SURFACE('generated cylinder',#1104,2.5) ;
#1122=CYLINDRICAL_SURFACE('generated cylinder',#1121,5.) ;
#1165=CYLINDRICAL_SURFACE('generated cylinder',#1164,5.) ;
#1213=CYLINDRICAL_SURFACE('generated cylinder',#1212,2.5) ;
#1230=CYLINDRICAL_SURFACE('generated cylinder',#1229,10.) ;
#1278=CYLINDRICAL_SURFACE('generated cylinder',#1277,10.) ;
#1379=CYLINDRICAL_SURFACE('generated cylinder',#1378,2.4585) ;
#1408=CYLINDRICAL_SURFACE('generated cylinder',#1407,2.4585) ;
#1437=CYLINDRICAL_SURFACE('generated cylinder',#1436,2.4585) ;
#242=FACE_BOUND('',#239,.T.) ;
#260=FACE_BOUND('',#257,.T.) ;
#278=FACE_BOUND('',#275,.T.) ;
#296=FACE_BOUND('',#293,.T.) ;
#647=FACE_BOUND('',#644,.T.) ;
#665=FACE_BOUND('',#662,.T.) ;
#1010=FACE_BOUND('',#1007,.T.) ;
#1014=FACE_BOUND('',#1011,.T.) ;
#1319=FACE_BOUND('',#1316,.T.) ;
#1337=FACE_BOUND('',#1334,.T.) ;
#1355=FACE_BOUND('',#1352,.T.) ;
#1373=FACE_BOUND('',#1370,.T.) ;
#44=EDGE_CURVE('',#41,#43,#39,.F.) ;
#51=EDGE_CURVE('',#41,#50,#48,.T.) ;
#58=EDGE_CURVE('',#50,#57,#55,.F.) ;
#63=EDGE_CURVE('',#43,#57,#62,.T.) ;
#75=EDGE_CURVE('',#50,#41,#74,.T.) ;
#80=EDGE_CURVE('',#57,#43,#79,.T.) ;
#101=EDGE_CURVE('',#98,#100,#96,.T.) ;
#108=EDGE_CURVE('',#107,#100,#105,.F.) ;
#115=EDGE_CURVE('',#114,#107,#112,.T.) ;
#122=EDGE_CURVE('',#121,#114,#119,.F.) ;
#129=EDGE_CURVE('',#121,#128,#126,.T.) ;
#136=EDGE_CURVE('',#128,#135,#133,.T.) ;
#143=EDGE_CURVE('',#135,#142,#140,.T.) ;
#150=EDGE_CURVE('',#149,#142,#147,.T.) ;
#157=EDGE_CURVE('',#156,#149,#154,.T.) ;
#164=EDGE_CURVE('',#163,#156,#161,.F.) ;
#171=EDGE_CURVE('',#170,#163,#168,.T.) ;
#178=EDGE_CURVE('',#177,#170,#175,.F.) ;
#185=EDGE_CURVE('',#177,#184,#182,.T.) ;
#192=EDGE_CURVE('',#191,#184,#189,.T.) ;
#199=EDGE_CURVE('',#198,#191,#196,.T.) ;
#206=EDGE_CURVE('',#198,#205,#203,.T.) ;
#213=EDGE_CURVE('',#212,#205,#210,.T.) ;
#218=EDGE_CURVE('',#98,#212,#217,.F.) ;
#251=EDGE_CURVE('',#248,#250,#246,.T.) ;
#256=EDGE_CURVE('',#250,#248,#255,.T.) ;
#269=EDGE_CURVE('',#266,#268,#264,.T.) ;
#274=EDGE_CURVE('',#268,#266,#273,.T.) ;
#287=EDGE_CURVE('',#284,#286,#282,.T.) ;
#292=EDGE_CURVE('',#286,#284,#291,.T.) ;
#311=EDGE_CURVE('',#308,#310,#306,.T.) ;
#316=EDGE_CURVE('',#310,#100,#315,.T.) ;
#321=EDGE_CURVE('',#308,#98,#320,.T.) ;
#342=EDGE_CURVE('',#339,#341,#337,.T.) ;
#349=EDGE_CURVE('',#348,#339,#346,.T.) ;
#354=EDGE_CURVE('',#348,#128,#353,.T.) ;
#361=EDGE_CURVE('',#360,#121,#358,.T.) ;
#368=EDGE_CURVE('',#360,#367,#365,.T.) ;
#375=EDGE_CURVE('',#374,#367,#372,.T.) ;
#380=EDGE_CURVE('',#374,#341,#379,.T.) ;
#403=EDGE_CURVE('',#135,#402,#400,.F.) ;
#408=EDGE_CURVE('',#348,#402,#407,.T.) ;
#429=EDGE_CURVE('',#426,#428,#424,.T.) ;
#436=EDGE_CURVE('',#435,#426,#433,.T.) ;
#443=EDGE_CURVE('',#435,#442,#440,.F.) ;
#448=EDGE_CURVE('',#442,#142,#447,.T.) ;
#455=EDGE_CURVE('',#402,#454,#452,.T.) ;
#460=EDGE_CURVE('',#454,#428,#459,.T.) ;
#485=EDGE_CURVE('',#482,#484,#480,.T.) ;
#490=EDGE_CURVE('',#482,#184,#489,.F.) ;
#495=EDGE_CURVE('',#484,#177,#494,.T.) ;
#509=EDGE_CURVE('',#508,#198,#506,.T.) ;
#516=EDGE_CURVE('',#508,#515,#513,.T.) ;
#521=EDGE_CURVE('',#515,#205,#520,.T.) ;
#542=EDGE_CURVE('',#539,#541,#537,.T.) ;
#549=EDGE_CURVE('',#548,#539,#546,.T.) ;
#554=EDGE_CURVE('',#341,#548,#553,.T.) ;
#559=EDGE_CURVE('',#374,#426,#558,.T.) ;
#566=EDGE_CURVE('',#428,#565,#563,.T.) ;
#573=EDGE_CURVE('',#572,#565,#570,.T.) ;
#580=EDGE_CURVE('',#579,#572,#577,.T.) ;
#587=EDGE_CURVE('',#586,#579,#584,.T.) ;
#594=EDGE_CURVE('',#586,#593,#591,.T.) ;
#601=EDGE_CURVE('',#593,#600,#598,.T.) ;
#608=EDGE_CURVE('',#600,#607,#605,.T.) ;
#613=EDGE_CURVE('',#607,#541,#612,.T.) ;
#638=EDGE_CURVE('',#635,#637,#633,.T.) ;
#643=EDGE_CURVE('',#637,#635,#642,.T.) ;
#656=EDGE_CURVE('',#653,#655,#651,.T.) ;
#661=EDGE_CURVE('',#655,#653,#660,.T.) ;
#678=EDGE_CURVE('',#677,#565,#675,.F.) ;
#683=EDGE_CURVE('',#454,#677,#682,.T.) ;
#704=EDGE_CURVE('',#701,#703,#699,.T.) ;
#709=EDGE_CURVE('',#607,#703,#708,.T.) ;
#714=EDGE_CURVE('',#600,#701,#713,.T.) ;
#733=EDGE_CURVE('',#732,#586,#730,.F.) ;
#740=EDGE_CURVE('',#732,#739,#737,.T.) ;
#745=EDGE_CURVE('',#739,#593,#744,.F.) ;
#764=EDGE_CURVE('',#763,#637,#761,.F.) ;
#771=EDGE_CURVE('',#763,#770,#768,.T.) ;
#776=EDGE_CURVE('',#770,#635,#775,.F.) ;
#788=EDGE_CURVE('',#770,#763,#787,.T.) ;
#807=EDGE_CURVE('',#806,#655,#804,.F.) ;
#814=EDGE_CURVE('',#806,#813,#811,.T.) ;
#819=EDGE_CURVE('',#813,#653,#818,.F.) ;
#831=EDGE_CURVE('',#813,#806,#830,.T.) ;
#850=EDGE_CURVE('',#849,#541,#847,.T.) ;
#857=EDGE_CURVE('',#849,#856,#854,.T.) ;
#862=EDGE_CURVE('',#856,#539,#861,.T.) ;
#881=EDGE_CURVE('',#880,#856,#878,.T.) ;
#886=EDGE_CURVE('',#880,#548,#885,.T.) ;
#905=EDGE_CURVE('',#677,#904,#902,.T.) ;
#910=EDGE_CURVE('',#904,#572,#909,.T.) ;
#929=EDGE_CURVE('',#928,#904,#926,.T.) ;
#934=EDGE_CURVE('',#928,#579,#933,.T.) ;
#951=EDGE_CURVE('',#928,#732,#950,.T.) ;
#968=EDGE_CURVE('',#880,#339,#967,.T.) ;
#985=EDGE_CURVE('',#515,#849,#984,.T.) ;
#990=EDGE_CURVE('',#739,#508,#989,.T.) ;
#1020=EDGE_CURVE('',#367,#435,#1019,.T.) ;
#1039=EDGE_CURVE('',#1038,#212,#1036,.T.) ;
#1044=EDGE_CURVE('',#1038,#308,#1043,.T.) ;
#1061=EDGE_CURVE('',#1038,#703,#1060,.T.) ;
#1084=EDGE_CURVE('',#1083,#191,#1081,.T.) ;
#1089=EDGE_CURVE('',#1083,#701,#1088,.F.) ;
#1110=EDGE_CURVE('',#482,#1083,#1109,.T.) ;
#1129=EDGE_CURVE('',#1128,#170,#1126,.T.) ;
#1134=EDGE_CURVE('',#1128,#484,#1133,.T.) ;
#1148=EDGE_CURVE('',#1147,#163,#1145,.T.) ;
#1153=EDGE_CURVE('',#1128,#1147,#1152,.T.) ;
#1172=EDGE_CURVE('',#1171,#156,#1169,.T.) ;
#1177=EDGE_CURVE('',#1171,#1147,#1176,.T.) ;
#1196=EDGE_CURVE('',#1195,#149,#1193,.T.) ;
#1201=EDGE_CURVE('',#1171,#1195,#1200,.T.) ;
#1218=EDGE_CURVE('',#442,#1195,#1217,.T.) ;
#1237=EDGE_CURVE('',#1236,#114,#1234,.T.) ;
#1242=EDGE_CURVE('',#1236,#360,#1241,.T.) ;
#1261=EDGE_CURVE('',#1236,#1260,#1258,.T.) ;
#1266=EDGE_CURVE('',#1260,#107,#1265,.T.) ;
#1283=EDGE_CURVE('',#310,#1260,#1282,.T.) ;
#1328=EDGE_CURVE('',#1325,#1327,#1323,.T.) ;
#1333=EDGE_CURVE('',#1327,#1325,#1332,.T.) ;
#1346=EDGE_CURVE('',#1343,#1345,#1341,.T.) ;
#1351=EDGE_CURVE('',#1345,#1343,#1350,.T.) ;
#1364=EDGE_CURVE('',#1361,#1363,#1359,.T.) ;
#1369=EDGE_CURVE('',#1363,#1361,#1368,.T.) ;
#1384=EDGE_CURVE('',#248,#1327,#1383,.F.) ;
#1389=EDGE_CURVE('',#250,#1325,#1388,.F.) ;
#1413=EDGE_CURVE('',#266,#1345,#1412,.F.) ;
#1418=EDGE_CURVE('',#268,#1343,#1417,.F.) ;
#1442=EDGE_CURVE('',#284,#1363,#1441,.F.) ;
#1447=EDGE_CURVE('',#286,#1361,#1446,.F.) ;
#30=CLOSED_SHELL('Closed Shell',(#70,#87,#297,#328,#391,#415,#471,#502,#528,#666,#690,#721,#752,#783,#795,#826,#838,#869,#893,#917,#941,#958,#975,#1015,#1027,#1051,#1072,#1100,#1117,#1141,#1160,#1184,#1208,#1225,#1249,#1273,#1290,#1374,#1396,#1403,#1425,#1432,#1454,#1461)) ;
#1463=SHAPE_REPRESENTATION_RELATIONSHIP(' ',' ',#19,#1462) ;
#64=EDGE_LOOP('',(#65,#66,#67,#68)) ;
#81=EDGE_LOOP('',(#82,#83,#84,#85)) ;
#219=EDGE_LOOP('',(#220,#221,#222,#223,#224,#225,#226,#227,#228,#229,#230,#231,#232,#233,#234,#235,#236,#237)) ;
#239=EDGE_LOOP('',(#240,#241)) ;
#257=EDGE_LOOP('',(#258,#259)) ;
#275=EDGE_LOOP('',(#276,#277)) ;
#293=EDGE_LOOP('',(#294,#295)) ;
#322=EDGE_LOOP('',(#323,#324,#325,#326)) ;
#381=EDGE_LOOP('',(#382,#383,#384,#385,#386,#387,#388,#389)) ;
#409=EDGE_LOOP('',(#410,#411,#412,#413)) ;
#461=EDGE_LOOP('',(#462,#463,#464,#465,#466,#467,#468,#469)) ;
#496=EDGE_LOOP('',(#497,#498,#499,#500)) ;
#522=EDGE_LOOP('',(#523,#524,#525,#526)) ;
#614=EDGE_LOOP('',(#615,#616,#617,#618,#619,#620,#621,#622,#623,#624,#625,#626,#627,#628)) ;
#644=EDGE_LOOP('',(#645,#646)) ;
#662=EDGE_LOOP('',(#663,#664)) ;
#684=EDGE_LOOP('',(#685,#686,#687,#688)) ;
#715=EDGE_LOOP('',(#716,#717,#718,#719)) ;
#746=EDGE_LOOP('',(#747,#748,#749,#750)) ;
#777=EDGE_LOOP('',(#778,#779,#780,#781)) ;
#789=EDGE_LOOP('',(#790,#791,#792,#793)) ;
#820=EDGE_LOOP('',(#821,#822,#823,#824)) ;
#832=EDGE_LOOP('',(#833,#834,#835,#836)) ;
#863=EDGE_LOOP('',(#864,#865,#866,#867)) ;
#887=EDGE_LOOP('',(#888,#889,#890,#891)) ;
#911=EDGE_LOOP('',(#912,#913,#914,#915)) ;
#935=EDGE_LOOP('',(#936,#937,#938,#939)) ;
#952=EDGE_LOOP('',(#953,#954,#955,#956)) ;
#969=EDGE_LOOP('',(#970,#971,#972,#973)) ;
#991=EDGE_LOOP('',(#992,#993,#994,#995,#996,#997,#998,#999,#1000,#1001,#1002,#1003,#1004,#1005)) ;
#1007=EDGE_LOOP('',(#1008,#1009)) ;
#1011=EDGE_LOOP('',(#1012,#1013)) ;
#1021=EDGE_LOOP('',(#1022,#1023,#1024,#1025)) ;
#1045=EDGE_LOOP('',(#1046,#1047,#1048,#1049)) ;
#1062=EDGE_LOOP('',(#1063,#1064,#1065,#1066,#1067,#1068,#1069,#1070)) ;
#1090=EDGE_LOOP('',(#1091,#1092,#1093,#1094,#1095,#1096,#1097,#1098)) ;
#1111=EDGE_LOOP('',(#1112,#1113,#1114,#1115)) ;
#1135=EDGE_LOOP('',(#1136,#1137,#1138,#1139)) ;
#1154=EDGE_LOOP('',(#1155,#1156,#1157,#1158)) ;
#1178=EDGE_LOOP('',(#1179,#1180,#1181,#1182)) ;
#1202=EDGE_LOOP('',(#1203,#1204,#1205,#1206)) ;
#1219=EDGE_LOOP('',(#1220,#1221,#1222,#1223)) ;
#1243=EDGE_LOOP('',(#1244,#1245,#1246,#1247)) ;
#1267=EDGE_LOOP('',(#1268,#1269,#1270,#1271)) ;
#1284=EDGE_LOOP('',(#1285,#1286,#1287,#1288)) ;
#1296=EDGE_LOOP('',(#1297,#1298,#1299,#1300,#1301,#1302,#1303,#1304,#1305,#1306,#1307,#1308,#1309,#1310,#1311,#1312,#1313,#1314)) ;
#1316=EDGE_LOOP('',(#1317,#1318)) ;
#1334=EDGE_LOOP('',(#1335,#1336)) ;
#1352=EDGE_LOOP('',(#1353,#1354)) ;
#1370=EDGE_LOOP('',(#1371,#1372)) ;
#1390=EDGE_LOOP('',(#1391,#1392,#1393,#1394)) ;
#1397=EDGE_LOOP('',(#1398,#1399,#1400,#1401)) ;
#1419=EDGE_LOOP('',(#1420,#1421,#1422,#1423)) ;
#1426=EDGE_LOOP('',(#1427,#1428,#1429,#1430)) ;
#1448=EDGE_LOOP('',(#1449,#1450,#1451,#1452)) ;
#1455=EDGE_LOOP('',(#1456,#1457,#1458,#1459)) ;
#65=ORIENTED_EDGE('',*,*,#44,.F.) ;
#66=ORIENTED_EDGE('',*,*,#51,.T.) ;
#67=ORIENTED_EDGE('',*,*,#58,.T.) ;
#68=ORIENTED_EDGE('',*,*,#63,.F.) ;
#82=ORIENTED_EDGE('',*,*,#58,.F.) ;
#83=ORIENTED_EDGE('',*,*,#75,.T.) ;
#84=ORIENTED_EDGE('',*,*,#44,.T.) ;
#85=ORIENTED_EDGE('',*,*,#80,.F.) ;
#220=ORIENTED_EDGE('',*,*,#101,.T.) ;
#221=ORIENTED_EDGE('',*,*,#108,.F.) ;
#222=ORIENTED_EDGE('',*,*,#115,.F.) ;
#223=ORIENTED_EDGE('',*,*,#122,.F.) ;
#224=ORIENTED_EDGE('',*,*,#129,.T.) ;
#225=ORIENTED_EDGE('',*,*,#136,.T.) ;
#226=ORIENTED_EDGE('',*,*,#143,.T.) ;
#227=ORIENTED_EDGE('',*,*,#150,.F.) ;
#228=ORIENTED_EDGE('',*,*,#157,.F.) ;
#229=ORIENTED_EDGE('',*,*,#164,.F.) ;
#230=ORIENTED_EDGE('',*,*,#171,.F.) ;
#231=ORIENTED_EDGE('',*,*,#178,.F.) ;
#232=ORIENTED_EDGE('',*,*,#185,.T.) ;
#233=ORIENTED_EDGE('',*,*,#192,.F.) ;
#234=ORIENTED_EDGE('',*,*,#199,.F.) ;
#235=ORIENTED_EDGE('',*,*,#206,.T.) ;
#236=ORIENTED_EDGE('',*,*,#213,.F.) ;
#237=ORIENTED_EDGE('',*,*,#218,.F.) ;
#240=ORIENTED_EDGE('',*,*,#75,.F.) ;
#241=ORIENTED_EDGE('',*,*,#51,.F.) ;
#258=ORIENTED_EDGE('',*,*,#251,.F.) ;
#259=ORIENTED_EDGE('',*,*,#256,.F.) ;
#276=ORIENTED_EDGE('',*,*,#269,.F.) ;
#277=ORIENTED_EDGE('',*,*,#274,.F.) ;
#294=ORIENTED_EDGE('',*,*,#287,.F.) ;
#295=ORIENTED_EDGE('',*,*,#292,.F.) ;
#323=ORIENTED_EDGE('',*,*,#311,.T.) ;
#324=ORIENTED_EDGE('',*,*,#316,.T.) ;
#325=ORIENTED_EDGE('',*,*,#101,.F.) ;
#326=ORIENTED_EDGE('',*,*,#321,.F.) ;
#382=ORIENTED_EDGE('',*,*,#342,.F.) ;
#383=ORIENTED_EDGE('',*,*,#349,.F.) ;
#384=ORIENTED_EDGE('',*,*,#354,.T.) ;
#385=ORIENTED_EDGE('',*,*,#129,.F.) ;
#386=ORIENTED_EDGE('',*,*,#361,.F.) ;
#387=ORIENTED_EDGE('',*,*,#368,.T.) ;
#388=ORIENTED_EDGE('',*,*,#375,.F.) ;
#389=ORIENTED_EDGE('',*,*,#380,.T.) ;
#410=ORIENTED_EDGE('',*,*,#403,.F.) ;
#411=ORIENTED_EDGE('',*,*,#136,.F.) ;
#412=ORIENTED_EDGE('',*,*,#354,.F.) ;
#413=ORIENTED_EDGE('',*,*,#408,.T.) ;
#462=ORIENTED_EDGE('',*,*,#429,.F.) ;
#463=ORIENTED_EDGE('',*,*,#436,.F.) ;
#464=ORIENTED_EDGE('',*,*,#443,.T.) ;
#465=ORIENTED_EDGE('',*,*,#448,.T.) ;
#466=ORIENTED_EDGE('',*,*,#143,.F.) ;
#467=ORIENTED_EDGE('',*,*,#403,.T.) ;
#468=ORIENTED_EDGE('',*,*,#455,.T.) ;
#469=ORIENTED_EDGE('',*,*,#460,.T.) ;
#497=ORIENTED_EDGE('',*,*,#485,.F.) ;
#498=ORIENTED_EDGE('',*,*,#490,.T.) ;
#499=ORIENTED_EDGE('',*,*,#185,.F.) ;
#500=ORIENTED_EDGE('',*,*,#495,.F.) ;
#523=ORIENTED_EDGE('',*,*,#509,.F.) ;
#524=ORIENTED_EDGE('',*,*,#516,.T.) ;
#525=ORIENTED_EDGE('',*,*,#521,.T.) ;
#526=ORIENTED_EDGE('',*,*,#206,.F.) ;
#615=ORIENTED_EDGE('',*,*,#542,.F.) ;
#616=ORIENTED_EDGE('',*,*,#549,.F.) ;
#617=ORIENTED_EDGE('',*,*,#554,.F.) ;
#618=ORIENTED_EDGE('',*,*,#380,.F.) ;
#619=ORIENTED_EDGE('',*,*,#559,.T.) ;
#620=ORIENTED_EDGE('',*,*,#429,.T.) ;
#621=ORIENTED_EDGE('',*,*,#566,.T.) ;
#622=ORIENTED_EDGE('',*,*,#573,.F.) ;
#623=ORIENTED_EDGE('',*,*,#580,.F.) ;
#624=ORIENTED_EDGE('',*,*,#587,.F.) ;
#625=ORIENTED_EDGE('',*,*,#594,.T.) ;
#626=ORIENTED_EDGE('',*,*,#601,.T.) ;
#627=ORIENTED_EDGE('',*,*,#608,.T.) ;
#628=ORIENTED_EDGE('',*,*,#613,.T.) ;
#645=ORIENTED_EDGE('',*,*,#638,.T.) ;
#646=ORIENTED_EDGE('',*,*,#643,.T.) ;
#663=ORIENTED_EDGE('',*,*,#656,.T.) ;
#664=ORIENTED_EDGE('',*,*,#661,.T.) ;
#685=ORIENTED_EDGE('',*,*,#678,.T.) ;
#686=ORIENTED_EDGE('',*,*,#566,.F.) ;
#687=ORIENTED_EDGE('',*,*,#460,.F.) ;
#688=ORIENTED_EDGE('',*,*,#683,.T.) ;
#716=ORIENTED_EDGE('',*,*,#704,.T.) ;
#717=ORIENTED_EDGE('',*,*,#709,.F.) ;
#718=ORIENTED_EDGE('',*,*,#608,.F.) ;
#719=ORIENTED_EDGE('',*,*,#714,.T.) ;
#747=ORIENTED_EDGE('',*,*,#733,.F.) ;
#748=ORIENTED_EDGE('',*,*,#740,.T.) ;
#749=ORIENTED_EDGE('',*,*,#745,.T.) ;
#750=ORIENTED_EDGE('',*,*,#594,.F.) ;
#778=ORIENTED_EDGE('',*,*,#643,.F.) ;
#779=ORIENTED_EDGE('',*,*,#764,.F.) ;
#780=ORIENTED_EDGE('',*,*,#771,.T.) ;
#781=ORIENTED_EDGE('',*,*,#776,.T.) ;
#790=ORIENTED_EDGE('',*,*,#638,.F.) ;
#791=ORIENTED_EDGE('',*,*,#776,.F.) ;
#792=ORIENTED_EDGE('',*,*,#788,.T.) ;
#793=ORIENTED_EDGE('',*,*,#764,.T.) ;
#821=ORIENTED_EDGE('',*,*,#661,.F.) ;
#822=ORIENTED_EDGE('',*,*,#807,.F.) ;
#823=ORIENTED_EDGE('',*,*,#814,.T.) ;
#824=ORIENTED_EDGE('',*,*,#819,.T.) ;
#833=ORIENTED_EDGE('',*,*,#656,.F.) ;
#834=ORIENTED_EDGE('',*,*,#819,.F.) ;
#835=ORIENTED_EDGE('',*,*,#831,.T.) ;
#836=ORIENTED_EDGE('',*,*,#807,.T.) ;
#864=ORIENTED_EDGE('',*,*,#542,.T.) ;
#865=ORIENTED_EDGE('',*,*,#850,.F.) ;
#866=ORIENTED_EDGE('',*,*,#857,.T.) ;
#867=ORIENTED_EDGE('',*,*,#862,.T.) ;
#888=ORIENTED_EDGE('',*,*,#881,.F.) ;
#889=ORIENTED_EDGE('',*,*,#886,.T.) ;
#890=ORIENTED_EDGE('',*,*,#549,.T.) ;
#891=ORIENTED_EDGE('',*,*,#862,.F.) ;
#912=ORIENTED_EDGE('',*,*,#573,.T.) ;
#913=ORIENTED_EDGE('',*,*,#678,.F.) ;
#914=ORIENTED_EDGE('',*,*,#905,.T.) ;
#915=ORIENTED_EDGE('',*,*,#910,.T.) ;
#936=ORIENTED_EDGE('',*,*,#929,.F.) ;
#937=ORIENTED_EDGE('',*,*,#934,.T.) ;
#938=ORIENTED_EDGE('',*,*,#580,.T.) ;
#939=ORIENTED_EDGE('',*,*,#910,.F.) ;
#953=ORIENTED_EDGE('',*,*,#587,.T.) ;
#954=ORIENTED_EDGE('',*,*,#934,.F.) ;
#955=ORIENTED_EDGE('',*,*,#951,.T.) ;
#956=ORIENTED_EDGE('',*,*,#733,.T.) ;
#970=ORIENTED_EDGE('',*,*,#554,.T.) ;
#971=ORIENTED_EDGE('',*,*,#886,.F.) ;
#972=ORIENTED_EDGE('',*,*,#968,.T.) ;
#973=ORIENTED_EDGE('',*,*,#342,.T.) ;
#992=ORIENTED_EDGE('',*,*,#985,.F.) ;
#993=ORIENTED_EDGE('',*,*,#516,.F.) ;
#994=ORIENTED_EDGE('',*,*,#990,.F.) ;
#995=ORIENTED_EDGE('',*,*,#740,.F.) ;
#996=ORIENTED_EDGE('',*,*,#951,.F.) ;
#997=ORIENTED_EDGE('',*,*,#929,.T.) ;
#998=ORIENTED_EDGE('',*,*,#905,.F.) ;
#999=ORIENTED_EDGE('',*,*,#683,.F.) ;
#1000=ORIENTED_EDGE('',*,*,#455,.F.) ;
#1001=ORIENTED_EDGE('',*,*,#408,.F.) ;
#1002=ORIENTED_EDGE('',*,*,#349,.T.) ;
#1003=ORIENTED_EDGE('',*,*,#968,.F.) ;
#1004=ORIENTED_EDGE('',*,*,#881,.T.) ;
#1005=ORIENTED_EDGE('',*,*,#857,.F.) ;
#1008=ORIENTED_EDGE('',*,*,#771,.F.) ;
#1009=ORIENTED_EDGE('',*,*,#788,.F.) ;
#1012=ORIENTED_EDGE('',*,*,#814,.F.) ;
#1013=ORIENTED_EDGE('',*,*,#831,.F.) ;
#1022=ORIENTED_EDGE('',*,*,#559,.F.) ;
#1023=ORIENTED_EDGE('',*,*,#375,.T.) ;
#1024=ORIENTED_EDGE('',*,*,#1020,.T.) ;
#1025=ORIENTED_EDGE('',*,*,#436,.T.) ;
#1046=ORIENTED_EDGE('',*,*,#218,.T.) ;
#1047=ORIENTED_EDGE('',*,*,#1039,.F.) ;
#1048=ORIENTED_EDGE('',*,*,#1044,.T.) ;
#1049=ORIENTED_EDGE('',*,*,#321,.T.) ;
#1063=ORIENTED_EDGE('',*,*,#613,.F.) ;
#1064=ORIENTED_EDGE('',*,*,#709,.T.) ;
#1065=ORIENTED_EDGE('',*,*,#1061,.F.) ;
#1066=ORIENTED_EDGE('',*,*,#1039,.T.) ;
#1067=ORIENTED_EDGE('',*,*,#213,.T.) ;
#1068=ORIENTED_EDGE('',*,*,#521,.F.) ;
#1069=ORIENTED_EDGE('',*,*,#985,.T.) ;
#1070=ORIENTED_EDGE('',*,*,#850,.T.) ;
#1091=ORIENTED_EDGE('',*,*,#990,.T.) ;
#1092=ORIENTED_EDGE('',*,*,#509,.T.) ;
#1093=ORIENTED_EDGE('',*,*,#199,.T.) ;
#1094=ORIENTED_EDGE('',*,*,#1084,.F.) ;
#1095=ORIENTED_EDGE('',*,*,#1089,.T.) ;
#1096=ORIENTED_EDGE('',*,*,#714,.F.) ;
#1097=ORIENTED_EDGE('',*,*,#601,.F.) ;
#1098=ORIENTED_EDGE('',*,*,#745,.F.) ;
#1112=ORIENTED_EDGE('',*,*,#192,.T.) ;
#1113=ORIENTED_EDGE('',*,*,#490,.F.) ;
#1114=ORIENTED_EDGE('',*,*,#1110,.T.) ;
#1115=ORIENTED_EDGE('',*,*,#1084,.T.) ;
#1136=ORIENTED_EDGE('',*,*,#178,.T.) ;
#1137=ORIENTED_EDGE('',*,*,#1129,.F.) ;
#1138=ORIENTED_EDGE('',*,*,#1134,.T.) ;
#1139=ORIENTED_EDGE('',*,*,#495,.T.) ;
#1155=ORIENTED_EDGE('',*,*,#1129,.T.) ;
#1156=ORIENTED_EDGE('',*,*,#171,.T.) ;
#1157=ORIENTED_EDGE('',*,*,#1148,.F.) ;
#1158=ORIENTED_EDGE('',*,*,#1153,.F.) ;
#1179=ORIENTED_EDGE('',*,*,#164,.T.) ;
#1180=ORIENTED_EDGE('',*,*,#1172,.F.) ;
#1181=ORIENTED_EDGE('',*,*,#1177,.T.) ;
#1182=ORIENTED_EDGE('',*,*,#1148,.T.) ;
#1203=ORIENTED_EDGE('',*,*,#1172,.T.) ;
#1204=ORIENTED_EDGE('',*,*,#157,.T.) ;
#1205=ORIENTED_EDGE('',*,*,#1196,.F.) ;
#1206=ORIENTED_EDGE('',*,*,#1201,.F.) ;
#1220=ORIENTED_EDGE('',*,*,#150,.T.) ;
#1221=ORIENTED_EDGE('',*,*,#448,.F.) ;
#1222=ORIENTED_EDGE('',*,*,#1218,.T.) ;
#1223=ORIENTED_EDGE('',*,*,#1196,.T.) ;
#1244=ORIENTED_EDGE('',*,*,#122,.T.) ;
#1245=ORIENTED_EDGE('',*,*,#1237,.F.) ;
#1246=ORIENTED_EDGE('',*,*,#1242,.T.) ;
#1247=ORIENTED_EDGE('',*,*,#361,.T.) ;
#1268=ORIENTED_EDGE('',*,*,#1261,.F.) ;
#1269=ORIENTED_EDGE('',*,*,#1237,.T.) ;
#1270=ORIENTED_EDGE('',*,*,#115,.T.) ;
#1271=ORIENTED_EDGE('',*,*,#1266,.F.) ;
#1285=ORIENTED_EDGE('',*,*,#108,.T.) ;
#1286=ORIENTED_EDGE('',*,*,#316,.F.) ;
#1287=ORIENTED_EDGE('',*,*,#1283,.T.) ;
#1288=ORIENTED_EDGE('',*,*,#1266,.T.) ;
#1297=ORIENTED_EDGE('',*,*,#1044,.F.) ;
#1298=ORIENTED_EDGE('',*,*,#1061,.T.) ;
#1299=ORIENTED_EDGE('',*,*,#704,.F.) ;
#1300=ORIENTED_EDGE('',*,*,#1089,.F.) ;
#1301=ORIENTED_EDGE('',*,*,#1110,.F.) ;
#1302=ORIENTED_EDGE('',*,*,#485,.T.) ;
#1303=ORIENTED_EDGE('',*,*,#1134,.F.) ;
#1304=ORIENTED_EDGE('',*,*,#1153,.T.) ;
#1305=ORIENTED_EDGE('',*,*,#1177,.F.) ;
#1306=ORIENTED_EDGE('',*,*,#1201,.T.) ;
#1307=ORIENTED_EDGE('',*,*,#1218,.F.) ;
#1308=ORIENTED_EDGE('',*,*,#443,.F.) ;
#1309=ORIENTED_EDGE('',*,*,#1020,.F.) ;
#1310=ORIENTED_EDGE('',*,*,#368,.F.) ;
#1311=ORIENTED_EDGE('',*,*,#1242,.F.) ;
#1312=ORIENTED_EDGE('',*,*,#1261,.T.) ;
#1313=ORIENTED_EDGE('',*,*,#1283,.F.) ;
#1314=ORIENTED_EDGE('',*,*,#311,.F.) ;
#1317=ORIENTED_EDGE('',*,*,#63,.T.) ;
#1318=ORIENTED_EDGE('',*,*,#80,.T.) ;
#1335=ORIENTED_EDGE('',*,*,#1328,.T.) ;
#1336=ORIENTED_EDGE('',*,*,#1333,.T.) ;
#1353=ORIENTED_EDGE('',*,*,#1346,.T.) ;
#1354=ORIENTED_EDGE('',*,*,#1351,.T.) ;
#1371=ORIENTED_EDGE('',*,*,#1364,.T.) ;
#1372=ORIENTED_EDGE('',*,*,#1369,.T.) ;
#1391=ORIENTED_EDGE('',*,*,#1384,.F.) ;
#1392=ORIENTED_EDGE('',*,*,#251,.T.) ;
#1393=ORIENTED_EDGE('',*,*,#1389,.T.) ;
#1394=ORIENTED_EDGE('',*,*,#1333,.F.) ;
#1398=ORIENTED_EDGE('',*,*,#1389,.F.) ;
#1399=ORIENTED_EDGE('',*,*,#256,.T.) ;
#1400=ORIENTED_EDGE('',*,*,#1384,.T.) ;
#1401=ORIENTED_EDGE('',*,*,#1328,.F.) ;
#1420=ORIENTED_EDGE('',*,*,#1413,.F.) ;
#1421=ORIENTED_EDGE('',*,*,#269,.T.) ;
#1422=ORIENTED_EDGE('',*,*,#1418,.T.) ;
#1423=ORIENTED_EDGE('',*,*,#1351,.F.) ;
#1427=ORIENTED_EDGE('',*,*,#1418,.F.) ;
#1428=ORIENTED_EDGE('',*,*,#274,.T.) ;
#1429=ORIENTED_EDGE('',*,*,#1413,.T.) ;
#1430=ORIENTED_EDGE('',*,*,#1346,.F.) ;
#1449=ORIENTED_EDGE('',*,*,#1442,.F.) ;
#1450=ORIENTED_EDGE('',*,*,#287,.T.) ;
#1451=ORIENTED_EDGE('',*,*,#1447,.T.) ;
#1452=ORIENTED_EDGE('',*,*,#1369,.F.) ;
#1456=ORIENTED_EDGE('',*,*,#1447,.F.) ;
#1457=ORIENTED_EDGE('',*,*,#292,.T.) ;
#1458=ORIENTED_EDGE('',*,*,#1442,.T.) ;
#1459=ORIENTED_EDGE('',*,*,#1364,.F.) ;
#21=MANIFOLD_SOLID_BREP('PartBody',#30) ;
#41=VERTEX_POINT('',#40) ;
#43=VERTEX_POINT('',#42) ;
#50=VERTEX_POINT('',#49) ;
#57=VERTEX_POINT('',#56) ;
#98=VERTEX_POINT('',#97) ;
#100=VERTEX_POINT('',#99) ;
#107=VERTEX_POINT('',#106) ;
#114=VERTEX_POINT('',#113) ;
#121=VERTEX_POINT('',#120) ;
#128=VERTEX_POINT('',#127) ;
#135=VERTEX_POINT('',#134) ;
#142=VERTEX_POINT('',#141) ;
#149=VERTEX_POINT('',#148) ;
#156=VERTEX_POINT('',#155) ;
#163=VERTEX_POINT('',#162) ;
#170=VERTEX_POINT('',#169) ;
#177=VERTEX_POINT('',#176) ;
#184=VERTEX_POINT('',#183) ;
#191=VERTEX_POINT('',#190) ;
#198=VERTEX_POINT('',#197) ;
#205=VERTEX_POINT('',#204) ;
#212=VERTEX_POINT('',#211) ;
#248=VERTEX_POINT('',#247) ;
#250=VERTEX_POINT('',#249) ;
#266=VERTEX_POINT('',#265) ;
#268=VERTEX_POINT('',#267) ;
#284=VERTEX_POINT('',#283) ;
#286=VERTEX_POINT('',#285) ;
#308=VERTEX_POINT('',#307) ;
#310=VERTEX_POINT('',#309) ;
#339=VERTEX_POINT('',#338) ;
#341=VERTEX_POINT('',#340) ;
#348=VERTEX_POINT('',#347) ;
#360=VERTEX_POINT('',#359) ;
#367=VERTEX_POINT('',#366) ;
#374=VERTEX_POINT('',#373) ;
#402=VERTEX_POINT('',#401) ;
#426=VERTEX_POINT('',#425) ;
#428=VERTEX_POINT('',#427) ;
#435=VERTEX_POINT('',#434) ;
#442=VERTEX_POINT('',#441) ;
#454=VERTEX_POINT('',#453) ;
#482=VERTEX_POINT('',#481) ;
#484=VERTEX_POINT('',#483) ;
#508=VERTEX_POINT('',#507) ;
#515=VERTEX_POINT('',#514) ;
#539=VERTEX_POINT('',#538) ;
#541=VERTEX_POINT('',#540) ;
#548=VERTEX_POINT('',#547) ;
#565=VERTEX_POINT('',#564) ;
#572=VERTEX_POINT('',#571) ;
#579=VERTEX_POINT('',#578) ;
#586=VERTEX_POINT('',#585) ;
#593=VERTEX_POINT('',#592) ;
#600=VERTEX_POINT('',#599) ;
#607=VERTEX_POINT('',#606) ;
#635=VERTEX_POINT('',#634) ;
#637=VERTEX_POINT('',#636) ;
#653=VERTEX_POINT('',#652) ;
#655=VERTEX_POINT('',#654) ;
#677=VERTEX_POINT('',#676) ;
#701=VERTEX_POINT('',#700) ;
#703=VERTEX_POINT('',#702) ;
#732=VERTEX_POINT('',#731) ;
#739=VERTEX_POINT('',#738) ;
#763=VERTEX_POINT('',#762) ;
#770=VERTEX_POINT('',#769) ;
#806=VERTEX_POINT('',#805) ;
#813=VERTEX_POINT('',#812) ;
#849=VERTEX_POINT('',#848) ;
#856=VERTEX_POINT('',#855) ;
#880=VERTEX_POINT('',#879) ;
#904=VERTEX_POINT('',#903) ;
#928=VERTEX_POINT('',#927) ;
#1038=VERTEX_POINT('',#1037) ;
#1083=VERTEX_POINT('',#1082) ;
#1128=VERTEX_POINT('',#1127) ;
#1147=VERTEX_POINT('',#1146) ;
#1171=VERTEX_POINT('',#1170) ;
#1195=VERTEX_POINT('',#1194) ;
#1236=VERTEX_POINT('',#1235) ;
#1260=VERTEX_POINT('',#1259) ;
#1325=VERTEX_POINT('',#1324) ;
#1327=VERTEX_POINT('',#1326) ;
#1343=VERTEX_POINT('',#1342) ;
#1345=VERTEX_POINT('',#1344) ;
#1361=VERTEX_POINT('',#1360) ;
#1363=VERTEX_POINT('',#1362) ;
#1462=ADVANCED_BREP_SHAPE_REPRESENTATION('NONE',(#21),#16) ;
#70=ADVANCED_FACE('PartBody',(#69),#35,.F.) ;
#87=ADVANCED_FACE('PartBody',(#86),#35,.F.) ;
#297=ADVANCED_FACE('PartBody',(#238,#242,#260,#278,#296),#92,.T.) ;
#328=ADVANCED_FACE('PartBody',(#327),#302,.T.) ;
#391=ADVANCED_FACE('PartBody',(#390),#333,.F.) ;
#415=ADVANCED_FACE('PartBody',(#414),#396,.F.) ;
#471=ADVANCED_FACE('PartBody',(#470),#420,.F.) ;
#502=ADVANCED_FACE('PartBody',(#501),#476,.T.) ;
#528=ADVANCED_FACE('PartBody',(#527),#396,.F.) ;
#666=ADVANCED_FACE('PartBody',(#629,#647,#665),#533,.F.) ;
#690=ADVANCED_FACE('PartBody',(#689),#671,.F.) ;
#721=ADVANCED_FACE('PartBody',(#720),#695,.T.) ;
#752=ADVANCED_FACE('PartBody',(#751),#726,.F.) ;
#783=ADVANCED_FACE('PartBody',(#782),#757,.F.) ;
#795=ADVANCED_FACE('PartBody',(#794),#757,.F.) ;
#826=ADVANCED_FACE('PartBody',(#825),#800,.F.) ;
#838=ADVANCED_FACE('PartBody',(#837),#800,.F.) ;
#869=ADVANCED_FACE('PartBody',(#868),#843,.T.) ;
#893=ADVANCED_FACE('PartBody',(#892),#874,.T.) ;
#917=ADVANCED_FACE('PartBody',(#916),#898,.T.) ;
#941=ADVANCED_FACE('PartBody',(#940),#922,.T.) ;
#958=ADVANCED_FACE('PartBody',(#957),#946,.T.) ;
#975=ADVANCED_FACE('PartBody',(#974),#963,.T.) ;
#1015=ADVANCED_FACE('PartBody',(#1006,#1010,#1014),#980,.T.) ;
#1027=ADVANCED_FACE('PartBody',(#1026),#695,.T.) ;
#1051=ADVANCED_FACE('PartBody',(#1050),#1032,.T.) ;
#1072=ADVANCED_FACE('PartBody',(#1071),#1056,.T.) ;
#1100=ADVANCED_FACE('PartBody',(#1099),#1077,.F.) ;
#1117=ADVANCED_FACE('PartBody',(#1116),#1105,.F.) ;
#1141=ADVANCED_FACE('PartBody',(#1140),#1122,.T.) ;
#1160=ADVANCED_FACE('PartBody',(#1159),#533,.F.) ;
#1184=ADVANCED_FACE('PartBody',(#1183),#1165,.T.) ;
#1208=ADVANCED_FACE('PartBody',(#1207),#1189,.F.) ;
#1225=ADVANCED_FACE('PartBody',(#1224),#1213,.F.) ;
#1249=ADVANCED_FACE('PartBody',(#1248),#1230,.T.) ;
#1273=ADVANCED_FACE('PartBody',(#1272),#1254,.T.) ;
#1290=ADVANCED_FACE('PartBody',(#1289),#1278,.T.) ;
#1374=ADVANCED_FACE('PartBody',(#1315,#1319,#1337,#1355,#1373),#1295,.F.) ;
#1396=ADVANCED_FACE('PartBody',(#1395),#1379,.F.) ;
#1403=ADVANCED_FACE('PartBody',(#1402),#1379,.F.) ;
#1425=ADVANCED_FACE('PartBody',(#1424),#1408,.F.) ;
#1432=ADVANCED_FACE('PartBody',(#1431),#1408,.F.) ;
#1454=ADVANCED_FACE('PartBody',(#1453),#1437,.F.) ;
#1461=ADVANCED_FACE('PartBody',(#1460),#1437,.F.) ;
#4=APPLICATION_PROTOCOL_DEFINITION('international standard','ap242_managed_model_based_3d_engineering',2014,#1) ;
#22=DRAUGHTING_PRE_DEFINED_COLOUR('cyan') ;
#69=FACE_OUTER_BOUND('',#64,.T.) ;
#86=FACE_OUTER_BOUND('',#81,.T.) ;
#238=FACE_OUTER_BOUND('',#219,.T.) ;
#327=FACE_OUTER_BOUND('',#322,.T.) ;
#390=FACE_OUTER_BOUND('',#381,.T.) ;
#414=FACE_OUTER_BOUND('',#409,.T.) ;
#470=FACE_OUTER_BOUND('',#461,.T.) ;
#501=FACE_OUTER_BOUND('',#496,.T.) ;
#527=FACE_OUTER_BOUND('',#522,.T.) ;
#629=FACE_OUTER_BOUND('',#614,.T.) ;
#689=FACE_OUTER_BOUND('',#684,.T.) ;
#720=FACE_OUTER_BOUND('',#715,.T.) ;
#751=FACE_OUTER_BOUND('',#746,.T.) ;
#782=FACE_OUTER_BOUND('',#777,.T.) ;
#794=FACE_OUTER_BOUND('',#789,.T.) ;
#825=FACE_OUTER_BOUND('',#820,.T.) ;
#837=FACE_OUTER_BOUND('',#832,.T.) ;
#868=FACE_OUTER_BOUND('',#863,.T.) ;
#892=FACE_OUTER_BOUND('',#887,.T.) ;
#916=FACE_OUTER_BOUND('',#911,.T.) ;
#940=FACE_OUTER_BOUND('',#935,.T.) ;
#957=FACE_OUTER_BOUND('',#952,.T.) ;
#974=FACE_OUTER_BOUND('',#969,.T.) ;
#1006=FACE_OUTER_BOUND('',#991,.T.) ;
#1026=FACE_OUTER_BOUND('',#1021,.T.) ;
#1050=FACE_OUTER_BOUND('',#1045,.T.) ;
#1071=FACE_OUTER_BOUND('',#1062,.T.) ;
#1099=FACE_OUTER_BOUND('',#1090,.T.) ;
#1116=FACE_OUTER_BOUND('',#1111,.T.) ;
#1140=FACE_OUTER_BOUND('',#1135,.T.) ;
#1159=FACE_OUTER_BOUND('',#1154,.T.) ;
#1183=FACE_OUTER_BOUND('',#1178,.T.) ;
#1207=FACE_OUTER_BOUND('',#1202,.T.) ;
#1224=FACE_OUTER_BOUND('',#1219,.T.) ;
#1248=FACE_OUTER_BOUND('',#1243,.T.) ;
#1272=FACE_OUTER_BOUND('',#1267,.T.) ;
#1289=FACE_OUTER_BOUND('',#1284,.T.) ;
#1315=FACE_OUTER_BOUND('',#1296,.T.) ;
#1395=FACE_OUTER_BOUND('',#1390,.T.) ;
#1402=FACE_OUTER_BOUND('',#1397,.T.) ;
#1424=FACE_OUTER_BOUND('',#1419,.T.) ;
#1431=FACE_OUTER_BOUND('',#1426,.T.) ;
#1453=FACE_OUTER_BOUND('',#1448,.T.) ;
#1460=FACE_OUTER_BOUND('',#1455,.T.) ;
#9=PRODUCT_CATEGORY_RELATIONSHIP(' ',' ',#7,#8) ;
#6=PRODUCT_DEFINITION_FORMATION_WITH_SPECIFIED_SOURCE('--A',' ',#5,.NOT_KNOWN.) ;
#20=SHAPE_DEFINITION_REPRESENTATION(#11,#19) ;
#12=(LENGTH_UNIT()NAMED_UNIT(*)SI_UNIT(.MILLI.,.METRE.)) ;
#13=(NAMED_UNIT(*)PLANE_ANGLE_UNIT()SI_UNIT($,.RADIAN.)) ;
#14=(NAMED_UNIT(*)SI_UNIT($,.STERADIAN.)SOLID_ANGLE_UNIT()) ;
#16=(GEOMETRIC_REPRESENTATION_CONTEXT(3)GLOBAL_UNCERTAINTY_ASSIGNED_CONTEXT((#15))GLOBAL_UNIT_ASSIGNED_CONTEXT((#12,#13,#14))REPRESENTATION_CONTEXT(' ',' ')) ;
ENDSEC;
END-ISO-10303-21;
