ISO-10303-21;
HEADER;
FILE_DESCRIPTION(('CATIA V5 STEP Exchange','CAx-IF Rec.Pracs.--- Model Styling and Organization---1.4--- 2014-01-23','CAx-IF Rec.Pracs.---Representation and Presentation of Product Manufacturing Information (PMI)---4.0---2014-10-13','CAx-IF Rec.Pracs.---3D Tessellated Data Validation Properties---0.5---2014-09-14'),'2;1');

FILE_NAME('C:\\Users\\e_mdemir\\OneDrive - Alstom\\Desktop\\AR00000228600.stp','2023-02-09T09:47:11+00:00',('none'),('none'),'CATIA Version 5-6 Release 2016 SP5 HF64','CATIA V5 STEP AP242','none');

FILE_SCHEMA(('AP242_MANAGED_MODEL_BASED_3D_ENGINEERING_MIM_LF  {1 0 10303 442 1 1 4}'));

ENDSEC;
DATA;
#5=PRODUCT('M3D-228600','','UPPER MOUNTING PLATE',(#2)) ;
#2=PRODUCT_CONTEXT(' ',#1,'mechanical') ;
#1=APPLICATION_CONTEXT('managed model based 3d engineering') ;
#10=PRODUCT_DEFINITION('MASTER',' ',#6,#3) ;
#3=PRODUCT_DEFINITION_CONTEXT('part definition',#1,' ') ;
#11=PRODUCT_DEFINITION_SHAPE(' ',' ',#10) ;
#775=MECHANICAL_DESIGN_GEOMETRIC_PRESENTATION_REPRESENTATION(' ',(#29),#16) ;
#19=SHAPE_REPRESENTATION(' ',(#18),#16) ;
#7=PRODUCT_CATEGORY('part','specification') ;
#17=CARTESIAN_POINT(' ',(0.,0.,0.)) ;
#31=CARTESIAN_POINT('Axis2P3D Location',(0.,0.,-22.1)) ;
#36=CARTESIAN_POINT('Line Origine',(-6.07067737188,3.31642616329,-33.0000000001)) ;
#40=CARTESIAN_POINT('Vertex',(-6.07067737188,3.31642616329,-46.)) ;
#42=CARTESIAN_POINT('Vertex',(-6.07067737188,3.31642616329,-22.)) ;
#45=CARTESIAN_POINT('Axis2P3D Location',(0.,0.,-46.)) ;
#49=CARTESIAN_POINT('Vertex',(6.07067737188,-3.31642616329,-46.)) ;
#52=CARTESIAN_POINT('Line Origine',(6.07067737188,-3.31642616329,-33.0000000001)) ;
#56=CARTESIAN_POINT('Vertex',(6.07067737188,-3.31642616329,-22.)) ;
#59=CARTESIAN_POINT('Axis2P3D Location',(0.,0.,-22.)) ;
#71=CARTESIAN_POINT('Axis2P3D Location',(0.,0.,-46.)) ;
#76=CARTESIAN_POINT('Axis2P3D Location',(0.,0.,-22.)) ;
#88=CARTESIAN_POINT('Axis2P3D Location',(-42.8910161514,0.,-46.)) ;
#93=CARTESIAN_POINT('Axis2P3D Location',(0.,0.,-46.)) ;
#97=CARTESIAN_POINT('Vertex',(-37.6404078362,20.5630485197,-46.)) ;
#99=CARTESIAN_POINT('Vertex',(37.6404078362,-20.5630485197,-46.)) ;
#102=CARTESIAN_POINT('Axis2P3D Location',(0.,0.,-46.)) ;
#116=CARTESIAN_POINT('Axis2P3D Location',(0.,0.,-46.)) ;
#121=CARTESIAN_POINT('Line Origine',(-39.9918832237,21.8476653787,-36.)) ;
#125=CARTESIAN_POINT('Vertex',(-42.3433586112,23.1322822377,-26.)) ;
#128=CARTESIAN_POINT('Axis2P3D Location',(0.,0.,-26.)) ;
#132=CARTESIAN_POINT('Vertex',(42.3433586112,-23.1322822377,-26.)) ;
#135=CARTESIAN_POINT('Line Origine',(39.9918832237,-21.8476653787,-36.)) ;
#147=CARTESIAN_POINT('Axis2P3D Location',(0.,0.,-26.)) ;
#159=CARTESIAN_POINT('Axis2P3D Location',(0.,0.,-33.0000000001)) ;
#164=CARTESIAN_POINT('Line Origine',(-42.3433586112,23.1322822377,-18.5)) ;
#168=CARTESIAN_POINT('Vertex',(-42.3433586112,23.1322822377,-11.)) ;
#171=CARTESIAN_POINT('Axis2P3D Location',(0.,0.,-11.)) ;
#175=CARTESIAN_POINT('Vertex',(42.3433586112,-23.1322822377,-11.)) ;
#178=CARTESIAN_POINT('Line Origine',(42.3433586112,-23.1322822377,-18.5)) ;
#190=CARTESIAN_POINT('Axis2P3D Location',(0.,0.,-11.)) ;
#202=CARTESIAN_POINT('Axis2P3D Location',(0.,0.,-11.)) ;
#207=CARTESIAN_POINT('Axis2P3D Location',(-46.7312714207,25.5294099307,-11.)) ;
#211=CARTESIAN_POINT('Vertex',(-46.7312714207,25.5294099307,-6.)) ;
#214=CARTESIAN_POINT('Axis2P3D Location',(0.,0.,-6.)) ;
#218=CARTESIAN_POINT('Vertex',(46.7312714207,-25.5294099307,-6.)) ;
#221=CARTESIAN_POINT('Axis2P3D Location',(46.7312714207,-25.5294099307,-11.)) ;
#233=CARTESIAN_POINT('Axis2P3D Location',(0.,0.,-6.)) ;
#245=CARTESIAN_POINT('Axis2P3D Location',(-147.,0.,-6.)) ;
#250=CARTESIAN_POINT('Axis2P3D Location',(0.,0.,-6.)) ;
#254=CARTESIAN_POINT('Vertex',(129.004636598,-70.4755541748,-6.)) ;
#256=CARTESIAN_POINT('Vertex',(-129.004636598,70.4755541748,-6.)) ;
#259=CARTESIAN_POINT('Axis2P3D Location',(0.,0.,-6.)) ;
#273=CARTESIAN_POINT('Axis2P3D Location',(0.,0.,-9.)) ;
#278=CARTESIAN_POINT('Axis2P3D Location',(129.004636598,-70.4755541748,-9.)) ;
#282=CARTESIAN_POINT('Vertex',(131.637384284,-71.9138307906,-9.)) ;
#285=CARTESIAN_POINT('Axis2P3D Location',(0.,0.,-9.)) ;
#289=CARTESIAN_POINT('Vertex',(-131.637384284,71.9138307906,-9.)) ;
#292=CARTESIAN_POINT('Axis2P3D Location',(-129.004636598,70.4755541748,-9.)) ;
#304=CARTESIAN_POINT('Axis2P3D Location',(0.,0.,-9.)) ;
#316=CARTESIAN_POINT('Axis2P3D Location',(0.,0.,-33.0000000001)) ;
#321=CARTESIAN_POINT('Line Origine',(131.637384284,-71.9138307906,-23.0252125362)) ;
#325=CARTESIAN_POINT('Vertex',(131.637384284,-71.9138307906,-37.0504250724)) ;
#328=CARTESIAN_POINT('Axis2P3D Location',(0.,0.,-37.0504250724)) ;
#332=CARTESIAN_POINT('Vertex',(-131.637384284,71.9138307906,-37.0504250724)) ;
#335=CARTESIAN_POINT('Line Origine',(-131.637384284,71.9138307906,-23.0252125362)) ;
#347=CARTESIAN_POINT('Axis2P3D Location',(0.,0.,-37.0504250724)) ;
#359=CARTESIAN_POINT('Axis2P3D Location',(0.,0.,-37.0504250724)) ;
#364=CARTESIAN_POINT('Axis2P3D Location',(157.96486114,-86.2965969488,-37.0504250724)) ;
#368=CARTESIAN_POINT('Vertex',(132.534471303,-72.4039116631,-44.8149964255)) ;
#371=CARTESIAN_POINT('Axis2P3D Location',(0.,0.,-44.8149964255)) ;
#375=CARTESIAN_POINT('Vertex',(-132.534471303,72.4039116631,-44.8149964255)) ;
#378=CARTESIAN_POINT('Axis2P3D Location',(-157.96486114,86.2965969488,-37.0504250724)) ;
#390=CARTESIAN_POINT('Axis2P3D Location',(0.,0.,-44.8149964255)) ;
#402=CARTESIAN_POINT('Axis2P3D Location',(0.,0.,-44.8149964255)) ;
#407=CARTESIAN_POINT('Line Origine',(135.025272028,-73.7646423006,-55.4074982127)) ;
#411=CARTESIAN_POINT('Vertex',(137.516072752,-75.1253729381,-66.)) ;
#414=CARTESIAN_POINT('Axis2P3D Location',(0.,0.,-66.)) ;
#418=CARTESIAN_POINT('Vertex',(-137.516072752,75.1253729381,-66.)) ;
#421=CARTESIAN_POINT('Line Origine',(-135.025272028,73.7646423006,-55.4074982127)) ;
#433=CARTESIAN_POINT('Axis2P3D Location',(0.,0.,-66.)) ;
#445=CARTESIAN_POINT('Axis2P3D Location',(-160.,0.,-66.)) ;
#450=CARTESIAN_POINT('Axis2P3D Location',(0.,0.,-66.)) ;
#454=CARTESIAN_POINT('Vertex',(140.413209902,-76.7080861767,-66.)) ;
#456=CARTESIAN_POINT('Vertex',(-140.413209902,76.7080861767,-66.)) ;
#459=CARTESIAN_POINT('Axis2P3D Location',(0.,0.,-66.)) ;
#473=CARTESIAN_POINT('Axis2P3D Location',(0.,0.,-33.0000000001)) ;
#478=CARTESIAN_POINT('Line Origine',(140.413209902,-76.7080861767,-63.5980762114)) ;
#482=CARTESIAN_POINT('Vertex',(140.413209902,-76.7080861767,-61.1961524227)) ;
#485=CARTESIAN_POINT('Axis2P3D Location',(0.,0.,-61.1961524227)) ;
#489=CARTESIAN_POINT('Vertex',(-140.413209902,76.7080861767,-61.1961524227)) ;
#492=CARTESIAN_POINT('Line Origine',(-140.413209902,76.7080861767,-63.5980762114)) ;
#504=CARTESIAN_POINT('Axis2P3D Location',(0.,0.,-61.1961524227)) ;
#516=CARTESIAN_POINT('Axis2P3D Location',(0.,0.,-50.)) ;
#521=CARTESIAN_POINT('Line Origine',(139.09683606,-75.9889478688,-55.5980762114)) ;
#525=CARTESIAN_POINT('Vertex',(137.780462217,-75.2698095609,-50.)) ;
#528=CARTESIAN_POINT('Axis2P3D Location',(0.,0.,-50.)) ;
#532=CARTESIAN_POINT('Vertex',(-137.780462217,75.2698095609,-50.)) ;
#535=CARTESIAN_POINT('Line Origine',(-139.09683606,75.9889478688,-55.5980762114)) ;
#547=CARTESIAN_POINT('Axis2P3D Location',(0.,0.,-50.)) ;
#559=CARTESIAN_POINT('Axis2P3D Location',(0.,0.,-33.0000000001)) ;
#564=CARTESIAN_POINT('Line Origine',(137.780462217,-75.2698095609,-25.)) ;
#568=CARTESIAN_POINT('Vertex',(137.780462217,-75.2698095609,-1.15107923193E-012)) ;
#571=CARTESIAN_POINT('Axis2P3D Location',(0.,0.,-1.15107923193E-012)) ;
#575=CARTESIAN_POINT('Vertex',(-137.780462217,75.2698095609,-1.15107923193E-012)) ;
#578=CARTESIAN_POINT('Line Origine',(-137.780462217,75.2698095609,-25.)) ;
#590=CARTESIAN_POINT('Axis2P3D Location',(0.,0.,-1.15107923193E-012)) ;
#602=CARTESIAN_POINT('Axis2P3D Location',(-32.6794919243,0.,0.)) ;
#611=CARTESIAN_POINT('Axis2P3D Location',(0.,0.,0.)) ;
#615=CARTESIAN_POINT('Vertex',(28.6789522442,-15.6673830171,-7.1054273576E-015)) ;
#617=CARTESIAN_POINT('Vertex',(-28.6789522442,15.6673830171,-7.1054273576E-015)) ;
#620=CARTESIAN_POINT('Axis2P3D Location',(0.,0.,0.)) ;
#630=CARTESIAN_POINT('Axis2P3D Location',(0.,0.,-10.)) ;
#635=CARTESIAN_POINT('Line Origine',(-27.5032145505,15.0250745876,-5.)) ;
#639=CARTESIAN_POINT('Vertex',(-26.3274768567,14.3827661581,-10.)) ;
#642=CARTESIAN_POINT('Axis2P3D Location',(0.,0.,-10.)) ;
#646=CARTESIAN_POINT('Vertex',(26.3274768567,-14.3827661581,-10.)) ;
#649=CARTESIAN_POINT('Line Origine',(27.5032145505,-15.0250745876,-5.)) ;
#661=CARTESIAN_POINT('Axis2P3D Location',(0.,0.,-10.)) ;
#673=CARTESIAN_POINT('Axis2P3D Location',(0.,0.,-33.0000000001)) ;
#678=CARTESIAN_POINT('Line Origine',(-26.3274768567,14.3827661581,-15.5)) ;
#682=CARTESIAN_POINT('Vertex',(-26.3274768567,14.3827661581,-21.)) ;
#685=CARTESIAN_POINT('Axis2P3D Location',(0.,0.,-21.)) ;
#689=CARTESIAN_POINT('Vertex',(26.3274768567,-14.3827661581,-21.)) ;
#692=CARTESIAN_POINT('Line Origine',(26.3274768567,-14.3827661581,-15.5)) ;
#704=CARTESIAN_POINT('Axis2P3D Location',(0.,0.,-21.)) ;
#716=CARTESIAN_POINT('Axis2P3D Location',(0.,0.,-21.)) ;
#721=CARTESIAN_POINT('Axis2P3D Location',(-25.4498942948,13.9033406195,-21.)) ;
#725=CARTESIAN_POINT('Vertex',(-25.4498942948,13.9033406195,-22.)) ;
#728=CARTESIAN_POINT('Axis2P3D Location',(0.,0.,-22.)) ;
#732=CARTESIAN_POINT('Vertex',(25.4498942948,-13.9033406195,-22.)) ;
#735=CARTESIAN_POINT('Axis2P3D Location',(25.4498942948,-13.9033406195,-21.)) ;
#747=CARTESIAN_POINT('Axis2P3D Location',(0.,0.,-22.)) ;
#759=CARTESIAN_POINT('Axis2P3D Location',(-3.5527136788E-015,0.,-22.)) ;
#8=PRODUCT_RELATED_PRODUCT_CATEGORY('part',$,(#5)) ;
#29=STYLED_ITEM(' ',(#28),#21) ;
#28=PRESENTATION_STYLE_ASSIGNMENT((#27)) ;
#27=SURFACE_STYLE_USAGE(.BOTH.,#26) ;
#26=SURFACE_SIDE_STYLE(' ',(#25)) ;
#25=SURFACE_STYLE_FILL_AREA(#24) ;
#24=FILL_AREA_STYLE(' ',(#23)) ;
#23=FILL_AREA_STYLE_COLOUR(' ',#22) ;
#38=VECTOR('Line Direction',#37,1.) ;
#54=VECTOR('Line Direction',#53,1.) ;
#123=VECTOR('Line Direction',#122,1.) ;
#137=VECTOR('Line Direction',#136,1.) ;
#166=VECTOR('Line Direction',#165,1.) ;
#180=VECTOR('Line Direction',#179,1.) ;
#323=VECTOR('Line Direction',#322,1.) ;
#337=VECTOR('Line Direction',#336,1.) ;
#409=VECTOR('Line Direction',#408,1.) ;
#423=VECTOR('Line Direction',#422,1.) ;
#480=VECTOR('Line Direction',#479,1.) ;
#494=VECTOR('Line Direction',#493,1.) ;
#523=VECTOR('Line Direction',#522,1.) ;
#537=VECTOR('Line Direction',#536,1.) ;
#566=VECTOR('Line Direction',#565,1.) ;
#580=VECTOR('Line Direction',#579,1.) ;
#637=VECTOR('Line Direction',#636,1.) ;
#651=VECTOR('Line Direction',#650,1.) ;
#680=VECTOR('Line Direction',#679,1.) ;
#694=VECTOR('Line Direction',#693,1.) ;
#32=DIRECTION('Axis2P3D Direction',(0.,0.,-1.)) ;
#33=DIRECTION('Axis2P3D XDirection',(0.87758256189,-0.479425538604,0.)) ;
#37=DIRECTION('Vector Direction',(0.,0.,-1.)) ;
#46=DIRECTION('Axis2P3D Direction',(0.,0.,-1.)) ;
#53=DIRECTION('Vector Direction',(0.,0.,-1.)) ;
#60=DIRECTION('Axis2P3D Direction',(0.,0.,-1.)) ;
#72=DIRECTION('Axis2P3D Direction',(0.,0.,-1.)) ;
#77=DIRECTION('Axis2P3D Direction',(0.,0.,-1.)) ;
#89=DIRECTION('Axis2P3D Direction',(0.,0.,-1.)) ;
#90=DIRECTION('Axis2P3D XDirection',(1.,0.,0.)) ;
#94=DIRECTION('Axis2P3D Direction',(0.,0.,-1.)) ;
#103=DIRECTION('Axis2P3D Direction',(0.,0.,-1.)) ;
#117=DIRECTION('Axis2P3D Direction',(-0.,-0.,1.)) ;
#118=DIRECTION('Axis2P3D XDirection',(-0.87758256189,0.479425538604,0.)) ;
#122=DIRECTION('Vector Direction',(-0.227135080667,0.124084460099,0.965925826289)) ;
#129=DIRECTION('Axis2P3D Direction',(-0.,0.,1.)) ;
#136=DIRECTION('Vector Direction',(0.227135080667,-0.124084460099,0.965925826289)) ;
#148=DIRECTION('Axis2P3D Direction',(-0.,0.,1.)) ;
#160=DIRECTION('Axis2P3D Direction',(0.,0.,-1.)) ;
#161=DIRECTION('Axis2P3D XDirection',(-0.87758256189,0.479425538604,-0.)) ;
#165=DIRECTION('Vector Direction',(0.,0.,-1.)) ;
#172=DIRECTION('Axis2P3D Direction',(0.,0.,-1.)) ;
#179=DIRECTION('Vector Direction',(0.,0.,-1.)) ;
#191=DIRECTION('Axis2P3D Direction',(0.,0.,-1.)) ;
#203=DIRECTION('Axis2P3D Direction',(0.,0.,-1.)) ;
#204=DIRECTION('Axis2P3D XDirection',(-0.87758256189,0.479425538604,0.)) ;
#208=DIRECTION('Axis2P3D Direction',(-0.479425538604,-0.87758256189,-0.)) ;
#215=DIRECTION('Axis2P3D Direction',(0.,0.,-1.)) ;
#222=DIRECTION('Axis2P3D Direction',(0.479425538604,0.87758256189,0.)) ;
#234=DIRECTION('Axis2P3D Direction',(0.,0.,-1.)) ;
#246=DIRECTION('Axis2P3D Direction',(0.,0.,-1.)) ;
#247=DIRECTION('Axis2P3D XDirection',(1.,0.,0.)) ;
#251=DIRECTION('Axis2P3D Direction',(0.,0.,-1.)) ;
#260=DIRECTION('Axis2P3D Direction',(0.,0.,-1.)) ;
#274=DIRECTION('Axis2P3D Direction',(0.,0.,-1.)) ;
#275=DIRECTION('Axis2P3D XDirection',(-0.87758256189,0.479425538604,0.)) ;
#279=DIRECTION('Axis2P3D Direction',(0.479425538604,0.87758256189,0.)) ;
#286=DIRECTION('Axis2P3D Direction',(0.,0.,-1.)) ;
#293=DIRECTION('Axis2P3D Direction',(-0.479425538604,-0.87758256189,-0.)) ;
#305=DIRECTION('Axis2P3D Direction',(0.,0.,-1.)) ;
#317=DIRECTION('Axis2P3D Direction',(0.,0.,-1.)) ;
#318=DIRECTION('Axis2P3D XDirection',(-0.87758256189,0.479425538604,-0.)) ;
#322=DIRECTION('Vector Direction',(0.,0.,-1.)) ;
#329=DIRECTION('Axis2P3D Direction',(0.,0.,-1.)) ;
#336=DIRECTION('Vector Direction',(0.,0.,-1.)) ;
#348=DIRECTION('Axis2P3D Direction',(0.,0.,-1.)) ;
#360=DIRECTION('Axis2P3D Direction',(0.,0.,-1.)) ;
#361=DIRECTION('Axis2P3D XDirection',(-0.87758256189,0.479425538604,0.)) ;
#365=DIRECTION('Axis2P3D Direction',(0.479425538604,0.87758256189,0.)) ;
#372=DIRECTION('Axis2P3D Direction',(0.,0.,-1.)) ;
#379=DIRECTION('Axis2P3D Direction',(-0.479425538604,-0.87758256189,-0.)) ;
#391=DIRECTION('Axis2P3D Direction',(0.,0.,-1.)) ;
#403=DIRECTION('Axis2P3D Direction',(0.,0.,-1.)) ;
#404=DIRECTION('Axis2P3D XDirection',(-0.87758256189,0.479425538604,0.)) ;
#408=DIRECTION('Vector Direction',(0.227135080667,-0.124084460099,-0.965925826289)) ;
#415=DIRECTION('Axis2P3D Direction',(0.,0.,-1.)) ;
#422=DIRECTION('Vector Direction',(-0.227135080667,0.124084460099,-0.965925826289)) ;
#434=DIRECTION('Axis2P3D Direction',(0.,0.,-1.)) ;
#446=DIRECTION('Axis2P3D Direction',(0.,0.,-1.)) ;
#447=DIRECTION('Axis2P3D XDirection',(1.,0.,0.)) ;
#451=DIRECTION('Axis2P3D Direction',(0.,0.,-1.)) ;
#460=DIRECTION('Axis2P3D Direction',(0.,0.,-1.)) ;
#474=DIRECTION('Axis2P3D Direction',(0.,0.,-1.)) ;
#475=DIRECTION('Axis2P3D XDirection',(-0.87758256189,0.479425538604,-0.)) ;
#479=DIRECTION('Vector Direction',(0.,0.,-1.)) ;
#486=DIRECTION('Axis2P3D Direction',(0.,0.,-1.)) ;
#493=DIRECTION('Vector Direction',(0.,0.,-1.)) ;
#505=DIRECTION('Axis2P3D Direction',(0.,0.,-1.)) ;
#517=DIRECTION('Axis2P3D Direction',(0.,0.,-1.)) ;
#518=DIRECTION('Axis2P3D XDirection',(-0.87758256189,0.479425538604,0.)) ;
#522=DIRECTION('Vector Direction',(0.227135080667,-0.124084460099,-0.965925826289)) ;
#529=DIRECTION('Axis2P3D Direction',(0.,0.,-1.)) ;
#536=DIRECTION('Vector Direction',(-0.227135080667,0.124084460099,-0.965925826289)) ;
#548=DIRECTION('Axis2P3D Direction',(0.,0.,-1.)) ;
#560=DIRECTION('Axis2P3D Direction',(0.,0.,-1.)) ;
#561=DIRECTION('Axis2P3D XDirection',(-0.87758256189,0.479425538604,-0.)) ;
#565=DIRECTION('Vector Direction',(0.,0.,-1.)) ;
#572=DIRECTION('Axis2P3D Direction',(0.,0.,-1.)) ;
#579=DIRECTION('Vector Direction',(0.,0.,-1.)) ;
#591=DIRECTION('Axis2P3D Direction',(0.,0.,-1.)) ;
#603=DIRECTION('Axis2P3D Direction',(0.,0.,-1.)) ;
#604=DIRECTION('Axis2P3D XDirection',(1.,0.,0.)) ;
#612=DIRECTION('Axis2P3D Direction',(0.,0.,-1.)) ;
#621=DIRECTION('Axis2P3D Direction',(0.,0.,-1.)) ;
#631=DIRECTION('Axis2P3D Direction',(-0.,-0.,1.)) ;
#632=DIRECTION('Axis2P3D XDirection',(-0.87758256189,0.479425538604,0.)) ;
#636=DIRECTION('Vector Direction',(-0.227135080667,0.124084460099,0.965925826289)) ;
#643=DIRECTION('Axis2P3D Direction',(-0.,0.,1.)) ;
#650=DIRECTION('Vector Direction',(0.227135080667,-0.124084460099,0.965925826289)) ;
#662=DIRECTION('Axis2P3D Direction',(-0.,0.,1.)) ;
#674=DIRECTION('Axis2P3D Direction',(0.,0.,-1.)) ;
#675=DIRECTION('Axis2P3D XDirection',(-0.87758256189,0.479425538604,-0.)) ;
#679=DIRECTION('Vector Direction',(0.,0.,-1.)) ;
#686=DIRECTION('Axis2P3D Direction',(0.,0.,-1.)) ;
#693=DIRECTION('Vector Direction',(0.,0.,-1.)) ;
#705=DIRECTION('Axis2P3D Direction',(0.,0.,-1.)) ;
#717=DIRECTION('Axis2P3D Direction',(0.,0.,-1.)) ;
#718=DIRECTION('Axis2P3D XDirection',(-0.87758256189,0.479425538604,0.)) ;
#722=DIRECTION('Axis2P3D Direction',(-0.479425538604,-0.87758256189,-0.)) ;
#729=DIRECTION('Axis2P3D Direction',(0.,0.,-1.)) ;
#736=DIRECTION('Axis2P3D Direction',(0.479425538604,0.87758256189,0.)) ;
#748=DIRECTION('Axis2P3D Direction',(0.,0.,-1.)) ;
#760=DIRECTION('Axis2P3D Direction',(0.,0.,-1.)) ;
#761=DIRECTION('Axis2P3D XDirection',(1.,0.,0.)) ;
#15=UNCERTAINTY_MEASURE_WITH_UNIT(LENGTH_MEASURE(0.005),#12,'distance_accuracy_value','CONFUSED CURVE UNCERTAINTY') ;
#18=AXIS2_PLACEMENT_3D(' ',#17,$,$) ;
#34=AXIS2_PLACEMENT_3D('Cylinder Axis2P3D',#31,#32,#33) ;
#47=AXIS2_PLACEMENT_3D('Circle Axis2P3D',#45,#46,$) ;
#61=AXIS2_PLACEMENT_3D('Circle Axis2P3D',#59,#60,$) ;
#73=AXIS2_PLACEMENT_3D('Circle Axis2P3D',#71,#72,$) ;
#78=AXIS2_PLACEMENT_3D('Circle Axis2P3D',#76,#77,$) ;
#91=AXIS2_PLACEMENT_3D('Plane Axis2P3D',#88,#89,#90) ;
#95=AXIS2_PLACEMENT_3D('Circle Axis2P3D',#93,#94,$) ;
#104=AXIS2_PLACEMENT_3D('Circle Axis2P3D',#102,#103,$) ;
#119=AXIS2_PLACEMENT_3D('Cone Axis2P3D',#116,#117,#118) ;
#130=AXIS2_PLACEMENT_3D('Circle Axis2P3D',#128,#129,$) ;
#149=AXIS2_PLACEMENT_3D('Circle Axis2P3D',#147,#148,$) ;
#162=AXIS2_PLACEMENT_3D('Cylinder Axis2P3D',#159,#160,#161) ;
#173=AXIS2_PLACEMENT_3D('Circle Axis2P3D',#171,#172,$) ;
#192=AXIS2_PLACEMENT_3D('Circle Axis2P3D',#190,#191,$) ;
#205=AXIS2_PLACEMENT_3D('Torus Axis2P3D',#202,#203,#204) ;
#209=AXIS2_PLACEMENT_3D('Circle Axis2P3D',#207,#208,$) ;
#216=AXIS2_PLACEMENT_3D('Circle Axis2P3D',#214,#215,$) ;
#223=AXIS2_PLACEMENT_3D('Circle Axis2P3D',#221,#222,$) ;
#235=AXIS2_PLACEMENT_3D('Circle Axis2P3D',#233,#234,$) ;
#248=AXIS2_PLACEMENT_3D('Plane Axis2P3D',#245,#246,#247) ;
#252=AXIS2_PLACEMENT_3D('Circle Axis2P3D',#250,#251,$) ;
#261=AXIS2_PLACEMENT_3D('Circle Axis2P3D',#259,#260,$) ;
#276=AXIS2_PLACEMENT_3D('Torus Axis2P3D',#273,#274,#275) ;
#280=AXIS2_PLACEMENT_3D('Circle Axis2P3D',#278,#279,$) ;
#287=AXIS2_PLACEMENT_3D('Circle Axis2P3D',#285,#286,$) ;
#294=AXIS2_PLACEMENT_3D('Circle Axis2P3D',#292,#293,$) ;
#306=AXIS2_PLACEMENT_3D('Circle Axis2P3D',#304,#305,$) ;
#319=AXIS2_PLACEMENT_3D('Cylinder Axis2P3D',#316,#317,#318) ;
#330=AXIS2_PLACEMENT_3D('Circle Axis2P3D',#328,#329,$) ;
#349=AXIS2_PLACEMENT_3D('Circle Axis2P3D',#347,#348,$) ;
#362=AXIS2_PLACEMENT_3D('Torus Axis2P3D',#359,#360,#361) ;
#366=AXIS2_PLACEMENT_3D('Circle Axis2P3D',#364,#365,$) ;
#373=AXIS2_PLACEMENT_3D('Circle Axis2P3D',#371,#372,$) ;
#380=AXIS2_PLACEMENT_3D('Circle Axis2P3D',#378,#379,$) ;
#392=AXIS2_PLACEMENT_3D('Circle Axis2P3D',#390,#391,$) ;
#405=AXIS2_PLACEMENT_3D('Cone Axis2P3D',#402,#403,#404) ;
#416=AXIS2_PLACEMENT_3D('Circle Axis2P3D',#414,#415,$) ;
#435=AXIS2_PLACEMENT_3D('Circle Axis2P3D',#433,#434,$) ;
#448=AXIS2_PLACEMENT_3D('Plane Axis2P3D',#445,#446,#447) ;
#452=AXIS2_PLACEMENT_3D('Circle Axis2P3D',#450,#451,$) ;
#461=AXIS2_PLACEMENT_3D('Circle Axis2P3D',#459,#460,$) ;
#476=AXIS2_PLACEMENT_3D('Cylinder Axis2P3D',#473,#474,#475) ;
#487=AXIS2_PLACEMENT_3D('Circle Axis2P3D',#485,#486,$) ;
#506=AXIS2_PLACEMENT_3D('Circle Axis2P3D',#504,#505,$) ;
#519=AXIS2_PLACEMENT_3D('Cone Axis2P3D',#516,#517,#518) ;
#530=AXIS2_PLACEMENT_3D('Circle Axis2P3D',#528,#529,$) ;
#549=AXIS2_PLACEMENT_3D('Circle Axis2P3D',#547,#548,$) ;
#562=AXIS2_PLACEMENT_3D('Cylinder Axis2P3D',#559,#560,#561) ;
#573=AXIS2_PLACEMENT_3D('Circle Axis2P3D',#571,#572,$) ;
#592=AXIS2_PLACEMENT_3D('Circle Axis2P3D',#590,#591,$) ;
#605=AXIS2_PLACEMENT_3D('Plane Axis2P3D',#602,#603,#604) ;
#613=AXIS2_PLACEMENT_3D('Circle Axis2P3D',#611,#612,$) ;
#622=AXIS2_PLACEMENT_3D('Circle Axis2P3D',#620,#621,$) ;
#633=AXIS2_PLACEMENT_3D('Cone Axis2P3D',#630,#631,#632) ;
#644=AXIS2_PLACEMENT_3D('Circle Axis2P3D',#642,#643,$) ;
#663=AXIS2_PLACEMENT_3D('Circle Axis2P3D',#661,#662,$) ;
#676=AXIS2_PLACEMENT_3D('Cylinder Axis2P3D',#673,#674,#675) ;
#687=AXIS2_PLACEMENT_3D('Circle Axis2P3D',#685,#686,$) ;
#706=AXIS2_PLACEMENT_3D('Circle Axis2P3D',#704,#705,$) ;
#719=AXIS2_PLACEMENT_3D('Torus Axis2P3D',#716,#717,#718) ;
#723=AXIS2_PLACEMENT_3D('Circle Axis2P3D',#721,#722,$) ;
#730=AXIS2_PLACEMENT_3D('Circle Axis2P3D',#728,#729,$) ;
#737=AXIS2_PLACEMENT_3D('Circle Axis2P3D',#735,#736,$) ;
#749=AXIS2_PLACEMENT_3D('Circle Axis2P3D',#747,#748,$) ;
#762=AXIS2_PLACEMENT_3D('Plane Axis2P3D',#759,#760,#761) ;
#39=LINE('Line',#36,#38) ;
#55=LINE('Line',#52,#54) ;
#124=LINE('Line',#121,#123) ;
#138=LINE('Line',#135,#137) ;
#167=LINE('Line',#164,#166) ;
#181=LINE('Line',#178,#180) ;
#324=LINE('Line',#321,#323) ;
#338=LINE('Line',#335,#337) ;
#410=LINE('Line',#407,#409) ;
#424=LINE('Line',#421,#423) ;
#481=LINE('Line',#478,#480) ;
#495=LINE('Line',#492,#494) ;
#524=LINE('Line',#521,#523) ;
#538=LINE('Line',#535,#537) ;
#567=LINE('Line',#564,#566) ;
#581=LINE('Line',#578,#580) ;
#638=LINE('Line',#635,#637) ;
#652=LINE('Line',#649,#651) ;
#681=LINE('Line',#678,#680) ;
#695=LINE('Line',#692,#694) ;
#48=CIRCLE('generated circle',#47,6.9175) ;
#62=CIRCLE('generated circle',#61,6.9175) ;
#74=CIRCLE('generated circle',#73,6.9175) ;
#79=CIRCLE('generated circle',#78,6.9175) ;
#96=CIRCLE('generated circle',#95,42.8910161514) ;
#105=CIRCLE('generated circle',#104,42.8910161514) ;
#131=CIRCLE('generated circle',#130,48.25) ;
#150=CIRCLE('generated circle',#149,48.25) ;
#174=CIRCLE('generated circle',#173,48.25) ;
#193=CIRCLE('generated circle',#192,48.25) ;
#210=CIRCLE('generated circle',#209,5.) ;
#217=CIRCLE('generated circle',#216,53.25) ;
#224=CIRCLE('generated circle',#223,5.) ;
#236=CIRCLE('generated circle',#235,53.25) ;
#253=CIRCLE('generated circle',#252,147.) ;
#262=CIRCLE('generated circle',#261,147.) ;
#281=CIRCLE('generated circle',#280,3.) ;
#288=CIRCLE('generated circle',#287,150.) ;
#295=CIRCLE('generated circle',#294,3.) ;
#307=CIRCLE('generated circle',#306,150.) ;
#331=CIRCLE('generated circle',#330,150.) ;
#350=CIRCLE('generated circle',#349,150.) ;
#367=CIRCLE('generated circle',#366,30.) ;
#374=CIRCLE('generated circle',#373,151.022225211) ;
#381=CIRCLE('generated circle',#380,30.) ;
#393=CIRCLE('generated circle',#392,151.022225211) ;
#417=CIRCLE('generated circle',#416,156.698729811) ;
#436=CIRCLE('generated circle',#435,156.698729811) ;
#453=CIRCLE('generated circle',#452,160.) ;
#462=CIRCLE('generated circle',#461,160.) ;
#488=CIRCLE('generated circle',#487,160.) ;
#507=CIRCLE('generated circle',#506,160.) ;
#531=CIRCLE('generated circle',#530,157.) ;
#550=CIRCLE('generated circle',#549,157.) ;
#574=CIRCLE('generated circle',#573,157.) ;
#593=CIRCLE('generated circle',#592,157.) ;
#614=CIRCLE('generated circle',#613,32.6794919243) ;
#623=CIRCLE('generated circle',#622,32.6794919243) ;
#645=CIRCLE('generated circle',#644,30.) ;
#664=CIRCLE('generated circle',#663,30.) ;
#688=CIRCLE('generated circle',#687,30.) ;
#707=CIRCLE('generated circle',#706,30.) ;
#724=CIRCLE('generated circle',#723,1.) ;
#731=CIRCLE('generated circle',#730,29.) ;
#738=CIRCLE('generated circle',#737,1.) ;
#750=CIRCLE('generated circle',#749,29.) ;
#92=PLANE('',#91) ;
#249=PLANE('',#248) ;
#449=PLANE('',#448) ;
#606=PLANE('',#605) ;
#763=PLANE('',#762) ;
#35=CYLINDRICAL_SURFACE('generated cylinder',#34,6.9175) ;
#163=CYLINDRICAL_SURFACE('generated cylinder',#162,48.25) ;
#320=CYLINDRICAL_SURFACE('generated cylinder',#319,150.) ;
#477=CYLINDRICAL_SURFACE('generated cylinder',#476,160.) ;
#563=CYLINDRICAL_SURFACE('generated cylinder',#562,157.) ;
#677=CYLINDRICAL_SURFACE('generated cylinder',#676,30.) ;
#120=CONICAL_SURFACE('Cone',#119,42.8910161514,0.261799387799) ;
#406=CONICAL_SURFACE('Cone',#405,151.022225211,0.261799387799) ;
#520=CONICAL_SURFACE('Cone',#519,157.,0.261799387799) ;
#634=CONICAL_SURFACE('Cone',#633,30.,0.261799387799) ;
#206=TOROIDAL_SURFACE('homeo Torus',#205,53.25,5.) ;
#277=TOROIDAL_SURFACE('homeo Torus',#276,147.,3.) ;
#363=TOROIDAL_SURFACE('homeo Torus',#362,180.,30.) ;
#720=TOROIDAL_SURFACE('homeo Torus',#719,29.,1.) ;
#114=FACE_BOUND('',#111,.T.) ;
#271=FACE_BOUND('',#268,.T.) ;
#471=FACE_BOUND('',#468,.T.) ;
#628=FACE_BOUND('',#625,.T.) ;
#771=FACE_BOUND('',#768,.T.) ;
#44=EDGE_CURVE('',#41,#43,#39,.F.) ;
#51=EDGE_CURVE('',#41,#50,#48,.T.) ;
#58=EDGE_CURVE('',#50,#57,#55,.F.) ;
#63=EDGE_CURVE('',#43,#57,#62,.T.) ;
#75=EDGE_CURVE('',#50,#41,#74,.T.) ;
#80=EDGE_CURVE('',#57,#43,#79,.T.) ;
#101=EDGE_CURVE('',#98,#100,#96,.T.) ;
#106=EDGE_CURVE('',#100,#98,#105,.T.) ;
#127=EDGE_CURVE('',#98,#126,#124,.T.) ;
#134=EDGE_CURVE('',#126,#133,#131,.F.) ;
#139=EDGE_CURVE('',#100,#133,#138,.T.) ;
#151=EDGE_CURVE('',#133,#126,#150,.F.) ;
#170=EDGE_CURVE('',#126,#169,#167,.F.) ;
#177=EDGE_CURVE('',#169,#176,#174,.T.) ;
#182=EDGE_CURVE('',#133,#176,#181,.F.) ;
#194=EDGE_CURVE('',#176,#169,#193,.T.) ;
#213=EDGE_CURVE('',#169,#212,#210,.T.) ;
#220=EDGE_CURVE('',#212,#219,#217,.T.) ;
#225=EDGE_CURVE('',#176,#219,#224,.T.) ;
#237=EDGE_CURVE('',#219,#212,#236,.T.) ;
#258=EDGE_CURVE('',#255,#257,#253,.T.) ;
#263=EDGE_CURVE('',#257,#255,#262,.T.) ;
#284=EDGE_CURVE('',#255,#283,#281,.T.) ;
#291=EDGE_CURVE('',#283,#290,#288,.T.) ;
#296=EDGE_CURVE('',#257,#290,#295,.T.) ;
#308=EDGE_CURVE('',#290,#283,#307,.T.) ;
#327=EDGE_CURVE('',#283,#326,#324,.T.) ;
#334=EDGE_CURVE('',#326,#333,#331,.T.) ;
#339=EDGE_CURVE('',#290,#333,#338,.T.) ;
#351=EDGE_CURVE('',#333,#326,#350,.T.) ;
#370=EDGE_CURVE('',#326,#369,#367,.F.) ;
#377=EDGE_CURVE('',#369,#376,#374,.T.) ;
#382=EDGE_CURVE('',#333,#376,#381,.F.) ;
#394=EDGE_CURVE('',#376,#369,#393,.T.) ;
#413=EDGE_CURVE('',#369,#412,#410,.T.) ;
#420=EDGE_CURVE('',#412,#419,#417,.T.) ;
#425=EDGE_CURVE('',#376,#419,#424,.T.) ;
#437=EDGE_CURVE('',#419,#412,#436,.T.) ;
#458=EDGE_CURVE('',#455,#457,#453,.T.) ;
#463=EDGE_CURVE('',#457,#455,#462,.T.) ;
#484=EDGE_CURVE('',#455,#483,#481,.F.) ;
#491=EDGE_CURVE('',#483,#490,#488,.T.) ;
#496=EDGE_CURVE('',#457,#490,#495,.F.) ;
#508=EDGE_CURVE('',#490,#483,#507,.T.) ;
#527=EDGE_CURVE('',#483,#526,#524,.F.) ;
#534=EDGE_CURVE('',#526,#533,#531,.T.) ;
#539=EDGE_CURVE('',#490,#533,#538,.F.) ;
#551=EDGE_CURVE('',#533,#526,#550,.T.) ;
#570=EDGE_CURVE('',#526,#569,#567,.F.) ;
#577=EDGE_CURVE('',#569,#576,#574,.T.) ;
#582=EDGE_CURVE('',#533,#576,#581,.F.) ;
#594=EDGE_CURVE('',#576,#569,#593,.T.) ;
#619=EDGE_CURVE('',#616,#618,#614,.T.) ;
#624=EDGE_CURVE('',#618,#616,#623,.T.) ;
#641=EDGE_CURVE('',#618,#640,#638,.F.) ;
#648=EDGE_CURVE('',#640,#647,#645,.F.) ;
#653=EDGE_CURVE('',#616,#647,#652,.F.) ;
#665=EDGE_CURVE('',#647,#640,#664,.F.) ;
#684=EDGE_CURVE('',#640,#683,#681,.T.) ;
#691=EDGE_CURVE('',#683,#690,#688,.T.) ;
#696=EDGE_CURVE('',#647,#690,#695,.T.) ;
#708=EDGE_CURVE('',#690,#683,#707,.T.) ;
#727=EDGE_CURVE('',#683,#726,#724,.T.) ;
#734=EDGE_CURVE('',#726,#733,#731,.T.) ;
#739=EDGE_CURVE('',#690,#733,#738,.T.) ;
#751=EDGE_CURVE('',#733,#726,#750,.T.) ;
#30=CLOSED_SHELL('Closed Shell',(#70,#87,#115,#146,#158,#189,#201,#232,#244,#272,#303,#315,#346,#358,#389,#401,#432,#444,#472,#503,#515,#546,#558,#589,#601,#629,#660,#672,#703,#715,#746,#758,#772)) ;
#774=SHAPE_REPRESENTATION_RELATIONSHIP(' ',' ',#19,#773) ;
#64=EDGE_LOOP('',(#65,#66,#67,#68)) ;
#81=EDGE_LOOP('',(#82,#83,#84,#85)) ;
#107=EDGE_LOOP('',(#108,#109)) ;
#111=EDGE_LOOP('',(#112,#113)) ;
#140=EDGE_LOOP('',(#141,#142,#143,#144)) ;
#152=EDGE_LOOP('',(#153,#154,#155,#156)) ;
#183=EDGE_LOOP('',(#184,#185,#186,#187)) ;
#195=EDGE_LOOP('',(#196,#197,#198,#199)) ;
#226=EDGE_LOOP('',(#227,#228,#229,#230)) ;
#238=EDGE_LOOP('',(#239,#240,#241,#242)) ;
#264=EDGE_LOOP('',(#265,#266)) ;
#268=EDGE_LOOP('',(#269,#270)) ;
#297=EDGE_LOOP('',(#298,#299,#300,#301)) ;
#309=EDGE_LOOP('',(#310,#311,#312,#313)) ;
#340=EDGE_LOOP('',(#341,#342,#343,#344)) ;
#352=EDGE_LOOP('',(#353,#354,#355,#356)) ;
#383=EDGE_LOOP('',(#384,#385,#386,#387)) ;
#395=EDGE_LOOP('',(#396,#397,#398,#399)) ;
#426=EDGE_LOOP('',(#427,#428,#429,#430)) ;
#438=EDGE_LOOP('',(#439,#440,#441,#442)) ;
#464=EDGE_LOOP('',(#465,#466)) ;
#468=EDGE_LOOP('',(#469,#470)) ;
#497=EDGE_LOOP('',(#498,#499,#500,#501)) ;
#509=EDGE_LOOP('',(#510,#511,#512,#513)) ;
#540=EDGE_LOOP('',(#541,#542,#543,#544)) ;
#552=EDGE_LOOP('',(#553,#554,#555,#556)) ;
#583=EDGE_LOOP('',(#584,#585,#586,#587)) ;
#595=EDGE_LOOP('',(#596,#597,#598,#599)) ;
#607=EDGE_LOOP('',(#608,#609)) ;
#625=EDGE_LOOP('',(#626,#627)) ;
#654=EDGE_LOOP('',(#655,#656,#657,#658)) ;
#666=EDGE_LOOP('',(#667,#668,#669,#670)) ;
#697=EDGE_LOOP('',(#698,#699,#700,#701)) ;
#709=EDGE_LOOP('',(#710,#711,#712,#713)) ;
#740=EDGE_LOOP('',(#741,#742,#743,#744)) ;
#752=EDGE_LOOP('',(#753,#754,#755,#756)) ;
#764=EDGE_LOOP('',(#765,#766)) ;
#768=EDGE_LOOP('',(#769,#770)) ;
#65=ORIENTED_EDGE('',*,*,#44,.F.) ;
#66=ORIENTED_EDGE('',*,*,#51,.T.) ;
#67=ORIENTED_EDGE('',*,*,#58,.T.) ;
#68=ORIENTED_EDGE('',*,*,#63,.F.) ;
#82=ORIENTED_EDGE('',*,*,#58,.F.) ;
#83=ORIENTED_EDGE('',*,*,#75,.T.) ;
#84=ORIENTED_EDGE('',*,*,#44,.T.) ;
#85=ORIENTED_EDGE('',*,*,#80,.F.) ;
#108=ORIENTED_EDGE('',*,*,#101,.T.) ;
#109=ORIENTED_EDGE('',*,*,#106,.T.) ;
#112=ORIENTED_EDGE('',*,*,#75,.F.) ;
#113=ORIENTED_EDGE('',*,*,#51,.F.) ;
#141=ORIENTED_EDGE('',*,*,#101,.F.) ;
#142=ORIENTED_EDGE('',*,*,#127,.T.) ;
#143=ORIENTED_EDGE('',*,*,#134,.T.) ;
#144=ORIENTED_EDGE('',*,*,#139,.F.) ;
#153=ORIENTED_EDGE('',*,*,#106,.F.) ;
#154=ORIENTED_EDGE('',*,*,#139,.T.) ;
#155=ORIENTED_EDGE('',*,*,#151,.T.) ;
#156=ORIENTED_EDGE('',*,*,#127,.F.) ;
#184=ORIENTED_EDGE('',*,*,#134,.F.) ;
#185=ORIENTED_EDGE('',*,*,#170,.T.) ;
#186=ORIENTED_EDGE('',*,*,#177,.T.) ;
#187=ORIENTED_EDGE('',*,*,#182,.F.) ;
#196=ORIENTED_EDGE('',*,*,#151,.F.) ;
#197=ORIENTED_EDGE('',*,*,#182,.T.) ;
#198=ORIENTED_EDGE('',*,*,#194,.T.) ;
#199=ORIENTED_EDGE('',*,*,#170,.F.) ;
#227=ORIENTED_EDGE('',*,*,#177,.F.) ;
#228=ORIENTED_EDGE('',*,*,#213,.T.) ;
#229=ORIENTED_EDGE('',*,*,#220,.T.) ;
#230=ORIENTED_EDGE('',*,*,#225,.F.) ;
#239=ORIENTED_EDGE('',*,*,#194,.F.) ;
#240=ORIENTED_EDGE('',*,*,#225,.T.) ;
#241=ORIENTED_EDGE('',*,*,#237,.T.) ;
#242=ORIENTED_EDGE('',*,*,#213,.F.) ;
#265=ORIENTED_EDGE('',*,*,#258,.T.) ;
#266=ORIENTED_EDGE('',*,*,#263,.T.) ;
#269=ORIENTED_EDGE('',*,*,#220,.F.) ;
#270=ORIENTED_EDGE('',*,*,#237,.F.) ;
#298=ORIENTED_EDGE('',*,*,#258,.F.) ;
#299=ORIENTED_EDGE('',*,*,#284,.T.) ;
#300=ORIENTED_EDGE('',*,*,#291,.T.) ;
#301=ORIENTED_EDGE('',*,*,#296,.F.) ;
#310=ORIENTED_EDGE('',*,*,#263,.F.) ;
#311=ORIENTED_EDGE('',*,*,#296,.T.) ;
#312=ORIENTED_EDGE('',*,*,#308,.T.) ;
#313=ORIENTED_EDGE('',*,*,#284,.F.) ;
#341=ORIENTED_EDGE('',*,*,#291,.F.) ;
#342=ORIENTED_EDGE('',*,*,#327,.T.) ;
#343=ORIENTED_EDGE('',*,*,#334,.T.) ;
#344=ORIENTED_EDGE('',*,*,#339,.F.) ;
#353=ORIENTED_EDGE('',*,*,#308,.F.) ;
#354=ORIENTED_EDGE('',*,*,#339,.T.) ;
#355=ORIENTED_EDGE('',*,*,#351,.T.) ;
#356=ORIENTED_EDGE('',*,*,#327,.F.) ;
#384=ORIENTED_EDGE('',*,*,#334,.F.) ;
#385=ORIENTED_EDGE('',*,*,#370,.T.) ;
#386=ORIENTED_EDGE('',*,*,#377,.T.) ;
#387=ORIENTED_EDGE('',*,*,#382,.F.) ;
#396=ORIENTED_EDGE('',*,*,#351,.F.) ;
#397=ORIENTED_EDGE('',*,*,#382,.T.) ;
#398=ORIENTED_EDGE('',*,*,#394,.T.) ;
#399=ORIENTED_EDGE('',*,*,#370,.F.) ;
#427=ORIENTED_EDGE('',*,*,#377,.F.) ;
#428=ORIENTED_EDGE('',*,*,#413,.T.) ;
#429=ORIENTED_EDGE('',*,*,#420,.T.) ;
#430=ORIENTED_EDGE('',*,*,#425,.F.) ;
#439=ORIENTED_EDGE('',*,*,#394,.F.) ;
#440=ORIENTED_EDGE('',*,*,#425,.T.) ;
#441=ORIENTED_EDGE('',*,*,#437,.T.) ;
#442=ORIENTED_EDGE('',*,*,#413,.F.) ;
#465=ORIENTED_EDGE('',*,*,#458,.T.) ;
#466=ORIENTED_EDGE('',*,*,#463,.T.) ;
#469=ORIENTED_EDGE('',*,*,#437,.F.) ;
#470=ORIENTED_EDGE('',*,*,#420,.F.) ;
#498=ORIENTED_EDGE('',*,*,#458,.F.) ;
#499=ORIENTED_EDGE('',*,*,#484,.T.) ;
#500=ORIENTED_EDGE('',*,*,#491,.T.) ;
#501=ORIENTED_EDGE('',*,*,#496,.F.) ;
#510=ORIENTED_EDGE('',*,*,#463,.F.) ;
#511=ORIENTED_EDGE('',*,*,#496,.T.) ;
#512=ORIENTED_EDGE('',*,*,#508,.T.) ;
#513=ORIENTED_EDGE('',*,*,#484,.F.) ;
#541=ORIENTED_EDGE('',*,*,#491,.F.) ;
#542=ORIENTED_EDGE('',*,*,#527,.T.) ;
#543=ORIENTED_EDGE('',*,*,#534,.T.) ;
#544=ORIENTED_EDGE('',*,*,#539,.F.) ;
#553=ORIENTED_EDGE('',*,*,#508,.F.) ;
#554=ORIENTED_EDGE('',*,*,#539,.T.) ;
#555=ORIENTED_EDGE('',*,*,#551,.T.) ;
#556=ORIENTED_EDGE('',*,*,#527,.F.) ;
#584=ORIENTED_EDGE('',*,*,#534,.F.) ;
#585=ORIENTED_EDGE('',*,*,#570,.T.) ;
#586=ORIENTED_EDGE('',*,*,#577,.T.) ;
#587=ORIENTED_EDGE('',*,*,#582,.F.) ;
#596=ORIENTED_EDGE('',*,*,#551,.F.) ;
#597=ORIENTED_EDGE('',*,*,#582,.T.) ;
#598=ORIENTED_EDGE('',*,*,#594,.T.) ;
#599=ORIENTED_EDGE('',*,*,#570,.F.) ;
#608=ORIENTED_EDGE('',*,*,#594,.F.) ;
#609=ORIENTED_EDGE('',*,*,#577,.F.) ;
#626=ORIENTED_EDGE('',*,*,#619,.T.) ;
#627=ORIENTED_EDGE('',*,*,#624,.T.) ;
#655=ORIENTED_EDGE('',*,*,#624,.F.) ;
#656=ORIENTED_EDGE('',*,*,#641,.T.) ;
#657=ORIENTED_EDGE('',*,*,#648,.T.) ;
#658=ORIENTED_EDGE('',*,*,#653,.F.) ;
#667=ORIENTED_EDGE('',*,*,#619,.F.) ;
#668=ORIENTED_EDGE('',*,*,#653,.T.) ;
#669=ORIENTED_EDGE('',*,*,#665,.T.) ;
#670=ORIENTED_EDGE('',*,*,#641,.F.) ;
#698=ORIENTED_EDGE('',*,*,#648,.F.) ;
#699=ORIENTED_EDGE('',*,*,#684,.T.) ;
#700=ORIENTED_EDGE('',*,*,#691,.T.) ;
#701=ORIENTED_EDGE('',*,*,#696,.F.) ;
#710=ORIENTED_EDGE('',*,*,#665,.F.) ;
#711=ORIENTED_EDGE('',*,*,#696,.T.) ;
#712=ORIENTED_EDGE('',*,*,#708,.T.) ;
#713=ORIENTED_EDGE('',*,*,#684,.F.) ;
#741=ORIENTED_EDGE('',*,*,#691,.F.) ;
#742=ORIENTED_EDGE('',*,*,#727,.T.) ;
#743=ORIENTED_EDGE('',*,*,#734,.T.) ;
#744=ORIENTED_EDGE('',*,*,#739,.F.) ;
#753=ORIENTED_EDGE('',*,*,#708,.F.) ;
#754=ORIENTED_EDGE('',*,*,#739,.T.) ;
#755=ORIENTED_EDGE('',*,*,#751,.T.) ;
#756=ORIENTED_EDGE('',*,*,#727,.F.) ;
#765=ORIENTED_EDGE('',*,*,#734,.F.) ;
#766=ORIENTED_EDGE('',*,*,#751,.F.) ;
#769=ORIENTED_EDGE('',*,*,#63,.T.) ;
#770=ORIENTED_EDGE('',*,*,#80,.T.) ;
#21=MANIFOLD_SOLID_BREP('PartBody',#30) ;
#41=VERTEX_POINT('',#40) ;
#43=VERTEX_POINT('',#42) ;
#50=VERTEX_POINT('',#49) ;
#57=VERTEX_POINT('',#56) ;
#98=VERTEX_POINT('',#97) ;
#100=VERTEX_POINT('',#99) ;
#126=VERTEX_POINT('',#125) ;
#133=VERTEX_POINT('',#132) ;
#169=VERTEX_POINT('',#168) ;
#176=VERTEX_POINT('',#175) ;
#212=VERTEX_POINT('',#211) ;
#219=VERTEX_POINT('',#218) ;
#255=VERTEX_POINT('',#254) ;
#257=VERTEX_POINT('',#256) ;
#283=VERTEX_POINT('',#282) ;
#290=VERTEX_POINT('',#289) ;
#326=VERTEX_POINT('',#325) ;
#333=VERTEX_POINT('',#332) ;
#369=VERTEX_POINT('',#368) ;
#376=VERTEX_POINT('',#375) ;
#412=VERTEX_POINT('',#411) ;
#419=VERTEX_POINT('',#418) ;
#455=VERTEX_POINT('',#454) ;
#457=VERTEX_POINT('',#456) ;
#483=VERTEX_POINT('',#482) ;
#490=VERTEX_POINT('',#489) ;
#526=VERTEX_POINT('',#525) ;
#533=VERTEX_POINT('',#532) ;
#569=VERTEX_POINT('',#568) ;
#576=VERTEX_POINT('',#575) ;
#616=VERTEX_POINT('',#615) ;
#618=VERTEX_POINT('',#617) ;
#640=VERTEX_POINT('',#639) ;
#647=VERTEX_POINT('',#646) ;
#683=VERTEX_POINT('',#682) ;
#690=VERTEX_POINT('',#689) ;
#726=VERTEX_POINT('',#725) ;
#733=VERTEX_POINT('',#732) ;
#773=ADVANCED_BREP_SHAPE_REPRESENTATION('NONE',(#21),#16) ;
#70=ADVANCED_FACE('PartBody',(#69),#35,.F.) ;
#87=ADVANCED_FACE('PartBody',(#86),#35,.F.) ;
#115=ADVANCED_FACE('PartBody',(#110,#114),#92,.T.) ;
#146=ADVANCED_FACE('PartBody',(#145),#120,.T.) ;
#158=ADVANCED_FACE('PartBody',(#157),#120,.T.) ;
#189=ADVANCED_FACE('PartBody',(#188),#163,.T.) ;
#201=ADVANCED_FACE('PartBody',(#200),#163,.T.) ;
#232=ADVANCED_FACE('PartBody',(#231),#206,.F.) ;
#244=ADVANCED_FACE('PartBody',(#243),#206,.F.) ;
#272=ADVANCED_FACE('PartBody',(#267,#271),#249,.T.) ;
#303=ADVANCED_FACE('PartBody',(#302),#277,.F.) ;
#315=ADVANCED_FACE('PartBody',(#314),#277,.F.) ;
#346=ADVANCED_FACE('PartBody',(#345),#320,.F.) ;
#358=ADVANCED_FACE('PartBody',(#357),#320,.F.) ;
#389=ADVANCED_FACE('PartBody',(#388),#363,.T.) ;
#401=ADVANCED_FACE('PartBody',(#400),#363,.T.) ;
#432=ADVANCED_FACE('PartBody',(#431),#406,.F.) ;
#444=ADVANCED_FACE('PartBody',(#443),#406,.F.) ;
#472=ADVANCED_FACE('PartBody',(#467,#471),#449,.T.) ;
#503=ADVANCED_FACE('PartBody',(#502),#477,.T.) ;
#515=ADVANCED_FACE('PartBody',(#514),#477,.T.) ;
#546=ADVANCED_FACE('PartBody',(#545),#520,.T.) ;
#558=ADVANCED_FACE('PartBody',(#557),#520,.T.) ;
#589=ADVANCED_FACE('PartBody',(#588),#563,.T.) ;
#601=ADVANCED_FACE('PartBody',(#600),#563,.T.) ;
#629=ADVANCED_FACE('PartBody',(#610,#628),#606,.F.) ;
#660=ADVANCED_FACE('PartBody',(#659),#634,.F.) ;
#672=ADVANCED_FACE('PartBody',(#671),#634,.F.) ;
#703=ADVANCED_FACE('PartBody',(#702),#677,.F.) ;
#715=ADVANCED_FACE('PartBody',(#714),#677,.F.) ;
#746=ADVANCED_FACE('PartBody',(#745),#720,.F.) ;
#758=ADVANCED_FACE('PartBody',(#757),#720,.F.) ;
#772=ADVANCED_FACE('PartBody',(#767,#771),#763,.F.) ;
#4=APPLICATION_PROTOCOL_DEFINITION('international standard','ap242_managed_model_based_3d_engineering',2014,#1) ;
#22=COLOUR_RGB('Colour',0.513725490196,0.666666666667,0.839215686275) ;
#69=FACE_OUTER_BOUND('',#64,.T.) ;
#86=FACE_OUTER_BOUND('',#81,.T.) ;
#110=FACE_OUTER_BOUND('',#107,.T.) ;
#145=FACE_OUTER_BOUND('',#140,.T.) ;
#157=FACE_OUTER_BOUND('',#152,.T.) ;
#188=FACE_OUTER_BOUND('',#183,.T.) ;
#200=FACE_OUTER_BOUND('',#195,.T.) ;
#231=FACE_OUTER_BOUND('',#226,.T.) ;
#243=FACE_OUTER_BOUND('',#238,.T.) ;
#267=FACE_OUTER_BOUND('',#264,.T.) ;
#302=FACE_OUTER_BOUND('',#297,.T.) ;
#314=FACE_OUTER_BOUND('',#309,.T.) ;
#345=FACE_OUTER_BOUND('',#340,.T.) ;
#357=FACE_OUTER_BOUND('',#352,.T.) ;
#388=FACE_OUTER_BOUND('',#383,.T.) ;
#400=FACE_OUTER_BOUND('',#395,.T.) ;
#431=FACE_OUTER_BOUND('',#426,.T.) ;
#443=FACE_OUTER_BOUND('',#438,.T.) ;
#467=FACE_OUTER_BOUND('',#464,.T.) ;
#502=FACE_OUTER_BOUND('',#497,.T.) ;
#514=FACE_OUTER_BOUND('',#509,.T.) ;
#545=FACE_OUTER_BOUND('',#540,.T.) ;
#557=FACE_OUTER_BOUND('',#552,.T.) ;
#588=FACE_OUTER_BOUND('',#583,.T.) ;
#600=FACE_OUTER_BOUND('',#595,.T.) ;
#610=FACE_OUTER_BOUND('',#607,.T.) ;
#659=FACE_OUTER_BOUND('',#654,.T.) ;
#671=FACE_OUTER_BOUND('',#666,.T.) ;
#702=FACE_OUTER_BOUND('',#697,.T.) ;
#714=FACE_OUTER_BOUND('',#709,.T.) ;
#745=FACE_OUTER_BOUND('',#740,.T.) ;
#757=FACE_OUTER_BOUND('',#752,.T.) ;
#767=FACE_OUTER_BOUND('',#764,.T.) ;
#9=PRODUCT_CATEGORY_RELATIONSHIP(' ',' ',#7,#8) ;
#6=PRODUCT_DEFINITION_FORMATION_WITH_SPECIFIED_SOURCE('--A',' ',#5,.NOT_KNOWN.) ;
#20=SHAPE_DEFINITION_REPRESENTATION(#11,#19) ;
#12=(LENGTH_UNIT()NAMED_UNIT(*)SI_UNIT(.MILLI.,.METRE.)) ;
#13=(NAMED_UNIT(*)PLANE_ANGLE_UNIT()SI_UNIT($,.RADIAN.)) ;
#14=(NAMED_UNIT(*)SI_UNIT($,.STERADIAN.)SOLID_ANGLE_UNIT()) ;
#16=(GEOMETRIC_REPRESENTATION_CONTEXT(3)GLOBAL_UNCERTAINTY_ASSIGNED_CONTEXT((#15))GLOBAL_UNIT_ASSIGNED_CONTEXT((#12,#13,#14))REPRESENTATION_CONTEXT(' ',' ')) ;
ENDSEC;
END-ISO-10303-21;
