ISO-10303-21;
HEADER;
FILE_DESCRIPTION(('CATIA V5 STEP Exchange','CAx-IF Rec.Pracs.--- Model Styling and Organization---1.4--- 2014-01-23','CAx-IF Rec.Pracs.---Representation and Presentation of Product Manufacturing Information (PMI)---4.0---2014-10-13','CAx-IF Rec.Pracs.---3D Tessellated Data Validation Properties---0.5---2014-09-14'),'2;1');

FILE_NAME('C:\\Users\\e_mdemir\\OneDrive - Alstom\\Desktop\\AR00000205467.stp','2023-02-20T16:45:32+00:00',('none'),('none'),'CATIA Version 5-6 Release 2016 SP5 HF64','CATIA V5 STEP AP242','none');

FILE_SCHEMA(('AP242_MANAGED_MODEL_BASED_3D_ENGINEERING_MIM_LF  {1 0 10303 442 1 1 4}'));

ENDSEC;
DATA;
#5=PRODUCT('M3D-205467','','LIFTING BAR',(#2)) ;
#2=PRODUCT_CONTEXT(' ',#1,'mechanical') ;
#1=APPLICATION_CONTEXT('managed model based 3d engineering') ;
#10=PRODUCT_DEFINITION('MASTER',' ',#6,#3) ;
#3=PRODUCT_DEFINITION_CONTEXT('part definition',#1,' ') ;
#11=PRODUCT_DEFINITION_SHAPE(' ',' ',#10) ;
#1235=MECHANICAL_DESIGN_GEOMETRIC_PRESENTATION_REPRESENTATION(' ',(#29),#16) ;
#19=SHAPE_REPRESENTATION(' ',(#18),#16) ;
#7=PRODUCT_CATEGORY('part','specification') ;
#17=CARTESIAN_POINT(' ',(0.,0.,0.)) ;
#31=CARTESIAN_POINT('Axis2P3D Location',(-90.,13.9,0.)) ;
#36=CARTESIAN_POINT('Line Origine',(-82.101756943,12.,4.31482984744)) ;
#40=CARTESIAN_POINT('Vertex',(-82.101756943,0.,4.31482984744)) ;
#42=CARTESIAN_POINT('Vertex',(-82.101756943,14.,4.31482984744)) ;
#45=CARTESIAN_POINT('Axis2P3D Location',(-90.,0.,0.)) ;
#49=CARTESIAN_POINT('Vertex',(-97.898243057,0.,-4.31482984744)) ;
#52=CARTESIAN_POINT('Line Origine',(-97.898243057,12.,-4.31482984744)) ;
#56=CARTESIAN_POINT('Vertex',(-97.898243057,14.,-4.31482984744)) ;
#59=CARTESIAN_POINT('Axis2P3D Location',(-90.,14.,0.)) ;
#71=CARTESIAN_POINT('Axis2P3D Location',(-90.,0.,0.)) ;
#76=CARTESIAN_POINT('Axis2P3D Location',(-90.,14.,0.)) ;
#88=CARTESIAN_POINT('Axis2P3D Location',(-20.6454625724,12.,9.48409923018)) ;
#93=CARTESIAN_POINT('Line Origine',(-70.1844178778,12.,2.70974263719)) ;
#97=CARTESIAN_POINT('Vertex',(-70.1844178778,14.,2.70974263719)) ;
#99=CARTESIAN_POINT('Vertex',(-70.1844178778,0.,2.70974263719)) ;
#102=CARTESIAN_POINT('Axis2P3D Location',(-20.6454625724,14.,9.48409923018)) ;
#106=CARTESIAN_POINT('Vertex',(-69.1602488862,14.,21.5801940102)) ;
#109=CARTESIAN_POINT('Line Origine',(-69.1602488862,12.,21.5801940102)) ;
#113=CARTESIAN_POINT('Vertex',(-69.1602488862,0.,21.5801940102)) ;
#116=CARTESIAN_POINT('Axis2P3D Location',(-20.6454625724,1.7763568394E-015,9.48409923018)) ;
#128=CARTESIAN_POINT('Axis2P3D Location',(-72.2452382436,0.,9.20697751558)) ;
#133=CARTESIAN_POINT('Line Origine',(-68.7342706119,14.,23.2886995509)) ;
#137=CARTESIAN_POINT('Vertex',(-68.3082923376,14.,24.9972050917)) ;
#141=CARTESIAN_POINT('Control Point',(-66.7595522829,14.8177801691,31.2088621741)) ;
#142=CARTESIAN_POINT('Control Point',(-67.0625851355,14.4921151526,29.9934637865)) ;
#143=CARTESIAN_POINT('Control Point',(-67.3706475217,14.246414861,28.7578930416)) ;
#144=CARTESIAN_POINT('Control Point',(-67.6820781382,14.0821376974,27.5088130629)) ;
#145=CARTESIAN_POINT('Control Point',(-67.9951852241,14.,26.2530091325)) ;
#146=CARTESIAN_POINT('Control Point',(-68.3082923376,14.,24.9972050917)) ;
#147=CARTESIAN_POINT('Vertex',(-66.7595522829,14.8177801691,31.2088621741)) ;
#150=CARTESIAN_POINT('Line Origine',(-63.089920032,18.761480784,45.926953239)) ;
#154=CARTESIAN_POINT('Vertex',(-59.4202877812,22.705181399,60.6450443039)) ;
#158=CARTESIAN_POINT('Control Point',(-59.4202877811,22.705181399,60.6450443039)) ;
#159=CARTESIAN_POINT('Control Point',(-58.9404857741,23.2208176646,62.5694250455)) ;
#160=CARTESIAN_POINT('Control Point',(-58.4527203235,23.609843136,64.525745415)) ;
#161=CARTESIAN_POINT('Control Point',(-57.9596218396,23.8699486511,66.5034554126)) ;
#162=CARTESIAN_POINT('Control Point',(-57.4638689475,24.,68.4918116599)) ;
#163=CARTESIAN_POINT('Control Point',(-56.9681160278,24.,70.4801680178)) ;
#164=CARTESIAN_POINT('Vertex',(-56.9681160278,24.,70.4801680178)) ;
#167=CARTESIAN_POINT('Line Origine',(-52.5602126195,24.,88.1593029649)) ;
#171=CARTESIAN_POINT('Vertex',(-48.1523092111,24.,105.838437912)) ;
#174=CARTESIAN_POINT('Line Origine',(-48.1523092111,17.,105.838437912)) ;
#178=CARTESIAN_POINT('Vertex',(-48.1523092111,10.,105.838437912)) ;
#181=CARTESIAN_POINT('Line Origine',(-52.5602126195,10.,88.1593029649)) ;
#185=CARTESIAN_POINT('Vertex',(-56.968116028,10.,70.4801680178)) ;
#189=CARTESIAN_POINT('Control Point',(-58.5168560825,9.18221983094,64.2685109353)) ;
#190=CARTESIAN_POINT('Control Point',(-58.2138232299,9.5078848474,65.483909323)) ;
#191=CARTESIAN_POINT('Control Point',(-57.9057608437,9.75358513897,66.7194800678)) ;
#192=CARTESIAN_POINT('Control Point',(-57.5943302272,9.91786230265,67.9685600466)) ;
#193=CARTESIAN_POINT('Control Point',(-57.2812231413,10.,69.2243639769)) ;
#194=CARTESIAN_POINT('Control Point',(-56.9681160278,10.,70.4801680178)) ;
#195=CARTESIAN_POINT('Vertex',(-58.5168560826,9.18221983094,64.2685109353)) ;
#198=CARTESIAN_POINT('Line Origine',(-62.1864883334,5.23851921598,49.5504198704)) ;
#202=CARTESIAN_POINT('Vertex',(-65.8561205843,1.29481860102,34.8323288056)) ;
#206=CARTESIAN_POINT('Control Point',(-65.8561205843,1.29481860102,34.8323288056)) ;
#207=CARTESIAN_POINT('Control Point',(-66.3359225913,0.779182335346,32.9079480639)) ;
#208=CARTESIAN_POINT('Control Point',(-66.823688042,0.390156864034,30.9516276943)) ;
#209=CARTESIAN_POINT('Control Point',(-67.3167865258,0.13005134893,28.973917697)) ;
#210=CARTESIAN_POINT('Control Point',(-67.8125394179,-1.66533453694E-016,26.9855614496)) ;
#211=CARTESIAN_POINT('Control Point',(-68.3082923376,5.55111512313E-017,24.9972050917)) ;
#212=CARTESIAN_POINT('Vertex',(-68.3082923376,0.,24.9972050917)) ;
#215=CARTESIAN_POINT('Line Origine',(-68.7342706119,0.,23.2886995509)) ;
#235=CARTESIAN_POINT('Axis2P3D Location',(0.,38.,24.9972050917)) ;
#240=CARTESIAN_POINT('Line Origine',(0.,14.,24.9972050917)) ;
#244=CARTESIAN_POINT('Vertex',(-99.3917103719,14.,24.9972050917)) ;
#248=CARTESIAN_POINT('Control Point',(-99.3917103719,14.,24.9972050917)) ;
#249=CARTESIAN_POINT('Control Point',(-98.9647710866,14.,26.2668242128)) ;
#250=CARTESIAN_POINT('Control Point',(-98.5892343403,14.1011544647,27.5539450447)) ;
#251=CARTESIAN_POINT('Control Point',(-98.2691206746,14.3092963317,28.8378508319)) ;
#252=CARTESIAN_POINT('Vertex',(-98.2691206745,14.309296574,28.8378508781)) ;
#256=CARTESIAN_POINT('Control Point',(-97.6779611635,14.8177801691,31.2088621741)) ;
#257=CARTESIAN_POINT('Control Point',(-97.8728374308,14.6083494679,30.4272561567)) ;
#258=CARTESIAN_POINT('Control Point',(-98.0702105787,14.438630138,29.6356356543)) ;
#259=CARTESIAN_POINT('Control Point',(-98.2691206746,14.3092963317,28.8378508319)) ;
#260=CARTESIAN_POINT('Vertex',(-97.6779611635,14.8177801691,31.2088621741)) ;
#263=CARTESIAN_POINT('Line Origine',(0.,14.8177801691,31.2088621741)) ;
#276=CARTESIAN_POINT('Axis2P3D Location',(-146.783906988,12.,40.9339456581)) ;
#281=CARTESIAN_POINT('Line Origine',(-98.2691206745,12.,28.8378508781)) ;
#285=CARTESIAN_POINT('Vertex',(-98.2691206745,0.194584890962,28.8378508781)) ;
#288=CARTESIAN_POINT('Axis2P3D Location',(-146.783906988,14.,40.9339456581)) ;
#292=CARTESIAN_POINT('Vertex',(-106.223973425,14.,11.6954130452)) ;
#295=CARTESIAN_POINT('Line Origine',(-106.223973425,12.,11.6954130452)) ;
#299=CARTESIAN_POINT('Vertex',(-106.223973425,0.,11.6954130452)) ;
#302=CARTESIAN_POINT('Axis2P3D Location',(-146.783906988,-7.5598661553E-008,40.9339456581)) ;
#306=CARTESIAN_POINT('Vertex',(-99.3917137809,0.,24.9972050917)) ;
#310=CARTESIAN_POINT('Control Point',(-98.2691206745,0.194584890962,28.8378508781)) ;
#311=CARTESIAN_POINT('Control Point',(-98.5908360218,0.0635005075714,27.5475210973)) ;
#312=CARTESIAN_POINT('Control Point',(-98.9658086548,3.47078149671E-007,26.2637389307)) ;
#313=CARTESIAN_POINT('Control Point',(-99.3917095879,-7.5598661553E-008,24.9972074234)) ;
#324=CARTESIAN_POINT('Axis2P3D Location',(0.,38.,24.9972050917)) ;
#329=CARTESIAN_POINT('Line Origine',(0.,1.29481860102,34.8323288056)) ;
#333=CARTESIAN_POINT('Vertex',(-96.7745294648,1.29481860102,34.8323288056)) ;
#337=CARTESIAN_POINT('Control Point',(-96.7745294648,1.29481860102,34.8323288056)) ;
#338=CARTESIAN_POINT('Control Point',(-97.2647792857,0.767954221101,32.866044171)) ;
#339=CARTESIAN_POINT('Control Point',(-97.7650131128,0.399985428155,30.8597157834)) ;
#340=CARTESIAN_POINT('Control Point',(-98.2691206745,0.194584511108,28.8378508332)) ;
#342=CARTESIAN_POINT('Line Origine',(0.,0.,24.9972050917)) ;
#355=CARTESIAN_POINT('Axis2P3D Location',(0.,24.,181.913708743)) ;
#360=CARTESIAN_POINT('Line Origine',(-72.4273204681,24.,70.4801680178)) ;
#364=CARTESIAN_POINT('Vertex',(-87.8865249083,24.,70.4801680178)) ;
#367=CARTESIAN_POINT('Line Origine',(-80.8661932829,24.,98.637180248)) ;
#371=CARTESIAN_POINT('Vertex',(-73.8458616575,24.,126.794192478)) ;
#374=CARTESIAN_POINT('Axis2P3D Location',(-35.0340326065,24.,117.117316654)) ;
#378=CARTESIAN_POINT('Vertex',(-43.7925407581,24.,156.146645818)) ;
#381=CARTESIAN_POINT('Axis2P3D Location',(-3.5527136788E-014,24.,-39.)) ;
#385=CARTESIAN_POINT('Vertex',(43.7925407581,24.,156.146645818)) ;
#388=CARTESIAN_POINT('Axis2P3D Location',(35.0340326065,24.,117.117316654)) ;
#392=CARTESIAN_POINT('Vertex',(73.8458616575,24.,126.794192478)) ;
#395=CARTESIAN_POINT('Line Origine',(80.8661932829,24.,98.637180248)) ;
#399=CARTESIAN_POINT('Vertex',(87.8865249083,24.,70.4801680178)) ;
#402=CARTESIAN_POINT('Line Origine',(72.4273204681,24.,70.4801680178)) ;
#406=CARTESIAN_POINT('Vertex',(56.9681160278,24.,70.4801680178)) ;
#409=CARTESIAN_POINT('Line Origine',(52.5602126196,24.,88.1593029649)) ;
#413=CARTESIAN_POINT('Vertex',(48.1523092111,24.,105.838437912)) ;
#416=CARTESIAN_POINT('Axis2P3D Location',(28.7463946856,24.,101.)) ;
#420=CARTESIAN_POINT('Vertex',(28.7463946856,24.,121.)) ;
#423=CARTESIAN_POINT('Line Origine',(0.,24.,121.)) ;
#427=CARTESIAN_POINT('Vertex',(-28.7463946856,24.,121.)) ;
#430=CARTESIAN_POINT('Axis2P3D Location',(-28.7463946856,24.,101.)) ;
#450=CARTESIAN_POINT('Axis2P3D Location',(0.,-14.,70.4801680178)) ;
#455=CARTESIAN_POINT('Line Origine',(0.,22.705181399,60.6450443039)) ;
#459=CARTESIAN_POINT('Vertex',(-90.3386966616,22.705181399,60.6450443039)) ;
#463=CARTESIAN_POINT('Control Point',(-90.3386966616,22.705181399,60.6450443039)) ;
#464=CARTESIAN_POINT('Control Point',(-89.5390266499,23.5645751751,63.85234554)) ;
#465=CARTESIAN_POINT('Control Point',(-88.7127797744,24.,67.1662407547)) ;
#466=CARTESIAN_POINT('Control Point',(-87.8865249083,24.,70.4801680178)) ;
#475=CARTESIAN_POINT('Axis2P3D Location',(28.7463946856,0.,121.)) ;
#480=CARTESIAN_POINT('Line Origine',(-3.5527136788E-015,10.0000000001,121.)) ;
#484=CARTESIAN_POINT('Vertex',(28.7463946856,10.,121.)) ;
#486=CARTESIAN_POINT('Vertex',(-28.7463946856,10.,121.)) ;
#489=CARTESIAN_POINT('Line Origine',(-28.7463946856,17.,121.)) ;
#494=CARTESIAN_POINT('Line Origine',(28.7463946856,17.,121.)) ;
#506=CARTESIAN_POINT('Axis2P3D Location',(28.7463946856,0.,101.)) ;
#511=CARTESIAN_POINT('Line Origine',(48.1523092111,0.,105.838437912)) ;
#515=CARTESIAN_POINT('Vertex',(48.1523092111,10.,105.838437912)) ;
#518=CARTESIAN_POINT('Axis2P3D Location',(28.7463946856,10.,101.)) ;
#530=CARTESIAN_POINT('Axis2P3D Location',(72.2452382436,0.,9.20697751558)) ;
#535=CARTESIAN_POINT('Line Origine',(68.7342706119,0.,23.2886995509)) ;
#539=CARTESIAN_POINT('Vertex',(68.3082923376,0.,24.9972050917)) ;
#541=CARTESIAN_POINT('Vertex',(69.1602488862,0.,21.5801940102)) ;
#545=CARTESIAN_POINT('Control Point',(65.8561205843,1.29481860102,34.8323288056)) ;
#546=CARTESIAN_POINT('Control Point',(66.3359225913,0.779182335352,32.9079480639)) ;
#547=CARTESIAN_POINT('Control Point',(66.823688042,0.390156864043,30.9516276944)) ;
#548=CARTESIAN_POINT('Control Point',(67.3167865258,0.130051348927,28.973917697)) ;
#549=CARTESIAN_POINT('Control Point',(67.8125394179,-5.55111512313E-017,26.9855614496)) ;
#550=CARTESIAN_POINT('Control Point',(68.3082923376,5.55111512313E-017,24.9972050917)) ;
#551=CARTESIAN_POINT('Vertex',(65.8561205842,1.29481860102,34.8323288056)) ;
#554=CARTESIAN_POINT('Line Origine',(62.1864883334,5.23851921598,49.5504198705)) ;
#558=CARTESIAN_POINT('Vertex',(58.5168560825,9.18221983094,64.2685109353)) ;
#562=CARTESIAN_POINT('Control Point',(58.5168560825,9.18221983094,64.2685109353)) ;
#563=CARTESIAN_POINT('Control Point',(58.2138232299,9.5078848474,65.483909323)) ;
#564=CARTESIAN_POINT('Control Point',(57.9057608437,9.75358513898,66.7194800679)) ;
#565=CARTESIAN_POINT('Control Point',(57.5943302272,9.91786230264,67.9685600466)) ;
#566=CARTESIAN_POINT('Control Point',(57.2812231413,10.,69.2243639769)) ;
#567=CARTESIAN_POINT('Control Point',(56.9681160278,10.,70.4801680178)) ;
#568=CARTESIAN_POINT('Vertex',(56.9681160279,10.,70.4801680178)) ;
#571=CARTESIAN_POINT('Line Origine',(52.5602126195,10.,88.1593029649)) ;
#577=CARTESIAN_POINT('Control Point',(59.4202877811,22.705181399,60.6450443039)) ;
#578=CARTESIAN_POINT('Control Point',(58.9404857741,23.2208176646,62.5694250456)) ;
#579=CARTESIAN_POINT('Control Point',(58.4527203235,23.609843136,64.525745415)) ;
#580=CARTESIAN_POINT('Control Point',(57.9596218396,23.8699486511,66.5034554126)) ;
#581=CARTESIAN_POINT('Control Point',(57.4638689475,24.,68.4918116599)) ;
#582=CARTESIAN_POINT('Control Point',(56.9681160278,24.,70.4801680178)) ;
#583=CARTESIAN_POINT('Vertex',(59.420287781,22.705181399,60.6450443039)) ;
#586=CARTESIAN_POINT('Line Origine',(63.089920032,18.761480784,45.926953239)) ;
#590=CARTESIAN_POINT('Vertex',(66.7595522827,14.8177801691,31.2088621741)) ;
#594=CARTESIAN_POINT('Control Point',(66.7595522829,14.8177801691,31.2088621742)) ;
#595=CARTESIAN_POINT('Control Point',(67.0625851355,14.4921151526,29.9934637865)) ;
#596=CARTESIAN_POINT('Control Point',(67.3706475217,14.246414861,28.7578930417)) ;
#597=CARTESIAN_POINT('Control Point',(67.6820781382,14.0821376974,27.5088130628)) ;
#598=CARTESIAN_POINT('Control Point',(67.9951852241,14.,26.2530091325)) ;
#599=CARTESIAN_POINT('Control Point',(68.3082923376,14.,24.9972050917)) ;
#600=CARTESIAN_POINT('Vertex',(68.3082923376,14.,24.9972050917)) ;
#603=CARTESIAN_POINT('Line Origine',(68.7342706119,14.,23.2886995509)) ;
#607=CARTESIAN_POINT('Vertex',(69.1602488862,14.,21.5801940102)) ;
#610=CARTESIAN_POINT('Line Origine',(69.1602488862,7.,21.5801940102)) ;
#630=CARTESIAN_POINT('Axis2P3D Location',(0.,1.29481860102,34.8323288056)) ;
#635=CARTESIAN_POINT('Line Origine',(81.3153250245,1.29481860102,34.8323288056)) ;
#639=CARTESIAN_POINT('Vertex',(96.7745294649,1.29481860102,34.8323288056)) ;
#642=CARTESIAN_POINT('Line Origine',(93.1048972139,5.23851921598,49.5504198705)) ;
#646=CARTESIAN_POINT('Vertex',(89.435264963,9.18221983094,64.2685109353)) ;
#649=CARTESIAN_POINT('Line Origine',(73.9760605227,9.18221983094,64.2685109353)) ;
#661=CARTESIAN_POINT('Axis2P3D Location',(0.,-14.,70.4801680178)) ;
#667=CARTESIAN_POINT('Control Point',(89.435264963,9.18221983094,64.2685109353)) ;
#668=CARTESIAN_POINT('Control Point',(88.9302102085,9.72499485838,66.2941749148)) ;
#669=CARTESIAN_POINT('Control Point',(88.4083700974,10.,68.387161283)) ;
#670=CARTESIAN_POINT('Control Point',(87.8865249083,10.,70.4801680178)) ;
#671=CARTESIAN_POINT('Vertex',(87.8865249084,10.,70.4801680178)) ;
#674=CARTESIAN_POINT('Line Origine',(0.,10.,70.4801680178)) ;
#686=CARTESIAN_POINT('Axis2P3D Location',(0.,22.705181399,60.6450443039)) ;
#691=CARTESIAN_POINT('Line Origine',(74.8794922213,22.705181399,60.6450443039)) ;
#695=CARTESIAN_POINT('Vertex',(90.3386966615,22.705181399,60.6450443039)) ;
#698=CARTESIAN_POINT('Line Origine',(94.0083289125,18.761480784,45.926953239)) ;
#702=CARTESIAN_POINT('Vertex',(97.6779611635,14.8177801691,31.2088621741)) ;
#705=CARTESIAN_POINT('Line Origine',(82.2187567231,14.8177801691,31.2088621741)) ;
#718=CARTESIAN_POINT('Control Point',(97.6779611635,14.8177801691,31.2088621741)) ;
#719=CARTESIAN_POINT('Control Point',(97.8728374308,14.6083494679,30.4272561567)) ;
#720=CARTESIAN_POINT('Control Point',(98.0702105787,14.438630138,29.6356356543)) ;
#721=CARTESIAN_POINT('Control Point',(98.2691206746,14.3092963317,28.8378508319)) ;
#722=CARTESIAN_POINT('Vertex',(98.2691206745,14.309296574,28.8378508781)) ;
#726=CARTESIAN_POINT('Control Point',(99.391710372,14.,24.9972050917)) ;
#727=CARTESIAN_POINT('Control Point',(98.9647710866,14.,26.2668242133)) ;
#728=CARTESIAN_POINT('Control Point',(98.5892343404,14.1011544646,27.5539450443)) ;
#729=CARTESIAN_POINT('Control Point',(98.2691206746,14.3092963317,28.8378508319)) ;
#730=CARTESIAN_POINT('Vertex',(99.391710372,14.,24.9972050917)) ;
#733=CARTESIAN_POINT('Line Origine',(0.,14.,24.9972050917)) ;
#746=CARTESIAN_POINT('Axis2P3D Location',(0.,14.,24.9972050917)) ;
#751=CARTESIAN_POINT('Axis2P3D Location',(146.783906988,14.,40.9339456581)) ;
#755=CARTESIAN_POINT('Vertex',(106.223973425,14.,11.6954130452)) ;
#758=CARTESIAN_POINT('Axis2P3D Location',(90.,14.,0.)) ;
#762=CARTESIAN_POINT('Vertex',(70.1844178778,14.,2.70974263719)) ;
#765=CARTESIAN_POINT('Axis2P3D Location',(20.6454625724,14.,9.48409923018)) ;
#777=CARTESIAN_POINT('Axis2P3D Location',(90.,14.,7.1054273576E-015)) ;
#781=CARTESIAN_POINT('Vertex',(82.101756943,14.,-4.31482984744)) ;
#783=CARTESIAN_POINT('Vertex',(97.898243057,14.,4.31482984744)) ;
#786=CARTESIAN_POINT('Axis2P3D Location',(90.,14.,-7.1054273576E-015)) ;
#796=CARTESIAN_POINT('Axis2P3D Location',(20.6454625724,12.,9.48409923018)) ;
#801=CARTESIAN_POINT('Line Origine',(70.1844178778,12.,2.70974263719)) ;
#805=CARTESIAN_POINT('Vertex',(70.1844178778,0.,2.70974263719)) ;
#808=CARTESIAN_POINT('Axis2P3D Location',(20.6454625724,0.,9.48409923018)) ;
#820=CARTESIAN_POINT('Axis2P3D Location',(146.783906988,12.,40.9339456581)) ;
#825=CARTESIAN_POINT('Line Origine',(106.223973425,12.,11.6954130452)) ;
#829=CARTESIAN_POINT('Vertex',(106.223973425,0.,11.6954130452)) ;
#832=CARTESIAN_POINT('Line Origine',(98.2691206745,12.,28.8378508781)) ;
#836=CARTESIAN_POINT('Vertex',(98.2691206745,0.194584890962,28.8378508781)) ;
#840=CARTESIAN_POINT('Control Point',(98.2691206745,0.194584890962,28.8378508781)) ;
#841=CARTESIAN_POINT('Control Point',(98.5908360218,0.0635005075731,27.5475210973)) ;
#842=CARTESIAN_POINT('Control Point',(98.9658086547,3.47080763426E-007,26.2637389307)) ;
#843=CARTESIAN_POINT('Control Point',(99.3917095879,-7.55924958185E-008,24.9972074235)) ;
#844=CARTESIAN_POINT('Vertex',(99.3917137809,0.,24.9972050917)) ;
#847=CARTESIAN_POINT('Axis2P3D Location',(146.783906988,-7.55924958185E-008,40.9339456581)) ;
#861=CARTESIAN_POINT('Axis2P3D Location',(90.,13.9,0.)) ;
#866=CARTESIAN_POINT('Line Origine',(97.898243057,12.,4.31482984744)) ;
#870=CARTESIAN_POINT('Vertex',(97.898243057,0.,4.31482984744)) ;
#873=CARTESIAN_POINT('Axis2P3D Location',(90.,0.,0.)) ;
#877=CARTESIAN_POINT('Vertex',(82.101756943,0.,-4.31482984744)) ;
#880=CARTESIAN_POINT('Line Origine',(82.101756943,12.,-4.31482984744)) ;
#892=CARTESIAN_POINT('Axis2P3D Location',(90.,0.,0.)) ;
#904=CARTESIAN_POINT('Axis2P3D Location',(90.,0.,0.)) ;
#909=CARTESIAN_POINT('Axis2P3D Location',(90.,0.,0.)) ;
#921=CARTESIAN_POINT('Line Origine',(0.,0.,24.9972050917)) ;
#927=CARTESIAN_POINT('Control Point',(96.7745294649,1.29481860102,34.8323288056)) ;
#928=CARTESIAN_POINT('Control Point',(97.2647792858,0.767954221097,32.866044171)) ;
#929=CARTESIAN_POINT('Control Point',(97.7650131129,0.399985428156,30.8597157834)) ;
#930=CARTESIAN_POINT('Control Point',(98.2691206745,0.194584511109,28.8378508333)) ;
#940=CARTESIAN_POINT('Axis2P3D Location',(0.,0.,-34.0991030834)) ;
#957=CARTESIAN_POINT('Axis2P3D Location',(-35.0340326065,0.,117.117316654)) ;
#962=CARTESIAN_POINT('Axis2P3D Location',(-35.0340326065,10.,117.117316654)) ;
#966=CARTESIAN_POINT('Vertex',(-73.8458616575,10.,126.794192478)) ;
#968=CARTESIAN_POINT('Vertex',(-43.7925407581,10.,156.146645818)) ;
#971=CARTESIAN_POINT('Line Origine',(-43.7925407581,0.,156.146645818)) ;
#976=CARTESIAN_POINT('Line Origine',(-73.8458616575,0.,126.794192478)) ;
#988=CARTESIAN_POINT('Axis2P3D Location',(0.,0.,-39.)) ;
#993=CARTESIAN_POINT('Axis2P3D Location',(0.,10.,-39.)) ;
#997=CARTESIAN_POINT('Vertex',(43.7925407581,10.,156.146645818)) ;
#1000=CARTESIAN_POINT('Line Origine',(43.7925407581,0.,156.146645818)) ;
#1012=CARTESIAN_POINT('Axis2P3D Location',(35.0340326065,0.,117.117316654)) ;
#1017=CARTESIAN_POINT('Axis2P3D Location',(35.0340326065,10.,117.117316654)) ;
#1021=CARTESIAN_POINT('Vertex',(73.8458616575,10.,126.794192478)) ;
#1024=CARTESIAN_POINT('Line Origine',(73.8458616575,0.,126.794192478)) ;
#1036=CARTESIAN_POINT('Axis2P3D Location',(101.354110032,0.,16.4646343836)) ;
#1042=CARTESIAN_POINT('Control Point',(90.3386966616,22.705181399,60.6450443039)) ;
#1043=CARTESIAN_POINT('Control Point',(89.8588946546,23.2208176646,62.5694250456)) ;
#1044=CARTESIAN_POINT('Control Point',(89.3711292039,23.609843136,64.5257454151)) ;
#1045=CARTESIAN_POINT('Control Point',(88.8780307201,23.8699486511,66.5034554126)) ;
#1046=CARTESIAN_POINT('Control Point',(88.382277828,24.,68.4918116599)) ;
#1047=CARTESIAN_POINT('Control Point',(87.8865249083,24.,70.4801680178)) ;
#1049=CARTESIAN_POINT('Line Origine',(80.8661932829,10.,98.637180248)) ;
#1074=CARTESIAN_POINT('Axis2P3D Location',(-101.354110032,0.,16.4646343836)) ;
#1079=CARTESIAN_POINT('Line Origine',(-93.1048972139,5.23851921598,49.5504198705)) ;
#1083=CARTESIAN_POINT('Vertex',(-89.435264963,9.18221983094,64.2685109353)) ;
#1087=CARTESIAN_POINT('Control Point',(-89.435264963,9.18221983094,64.2685109353)) ;
#1088=CARTESIAN_POINT('Control Point',(-89.1322321104,9.5078848474,65.483909323)) ;
#1089=CARTESIAN_POINT('Control Point',(-88.8241697242,9.75358513898,66.7194800679)) ;
#1090=CARTESIAN_POINT('Control Point',(-88.5127391077,9.91786230264,67.9685600466)) ;
#1091=CARTESIAN_POINT('Control Point',(-88.1996320218,10.,69.2243639769)) ;
#1092=CARTESIAN_POINT('Control Point',(-87.8865249083,10.,70.4801680178)) ;
#1093=CARTESIAN_POINT('Vertex',(-87.8865249084,10.,70.4801680178)) ;
#1096=CARTESIAN_POINT('Line Origine',(-80.8661932829,10.,98.637180248)) ;
#1101=CARTESIAN_POINT('Line Origine',(-94.0083289125,18.761480784,45.926953239)) ;
#1126=CARTESIAN_POINT('Axis2P3D Location',(-28.7463946856,0.,101.)) ;
#1131=CARTESIAN_POINT('Axis2P3D Location',(-28.7463946856,10.,101.)) ;
#1143=CARTESIAN_POINT('Axis2P3D Location',(0.,10.,70.4801680178)) ;
#1148=CARTESIAN_POINT('Line Origine',(-72.4273204682,10.,70.4801680178)) ;
#1168=CARTESIAN_POINT('Line Origine',(0.,9.18221983094,64.2685109353)) ;
#1187=CARTESIAN_POINT('Axis2P3D Location',(-90.,0.,0.)) ;
#1192=CARTESIAN_POINT('Axis2P3D Location',(-90.,0.,0.)) ;
#1197=CARTESIAN_POINT('Axis2P3D Location',(-90.,14.,0.)) ;
#8=PRODUCT_RELATED_PRODUCT_CATEGORY('part',$,(#5)) ;
#29=STYLED_ITEM(' ',(#28),#21) ;
#28=PRESENTATION_STYLE_ASSIGNMENT((#27)) ;
#27=SURFACE_STYLE_USAGE(.BOTH.,#26) ;
#26=SURFACE_SIDE_STYLE(' ',(#25)) ;
#25=SURFACE_STYLE_FILL_AREA(#24) ;
#24=FILL_AREA_STYLE(' ',(#23)) ;
#23=FILL_AREA_STYLE_COLOUR(' ',#22) ;
#38=VECTOR('Line Direction',#37,1.) ;
#54=VECTOR('Line Direction',#53,1.) ;
#95=VECTOR('Line Direction',#94,1.) ;
#111=VECTOR('Line Direction',#110,1.) ;
#135=VECTOR('Line Direction',#134,1.) ;
#152=VECTOR('Line Direction',#151,1.) ;
#169=VECTOR('Line Direction',#168,1.) ;
#176=VECTOR('Line Direction',#175,1.) ;
#183=VECTOR('Line Direction',#182,1.) ;
#200=VECTOR('Line Direction',#199,1.) ;
#217=VECTOR('Line Direction',#216,1.) ;
#242=VECTOR('Line Direction',#241,1.) ;
#265=VECTOR('Line Direction',#264,1.) ;
#283=VECTOR('Line Direction',#282,1.) ;
#297=VECTOR('Line Direction',#296,1.) ;
#331=VECTOR('Line Direction',#330,1.) ;
#344=VECTOR('Line Direction',#343,1.) ;
#362=VECTOR('Line Direction',#361,1.) ;
#369=VECTOR('Line Direction',#368,1.) ;
#397=VECTOR('Line Direction',#396,1.) ;
#404=VECTOR('Line Direction',#403,1.) ;
#411=VECTOR('Line Direction',#410,1.) ;
#425=VECTOR('Line Direction',#424,1.) ;
#457=VECTOR('Line Direction',#456,1.) ;
#482=VECTOR('Line Direction',#481,1.) ;
#491=VECTOR('Line Direction',#490,1.) ;
#496=VECTOR('Line Direction',#495,1.) ;
#513=VECTOR('Line Direction',#512,1.) ;
#537=VECTOR('Line Direction',#536,1.) ;
#556=VECTOR('Line Direction',#555,1.) ;
#573=VECTOR('Line Direction',#572,1.) ;
#588=VECTOR('Line Direction',#587,1.) ;
#605=VECTOR('Line Direction',#604,1.) ;
#612=VECTOR('Line Direction',#611,1.) ;
#637=VECTOR('Line Direction',#636,1.) ;
#644=VECTOR('Line Direction',#643,1.) ;
#651=VECTOR('Line Direction',#650,1.) ;
#676=VECTOR('Line Direction',#675,1.) ;
#693=VECTOR('Line Direction',#692,1.) ;
#700=VECTOR('Line Direction',#699,1.) ;
#707=VECTOR('Line Direction',#706,1.) ;
#735=VECTOR('Line Direction',#734,1.) ;
#803=VECTOR('Line Direction',#802,1.) ;
#827=VECTOR('Line Direction',#826,1.) ;
#834=VECTOR('Line Direction',#833,1.) ;
#868=VECTOR('Line Direction',#867,1.) ;
#882=VECTOR('Line Direction',#881,1.) ;
#923=VECTOR('Line Direction',#922,1.) ;
#973=VECTOR('Line Direction',#972,1.) ;
#978=VECTOR('Line Direction',#977,1.) ;
#1002=VECTOR('Line Direction',#1001,1.) ;
#1026=VECTOR('Line Direction',#1025,1.) ;
#1051=VECTOR('Line Direction',#1050,1.) ;
#1081=VECTOR('Line Direction',#1080,1.) ;
#1098=VECTOR('Line Direction',#1097,1.) ;
#1103=VECTOR('Line Direction',#1102,1.) ;
#1150=VECTOR('Line Direction',#1149,1.) ;
#1170=VECTOR('Line Direction',#1169,1.) ;
#32=DIRECTION('Axis2P3D Direction',(0.,-1.,0.)) ;
#33=DIRECTION('Axis2P3D XDirection',(-0.87758256189,-0.,-0.479425538604)) ;
#37=DIRECTION('Vector Direction',(0.,-1.,0.)) ;
#46=DIRECTION('Axis2P3D Direction',(0.,-1.,0.)) ;
#53=DIRECTION('Vector Direction',(0.,-1.,0.)) ;
#60=DIRECTION('Axis2P3D Direction',(0.,-1.,0.)) ;
#72=DIRECTION('Axis2P3D Direction',(0.,-1.,0.)) ;
#77=DIRECTION('Axis2P3D Direction',(0.,-1.,0.)) ;
#89=DIRECTION('Axis2P3D Direction',(0.,-1.,-0.)) ;
#90=DIRECTION('Axis2P3D XDirection',(-0.970295726276,0.,0.2419218956)) ;
#94=DIRECTION('Vector Direction',(0.,-1.,0.)) ;
#103=DIRECTION('Axis2P3D Direction',(0.,-1.,-0.)) ;
#110=DIRECTION('Vector Direction',(0.,-1.,0.)) ;
#117=DIRECTION('Axis2P3D Direction',(0.,-1.,-0.)) ;
#129=DIRECTION('Axis2P3D Direction',(-0.970295726276,0.,0.2419218956)) ;
#130=DIRECTION('Axis2P3D XDirection',(0.2419218956,0.,0.970295726276)) ;
#134=DIRECTION('Vector Direction',(-0.2419218956,0.,-0.970295726276)) ;
#151=DIRECTION('Vector Direction',(-0.234138028142,-0.251624746689,-0.939076339086)) ;
#168=DIRECTION('Vector Direction',(0.2419218956,0.,0.970295726276)) ;
#175=DIRECTION('Vector Direction',(0.,1.,0.)) ;
#182=DIRECTION('Vector Direction',(0.2419218956,0.,0.970295726276)) ;
#199=DIRECTION('Vector Direction',(0.234138028142,0.25162474669,0.939076339086)) ;
#216=DIRECTION('Vector Direction',(-0.2419218956,0.,-0.970295726276)) ;
#236=DIRECTION('Axis2P3D Direction',(1.,0.,0.)) ;
#237=DIRECTION('Axis2P3D XDirection',(0.,-0.965925826289,0.258819045103)) ;
#241=DIRECTION('Vector Direction',(1.,0.,0.)) ;
#264=DIRECTION('Vector Direction',(1.,0.,0.)) ;
#277=DIRECTION('Axis2P3D Direction',(0.,1.,0.)) ;
#278=DIRECTION('Axis2P3D XDirection',(0.970295726276,0.,-0.2419218956)) ;
#282=DIRECTION('Vector Direction',(0.,1.,0.)) ;
#289=DIRECTION('Axis2P3D Direction',(0.,1.,0.)) ;
#296=DIRECTION('Vector Direction',(0.,1.,0.)) ;
#303=DIRECTION('Axis2P3D Direction',(0.,1.,0.)) ;
#325=DIRECTION('Axis2P3D Direction',(1.,0.,0.)) ;
#326=DIRECTION('Axis2P3D XDirection',(0.,-0.965925826289,0.258819045103)) ;
#330=DIRECTION('Vector Direction',(1.,0.,0.)) ;
#343=DIRECTION('Vector Direction',(1.,0.,0.)) ;
#356=DIRECTION('Axis2P3D Direction',(0.,-1.,0.)) ;
#357=DIRECTION('Axis2P3D XDirection',(0.,0.,-1.)) ;
#361=DIRECTION('Vector Direction',(1.,0.,0.)) ;
#368=DIRECTION('Vector Direction',(0.2419218956,0.,0.970295726276)) ;
#375=DIRECTION('Axis2P3D Direction',(0.,-1.,0.)) ;
#382=DIRECTION('Axis2P3D Direction',(0.,-1.,0.)) ;
#389=DIRECTION('Axis2P3D Direction',(0.,-1.,0.)) ;
#396=DIRECTION('Vector Direction',(-0.2419218956,0.,0.970295726276)) ;
#403=DIRECTION('Vector Direction',(1.,0.,0.)) ;
#410=DIRECTION('Vector Direction',(-0.241921895604,0.,0.970295726275)) ;
#417=DIRECTION('Axis2P3D Direction',(0.,-1.,0.)) ;
#424=DIRECTION('Vector Direction',(-1.,0.,0.)) ;
#431=DIRECTION('Axis2P3D Direction',(0.,-1.,0.)) ;
#451=DIRECTION('Axis2P3D Direction',(1.,0.,0.)) ;
#452=DIRECTION('Axis2P3D XDirection',(0.,0.965925826289,-0.258819045103)) ;
#456=DIRECTION('Vector Direction',(1.,0.,0.)) ;
#476=DIRECTION('Axis2P3D Direction',(0.,0.,-1.)) ;
#477=DIRECTION('Axis2P3D XDirection',(-1.,0.,0.)) ;
#481=DIRECTION('Vector Direction',(-1.,-2.02486821565E-012,0.)) ;
#490=DIRECTION('Vector Direction',(0.,1.,0.)) ;
#495=DIRECTION('Vector Direction',(0.,1.,0.)) ;
#507=DIRECTION('Axis2P3D Direction',(0.,1.,-0.)) ;
#508=DIRECTION('Axis2P3D XDirection',(-6.12323399574E-017,0.,1.)) ;
#512=DIRECTION('Vector Direction',(0.,1.,0.)) ;
#519=DIRECTION('Axis2P3D Direction',(0.,1.,-0.)) ;
#531=DIRECTION('Axis2P3D Direction',(-0.970295726276,0.,-0.2419218956)) ;
#532=DIRECTION('Axis2P3D XDirection',(-0.2419218956,0.,0.970295726276)) ;
#536=DIRECTION('Vector Direction',(0.2419218956,0.,-0.970295726276)) ;
#555=DIRECTION('Vector Direction',(-0.234138028142,0.25162474669,0.939076339086)) ;
#572=DIRECTION('Vector Direction',(-0.2419218956,0.,0.970295726276)) ;
#587=DIRECTION('Vector Direction',(0.234138028142,-0.251624746689,-0.939076339086)) ;
#604=DIRECTION('Vector Direction',(0.2419218956,0.,-0.970295726276)) ;
#611=DIRECTION('Vector Direction',(0.,1.,0.)) ;
#631=DIRECTION('Axis2P3D Direction',(0.,0.965925826289,-0.258819045103)) ;
#632=DIRECTION('Axis2P3D XDirection',(0.,0.258819045103,0.965925826289)) ;
#636=DIRECTION('Vector Direction',(1.,0.,0.)) ;
#643=DIRECTION('Vector Direction',(-0.234138028148,0.251624746689,0.939076339085)) ;
#650=DIRECTION('Vector Direction',(1.,0.,0.)) ;
#662=DIRECTION('Axis2P3D Direction',(1.,0.,0.)) ;
#663=DIRECTION('Axis2P3D XDirection',(0.,0.965925826289,-0.258819045103)) ;
#675=DIRECTION('Vector Direction',(1.,0.,0.)) ;
#687=DIRECTION('Axis2P3D Direction',(0.,-0.965925826289,0.258819045103)) ;
#688=DIRECTION('Axis2P3D XDirection',(0.,-0.258819045103,-0.965925826289)) ;
#692=DIRECTION('Vector Direction',(1.,0.,0.)) ;
#699=DIRECTION('Vector Direction',(0.234138028148,-0.251624746689,-0.939076339085)) ;
#706=DIRECTION('Vector Direction',(1.,0.,0.)) ;
#734=DIRECTION('Vector Direction',(1.,0.,0.)) ;
#747=DIRECTION('Axis2P3D Direction',(0.,-1.,0.)) ;
#748=DIRECTION('Axis2P3D XDirection',(0.,0.,-1.)) ;
#752=DIRECTION('Axis2P3D Direction',(0.,-1.,0.)) ;
#759=DIRECTION('Axis2P3D Direction',(0.,-1.,0.)) ;
#766=DIRECTION('Axis2P3D Direction',(0.,-1.,0.)) ;
#778=DIRECTION('Axis2P3D Direction',(0.,-1.,0.)) ;
#787=DIRECTION('Axis2P3D Direction',(0.,-1.,0.)) ;
#797=DIRECTION('Axis2P3D Direction',(-0.,1.,0.)) ;
#798=DIRECTION('Axis2P3D XDirection',(0.970295726276,0.,0.2419218956)) ;
#802=DIRECTION('Vector Direction',(0.,1.,0.)) ;
#809=DIRECTION('Axis2P3D Direction',(-0.,1.,0.)) ;
#821=DIRECTION('Axis2P3D Direction',(0.,-1.,-0.)) ;
#822=DIRECTION('Axis2P3D XDirection',(-0.970295726276,0.,-0.2419218956)) ;
#826=DIRECTION('Vector Direction',(0.,-1.,0.)) ;
#833=DIRECTION('Vector Direction',(0.,-1.,0.)) ;
#848=DIRECTION('Axis2P3D Direction',(0.,-1.,-0.)) ;
#862=DIRECTION('Axis2P3D Direction',(0.,-1.,-0.)) ;
#863=DIRECTION('Axis2P3D XDirection',(0.87758256189,0.,0.479425538604)) ;
#867=DIRECTION('Vector Direction',(0.,-1.,0.)) ;
#874=DIRECTION('Axis2P3D Direction',(0.,-1.,-0.)) ;
#881=DIRECTION('Vector Direction',(0.,-1.,0.)) ;
#893=DIRECTION('Axis2P3D Direction',(0.,-1.,-0.)) ;
#905=DIRECTION('Axis2P3D Direction',(0.,1.,-0.)) ;
#906=DIRECTION('Axis2P3D XDirection',(0.567705501592,0.,0.823231719179)) ;
#910=DIRECTION('Axis2P3D Direction',(0.,1.,-0.)) ;
#922=DIRECTION('Vector Direction',(1.,0.,0.)) ;
#941=DIRECTION('Axis2P3D Direction',(0.,1.,0.)) ;
#942=DIRECTION('Axis2P3D XDirection',(0.,0.,1.)) ;
#958=DIRECTION('Axis2P3D Direction',(0.,1.,-0.)) ;
#959=DIRECTION('Axis2P3D XDirection',(-0.970295726276,0.,0.2419218956)) ;
#963=DIRECTION('Axis2P3D Direction',(0.,1.,-0.)) ;
#972=DIRECTION('Vector Direction',(0.,1.,0.)) ;
#977=DIRECTION('Vector Direction',(0.,1.,0.)) ;
#989=DIRECTION('Axis2P3D Direction',(0.,1.,-0.)) ;
#990=DIRECTION('Axis2P3D XDirection',(-0.218962703791,0.,0.975733229089)) ;
#994=DIRECTION('Axis2P3D Direction',(0.,1.,-0.)) ;
#1001=DIRECTION('Vector Direction',(0.,1.,0.)) ;
#1013=DIRECTION('Axis2P3D Direction',(0.,1.,-0.)) ;
#1014=DIRECTION('Axis2P3D XDirection',(0.218962703791,0.,0.975733229089)) ;
#1018=DIRECTION('Axis2P3D Direction',(0.,1.,-0.)) ;
#1025=DIRECTION('Vector Direction',(0.,1.,0.)) ;
#1037=DIRECTION('Axis2P3D Direction',(-0.970295726276,0.,-0.2419218956)) ;
#1038=DIRECTION('Axis2P3D XDirection',(-0.2419218956,0.,0.970295726276)) ;
#1050=DIRECTION('Vector Direction',(-0.2419218956,0.,0.970295726276)) ;
#1075=DIRECTION('Axis2P3D Direction',(-0.970295726276,0.,0.2419218956)) ;
#1076=DIRECTION('Axis2P3D XDirection',(0.2419218956,0.,0.970295726276)) ;
#1080=DIRECTION('Vector Direction',(0.234138028142,0.251624746689,0.939076339086)) ;
#1097=DIRECTION('Vector Direction',(0.2419218956,0.,0.970295726276)) ;
#1102=DIRECTION('Vector Direction',(-0.234138028142,-0.251624746689,-0.939076339086)) ;
#1127=DIRECTION('Axis2P3D Direction',(0.,1.,-0.)) ;
#1128=DIRECTION('Axis2P3D XDirection',(-0.970295726276,0.,0.2419218956)) ;
#1132=DIRECTION('Axis2P3D Direction',(0.,1.,-0.)) ;
#1144=DIRECTION('Axis2P3D Direction',(0.,1.,0.)) ;
#1145=DIRECTION('Axis2P3D XDirection',(0.,0.,1.)) ;
#1149=DIRECTION('Vector Direction',(1.,0.,0.)) ;
#1169=DIRECTION('Vector Direction',(1.,0.,0.)) ;
#1188=DIRECTION('Axis2P3D Direction',(0.,1.,-0.)) ;
#1189=DIRECTION('Axis2P3D XDirection',(0.887738087822,0.,0.460348875779)) ;
#1193=DIRECTION('Axis2P3D Direction',(0.,1.,-0.)) ;
#1198=DIRECTION('Axis2P3D Direction',(0.,1.,-0.)) ;
#15=UNCERTAINTY_MEASURE_WITH_UNIT(LENGTH_MEASURE(0.005),#12,'distance_accuracy_value','CONFUSED CURVE UNCERTAINTY') ;
#18=AXIS2_PLACEMENT_3D(' ',#17,$,$) ;
#34=AXIS2_PLACEMENT_3D('Cylinder Axis2P3D',#31,#32,#33) ;
#47=AXIS2_PLACEMENT_3D('Circle Axis2P3D',#45,#46,$) ;
#61=AXIS2_PLACEMENT_3D('Circle Axis2P3D',#59,#60,$) ;
#73=AXIS2_PLACEMENT_3D('Circle Axis2P3D',#71,#72,$) ;
#78=AXIS2_PLACEMENT_3D('Circle Axis2P3D',#76,#77,$) ;
#91=AXIS2_PLACEMENT_3D('Cylinder Axis2P3D',#88,#89,#90) ;
#104=AXIS2_PLACEMENT_3D('Circle Axis2P3D',#102,#103,$) ;
#118=AXIS2_PLACEMENT_3D('Circle Axis2P3D',#116,#117,$) ;
#131=AXIS2_PLACEMENT_3D('Plane Axis2P3D',#128,#129,#130) ;
#238=AXIS2_PLACEMENT_3D('Cylinder Axis2P3D',#235,#236,#237) ;
#279=AXIS2_PLACEMENT_3D('Cylinder Axis2P3D',#276,#277,#278) ;
#290=AXIS2_PLACEMENT_3D('Circle Axis2P3D',#288,#289,$) ;
#304=AXIS2_PLACEMENT_3D('Circle Axis2P3D',#302,#303,$) ;
#327=AXIS2_PLACEMENT_3D('Cylinder Axis2P3D',#324,#325,#326) ;
#358=AXIS2_PLACEMENT_3D('Plane Axis2P3D',#355,#356,#357) ;
#376=AXIS2_PLACEMENT_3D('Circle Axis2P3D',#374,#375,$) ;
#383=AXIS2_PLACEMENT_3D('Circle Axis2P3D',#381,#382,$) ;
#390=AXIS2_PLACEMENT_3D('Circle Axis2P3D',#388,#389,$) ;
#418=AXIS2_PLACEMENT_3D('Circle Axis2P3D',#416,#417,$) ;
#432=AXIS2_PLACEMENT_3D('Circle Axis2P3D',#430,#431,$) ;
#453=AXIS2_PLACEMENT_3D('Cylinder Axis2P3D',#450,#451,#452) ;
#478=AXIS2_PLACEMENT_3D('Plane Axis2P3D',#475,#476,#477) ;
#509=AXIS2_PLACEMENT_3D('Cylinder Axis2P3D',#506,#507,#508) ;
#520=AXIS2_PLACEMENT_3D('Circle Axis2P3D',#518,#519,$) ;
#533=AXIS2_PLACEMENT_3D('Plane Axis2P3D',#530,#531,#532) ;
#633=AXIS2_PLACEMENT_3D('Plane Axis2P3D',#630,#631,#632) ;
#664=AXIS2_PLACEMENT_3D('Cylinder Axis2P3D',#661,#662,#663) ;
#689=AXIS2_PLACEMENT_3D('Plane Axis2P3D',#686,#687,#688) ;
#749=AXIS2_PLACEMENT_3D('Plane Axis2P3D',#746,#747,#748) ;
#753=AXIS2_PLACEMENT_3D('Circle Axis2P3D',#751,#752,$) ;
#760=AXIS2_PLACEMENT_3D('Circle Axis2P3D',#758,#759,$) ;
#767=AXIS2_PLACEMENT_3D('Circle Axis2P3D',#765,#766,$) ;
#779=AXIS2_PLACEMENT_3D('Circle Axis2P3D',#777,#778,$) ;
#788=AXIS2_PLACEMENT_3D('Circle Axis2P3D',#786,#787,$) ;
#799=AXIS2_PLACEMENT_3D('Cylinder Axis2P3D',#796,#797,#798) ;
#810=AXIS2_PLACEMENT_3D('Circle Axis2P3D',#808,#809,$) ;
#823=AXIS2_PLACEMENT_3D('Cylinder Axis2P3D',#820,#821,#822) ;
#849=AXIS2_PLACEMENT_3D('Circle Axis2P3D',#847,#848,$) ;
#864=AXIS2_PLACEMENT_3D('Cylinder Axis2P3D',#861,#862,#863) ;
#875=AXIS2_PLACEMENT_3D('Circle Axis2P3D',#873,#874,$) ;
#894=AXIS2_PLACEMENT_3D('Circle Axis2P3D',#892,#893,$) ;
#907=AXIS2_PLACEMENT_3D('Cylinder Axis2P3D',#904,#905,#906) ;
#911=AXIS2_PLACEMENT_3D('Circle Axis2P3D',#909,#910,$) ;
#943=AXIS2_PLACEMENT_3D('Plane Axis2P3D',#940,#941,#942) ;
#960=AXIS2_PLACEMENT_3D('Cylinder Axis2P3D',#957,#958,#959) ;
#964=AXIS2_PLACEMENT_3D('Circle Axis2P3D',#962,#963,$) ;
#991=AXIS2_PLACEMENT_3D('Cylinder Axis2P3D',#988,#989,#990) ;
#995=AXIS2_PLACEMENT_3D('Circle Axis2P3D',#993,#994,$) ;
#1015=AXIS2_PLACEMENT_3D('Cylinder Axis2P3D',#1012,#1013,#1014) ;
#1019=AXIS2_PLACEMENT_3D('Circle Axis2P3D',#1017,#1018,$) ;
#1039=AXIS2_PLACEMENT_3D('Plane Axis2P3D',#1036,#1037,#1038) ;
#1077=AXIS2_PLACEMENT_3D('Plane Axis2P3D',#1074,#1075,#1076) ;
#1129=AXIS2_PLACEMENT_3D('Cylinder Axis2P3D',#1126,#1127,#1128) ;
#1133=AXIS2_PLACEMENT_3D('Circle Axis2P3D',#1131,#1132,$) ;
#1146=AXIS2_PLACEMENT_3D('Plane Axis2P3D',#1143,#1144,#1145) ;
#1190=AXIS2_PLACEMENT_3D('Cylinder Axis2P3D',#1187,#1188,#1189) ;
#1194=AXIS2_PLACEMENT_3D('Circle Axis2P3D',#1192,#1193,$) ;
#1199=AXIS2_PLACEMENT_3D('Circle Axis2P3D',#1197,#1198,$) ;
#39=LINE('Line',#36,#38) ;
#55=LINE('Line',#52,#54) ;
#96=LINE('Line',#93,#95) ;
#112=LINE('Line',#109,#111) ;
#136=LINE('Line',#133,#135) ;
#153=LINE('Line',#150,#152) ;
#170=LINE('Line',#167,#169) ;
#177=LINE('Line',#174,#176) ;
#184=LINE('Line',#181,#183) ;
#201=LINE('Line',#198,#200) ;
#218=LINE('Line',#215,#217) ;
#243=LINE('Line',#240,#242) ;
#266=LINE('Line',#263,#265) ;
#284=LINE('Line',#281,#283) ;
#298=LINE('Line',#295,#297) ;
#332=LINE('Line',#329,#331) ;
#345=LINE('Line',#342,#344) ;
#363=LINE('Line',#360,#362) ;
#370=LINE('Line',#367,#369) ;
#398=LINE('Line',#395,#397) ;
#405=LINE('Line',#402,#404) ;
#412=LINE('Line',#409,#411) ;
#426=LINE('Line',#423,#425) ;
#458=LINE('Line',#455,#457) ;
#483=LINE('Line',#480,#482) ;
#492=LINE('Line',#489,#491) ;
#497=LINE('Line',#494,#496) ;
#514=LINE('Line',#511,#513) ;
#538=LINE('Line',#535,#537) ;
#557=LINE('Line',#554,#556) ;
#574=LINE('Line',#571,#573) ;
#589=LINE('Line',#586,#588) ;
#606=LINE('Line',#603,#605) ;
#613=LINE('Line',#610,#612) ;
#638=LINE('Line',#635,#637) ;
#645=LINE('Line',#642,#644) ;
#652=LINE('Line',#649,#651) ;
#677=LINE('Line',#674,#676) ;
#694=LINE('Line',#691,#693) ;
#701=LINE('Line',#698,#700) ;
#708=LINE('Line',#705,#707) ;
#736=LINE('Line',#733,#735) ;
#804=LINE('Line',#801,#803) ;
#828=LINE('Line',#825,#827) ;
#835=LINE('Line',#832,#834) ;
#869=LINE('Line',#866,#868) ;
#883=LINE('Line',#880,#882) ;
#924=LINE('Line',#921,#923) ;
#974=LINE('Line',#971,#973) ;
#979=LINE('Line',#976,#978) ;
#1003=LINE('Line',#1000,#1002) ;
#1027=LINE('Line',#1024,#1026) ;
#1052=LINE('Line',#1049,#1051) ;
#1082=LINE('Line',#1079,#1081) ;
#1099=LINE('Line',#1096,#1098) ;
#1104=LINE('Line',#1101,#1103) ;
#1151=LINE('Line',#1148,#1150) ;
#1171=LINE('Line',#1168,#1170) ;
#48=CIRCLE('generated circle',#47,9.) ;
#62=CIRCLE('generated circle',#61,9.) ;
#74=CIRCLE('generated circle',#73,9.) ;
#79=CIRCLE('generated circle',#78,9.) ;
#105=CIRCLE('generated circle',#104,50.) ;
#119=CIRCLE('generated circle',#118,50.) ;
#291=CIRCLE('generated circle',#290,50.) ;
#305=CIRCLE('generated circle',#304,50.) ;
#377=CIRCLE('generated circle',#376,40.) ;
#384=CIRCLE('generated circle',#383,200.) ;
#391=CIRCLE('generated circle',#390,40.) ;
#419=CIRCLE('generated circle',#418,20.) ;
#433=CIRCLE('generated circle',#432,20.) ;
#521=CIRCLE('generated circle',#520,20.) ;
#754=CIRCLE('generated circle',#753,50.) ;
#761=CIRCLE('generated circle',#760,20.) ;
#768=CIRCLE('generated circle',#767,50.) ;
#780=CIRCLE('generated circle',#779,9.) ;
#789=CIRCLE('generated circle',#788,9.) ;
#811=CIRCLE('generated circle',#810,50.) ;
#850=CIRCLE('generated circle',#849,50.) ;
#876=CIRCLE('generated circle',#875,9.) ;
#895=CIRCLE('generated circle',#894,9.) ;
#912=CIRCLE('generated circle',#911,20.) ;
#965=CIRCLE('generated circle',#964,40.) ;
#996=CIRCLE('generated circle',#995,200.) ;
#1020=CIRCLE('generated circle',#1019,40.) ;
#1134=CIRCLE('generated circle',#1133,20.) ;
#1195=CIRCLE('generated circle',#1194,20.) ;
#1200=CIRCLE('generated circle',#1199,20.) ;
#132=PLANE('',#131) ;
#359=PLANE('',#358) ;
#479=PLANE('',#478) ;
#534=PLANE('',#533) ;
#634=PLANE('',#633) ;
#690=PLANE('',#689) ;
#750=PLANE('',#749) ;
#944=PLANE('',#943) ;
#1040=PLANE('',#1039) ;
#1078=PLANE('',#1077) ;
#1147=PLANE('',#1146) ;
#35=CYLINDRICAL_SURFACE('generated cylinder',#34,9.) ;
#92=CYLINDRICAL_SURFACE('generated cylinder',#91,50.) ;
#239=CYLINDRICAL_SURFACE('generated cylinder',#238,24.) ;
#280=CYLINDRICAL_SURFACE('generated cylinder',#279,50.) ;
#328=CYLINDRICAL_SURFACE('generated cylinder',#327,38.) ;
#454=CYLINDRICAL_SURFACE('generated cylinder',#453,38.) ;
#510=CYLINDRICAL_SURFACE('generated cylinder',#509,20.) ;
#665=CYLINDRICAL_SURFACE('generated cylinder',#664,24.) ;
#800=CYLINDRICAL_SURFACE('generated cylinder',#799,50.) ;
#824=CYLINDRICAL_SURFACE('generated cylinder',#823,50.) ;
#865=CYLINDRICAL_SURFACE('generated cylinder',#864,9.) ;
#908=CYLINDRICAL_SURFACE('generated cylinder',#907,20.) ;
#961=CYLINDRICAL_SURFACE('generated cylinder',#960,40.) ;
#992=CYLINDRICAL_SURFACE('generated cylinder',#991,200.) ;
#1016=CYLINDRICAL_SURFACE('generated cylinder',#1015,40.) ;
#1130=CYLINDRICAL_SURFACE('generated cylinder',#1129,20.) ;
#1191=CYLINDRICAL_SURFACE('generated cylinder',#1190,20.) ;
#794=FACE_BOUND('',#791,.T.) ;
#955=FACE_BOUND('',#952,.T.) ;
#1219=FACE_BOUND('',#1216,.T.) ;
#1231=FACE_BOUND('',#1228,.T.) ;
#44=EDGE_CURVE('',#41,#43,#39,.F.) ;
#51=EDGE_CURVE('',#50,#41,#48,.F.) ;
#58=EDGE_CURVE('',#50,#57,#55,.F.) ;
#63=EDGE_CURVE('',#43,#57,#62,.T.) ;
#75=EDGE_CURVE('',#41,#50,#74,.F.) ;
#80=EDGE_CURVE('',#57,#43,#79,.T.) ;
#101=EDGE_CURVE('',#98,#100,#96,.T.) ;
#108=EDGE_CURVE('',#107,#98,#105,.T.) ;
#115=EDGE_CURVE('',#107,#114,#112,.T.) ;
#120=EDGE_CURVE('',#100,#114,#119,.F.) ;
#139=EDGE_CURVE('',#138,#107,#136,.T.) ;
#149=EDGE_CURVE('',#148,#138,#140,.T.) ;
#156=EDGE_CURVE('',#155,#148,#153,.T.) ;
#166=EDGE_CURVE('',#155,#165,#157,.T.) ;
#173=EDGE_CURVE('',#165,#172,#170,.T.) ;
#180=EDGE_CURVE('',#179,#172,#177,.T.) ;
#187=EDGE_CURVE('',#186,#179,#184,.T.) ;
#197=EDGE_CURVE('',#196,#186,#188,.T.) ;
#204=EDGE_CURVE('',#203,#196,#201,.T.) ;
#214=EDGE_CURVE('',#203,#213,#205,.T.) ;
#219=EDGE_CURVE('',#213,#114,#218,.T.) ;
#246=EDGE_CURVE('',#245,#138,#243,.T.) ;
#254=EDGE_CURVE('',#245,#253,#247,.T.) ;
#262=EDGE_CURVE('',#261,#253,#255,.T.) ;
#267=EDGE_CURVE('',#261,#148,#266,.T.) ;
#287=EDGE_CURVE('',#253,#286,#284,.F.) ;
#294=EDGE_CURVE('',#293,#245,#291,.F.) ;
#301=EDGE_CURVE('',#293,#300,#298,.F.) ;
#308=EDGE_CURVE('',#307,#300,#305,.T.) ;
#314=EDGE_CURVE('',#286,#307,#309,.T.) ;
#335=EDGE_CURVE('',#334,#203,#332,.T.) ;
#341=EDGE_CURVE('',#334,#286,#336,.T.) ;
#346=EDGE_CURVE('',#307,#213,#345,.T.) ;
#366=EDGE_CURVE('',#365,#165,#363,.T.) ;
#373=EDGE_CURVE('',#365,#372,#370,.T.) ;
#380=EDGE_CURVE('',#379,#372,#377,.T.) ;
#387=EDGE_CURVE('',#386,#379,#384,.T.) ;
#394=EDGE_CURVE('',#393,#386,#391,.T.) ;
#401=EDGE_CURVE('',#400,#393,#398,.T.) ;
#408=EDGE_CURVE('',#407,#400,#405,.T.) ;
#415=EDGE_CURVE('',#407,#414,#412,.T.) ;
#422=EDGE_CURVE('',#414,#421,#419,.T.) ;
#429=EDGE_CURVE('',#421,#428,#426,.T.) ;
#434=EDGE_CURVE('',#428,#172,#433,.T.) ;
#461=EDGE_CURVE('',#460,#155,#458,.T.) ;
#467=EDGE_CURVE('',#460,#365,#462,.T.) ;
#488=EDGE_CURVE('',#485,#487,#483,.T.) ;
#493=EDGE_CURVE('',#487,#428,#492,.T.) ;
#498=EDGE_CURVE('',#485,#421,#497,.T.) ;
#517=EDGE_CURVE('',#516,#414,#514,.T.) ;
#522=EDGE_CURVE('',#485,#516,#521,.T.) ;
#543=EDGE_CURVE('',#540,#542,#538,.T.) ;
#553=EDGE_CURVE('',#552,#540,#544,.T.) ;
#560=EDGE_CURVE('',#552,#559,#557,.T.) ;
#570=EDGE_CURVE('',#559,#569,#561,.T.) ;
#575=EDGE_CURVE('',#569,#516,#574,.T.) ;
#585=EDGE_CURVE('',#584,#407,#576,.T.) ;
#592=EDGE_CURVE('',#584,#591,#589,.T.) ;
#602=EDGE_CURVE('',#591,#601,#593,.T.) ;
#609=EDGE_CURVE('',#601,#608,#606,.T.) ;
#614=EDGE_CURVE('',#608,#542,#613,.F.) ;
#641=EDGE_CURVE('',#552,#640,#638,.T.) ;
#648=EDGE_CURVE('',#640,#647,#645,.T.) ;
#653=EDGE_CURVE('',#559,#647,#652,.T.) ;
#673=EDGE_CURVE('',#647,#672,#666,.T.) ;
#678=EDGE_CURVE('',#569,#672,#677,.T.) ;
#697=EDGE_CURVE('',#584,#696,#694,.T.) ;
#704=EDGE_CURVE('',#696,#703,#701,.T.) ;
#709=EDGE_CURVE('',#591,#703,#708,.T.) ;
#724=EDGE_CURVE('',#703,#723,#717,.T.) ;
#732=EDGE_CURVE('',#723,#731,#725,.F.) ;
#737=EDGE_CURVE('',#601,#731,#736,.T.) ;
#757=EDGE_CURVE('',#731,#756,#754,.T.) ;
#764=EDGE_CURVE('',#763,#756,#761,.T.) ;
#769=EDGE_CURVE('',#763,#608,#768,.T.) ;
#785=EDGE_CURVE('',#782,#784,#780,.T.) ;
#790=EDGE_CURVE('',#784,#782,#789,.T.) ;
#807=EDGE_CURVE('',#763,#806,#804,.F.) ;
#812=EDGE_CURVE('',#542,#806,#811,.T.) ;
#831=EDGE_CURVE('',#756,#830,#828,.T.) ;
#838=EDGE_CURVE('',#723,#837,#835,.T.) ;
#846=EDGE_CURVE('',#845,#837,#839,.F.) ;
#851=EDGE_CURVE('',#830,#845,#850,.F.) ;
#872=EDGE_CURVE('',#871,#784,#869,.F.) ;
#879=EDGE_CURVE('',#878,#871,#876,.F.) ;
#884=EDGE_CURVE('',#878,#782,#883,.F.) ;
#896=EDGE_CURVE('',#871,#878,#895,.F.) ;
#913=EDGE_CURVE('',#830,#806,#912,.T.) ;
#925=EDGE_CURVE('',#540,#845,#924,.T.) ;
#931=EDGE_CURVE('',#640,#837,#926,.T.) ;
#970=EDGE_CURVE('',#967,#969,#965,.T.) ;
#975=EDGE_CURVE('',#969,#379,#974,.T.) ;
#980=EDGE_CURVE('',#967,#372,#979,.T.) ;
#999=EDGE_CURVE('',#969,#998,#996,.T.) ;
#1004=EDGE_CURVE('',#998,#386,#1003,.T.) ;
#1023=EDGE_CURVE('',#998,#1022,#1020,.T.) ;
#1028=EDGE_CURVE('',#1022,#393,#1027,.T.) ;
#1048=EDGE_CURVE('',#696,#400,#1041,.T.) ;
#1053=EDGE_CURVE('',#672,#1022,#1052,.T.) ;
#1085=EDGE_CURVE('',#334,#1084,#1082,.T.) ;
#1095=EDGE_CURVE('',#1084,#1094,#1086,.T.) ;
#1100=EDGE_CURVE('',#1094,#967,#1099,.T.) ;
#1105=EDGE_CURVE('',#460,#261,#1104,.T.) ;
#1135=EDGE_CURVE('',#179,#487,#1134,.T.) ;
#1152=EDGE_CURVE('',#1094,#186,#1151,.T.) ;
#1172=EDGE_CURVE('',#1084,#196,#1171,.T.) ;
#1196=EDGE_CURVE('',#100,#300,#1195,.T.) ;
#1201=EDGE_CURVE('',#293,#98,#1200,.F.) ;
#30=CLOSED_SHELL('Closed Shell',(#70,#87,#127,#234,#275,#323,#354,#449,#474,#505,#529,#629,#660,#685,#716,#745,#795,#819,#860,#891,#903,#920,#939,#956,#987,#1011,#1035,#1066,#1073,#1118,#1125,#1142,#1167,#1179,#1186,#1208,#1220,#1232)) ;
#1234=SHAPE_REPRESENTATION_RELATIONSHIP(' ',' ',#19,#1233) ;
#64=EDGE_LOOP('',(#65,#66,#67,#68)) ;
#81=EDGE_LOOP('',(#82,#83,#84,#85)) ;
#121=EDGE_LOOP('',(#122,#123,#124,#125)) ;
#220=EDGE_LOOP('',(#221,#222,#223,#224,#225,#226,#227,#228,#229,#230,#231,#232)) ;
#268=EDGE_LOOP('',(#269,#270,#271,#272,#273)) ;
#315=EDGE_LOOP('',(#316,#317,#318,#319,#320,#321)) ;
#347=EDGE_LOOP('',(#348,#349,#350,#351,#352)) ;
#435=EDGE_LOOP('',(#436,#437,#438,#439,#440,#441,#442,#443,#444,#445,#446,#447)) ;
#468=EDGE_LOOP('',(#469,#470,#471,#472)) ;
#499=EDGE_LOOP('',(#500,#501,#502,#503)) ;
#523=EDGE_LOOP('',(#524,#525,#526,#527)) ;
#615=EDGE_LOOP('',(#616,#617,#618,#619,#620,#621,#622,#623,#624,#625,#626,#627)) ;
#654=EDGE_LOOP('',(#655,#656,#657,#658)) ;
#679=EDGE_LOOP('',(#680,#681,#682,#683)) ;
#710=EDGE_LOOP('',(#711,#712,#713,#714)) ;
#738=EDGE_LOOP('',(#739,#740,#741,#742,#743)) ;
#770=EDGE_LOOP('',(#771,#772,#773,#774,#775)) ;
#791=EDGE_LOOP('',(#792,#793)) ;
#813=EDGE_LOOP('',(#814,#815,#816,#817)) ;
#852=EDGE_LOOP('',(#853,#854,#855,#856,#857,#858)) ;
#885=EDGE_LOOP('',(#886,#887,#888,#889)) ;
#897=EDGE_LOOP('',(#898,#899,#900,#901)) ;
#914=EDGE_LOOP('',(#915,#916,#917,#918)) ;
#932=EDGE_LOOP('',(#933,#934,#935,#936,#937)) ;
#945=EDGE_LOOP('',(#946,#947,#948,#949,#950)) ;
#952=EDGE_LOOP('',(#953,#954)) ;
#981=EDGE_LOOP('',(#982,#983,#984,#985)) ;
#1005=EDGE_LOOP('',(#1006,#1007,#1008,#1009)) ;
#1029=EDGE_LOOP('',(#1030,#1031,#1032,#1033)) ;
#1054=EDGE_LOOP('',(#1055,#1056,#1057,#1058,#1059,#1060,#1061,#1062,#1063,#1064)) ;
#1067=EDGE_LOOP('',(#1068,#1069,#1070,#1071)) ;
#1106=EDGE_LOOP('',(#1107,#1108,#1109,#1110,#1111,#1112,#1113,#1114,#1115,#1116)) ;
#1119=EDGE_LOOP('',(#1120,#1121,#1122,#1123)) ;
#1136=EDGE_LOOP('',(#1137,#1138,#1139,#1140)) ;
#1153=EDGE_LOOP('',(#1154,#1155,#1156,#1157,#1158,#1159,#1160,#1161,#1162,#1163,#1164,#1165)) ;
#1173=EDGE_LOOP('',(#1174,#1175,#1176,#1177)) ;
#1180=EDGE_LOOP('',(#1181,#1182,#1183,#1184)) ;
#1202=EDGE_LOOP('',(#1203,#1204,#1205,#1206)) ;
#1209=EDGE_LOOP('',(#1210,#1211,#1212,#1213,#1214)) ;
#1216=EDGE_LOOP('',(#1217,#1218)) ;
#1221=EDGE_LOOP('',(#1222,#1223,#1224,#1225,#1226)) ;
#1228=EDGE_LOOP('',(#1229,#1230)) ;
#65=ORIENTED_EDGE('',*,*,#44,.F.) ;
#66=ORIENTED_EDGE('',*,*,#51,.F.) ;
#67=ORIENTED_EDGE('',*,*,#58,.T.) ;
#68=ORIENTED_EDGE('',*,*,#63,.F.) ;
#82=ORIENTED_EDGE('',*,*,#58,.F.) ;
#83=ORIENTED_EDGE('',*,*,#75,.F.) ;
#84=ORIENTED_EDGE('',*,*,#44,.T.) ;
#85=ORIENTED_EDGE('',*,*,#80,.F.) ;
#122=ORIENTED_EDGE('',*,*,#101,.F.) ;
#123=ORIENTED_EDGE('',*,*,#108,.F.) ;
#124=ORIENTED_EDGE('',*,*,#115,.T.) ;
#125=ORIENTED_EDGE('',*,*,#120,.F.) ;
#221=ORIENTED_EDGE('',*,*,#115,.F.) ;
#222=ORIENTED_EDGE('',*,*,#139,.F.) ;
#223=ORIENTED_EDGE('',*,*,#149,.F.) ;
#224=ORIENTED_EDGE('',*,*,#156,.F.) ;
#225=ORIENTED_EDGE('',*,*,#166,.T.) ;
#226=ORIENTED_EDGE('',*,*,#173,.T.) ;
#227=ORIENTED_EDGE('',*,*,#180,.F.) ;
#228=ORIENTED_EDGE('',*,*,#187,.F.) ;
#229=ORIENTED_EDGE('',*,*,#197,.F.) ;
#230=ORIENTED_EDGE('',*,*,#204,.F.) ;
#231=ORIENTED_EDGE('',*,*,#214,.T.) ;
#232=ORIENTED_EDGE('',*,*,#219,.T.) ;
#269=ORIENTED_EDGE('',*,*,#246,.F.) ;
#270=ORIENTED_EDGE('',*,*,#254,.T.) ;
#271=ORIENTED_EDGE('',*,*,#262,.F.) ;
#272=ORIENTED_EDGE('',*,*,#267,.T.) ;
#273=ORIENTED_EDGE('',*,*,#149,.T.) ;
#316=ORIENTED_EDGE('',*,*,#287,.F.) ;
#317=ORIENTED_EDGE('',*,*,#254,.F.) ;
#318=ORIENTED_EDGE('',*,*,#294,.F.) ;
#319=ORIENTED_EDGE('',*,*,#301,.T.) ;
#320=ORIENTED_EDGE('',*,*,#308,.F.) ;
#321=ORIENTED_EDGE('',*,*,#314,.F.) ;
#348=ORIENTED_EDGE('',*,*,#214,.F.) ;
#349=ORIENTED_EDGE('',*,*,#335,.F.) ;
#350=ORIENTED_EDGE('',*,*,#341,.T.) ;
#351=ORIENTED_EDGE('',*,*,#314,.T.) ;
#352=ORIENTED_EDGE('',*,*,#346,.T.) ;
#436=ORIENTED_EDGE('',*,*,#366,.F.) ;
#437=ORIENTED_EDGE('',*,*,#373,.T.) ;
#438=ORIENTED_EDGE('',*,*,#380,.F.) ;
#439=ORIENTED_EDGE('',*,*,#387,.F.) ;
#440=ORIENTED_EDGE('',*,*,#394,.F.) ;
#441=ORIENTED_EDGE('',*,*,#401,.F.) ;
#442=ORIENTED_EDGE('',*,*,#408,.F.) ;
#443=ORIENTED_EDGE('',*,*,#415,.T.) ;
#444=ORIENTED_EDGE('',*,*,#422,.T.) ;
#445=ORIENTED_EDGE('',*,*,#429,.T.) ;
#446=ORIENTED_EDGE('',*,*,#434,.T.) ;
#447=ORIENTED_EDGE('',*,*,#173,.F.) ;
#469=ORIENTED_EDGE('',*,*,#166,.F.) ;
#470=ORIENTED_EDGE('',*,*,#461,.F.) ;
#471=ORIENTED_EDGE('',*,*,#467,.T.) ;
#472=ORIENTED_EDGE('',*,*,#366,.T.) ;
#500=ORIENTED_EDGE('',*,*,#488,.T.) ;
#501=ORIENTED_EDGE('',*,*,#493,.T.) ;
#502=ORIENTED_EDGE('',*,*,#429,.F.) ;
#503=ORIENTED_EDGE('',*,*,#498,.F.) ;
#524=ORIENTED_EDGE('',*,*,#498,.T.) ;
#525=ORIENTED_EDGE('',*,*,#422,.F.) ;
#526=ORIENTED_EDGE('',*,*,#517,.F.) ;
#527=ORIENTED_EDGE('',*,*,#522,.F.) ;
#616=ORIENTED_EDGE('',*,*,#543,.F.) ;
#617=ORIENTED_EDGE('',*,*,#553,.F.) ;
#618=ORIENTED_EDGE('',*,*,#560,.T.) ;
#619=ORIENTED_EDGE('',*,*,#570,.T.) ;
#620=ORIENTED_EDGE('',*,*,#575,.T.) ;
#621=ORIENTED_EDGE('',*,*,#517,.T.) ;
#622=ORIENTED_EDGE('',*,*,#415,.F.) ;
#623=ORIENTED_EDGE('',*,*,#585,.F.) ;
#624=ORIENTED_EDGE('',*,*,#592,.T.) ;
#625=ORIENTED_EDGE('',*,*,#602,.T.) ;
#626=ORIENTED_EDGE('',*,*,#609,.T.) ;
#627=ORIENTED_EDGE('',*,*,#614,.T.) ;
#655=ORIENTED_EDGE('',*,*,#641,.T.) ;
#656=ORIENTED_EDGE('',*,*,#648,.T.) ;
#657=ORIENTED_EDGE('',*,*,#653,.F.) ;
#658=ORIENTED_EDGE('',*,*,#560,.F.) ;
#680=ORIENTED_EDGE('',*,*,#653,.T.) ;
#681=ORIENTED_EDGE('',*,*,#673,.T.) ;
#682=ORIENTED_EDGE('',*,*,#678,.F.) ;
#683=ORIENTED_EDGE('',*,*,#570,.F.) ;
#711=ORIENTED_EDGE('',*,*,#697,.T.) ;
#712=ORIENTED_EDGE('',*,*,#704,.T.) ;
#713=ORIENTED_EDGE('',*,*,#709,.F.) ;
#714=ORIENTED_EDGE('',*,*,#592,.F.) ;
#739=ORIENTED_EDGE('',*,*,#709,.T.) ;
#740=ORIENTED_EDGE('',*,*,#724,.T.) ;
#741=ORIENTED_EDGE('',*,*,#732,.T.) ;
#742=ORIENTED_EDGE('',*,*,#737,.F.) ;
#743=ORIENTED_EDGE('',*,*,#602,.F.) ;
#771=ORIENTED_EDGE('',*,*,#609,.F.) ;
#772=ORIENTED_EDGE('',*,*,#737,.T.) ;
#773=ORIENTED_EDGE('',*,*,#757,.T.) ;
#774=ORIENTED_EDGE('',*,*,#764,.F.) ;
#775=ORIENTED_EDGE('',*,*,#769,.T.) ;
#792=ORIENTED_EDGE('',*,*,#785,.T.) ;
#793=ORIENTED_EDGE('',*,*,#790,.T.) ;
#814=ORIENTED_EDGE('',*,*,#614,.F.) ;
#815=ORIENTED_EDGE('',*,*,#769,.F.) ;
#816=ORIENTED_EDGE('',*,*,#807,.T.) ;
#817=ORIENTED_EDGE('',*,*,#812,.F.) ;
#853=ORIENTED_EDGE('',*,*,#831,.F.) ;
#854=ORIENTED_EDGE('',*,*,#757,.F.) ;
#855=ORIENTED_EDGE('',*,*,#732,.F.) ;
#856=ORIENTED_EDGE('',*,*,#838,.T.) ;
#857=ORIENTED_EDGE('',*,*,#846,.F.) ;
#858=ORIENTED_EDGE('',*,*,#851,.F.) ;
#886=ORIENTED_EDGE('',*,*,#872,.F.) ;
#887=ORIENTED_EDGE('',*,*,#879,.F.) ;
#888=ORIENTED_EDGE('',*,*,#884,.T.) ;
#889=ORIENTED_EDGE('',*,*,#790,.F.) ;
#898=ORIENTED_EDGE('',*,*,#884,.F.) ;
#899=ORIENTED_EDGE('',*,*,#896,.F.) ;
#900=ORIENTED_EDGE('',*,*,#872,.T.) ;
#901=ORIENTED_EDGE('',*,*,#785,.F.) ;
#915=ORIENTED_EDGE('',*,*,#764,.T.) ;
#916=ORIENTED_EDGE('',*,*,#831,.T.) ;
#917=ORIENTED_EDGE('',*,*,#913,.T.) ;
#918=ORIENTED_EDGE('',*,*,#807,.F.) ;
#933=ORIENTED_EDGE('',*,*,#553,.T.) ;
#934=ORIENTED_EDGE('',*,*,#925,.T.) ;
#935=ORIENTED_EDGE('',*,*,#846,.T.) ;
#936=ORIENTED_EDGE('',*,*,#931,.F.) ;
#937=ORIENTED_EDGE('',*,*,#641,.F.) ;
#946=ORIENTED_EDGE('',*,*,#913,.F.) ;
#947=ORIENTED_EDGE('',*,*,#851,.T.) ;
#948=ORIENTED_EDGE('',*,*,#925,.F.) ;
#949=ORIENTED_EDGE('',*,*,#543,.T.) ;
#950=ORIENTED_EDGE('',*,*,#812,.T.) ;
#953=ORIENTED_EDGE('',*,*,#896,.T.) ;
#954=ORIENTED_EDGE('',*,*,#879,.T.) ;
#982=ORIENTED_EDGE('',*,*,#970,.T.) ;
#983=ORIENTED_EDGE('',*,*,#975,.T.) ;
#984=ORIENTED_EDGE('',*,*,#380,.T.) ;
#985=ORIENTED_EDGE('',*,*,#980,.F.) ;
#1006=ORIENTED_EDGE('',*,*,#999,.T.) ;
#1007=ORIENTED_EDGE('',*,*,#1004,.T.) ;
#1008=ORIENTED_EDGE('',*,*,#387,.T.) ;
#1009=ORIENTED_EDGE('',*,*,#975,.F.) ;
#1030=ORIENTED_EDGE('',*,*,#1023,.T.) ;
#1031=ORIENTED_EDGE('',*,*,#1028,.T.) ;
#1032=ORIENTED_EDGE('',*,*,#394,.T.) ;
#1033=ORIENTED_EDGE('',*,*,#1004,.F.) ;
#1055=ORIENTED_EDGE('',*,*,#838,.F.) ;
#1056=ORIENTED_EDGE('',*,*,#724,.F.) ;
#1057=ORIENTED_EDGE('',*,*,#704,.F.) ;
#1058=ORIENTED_EDGE('',*,*,#1048,.T.) ;
#1059=ORIENTED_EDGE('',*,*,#401,.T.) ;
#1060=ORIENTED_EDGE('',*,*,#1028,.F.) ;
#1061=ORIENTED_EDGE('',*,*,#1053,.F.) ;
#1062=ORIENTED_EDGE('',*,*,#673,.F.) ;
#1063=ORIENTED_EDGE('',*,*,#648,.F.) ;
#1064=ORIENTED_EDGE('',*,*,#931,.T.) ;
#1068=ORIENTED_EDGE('',*,*,#585,.T.) ;
#1069=ORIENTED_EDGE('',*,*,#408,.T.) ;
#1070=ORIENTED_EDGE('',*,*,#1048,.F.) ;
#1071=ORIENTED_EDGE('',*,*,#697,.F.) ;
#1107=ORIENTED_EDGE('',*,*,#341,.F.) ;
#1108=ORIENTED_EDGE('',*,*,#1085,.T.) ;
#1109=ORIENTED_EDGE('',*,*,#1095,.T.) ;
#1110=ORIENTED_EDGE('',*,*,#1100,.T.) ;
#1111=ORIENTED_EDGE('',*,*,#980,.T.) ;
#1112=ORIENTED_EDGE('',*,*,#373,.F.) ;
#1113=ORIENTED_EDGE('',*,*,#467,.F.) ;
#1114=ORIENTED_EDGE('',*,*,#1105,.T.) ;
#1115=ORIENTED_EDGE('',*,*,#262,.T.) ;
#1116=ORIENTED_EDGE('',*,*,#287,.T.) ;
#1120=ORIENTED_EDGE('',*,*,#267,.F.) ;
#1121=ORIENTED_EDGE('',*,*,#1105,.F.) ;
#1122=ORIENTED_EDGE('',*,*,#461,.T.) ;
#1123=ORIENTED_EDGE('',*,*,#156,.T.) ;
#1137=ORIENTED_EDGE('',*,*,#180,.T.) ;
#1138=ORIENTED_EDGE('',*,*,#434,.F.) ;
#1139=ORIENTED_EDGE('',*,*,#493,.F.) ;
#1140=ORIENTED_EDGE('',*,*,#1135,.F.) ;
#1154=ORIENTED_EDGE('',*,*,#678,.T.) ;
#1155=ORIENTED_EDGE('',*,*,#1053,.T.) ;
#1156=ORIENTED_EDGE('',*,*,#1023,.F.) ;
#1157=ORIENTED_EDGE('',*,*,#999,.F.) ;
#1158=ORIENTED_EDGE('',*,*,#970,.F.) ;
#1159=ORIENTED_EDGE('',*,*,#1100,.F.) ;
#1160=ORIENTED_EDGE('',*,*,#1152,.T.) ;
#1161=ORIENTED_EDGE('',*,*,#187,.T.) ;
#1162=ORIENTED_EDGE('',*,*,#1135,.T.) ;
#1163=ORIENTED_EDGE('',*,*,#488,.F.) ;
#1164=ORIENTED_EDGE('',*,*,#522,.T.) ;
#1165=ORIENTED_EDGE('',*,*,#575,.F.) ;
#1174=ORIENTED_EDGE('',*,*,#1152,.F.) ;
#1175=ORIENTED_EDGE('',*,*,#1095,.F.) ;
#1176=ORIENTED_EDGE('',*,*,#1172,.T.) ;
#1177=ORIENTED_EDGE('',*,*,#197,.T.) ;
#1181=ORIENTED_EDGE('',*,*,#1172,.F.) ;
#1182=ORIENTED_EDGE('',*,*,#1085,.F.) ;
#1183=ORIENTED_EDGE('',*,*,#335,.T.) ;
#1184=ORIENTED_EDGE('',*,*,#204,.T.) ;
#1203=ORIENTED_EDGE('',*,*,#1196,.T.) ;
#1204=ORIENTED_EDGE('',*,*,#301,.F.) ;
#1205=ORIENTED_EDGE('',*,*,#1201,.T.) ;
#1206=ORIENTED_EDGE('',*,*,#101,.T.) ;
#1210=ORIENTED_EDGE('',*,*,#219,.F.) ;
#1211=ORIENTED_EDGE('',*,*,#346,.F.) ;
#1212=ORIENTED_EDGE('',*,*,#308,.T.) ;
#1213=ORIENTED_EDGE('',*,*,#1196,.F.) ;
#1214=ORIENTED_EDGE('',*,*,#120,.T.) ;
#1217=ORIENTED_EDGE('',*,*,#51,.T.) ;
#1218=ORIENTED_EDGE('',*,*,#75,.T.) ;
#1222=ORIENTED_EDGE('',*,*,#1201,.F.) ;
#1223=ORIENTED_EDGE('',*,*,#294,.T.) ;
#1224=ORIENTED_EDGE('',*,*,#246,.T.) ;
#1225=ORIENTED_EDGE('',*,*,#139,.T.) ;
#1226=ORIENTED_EDGE('',*,*,#108,.T.) ;
#1229=ORIENTED_EDGE('',*,*,#63,.T.) ;
#1230=ORIENTED_EDGE('',*,*,#80,.T.) ;
#21=MANIFOLD_SOLID_BREP('PartBody',#30) ;
#41=VERTEX_POINT('',#40) ;
#43=VERTEX_POINT('',#42) ;
#50=VERTEX_POINT('',#49) ;
#57=VERTEX_POINT('',#56) ;
#98=VERTEX_POINT('',#97) ;
#100=VERTEX_POINT('',#99) ;
#107=VERTEX_POINT('',#106) ;
#114=VERTEX_POINT('',#113) ;
#138=VERTEX_POINT('',#137) ;
#148=VERTEX_POINT('',#147) ;
#155=VERTEX_POINT('',#154) ;
#165=VERTEX_POINT('',#164) ;
#172=VERTEX_POINT('',#171) ;
#179=VERTEX_POINT('',#178) ;
#186=VERTEX_POINT('',#185) ;
#196=VERTEX_POINT('',#195) ;
#203=VERTEX_POINT('',#202) ;
#213=VERTEX_POINT('',#212) ;
#245=VERTEX_POINT('',#244) ;
#253=VERTEX_POINT('',#252) ;
#261=VERTEX_POINT('',#260) ;
#286=VERTEX_POINT('',#285) ;
#293=VERTEX_POINT('',#292) ;
#300=VERTEX_POINT('',#299) ;
#307=VERTEX_POINT('',#306) ;
#334=VERTEX_POINT('',#333) ;
#365=VERTEX_POINT('',#364) ;
#372=VERTEX_POINT('',#371) ;
#379=VERTEX_POINT('',#378) ;
#386=VERTEX_POINT('',#385) ;
#393=VERTEX_POINT('',#392) ;
#400=VERTEX_POINT('',#399) ;
#407=VERTEX_POINT('',#406) ;
#414=VERTEX_POINT('',#413) ;
#421=VERTEX_POINT('',#420) ;
#428=VERTEX_POINT('',#427) ;
#460=VERTEX_POINT('',#459) ;
#485=VERTEX_POINT('',#484) ;
#487=VERTEX_POINT('',#486) ;
#516=VERTEX_POINT('',#515) ;
#540=VERTEX_POINT('',#539) ;
#542=VERTEX_POINT('',#541) ;
#552=VERTEX_POINT('',#551) ;
#559=VERTEX_POINT('',#558) ;
#569=VERTEX_POINT('',#568) ;
#584=VERTEX_POINT('',#583) ;
#591=VERTEX_POINT('',#590) ;
#601=VERTEX_POINT('',#600) ;
#608=VERTEX_POINT('',#607) ;
#640=VERTEX_POINT('',#639) ;
#647=VERTEX_POINT('',#646) ;
#672=VERTEX_POINT('',#671) ;
#696=VERTEX_POINT('',#695) ;
#703=VERTEX_POINT('',#702) ;
#723=VERTEX_POINT('',#722) ;
#731=VERTEX_POINT('',#730) ;
#756=VERTEX_POINT('',#755) ;
#763=VERTEX_POINT('',#762) ;
#782=VERTEX_POINT('',#781) ;
#784=VERTEX_POINT('',#783) ;
#806=VERTEX_POINT('',#805) ;
#830=VERTEX_POINT('',#829) ;
#837=VERTEX_POINT('',#836) ;
#845=VERTEX_POINT('',#844) ;
#871=VERTEX_POINT('',#870) ;
#878=VERTEX_POINT('',#877) ;
#967=VERTEX_POINT('',#966) ;
#969=VERTEX_POINT('',#968) ;
#998=VERTEX_POINT('',#997) ;
#1022=VERTEX_POINT('',#1021) ;
#1084=VERTEX_POINT('',#1083) ;
#1094=VERTEX_POINT('',#1093) ;
#1233=ADVANCED_BREP_SHAPE_REPRESENTATION('NONE',(#21),#16) ;
#70=ADVANCED_FACE('PartBody',(#69),#35,.F.) ;
#87=ADVANCED_FACE('PartBody',(#86),#35,.F.) ;
#127=ADVANCED_FACE('PartBody',(#126),#92,.F.) ;
#234=ADVANCED_FACE('PartBody',(#233),#132,.F.) ;
#275=ADVANCED_FACE('PartBody',(#274),#239,.F.) ;
#323=ADVANCED_FACE('PartBody',(#322),#280,.F.) ;
#354=ADVANCED_FACE('PartBody',(#353),#328,.T.) ;
#449=ADVANCED_FACE('PartBody',(#448),#359,.F.) ;
#474=ADVANCED_FACE('PartBody',(#473),#454,.T.) ;
#505=ADVANCED_FACE('PartBody',(#504),#479,.T.) ;
#529=ADVANCED_FACE('PartBody',(#528),#510,.F.) ;
#629=ADVANCED_FACE('PartBody',(#628),#534,.T.) ;
#660=ADVANCED_FACE('PartBody',(#659),#634,.F.) ;
#685=ADVANCED_FACE('PartBody',(#684),#665,.F.) ;
#716=ADVANCED_FACE('PartBody',(#715),#690,.F.) ;
#745=ADVANCED_FACE('PartBody',(#744),#239,.F.) ;
#795=ADVANCED_FACE('PartBody',(#776,#794),#750,.F.) ;
#819=ADVANCED_FACE('PartBody',(#818),#800,.F.) ;
#860=ADVANCED_FACE('PartBody',(#859),#824,.F.) ;
#891=ADVANCED_FACE('PartBody',(#890),#865,.F.) ;
#903=ADVANCED_FACE('PartBody',(#902),#865,.F.) ;
#920=ADVANCED_FACE('PartBody',(#919),#908,.T.) ;
#939=ADVANCED_FACE('PartBody',(#938),#328,.T.) ;
#956=ADVANCED_FACE('PartBody',(#951,#955),#944,.F.) ;
#987=ADVANCED_FACE('PartBody',(#986),#961,.T.) ;
#1011=ADVANCED_FACE('PartBody',(#1010),#992,.T.) ;
#1035=ADVANCED_FACE('PartBody',(#1034),#1016,.T.) ;
#1066=ADVANCED_FACE('PartBody',(#1065),#1040,.F.) ;
#1073=ADVANCED_FACE('PartBody',(#1072),#454,.T.) ;
#1118=ADVANCED_FACE('PartBody',(#1117),#1078,.T.) ;
#1125=ADVANCED_FACE('PartBody',(#1124),#690,.F.) ;
#1142=ADVANCED_FACE('PartBody',(#1141),#1130,.F.) ;
#1167=ADVANCED_FACE('PartBody',(#1166),#1147,.F.) ;
#1179=ADVANCED_FACE('PartBody',(#1178),#665,.F.) ;
#1186=ADVANCED_FACE('PartBody',(#1185),#634,.F.) ;
#1208=ADVANCED_FACE('PartBody',(#1207),#1191,.T.) ;
#1220=ADVANCED_FACE('PartBody',(#1215,#1219),#944,.F.) ;
#1232=ADVANCED_FACE('PartBody',(#1227,#1231),#750,.F.) ;
#4=APPLICATION_PROTOCOL_DEFINITION('international standard','ap242_managed_model_based_3d_engineering',2014,#1) ;
#140=B_SPLINE_CURVE_WITH_KNOTS('',5,(#141,#142,#143,#144,#145,#146),.UNSPECIFIED.,.F.,.U.,(6,6),(0.,9.15172074947),.UNSPECIFIED.) ;
#157=B_SPLINE_CURVE_WITH_KNOTS('',5,(#158,#159,#160,#161,#162,#163),.UNSPECIFIED.,.F.,.U.,(6,6),(0.,14.4902242274),.UNSPECIFIED.) ;
#188=B_SPLINE_CURVE_WITH_KNOTS('',5,(#189,#190,#191,#192,#193,#194),.UNSPECIFIED.,.F.,.U.,(6,6),(0.,9.15172074943),.UNSPECIFIED.) ;
#205=B_SPLINE_CURVE_WITH_KNOTS('',5,(#206,#207,#208,#209,#210,#211),.UNSPECIFIED.,.F.,.U.,(6,6),(0.,14.4902242279),.UNSPECIFIED.) ;
#247=B_SPLINE_CURVE_WITH_KNOTS('',3,(#248,#249,#250,#251),.UNSPECIFIED.,.F.,.U.,(4,4),(0.,5.68293740861),.UNSPECIFIED.) ;
#255=B_SPLINE_CURVE_WITH_KNOTS('',3,(#256,#257,#258,#259),.UNSPECIFIED.,.F.,.U.,(4,4),(0.,3.53120758437),.UNSPECIFIED.) ;
#309=B_SPLINE_CURVE_WITH_KNOTS('',3,(#310,#311,#312,#313),.UNSPECIFIED.,.F.,.U.,(4,4),(0.,5.6693409517),.UNSPECIFIED.) ;
#336=B_SPLINE_CURVE_WITH_KNOTS('',3,(#337,#338,#339,#340),.UNSPECIFIED.,.F.,.U.,(4,4),(0.,8.88345158507),.UNSPECIFIED.) ;
#462=B_SPLINE_CURVE_WITH_KNOTS('',3,(#463,#464,#465,#466),.UNSPECIFIED.,.F.,.U.,(4,4),(0.,14.4902242274),.UNSPECIFIED.) ;
#544=B_SPLINE_CURVE_WITH_KNOTS('',5,(#545,#546,#547,#548,#549,#550),.UNSPECIFIED.,.F.,.U.,(6,6),(0.,14.4902242277),.UNSPECIFIED.) ;
#561=B_SPLINE_CURVE_WITH_KNOTS('',5,(#562,#563,#564,#565,#566,#567),.UNSPECIFIED.,.F.,.U.,(6,6),(0.,9.15172074959),.UNSPECIFIED.) ;
#576=B_SPLINE_CURVE_WITH_KNOTS('',5,(#577,#578,#579,#580,#581,#582),.UNSPECIFIED.,.F.,.U.,(6,6),(0.,14.4902242274),.UNSPECIFIED.) ;
#593=B_SPLINE_CURVE_WITH_KNOTS('',5,(#594,#595,#596,#597,#598,#599),.UNSPECIFIED.,.F.,.U.,(6,6),(0.,9.15172074938),.UNSPECIFIED.) ;
#666=B_SPLINE_CURVE_WITH_KNOTS('',3,(#667,#668,#669,#670),.UNSPECIFIED.,.F.,.U.,(4,4),(0.,9.15172074957),.UNSPECIFIED.) ;
#717=B_SPLINE_CURVE_WITH_KNOTS('',3,(#718,#719,#720,#721),.UNSPECIFIED.,.F.,.U.,(4,4),(0.,3.53120758436),.UNSPECIFIED.) ;
#725=B_SPLINE_CURVE_WITH_KNOTS('',3,(#726,#727,#728,#729),.UNSPECIFIED.,.F.,.U.,(4,4),(0.,5.68293741073),.UNSPECIFIED.) ;
#839=B_SPLINE_CURVE_WITH_KNOTS('',3,(#840,#841,#842,#843),.UNSPECIFIED.,.F.,.U.,(4,4),(0.,5.66934095158),.UNSPECIFIED.) ;
#926=B_SPLINE_CURVE_WITH_KNOTS('',3,(#927,#928,#929,#930),.UNSPECIFIED.,.F.,.U.,(4,4),(0.,8.88345158513),.UNSPECIFIED.) ;
#1041=B_SPLINE_CURVE_WITH_KNOTS('',5,(#1042,#1043,#1044,#1045,#1046,#1047),.UNSPECIFIED.,.F.,.U.,(6,6),(0.,14.4902242275),.UNSPECIFIED.) ;
#1086=B_SPLINE_CURVE_WITH_KNOTS('',5,(#1087,#1088,#1089,#1090,#1091,#1092),.UNSPECIFIED.,.F.,.U.,(6,6),(0.,9.15172074957),.UNSPECIFIED.) ;
#22=COLOUR_RGB('Colour',0.756862745098,0.76862745098,0.752941176471) ;
#69=FACE_OUTER_BOUND('',#64,.T.) ;
#86=FACE_OUTER_BOUND('',#81,.T.) ;
#126=FACE_OUTER_BOUND('',#121,.T.) ;
#233=FACE_OUTER_BOUND('',#220,.T.) ;
#274=FACE_OUTER_BOUND('',#268,.T.) ;
#322=FACE_OUTER_BOUND('',#315,.T.) ;
#353=FACE_OUTER_BOUND('',#347,.T.) ;
#448=FACE_OUTER_BOUND('',#435,.T.) ;
#473=FACE_OUTER_BOUND('',#468,.T.) ;
#504=FACE_OUTER_BOUND('',#499,.T.) ;
#528=FACE_OUTER_BOUND('',#523,.T.) ;
#628=FACE_OUTER_BOUND('',#615,.T.) ;
#659=FACE_OUTER_BOUND('',#654,.T.) ;
#684=FACE_OUTER_BOUND('',#679,.T.) ;
#715=FACE_OUTER_BOUND('',#710,.T.) ;
#744=FACE_OUTER_BOUND('',#738,.T.) ;
#776=FACE_OUTER_BOUND('',#770,.T.) ;
#818=FACE_OUTER_BOUND('',#813,.T.) ;
#859=FACE_OUTER_BOUND('',#852,.T.) ;
#890=FACE_OUTER_BOUND('',#885,.T.) ;
#902=FACE_OUTER_BOUND('',#897,.T.) ;
#919=FACE_OUTER_BOUND('',#914,.T.) ;
#938=FACE_OUTER_BOUND('',#932,.T.) ;
#951=FACE_OUTER_BOUND('',#945,.T.) ;
#986=FACE_OUTER_BOUND('',#981,.T.) ;
#1010=FACE_OUTER_BOUND('',#1005,.T.) ;
#1034=FACE_OUTER_BOUND('',#1029,.T.) ;
#1065=FACE_OUTER_BOUND('',#1054,.T.) ;
#1072=FACE_OUTER_BOUND('',#1067,.T.) ;
#1117=FACE_OUTER_BOUND('',#1106,.T.) ;
#1124=FACE_OUTER_BOUND('',#1119,.T.) ;
#1141=FACE_OUTER_BOUND('',#1136,.T.) ;
#1166=FACE_OUTER_BOUND('',#1153,.T.) ;
#1178=FACE_OUTER_BOUND('',#1173,.T.) ;
#1185=FACE_OUTER_BOUND('',#1180,.T.) ;
#1207=FACE_OUTER_BOUND('',#1202,.T.) ;
#1215=FACE_OUTER_BOUND('',#1209,.T.) ;
#1227=FACE_OUTER_BOUND('',#1221,.T.) ;
#9=PRODUCT_CATEGORY_RELATIONSHIP(' ',' ',#7,#8) ;
#6=PRODUCT_DEFINITION_FORMATION_WITH_SPECIFIED_SOURCE('--B',' ',#5,.NOT_KNOWN.) ;
#20=SHAPE_DEFINITION_REPRESENTATION(#11,#19) ;
#12=(LENGTH_UNIT()NAMED_UNIT(*)SI_UNIT(.MILLI.,.METRE.)) ;
#13=(NAMED_UNIT(*)PLANE_ANGLE_UNIT()SI_UNIT($,.RADIAN.)) ;
#14=(NAMED_UNIT(*)SI_UNIT($,.STERADIAN.)SOLID_ANGLE_UNIT()) ;
#16=(GEOMETRIC_REPRESENTATION_CONTEXT(3)GLOBAL_UNCERTAINTY_ASSIGNED_CONTEXT((#15))GLOBAL_UNIT_ASSIGNED_CONTEXT((#12,#13,#14))REPRESENTATION_CONTEXT(' ',' ')) ;
ENDSEC;
END-ISO-10303-21;
