ISO-10303-21;
HEADER;
FILE_DESCRIPTION(('CATIA V5 STEP Exchange','CAx-IF Rec.Pracs.--- Model Styling and Organization---1.4--- 2014-01-23','CAx-IF Rec.Pracs.---Representation and Presentation of Product Manufacturing Information (PMI)---4.0---2014-10-13','CAx-IF Rec.Pracs.---3D Tessellated Data Validation Properties---0.5---2014-09-14'),'2;1');

FILE_NAME('C:\\Users\\gastier\\Downloads\\M3D-143982-BOSSAGE EP 20 3 TROUS M10.stp','2023-10-17T11:51:08+00:00',('none'),('none'),'CATIA Version 5-6 Release 2016 SP5 HF64','CATIA V5 STEP AP242','none');

FILE_SCHEMA(('AP242_MANAGED_MODEL_BASED_3D_ENGINEERING_MIM_LF  {1 0 10303 442 1 1 4}'));

ENDSEC;
DATA;
#5=PRODUCT('M3D-143982','','(VIDE)',(#2)) ;
#2=PRODUCT_CONTEXT(' ',#1,'mechanical') ;
#1=APPLICATION_CONTEXT('managed model based 3d engineering') ;
#10=PRODUCT_DEFINITION('MASTER',' ',#6,#3) ;
#3=PRODUCT_DEFINITION_CONTEXT('part definition',#1,' ') ;
#11=PRODUCT_DEFINITION_SHAPE(' ',' ',#10) ;
#1180=MECHANICAL_DESIGN_GEOMETRIC_PRESENTATION_REPRESENTATION(' ',(#905,#29),#16) ;
#19=SHAPE_REPRESENTATION(' ',(#18),#16) ;
#7=PRODUCT_CATEGORY('part','specification') ;
#17=CARTESIAN_POINT(' ',(0.,0.,0.)) ;
#31=CARTESIAN_POINT('Axis2P3D Location',(-0.1,-30.5,0.)) ;
#36=CARTESIAN_POINT('Line Origine',(-10.0000000008,-34.1753157692,2.00783415567)) ;
#40=CARTESIAN_POINT('Vertex',(-20.,-34.1753157692,2.00783415567)) ;
#42=CARTESIAN_POINT('Vertex',(-3.60822483003E-016,-34.1753157692,2.00783415567)) ;
#45=CARTESIAN_POINT('Axis2P3D Location',(-20.,-30.5,0.)) ;
#49=CARTESIAN_POINT('Vertex',(-20.,-26.8246842308,-2.00783415567)) ;
#52=CARTESIAN_POINT('Line Origine',(-10.0000000008,-26.8246842308,-2.00783415567)) ;
#56=CARTESIAN_POINT('Vertex',(-3.60822483003E-016,-26.8246842308,-2.00783415567)) ;
#59=CARTESIAN_POINT('Axis2P3D Location',(0.,-30.5,0.)) ;
#71=CARTESIAN_POINT('Axis2P3D Location',(-20.,-30.5,0.)) ;
#76=CARTESIAN_POINT('Axis2P3D Location',(0.,-30.5,0.)) ;
#88=CARTESIAN_POINT('Axis2P3D Location',(0.,-42.5,35.)) ;
#93=CARTESIAN_POINT('Line Origine',(-20.,-21.4055066628,40.6522524544)) ;
#97=CARTESIAN_POINT('Vertex',(-20.,-7.72282287461,44.3185165258)) ;
#99=CARTESIAN_POINT('Vertex',(-20.,-35.088190451,36.9859883831)) ;
#102=CARTESIAN_POINT('Line Origine',(-10.,-35.088190451,36.9859883831)) ;
#106=CARTESIAN_POINT('Vertex',(0.,-35.088190451,36.9859883831)) ;
#109=CARTESIAN_POINT('Line Origine',(0.,-21.4055066628,40.6522524544)) ;
#113=CARTESIAN_POINT('Vertex',(0.,-7.72282287461,44.3185165258)) ;
#116=CARTESIAN_POINT('Line Origine',(-10.,-7.72282287461,44.3185165258)) ;
#128=CARTESIAN_POINT('Axis2P3D Location',(0.,-42.5,-35.)) ;
#133=CARTESIAN_POINT('Line Origine',(0.,-42.5,3.5527136788E-015)) ;
#137=CARTESIAN_POINT('Vertex',(0.,-42.5,27.3267301202)) ;
#139=CARTESIAN_POINT('Vertex',(0.,-42.5,-27.3267301202)) ;
#142=CARTESIAN_POINT('Line Origine',(-10.,-42.5,27.3267301202)) ;
#146=CARTESIAN_POINT('Vertex',(-20.,-42.5,27.3267301202)) ;
#149=CARTESIAN_POINT('Line Origine',(-20.,-42.5,3.5527136788E-015)) ;
#153=CARTESIAN_POINT('Vertex',(-20.,-42.5,-27.3267301202)) ;
#156=CARTESIAN_POINT('Line Origine',(-10.,-42.5,-27.3267301202)) ;
#168=CARTESIAN_POINT('Axis2P3D Location',(0.,-5.17949192431,-45.)) ;
#173=CARTESIAN_POINT('Line Origine',(0.,-21.4055066628,-40.6522524544)) ;
#177=CARTESIAN_POINT('Vertex',(0.,-35.088190451,-36.9859883831)) ;
#179=CARTESIAN_POINT('Vertex',(0.,-7.72282287461,-44.3185165258)) ;
#182=CARTESIAN_POINT('Line Origine',(-10.,-35.088190451,-36.9859883831)) ;
#186=CARTESIAN_POINT('Vertex',(-20.,-35.088190451,-36.9859883831)) ;
#189=CARTESIAN_POINT('Line Origine',(-20.,-21.4055066628,-40.6522524544)) ;
#193=CARTESIAN_POINT('Vertex',(-20.,-7.72282287461,-44.3185165258)) ;
#196=CARTESIAN_POINT('Line Origine',(-10.,-7.72282287461,-44.3185165258)) ;
#208=CARTESIAN_POINT('Axis2P3D Location',(0.,52.5,-45.)) ;
#213=CARTESIAN_POINT('Line Origine',(-20.,19.9767790137,-45.)) ;
#217=CARTESIAN_POINT('Vertex',(-20.,-2.54644197256,-45.)) ;
#219=CARTESIAN_POINT('Vertex',(-20.,42.5,-45.)) ;
#222=CARTESIAN_POINT('Line Origine',(-10.,42.5,-45.)) ;
#226=CARTESIAN_POINT('Vertex',(0.,42.5,-45.)) ;
#229=CARTESIAN_POINT('Line Origine',(0.,19.9767790137,-45.)) ;
#233=CARTESIAN_POINT('Vertex',(0.,-2.54644197256,-45.)) ;
#236=CARTESIAN_POINT('Line Origine',(-10.,-2.54644197256,-45.)) ;
#248=CARTESIAN_POINT('Axis2P3D Location',(0.,52.5,45.)) ;
#253=CARTESIAN_POINT('Line Origine',(0.,52.5,0.)) ;
#257=CARTESIAN_POINT('Vertex',(0.,52.5,-35.)) ;
#259=CARTESIAN_POINT('Vertex',(0.,52.5,35.)) ;
#262=CARTESIAN_POINT('Line Origine',(-10.,52.5,-35.)) ;
#266=CARTESIAN_POINT('Vertex',(-20.,52.5,-35.)) ;
#269=CARTESIAN_POINT('Line Origine',(-20.,52.5,0.)) ;
#273=CARTESIAN_POINT('Vertex',(-20.,52.5,35.)) ;
#276=CARTESIAN_POINT('Line Origine',(-10.,52.5,35.)) ;
#288=CARTESIAN_POINT('Axis2P3D Location',(0.,-5.17949192431,45.)) ;
#293=CARTESIAN_POINT('Line Origine',(0.,19.9767790137,45.)) ;
#297=CARTESIAN_POINT('Vertex',(0.,42.5,45.)) ;
#299=CARTESIAN_POINT('Vertex',(0.,-2.54644197256,45.)) ;
#302=CARTESIAN_POINT('Line Origine',(-10.,42.5,45.)) ;
#306=CARTESIAN_POINT('Vertex',(-20.,42.5,45.)) ;
#309=CARTESIAN_POINT('Line Origine',(-20.,19.9767790137,45.)) ;
#313=CARTESIAN_POINT('Vertex',(-20.,-2.54644197256,45.)) ;
#316=CARTESIAN_POINT('Line Origine',(-10.,-2.54644197256,45.)) ;
#328=CARTESIAN_POINT('Axis2P3D Location',(-10.,-2.54644197256,25.)) ;
#333=CARTESIAN_POINT('Axis2P3D Location',(-20.,-2.54644197256,25.)) ;
#338=CARTESIAN_POINT('Axis2P3D Location',(0.,-2.54644197256,25.)) ;
#350=CARTESIAN_POINT('Axis2P3D Location',(-10.,42.5,35.)) ;
#355=CARTESIAN_POINT('Axis2P3D Location',(-20.,42.5,35.)) ;
#360=CARTESIAN_POINT('Axis2P3D Location',(0.,42.5,35.)) ;
#372=CARTESIAN_POINT('Axis2P3D Location',(-10.,42.5,-35.)) ;
#377=CARTESIAN_POINT('Axis2P3D Location',(-20.,42.5,-35.)) ;
#382=CARTESIAN_POINT('Axis2P3D Location',(0.,42.5,-35.)) ;
#394=CARTESIAN_POINT('Axis2P3D Location',(-10.,-2.54644197256,-25.)) ;
#399=CARTESIAN_POINT('Axis2P3D Location',(-20.,-2.54644197256,-25.)) ;
#404=CARTESIAN_POINT('Axis2P3D Location',(0.,-2.54644197256,-25.)) ;
#416=CARTESIAN_POINT('Axis2P3D Location',(-10.,-32.5,-27.3267301202)) ;
#421=CARTESIAN_POINT('Axis2P3D Location',(-20.,-32.5,-27.3267301202)) ;
#426=CARTESIAN_POINT('Axis2P3D Location',(0.,-32.5,-27.3267301202)) ;
#438=CARTESIAN_POINT('Axis2P3D Location',(-10.,-32.5,27.3267301202)) ;
#443=CARTESIAN_POINT('Axis2P3D Location',(-20.0000000015,-32.5,27.3267301202)) ;
#448=CARTESIAN_POINT('Axis2P3D Location',(-1.50484424921E-009,-32.5,27.3267301202)) ;
#460=CARTESIAN_POINT('Axis2P3D Location',(-0.1,40.5,-33.)) ;
#465=CARTESIAN_POINT('Line Origine',(-10.0000000008,36.8246842308,-30.9921658443)) ;
#469=CARTESIAN_POINT('Vertex',(-20.,36.8246842308,-30.9921658443)) ;
#471=CARTESIAN_POINT('Vertex',(0.,36.8246842308,-30.9921658443)) ;
#474=CARTESIAN_POINT('Axis2P3D Location',(-20.,40.5,-33.)) ;
#478=CARTESIAN_POINT('Vertex',(-20.,44.1753157692,-35.0078341557)) ;
#481=CARTESIAN_POINT('Line Origine',(-10.0000000008,44.1753157692,-35.0078341557)) ;
#485=CARTESIAN_POINT('Vertex',(-3.60822483003E-016,44.1753157692,-35.0078341557)) ;
#488=CARTESIAN_POINT('Axis2P3D Location',(0.,40.5,-33.)) ;
#500=CARTESIAN_POINT('Axis2P3D Location',(-20.,40.5,-33.)) ;
#505=CARTESIAN_POINT('Axis2P3D Location',(0.,40.5,-33.)) ;
#517=CARTESIAN_POINT('Axis2P3D Location',(-0.1,40.5,33.)) ;
#522=CARTESIAN_POINT('Line Origine',(-10.0000000008,36.8246842308,35.0078341557)) ;
#526=CARTESIAN_POINT('Vertex',(-20.,36.8246842308,35.0078341557)) ;
#528=CARTESIAN_POINT('Vertex',(0.,36.8246842308,35.0078341557)) ;
#531=CARTESIAN_POINT('Axis2P3D Location',(-20.,40.5,33.)) ;
#535=CARTESIAN_POINT('Vertex',(-20.,44.1753157692,30.9921658443)) ;
#538=CARTESIAN_POINT('Line Origine',(-10.0000000008,44.1753157692,30.9921658443)) ;
#542=CARTESIAN_POINT('Vertex',(-3.60822483003E-016,44.1753157692,30.9921658443)) ;
#545=CARTESIAN_POINT('Axis2P3D Location',(0.,40.5,33.)) ;
#557=CARTESIAN_POINT('Axis2P3D Location',(-20.,40.5,33.)) ;
#562=CARTESIAN_POINT('Axis2P3D Location',(0.,40.5,33.)) ;
#574=CARTESIAN_POINT('Axis2P3D Location',(0.,0.,0.)) ;
#593=CARTESIAN_POINT('Line Origine',(0.,-16.3903102433,33.7138608417)) ;
#597=CARTESIAN_POINT('Vertex',(0.,-27.1283499728,30.8366117678)) ;
#599=CARTESIAN_POINT('Vertex',(0.,-5.65227051379,36.5911099155)) ;
#602=CARTESIAN_POINT('Axis2P3D Location',(0.,-2.54644197256,25.)) ;
#606=CARTESIAN_POINT('Vertex',(0.,-2.54644197256,37.)) ;
#609=CARTESIAN_POINT('Line Origine',(0.,8.39377376946,37.)) ;
#613=CARTESIAN_POINT('Vertex',(0.,19.3339895115,37.)) ;
#616=CARTESIAN_POINT('Axis2P3D Location',(0.,19.3339895115,27.)) ;
#620=CARTESIAN_POINT('Vertex',(0.,28.9549033699,29.7272727273)) ;
#623=CARTESIAN_POINT('Axis2P3D Location',(0.,40.5,33.)) ;
#627=CARTESIAN_POINT('Vertex',(0.,37.2272727273,21.4549033699)) ;
#630=CARTESIAN_POINT('Axis2P3D Location',(0.,34.5,11.8339895115)) ;
#634=CARTESIAN_POINT('Vertex',(0.,44.5,11.8339895115)) ;
#637=CARTESIAN_POINT('Line Origine',(0.,44.5,0.)) ;
#641=CARTESIAN_POINT('Vertex',(0.,44.5,-11.8339895115)) ;
#644=CARTESIAN_POINT('Axis2P3D Location',(0.,34.5,-11.8339895115)) ;
#648=CARTESIAN_POINT('Vertex',(0.,37.2272727273,-21.4549033699)) ;
#651=CARTESIAN_POINT('Axis2P3D Location',(0.,40.5,-33.)) ;
#655=CARTESIAN_POINT('Vertex',(0.,28.9549033699,-29.7272727273)) ;
#658=CARTESIAN_POINT('Axis2P3D Location',(0.,19.3339895115,-27.)) ;
#662=CARTESIAN_POINT('Vertex',(0.,19.3339895115,-37.)) ;
#665=CARTESIAN_POINT('Line Origine',(0.,8.39377376946,-37.)) ;
#669=CARTESIAN_POINT('Vertex',(0.,-2.54644197256,-37.)) ;
#672=CARTESIAN_POINT('Axis2P3D Location',(0.,-2.54644197256,-25.)) ;
#676=CARTESIAN_POINT('Vertex',(0.,-5.65227051379,-36.5911099155)) ;
#679=CARTESIAN_POINT('Line Origine',(0.,-16.3903102433,-33.7138608417)) ;
#683=CARTESIAN_POINT('Vertex',(0.,-27.1283499728,-30.8366117678)) ;
#686=CARTESIAN_POINT('Axis2P3D Location',(0.,-24.5401595218,-21.177353505)) ;
#690=CARTESIAN_POINT('Vertex',(0.,-27.249177921,-11.55128373)) ;
#693=CARTESIAN_POINT('Axis2P3D Location',(0.,-30.5,0.)) ;
#697=CARTESIAN_POINT('Vertex',(0.,-27.249177921,11.55128373)) ;
#700=CARTESIAN_POINT('Axis2P3D Location',(0.,-24.5401595218,21.177353505)) ;
#736=CARTESIAN_POINT('Axis2P3D Location',(-20.,0.,0.)) ;
#755=CARTESIAN_POINT('Axis2P3D Location',(-20.,-24.5401595218,21.177353505)) ;
#759=CARTESIAN_POINT('Vertex',(-20.,-27.249177921,11.55128373)) ;
#761=CARTESIAN_POINT('Vertex',(-20.,-27.1283499728,30.8366117678)) ;
#764=CARTESIAN_POINT('Axis2P3D Location',(-20.,-30.5,0.)) ;
#768=CARTESIAN_POINT('Vertex',(-20.,-27.249177921,-11.55128373)) ;
#771=CARTESIAN_POINT('Axis2P3D Location',(-20.,-24.5401595218,-21.177353505)) ;
#775=CARTESIAN_POINT('Vertex',(-20.,-27.1283499728,-30.8366117678)) ;
#778=CARTESIAN_POINT('Line Origine',(-20.,-16.3903102433,-33.7138608417)) ;
#782=CARTESIAN_POINT('Vertex',(-20.,-5.65227051379,-36.5911099155)) ;
#785=CARTESIAN_POINT('Axis2P3D Location',(-20.,-2.54644197256,-25.)) ;
#789=CARTESIAN_POINT('Vertex',(-20.,-2.54644197256,-37.)) ;
#792=CARTESIAN_POINT('Line Origine',(-20.,8.39377376946,-37.)) ;
#796=CARTESIAN_POINT('Vertex',(-20.,19.3339895115,-37.)) ;
#799=CARTESIAN_POINT('Axis2P3D Location',(-20.,19.3339895115,-27.)) ;
#803=CARTESIAN_POINT('Vertex',(-20.,28.9549033699,-29.7272727273)) ;
#806=CARTESIAN_POINT('Axis2P3D Location',(-20.,40.5,-33.)) ;
#810=CARTESIAN_POINT('Vertex',(-20.,37.2272727273,-21.4549033699)) ;
#813=CARTESIAN_POINT('Axis2P3D Location',(-20.,34.5,-11.8339895115)) ;
#817=CARTESIAN_POINT('Vertex',(-20.,44.5,-11.8339895115)) ;
#820=CARTESIAN_POINT('Line Origine',(-20.,44.5,0.)) ;
#824=CARTESIAN_POINT('Vertex',(-20.,44.5,11.8339895115)) ;
#827=CARTESIAN_POINT('Axis2P3D Location',(-20.,34.5,11.8339895115)) ;
#831=CARTESIAN_POINT('Vertex',(-20.,37.2272727273,21.4549033699)) ;
#834=CARTESIAN_POINT('Axis2P3D Location',(-20.,40.5,33.)) ;
#838=CARTESIAN_POINT('Vertex',(-20.,28.9549033699,29.7272727273)) ;
#841=CARTESIAN_POINT('Axis2P3D Location',(-20.,19.3339895115,27.)) ;
#845=CARTESIAN_POINT('Vertex',(-20.,19.3339895115,37.)) ;
#848=CARTESIAN_POINT('Line Origine',(-20.,8.39377376946,37.)) ;
#852=CARTESIAN_POINT('Vertex',(-20.,-2.54644197256,37.)) ;
#855=CARTESIAN_POINT('Axis2P3D Location',(-20.,-2.54644197256,25.)) ;
#859=CARTESIAN_POINT('Vertex',(-20.,-5.65227051379,36.5911099155)) ;
#862=CARTESIAN_POINT('Line Origine',(-20.,-16.3903102433,33.7138608417)) ;
#906=CARTESIAN_POINT('Axis2P3D Location',(-10.,-2.54644197256,25.)) ;
#911=CARTESIAN_POINT('Line Origine',(-10.,-5.65227051379,36.5911099155)) ;
#916=CARTESIAN_POINT('Line Origine',(-10.,-2.54644197256,37.)) ;
#928=CARTESIAN_POINT('Axis2P3D Location',(-20.,-5.65227051379,36.5911099155)) ;
#933=CARTESIAN_POINT('Line Origine',(-10.,-27.1283499728,30.8366117678)) ;
#945=CARTESIAN_POINT('Axis2P3D Location',(-20.,-2.54644197256,37.)) ;
#950=CARTESIAN_POINT('Line Origine',(-10.,19.3339895115,37.)) ;
#962=CARTESIAN_POINT('Axis2P3D Location',(-10.,-24.5401595218,21.177353505)) ;
#967=CARTESIAN_POINT('Line Origine',(-10.,-27.249177921,11.55128373)) ;
#979=CARTESIAN_POINT('Axis2P3D Location',(-10.,19.3339895115,27.)) ;
#984=CARTESIAN_POINT('Line Origine',(-10.,28.9549033699,29.7272727273)) ;
#996=CARTESIAN_POINT('Axis2P3D Location',(-10.,-30.5,0.)) ;
#1001=CARTESIAN_POINT('Line Origine',(-10.,-27.249177921,-11.55128373)) ;
#1013=CARTESIAN_POINT('Axis2P3D Location',(-10.,40.5,33.)) ;
#1018=CARTESIAN_POINT('Line Origine',(-10.,37.2272727273,21.4549033699)) ;
#1030=CARTESIAN_POINT('Axis2P3D Location',(-10.,-24.5401595218,-21.177353505)) ;
#1035=CARTESIAN_POINT('Line Origine',(-10.,-27.1283499728,-30.8366117678)) ;
#1047=CARTESIAN_POINT('Axis2P3D Location',(-10.,34.5,11.8339895115)) ;
#1052=CARTESIAN_POINT('Line Origine',(-10.,44.5,11.8339895115)) ;
#1064=CARTESIAN_POINT('Axis2P3D Location',(-20.,-27.1283499728,-30.8366117678)) ;
#1069=CARTESIAN_POINT('Line Origine',(-10.,-5.65227051379,-36.5911099155)) ;
#1081=CARTESIAN_POINT('Axis2P3D Location',(-20.,44.5,-11.8339895115)) ;
#1086=CARTESIAN_POINT('Line Origine',(-10.,44.5,-11.8339895115)) ;
#1098=CARTESIAN_POINT('Axis2P3D Location',(-10.,-2.54644197256,-25.)) ;
#1103=CARTESIAN_POINT('Line Origine',(-10.,-2.54644197256,-37.)) ;
#1115=CARTESIAN_POINT('Axis2P3D Location',(-10.,34.5,-11.8339895115)) ;
#1120=CARTESIAN_POINT('Line Origine',(-10.,37.2272727273,-21.4549033699)) ;
#1132=CARTESIAN_POINT('Axis2P3D Location',(-20.,19.3339895115,-37.)) ;
#1137=CARTESIAN_POINT('Line Origine',(-10.,19.3339895115,-37.)) ;
#1149=CARTESIAN_POINT('Axis2P3D Location',(-10.,40.5,-33.)) ;
#1154=CARTESIAN_POINT('Line Origine',(-10.,28.9549033699,-29.7272727273)) ;
#1166=CARTESIAN_POINT('Axis2P3D Location',(-10.,19.3339895115,-27.)) ;
#8=PRODUCT_RELATED_PRODUCT_CATEGORY('part',$,(#5)) ;
#29=STYLED_ITEM(' ',(#28),#21) ;
#28=PRESENTATION_STYLE_ASSIGNMENT((#27)) ;
#904=PRESENTATION_STYLE_ASSIGNMENT((#903)) ;
#27=SURFACE_STYLE_USAGE(.BOTH.,#26) ;
#903=SURFACE_STYLE_USAGE(.BOTH.,#902) ;
#26=SURFACE_SIDE_STYLE(' ',(#25)) ;
#902=SURFACE_SIDE_STYLE(' ',(#901)) ;
#25=SURFACE_STYLE_FILL_AREA(#24) ;
#901=SURFACE_STYLE_FILL_AREA(#900) ;
#24=FILL_AREA_STYLE(' ',(#23)) ;
#900=FILL_AREA_STYLE(' ',(#899)) ;
#23=FILL_AREA_STYLE_COLOUR(' ',#22) ;
#899=FILL_AREA_STYLE_COLOUR(' ',#898) ;
#38=VECTOR('Line Direction',#37,1.) ;
#54=VECTOR('Line Direction',#53,1.) ;
#95=VECTOR('Line Direction',#94,1.) ;
#104=VECTOR('Line Direction',#103,1.) ;
#111=VECTOR('Line Direction',#110,1.) ;
#118=VECTOR('Line Direction',#117,1.) ;
#135=VECTOR('Line Direction',#134,1.) ;
#144=VECTOR('Line Direction',#143,1.) ;
#151=VECTOR('Line Direction',#150,1.) ;
#158=VECTOR('Line Direction',#157,1.) ;
#175=VECTOR('Line Direction',#174,1.) ;
#184=VECTOR('Line Direction',#183,1.) ;
#191=VECTOR('Line Direction',#190,1.) ;
#198=VECTOR('Line Direction',#197,1.) ;
#215=VECTOR('Line Direction',#214,1.) ;
#224=VECTOR('Line Direction',#223,1.) ;
#231=VECTOR('Line Direction',#230,1.) ;
#238=VECTOR('Line Direction',#237,1.) ;
#255=VECTOR('Line Direction',#254,1.) ;
#264=VECTOR('Line Direction',#263,1.) ;
#271=VECTOR('Line Direction',#270,1.) ;
#278=VECTOR('Line Direction',#277,1.) ;
#295=VECTOR('Line Direction',#294,1.) ;
#304=VECTOR('Line Direction',#303,1.) ;
#311=VECTOR('Line Direction',#310,1.) ;
#318=VECTOR('Line Direction',#317,1.) ;
#467=VECTOR('Line Direction',#466,1.) ;
#483=VECTOR('Line Direction',#482,1.) ;
#524=VECTOR('Line Direction',#523,1.) ;
#540=VECTOR('Line Direction',#539,1.) ;
#595=VECTOR('Line Direction',#594,1.) ;
#611=VECTOR('Line Direction',#610,1.) ;
#639=VECTOR('Line Direction',#638,1.) ;
#667=VECTOR('Line Direction',#666,1.) ;
#681=VECTOR('Line Direction',#680,1.) ;
#780=VECTOR('Line Direction',#779,1.) ;
#794=VECTOR('Line Direction',#793,1.) ;
#822=VECTOR('Line Direction',#821,1.) ;
#850=VECTOR('Line Direction',#849,1.) ;
#864=VECTOR('Line Direction',#863,1.) ;
#913=VECTOR('Line Direction',#912,1.) ;
#918=VECTOR('Line Direction',#917,1.) ;
#935=VECTOR('Line Direction',#934,1.) ;
#952=VECTOR('Line Direction',#951,1.) ;
#969=VECTOR('Line Direction',#968,1.) ;
#986=VECTOR('Line Direction',#985,1.) ;
#1003=VECTOR('Line Direction',#1002,1.) ;
#1020=VECTOR('Line Direction',#1019,1.) ;
#1037=VECTOR('Line Direction',#1036,1.) ;
#1054=VECTOR('Line Direction',#1053,1.) ;
#1071=VECTOR('Line Direction',#1070,1.) ;
#1088=VECTOR('Line Direction',#1087,1.) ;
#1105=VECTOR('Line Direction',#1104,1.) ;
#1122=VECTOR('Line Direction',#1121,1.) ;
#1139=VECTOR('Line Direction',#1138,1.) ;
#1156=VECTOR('Line Direction',#1155,1.) ;
#32=DIRECTION('Axis2P3D Direction',(-1.,0.,-0.)) ;
#33=DIRECTION('Axis2P3D XDirection',(0.,0.87758256189,-0.479425538604)) ;
#37=DIRECTION('Vector Direction',(-1.,0.,0.)) ;
#46=DIRECTION('Axis2P3D Direction',(-1.,0.,-0.)) ;
#53=DIRECTION('Vector Direction',(-1.,0.,0.)) ;
#60=DIRECTION('Axis2P3D Direction',(-1.,0.,-0.)) ;
#72=DIRECTION('Axis2P3D Direction',(-1.,0.,-0.)) ;
#77=DIRECTION('Axis2P3D Direction',(-1.,0.,-0.)) ;
#89=DIRECTION('Axis2P3D Direction',(0.,-0.258819045103,0.965925826289)) ;
#90=DIRECTION('Axis2P3D XDirection',(0.,0.965925826289,0.258819045103)) ;
#94=DIRECTION('Vector Direction',(0.,0.965925826289,0.258819045103)) ;
#103=DIRECTION('Vector Direction',(-1.,0.,0.)) ;
#110=DIRECTION('Vector Direction',(0.,0.965925826289,0.258819045103)) ;
#117=DIRECTION('Vector Direction',(-1.,0.,0.)) ;
#129=DIRECTION('Axis2P3D Direction',(0.,-1.,0.)) ;
#130=DIRECTION('Axis2P3D XDirection',(0.,0.,1.)) ;
#134=DIRECTION('Vector Direction',(0.,0.,1.)) ;
#143=DIRECTION('Vector Direction',(-1.,0.,0.)) ;
#150=DIRECTION('Vector Direction',(0.,0.,1.)) ;
#157=DIRECTION('Vector Direction',(-1.,0.,0.)) ;
#169=DIRECTION('Axis2P3D Direction',(-0.,-0.258819045103,-0.965925826289)) ;
#170=DIRECTION('Axis2P3D XDirection',(0.,-0.965925826289,0.258819045103)) ;
#174=DIRECTION('Vector Direction',(0.,-0.965925826289,0.258819045103)) ;
#183=DIRECTION('Vector Direction',(-1.,0.,0.)) ;
#190=DIRECTION('Vector Direction',(0.,-0.965925826289,0.258819045103)) ;
#197=DIRECTION('Vector Direction',(-1.,0.,0.)) ;
#209=DIRECTION('Axis2P3D Direction',(-0.,-0.,-1.)) ;
#210=DIRECTION('Axis2P3D XDirection',(0.,-1.,0.)) ;
#214=DIRECTION('Vector Direction',(0.,-1.,0.)) ;
#223=DIRECTION('Vector Direction',(-1.,0.,0.)) ;
#230=DIRECTION('Vector Direction',(0.,-1.,0.)) ;
#237=DIRECTION('Vector Direction',(-1.,0.,0.)) ;
#249=DIRECTION('Axis2P3D Direction',(0.,1.,0.)) ;
#250=DIRECTION('Axis2P3D XDirection',(0.,0.,-1.)) ;
#254=DIRECTION('Vector Direction',(0.,0.,-1.)) ;
#263=DIRECTION('Vector Direction',(-1.,0.,0.)) ;
#270=DIRECTION('Vector Direction',(0.,0.,-1.)) ;
#277=DIRECTION('Vector Direction',(-1.,0.,0.)) ;
#289=DIRECTION('Axis2P3D Direction',(0.,-0.,1.)) ;
#290=DIRECTION('Axis2P3D XDirection',(0.,1.,0.)) ;
#294=DIRECTION('Vector Direction',(0.,1.,0.)) ;
#303=DIRECTION('Vector Direction',(-1.,0.,0.)) ;
#310=DIRECTION('Vector Direction',(0.,1.,0.)) ;
#317=DIRECTION('Vector Direction',(-1.,0.,0.)) ;
#329=DIRECTION('Axis2P3D Direction',(-1.,0.,0.)) ;
#330=DIRECTION('Axis2P3D XDirection',(0.,-0.258819045103,0.965925826289)) ;
#334=DIRECTION('Axis2P3D Direction',(-1.,0.,0.)) ;
#339=DIRECTION('Axis2P3D Direction',(-1.,0.,0.)) ;
#351=DIRECTION('Axis2P3D Direction',(-1.,0.,0.)) ;
#352=DIRECTION('Axis2P3D XDirection',(-0.,-1.83697019872E-016,1.)) ;
#356=DIRECTION('Axis2P3D Direction',(-1.,0.,0.)) ;
#361=DIRECTION('Axis2P3D Direction',(-1.,0.,0.)) ;
#373=DIRECTION('Axis2P3D Direction',(-1.,0.,0.)) ;
#374=DIRECTION('Axis2P3D XDirection',(0.,1.,1.83697019872E-016)) ;
#378=DIRECTION('Axis2P3D Direction',(-1.,0.,0.)) ;
#383=DIRECTION('Axis2P3D Direction',(-1.,0.,0.)) ;
#395=DIRECTION('Axis2P3D Direction',(-1.,-0.,0.)) ;
#396=DIRECTION('Axis2P3D XDirection',(0.,-1.11022302463E-016,-1.)) ;
#400=DIRECTION('Axis2P3D Direction',(-1.,-0.,0.)) ;
#405=DIRECTION('Axis2P3D Direction',(-1.,-0.,0.)) ;
#417=DIRECTION('Axis2P3D Direction',(-1.,0.,0.)) ;
#418=DIRECTION('Axis2P3D XDirection',(0.,-0.258819045103,-0.965925826289)) ;
#422=DIRECTION('Axis2P3D Direction',(-1.,0.,0.)) ;
#427=DIRECTION('Axis2P3D Direction',(-1.,0.,0.)) ;
#439=DIRECTION('Axis2P3D Direction',(-1.,0.,0.)) ;
#440=DIRECTION('Axis2P3D XDirection',(0.,-1.,-2.77555756156E-016)) ;
#444=DIRECTION('Axis2P3D Direction',(-1.,0.,0.)) ;
#449=DIRECTION('Axis2P3D Direction',(-1.,0.,0.)) ;
#461=DIRECTION('Axis2P3D Direction',(-1.,0.,0.)) ;
#462=DIRECTION('Axis2P3D XDirection',(0.,0.87758256189,-0.479425538604)) ;
#466=DIRECTION('Vector Direction',(-1.,0.,0.)) ;
#475=DIRECTION('Axis2P3D Direction',(-1.,0.,0.)) ;
#482=DIRECTION('Vector Direction',(-1.,0.,0.)) ;
#489=DIRECTION('Axis2P3D Direction',(-1.,0.,0.)) ;
#501=DIRECTION('Axis2P3D Direction',(-1.,0.,0.)) ;
#506=DIRECTION('Axis2P3D Direction',(-1.,0.,0.)) ;
#518=DIRECTION('Axis2P3D Direction',(-1.,0.,0.)) ;
#519=DIRECTION('Axis2P3D XDirection',(0.,0.87758256189,-0.479425538604)) ;
#523=DIRECTION('Vector Direction',(-1.,0.,0.)) ;
#532=DIRECTION('Axis2P3D Direction',(-1.,0.,0.)) ;
#539=DIRECTION('Vector Direction',(-1.,0.,0.)) ;
#546=DIRECTION('Axis2P3D Direction',(-1.,0.,0.)) ;
#558=DIRECTION('Axis2P3D Direction',(-1.,0.,0.)) ;
#563=DIRECTION('Axis2P3D Direction',(-1.,0.,0.)) ;
#575=DIRECTION('Axis2P3D Direction',(1.,0.,0.)) ;
#576=DIRECTION('Axis2P3D XDirection',(0.,1.,0.)) ;
#594=DIRECTION('Vector Direction',(0.,-0.965925826289,-0.258819045103)) ;
#603=DIRECTION('Axis2P3D Direction',(1.,0.,0.)) ;
#610=DIRECTION('Vector Direction',(0.,1.,0.)) ;
#617=DIRECTION('Axis2P3D Direction',(1.,0.,0.)) ;
#624=DIRECTION('Axis2P3D Direction',(1.,0.,0.)) ;
#631=DIRECTION('Axis2P3D Direction',(1.,0.,0.)) ;
#638=DIRECTION('Vector Direction',(0.,0.,1.)) ;
#645=DIRECTION('Axis2P3D Direction',(1.,0.,0.)) ;
#652=DIRECTION('Axis2P3D Direction',(1.,0.,0.)) ;
#659=DIRECTION('Axis2P3D Direction',(1.,0.,0.)) ;
#666=DIRECTION('Vector Direction',(0.,-1.,0.)) ;
#673=DIRECTION('Axis2P3D Direction',(1.,0.,0.)) ;
#680=DIRECTION('Vector Direction',(0.,0.965925826289,-0.258819045103)) ;
#687=DIRECTION('Axis2P3D Direction',(1.,0.,0.)) ;
#694=DIRECTION('Axis2P3D Direction',(1.,0.,0.)) ;
#701=DIRECTION('Axis2P3D Direction',(1.,0.,0.)) ;
#737=DIRECTION('Axis2P3D Direction',(1.,0.,0.)) ;
#738=DIRECTION('Axis2P3D XDirection',(0.,1.,0.)) ;
#756=DIRECTION('Axis2P3D Direction',(1.,0.,0.)) ;
#765=DIRECTION('Axis2P3D Direction',(1.,0.,0.)) ;
#772=DIRECTION('Axis2P3D Direction',(1.,0.,0.)) ;
#779=DIRECTION('Vector Direction',(0.,0.965925826289,-0.258819045103)) ;
#786=DIRECTION('Axis2P3D Direction',(1.,0.,0.)) ;
#793=DIRECTION('Vector Direction',(0.,-1.,0.)) ;
#800=DIRECTION('Axis2P3D Direction',(1.,0.,0.)) ;
#807=DIRECTION('Axis2P3D Direction',(1.,0.,0.)) ;
#814=DIRECTION('Axis2P3D Direction',(1.,0.,0.)) ;
#821=DIRECTION('Vector Direction',(0.,0.,1.)) ;
#828=DIRECTION('Axis2P3D Direction',(1.,0.,0.)) ;
#835=DIRECTION('Axis2P3D Direction',(1.,0.,0.)) ;
#842=DIRECTION('Axis2P3D Direction',(1.,0.,0.)) ;
#849=DIRECTION('Vector Direction',(0.,1.,0.)) ;
#856=DIRECTION('Axis2P3D Direction',(1.,0.,0.)) ;
#863=DIRECTION('Vector Direction',(0.,-0.965925826289,-0.258819045103)) ;
#907=DIRECTION('Axis2P3D Direction',(-1.,0.,0.)) ;
#908=DIRECTION('Axis2P3D XDirection',(0.,-0.258819045103,0.965925826289)) ;
#912=DIRECTION('Vector Direction',(-1.,0.,0.)) ;
#917=DIRECTION('Vector Direction',(-1.,0.,0.)) ;
#929=DIRECTION('Axis2P3D Direction',(0.,-0.258819045103,0.965925826289)) ;
#930=DIRECTION('Axis2P3D XDirection',(0.,-0.965925826289,-0.258819045103)) ;
#934=DIRECTION('Vector Direction',(1.,0.,0.)) ;
#946=DIRECTION('Axis2P3D Direction',(0.,0.,-1.)) ;
#947=DIRECTION('Axis2P3D XDirection',(0.,1.,0.)) ;
#951=DIRECTION('Vector Direction',(1.,0.,0.)) ;
#963=DIRECTION('Axis2P3D Direction',(-1.,0.,0.)) ;
#964=DIRECTION('Axis2P3D XDirection',(0.,-0.27090183992,-0.962606977498)) ;
#968=DIRECTION('Vector Direction',(-1.,0.,0.)) ;
#980=DIRECTION('Axis2P3D Direction',(-1.,0.,0.)) ;
#981=DIRECTION('Axis2P3D XDirection',(0.,-6.12323399574E-017,1.)) ;
#985=DIRECTION('Vector Direction',(-1.,0.,0.)) ;
#997=DIRECTION('Axis2P3D Direction',(-1.,0.,0.)) ;
#998=DIRECTION('Axis2P3D XDirection',(0.,0.27090183992,0.962606977498)) ;
#1002=DIRECTION('Vector Direction',(-1.,0.,0.)) ;
#1014=DIRECTION('Axis2P3D Direction',(-1.,0.,0.)) ;
#1015=DIRECTION('Axis2P3D XDirection',(0.,-0.272727272727,-0.962091385842)) ;
#1019=DIRECTION('Vector Direction',(-1.,0.,0.)) ;
#1031=DIRECTION('Axis2P3D Direction',(-1.,0.,0.)) ;
#1032=DIRECTION('Axis2P3D XDirection',(0.,-0.258819045103,-0.965925826289)) ;
#1036=DIRECTION('Vector Direction',(-1.,0.,0.)) ;
#1048=DIRECTION('Axis2P3D Direction',(-1.,0.,0.)) ;
#1049=DIRECTION('Axis2P3D XDirection',(0.,0.272727272727,0.962091385842)) ;
#1053=DIRECTION('Vector Direction',(-1.,0.,0.)) ;
#1065=DIRECTION('Axis2P3D Direction',(0.,-0.258819045103,-0.965925826289)) ;
#1066=DIRECTION('Axis2P3D XDirection',(-0.,0.965925826289,-0.258819045103)) ;
#1070=DIRECTION('Vector Direction',(1.,0.,0.)) ;
#1082=DIRECTION('Axis2P3D Direction',(0.,1.,0.)) ;
#1083=DIRECTION('Axis2P3D XDirection',(0.,0.,1.)) ;
#1087=DIRECTION('Vector Direction',(1.,0.,0.)) ;
#1099=DIRECTION('Axis2P3D Direction',(-1.,0.,0.)) ;
#1100=DIRECTION('Axis2P3D XDirection',(-0.,1.07187543957E-015,-1.)) ;
#1104=DIRECTION('Vector Direction',(-1.,0.,0.)) ;
#1116=DIRECTION('Axis2P3D Direction',(-1.,0.,0.)) ;
#1117=DIRECTION('Axis2P3D XDirection',(0.,1.,1.22464679915E-016)) ;
#1121=DIRECTION('Vector Direction',(-1.,0.,0.)) ;
#1133=DIRECTION('Axis2P3D Direction',(-0.,0.,1.)) ;
#1134=DIRECTION('Axis2P3D XDirection',(0.,-1.,0.)) ;
#1138=DIRECTION('Vector Direction',(1.,0.,0.)) ;
#1150=DIRECTION('Axis2P3D Direction',(-1.,0.,0.)) ;
#1151=DIRECTION('Axis2P3D XDirection',(0.,-0.962091385842,0.272727272727)) ;
#1155=DIRECTION('Vector Direction',(-1.,0.,0.)) ;
#1167=DIRECTION('Axis2P3D Direction',(-1.,0.,0.)) ;
#1168=DIRECTION('Axis2P3D XDirection',(-0.,0.962091385842,-0.272727272727)) ;
#15=UNCERTAINTY_MEASURE_WITH_UNIT(LENGTH_MEASURE(0.005),#12,'distance_accuracy_value','CONFUSED CURVE UNCERTAINTY') ;
#18=AXIS2_PLACEMENT_3D(' ',#17,$,$) ;
#34=AXIS2_PLACEMENT_3D('Cylinder Axis2P3D',#31,#32,#33) ;
#47=AXIS2_PLACEMENT_3D('Circle Axis2P3D',#45,#46,$) ;
#61=AXIS2_PLACEMENT_3D('Circle Axis2P3D',#59,#60,$) ;
#73=AXIS2_PLACEMENT_3D('Circle Axis2P3D',#71,#72,$) ;
#78=AXIS2_PLACEMENT_3D('Circle Axis2P3D',#76,#77,$) ;
#91=AXIS2_PLACEMENT_3D('Plane Axis2P3D',#88,#89,#90) ;
#131=AXIS2_PLACEMENT_3D('Plane Axis2P3D',#128,#129,#130) ;
#171=AXIS2_PLACEMENT_3D('Plane Axis2P3D',#168,#169,#170) ;
#211=AXIS2_PLACEMENT_3D('Plane Axis2P3D',#208,#209,#210) ;
#251=AXIS2_PLACEMENT_3D('Plane Axis2P3D',#248,#249,#250) ;
#291=AXIS2_PLACEMENT_3D('Plane Axis2P3D',#288,#289,#290) ;
#331=AXIS2_PLACEMENT_3D('Cylinder Axis2P3D',#328,#329,#330) ;
#335=AXIS2_PLACEMENT_3D('Circle Axis2P3D',#333,#334,$) ;
#340=AXIS2_PLACEMENT_3D('Circle Axis2P3D',#338,#339,$) ;
#353=AXIS2_PLACEMENT_3D('Cylinder Axis2P3D',#350,#351,#352) ;
#357=AXIS2_PLACEMENT_3D('Circle Axis2P3D',#355,#356,$) ;
#362=AXIS2_PLACEMENT_3D('Circle Axis2P3D',#360,#361,$) ;
#375=AXIS2_PLACEMENT_3D('Cylinder Axis2P3D',#372,#373,#374) ;
#379=AXIS2_PLACEMENT_3D('Circle Axis2P3D',#377,#378,$) ;
#384=AXIS2_PLACEMENT_3D('Circle Axis2P3D',#382,#383,$) ;
#397=AXIS2_PLACEMENT_3D('Cylinder Axis2P3D',#394,#395,#396) ;
#401=AXIS2_PLACEMENT_3D('Circle Axis2P3D',#399,#400,$) ;
#406=AXIS2_PLACEMENT_3D('Circle Axis2P3D',#404,#405,$) ;
#419=AXIS2_PLACEMENT_3D('Cylinder Axis2P3D',#416,#417,#418) ;
#423=AXIS2_PLACEMENT_3D('Circle Axis2P3D',#421,#422,$) ;
#428=AXIS2_PLACEMENT_3D('Circle Axis2P3D',#426,#427,$) ;
#441=AXIS2_PLACEMENT_3D('Cylinder Axis2P3D',#438,#439,#440) ;
#445=AXIS2_PLACEMENT_3D('Circle Axis2P3D',#443,#444,$) ;
#450=AXIS2_PLACEMENT_3D('Circle Axis2P3D',#448,#449,$) ;
#463=AXIS2_PLACEMENT_3D('Cylinder Axis2P3D',#460,#461,#462) ;
#476=AXIS2_PLACEMENT_3D('Circle Axis2P3D',#474,#475,$) ;
#490=AXIS2_PLACEMENT_3D('Circle Axis2P3D',#488,#489,$) ;
#502=AXIS2_PLACEMENT_3D('Circle Axis2P3D',#500,#501,$) ;
#507=AXIS2_PLACEMENT_3D('Circle Axis2P3D',#505,#506,$) ;
#520=AXIS2_PLACEMENT_3D('Cylinder Axis2P3D',#517,#518,#519) ;
#533=AXIS2_PLACEMENT_3D('Circle Axis2P3D',#531,#532,$) ;
#547=AXIS2_PLACEMENT_3D('Circle Axis2P3D',#545,#546,$) ;
#559=AXIS2_PLACEMENT_3D('Circle Axis2P3D',#557,#558,$) ;
#564=AXIS2_PLACEMENT_3D('Circle Axis2P3D',#562,#563,$) ;
#577=AXIS2_PLACEMENT_3D('Plane Axis2P3D',#574,#575,#576) ;
#604=AXIS2_PLACEMENT_3D('Circle Axis2P3D',#602,#603,$) ;
#618=AXIS2_PLACEMENT_3D('Circle Axis2P3D',#616,#617,$) ;
#625=AXIS2_PLACEMENT_3D('Circle Axis2P3D',#623,#624,$) ;
#632=AXIS2_PLACEMENT_3D('Circle Axis2P3D',#630,#631,$) ;
#646=AXIS2_PLACEMENT_3D('Circle Axis2P3D',#644,#645,$) ;
#653=AXIS2_PLACEMENT_3D('Circle Axis2P3D',#651,#652,$) ;
#660=AXIS2_PLACEMENT_3D('Circle Axis2P3D',#658,#659,$) ;
#674=AXIS2_PLACEMENT_3D('Circle Axis2P3D',#672,#673,$) ;
#688=AXIS2_PLACEMENT_3D('Circle Axis2P3D',#686,#687,$) ;
#695=AXIS2_PLACEMENT_3D('Circle Axis2P3D',#693,#694,$) ;
#702=AXIS2_PLACEMENT_3D('Circle Axis2P3D',#700,#701,$) ;
#739=AXIS2_PLACEMENT_3D('Plane Axis2P3D',#736,#737,#738) ;
#757=AXIS2_PLACEMENT_3D('Circle Axis2P3D',#755,#756,$) ;
#766=AXIS2_PLACEMENT_3D('Circle Axis2P3D',#764,#765,$) ;
#773=AXIS2_PLACEMENT_3D('Circle Axis2P3D',#771,#772,$) ;
#787=AXIS2_PLACEMENT_3D('Circle Axis2P3D',#785,#786,$) ;
#801=AXIS2_PLACEMENT_3D('Circle Axis2P3D',#799,#800,$) ;
#808=AXIS2_PLACEMENT_3D('Circle Axis2P3D',#806,#807,$) ;
#815=AXIS2_PLACEMENT_3D('Circle Axis2P3D',#813,#814,$) ;
#829=AXIS2_PLACEMENT_3D('Circle Axis2P3D',#827,#828,$) ;
#836=AXIS2_PLACEMENT_3D('Circle Axis2P3D',#834,#835,$) ;
#843=AXIS2_PLACEMENT_3D('Circle Axis2P3D',#841,#842,$) ;
#857=AXIS2_PLACEMENT_3D('Circle Axis2P3D',#855,#856,$) ;
#909=AXIS2_PLACEMENT_3D('Cylinder Axis2P3D',#906,#907,#908) ;
#931=AXIS2_PLACEMENT_3D('Plane Axis2P3D',#928,#929,#930) ;
#948=AXIS2_PLACEMENT_3D('Plane Axis2P3D',#945,#946,#947) ;
#965=AXIS2_PLACEMENT_3D('Cylinder Axis2P3D',#962,#963,#964) ;
#982=AXIS2_PLACEMENT_3D('Cylinder Axis2P3D',#979,#980,#981) ;
#999=AXIS2_PLACEMENT_3D('Cylinder Axis2P3D',#996,#997,#998) ;
#1016=AXIS2_PLACEMENT_3D('Cylinder Axis2P3D',#1013,#1014,#1015) ;
#1033=AXIS2_PLACEMENT_3D('Cylinder Axis2P3D',#1030,#1031,#1032) ;
#1050=AXIS2_PLACEMENT_3D('Cylinder Axis2P3D',#1047,#1048,#1049) ;
#1067=AXIS2_PLACEMENT_3D('Plane Axis2P3D',#1064,#1065,#1066) ;
#1084=AXIS2_PLACEMENT_3D('Plane Axis2P3D',#1081,#1082,#1083) ;
#1101=AXIS2_PLACEMENT_3D('Cylinder Axis2P3D',#1098,#1099,#1100) ;
#1118=AXIS2_PLACEMENT_3D('Cylinder Axis2P3D',#1115,#1116,#1117) ;
#1135=AXIS2_PLACEMENT_3D('Plane Axis2P3D',#1132,#1133,#1134) ;
#1152=AXIS2_PLACEMENT_3D('Cylinder Axis2P3D',#1149,#1150,#1151) ;
#1169=AXIS2_PLACEMENT_3D('Cylinder Axis2P3D',#1166,#1167,#1168) ;
#39=LINE('Line',#36,#38) ;
#55=LINE('Line',#52,#54) ;
#96=LINE('Line',#93,#95) ;
#105=LINE('Line',#102,#104) ;
#112=LINE('Line',#109,#111) ;
#119=LINE('Line',#116,#118) ;
#136=LINE('Line',#133,#135) ;
#145=LINE('Line',#142,#144) ;
#152=LINE('Line',#149,#151) ;
#159=LINE('Line',#156,#158) ;
#176=LINE('Line',#173,#175) ;
#185=LINE('Line',#182,#184) ;
#192=LINE('Line',#189,#191) ;
#199=LINE('Line',#196,#198) ;
#216=LINE('Line',#213,#215) ;
#225=LINE('Line',#222,#224) ;
#232=LINE('Line',#229,#231) ;
#239=LINE('Line',#236,#238) ;
#256=LINE('Line',#253,#255) ;
#265=LINE('Line',#262,#264) ;
#272=LINE('Line',#269,#271) ;
#279=LINE('Line',#276,#278) ;
#296=LINE('Line',#293,#295) ;
#305=LINE('Line',#302,#304) ;
#312=LINE('Line',#309,#311) ;
#319=LINE('Line',#316,#318) ;
#468=LINE('Line',#465,#467) ;
#484=LINE('Line',#481,#483) ;
#525=LINE('Line',#522,#524) ;
#541=LINE('Line',#538,#540) ;
#596=LINE('Line',#593,#595) ;
#612=LINE('Line',#609,#611) ;
#640=LINE('Line',#637,#639) ;
#668=LINE('Line',#665,#667) ;
#682=LINE('Line',#679,#681) ;
#781=LINE('Line',#778,#780) ;
#795=LINE('Line',#792,#794) ;
#823=LINE('Line',#820,#822) ;
#851=LINE('Line',#848,#850) ;
#865=LINE('Line',#862,#864) ;
#914=LINE('Line',#911,#913) ;
#919=LINE('Line',#916,#918) ;
#936=LINE('Line',#933,#935) ;
#953=LINE('Line',#950,#952) ;
#970=LINE('Line',#967,#969) ;
#987=LINE('Line',#984,#986) ;
#1004=LINE('Line',#1001,#1003) ;
#1021=LINE('Line',#1018,#1020) ;
#1038=LINE('Line',#1035,#1037) ;
#1055=LINE('Line',#1052,#1054) ;
#1072=LINE('Line',#1069,#1071) ;
#1089=LINE('Line',#1086,#1088) ;
#1106=LINE('Line',#1103,#1105) ;
#1123=LINE('Line',#1120,#1122) ;
#1140=LINE('Line',#1137,#1139) ;
#1157=LINE('Line',#1154,#1156) ;
#48=CIRCLE('generated circle',#47,4.188) ;
#62=CIRCLE('generated circle',#61,4.188) ;
#74=CIRCLE('generated circle',#73,4.188) ;
#79=CIRCLE('generated circle',#78,4.188) ;
#336=CIRCLE('generated circle',#335,20.) ;
#341=CIRCLE('generated circle',#340,20.) ;
#358=CIRCLE('generated circle',#357,10.) ;
#363=CIRCLE('generated circle',#362,10.) ;
#380=CIRCLE('generated circle',#379,10.) ;
#385=CIRCLE('generated circle',#384,10.) ;
#402=CIRCLE('generated circle',#401,20.) ;
#407=CIRCLE('generated circle',#406,20.) ;
#424=CIRCLE('generated circle',#423,10.) ;
#429=CIRCLE('generated circle',#428,10.) ;
#446=CIRCLE('generated circle',#445,10.) ;
#451=CIRCLE('generated circle',#450,10.) ;
#477=CIRCLE('generated circle',#476,4.188) ;
#491=CIRCLE('generated circle',#490,4.188) ;
#503=CIRCLE('generated circle',#502,4.188) ;
#508=CIRCLE('generated circle',#507,4.188) ;
#534=CIRCLE('generated circle',#533,4.188) ;
#548=CIRCLE('generated circle',#547,4.188) ;
#560=CIRCLE('generated circle',#559,4.188) ;
#565=CIRCLE('generated circle',#564,4.188) ;
#605=CIRCLE('generated circle',#604,12.) ;
#619=CIRCLE('generated circle',#618,10.) ;
#626=CIRCLE('generated circle',#625,12.) ;
#633=CIRCLE('generated circle',#632,10.) ;
#647=CIRCLE('generated circle',#646,10.) ;
#654=CIRCLE('generated circle',#653,12.) ;
#661=CIRCLE('generated circle',#660,10.) ;
#675=CIRCLE('generated circle',#674,12.) ;
#689=CIRCLE('generated circle',#688,10.) ;
#696=CIRCLE('generated circle',#695,12.) ;
#703=CIRCLE('generated circle',#702,10.) ;
#758=CIRCLE('generated circle',#757,10.) ;
#767=CIRCLE('generated circle',#766,12.) ;
#774=CIRCLE('generated circle',#773,10.) ;
#788=CIRCLE('generated circle',#787,12.) ;
#802=CIRCLE('generated circle',#801,10.) ;
#809=CIRCLE('generated circle',#808,12.) ;
#816=CIRCLE('generated circle',#815,10.) ;
#830=CIRCLE('generated circle',#829,10.) ;
#837=CIRCLE('generated circle',#836,12.) ;
#844=CIRCLE('generated circle',#843,10.) ;
#858=CIRCLE('generated circle',#857,12.) ;
#92=PLANE('',#91) ;
#132=PLANE('',#131) ;
#172=PLANE('',#171) ;
#212=PLANE('',#211) ;
#252=PLANE('',#251) ;
#292=PLANE('',#291) ;
#578=PLANE('',#577) ;
#740=PLANE('',#739) ;
#932=PLANE('',#931) ;
#949=PLANE('',#948) ;
#1068=PLANE('',#1067) ;
#1085=PLANE('',#1084) ;
#1136=PLANE('',#1135) ;
#35=CYLINDRICAL_SURFACE('generated cylinder',#34,4.188) ;
#332=CYLINDRICAL_SURFACE('generated cylinder',#331,20.) ;
#354=CYLINDRICAL_SURFACE('generated cylinder',#353,10.) ;
#376=CYLINDRICAL_SURFACE('generated cylinder',#375,10.) ;
#398=CYLINDRICAL_SURFACE('generated cylinder',#397,20.) ;
#420=CYLINDRICAL_SURFACE('generated cylinder',#419,10.) ;
#442=CYLINDRICAL_SURFACE('generated cylinder',#441,10.) ;
#464=CYLINDRICAL_SURFACE('generated cylinder',#463,4.188) ;
#521=CYLINDRICAL_SURFACE('generated cylinder',#520,4.188) ;
#910=CYLINDRICAL_SURFACE('generated cylinder',#909,12.) ;
#966=CYLINDRICAL_SURFACE('generated cylinder',#965,10.) ;
#983=CYLINDRICAL_SURFACE('generated cylinder',#982,10.) ;
#1000=CYLINDRICAL_SURFACE('generated cylinder',#999,12.) ;
#1017=CYLINDRICAL_SURFACE('generated cylinder',#1016,12.) ;
#1034=CYLINDRICAL_SURFACE('generated cylinder',#1033,10.) ;
#1051=CYLINDRICAL_SURFACE('generated cylinder',#1050,10.) ;
#1102=CYLINDRICAL_SURFACE('generated cylinder',#1101,12.) ;
#1119=CYLINDRICAL_SURFACE('generated cylinder',#1118,10.) ;
#1153=CYLINDRICAL_SURFACE('generated cylinder',#1152,12.) ;
#1170=CYLINDRICAL_SURFACE('generated cylinder',#1169,10.) ;
#722=FACE_BOUND('',#705,.T.) ;
#726=FACE_BOUND('',#723,.T.) ;
#730=FACE_BOUND('',#727,.T.) ;
#734=FACE_BOUND('',#731,.T.) ;
#884=FACE_BOUND('',#867,.T.) ;
#888=FACE_BOUND('',#885,.T.) ;
#892=FACE_BOUND('',#889,.T.) ;
#896=FACE_BOUND('',#893,.T.) ;
#44=EDGE_CURVE('',#41,#43,#39,.F.) ;
#51=EDGE_CURVE('',#50,#41,#48,.F.) ;
#58=EDGE_CURVE('',#50,#57,#55,.F.) ;
#63=EDGE_CURVE('',#57,#43,#62,.F.) ;
#75=EDGE_CURVE('',#41,#50,#74,.F.) ;
#80=EDGE_CURVE('',#43,#57,#79,.F.) ;
#101=EDGE_CURVE('',#98,#100,#96,.F.) ;
#108=EDGE_CURVE('',#107,#100,#105,.T.) ;
#115=EDGE_CURVE('',#114,#107,#112,.F.) ;
#120=EDGE_CURVE('',#114,#98,#119,.T.) ;
#141=EDGE_CURVE('',#138,#140,#136,.F.) ;
#148=EDGE_CURVE('',#138,#147,#145,.T.) ;
#155=EDGE_CURVE('',#147,#154,#152,.F.) ;
#160=EDGE_CURVE('',#140,#154,#159,.T.) ;
#181=EDGE_CURVE('',#178,#180,#176,.F.) ;
#188=EDGE_CURVE('',#178,#187,#185,.T.) ;
#195=EDGE_CURVE('',#187,#194,#192,.F.) ;
#200=EDGE_CURVE('',#180,#194,#199,.T.) ;
#221=EDGE_CURVE('',#218,#220,#216,.F.) ;
#228=EDGE_CURVE('',#227,#220,#225,.T.) ;
#235=EDGE_CURVE('',#234,#227,#232,.F.) ;
#240=EDGE_CURVE('',#234,#218,#239,.T.) ;
#261=EDGE_CURVE('',#258,#260,#256,.F.) ;
#268=EDGE_CURVE('',#258,#267,#265,.T.) ;
#275=EDGE_CURVE('',#267,#274,#272,.F.) ;
#280=EDGE_CURVE('',#260,#274,#279,.T.) ;
#301=EDGE_CURVE('',#298,#300,#296,.F.) ;
#308=EDGE_CURVE('',#298,#307,#305,.T.) ;
#315=EDGE_CURVE('',#307,#314,#312,.F.) ;
#320=EDGE_CURVE('',#300,#314,#319,.T.) ;
#337=EDGE_CURVE('',#314,#98,#336,.F.) ;
#342=EDGE_CURVE('',#114,#300,#341,.T.) ;
#359=EDGE_CURVE('',#274,#307,#358,.F.) ;
#364=EDGE_CURVE('',#298,#260,#363,.T.) ;
#381=EDGE_CURVE('',#220,#267,#380,.F.) ;
#386=EDGE_CURVE('',#258,#227,#385,.T.) ;
#403=EDGE_CURVE('',#194,#218,#402,.F.) ;
#408=EDGE_CURVE('',#234,#180,#407,.T.) ;
#425=EDGE_CURVE('',#154,#187,#424,.F.) ;
#430=EDGE_CURVE('',#178,#140,#429,.T.) ;
#447=EDGE_CURVE('',#100,#147,#446,.F.) ;
#452=EDGE_CURVE('',#138,#107,#451,.T.) ;
#473=EDGE_CURVE('',#470,#472,#468,.F.) ;
#480=EDGE_CURVE('',#479,#470,#477,.F.) ;
#487=EDGE_CURVE('',#479,#486,#484,.F.) ;
#492=EDGE_CURVE('',#486,#472,#491,.F.) ;
#504=EDGE_CURVE('',#470,#479,#503,.F.) ;
#509=EDGE_CURVE('',#472,#486,#508,.F.) ;
#530=EDGE_CURVE('',#527,#529,#525,.F.) ;
#537=EDGE_CURVE('',#536,#527,#534,.F.) ;
#544=EDGE_CURVE('',#536,#543,#541,.F.) ;
#549=EDGE_CURVE('',#543,#529,#548,.F.) ;
#561=EDGE_CURVE('',#527,#536,#560,.F.) ;
#566=EDGE_CURVE('',#529,#543,#565,.F.) ;
#601=EDGE_CURVE('',#598,#600,#596,.F.) ;
#608=EDGE_CURVE('',#600,#607,#605,.F.) ;
#615=EDGE_CURVE('',#607,#614,#612,.T.) ;
#622=EDGE_CURVE('',#614,#621,#619,.F.) ;
#629=EDGE_CURVE('',#621,#628,#626,.T.) ;
#636=EDGE_CURVE('',#628,#635,#633,.F.) ;
#643=EDGE_CURVE('',#635,#642,#640,.F.) ;
#650=EDGE_CURVE('',#642,#649,#647,.F.) ;
#657=EDGE_CURVE('',#649,#656,#654,.T.) ;
#664=EDGE_CURVE('',#656,#663,#661,.F.) ;
#671=EDGE_CURVE('',#663,#670,#668,.T.) ;
#678=EDGE_CURVE('',#670,#677,#675,.F.) ;
#685=EDGE_CURVE('',#677,#684,#682,.F.) ;
#692=EDGE_CURVE('',#684,#691,#689,.F.) ;
#699=EDGE_CURVE('',#691,#698,#696,.T.) ;
#704=EDGE_CURVE('',#698,#598,#703,.F.) ;
#763=EDGE_CURVE('',#760,#762,#758,.F.) ;
#770=EDGE_CURVE('',#769,#760,#767,.T.) ;
#777=EDGE_CURVE('',#776,#769,#774,.F.) ;
#784=EDGE_CURVE('',#783,#776,#781,.F.) ;
#791=EDGE_CURVE('',#790,#783,#788,.F.) ;
#798=EDGE_CURVE('',#797,#790,#795,.T.) ;
#805=EDGE_CURVE('',#804,#797,#802,.F.) ;
#812=EDGE_CURVE('',#811,#804,#809,.T.) ;
#819=EDGE_CURVE('',#818,#811,#816,.F.) ;
#826=EDGE_CURVE('',#825,#818,#823,.F.) ;
#833=EDGE_CURVE('',#832,#825,#830,.F.) ;
#840=EDGE_CURVE('',#839,#832,#837,.T.) ;
#847=EDGE_CURVE('',#846,#839,#844,.F.) ;
#854=EDGE_CURVE('',#853,#846,#851,.T.) ;
#861=EDGE_CURVE('',#860,#853,#858,.F.) ;
#866=EDGE_CURVE('',#762,#860,#865,.F.) ;
#915=EDGE_CURVE('',#860,#600,#914,.F.) ;
#920=EDGE_CURVE('',#853,#607,#919,.F.) ;
#937=EDGE_CURVE('',#762,#598,#936,.T.) ;
#954=EDGE_CURVE('',#846,#614,#953,.T.) ;
#971=EDGE_CURVE('',#760,#698,#970,.F.) ;
#988=EDGE_CURVE('',#839,#621,#987,.F.) ;
#1005=EDGE_CURVE('',#769,#691,#1004,.F.) ;
#1022=EDGE_CURVE('',#832,#628,#1021,.F.) ;
#1039=EDGE_CURVE('',#776,#684,#1038,.F.) ;
#1056=EDGE_CURVE('',#825,#635,#1055,.F.) ;
#1073=EDGE_CURVE('',#783,#677,#1072,.T.) ;
#1090=EDGE_CURVE('',#818,#642,#1089,.T.) ;
#1107=EDGE_CURVE('',#790,#670,#1106,.F.) ;
#1124=EDGE_CURVE('',#811,#649,#1123,.F.) ;
#1141=EDGE_CURVE('',#797,#663,#1140,.T.) ;
#1158=EDGE_CURVE('',#804,#656,#1157,.F.) ;
#30=CLOSED_SHELL('Closed Shell',(#70,#87,#127,#167,#207,#247,#287,#327,#349,#371,#393,#415,#437,#459,#499,#516,#556,#573,#735,#897,#927,#944,#961,#978,#995,#1012,#1029,#1046,#1063,#1080,#1097,#1114,#1131,#1148,#1165,#1177)) ;
#1179=SHAPE_REPRESENTATION_RELATIONSHIP(' ',' ',#19,#1178) ;
#64=EDGE_LOOP('',(#65,#66,#67,#68)) ;
#81=EDGE_LOOP('',(#82,#83,#84,#85)) ;
#121=EDGE_LOOP('',(#122,#123,#124,#125)) ;
#161=EDGE_LOOP('',(#162,#163,#164,#165)) ;
#201=EDGE_LOOP('',(#202,#203,#204,#205)) ;
#241=EDGE_LOOP('',(#242,#243,#244,#245)) ;
#281=EDGE_LOOP('',(#282,#283,#284,#285)) ;
#321=EDGE_LOOP('',(#322,#323,#324,#325)) ;
#343=EDGE_LOOP('',(#344,#345,#346,#347)) ;
#365=EDGE_LOOP('',(#366,#367,#368,#369)) ;
#387=EDGE_LOOP('',(#388,#389,#390,#391)) ;
#409=EDGE_LOOP('',(#410,#411,#412,#413)) ;
#431=EDGE_LOOP('',(#432,#433,#434,#435)) ;
#453=EDGE_LOOP('',(#454,#455,#456,#457)) ;
#493=EDGE_LOOP('',(#494,#495,#496,#497)) ;
#510=EDGE_LOOP('',(#511,#512,#513,#514)) ;
#550=EDGE_LOOP('',(#551,#552,#553,#554)) ;
#567=EDGE_LOOP('',(#568,#569,#570,#571)) ;
#579=EDGE_LOOP('',(#580,#581,#582,#583,#584,#585,#586,#587,#588,#589,#590,#591)) ;
#705=EDGE_LOOP('',(#706,#707,#708,#709,#710,#711,#712,#713,#714,#715,#716,#717,#718,#719,#720,#721)) ;
#723=EDGE_LOOP('',(#724,#725)) ;
#727=EDGE_LOOP('',(#728,#729)) ;
#731=EDGE_LOOP('',(#732,#733)) ;
#741=EDGE_LOOP('',(#742,#743,#744,#745,#746,#747,#748,#749,#750,#751,#752,#753)) ;
#867=EDGE_LOOP('',(#868,#869,#870,#871,#872,#873,#874,#875,#876,#877,#878,#879,#880,#881,#882,#883)) ;
#885=EDGE_LOOP('',(#886,#887)) ;
#889=EDGE_LOOP('',(#890,#891)) ;
#893=EDGE_LOOP('',(#894,#895)) ;
#921=EDGE_LOOP('',(#922,#923,#924,#925)) ;
#938=EDGE_LOOP('',(#939,#940,#941,#942)) ;
#955=EDGE_LOOP('',(#956,#957,#958,#959)) ;
#972=EDGE_LOOP('',(#973,#974,#975,#976)) ;
#989=EDGE_LOOP('',(#990,#991,#992,#993)) ;
#1006=EDGE_LOOP('',(#1007,#1008,#1009,#1010)) ;
#1023=EDGE_LOOP('',(#1024,#1025,#1026,#1027)) ;
#1040=EDGE_LOOP('',(#1041,#1042,#1043,#1044)) ;
#1057=EDGE_LOOP('',(#1058,#1059,#1060,#1061)) ;
#1074=EDGE_LOOP('',(#1075,#1076,#1077,#1078)) ;
#1091=EDGE_LOOP('',(#1092,#1093,#1094,#1095)) ;
#1108=EDGE_LOOP('',(#1109,#1110,#1111,#1112)) ;
#1125=EDGE_LOOP('',(#1126,#1127,#1128,#1129)) ;
#1142=EDGE_LOOP('',(#1143,#1144,#1145,#1146)) ;
#1159=EDGE_LOOP('',(#1160,#1161,#1162,#1163)) ;
#1171=EDGE_LOOP('',(#1172,#1173,#1174,#1175)) ;
#65=ORIENTED_EDGE('',*,*,#44,.F.) ;
#66=ORIENTED_EDGE('',*,*,#51,.F.) ;
#67=ORIENTED_EDGE('',*,*,#58,.T.) ;
#68=ORIENTED_EDGE('',*,*,#63,.T.) ;
#82=ORIENTED_EDGE('',*,*,#58,.F.) ;
#83=ORIENTED_EDGE('',*,*,#75,.F.) ;
#84=ORIENTED_EDGE('',*,*,#44,.T.) ;
#85=ORIENTED_EDGE('',*,*,#80,.T.) ;
#122=ORIENTED_EDGE('',*,*,#101,.T.) ;
#123=ORIENTED_EDGE('',*,*,#108,.F.) ;
#124=ORIENTED_EDGE('',*,*,#115,.F.) ;
#125=ORIENTED_EDGE('',*,*,#120,.T.) ;
#162=ORIENTED_EDGE('',*,*,#141,.F.) ;
#163=ORIENTED_EDGE('',*,*,#148,.T.) ;
#164=ORIENTED_EDGE('',*,*,#155,.T.) ;
#165=ORIENTED_EDGE('',*,*,#160,.F.) ;
#202=ORIENTED_EDGE('',*,*,#181,.F.) ;
#203=ORIENTED_EDGE('',*,*,#188,.T.) ;
#204=ORIENTED_EDGE('',*,*,#195,.T.) ;
#205=ORIENTED_EDGE('',*,*,#200,.F.) ;
#242=ORIENTED_EDGE('',*,*,#221,.T.) ;
#243=ORIENTED_EDGE('',*,*,#228,.F.) ;
#244=ORIENTED_EDGE('',*,*,#235,.F.) ;
#245=ORIENTED_EDGE('',*,*,#240,.T.) ;
#282=ORIENTED_EDGE('',*,*,#261,.F.) ;
#283=ORIENTED_EDGE('',*,*,#268,.T.) ;
#284=ORIENTED_EDGE('',*,*,#275,.T.) ;
#285=ORIENTED_EDGE('',*,*,#280,.F.) ;
#322=ORIENTED_EDGE('',*,*,#301,.F.) ;
#323=ORIENTED_EDGE('',*,*,#308,.T.) ;
#324=ORIENTED_EDGE('',*,*,#315,.T.) ;
#325=ORIENTED_EDGE('',*,*,#320,.F.) ;
#344=ORIENTED_EDGE('',*,*,#337,.T.) ;
#345=ORIENTED_EDGE('',*,*,#120,.F.) ;
#346=ORIENTED_EDGE('',*,*,#342,.T.) ;
#347=ORIENTED_EDGE('',*,*,#320,.T.) ;
#366=ORIENTED_EDGE('',*,*,#359,.T.) ;
#367=ORIENTED_EDGE('',*,*,#308,.F.) ;
#368=ORIENTED_EDGE('',*,*,#364,.T.) ;
#369=ORIENTED_EDGE('',*,*,#280,.T.) ;
#388=ORIENTED_EDGE('',*,*,#381,.T.) ;
#389=ORIENTED_EDGE('',*,*,#268,.F.) ;
#390=ORIENTED_EDGE('',*,*,#386,.T.) ;
#391=ORIENTED_EDGE('',*,*,#228,.T.) ;
#410=ORIENTED_EDGE('',*,*,#403,.T.) ;
#411=ORIENTED_EDGE('',*,*,#240,.F.) ;
#412=ORIENTED_EDGE('',*,*,#408,.T.) ;
#413=ORIENTED_EDGE('',*,*,#200,.T.) ;
#432=ORIENTED_EDGE('',*,*,#425,.T.) ;
#433=ORIENTED_EDGE('',*,*,#188,.F.) ;
#434=ORIENTED_EDGE('',*,*,#430,.T.) ;
#435=ORIENTED_EDGE('',*,*,#160,.T.) ;
#454=ORIENTED_EDGE('',*,*,#447,.T.) ;
#455=ORIENTED_EDGE('',*,*,#148,.F.) ;
#456=ORIENTED_EDGE('',*,*,#452,.T.) ;
#457=ORIENTED_EDGE('',*,*,#108,.T.) ;
#494=ORIENTED_EDGE('',*,*,#473,.F.) ;
#495=ORIENTED_EDGE('',*,*,#480,.F.) ;
#496=ORIENTED_EDGE('',*,*,#487,.T.) ;
#497=ORIENTED_EDGE('',*,*,#492,.T.) ;
#511=ORIENTED_EDGE('',*,*,#487,.F.) ;
#512=ORIENTED_EDGE('',*,*,#504,.F.) ;
#513=ORIENTED_EDGE('',*,*,#473,.T.) ;
#514=ORIENTED_EDGE('',*,*,#509,.T.) ;
#551=ORIENTED_EDGE('',*,*,#530,.F.) ;
#552=ORIENTED_EDGE('',*,*,#537,.F.) ;
#553=ORIENTED_EDGE('',*,*,#544,.T.) ;
#554=ORIENTED_EDGE('',*,*,#549,.T.) ;
#568=ORIENTED_EDGE('',*,*,#544,.F.) ;
#569=ORIENTED_EDGE('',*,*,#561,.F.) ;
#570=ORIENTED_EDGE('',*,*,#530,.T.) ;
#571=ORIENTED_EDGE('',*,*,#566,.T.) ;
#580=ORIENTED_EDGE('',*,*,#115,.T.) ;
#581=ORIENTED_EDGE('',*,*,#452,.F.) ;
#582=ORIENTED_EDGE('',*,*,#141,.T.) ;
#583=ORIENTED_EDGE('',*,*,#430,.F.) ;
#584=ORIENTED_EDGE('',*,*,#181,.T.) ;
#585=ORIENTED_EDGE('',*,*,#408,.F.) ;
#586=ORIENTED_EDGE('',*,*,#235,.T.) ;
#587=ORIENTED_EDGE('',*,*,#386,.F.) ;
#588=ORIENTED_EDGE('',*,*,#261,.T.) ;
#589=ORIENTED_EDGE('',*,*,#364,.F.) ;
#590=ORIENTED_EDGE('',*,*,#301,.T.) ;
#591=ORIENTED_EDGE('',*,*,#342,.F.) ;
#706=ORIENTED_EDGE('',*,*,#601,.T.) ;
#707=ORIENTED_EDGE('',*,*,#608,.T.) ;
#708=ORIENTED_EDGE('',*,*,#615,.T.) ;
#709=ORIENTED_EDGE('',*,*,#622,.T.) ;
#710=ORIENTED_EDGE('',*,*,#629,.T.) ;
#711=ORIENTED_EDGE('',*,*,#636,.T.) ;
#712=ORIENTED_EDGE('',*,*,#643,.T.) ;
#713=ORIENTED_EDGE('',*,*,#650,.T.) ;
#714=ORIENTED_EDGE('',*,*,#657,.T.) ;
#715=ORIENTED_EDGE('',*,*,#664,.T.) ;
#716=ORIENTED_EDGE('',*,*,#671,.T.) ;
#717=ORIENTED_EDGE('',*,*,#678,.T.) ;
#718=ORIENTED_EDGE('',*,*,#685,.T.) ;
#719=ORIENTED_EDGE('',*,*,#692,.T.) ;
#720=ORIENTED_EDGE('',*,*,#699,.T.) ;
#721=ORIENTED_EDGE('',*,*,#704,.T.) ;
#724=ORIENTED_EDGE('',*,*,#80,.F.) ;
#725=ORIENTED_EDGE('',*,*,#63,.F.) ;
#728=ORIENTED_EDGE('',*,*,#549,.F.) ;
#729=ORIENTED_EDGE('',*,*,#566,.F.) ;
#732=ORIENTED_EDGE('',*,*,#492,.F.) ;
#733=ORIENTED_EDGE('',*,*,#509,.F.) ;
#742=ORIENTED_EDGE('',*,*,#337,.F.) ;
#743=ORIENTED_EDGE('',*,*,#315,.F.) ;
#744=ORIENTED_EDGE('',*,*,#359,.F.) ;
#745=ORIENTED_EDGE('',*,*,#275,.F.) ;
#746=ORIENTED_EDGE('',*,*,#381,.F.) ;
#747=ORIENTED_EDGE('',*,*,#221,.F.) ;
#748=ORIENTED_EDGE('',*,*,#403,.F.) ;
#749=ORIENTED_EDGE('',*,*,#195,.F.) ;
#750=ORIENTED_EDGE('',*,*,#425,.F.) ;
#751=ORIENTED_EDGE('',*,*,#155,.F.) ;
#752=ORIENTED_EDGE('',*,*,#447,.F.) ;
#753=ORIENTED_EDGE('',*,*,#101,.F.) ;
#868=ORIENTED_EDGE('',*,*,#763,.F.) ;
#869=ORIENTED_EDGE('',*,*,#770,.F.) ;
#870=ORIENTED_EDGE('',*,*,#777,.F.) ;
#871=ORIENTED_EDGE('',*,*,#784,.F.) ;
#872=ORIENTED_EDGE('',*,*,#791,.F.) ;
#873=ORIENTED_EDGE('',*,*,#798,.F.) ;
#874=ORIENTED_EDGE('',*,*,#805,.F.) ;
#875=ORIENTED_EDGE('',*,*,#812,.F.) ;
#876=ORIENTED_EDGE('',*,*,#819,.F.) ;
#877=ORIENTED_EDGE('',*,*,#826,.F.) ;
#878=ORIENTED_EDGE('',*,*,#833,.F.) ;
#879=ORIENTED_EDGE('',*,*,#840,.F.) ;
#880=ORIENTED_EDGE('',*,*,#847,.F.) ;
#881=ORIENTED_EDGE('',*,*,#854,.F.) ;
#882=ORIENTED_EDGE('',*,*,#861,.F.) ;
#883=ORIENTED_EDGE('',*,*,#866,.F.) ;
#886=ORIENTED_EDGE('',*,*,#51,.T.) ;
#887=ORIENTED_EDGE('',*,*,#75,.T.) ;
#890=ORIENTED_EDGE('',*,*,#561,.T.) ;
#891=ORIENTED_EDGE('',*,*,#537,.T.) ;
#894=ORIENTED_EDGE('',*,*,#504,.T.) ;
#895=ORIENTED_EDGE('',*,*,#480,.T.) ;
#922=ORIENTED_EDGE('',*,*,#915,.F.) ;
#923=ORIENTED_EDGE('',*,*,#861,.T.) ;
#924=ORIENTED_EDGE('',*,*,#920,.T.) ;
#925=ORIENTED_EDGE('',*,*,#608,.F.) ;
#939=ORIENTED_EDGE('',*,*,#937,.F.) ;
#940=ORIENTED_EDGE('',*,*,#866,.T.) ;
#941=ORIENTED_EDGE('',*,*,#915,.T.) ;
#942=ORIENTED_EDGE('',*,*,#601,.F.) ;
#956=ORIENTED_EDGE('',*,*,#920,.F.) ;
#957=ORIENTED_EDGE('',*,*,#854,.T.) ;
#958=ORIENTED_EDGE('',*,*,#954,.T.) ;
#959=ORIENTED_EDGE('',*,*,#615,.F.) ;
#973=ORIENTED_EDGE('',*,*,#971,.F.) ;
#974=ORIENTED_EDGE('',*,*,#763,.T.) ;
#975=ORIENTED_EDGE('',*,*,#937,.T.) ;
#976=ORIENTED_EDGE('',*,*,#704,.F.) ;
#990=ORIENTED_EDGE('',*,*,#954,.F.) ;
#991=ORIENTED_EDGE('',*,*,#847,.T.) ;
#992=ORIENTED_EDGE('',*,*,#988,.T.) ;
#993=ORIENTED_EDGE('',*,*,#622,.F.) ;
#1007=ORIENTED_EDGE('',*,*,#1005,.F.) ;
#1008=ORIENTED_EDGE('',*,*,#770,.T.) ;
#1009=ORIENTED_EDGE('',*,*,#971,.T.) ;
#1010=ORIENTED_EDGE('',*,*,#699,.F.) ;
#1024=ORIENTED_EDGE('',*,*,#988,.F.) ;
#1025=ORIENTED_EDGE('',*,*,#840,.T.) ;
#1026=ORIENTED_EDGE('',*,*,#1022,.T.) ;
#1027=ORIENTED_EDGE('',*,*,#629,.F.) ;
#1041=ORIENTED_EDGE('',*,*,#1039,.F.) ;
#1042=ORIENTED_EDGE('',*,*,#777,.T.) ;
#1043=ORIENTED_EDGE('',*,*,#1005,.T.) ;
#1044=ORIENTED_EDGE('',*,*,#692,.F.) ;
#1058=ORIENTED_EDGE('',*,*,#1022,.F.) ;
#1059=ORIENTED_EDGE('',*,*,#833,.T.) ;
#1060=ORIENTED_EDGE('',*,*,#1056,.T.) ;
#1061=ORIENTED_EDGE('',*,*,#636,.F.) ;
#1075=ORIENTED_EDGE('',*,*,#1073,.F.) ;
#1076=ORIENTED_EDGE('',*,*,#784,.T.) ;
#1077=ORIENTED_EDGE('',*,*,#1039,.T.) ;
#1078=ORIENTED_EDGE('',*,*,#685,.F.) ;
#1092=ORIENTED_EDGE('',*,*,#1056,.F.) ;
#1093=ORIENTED_EDGE('',*,*,#826,.T.) ;
#1094=ORIENTED_EDGE('',*,*,#1090,.T.) ;
#1095=ORIENTED_EDGE('',*,*,#643,.F.) ;
#1109=ORIENTED_EDGE('',*,*,#1107,.F.) ;
#1110=ORIENTED_EDGE('',*,*,#791,.T.) ;
#1111=ORIENTED_EDGE('',*,*,#1073,.T.) ;
#1112=ORIENTED_EDGE('',*,*,#678,.F.) ;
#1126=ORIENTED_EDGE('',*,*,#1090,.F.) ;
#1127=ORIENTED_EDGE('',*,*,#819,.T.) ;
#1128=ORIENTED_EDGE('',*,*,#1124,.T.) ;
#1129=ORIENTED_EDGE('',*,*,#650,.F.) ;
#1143=ORIENTED_EDGE('',*,*,#1141,.F.) ;
#1144=ORIENTED_EDGE('',*,*,#798,.T.) ;
#1145=ORIENTED_EDGE('',*,*,#1107,.T.) ;
#1146=ORIENTED_EDGE('',*,*,#671,.F.) ;
#1160=ORIENTED_EDGE('',*,*,#1124,.F.) ;
#1161=ORIENTED_EDGE('',*,*,#812,.T.) ;
#1162=ORIENTED_EDGE('',*,*,#1158,.T.) ;
#1163=ORIENTED_EDGE('',*,*,#657,.F.) ;
#1172=ORIENTED_EDGE('',*,*,#1158,.F.) ;
#1173=ORIENTED_EDGE('',*,*,#805,.T.) ;
#1174=ORIENTED_EDGE('',*,*,#1141,.T.) ;
#1175=ORIENTED_EDGE('',*,*,#664,.F.) ;
#21=MANIFOLD_SOLID_BREP('BOSSAGE EP20 3 TROUS M10',#30) ;
#41=VERTEX_POINT('',#40) ;
#43=VERTEX_POINT('',#42) ;
#50=VERTEX_POINT('',#49) ;
#57=VERTEX_POINT('',#56) ;
#98=VERTEX_POINT('',#97) ;
#100=VERTEX_POINT('',#99) ;
#107=VERTEX_POINT('',#106) ;
#114=VERTEX_POINT('',#113) ;
#138=VERTEX_POINT('',#137) ;
#140=VERTEX_POINT('',#139) ;
#147=VERTEX_POINT('',#146) ;
#154=VERTEX_POINT('',#153) ;
#178=VERTEX_POINT('',#177) ;
#180=VERTEX_POINT('',#179) ;
#187=VERTEX_POINT('',#186) ;
#194=VERTEX_POINT('',#193) ;
#218=VERTEX_POINT('',#217) ;
#220=VERTEX_POINT('',#219) ;
#227=VERTEX_POINT('',#226) ;
#234=VERTEX_POINT('',#233) ;
#258=VERTEX_POINT('',#257) ;
#260=VERTEX_POINT('',#259) ;
#267=VERTEX_POINT('',#266) ;
#274=VERTEX_POINT('',#273) ;
#298=VERTEX_POINT('',#297) ;
#300=VERTEX_POINT('',#299) ;
#307=VERTEX_POINT('',#306) ;
#314=VERTEX_POINT('',#313) ;
#470=VERTEX_POINT('',#469) ;
#472=VERTEX_POINT('',#471) ;
#479=VERTEX_POINT('',#478) ;
#486=VERTEX_POINT('',#485) ;
#527=VERTEX_POINT('',#526) ;
#529=VERTEX_POINT('',#528) ;
#536=VERTEX_POINT('',#535) ;
#543=VERTEX_POINT('',#542) ;
#598=VERTEX_POINT('',#597) ;
#600=VERTEX_POINT('',#599) ;
#607=VERTEX_POINT('',#606) ;
#614=VERTEX_POINT('',#613) ;
#621=VERTEX_POINT('',#620) ;
#628=VERTEX_POINT('',#627) ;
#635=VERTEX_POINT('',#634) ;
#642=VERTEX_POINT('',#641) ;
#649=VERTEX_POINT('',#648) ;
#656=VERTEX_POINT('',#655) ;
#663=VERTEX_POINT('',#662) ;
#670=VERTEX_POINT('',#669) ;
#677=VERTEX_POINT('',#676) ;
#684=VERTEX_POINT('',#683) ;
#691=VERTEX_POINT('',#690) ;
#698=VERTEX_POINT('',#697) ;
#760=VERTEX_POINT('',#759) ;
#762=VERTEX_POINT('',#761) ;
#769=VERTEX_POINT('',#768) ;
#776=VERTEX_POINT('',#775) ;
#783=VERTEX_POINT('',#782) ;
#790=VERTEX_POINT('',#789) ;
#797=VERTEX_POINT('',#796) ;
#804=VERTEX_POINT('',#803) ;
#811=VERTEX_POINT('',#810) ;
#818=VERTEX_POINT('',#817) ;
#825=VERTEX_POINT('',#824) ;
#832=VERTEX_POINT('',#831) ;
#839=VERTEX_POINT('',#838) ;
#846=VERTEX_POINT('',#845) ;
#853=VERTEX_POINT('',#852) ;
#860=VERTEX_POINT('',#859) ;
#1178=ADVANCED_BREP_SHAPE_REPRESENTATION('NONE',(#21),#16) ;
#70=ADVANCED_FACE('BOSSAGE EP20 3 TROUS M10',(#69),#35,.F.) ;
#87=ADVANCED_FACE('BOSSAGE EP20 3 TROUS M10',(#86),#35,.F.) ;
#127=ADVANCED_FACE('BOSSAGE EP20 3 TROUS M10',(#126),#92,.T.) ;
#167=ADVANCED_FACE('BOSSAGE EP20 3 TROUS M10',(#166),#132,.T.) ;
#207=ADVANCED_FACE('BOSSAGE EP20 3 TROUS M10',(#206),#172,.T.) ;
#247=ADVANCED_FACE('BOSSAGE EP20 3 TROUS M10',(#246),#212,.T.) ;
#287=ADVANCED_FACE('BOSSAGE EP20 3 TROUS M10',(#286),#252,.T.) ;
#327=ADVANCED_FACE('BOSSAGE EP20 3 TROUS M10',(#326),#292,.T.) ;
#349=ADVANCED_FACE('BOSSAGE EP20 3 TROUS M10',(#348),#332,.T.) ;
#371=ADVANCED_FACE('BOSSAGE EP20 3 TROUS M10',(#370),#354,.T.) ;
#393=ADVANCED_FACE('BOSSAGE EP20 3 TROUS M10',(#392),#376,.T.) ;
#415=ADVANCED_FACE('BOSSAGE EP20 3 TROUS M10',(#414),#398,.T.) ;
#437=ADVANCED_FACE('BOSSAGE EP20 3 TROUS M10',(#436),#420,.T.) ;
#459=ADVANCED_FACE('BOSSAGE EP20 3 TROUS M10',(#458),#442,.T.) ;
#499=ADVANCED_FACE('BOSSAGE EP20 3 TROUS M10',(#498),#464,.F.) ;
#516=ADVANCED_FACE('BOSSAGE EP20 3 TROUS M10',(#515),#464,.F.) ;
#556=ADVANCED_FACE('BOSSAGE EP20 3 TROUS M10',(#555),#521,.F.) ;
#573=ADVANCED_FACE('BOSSAGE EP20 3 TROUS M10',(#572),#521,.F.) ;
#735=ADVANCED_FACE('BOSSAGE EP20 3 TROUS M10',(#592,#722,#726,#730,#734),#578,.T.) ;
#897=ADVANCED_FACE('BOSSAGE EP20 3 TROUS M10',(#754,#884,#888,#892,#896),#740,.F.) ;
#927=ADVANCED_FACE('BOSSAGE EP20 3 TROUS M10',(#926),#910,.F.) ;
#944=ADVANCED_FACE('BOSSAGE EP20 3 TROUS M10',(#943),#932,.F.) ;
#961=ADVANCED_FACE('BOSSAGE EP20 3 TROUS M10',(#960),#949,.T.) ;
#978=ADVANCED_FACE('BOSSAGE EP20 3 TROUS M10',(#977),#966,.F.) ;
#995=ADVANCED_FACE('BOSSAGE EP20 3 TROUS M10',(#994),#983,.F.) ;
#1012=ADVANCED_FACE('BOSSAGE EP20 3 TROUS M10',(#1011),#1000,.T.) ;
#1029=ADVANCED_FACE('BOSSAGE EP20 3 TROUS M10',(#1028),#1017,.T.) ;
#1046=ADVANCED_FACE('BOSSAGE EP20 3 TROUS M10',(#1045),#1034,.F.) ;
#1063=ADVANCED_FACE('BOSSAGE EP20 3 TROUS M10',(#1062),#1051,.F.) ;
#1080=ADVANCED_FACE('BOSSAGE EP20 3 TROUS M10',(#1079),#1068,.F.) ;
#1097=ADVANCED_FACE('BOSSAGE EP20 3 TROUS M10',(#1096),#1085,.F.) ;
#1114=ADVANCED_FACE('BOSSAGE EP20 3 TROUS M10',(#1113),#1102,.F.) ;
#1131=ADVANCED_FACE('BOSSAGE EP20 3 TROUS M10',(#1130),#1119,.F.) ;
#1148=ADVANCED_FACE('BOSSAGE EP20 3 TROUS M10',(#1147),#1136,.T.) ;
#1165=ADVANCED_FACE('BOSSAGE EP20 3 TROUS M10',(#1164),#1153,.T.) ;
#1177=ADVANCED_FACE('BOSSAGE EP20 3 TROUS M10',(#1176),#1170,.F.) ;
#4=APPLICATION_PROTOCOL_DEFINITION('international standard','ap242_managed_model_based_3d_engineering',2014,#1) ;
#22=COLOUR_RGB('Colour',0.949019607843,0.635294117647,0.341176470588) ;
#898=COLOUR_RGB('Colour',1.,0.501960784314,0.501960784314) ;
#905=OVER_RIDING_STYLED_ITEM(' ',(#904),#897,#29) ;
#69=FACE_OUTER_BOUND('',#64,.T.) ;
#86=FACE_OUTER_BOUND('',#81,.T.) ;
#126=FACE_OUTER_BOUND('',#121,.T.) ;
#166=FACE_OUTER_BOUND('',#161,.T.) ;
#206=FACE_OUTER_BOUND('',#201,.T.) ;
#246=FACE_OUTER_BOUND('',#241,.T.) ;
#286=FACE_OUTER_BOUND('',#281,.T.) ;
#326=FACE_OUTER_BOUND('',#321,.T.) ;
#348=FACE_OUTER_BOUND('',#343,.T.) ;
#370=FACE_OUTER_BOUND('',#365,.T.) ;
#392=FACE_OUTER_BOUND('',#387,.T.) ;
#414=FACE_OUTER_BOUND('',#409,.T.) ;
#436=FACE_OUTER_BOUND('',#431,.T.) ;
#458=FACE_OUTER_BOUND('',#453,.T.) ;
#498=FACE_OUTER_BOUND('',#493,.T.) ;
#515=FACE_OUTER_BOUND('',#510,.T.) ;
#555=FACE_OUTER_BOUND('',#550,.T.) ;
#572=FACE_OUTER_BOUND('',#567,.T.) ;
#592=FACE_OUTER_BOUND('',#579,.T.) ;
#754=FACE_OUTER_BOUND('',#741,.T.) ;
#926=FACE_OUTER_BOUND('',#921,.T.) ;
#943=FACE_OUTER_BOUND('',#938,.T.) ;
#960=FACE_OUTER_BOUND('',#955,.T.) ;
#977=FACE_OUTER_BOUND('',#972,.T.) ;
#994=FACE_OUTER_BOUND('',#989,.T.) ;
#1011=FACE_OUTER_BOUND('',#1006,.T.) ;
#1028=FACE_OUTER_BOUND('',#1023,.T.) ;
#1045=FACE_OUTER_BOUND('',#1040,.T.) ;
#1062=FACE_OUTER_BOUND('',#1057,.T.) ;
#1079=FACE_OUTER_BOUND('',#1074,.T.) ;
#1096=FACE_OUTER_BOUND('',#1091,.T.) ;
#1113=FACE_OUTER_BOUND('',#1108,.T.) ;
#1130=FACE_OUTER_BOUND('',#1125,.T.) ;
#1147=FACE_OUTER_BOUND('',#1142,.T.) ;
#1164=FACE_OUTER_BOUND('',#1159,.T.) ;
#1176=FACE_OUTER_BOUND('',#1171,.T.) ;
#9=PRODUCT_CATEGORY_RELATIONSHIP(' ',' ',#7,#8) ;
#6=PRODUCT_DEFINITION_FORMATION_WITH_SPECIFIED_SOURCE('--A',' ',#5,.NOT_KNOWN.) ;
#20=SHAPE_DEFINITION_REPRESENTATION(#11,#19) ;
#12=(LENGTH_UNIT()NAMED_UNIT(*)SI_UNIT(.MILLI.,.METRE.)) ;
#13=(NAMED_UNIT(*)PLANE_ANGLE_UNIT()SI_UNIT($,.RADIAN.)) ;
#14=(NAMED_UNIT(*)SI_UNIT($,.STERADIAN.)SOLID_ANGLE_UNIT()) ;
#16=(GEOMETRIC_REPRESENTATION_CONTEXT(3)GLOBAL_UNCERTAINTY_ASSIGNED_CONTEXT((#15))GLOBAL_UNIT_ASSIGNED_CONTEXT((#12,#13,#14))REPRESENTATION_CONTEXT(' ',' ')) ;
ENDSEC;
END-ISO-10303-21;
