ISO-10303-21;
HEADER;
FILE_DESCRIPTION(('CATIA V5 STEP Exchange','CAx-IF Rec.Pracs.--- Model Styling and Organization---1.4--- 2014-01-23','CAx-IF Rec.Pracs.---Representation and Presentation of Product Manufacturing Information (PMI)---4.0---2014-10-13','CAx-IF Rec.Pracs.---3D Tessellated Data Validation Properties---0.5---2014-09-14'),'2;1');

FILE_NAME('C:\\Users\\jtheveni\\Desktop\\M3D-242325_-A.stp','2022-09-13T05:32:12+00:00',('none'),('none'),'CATIA Version 5-6 Release 2016 SP5 HF59','CATIA V5 STEP AP242','none');

FILE_SCHEMA(('AP242_MANAGED_MODEL_BASED_3D_ENGINEERING_MIM_LF  {1 0 10303 442 1 1 4}'));

ENDSEC;
DATA;
#5=PRODUCT('M3D-242325','','TAB WASHER SUPPORT',(#2)) ;
#2=PRODUCT_CONTEXT(' ',#1,'mechanical') ;
#1=APPLICATION_CONTEXT('managed model based 3d engineering') ;
#10=PRODUCT_DEFINITION('MASTER',' ',#6,#3) ;
#3=PRODUCT_DEFINITION_CONTEXT('part definition',#1,' ') ;
#11=PRODUCT_DEFINITION_SHAPE(' ',' ',#10) ;
#1195=MECHANICAL_DESIGN_GEOMETRIC_PRESENTATION_REPRESENTATION(' ',(#29),#16) ;
#19=SHAPE_REPRESENTATION(' ',(#18),#16) ;
#7=PRODUCT_CATEGORY('part','specification') ;
#17=CARTESIAN_POINT(' ',(0.,0.,0.)) ;
#32=CARTESIAN_POINT('Axis2P3D Location',(72.8158479754,8.00019797117,-47.1661323591)) ;
#37=CARTESIAN_POINT('Line Origine',(69.4923479551,4.00019798818,-47.166151129)) ;
#41=CARTESIAN_POINT('Vertex',(69.4923479347,0.000197988187758,-47.1661698988)) ;
#43=CARTESIAN_POINT('Vertex',(69.4923479754,8.0001979881,-47.1661323591)) ;
#46=CARTESIAN_POINT('Axis2P3D Location',(72.8158479347,0.000197971261826,-47.1661698988)) ;
#50=CARTESIAN_POINT('Vertex',(76.1393479347,0.000197954335893,-47.1661698988)) ;
#53=CARTESIAN_POINT('Line Origine',(76.1393479551,4.00019795433,-47.166151129)) ;
#57=CARTESIAN_POINT('Vertex',(76.1393479754,8.00019795425,-47.1661323591)) ;
#60=CARTESIAN_POINT('Axis2P3D Location',(72.8158479754,8.00019797117,-47.1661323591)) ;
#72=CARTESIAN_POINT('Axis2P3D Location',(72.8158479347,0.000197971261826,-47.1661698988)) ;
#77=CARTESIAN_POINT('Axis2P3D Location',(72.8158479754,8.00019797117,-47.1661323591)) ;
#89=CARTESIAN_POINT('Axis2P3D Location',(-1.17048489745E-013,-2.29831150398E-005,-1.07847273968E-010)) ;
#94=CARTESIAN_POINT('Line Origine',(59.1407951185,0.000520418575654,-115.867424841)) ;
#98=CARTESIAN_POINT('Vertex',(29.6652986325,0.000755376707375,-165.906888149)) ;
#100=CARTESIAN_POINT('Vertex',(88.6162916044,0.000285460443933,-65.8279615337)) ;
#103=CARTESIAN_POINT('Axis2P3D Location',(80.,0.000261688306696,-60.7525779042)) ;
#107=CARTESIAN_POINT('Vertex',(90.,0.00026163737866,-60.7525779042)) ;
#110=CARTESIAN_POINT('Line Origine',(90.,0.000212947091227,-50.3762889519)) ;
#114=CARTESIAN_POINT('Vertex',(90.,0.000164256803794,-39.9999999997)) ;
#117=CARTESIAN_POINT('Axis2P3D Location',(80.,0.000164307731829,-39.9999999997)) ;
#121=CARTESIAN_POINT('Vertex',(86.7938629575,0.00012984078517,-32.6621920086)) ;
#124=CARTESIAN_POINT('Line Origine',(55.2862162273,-6.8882149535E-006,-3.48995477137)) ;
#128=CARTESIAN_POINT('Vertex',(23.7785694971,-0.000143617215077,25.6822824658)) ;
#131=CARTESIAN_POINT('Axis2P3D Location',(-1.17048489745E-013,-2.29831150398E-005,-1.07847273968E-010)) ;
#135=CARTESIAN_POINT('Vertex',(-30.9389818014,-9.96127552007E-005,16.3639666672)) ;
#138=CARTESIAN_POINT('Axis2P3D Location',(-207.732958974,-0.00053749822905,109.87273436)) ;
#142=CARTESIAN_POINT('Vertex',(-201.151770738,0.000400451372724,-90.0189562142)) ;
#145=CARTESIAN_POINT('Axis2P3D Location',(-200.000000002,0.000564592543013,-124.999999997)) ;
#149=CARTESIAN_POINT('Vertex',(-202.136698886,0.000728533078837,-159.934717942)) ;
#152=CARTESIAN_POINT('Line Origine',(-93.1557828766,0.000759255904997,-166.600276311)) ;
#156=CARTESIAN_POINT('Vertex',(15.8251331329,0.000789978731158,-173.265834681)) ;
#159=CARTESIAN_POINT('Axis2P3D Location',(16.7408612259,0.000719718501519,-158.293812704)) ;
#180=CARTESIAN_POINT('Axis2P3D Location',(33.,0.000216164118163,-50.9999999995)) ;
#184=CARTESIAN_POINT('Vertex',(36.3235,0.000216147192229,-50.9999999995)) ;
#186=CARTESIAN_POINT('Vertex',(29.6765,0.000216181044094,-50.9999999995)) ;
#189=CARTESIAN_POINT('Axis2P3D Location',(33.,0.000216164118163,-50.9999999995)) ;
#198=CARTESIAN_POINT('Axis2P3D Location',(13.,0.000516583208079,-114.999999999)) ;
#202=CARTESIAN_POINT('Vertex',(9.6765,0.000516600134012,-114.999999999)) ;
#204=CARTESIAN_POINT('Vertex',(10.0833543556,0.00066484858885,-116.593370776)) ;
#207=CARTESIAN_POINT('Axis2P3D Location',(13.,0.000516583208079,-114.999999999)) ;
#211=CARTESIAN_POINT('Vertex',(13.,0.000500987827975,-111.676499999)) ;
#214=CARTESIAN_POINT('Axis2P3D Location',(13.,0.000516583208079,-114.999999999)) ;
#218=CARTESIAN_POINT('Vertex',(15.9166456444,0.000649865234031,-113.406629221)) ;
#221=CARTESIAN_POINT('Axis2P3D Location',(13.,0.000516583208079,-114.999999999)) ;
#225=CARTESIAN_POINT('Vertex',(16.3235,0.000516566282146,-114.999999999)) ;
#228=CARTESIAN_POINT('Axis2P3D Location',(13.,0.000516583208079,-114.999999999)) ;
#232=CARTESIAN_POINT('Vertex',(13.,0.000532178588183,-118.323499999)) ;
#235=CARTESIAN_POINT('Axis2P3D Location',(13.,0.000516583208079,-114.999999999)) ;
#248=CARTESIAN_POINT('Axis2P3D Location',(13.,0.000657356911442,-144.999999999)) ;
#252=CARTESIAN_POINT('Vertex',(15.9166456444,0.000649865234031,-143.406629221)) ;
#254=CARTESIAN_POINT('Vertex',(10.0833543556,0.00066484858885,-146.593370776)) ;
#257=CARTESIAN_POINT('Axis2P3D Location',(13.,0.000657356911442,-144.999999999)) ;
#266=CARTESIAN_POINT('Axis2P3D Location',(-1.16174189113E-013,-2.29831150398E-005,-1.07847051924E-010)) ;
#270=CARTESIAN_POINT('Vertex',(-12.,-2.29220013973E-005,-1.074490929E-010)) ;
#272=CARTESIAN_POINT('Vertex',(12.,-2.30442291764E-005,1.05161332514E-007)) ;
#275=CARTESIAN_POINT('Axis2P3D Location',(-1.18856071607E-013,-2.29831150398E-005,-1.07845386589E-010)) ;
#284=CARTESIAN_POINT('Axis2P3D Location',(-35.0000000002,0.000610676798224,-134.999999999)) ;
#288=CARTESIAN_POINT('Vertex',(-47.0000000002,0.000610737911866,-134.999999999)) ;
#290=CARTESIAN_POINT('Vertex',(-23.0000000002,0.000610615684087,-134.999999893)) ;
#293=CARTESIAN_POINT('Axis2P3D Location',(-35.0000000002,0.000610676798224,-134.999999999)) ;
#302=CARTESIAN_POINT('Axis2P3D Location',(-200.000000002,0.000564592543013,-124.999999997)) ;
#306=CARTESIAN_POINT('Vertex',(-212.000000002,0.000564653656656,-124.999999997)) ;
#308=CARTESIAN_POINT('Vertex',(-188.000000002,0.000564531428877,-124.999999892)) ;
#311=CARTESIAN_POINT('Axis2P3D Location',(-200.000000002,0.000564592543013,-124.999999997)) ;
#321=CARTESIAN_POINT('Axis2P3D Location',(25.,0.000792565219234,-173.826993578)) ;
#326=CARTESIAN_POINT('Line Origine',(29.6652986529,4.00075537666,-165.906869379)) ;
#330=CARTESIAN_POINT('Vertex',(29.6652986732,8.00075537662,-165.906850609)) ;
#333=CARTESIAN_POINT('Line Origine',(59.1407951592,8.00052041849,-115.867387302)) ;
#337=CARTESIAN_POINT('Vertex',(88.6162916452,8.00028546036,-65.8279239941)) ;
#340=CARTESIAN_POINT('Line Origine',(88.6162916248,4.0002854604,-65.8279427639)) ;
#352=CARTESIAN_POINT('Axis2P3D Location',(80.0000000204,4.00026168826,-60.7525591343)) ;
#357=CARTESIAN_POINT('Axis2P3D Location',(80.0000000407,8.00026168822,-60.7525403645)) ;
#361=CARTESIAN_POINT('Vertex',(90.0000000407,8.00026163729,-60.7525403645)) ;
#364=CARTESIAN_POINT('Line Origine',(90.0000000204,4.00026163733,-60.7525591343)) ;
#376=CARTESIAN_POINT('Axis2P3D Location',(90.,0.000164256803794,-39.9999999997)) ;
#381=CARTESIAN_POINT('Line Origine',(90.0000000407,8.000212947,-50.3762514123)) ;
#385=CARTESIAN_POINT('Vertex',(90.0000000407,8.00016425672,-39.99996246)) ;
#388=CARTESIAN_POINT('Line Origine',(90.0000000204,4.00016425676,-39.9999812298)) ;
#400=CARTESIAN_POINT('Axis2P3D Location',(80.0000000204,4.00016430769,-39.9999812298)) ;
#405=CARTESIAN_POINT('Axis2P3D Location',(80.0000000407,8.00016430764,-39.99996246)) ;
#409=CARTESIAN_POINT('Vertex',(86.7938629983,8.0001298407,-32.662154469)) ;
#412=CARTESIAN_POINT('Line Origine',(86.7938629779,4.00012984074,-32.6621732388)) ;
#424=CARTESIAN_POINT('Axis2P3D Location',(23.7785694971,-0.000143617215077,25.6822824658)) ;
#429=CARTESIAN_POINT('Line Origine',(55.2862162681,7.9999931117,-3.48991723171)) ;
#433=CARTESIAN_POINT('Vertex',(23.7785695378,7.9998563827,25.6823200055)) ;
#436=CARTESIAN_POINT('Line Origine',(23.7785695175,3.99985638274,25.6823012357)) ;
#448=CARTESIAN_POINT('Axis2P3D Location',(2.03710971304E-008,3.99997701684,1.8769719268E-005)) ;
#453=CARTESIAN_POINT('Axis2P3D Location',(4.07423113093E-008,7.9999770168,3.75395463832E-005)) ;
#457=CARTESIAN_POINT('Vertex',(-30.9389817606,7.99990038716,16.3640042068)) ;
#460=CARTESIAN_POINT('Line Origine',(-30.938981781,3.9999003872,16.363985437)) ;
#472=CARTESIAN_POINT('Axis2P3D Location',(-207.732958953,3.99946250173,109.87275313)) ;
#477=CARTESIAN_POINT('Axis2P3D Location',(-207.732958933,7.99946250168,109.8727719)) ;
#481=CARTESIAN_POINT('Vertex',(-201.151770697,8.00040045128,-90.0189186745)) ;
#484=CARTESIAN_POINT('Line Origine',(-201.151770717,4.00040045133,-90.0189374443)) ;
#496=CARTESIAN_POINT('Axis2P3D Location',(-199.999999982,4.0005645925,-124.999981227)) ;
#501=CARTESIAN_POINT('Axis2P3D Location',(-199.999999962,8.00056459245,-124.999962458)) ;
#505=CARTESIAN_POINT('Vertex',(-202.136698845,8.00072853299,-159.934680402)) ;
#508=CARTESIAN_POINT('Line Origine',(-202.136698866,4.00072853303,-159.934699172)) ;
#520=CARTESIAN_POINT('Axis2P3D Location',(-202.136698886,0.000728533078837,-159.934717942)) ;
#525=CARTESIAN_POINT('Line Origine',(15.8251331532,4.00078997869,-173.265815911)) ;
#529=CARTESIAN_POINT('Vertex',(15.8251331736,8.00078997864,-173.265797141)) ;
#532=CARTESIAN_POINT('Line Origine',(-93.1557828359,8.00075925582,-166.600238771)) ;
#544=CARTESIAN_POINT('Axis2P3D Location',(-2.03713410585E-008,-4.00002298307,-1.87699349592E-005)) ;
#549=CARTESIAN_POINT('Line Origine',(-11.4999999618,7.49997707537,3.5193318353E-005)) ;
#553=CARTESIAN_POINT('Vertex',(-11.9999999593,7.99997707791,3.75395467883E-005)) ;
#555=CARTESIAN_POINT('Vertex',(-10.9999999644,6.99997707283,3.28470899508E-005)) ;
#558=CARTESIAN_POINT('Axis2P3D Location',(3.56495073461E-008,6.99997701681,3.28470896065E-005)) ;
#562=CARTESIAN_POINT('Vertex',(11.0000000356,6.99997696079,3.28470892398E-005)) ;
#565=CARTESIAN_POINT('Line Origine',(11.5000000382,7.49997695824,3.519331761E-005)) ;
#569=CARTESIAN_POINT('Vertex',(12.0000000407,7.99997695568,3.76448145334E-005)) ;
#572=CARTESIAN_POINT('Axis2P3D Location',(4.07423117466E-008,7.9999770168,3.75395463852E-005)) ;
#584=CARTESIAN_POINT('Axis2P3D Location',(-2.03713490521E-008,-4.00002298307,-1.87699349601E-005)) ;
#589=CARTESIAN_POINT('Axis2P3D Location',(3.56495091225E-008,6.99997701681,3.28470896056E-005)) ;
#594=CARTESIAN_POINT('Axis2P3D Location',(4.07423144111E-008,7.9999770168,3.75395463843E-005)) ;
#606=CARTESIAN_POINT('Axis2P3D Location',(-35.0000000206,-3.99938932316,-135.000018768)) ;
#611=CARTESIAN_POINT('Line Origine',(-46.499999962,7.50061073528,-134.999964805)) ;
#615=CARTESIAN_POINT('Vertex',(-46.9999999594,8.00061073782,-134.999962459)) ;
#617=CARTESIAN_POINT('Vertex',(-45.9999999645,7.00061073274,-134.999967151)) ;
#620=CARTESIAN_POINT('Axis2P3D Location',(-34.9999999645,7.00061067672,-134.999967151)) ;
#624=CARTESIAN_POINT('Vertex',(-23.9999999645,7.0006106207,-134.999967151)) ;
#627=CARTESIAN_POINT('Line Origine',(-23.499999962,7.50061061815,-134.999964805)) ;
#631=CARTESIAN_POINT('Vertex',(-22.9999999594,8.0006106156,-134.999962354)) ;
#634=CARTESIAN_POINT('Axis2P3D Location',(-34.9999999594,8.00061067671,-134.999962459)) ;
#646=CARTESIAN_POINT('Axis2P3D Location',(-35.0000000206,-3.99938932316,-135.000018768)) ;
#651=CARTESIAN_POINT('Axis2P3D Location',(-34.9999999645,7.00061067672,-134.999967151)) ;
#656=CARTESIAN_POINT('Axis2P3D Location',(-34.9999999594,8.00061067671,-134.999962459)) ;
#668=CARTESIAN_POINT('Axis2P3D Location',(-200.000000023,-3.99943540741,-125.000018767)) ;
#673=CARTESIAN_POINT('Line Origine',(-211.499999964,7.50056465103,-124.999964804)) ;
#677=CARTESIAN_POINT('Vertex',(-211.999999962,8.00056465357,-124.999962458)) ;
#679=CARTESIAN_POINT('Vertex',(-210.999999967,7.00056464849,-124.99996715)) ;
#682=CARTESIAN_POINT('Axis2P3D Location',(-199.999999967,7.00056459247,-124.99996715)) ;
#686=CARTESIAN_POINT('Vertex',(-188.999999967,7.00056453645,-124.99996715)) ;
#689=CARTESIAN_POINT('Line Origine',(-188.499999964,7.50056453389,-124.999964804)) ;
#693=CARTESIAN_POINT('Vertex',(-187.999999962,8.00056453134,-124.999962352)) ;
#696=CARTESIAN_POINT('Axis2P3D Location',(-199.999999962,8.00056459245,-124.999962458)) ;
#708=CARTESIAN_POINT('Axis2P3D Location',(-200.000000023,-3.99943540741,-125.000018767)) ;
#713=CARTESIAN_POINT('Axis2P3D Location',(-199.999999967,7.00056459247,-124.99996715)) ;
#718=CARTESIAN_POINT('Axis2P3D Location',(-199.999999962,8.00056459245,-124.999962458)) ;
#730=CARTESIAN_POINT('Axis2P3D Location',(2.03710971304E-008,3.99997701684,1.8769719268E-005)) ;
#735=CARTESIAN_POINT('Axis2P3D Location',(5.09268649624E-009,0.999977016874,4.69234893154E-006)) ;
#739=CARTESIAN_POINT('Vertex',(-10.9999999949,0.999977072895,4.69234927796E-006)) ;
#741=CARTESIAN_POINT('Vertex',(11.0000000051,0.999976960853,4.69234856692E-006)) ;
#744=CARTESIAN_POINT('Line Origine',(11.0000000204,3.99997696082,1.87697189034E-005)) ;
#749=CARTESIAN_POINT('Line Origine',(-10.9999999796,3.99997707286,1.87697196117E-005)) ;
#761=CARTESIAN_POINT('Axis2P3D Location',(5.09268649624E-009,0.999977016874,4.69234893154E-006)) ;
#773=CARTESIAN_POINT('Axis2P3D Location',(-34.9999999798,4.00061067675,-134.999981229)) ;
#778=CARTESIAN_POINT('Line Origine',(-45.9999999798,4.00061073278,-134.999981229)) ;
#782=CARTESIAN_POINT('Vertex',(-45.9999999951,1.00061073281,-134.999995306)) ;
#785=CARTESIAN_POINT('Axis2P3D Location',(-34.9999999951,1.00061067679,-134.999995306)) ;
#789=CARTESIAN_POINT('Vertex',(-23.9999999951,1.00061062077,-134.999995306)) ;
#792=CARTESIAN_POINT('Line Origine',(-23.9999999798,4.00061062073,-134.999981229)) ;
#804=CARTESIAN_POINT('Axis2P3D Location',(-34.9999999951,1.00061067679,-134.999995306)) ;
#816=CARTESIAN_POINT('Axis2P3D Location',(-199.999999982,4.0005645925,-124.999981227)) ;
#821=CARTESIAN_POINT('Axis2P3D Location',(-199.999999997,1.00056459253,-124.999995305)) ;
#825=CARTESIAN_POINT('Vertex',(-210.999999997,1.00056464855,-124.999995305)) ;
#827=CARTESIAN_POINT('Vertex',(-188.999999997,1.00056453651,-124.999995305)) ;
#830=CARTESIAN_POINT('Line Origine',(-188.999999982,4.00056453648,-124.999981227)) ;
#835=CARTESIAN_POINT('Line Origine',(-210.999999982,4.00056464852,-124.999981227)) ;
#847=CARTESIAN_POINT('Axis2P3D Location',(-199.999999997,1.00056459253,-124.999995305)) ;
#859=CARTESIAN_POINT('Axis2P3D Location',(-199.999999941,12.0005645924,-124.999943688)) ;
#864=CARTESIAN_POINT('Line Origine',(-188.5,0.500564533969,-124.999997244)) ;
#869=CARTESIAN_POINT('Line Origine',(-211.5,0.500564651105,-124.999997651)) ;
#881=CARTESIAN_POINT('Axis2P3D Location',(-199.999999941,12.0005645924,-124.999943688)) ;
#893=CARTESIAN_POINT('Axis2P3D Location',(-34.9999999391,12.0006106767,-134.999943689)) ;
#898=CARTESIAN_POINT('Line Origine',(-23.4999999976,0.500610618226,-134.999997664)) ;
#903=CARTESIAN_POINT('Line Origine',(-46.4999999976,0.50061073536,-134.999997652)) ;
#915=CARTESIAN_POINT('Axis2P3D Location',(-34.9999999391,12.0006106767,-134.999943689)) ;
#927=CARTESIAN_POINT('Axis2P3D Location',(6.11134556294E-008,11.9999770168,5.63093734689E-005)) ;
#932=CARTESIAN_POINT('Line Origine',(11.5000000025,0.49997695831,2.75311681897E-006)) ;
#937=CARTESIAN_POINT('Line Origine',(-11.4999999975,0.499977075447,2.34612090733E-006)) ;
#949=CARTESIAN_POINT('Axis2P3D Location',(6.1113523131E-008,11.9999770168,5.63093735213E-005)) ;
#961=CARTESIAN_POINT('Axis2P3D Location',(13.0000000402,7.90065735682,-144.999962928)) ;
#966=CARTESIAN_POINT('Line Origine',(10.0833543759,4.00066484858,-146.593352006)) ;
#970=CARTESIAN_POINT('Vertex',(10.0833543963,8.0006648485,-146.593333236)) ;
#973=CARTESIAN_POINT('Line Origine',(15.9166456648,4.00064986523,-143.406610451)) ;
#977=CARTESIAN_POINT('Vertex',(15.9166456852,8.00064986515,-143.406591681)) ;
#980=CARTESIAN_POINT('Axis2P3D Location',(13.0000000407,8.00065735682,-144.999962459)) ;
#992=CARTESIAN_POINT('Axis2P3D Location',(13.0000000407,8.00065735682,-144.999962459)) ;
#1004=CARTESIAN_POINT('Axis2P3D Location',(13.0000000402,7.90065735682,-114.999962928)) ;
#1009=CARTESIAN_POINT('Line Origine',(10.0833543759,4.00066484858,-116.593352006)) ;
#1013=CARTESIAN_POINT('Vertex',(10.0833543963,8.0006648485,-116.593333236)) ;
#1016=CARTESIAN_POINT('Line Origine',(15.9166456648,4.00064986523,-113.406610451)) ;
#1020=CARTESIAN_POINT('Vertex',(15.9166456852,8.00064986515,-113.406591681)) ;
#1023=CARTESIAN_POINT('Axis2P3D Location',(13.0000000407,8.00065735682,-114.999962459)) ;
#1027=CARTESIAN_POINT('Vertex',(16.3235000407,8.00051656619,-114.99996246)) ;
#1030=CARTESIAN_POINT('Axis2P3D Location',(13.0000000407,8.00065735682,-114.999962459)) ;
#1034=CARTESIAN_POINT('Vertex',(13.0000000407,8.0005321785,-118.323462459)) ;
#1037=CARTESIAN_POINT('Axis2P3D Location',(13.0000000407,8.00065735682,-114.999962459)) ;
#1053=CARTESIAN_POINT('Axis2P3D Location',(13.0000000407,8.00065735682,-114.999962459)) ;
#1057=CARTESIAN_POINT('Vertex',(9.67650004074,8.00051660005,-114.99996246)) ;
#1060=CARTESIAN_POINT('Axis2P3D Location',(13.0000000407,8.00065735682,-114.999962459)) ;
#1064=CARTESIAN_POINT('Vertex',(13.0000000407,8.00050098774,-111.67646246)) ;
#1067=CARTESIAN_POINT('Axis2P3D Location',(13.0000000407,8.00065735682,-114.999962459)) ;
#1083=CARTESIAN_POINT('Axis2P3D Location',(33.0000000407,8.00021616403,-50.9999624599)) ;
#1088=CARTESIAN_POINT('Line Origine',(29.6765000204,4.00021618104,-50.9999812297)) ;
#1092=CARTESIAN_POINT('Vertex',(29.6765000407,8.00021618096,-50.9999624599)) ;
#1095=CARTESIAN_POINT('Line Origine',(36.3235000204,4.00021614719,-50.9999812297)) ;
#1099=CARTESIAN_POINT('Vertex',(36.3235000407,8.0002161471,-50.9999624599)) ;
#1102=CARTESIAN_POINT('Axis2P3D Location',(33.0000000407,8.00021616403,-50.9999624599)) ;
#1114=CARTESIAN_POINT('Axis2P3D Location',(33.0000000407,8.00021616403,-50.9999624599)) ;
#1126=CARTESIAN_POINT('Axis2P3D Location',(16.7408612463,4.00071971846,-158.293793935)) ;
#1131=CARTESIAN_POINT('Axis2P3D Location',(16.7408612666,8.00071971841,-158.293775165)) ;
#1143=CARTESIAN_POINT('Axis2P3D Location',(4.07423113093E-008,7.9999770168,3.75395463832E-005)) ;
#8=PRODUCT_RELATED_PRODUCT_CATEGORY('part',$,(#5)) ;
#30=PRESENTATION_LAYER_ASSIGNMENT('0',' ',(#21)) ;
#29=STYLED_ITEM(' ',(#28),#21) ;
#28=PRESENTATION_STYLE_ASSIGNMENT((#27)) ;
#27=SURFACE_STYLE_USAGE(.BOTH.,#26) ;
#26=SURFACE_SIDE_STYLE(' ',(#25)) ;
#25=SURFACE_STYLE_FILL_AREA(#24) ;
#24=FILL_AREA_STYLE(' ',(#23)) ;
#23=FILL_AREA_STYLE_COLOUR(' ',#22) ;
#39=VECTOR('Line Direction',#38,1.) ;
#55=VECTOR('Line Direction',#54,1.) ;
#96=VECTOR('Line Direction',#95,1.) ;
#112=VECTOR('Line Direction',#111,1.) ;
#126=VECTOR('Line Direction',#125,1.) ;
#154=VECTOR('Line Direction',#153,1.) ;
#328=VECTOR('Line Direction',#327,1.) ;
#335=VECTOR('Line Direction',#334,1.) ;
#342=VECTOR('Line Direction',#341,1.) ;
#366=VECTOR('Line Direction',#365,1.) ;
#383=VECTOR('Line Direction',#382,1.) ;
#390=VECTOR('Line Direction',#389,1.) ;
#414=VECTOR('Line Direction',#413,1.) ;
#431=VECTOR('Line Direction',#430,1.) ;
#438=VECTOR('Line Direction',#437,1.) ;
#462=VECTOR('Line Direction',#461,1.) ;
#486=VECTOR('Line Direction',#485,1.) ;
#510=VECTOR('Line Direction',#509,1.) ;
#527=VECTOR('Line Direction',#526,1.) ;
#534=VECTOR('Line Direction',#533,1.) ;
#551=VECTOR('Line Direction',#550,1.) ;
#567=VECTOR('Line Direction',#566,1.) ;
#613=VECTOR('Line Direction',#612,1.) ;
#629=VECTOR('Line Direction',#628,1.) ;
#675=VECTOR('Line Direction',#674,1.) ;
#691=VECTOR('Line Direction',#690,1.) ;
#746=VECTOR('Line Direction',#745,1.) ;
#751=VECTOR('Line Direction',#750,1.) ;
#780=VECTOR('Line Direction',#779,1.) ;
#794=VECTOR('Line Direction',#793,1.) ;
#832=VECTOR('Line Direction',#831,1.) ;
#837=VECTOR('Line Direction',#836,1.) ;
#866=VECTOR('Line Direction',#865,1.) ;
#871=VECTOR('Line Direction',#870,1.) ;
#900=VECTOR('Line Direction',#899,1.) ;
#905=VECTOR('Line Direction',#904,1.) ;
#934=VECTOR('Line Direction',#933,1.) ;
#939=VECTOR('Line Direction',#938,1.) ;
#968=VECTOR('Line Direction',#967,1.) ;
#975=VECTOR('Line Direction',#974,1.) ;
#1011=VECTOR('Line Direction',#1010,1.) ;
#1018=VECTOR('Line Direction',#1017,1.) ;
#1090=VECTOR('Line Direction',#1089,1.) ;
#1097=VECTOR('Line Direction',#1096,1.) ;
#33=DIRECTION('Axis2P3D Direction',(-5.09280354473E-009,-0.999999999989,-4.69245677881E-006)) ;
#34=DIRECTION('Axis2P3D XDirection',(1.,-5.09280354472E-009,-1.32396194803E-014)) ;
#38=DIRECTION('Vector Direction',(-5.09280415536E-009,-0.999999999989,-4.69245677886E-006)) ;
#47=DIRECTION('Axis2P3D Direction',(-5.09280354473E-009,-0.999999999989,-4.69245677881E-006)) ;
#54=DIRECTION('Vector Direction',(-5.09280415536E-009,-0.999999999989,-4.69245677886E-006)) ;
#61=DIRECTION('Axis2P3D Direction',(-5.09280354473E-009,-0.999999999989,-4.69245677881E-006)) ;
#73=DIRECTION('Axis2P3D Direction',(-5.09280354473E-009,-0.999999999989,-4.69245677881E-006)) ;
#78=DIRECTION('Axis2P3D Direction',(-5.09280354473E-009,-0.999999999989,-4.69245677881E-006)) ;
#90=DIRECTION('Axis2P3D Direction',(-5.09280354473E-009,-0.999999999989,-4.69245677881E-006)) ;
#91=DIRECTION('Axis2P3D XDirection',(-1.,5.09280354467E-009,2.38977605166E-014)) ;
#95=DIRECTION('Vector Direction',(0.507538362961,-4.04574238791E-006,0.861629160432)) ;
#104=DIRECTION('Axis2P3D Direction',(-5.09280354473E-009,-0.999999999989,-4.69245677881E-006)) ;
#111=DIRECTION('Vector Direction',(0.,4.69245677881E-006,-0.999999999989)) ;
#118=DIRECTION('Axis2P3D Direction',(-5.09280354473E-009,-0.999999999989,-4.69245677881E-006)) ;
#125=DIRECTION('Vector Direction',(0.733778201866,3.1842670039E-006,-0.679389100925)) ;
#132=DIRECTION('Axis2P3D Direction',(-5.09280354473E-009,-0.999999999989,-4.69245677881E-006)) ;
#139=DIRECTION('Axis2P3D Direction',(-5.09280354473E-009,-0.999999999989,-4.69245677881E-006)) ;
#146=DIRECTION('Axis2P3D Direction',(-5.09280354473E-009,-0.999999999989,-4.69245677881E-006)) ;
#153=DIRECTION('Vector Direction',(0.998134798422,2.81384328737E-007,-0.0610485395342)) ;
#160=DIRECTION('Axis2P3D Direction',(-5.09280354473E-009,-0.999999999989,-4.69245677881E-006)) ;
#181=DIRECTION('Axis2P3D Direction',(-5.09280354473E-009,-0.999999999989,-4.69245677881E-006)) ;
#190=DIRECTION('Axis2P3D Direction',(-5.09280354473E-009,-0.999999999989,-4.69245677881E-006)) ;
#199=DIRECTION('Axis2P3D Direction',(-5.09280354473E-009,-0.999999999989,-4.69245677881E-006)) ;
#208=DIRECTION('Axis2P3D Direction',(-5.09280354473E-009,-0.999999999989,-4.69245677881E-006)) ;
#215=DIRECTION('Axis2P3D Direction',(-5.09280354473E-009,-0.999999999989,-4.69245677881E-006)) ;
#222=DIRECTION('Axis2P3D Direction',(-5.09280354473E-009,-0.999999999989,-4.69245677881E-006)) ;
#229=DIRECTION('Axis2P3D Direction',(-5.09280354473E-009,-0.999999999989,-4.69245677881E-006)) ;
#236=DIRECTION('Axis2P3D Direction',(-5.09280354473E-009,-0.999999999989,-4.69245677881E-006)) ;
#249=DIRECTION('Axis2P3D Direction',(-5.09280354473E-009,-0.999999999989,-4.69245677881E-006)) ;
#258=DIRECTION('Axis2P3D Direction',(-5.09280354473E-009,-0.999999999989,-4.69245677881E-006)) ;
#267=DIRECTION('Axis2P3D Direction',(-5.09280354473E-009,-0.999999999989,-4.69245677881E-006)) ;
#276=DIRECTION('Axis2P3D Direction',(-5.09280354473E-009,-0.999999999989,-4.69245677881E-006)) ;
#285=DIRECTION('Axis2P3D Direction',(-5.09280354473E-009,-0.999999999989,-4.69245677881E-006)) ;
#294=DIRECTION('Axis2P3D Direction',(-5.09280354473E-009,-0.999999999989,-4.69245677881E-006)) ;
#303=DIRECTION('Axis2P3D Direction',(-5.09280354473E-009,-0.999999999989,-4.69245677881E-006)) ;
#312=DIRECTION('Axis2P3D Direction',(-5.09280354473E-009,-0.999999999989,-4.69245677881E-006)) ;
#322=DIRECTION('Axis2P3D Direction',(-0.861629160442,-2.37721372374E-006,0.507538362955)) ;
#323=DIRECTION('Axis2P3D XDirection',(0.507538362961,-4.04574238791E-006,0.861629160432)) ;
#327=DIRECTION('Vector Direction',(5.09280351224E-009,0.999999999989,4.69245678048E-006)) ;
#334=DIRECTION('Vector Direction',(0.507538362961,-4.04574238792E-006,0.861629160432)) ;
#341=DIRECTION('Vector Direction',(5.09280440042E-009,0.999999999989,4.6924567787E-006)) ;
#353=DIRECTION('Axis2P3D Direction',(-5.09280354473E-009,-0.999999999989,-4.69245677881E-006)) ;
#354=DIRECTION('Axis2P3D XDirection',(0.861629160442,2.37721372374E-006,-0.507538362955)) ;
#358=DIRECTION('Axis2P3D Direction',(-5.09280354473E-009,-0.999999999989,-4.69245677881E-006)) ;
#365=DIRECTION('Vector Direction',(-5.09280440042E-009,-0.999999999989,-4.6924567787E-006)) ;
#377=DIRECTION('Axis2P3D Direction',(1.,-5.09280354467E-009,-2.38977605166E-014)) ;
#378=DIRECTION('Axis2P3D XDirection',(5.29698865426E-030,4.69245677881E-006,-0.999999999989)) ;
#382=DIRECTION('Vector Direction',(0.,4.69245677886E-006,-0.999999999989)) ;
#389=DIRECTION('Vector Direction',(5.09280440042E-009,0.999999999989,4.6924567787E-006)) ;
#401=DIRECTION('Axis2P3D Direction',(-5.09280354473E-009,-0.999999999989,-4.69245677881E-006)) ;
#402=DIRECTION('Axis2P3D XDirection',(1.,-5.09280354467E-009,-2.40202251965E-014)) ;
#406=DIRECTION('Axis2P3D Direction',(-5.09280354473E-009,-0.999999999989,-4.69245677881E-006)) ;
#413=DIRECTION('Vector Direction',(-5.09280440042E-009,-0.999999999989,-4.6924567787E-006)) ;
#425=DIRECTION('Axis2P3D Direction',(0.679389100933,-3.44668249271E-006,0.733778201858)) ;
#426=DIRECTION('Axis2P3D XDirection',(0.733778201866,3.1842670039E-006,-0.679389100925)) ;
#430=DIRECTION('Vector Direction',(0.733778201866,3.18426700389E-006,-0.679389100925)) ;
#437=DIRECTION('Vector Direction',(5.09280351224E-009,0.999999999989,4.6924567787E-006)) ;
#449=DIRECTION('Axis2P3D Direction',(-5.09280354473E-009,-0.999999999989,-4.69245677881E-006)) ;
#450=DIRECTION('Axis2P3D XDirection',(0.679387699916,-3.44668857248E-006,0.733779499026)) ;
#454=DIRECTION('Axis2P3D Direction',(-5.09280354473E-009,-0.999999999989,-4.69245677881E-006)) ;
#461=DIRECTION('Vector Direction',(-5.09280351224E-009,-0.999999999989,-4.6924567787E-006)) ;
#473=DIRECTION('Axis2P3D Direction',(-5.09280354473E-009,-0.999999999989,-4.69245677881E-006)) ;
#474=DIRECTION('Axis2P3D XDirection',(0.0329059411811,4.68974800887E-006,-0.99945845287)) ;
#478=DIRECTION('Axis2P3D Direction',(-5.09280354473E-009,-0.999999999989,-4.69245677881E-006)) ;
#485=DIRECTION('Vector Direction',(-5.09280084771E-009,-0.999999999989,-4.69245678048E-006)) ;
#497=DIRECTION('Axis2P3D Direction',(-5.09280354473E-009,-0.999999999989,-4.69245677881E-006)) ;
#498=DIRECTION('Axis2P3D XDirection',(-0.0329077352939,-4.68974772254E-006,0.999458393799)) ;
#502=DIRECTION('Axis2P3D Direction',(-5.09280354473E-009,-0.999999999989,-4.69245677881E-006)) ;
#509=DIRECTION('Vector Direction',(-5.09280084771E-009,-0.999999999989,-4.69245678048E-006)) ;
#521=DIRECTION('Axis2P3D Direction',(0.0610485395349,-4.68401530924E-006,0.998134798411)) ;
#522=DIRECTION('Axis2P3D XDirection',(0.998134798422,2.81384328737E-007,-0.0610485395342)) ;
#526=DIRECTION('Vector Direction',(5.09280351224E-009,0.999999999989,4.69245678048E-006)) ;
#533=DIRECTION('Vector Direction',(0.998134798422,2.8138432873E-007,-0.0610485395342)) ;
#545=DIRECTION('Axis2P3D Direction',(5.09280440042E-009,0.999999999989,4.6924567787E-006)) ;
#546=DIRECTION('Axis2P3D XDirection',(-1.,5.09280373847E-009,3.20941883517E-014)) ;
#550=DIRECTION('Vector Direction',(-0.707106777585,0.70710678478,3.3180680306E-006)) ;
#559=DIRECTION('Axis2P3D Direction',(-5.09280351234E-009,-0.999999999989,-4.6924567787E-006)) ;
#566=DIRECTION('Vector Direction',(0.707106784788,0.707106777578,3.31806798492E-006)) ;
#573=DIRECTION('Axis2P3D Direction',(-5.09280351234E-009,-0.999999999989,-4.6924567787E-006)) ;
#585=DIRECTION('Axis2P3D Direction',(5.0928052886E-009,0.999999999989,4.6924567787E-006)) ;
#586=DIRECTION('Axis2P3D XDirection',(0.999329488413,1.66719490169E-007,-0.0366138442065)) ;
#590=DIRECTION('Axis2P3D Direction',(-5.09280357298E-009,-0.999999999989,-4.69245677876E-006)) ;
#595=DIRECTION('Axis2P3D Direction',(-5.09280357298E-009,-0.999999999989,-4.69245677876E-006)) ;
#607=DIRECTION('Axis2P3D Direction',(5.09280084771E-009,0.999999999989,4.69245679824E-006)) ;
#608=DIRECTION('Axis2P3D XDirection',(-1.,5.09280011647E-009,2.84216780311E-014)) ;
#612=DIRECTION('Vector Direction',(-0.707106777585,0.70710678478,3.31806804256E-006)) ;
#621=DIRECTION('Axis2P3D Direction',(-5.09280351232E-009,-0.999999999989,-4.69245679824E-006)) ;
#628=DIRECTION('Vector Direction',(0.707106784788,0.707106777578,3.31806800236E-006)) ;
#635=DIRECTION('Axis2P3D Direction',(-5.09280351232E-009,-0.999999999989,-4.69245679824E-006)) ;
#647=DIRECTION('Axis2P3D Direction',(5.09280084771E-009,0.999999999989,4.69245676982E-006)) ;
#648=DIRECTION('Axis2P3D XDirection',(0.905373843966,1.98787832404E-006,-0.42461535848)) ;
#652=DIRECTION('Axis2P3D Direction',(-5.09279955009E-009,-0.999999999989,-4.69245677043E-006)) ;
#657=DIRECTION('Axis2P3D Direction',(-5.09279955009E-009,-0.999999999989,-4.69245677043E-006)) ;
#669=DIRECTION('Axis2P3D Direction',(5.09280084771E-009,0.999999999989,4.69245676982E-006)) ;
#670=DIRECTION('Axis2P3D XDirection',(-1.,5.09280011647E-009,3.19743978336E-014)) ;
#674=DIRECTION('Vector Direction',(-0.707106777585,0.70710678478,3.31806802246E-006)) ;
#683=DIRECTION('Axis2P3D Direction',(-5.09280366036E-009,-0.999999999989,-4.69245676982E-006)) ;
#690=DIRECTION('Vector Direction',(0.707106784788,0.707106777578,3.31806798227E-006)) ;
#697=DIRECTION('Axis2P3D Direction',(-5.09280366036E-009,-0.999999999989,-4.69245676982E-006)) ;
#709=DIRECTION('Axis2P3D Direction',(5.09280084771E-009,0.999999999989,4.69245678403E-006)) ;
#710=DIRECTION('Axis2P3D XDirection',(0.905373844019,1.98787832947E-006,-0.424615358368)) ;
#714=DIRECTION('Axis2P3D Direction',(-5.09280507286E-009,-0.999999999989,-4.69245678205E-006)) ;
#719=DIRECTION('Axis2P3D Direction',(-5.09280507286E-009,-0.999999999989,-4.69245678205E-006)) ;
#731=DIRECTION('Axis2P3D Direction',(-5.09280354473E-009,-0.999999999989,-4.69245677881E-006)) ;
#732=DIRECTION('Axis2P3D XDirection',(-1.,5.09280354464E-009,3.1248117234E-014)) ;
#736=DIRECTION('Axis2P3D Direction',(-5.09280354473E-009,-0.999999999989,-4.69245677881E-006)) ;
#745=DIRECTION('Vector Direction',(-5.09280351224E-009,-0.999999999989,-4.69245677881E-006)) ;
#750=DIRECTION('Vector Direction',(-5.09280351224E-009,-0.999999999989,-4.69245677881E-006)) ;
#762=DIRECTION('Axis2P3D Direction',(-5.09280354473E-009,-0.999999999989,-4.69245677881E-006)) ;
#774=DIRECTION('Axis2P3D Direction',(-5.09280354473E-009,-0.999999999989,-4.69245677881E-006)) ;
#775=DIRECTION('Axis2P3D XDirection',(-1.,5.09280354464E-009,3.1248117234E-014)) ;
#779=DIRECTION('Vector Direction',(-5.09280440042E-009,-0.999999999989,-4.69245677692E-006)) ;
#786=DIRECTION('Axis2P3D Direction',(-5.09280354473E-009,-0.999999999989,-4.69245677881E-006)) ;
#793=DIRECTION('Vector Direction',(-5.09280440042E-009,-0.999999999989,-4.69245677692E-006)) ;
#805=DIRECTION('Axis2P3D Direction',(-5.09280354473E-009,-0.999999999989,-4.69245677881E-006)) ;
#817=DIRECTION('Axis2P3D Direction',(-5.09280354473E-009,-0.999999999989,-4.69245677881E-006)) ;
#818=DIRECTION('Axis2P3D XDirection',(-1.,5.09280354464E-009,3.1248117234E-014)) ;
#822=DIRECTION('Axis2P3D Direction',(-5.09280354473E-009,-0.999999999989,-4.69245677881E-006)) ;
#831=DIRECTION('Vector Direction',(-5.09280084771E-009,-0.999999999989,-4.69245678048E-006)) ;
#836=DIRECTION('Vector Direction',(-5.09280084771E-009,-0.999999999989,-4.69245678048E-006)) ;
#848=DIRECTION('Axis2P3D Direction',(-5.09280354473E-009,-0.999999999989,-4.69245677881E-006)) ;
#860=DIRECTION('Axis2P3D Direction',(-5.09282926942E-009,-0.999999999989,-4.69245678403E-006)) ;
#861=DIRECTION('Axis2P3D XDirection',(0.905373844019,1.98787830527E-006,-0.424615358368)) ;
#865=DIRECTION('Vector Direction',(0.707106777585,-0.70710678478,-3.29304278853E-006)) ;
#870=DIRECTION('Vector Direction',(-0.707106784788,-0.707106777578,-3.31806799231E-006)) ;
#882=DIRECTION('Axis2P3D Direction',(-5.09280084771E-009,-0.999999999989,-4.69245679824E-006)) ;
#883=DIRECTION('Axis2P3D XDirection',(-1.,5.0928015982E-009,3.19743777364E-014)) ;
#894=DIRECTION('Axis2P3D Direction',(-5.09280795313E-009,-0.999999999989,-4.69245676982E-006)) ;
#895=DIRECTION('Axis2P3D XDirection',(0.999329488414,1.66719488029E-007,-0.0366138441985)) ;
#899=DIRECTION('Vector Direction',(0.707106777585,-0.70710678478,-3.31875709459E-006)) ;
#904=DIRECTION('Vector Direction',(-0.707106784788,-0.707106777578,-3.31806800236E-006)) ;
#916=DIRECTION('Axis2P3D Direction',(-5.09280084771E-009,-0.999999999989,-4.69245679824E-006)) ;
#917=DIRECTION('Axis2P3D XDirection',(-1.,5.09280093965E-009,3.3158664564E-014)) ;
#928=DIRECTION('Axis2P3D Direction',(-5.09279729499E-009,-0.999999999989,-4.69245677603E-006)) ;
#929=DIRECTION('Axis2P3D XDirection',(0.905373843963,1.98787833145E-006,-0.424615358488)) ;
#933=DIRECTION('Vector Direction',(0.707106777585,-0.70710678478,-3.29304280486E-006)) ;
#938=DIRECTION('Vector Direction',(-0.707106784788,-0.707106777578,-3.31806798478E-006)) ;
#950=DIRECTION('Axis2P3D Direction',(-5.09280351224E-009,-0.999999999989,-4.69245678048E-006)) ;
#951=DIRECTION('Axis2P3D XDirection',(-1.,5.09280357383E-009,3.20188647361E-014)) ;
#962=DIRECTION('Axis2P3D Direction',(-5.09280354473E-009,-0.999999999989,-4.69245677881E-006)) ;
#963=DIRECTION('Axis2P3D XDirection',(0.87758256189,-2.25415297414E-006,0.479425538599)) ;
#967=DIRECTION('Vector Direction',(-5.09280346599E-009,-0.999999999989,-4.69245677922E-006)) ;
#974=DIRECTION('Vector Direction',(-5.09280346599E-009,-0.999999999989,-4.69245677922E-006)) ;
#981=DIRECTION('Axis2P3D Direction',(-5.09280354473E-009,-0.999999999989,-4.69245677881E-006)) ;
#993=DIRECTION('Axis2P3D Direction',(-5.09280354473E-009,-0.999999999989,-4.69245677881E-006)) ;
#1005=DIRECTION('Axis2P3D Direction',(-5.09280354473E-009,-0.999999999989,-4.69245677881E-006)) ;
#1006=DIRECTION('Axis2P3D XDirection',(0.87758256189,-2.25415297414E-006,0.479425538599)) ;
#1010=DIRECTION('Vector Direction',(-5.09280346599E-009,-0.999999999989,-4.69245677757E-006)) ;
#1017=DIRECTION('Vector Direction',(-5.09280346599E-009,-0.999999999989,-4.69245677757E-006)) ;
#1024=DIRECTION('Axis2P3D Direction',(-5.09280354473E-009,-0.999999999989,-4.69245677881E-006)) ;
#1031=DIRECTION('Axis2P3D Direction',(-5.09280354473E-009,-0.999999999989,-4.69245677881E-006)) ;
#1038=DIRECTION('Axis2P3D Direction',(-5.09280354473E-009,-0.999999999989,-4.69245677881E-006)) ;
#1054=DIRECTION('Axis2P3D Direction',(-5.09280354473E-009,-0.999999999989,-4.69245677881E-006)) ;
#1061=DIRECTION('Axis2P3D Direction',(-5.09280354473E-009,-0.999999999989,-4.69245677881E-006)) ;
#1068=DIRECTION('Axis2P3D Direction',(-5.09280354473E-009,-0.999999999989,-4.69245677881E-006)) ;
#1084=DIRECTION('Axis2P3D Direction',(-5.09280354473E-009,-0.999999999989,-4.69245677881E-006)) ;
#1085=DIRECTION('Axis2P3D XDirection',(1.,-5.09280354472E-009,-1.32396194803E-014)) ;
#1089=DIRECTION('Vector Direction',(-5.09280333125E-009,-0.999999999989,-4.69245677886E-006)) ;
#1096=DIRECTION('Vector Direction',(-5.09280333125E-009,-0.999999999989,-4.69245677886E-006)) ;
#1103=DIRECTION('Axis2P3D Direction',(-5.09280354473E-009,-0.999999999989,-4.69245677881E-006)) ;
#1115=DIRECTION('Axis2P3D Direction',(-5.09280354473E-009,-0.999999999989,-4.69245677881E-006)) ;
#1127=DIRECTION('Axis2P3D Direction',(5.09280356794E-009,0.999999999989,4.6924567788E-006)) ;
#1128=DIRECTION('Axis2P3D XDirection',(0.861629160442,2.37721372372E-006,-0.507538362955)) ;
#1132=DIRECTION('Axis2P3D Direction',(5.09280356794E-009,0.999999999989,4.6924567788E-006)) ;
#1144=DIRECTION('Axis2P3D Direction',(-5.09280354473E-009,-0.999999999989,-4.69245677881E-006)) ;
#1145=DIRECTION('Axis2P3D XDirection',(-1.,5.09280354467E-009,2.38977605166E-014)) ;
#15=UNCERTAINTY_MEASURE_WITH_UNIT(LENGTH_MEASURE(0.005),#12,'distance_accuracy_value','CONFUSED CURVE UNCERTAINTY') ;
#18=AXIS2_PLACEMENT_3D(' ',#17,$,$) ;
#35=AXIS2_PLACEMENT_3D('Cylinder Axis2P3D',#32,#33,#34) ;
#48=AXIS2_PLACEMENT_3D('Circle Axis2P3D',#46,#47,$) ;
#62=AXIS2_PLACEMENT_3D('Circle Axis2P3D',#60,#61,$) ;
#74=AXIS2_PLACEMENT_3D('Circle Axis2P3D',#72,#73,$) ;
#79=AXIS2_PLACEMENT_3D('Circle Axis2P3D',#77,#78,$) ;
#92=AXIS2_PLACEMENT_3D('Plane Axis2P3D',#89,#90,#91) ;
#105=AXIS2_PLACEMENT_3D('Circle Axis2P3D',#103,#104,$) ;
#119=AXIS2_PLACEMENT_3D('Circle Axis2P3D',#117,#118,$) ;
#133=AXIS2_PLACEMENT_3D('Circle Axis2P3D',#131,#132,$) ;
#140=AXIS2_PLACEMENT_3D('Circle Axis2P3D',#138,#139,$) ;
#147=AXIS2_PLACEMENT_3D('Circle Axis2P3D',#145,#146,$) ;
#161=AXIS2_PLACEMENT_3D('Circle Axis2P3D',#159,#160,$) ;
#182=AXIS2_PLACEMENT_3D('Circle Axis2P3D',#180,#181,$) ;
#191=AXIS2_PLACEMENT_3D('Circle Axis2P3D',#189,#190,$) ;
#200=AXIS2_PLACEMENT_3D('Circle Axis2P3D',#198,#199,$) ;
#209=AXIS2_PLACEMENT_3D('Circle Axis2P3D',#207,#208,$) ;
#216=AXIS2_PLACEMENT_3D('Circle Axis2P3D',#214,#215,$) ;
#223=AXIS2_PLACEMENT_3D('Circle Axis2P3D',#221,#222,$) ;
#230=AXIS2_PLACEMENT_3D('Circle Axis2P3D',#228,#229,$) ;
#237=AXIS2_PLACEMENT_3D('Circle Axis2P3D',#235,#236,$) ;
#250=AXIS2_PLACEMENT_3D('Circle Axis2P3D',#248,#249,$) ;
#259=AXIS2_PLACEMENT_3D('Circle Axis2P3D',#257,#258,$) ;
#268=AXIS2_PLACEMENT_3D('Circle Axis2P3D',#266,#267,$) ;
#277=AXIS2_PLACEMENT_3D('Circle Axis2P3D',#275,#276,$) ;
#286=AXIS2_PLACEMENT_3D('Circle Axis2P3D',#284,#285,$) ;
#295=AXIS2_PLACEMENT_3D('Circle Axis2P3D',#293,#294,$) ;
#304=AXIS2_PLACEMENT_3D('Circle Axis2P3D',#302,#303,$) ;
#313=AXIS2_PLACEMENT_3D('Circle Axis2P3D',#311,#312,$) ;
#324=AXIS2_PLACEMENT_3D('Plane Axis2P3D',#321,#322,#323) ;
#355=AXIS2_PLACEMENT_3D('Cylinder Axis2P3D',#352,#353,#354) ;
#359=AXIS2_PLACEMENT_3D('Circle Axis2P3D',#357,#358,$) ;
#379=AXIS2_PLACEMENT_3D('Plane Axis2P3D',#376,#377,#378) ;
#403=AXIS2_PLACEMENT_3D('Cylinder Axis2P3D',#400,#401,#402) ;
#407=AXIS2_PLACEMENT_3D('Circle Axis2P3D',#405,#406,$) ;
#427=AXIS2_PLACEMENT_3D('Plane Axis2P3D',#424,#425,#426) ;
#451=AXIS2_PLACEMENT_3D('Cylinder Axis2P3D',#448,#449,#450) ;
#455=AXIS2_PLACEMENT_3D('Circle Axis2P3D',#453,#454,$) ;
#475=AXIS2_PLACEMENT_3D('Cylinder Axis2P3D',#472,#473,#474) ;
#479=AXIS2_PLACEMENT_3D('Circle Axis2P3D',#477,#478,$) ;
#499=AXIS2_PLACEMENT_3D('Cylinder Axis2P3D',#496,#497,#498) ;
#503=AXIS2_PLACEMENT_3D('Circle Axis2P3D',#501,#502,$) ;
#523=AXIS2_PLACEMENT_3D('Plane Axis2P3D',#520,#521,#522) ;
#547=AXIS2_PLACEMENT_3D('Cone Axis2P3D',#544,#545,#546) ;
#560=AXIS2_PLACEMENT_3D('Circle Axis2P3D',#558,#559,$) ;
#574=AXIS2_PLACEMENT_3D('Circle Axis2P3D',#572,#573,$) ;
#587=AXIS2_PLACEMENT_3D('Cone Axis2P3D',#584,#585,#586) ;
#591=AXIS2_PLACEMENT_3D('Circle Axis2P3D',#589,#590,$) ;
#596=AXIS2_PLACEMENT_3D('Circle Axis2P3D',#594,#595,$) ;
#609=AXIS2_PLACEMENT_3D('Cone Axis2P3D',#606,#607,#608) ;
#622=AXIS2_PLACEMENT_3D('Circle Axis2P3D',#620,#621,$) ;
#636=AXIS2_PLACEMENT_3D('Circle Axis2P3D',#634,#635,$) ;
#649=AXIS2_PLACEMENT_3D('Cone Axis2P3D',#646,#647,#648) ;
#653=AXIS2_PLACEMENT_3D('Circle Axis2P3D',#651,#652,$) ;
#658=AXIS2_PLACEMENT_3D('Circle Axis2P3D',#656,#657,$) ;
#671=AXIS2_PLACEMENT_3D('Cone Axis2P3D',#668,#669,#670) ;
#684=AXIS2_PLACEMENT_3D('Circle Axis2P3D',#682,#683,$) ;
#698=AXIS2_PLACEMENT_3D('Circle Axis2P3D',#696,#697,$) ;
#711=AXIS2_PLACEMENT_3D('Cone Axis2P3D',#708,#709,#710) ;
#715=AXIS2_PLACEMENT_3D('Circle Axis2P3D',#713,#714,$) ;
#720=AXIS2_PLACEMENT_3D('Circle Axis2P3D',#718,#719,$) ;
#733=AXIS2_PLACEMENT_3D('Cylinder Axis2P3D',#730,#731,#732) ;
#737=AXIS2_PLACEMENT_3D('Circle Axis2P3D',#735,#736,$) ;
#763=AXIS2_PLACEMENT_3D('Circle Axis2P3D',#761,#762,$) ;
#776=AXIS2_PLACEMENT_3D('Cylinder Axis2P3D',#773,#774,#775) ;
#787=AXIS2_PLACEMENT_3D('Circle Axis2P3D',#785,#786,$) ;
#806=AXIS2_PLACEMENT_3D('Circle Axis2P3D',#804,#805,$) ;
#819=AXIS2_PLACEMENT_3D('Cylinder Axis2P3D',#816,#817,#818) ;
#823=AXIS2_PLACEMENT_3D('Circle Axis2P3D',#821,#822,$) ;
#849=AXIS2_PLACEMENT_3D('Circle Axis2P3D',#847,#848,$) ;
#862=AXIS2_PLACEMENT_3D('Cone Axis2P3D',#859,#860,#861) ;
#884=AXIS2_PLACEMENT_3D('Cone Axis2P3D',#881,#882,#883) ;
#896=AXIS2_PLACEMENT_3D('Cone Axis2P3D',#893,#894,#895) ;
#918=AXIS2_PLACEMENT_3D('Cone Axis2P3D',#915,#916,#917) ;
#930=AXIS2_PLACEMENT_3D('Cone Axis2P3D',#927,#928,#929) ;
#952=AXIS2_PLACEMENT_3D('Cone Axis2P3D',#949,#950,#951) ;
#964=AXIS2_PLACEMENT_3D('Cylinder Axis2P3D',#961,#962,#963) ;
#982=AXIS2_PLACEMENT_3D('Circle Axis2P3D',#980,#981,$) ;
#994=AXIS2_PLACEMENT_3D('Circle Axis2P3D',#992,#993,$) ;
#1007=AXIS2_PLACEMENT_3D('Cylinder Axis2P3D',#1004,#1005,#1006) ;
#1025=AXIS2_PLACEMENT_3D('Circle Axis2P3D',#1023,#1024,$) ;
#1032=AXIS2_PLACEMENT_3D('Circle Axis2P3D',#1030,#1031,$) ;
#1039=AXIS2_PLACEMENT_3D('Circle Axis2P3D',#1037,#1038,$) ;
#1055=AXIS2_PLACEMENT_3D('Circle Axis2P3D',#1053,#1054,$) ;
#1062=AXIS2_PLACEMENT_3D('Circle Axis2P3D',#1060,#1061,$) ;
#1069=AXIS2_PLACEMENT_3D('Circle Axis2P3D',#1067,#1068,$) ;
#1086=AXIS2_PLACEMENT_3D('Cylinder Axis2P3D',#1083,#1084,#1085) ;
#1104=AXIS2_PLACEMENT_3D('Circle Axis2P3D',#1102,#1103,$) ;
#1116=AXIS2_PLACEMENT_3D('Circle Axis2P3D',#1114,#1115,$) ;
#1129=AXIS2_PLACEMENT_3D('Cylinder Axis2P3D',#1126,#1127,#1128) ;
#1133=AXIS2_PLACEMENT_3D('Circle Axis2P3D',#1131,#1132,$) ;
#1146=AXIS2_PLACEMENT_3D('Plane Axis2P3D',#1143,#1144,#1145) ;
#40=LINE('Line',#37,#39) ;
#56=LINE('Line',#53,#55) ;
#97=LINE('Line',#94,#96) ;
#113=LINE('Line',#110,#112) ;
#127=LINE('Line',#124,#126) ;
#155=LINE('Line',#152,#154) ;
#329=LINE('Line',#326,#328) ;
#336=LINE('Line',#333,#335) ;
#343=LINE('Line',#340,#342) ;
#367=LINE('Line',#364,#366) ;
#384=LINE('Line',#381,#383) ;
#391=LINE('Line',#388,#390) ;
#415=LINE('Line',#412,#414) ;
#432=LINE('Line',#429,#431) ;
#439=LINE('Line',#436,#438) ;
#463=LINE('Line',#460,#462) ;
#487=LINE('Line',#484,#486) ;
#511=LINE('Line',#508,#510) ;
#528=LINE('Line',#525,#527) ;
#535=LINE('Line',#532,#534) ;
#552=LINE('Line',#549,#551) ;
#568=LINE('Line',#565,#567) ;
#614=LINE('Line',#611,#613) ;
#630=LINE('Line',#627,#629) ;
#676=LINE('Line',#673,#675) ;
#692=LINE('Line',#689,#691) ;
#747=LINE('Line',#744,#746) ;
#752=LINE('Line',#749,#751) ;
#781=LINE('Line',#778,#780) ;
#795=LINE('Line',#792,#794) ;
#833=LINE('Line',#830,#832) ;
#838=LINE('Line',#835,#837) ;
#867=LINE('Line',#864,#866) ;
#872=LINE('Line',#869,#871) ;
#901=LINE('Line',#898,#900) ;
#906=LINE('Line',#903,#905) ;
#935=LINE('Line',#932,#934) ;
#940=LINE('Line',#937,#939) ;
#969=LINE('Line',#966,#968) ;
#976=LINE('Line',#973,#975) ;
#1012=LINE('Line',#1009,#1011) ;
#1019=LINE('Line',#1016,#1018) ;
#1091=LINE('Line',#1088,#1090) ;
#1098=LINE('Line',#1095,#1097) ;
#49=CIRCLE('generated circle',#48,3.3235) ;
#63=CIRCLE('generated circle',#62,3.3235) ;
#75=CIRCLE('generated circle',#74,3.3235) ;
#80=CIRCLE('generated circle',#79,3.3235) ;
#106=CIRCLE('generated circle',#105,10.) ;
#120=CIRCLE('generated circle',#119,10.) ;
#134=CIRCLE('generated circle',#133,35.) ;
#141=CIRCLE('generated circle',#140,200.) ;
#148=CIRCLE('generated circle',#147,35.) ;
#162=CIRCLE('generated circle',#161,15.) ;
#183=CIRCLE('generated circle',#182,3.3235) ;
#192=CIRCLE('generated circle',#191,3.3235) ;
#201=CIRCLE('generated circle',#200,3.3235) ;
#210=CIRCLE('generated circle',#209,3.3235) ;
#217=CIRCLE('generated circle',#216,3.3235) ;
#224=CIRCLE('generated circle',#223,3.3235) ;
#231=CIRCLE('generated circle',#230,3.3235) ;
#238=CIRCLE('generated circle',#237,3.3235) ;
#251=CIRCLE('generated circle',#250,3.3235) ;
#260=CIRCLE('generated circle',#259,3.3235) ;
#269=CIRCLE('generated circle',#268,12.) ;
#278=CIRCLE('generated circle',#277,12.) ;
#287=CIRCLE('generated circle',#286,12.) ;
#296=CIRCLE('generated circle',#295,12.) ;
#305=CIRCLE('generated circle',#304,12.) ;
#314=CIRCLE('generated circle',#313,12.) ;
#360=CIRCLE('generated circle',#359,10.) ;
#408=CIRCLE('generated circle',#407,10.) ;
#456=CIRCLE('generated circle',#455,35.) ;
#480=CIRCLE('generated circle',#479,200.) ;
#504=CIRCLE('generated circle',#503,35.) ;
#561=CIRCLE('generated circle',#560,11.) ;
#575=CIRCLE('generated circle',#574,12.) ;
#592=CIRCLE('generated circle',#591,11.) ;
#597=CIRCLE('generated circle',#596,12.) ;
#623=CIRCLE('generated circle',#622,11.) ;
#637=CIRCLE('generated circle',#636,12.) ;
#654=CIRCLE('generated circle',#653,11.) ;
#659=CIRCLE('generated circle',#658,12.) ;
#685=CIRCLE('generated circle',#684,11.) ;
#699=CIRCLE('generated circle',#698,12.) ;
#716=CIRCLE('generated circle',#715,11.) ;
#721=CIRCLE('generated circle',#720,12.) ;
#738=CIRCLE('generated circle',#737,11.) ;
#764=CIRCLE('generated circle',#763,11.) ;
#788=CIRCLE('generated circle',#787,11.) ;
#807=CIRCLE('generated circle',#806,11.) ;
#824=CIRCLE('generated circle',#823,11.) ;
#850=CIRCLE('generated circle',#849,11.) ;
#983=CIRCLE('generated circle',#982,3.3235) ;
#995=CIRCLE('generated circle',#994,3.3235) ;
#1026=CIRCLE('generated circle',#1025,3.3235) ;
#1033=CIRCLE('generated circle',#1032,3.3235) ;
#1040=CIRCLE('generated circle',#1039,3.3235) ;
#1056=CIRCLE('generated circle',#1055,3.3235) ;
#1063=CIRCLE('generated circle',#1062,3.3235) ;
#1070=CIRCLE('generated circle',#1069,3.3235) ;
#1105=CIRCLE('generated circle',#1104,3.3235) ;
#1117=CIRCLE('generated circle',#1116,3.3235) ;
#1134=CIRCLE('generated circle',#1133,15.) ;
#93=PLANE('',#92) ;
#325=PLANE('',#324) ;
#380=PLANE('',#379) ;
#428=PLANE('',#427) ;
#524=PLANE('',#523) ;
#1147=PLANE('',#1146) ;
#36=CYLINDRICAL_SURFACE('generated cylinder',#35,3.3235) ;
#356=CYLINDRICAL_SURFACE('generated cylinder',#355,10.) ;
#404=CYLINDRICAL_SURFACE('generated cylinder',#403,10.) ;
#452=CYLINDRICAL_SURFACE('generated cylinder',#451,35.) ;
#476=CYLINDRICAL_SURFACE('generated cylinder',#475,200.) ;
#500=CYLINDRICAL_SURFACE('generated cylinder',#499,35.) ;
#734=CYLINDRICAL_SURFACE('generated cylinder',#733,11.) ;
#777=CYLINDRICAL_SURFACE('generated cylinder',#776,11.) ;
#820=CYLINDRICAL_SURFACE('generated cylinder',#819,11.) ;
#965=CYLINDRICAL_SURFACE('generated cylinder',#964,3.3235) ;
#1008=CYLINDRICAL_SURFACE('generated cylinder',#1007,3.3235) ;
#1087=CYLINDRICAL_SURFACE('generated cylinder',#1086,3.3235) ;
#1130=CYLINDRICAL_SURFACE('generated cylinder',#1129,15.) ;
#548=CONICAL_SURFACE('Cone',#547,0.,0.785398163397) ;
#588=CONICAL_SURFACE('Cone',#587,0.,0.785398163397) ;
#610=CONICAL_SURFACE('Cone',#609,0.,0.785398163397) ;
#650=CONICAL_SURFACE('Cone',#649,0.,0.785398163397) ;
#672=CONICAL_SURFACE('Cone',#671,0.,0.785398163397) ;
#712=CONICAL_SURFACE('Cone',#711,0.,0.785398163397) ;
#863=CONICAL_SURFACE('Cone',#862,0.,0.785398163397) ;
#885=CONICAL_SURFACE('Cone',#884,0.,0.785398163397) ;
#897=CONICAL_SURFACE('Cone',#896,0.,0.785398163397) ;
#919=CONICAL_SURFACE('Cone',#918,0.,0.785398163397) ;
#931=CONICAL_SURFACE('Cone',#930,0.,0.785398163397) ;
#953=CONICAL_SURFACE('Cone',#952,0.,0.785398163397) ;
#179=FACE_BOUND('',#176,.T.) ;
#197=FACE_BOUND('',#194,.T.) ;
#247=FACE_BOUND('',#240,.T.) ;
#265=FACE_BOUND('',#262,.T.) ;
#283=FACE_BOUND('',#280,.T.) ;
#301=FACE_BOUND('',#298,.T.) ;
#319=FACE_BOUND('',#316,.T.) ;
#1163=FACE_BOUND('',#1160,.T.) ;
#1167=FACE_BOUND('',#1164,.T.) ;
#1175=FACE_BOUND('',#1168,.T.) ;
#1179=FACE_BOUND('',#1176,.T.) ;
#1183=FACE_BOUND('',#1180,.T.) ;
#1187=FACE_BOUND('',#1184,.T.) ;
#1191=FACE_BOUND('',#1188,.T.) ;
#45=EDGE_CURVE('',#42,#44,#40,.F.) ;
#52=EDGE_CURVE('',#42,#51,#49,.T.) ;
#59=EDGE_CURVE('',#51,#58,#56,.F.) ;
#64=EDGE_CURVE('',#44,#58,#63,.T.) ;
#76=EDGE_CURVE('',#51,#42,#75,.T.) ;
#81=EDGE_CURVE('',#58,#44,#80,.T.) ;
#102=EDGE_CURVE('',#99,#101,#97,.T.) ;
#109=EDGE_CURVE('',#101,#108,#106,.T.) ;
#116=EDGE_CURVE('',#108,#115,#113,.F.) ;
#123=EDGE_CURVE('',#115,#122,#120,.T.) ;
#130=EDGE_CURVE('',#122,#129,#127,.F.) ;
#137=EDGE_CURVE('',#129,#136,#134,.T.) ;
#144=EDGE_CURVE('',#136,#143,#141,.F.) ;
#151=EDGE_CURVE('',#143,#150,#148,.T.) ;
#158=EDGE_CURVE('',#150,#157,#155,.T.) ;
#163=EDGE_CURVE('',#99,#157,#162,.F.) ;
#188=EDGE_CURVE('',#185,#187,#183,.T.) ;
#193=EDGE_CURVE('',#187,#185,#192,.T.) ;
#206=EDGE_CURVE('',#203,#205,#201,.T.) ;
#213=EDGE_CURVE('',#212,#203,#210,.T.) ;
#220=EDGE_CURVE('',#219,#212,#217,.T.) ;
#227=EDGE_CURVE('',#226,#219,#224,.T.) ;
#234=EDGE_CURVE('',#233,#226,#231,.T.) ;
#239=EDGE_CURVE('',#205,#233,#238,.T.) ;
#256=EDGE_CURVE('',#253,#255,#251,.T.) ;
#261=EDGE_CURVE('',#255,#253,#260,.T.) ;
#274=EDGE_CURVE('',#271,#273,#269,.T.) ;
#279=EDGE_CURVE('',#273,#271,#278,.T.) ;
#292=EDGE_CURVE('',#289,#291,#287,.T.) ;
#297=EDGE_CURVE('',#291,#289,#296,.T.) ;
#310=EDGE_CURVE('',#307,#309,#305,.T.) ;
#315=EDGE_CURVE('',#309,#307,#314,.T.) ;
#332=EDGE_CURVE('',#99,#331,#329,.T.) ;
#339=EDGE_CURVE('',#331,#338,#336,.T.) ;
#344=EDGE_CURVE('',#101,#338,#343,.T.) ;
#363=EDGE_CURVE('',#338,#362,#360,.T.) ;
#368=EDGE_CURVE('',#108,#362,#367,.F.) ;
#387=EDGE_CURVE('',#362,#386,#384,.F.) ;
#392=EDGE_CURVE('',#115,#386,#391,.T.) ;
#411=EDGE_CURVE('',#386,#410,#408,.T.) ;
#416=EDGE_CURVE('',#122,#410,#415,.F.) ;
#435=EDGE_CURVE('',#410,#434,#432,.F.) ;
#440=EDGE_CURVE('',#129,#434,#439,.T.) ;
#459=EDGE_CURVE('',#434,#458,#456,.T.) ;
#464=EDGE_CURVE('',#136,#458,#463,.F.) ;
#483=EDGE_CURVE('',#458,#482,#480,.F.) ;
#488=EDGE_CURVE('',#143,#482,#487,.F.) ;
#507=EDGE_CURVE('',#482,#506,#504,.T.) ;
#512=EDGE_CURVE('',#150,#506,#511,.F.) ;
#531=EDGE_CURVE('',#157,#530,#528,.T.) ;
#536=EDGE_CURVE('',#506,#530,#535,.T.) ;
#557=EDGE_CURVE('',#554,#556,#552,.F.) ;
#564=EDGE_CURVE('',#556,#563,#561,.T.) ;
#571=EDGE_CURVE('',#570,#563,#568,.F.) ;
#576=EDGE_CURVE('',#554,#570,#575,.T.) ;
#593=EDGE_CURVE('',#563,#556,#592,.T.) ;
#598=EDGE_CURVE('',#570,#554,#597,.T.) ;
#619=EDGE_CURVE('',#616,#618,#614,.F.) ;
#626=EDGE_CURVE('',#618,#625,#623,.T.) ;
#633=EDGE_CURVE('',#632,#625,#630,.F.) ;
#638=EDGE_CURVE('',#616,#632,#637,.T.) ;
#655=EDGE_CURVE('',#625,#618,#654,.T.) ;
#660=EDGE_CURVE('',#632,#616,#659,.T.) ;
#681=EDGE_CURVE('',#678,#680,#676,.F.) ;
#688=EDGE_CURVE('',#680,#687,#685,.T.) ;
#695=EDGE_CURVE('',#694,#687,#692,.F.) ;
#700=EDGE_CURVE('',#678,#694,#699,.T.) ;
#717=EDGE_CURVE('',#687,#680,#716,.T.) ;
#722=EDGE_CURVE('',#694,#678,#721,.T.) ;
#743=EDGE_CURVE('',#740,#742,#738,.T.) ;
#748=EDGE_CURVE('',#742,#563,#747,.F.) ;
#753=EDGE_CURVE('',#740,#556,#752,.F.) ;
#765=EDGE_CURVE('',#742,#740,#764,.T.) ;
#784=EDGE_CURVE('',#783,#618,#781,.F.) ;
#791=EDGE_CURVE('',#783,#790,#788,.T.) ;
#796=EDGE_CURVE('',#790,#625,#795,.F.) ;
#808=EDGE_CURVE('',#790,#783,#807,.T.) ;
#829=EDGE_CURVE('',#826,#828,#824,.T.) ;
#834=EDGE_CURVE('',#828,#687,#833,.F.) ;
#839=EDGE_CURVE('',#826,#680,#838,.F.) ;
#851=EDGE_CURVE('',#828,#826,#850,.T.) ;
#868=EDGE_CURVE('',#828,#309,#867,.T.) ;
#873=EDGE_CURVE('',#826,#307,#872,.T.) ;
#902=EDGE_CURVE('',#790,#291,#901,.T.) ;
#907=EDGE_CURVE('',#783,#289,#906,.T.) ;
#936=EDGE_CURVE('',#742,#273,#935,.T.) ;
#941=EDGE_CURVE('',#740,#271,#940,.T.) ;
#972=EDGE_CURVE('',#255,#971,#969,.F.) ;
#979=EDGE_CURVE('',#253,#978,#976,.F.) ;
#984=EDGE_CURVE('',#971,#978,#983,.T.) ;
#996=EDGE_CURVE('',#978,#971,#995,.T.) ;
#1015=EDGE_CURVE('',#205,#1014,#1012,.F.) ;
#1022=EDGE_CURVE('',#219,#1021,#1019,.F.) ;
#1029=EDGE_CURVE('',#1028,#1021,#1026,.T.) ;
#1036=EDGE_CURVE('',#1035,#1028,#1033,.T.) ;
#1041=EDGE_CURVE('',#1014,#1035,#1040,.T.) ;
#1059=EDGE_CURVE('',#1058,#1014,#1056,.T.) ;
#1066=EDGE_CURVE('',#1065,#1058,#1063,.T.) ;
#1071=EDGE_CURVE('',#1021,#1065,#1070,.T.) ;
#1094=EDGE_CURVE('',#187,#1093,#1091,.F.) ;
#1101=EDGE_CURVE('',#185,#1100,#1098,.F.) ;
#1106=EDGE_CURVE('',#1093,#1100,#1105,.T.) ;
#1118=EDGE_CURVE('',#1100,#1093,#1117,.T.) ;
#1135=EDGE_CURVE('',#530,#331,#1134,.F.) ;
#31=CLOSED_SHELL('Closed Shell',(#71,#88,#320,#351,#375,#399,#423,#447,#471,#495,#519,#543,#583,#605,#645,#667,#707,#729,#760,#772,#803,#815,#846,#858,#880,#892,#914,#926,#948,#960,#991,#1003,#1052,#1082,#1113,#1125,#1142,#1192)) ;
#1194=SHAPE_REPRESENTATION_RELATIONSHIP(' ',' ',#19,#1193) ;
#65=EDGE_LOOP('',(#66,#67,#68,#69)) ;
#82=EDGE_LOOP('',(#83,#84,#85,#86)) ;
#164=EDGE_LOOP('',(#165,#166,#167,#168,#169,#170,#171,#172,#173,#174)) ;
#176=EDGE_LOOP('',(#177,#178)) ;
#194=EDGE_LOOP('',(#195,#196)) ;
#240=EDGE_LOOP('',(#241,#242,#243,#244,#245,#246)) ;
#262=EDGE_LOOP('',(#263,#264)) ;
#280=EDGE_LOOP('',(#281,#282)) ;
#298=EDGE_LOOP('',(#299,#300)) ;
#316=EDGE_LOOP('',(#317,#318)) ;
#345=EDGE_LOOP('',(#346,#347,#348,#349)) ;
#369=EDGE_LOOP('',(#370,#371,#372,#373)) ;
#393=EDGE_LOOP('',(#394,#395,#396,#397)) ;
#417=EDGE_LOOP('',(#418,#419,#420,#421)) ;
#441=EDGE_LOOP('',(#442,#443,#444,#445)) ;
#465=EDGE_LOOP('',(#466,#467,#468,#469)) ;
#489=EDGE_LOOP('',(#490,#491,#492,#493)) ;
#513=EDGE_LOOP('',(#514,#515,#516,#517)) ;
#537=EDGE_LOOP('',(#538,#539,#540,#541)) ;
#577=EDGE_LOOP('',(#578,#579,#580,#581)) ;
#599=EDGE_LOOP('',(#600,#601,#602,#603)) ;
#639=EDGE_LOOP('',(#640,#641,#642,#643)) ;
#661=EDGE_LOOP('',(#662,#663,#664,#665)) ;
#701=EDGE_LOOP('',(#702,#703,#704,#705)) ;
#723=EDGE_LOOP('',(#724,#725,#726,#727)) ;
#754=EDGE_LOOP('',(#755,#756,#757,#758)) ;
#766=EDGE_LOOP('',(#767,#768,#769,#770)) ;
#797=EDGE_LOOP('',(#798,#799,#800,#801)) ;
#809=EDGE_LOOP('',(#810,#811,#812,#813)) ;
#840=EDGE_LOOP('',(#841,#842,#843,#844)) ;
#852=EDGE_LOOP('',(#853,#854,#855,#856)) ;
#874=EDGE_LOOP('',(#875,#876,#877,#878)) ;
#886=EDGE_LOOP('',(#887,#888,#889,#890)) ;
#908=EDGE_LOOP('',(#909,#910,#911,#912)) ;
#920=EDGE_LOOP('',(#921,#922,#923,#924)) ;
#942=EDGE_LOOP('',(#943,#944,#945,#946)) ;
#954=EDGE_LOOP('',(#955,#956,#957,#958)) ;
#985=EDGE_LOOP('',(#986,#987,#988,#989)) ;
#997=EDGE_LOOP('',(#998,#999,#1000,#1001)) ;
#1042=EDGE_LOOP('',(#1043,#1044,#1045,#1046,#1047,#1048,#1049,#1050)) ;
#1072=EDGE_LOOP('',(#1073,#1074,#1075,#1076,#1077,#1078,#1079,#1080)) ;
#1107=EDGE_LOOP('',(#1108,#1109,#1110,#1111)) ;
#1119=EDGE_LOOP('',(#1120,#1121,#1122,#1123)) ;
#1136=EDGE_LOOP('',(#1137,#1138,#1139,#1140)) ;
#1148=EDGE_LOOP('',(#1149,#1150,#1151,#1152,#1153,#1154,#1155,#1156,#1157,#1158)) ;
#1160=EDGE_LOOP('',(#1161,#1162)) ;
#1164=EDGE_LOOP('',(#1165,#1166)) ;
#1168=EDGE_LOOP('',(#1169,#1170,#1171,#1172,#1173,#1174)) ;
#1176=EDGE_LOOP('',(#1177,#1178)) ;
#1180=EDGE_LOOP('',(#1181,#1182)) ;
#1184=EDGE_LOOP('',(#1185,#1186)) ;
#1188=EDGE_LOOP('',(#1189,#1190)) ;
#66=ORIENTED_EDGE('',*,*,#45,.F.) ;
#67=ORIENTED_EDGE('',*,*,#52,.T.) ;
#68=ORIENTED_EDGE('',*,*,#59,.T.) ;
#69=ORIENTED_EDGE('',*,*,#64,.F.) ;
#83=ORIENTED_EDGE('',*,*,#59,.F.) ;
#84=ORIENTED_EDGE('',*,*,#76,.T.) ;
#85=ORIENTED_EDGE('',*,*,#45,.T.) ;
#86=ORIENTED_EDGE('',*,*,#81,.F.) ;
#165=ORIENTED_EDGE('',*,*,#102,.T.) ;
#166=ORIENTED_EDGE('',*,*,#109,.T.) ;
#167=ORIENTED_EDGE('',*,*,#116,.T.) ;
#168=ORIENTED_EDGE('',*,*,#123,.T.) ;
#169=ORIENTED_EDGE('',*,*,#130,.T.) ;
#170=ORIENTED_EDGE('',*,*,#137,.T.) ;
#171=ORIENTED_EDGE('',*,*,#144,.T.) ;
#172=ORIENTED_EDGE('',*,*,#151,.T.) ;
#173=ORIENTED_EDGE('',*,*,#158,.T.) ;
#174=ORIENTED_EDGE('',*,*,#163,.F.) ;
#177=ORIENTED_EDGE('',*,*,#76,.F.) ;
#178=ORIENTED_EDGE('',*,*,#52,.F.) ;
#195=ORIENTED_EDGE('',*,*,#188,.F.) ;
#196=ORIENTED_EDGE('',*,*,#193,.F.) ;
#241=ORIENTED_EDGE('',*,*,#206,.F.) ;
#242=ORIENTED_EDGE('',*,*,#213,.F.) ;
#243=ORIENTED_EDGE('',*,*,#220,.F.) ;
#244=ORIENTED_EDGE('',*,*,#227,.F.) ;
#245=ORIENTED_EDGE('',*,*,#234,.F.) ;
#246=ORIENTED_EDGE('',*,*,#239,.F.) ;
#263=ORIENTED_EDGE('',*,*,#256,.F.) ;
#264=ORIENTED_EDGE('',*,*,#261,.F.) ;
#281=ORIENTED_EDGE('',*,*,#274,.F.) ;
#282=ORIENTED_EDGE('',*,*,#279,.F.) ;
#299=ORIENTED_EDGE('',*,*,#292,.F.) ;
#300=ORIENTED_EDGE('',*,*,#297,.F.) ;
#317=ORIENTED_EDGE('',*,*,#310,.F.) ;
#318=ORIENTED_EDGE('',*,*,#315,.F.) ;
#346=ORIENTED_EDGE('',*,*,#332,.T.) ;
#347=ORIENTED_EDGE('',*,*,#339,.T.) ;
#348=ORIENTED_EDGE('',*,*,#344,.F.) ;
#349=ORIENTED_EDGE('',*,*,#102,.F.) ;
#370=ORIENTED_EDGE('',*,*,#363,.T.) ;
#371=ORIENTED_EDGE('',*,*,#368,.F.) ;
#372=ORIENTED_EDGE('',*,*,#109,.F.) ;
#373=ORIENTED_EDGE('',*,*,#344,.T.) ;
#394=ORIENTED_EDGE('',*,*,#387,.T.) ;
#395=ORIENTED_EDGE('',*,*,#392,.F.) ;
#396=ORIENTED_EDGE('',*,*,#116,.F.) ;
#397=ORIENTED_EDGE('',*,*,#368,.T.) ;
#418=ORIENTED_EDGE('',*,*,#411,.T.) ;
#419=ORIENTED_EDGE('',*,*,#416,.F.) ;
#420=ORIENTED_EDGE('',*,*,#123,.F.) ;
#421=ORIENTED_EDGE('',*,*,#392,.T.) ;
#442=ORIENTED_EDGE('',*,*,#435,.T.) ;
#443=ORIENTED_EDGE('',*,*,#440,.F.) ;
#444=ORIENTED_EDGE('',*,*,#130,.F.) ;
#445=ORIENTED_EDGE('',*,*,#416,.T.) ;
#466=ORIENTED_EDGE('',*,*,#459,.T.) ;
#467=ORIENTED_EDGE('',*,*,#464,.F.) ;
#468=ORIENTED_EDGE('',*,*,#137,.F.) ;
#469=ORIENTED_EDGE('',*,*,#440,.T.) ;
#490=ORIENTED_EDGE('',*,*,#483,.T.) ;
#491=ORIENTED_EDGE('',*,*,#488,.F.) ;
#492=ORIENTED_EDGE('',*,*,#144,.F.) ;
#493=ORIENTED_EDGE('',*,*,#464,.T.) ;
#514=ORIENTED_EDGE('',*,*,#507,.T.) ;
#515=ORIENTED_EDGE('',*,*,#512,.F.) ;
#516=ORIENTED_EDGE('',*,*,#151,.F.) ;
#517=ORIENTED_EDGE('',*,*,#488,.T.) ;
#538=ORIENTED_EDGE('',*,*,#531,.F.) ;
#539=ORIENTED_EDGE('',*,*,#158,.F.) ;
#540=ORIENTED_EDGE('',*,*,#512,.T.) ;
#541=ORIENTED_EDGE('',*,*,#536,.T.) ;
#578=ORIENTED_EDGE('',*,*,#557,.T.) ;
#579=ORIENTED_EDGE('',*,*,#564,.T.) ;
#580=ORIENTED_EDGE('',*,*,#571,.F.) ;
#581=ORIENTED_EDGE('',*,*,#576,.F.) ;
#600=ORIENTED_EDGE('',*,*,#571,.T.) ;
#601=ORIENTED_EDGE('',*,*,#593,.T.) ;
#602=ORIENTED_EDGE('',*,*,#557,.F.) ;
#603=ORIENTED_EDGE('',*,*,#598,.F.) ;
#640=ORIENTED_EDGE('',*,*,#619,.T.) ;
#641=ORIENTED_EDGE('',*,*,#626,.T.) ;
#642=ORIENTED_EDGE('',*,*,#633,.F.) ;
#643=ORIENTED_EDGE('',*,*,#638,.F.) ;
#662=ORIENTED_EDGE('',*,*,#633,.T.) ;
#663=ORIENTED_EDGE('',*,*,#655,.T.) ;
#664=ORIENTED_EDGE('',*,*,#619,.F.) ;
#665=ORIENTED_EDGE('',*,*,#660,.F.) ;
#702=ORIENTED_EDGE('',*,*,#681,.T.) ;
#703=ORIENTED_EDGE('',*,*,#688,.T.) ;
#704=ORIENTED_EDGE('',*,*,#695,.F.) ;
#705=ORIENTED_EDGE('',*,*,#700,.F.) ;
#724=ORIENTED_EDGE('',*,*,#695,.T.) ;
#725=ORIENTED_EDGE('',*,*,#717,.T.) ;
#726=ORIENTED_EDGE('',*,*,#681,.F.) ;
#727=ORIENTED_EDGE('',*,*,#722,.F.) ;
#755=ORIENTED_EDGE('',*,*,#743,.T.) ;
#756=ORIENTED_EDGE('',*,*,#748,.T.) ;
#757=ORIENTED_EDGE('',*,*,#564,.F.) ;
#758=ORIENTED_EDGE('',*,*,#753,.F.) ;
#767=ORIENTED_EDGE('',*,*,#765,.T.) ;
#768=ORIENTED_EDGE('',*,*,#753,.T.) ;
#769=ORIENTED_EDGE('',*,*,#593,.F.) ;
#770=ORIENTED_EDGE('',*,*,#748,.F.) ;
#798=ORIENTED_EDGE('',*,*,#626,.F.) ;
#799=ORIENTED_EDGE('',*,*,#784,.F.) ;
#800=ORIENTED_EDGE('',*,*,#791,.T.) ;
#801=ORIENTED_EDGE('',*,*,#796,.T.) ;
#810=ORIENTED_EDGE('',*,*,#655,.F.) ;
#811=ORIENTED_EDGE('',*,*,#796,.F.) ;
#812=ORIENTED_EDGE('',*,*,#808,.T.) ;
#813=ORIENTED_EDGE('',*,*,#784,.T.) ;
#841=ORIENTED_EDGE('',*,*,#829,.T.) ;
#842=ORIENTED_EDGE('',*,*,#834,.T.) ;
#843=ORIENTED_EDGE('',*,*,#688,.F.) ;
#844=ORIENTED_EDGE('',*,*,#839,.F.) ;
#853=ORIENTED_EDGE('',*,*,#851,.T.) ;
#854=ORIENTED_EDGE('',*,*,#839,.T.) ;
#855=ORIENTED_EDGE('',*,*,#717,.F.) ;
#856=ORIENTED_EDGE('',*,*,#834,.F.) ;
#875=ORIENTED_EDGE('',*,*,#868,.T.) ;
#876=ORIENTED_EDGE('',*,*,#315,.T.) ;
#877=ORIENTED_EDGE('',*,*,#873,.F.) ;
#878=ORIENTED_EDGE('',*,*,#851,.F.) ;
#887=ORIENTED_EDGE('',*,*,#873,.T.) ;
#888=ORIENTED_EDGE('',*,*,#310,.T.) ;
#889=ORIENTED_EDGE('',*,*,#868,.F.) ;
#890=ORIENTED_EDGE('',*,*,#829,.F.) ;
#909=ORIENTED_EDGE('',*,*,#902,.T.) ;
#910=ORIENTED_EDGE('',*,*,#297,.T.) ;
#911=ORIENTED_EDGE('',*,*,#907,.F.) ;
#912=ORIENTED_EDGE('',*,*,#808,.F.) ;
#921=ORIENTED_EDGE('',*,*,#907,.T.) ;
#922=ORIENTED_EDGE('',*,*,#292,.T.) ;
#923=ORIENTED_EDGE('',*,*,#902,.F.) ;
#924=ORIENTED_EDGE('',*,*,#791,.F.) ;
#943=ORIENTED_EDGE('',*,*,#936,.T.) ;
#944=ORIENTED_EDGE('',*,*,#279,.T.) ;
#945=ORIENTED_EDGE('',*,*,#941,.F.) ;
#946=ORIENTED_EDGE('',*,*,#765,.F.) ;
#955=ORIENTED_EDGE('',*,*,#941,.T.) ;
#956=ORIENTED_EDGE('',*,*,#274,.T.) ;
#957=ORIENTED_EDGE('',*,*,#936,.F.) ;
#958=ORIENTED_EDGE('',*,*,#743,.F.) ;
#986=ORIENTED_EDGE('',*,*,#972,.F.) ;
#987=ORIENTED_EDGE('',*,*,#261,.T.) ;
#988=ORIENTED_EDGE('',*,*,#979,.T.) ;
#989=ORIENTED_EDGE('',*,*,#984,.F.) ;
#998=ORIENTED_EDGE('',*,*,#979,.F.) ;
#999=ORIENTED_EDGE('',*,*,#256,.T.) ;
#1000=ORIENTED_EDGE('',*,*,#972,.T.) ;
#1001=ORIENTED_EDGE('',*,*,#996,.F.) ;
#1043=ORIENTED_EDGE('',*,*,#1015,.F.) ;
#1044=ORIENTED_EDGE('',*,*,#239,.T.) ;
#1045=ORIENTED_EDGE('',*,*,#234,.T.) ;
#1046=ORIENTED_EDGE('',*,*,#227,.T.) ;
#1047=ORIENTED_EDGE('',*,*,#1022,.T.) ;
#1048=ORIENTED_EDGE('',*,*,#1029,.F.) ;
#1049=ORIENTED_EDGE('',*,*,#1036,.F.) ;
#1050=ORIENTED_EDGE('',*,*,#1041,.F.) ;
#1073=ORIENTED_EDGE('',*,*,#1022,.F.) ;
#1074=ORIENTED_EDGE('',*,*,#220,.T.) ;
#1075=ORIENTED_EDGE('',*,*,#213,.T.) ;
#1076=ORIENTED_EDGE('',*,*,#206,.T.) ;
#1077=ORIENTED_EDGE('',*,*,#1015,.T.) ;
#1078=ORIENTED_EDGE('',*,*,#1059,.F.) ;
#1079=ORIENTED_EDGE('',*,*,#1066,.F.) ;
#1080=ORIENTED_EDGE('',*,*,#1071,.F.) ;
#1108=ORIENTED_EDGE('',*,*,#1094,.F.) ;
#1109=ORIENTED_EDGE('',*,*,#193,.T.) ;
#1110=ORIENTED_EDGE('',*,*,#1101,.T.) ;
#1111=ORIENTED_EDGE('',*,*,#1106,.F.) ;
#1120=ORIENTED_EDGE('',*,*,#1101,.F.) ;
#1121=ORIENTED_EDGE('',*,*,#188,.T.) ;
#1122=ORIENTED_EDGE('',*,*,#1094,.T.) ;
#1123=ORIENTED_EDGE('',*,*,#1118,.F.) ;
#1137=ORIENTED_EDGE('',*,*,#1135,.T.) ;
#1138=ORIENTED_EDGE('',*,*,#332,.F.) ;
#1139=ORIENTED_EDGE('',*,*,#163,.T.) ;
#1140=ORIENTED_EDGE('',*,*,#531,.T.) ;
#1149=ORIENTED_EDGE('',*,*,#1135,.F.) ;
#1150=ORIENTED_EDGE('',*,*,#536,.F.) ;
#1151=ORIENTED_EDGE('',*,*,#507,.F.) ;
#1152=ORIENTED_EDGE('',*,*,#483,.F.) ;
#1153=ORIENTED_EDGE('',*,*,#459,.F.) ;
#1154=ORIENTED_EDGE('',*,*,#435,.F.) ;
#1155=ORIENTED_EDGE('',*,*,#411,.F.) ;
#1156=ORIENTED_EDGE('',*,*,#387,.F.) ;
#1157=ORIENTED_EDGE('',*,*,#363,.F.) ;
#1158=ORIENTED_EDGE('',*,*,#339,.F.) ;
#1161=ORIENTED_EDGE('',*,*,#64,.T.) ;
#1162=ORIENTED_EDGE('',*,*,#81,.T.) ;
#1165=ORIENTED_EDGE('',*,*,#1106,.T.) ;
#1166=ORIENTED_EDGE('',*,*,#1118,.T.) ;
#1169=ORIENTED_EDGE('',*,*,#1041,.T.) ;
#1170=ORIENTED_EDGE('',*,*,#1036,.T.) ;
#1171=ORIENTED_EDGE('',*,*,#1029,.T.) ;
#1172=ORIENTED_EDGE('',*,*,#1071,.T.) ;
#1173=ORIENTED_EDGE('',*,*,#1066,.T.) ;
#1174=ORIENTED_EDGE('',*,*,#1059,.T.) ;
#1177=ORIENTED_EDGE('',*,*,#984,.T.) ;
#1178=ORIENTED_EDGE('',*,*,#996,.T.) ;
#1181=ORIENTED_EDGE('',*,*,#598,.T.) ;
#1182=ORIENTED_EDGE('',*,*,#576,.T.) ;
#1185=ORIENTED_EDGE('',*,*,#660,.T.) ;
#1186=ORIENTED_EDGE('',*,*,#638,.T.) ;
#1189=ORIENTED_EDGE('',*,*,#722,.T.) ;
#1190=ORIENTED_EDGE('',*,*,#700,.T.) ;
#21=MANIFOLD_SOLID_BREP('M3D-187272 - plaque d''appui',#31) ;
#42=VERTEX_POINT('',#41) ;
#44=VERTEX_POINT('',#43) ;
#51=VERTEX_POINT('',#50) ;
#58=VERTEX_POINT('',#57) ;
#99=VERTEX_POINT('',#98) ;
#101=VERTEX_POINT('',#100) ;
#108=VERTEX_POINT('',#107) ;
#115=VERTEX_POINT('',#114) ;
#122=VERTEX_POINT('',#121) ;
#129=VERTEX_POINT('',#128) ;
#136=VERTEX_POINT('',#135) ;
#143=VERTEX_POINT('',#142) ;
#150=VERTEX_POINT('',#149) ;
#157=VERTEX_POINT('',#156) ;
#185=VERTEX_POINT('',#184) ;
#187=VERTEX_POINT('',#186) ;
#203=VERTEX_POINT('',#202) ;
#205=VERTEX_POINT('',#204) ;
#212=VERTEX_POINT('',#211) ;
#219=VERTEX_POINT('',#218) ;
#226=VERTEX_POINT('',#225) ;
#233=VERTEX_POINT('',#232) ;
#253=VERTEX_POINT('',#252) ;
#255=VERTEX_POINT('',#254) ;
#271=VERTEX_POINT('',#270) ;
#273=VERTEX_POINT('',#272) ;
#289=VERTEX_POINT('',#288) ;
#291=VERTEX_POINT('',#290) ;
#307=VERTEX_POINT('',#306) ;
#309=VERTEX_POINT('',#308) ;
#331=VERTEX_POINT('',#330) ;
#338=VERTEX_POINT('',#337) ;
#362=VERTEX_POINT('',#361) ;
#386=VERTEX_POINT('',#385) ;
#410=VERTEX_POINT('',#409) ;
#434=VERTEX_POINT('',#433) ;
#458=VERTEX_POINT('',#457) ;
#482=VERTEX_POINT('',#481) ;
#506=VERTEX_POINT('',#505) ;
#530=VERTEX_POINT('',#529) ;
#554=VERTEX_POINT('',#553) ;
#556=VERTEX_POINT('',#555) ;
#563=VERTEX_POINT('',#562) ;
#570=VERTEX_POINT('',#569) ;
#616=VERTEX_POINT('',#615) ;
#618=VERTEX_POINT('',#617) ;
#625=VERTEX_POINT('',#624) ;
#632=VERTEX_POINT('',#631) ;
#678=VERTEX_POINT('',#677) ;
#680=VERTEX_POINT('',#679) ;
#687=VERTEX_POINT('',#686) ;
#694=VERTEX_POINT('',#693) ;
#740=VERTEX_POINT('',#739) ;
#742=VERTEX_POINT('',#741) ;
#783=VERTEX_POINT('',#782) ;
#790=VERTEX_POINT('',#789) ;
#826=VERTEX_POINT('',#825) ;
#828=VERTEX_POINT('',#827) ;
#971=VERTEX_POINT('',#970) ;
#978=VERTEX_POINT('',#977) ;
#1014=VERTEX_POINT('',#1013) ;
#1021=VERTEX_POINT('',#1020) ;
#1028=VERTEX_POINT('',#1027) ;
#1035=VERTEX_POINT('',#1034) ;
#1058=VERTEX_POINT('',#1057) ;
#1065=VERTEX_POINT('',#1064) ;
#1093=VERTEX_POINT('',#1092) ;
#1100=VERTEX_POINT('',#1099) ;
#1193=ADVANCED_BREP_SHAPE_REPRESENTATION('NONE',(#21),#16) ;
#71=ADVANCED_FACE('M3D-187272 - plaque d''appui',(#70),#36,.F.) ;
#88=ADVANCED_FACE('M3D-187272 - plaque d''appui',(#87),#36,.F.) ;
#320=ADVANCED_FACE('M3D-187272 - plaque d''appui',(#175,#179,#197,#247,#265,#283,#301,#319),#93,.T.) ;
#351=ADVANCED_FACE('M3D-187272 - plaque d''appui',(#350),#325,.F.) ;
#375=ADVANCED_FACE('M3D-187272 - plaque d''appui',(#374),#356,.T.) ;
#399=ADVANCED_FACE('M3D-187272 - plaque d''appui',(#398),#380,.T.) ;
#423=ADVANCED_FACE('M3D-187272 - plaque d''appui',(#422),#404,.T.) ;
#447=ADVANCED_FACE('M3D-187272 - plaque d''appui',(#446),#428,.T.) ;
#471=ADVANCED_FACE('M3D-187272 - plaque d''appui',(#470),#452,.T.) ;
#495=ADVANCED_FACE('M3D-187272 - plaque d''appui',(#494),#476,.F.) ;
#519=ADVANCED_FACE('M3D-187272 - plaque d''appui',(#518),#500,.T.) ;
#543=ADVANCED_FACE('M3D-187272 - plaque d''appui',(#542),#524,.F.) ;
#583=ADVANCED_FACE('M3D-187272 - plaque d''appui',(#582),#548,.F.) ;
#605=ADVANCED_FACE('M3D-187272 - plaque d''appui',(#604),#588,.F.) ;
#645=ADVANCED_FACE('M3D-187272 - plaque d''appui',(#644),#610,.F.) ;
#667=ADVANCED_FACE('M3D-187272 - plaque d''appui',(#666),#650,.F.) ;
#707=ADVANCED_FACE('M3D-187272 - plaque d''appui',(#706),#672,.F.) ;
#729=ADVANCED_FACE('M3D-187272 - plaque d''appui',(#728),#712,.F.) ;
#760=ADVANCED_FACE('M3D-187272 - plaque d''appui',(#759),#734,.F.) ;
#772=ADVANCED_FACE('M3D-187272 - plaque d''appui',(#771),#734,.F.) ;
#803=ADVANCED_FACE('M3D-187272 - plaque d''appui',(#802),#777,.F.) ;
#815=ADVANCED_FACE('M3D-187272 - plaque d''appui',(#814),#777,.F.) ;
#846=ADVANCED_FACE('M3D-187272 - plaque d''appui',(#845),#820,.F.) ;
#858=ADVANCED_FACE('M3D-187272 - plaque d''appui',(#857),#820,.F.) ;
#880=ADVANCED_FACE('M3D-187272 - plaque d''appui',(#879),#863,.F.) ;
#892=ADVANCED_FACE('M3D-187272 - plaque d''appui',(#891),#885,.F.) ;
#914=ADVANCED_FACE('M3D-187272 - plaque d''appui',(#913),#897,.F.) ;
#926=ADVANCED_FACE('M3D-187272 - plaque d''appui',(#925),#919,.F.) ;
#948=ADVANCED_FACE('M3D-187272 - plaque d''appui',(#947),#931,.F.) ;
#960=ADVANCED_FACE('M3D-187272 - plaque d''appui',(#959),#953,.F.) ;
#991=ADVANCED_FACE('M3D-187272 - plaque d''appui',(#990),#965,.F.) ;
#1003=ADVANCED_FACE('M3D-187272 - plaque d''appui',(#1002),#965,.F.) ;
#1052=ADVANCED_FACE('M3D-187272 - plaque d''appui',(#1051),#1008,.F.) ;
#1082=ADVANCED_FACE('M3D-187272 - plaque d''appui',(#1081),#1008,.F.) ;
#1113=ADVANCED_FACE('M3D-187272 - plaque d''appui',(#1112),#1087,.F.) ;
#1125=ADVANCED_FACE('M3D-187272 - plaque d''appui',(#1124),#1087,.F.) ;
#1142=ADVANCED_FACE('M3D-187272 - plaque d''appui',(#1141),#1130,.T.) ;
#1192=ADVANCED_FACE('M3D-187272 - plaque d''appui',(#1159,#1163,#1167,#1175,#1179,#1183,#1187,#1191),#1147,.F.) ;
#4=APPLICATION_PROTOCOL_DEFINITION('international standard','ap242_managed_model_based_3d_engineering',2014,#1) ;
#22=COLOUR_RGB('Colour',0.501960784314,0.501960784314,1.) ;
#70=FACE_OUTER_BOUND('',#65,.T.) ;
#87=FACE_OUTER_BOUND('',#82,.T.) ;
#175=FACE_OUTER_BOUND('',#164,.T.) ;
#350=FACE_OUTER_BOUND('',#345,.T.) ;
#374=FACE_OUTER_BOUND('',#369,.T.) ;
#398=FACE_OUTER_BOUND('',#393,.T.) ;
#422=FACE_OUTER_BOUND('',#417,.T.) ;
#446=FACE_OUTER_BOUND('',#441,.T.) ;
#470=FACE_OUTER_BOUND('',#465,.T.) ;
#494=FACE_OUTER_BOUND('',#489,.T.) ;
#518=FACE_OUTER_BOUND('',#513,.T.) ;
#542=FACE_OUTER_BOUND('',#537,.T.) ;
#582=FACE_OUTER_BOUND('',#577,.T.) ;
#604=FACE_OUTER_BOUND('',#599,.T.) ;
#644=FACE_OUTER_BOUND('',#639,.T.) ;
#666=FACE_OUTER_BOUND('',#661,.T.) ;
#706=FACE_OUTER_BOUND('',#701,.T.) ;
#728=FACE_OUTER_BOUND('',#723,.T.) ;
#759=FACE_OUTER_BOUND('',#754,.T.) ;
#771=FACE_OUTER_BOUND('',#766,.T.) ;
#802=FACE_OUTER_BOUND('',#797,.T.) ;
#814=FACE_OUTER_BOUND('',#809,.T.) ;
#845=FACE_OUTER_BOUND('',#840,.T.) ;
#857=FACE_OUTER_BOUND('',#852,.T.) ;
#879=FACE_OUTER_BOUND('',#874,.T.) ;
#891=FACE_OUTER_BOUND('',#886,.T.) ;
#913=FACE_OUTER_BOUND('',#908,.T.) ;
#925=FACE_OUTER_BOUND('',#920,.T.) ;
#947=FACE_OUTER_BOUND('',#942,.T.) ;
#959=FACE_OUTER_BOUND('',#954,.T.) ;
#990=FACE_OUTER_BOUND('',#985,.T.) ;
#1002=FACE_OUTER_BOUND('',#997,.T.) ;
#1051=FACE_OUTER_BOUND('',#1042,.T.) ;
#1081=FACE_OUTER_BOUND('',#1072,.T.) ;
#1112=FACE_OUTER_BOUND('',#1107,.T.) ;
#1124=FACE_OUTER_BOUND('',#1119,.T.) ;
#1141=FACE_OUTER_BOUND('',#1136,.T.) ;
#1159=FACE_OUTER_BOUND('',#1148,.T.) ;
#9=PRODUCT_CATEGORY_RELATIONSHIP(' ',' ',#7,#8) ;
#6=PRODUCT_DEFINITION_FORMATION_WITH_SPECIFIED_SOURCE('--A',' ',#5,.NOT_KNOWN.) ;
#20=SHAPE_DEFINITION_REPRESENTATION(#11,#19) ;
#12=(LENGTH_UNIT()NAMED_UNIT(*)SI_UNIT(.MILLI.,.METRE.)) ;
#13=(NAMED_UNIT(*)PLANE_ANGLE_UNIT()SI_UNIT($,.RADIAN.)) ;
#14=(NAMED_UNIT(*)SI_UNIT($,.STERADIAN.)SOLID_ANGLE_UNIT()) ;
#16=(GEOMETRIC_REPRESENTATION_CONTEXT(3)GLOBAL_UNCERTAINTY_ASSIGNED_CONTEXT((#15))GLOBAL_UNIT_ASSIGNED_CONTEXT((#12,#13,#14))REPRESENTATION_CONTEXT(' ',' ')) ;
ENDSEC;
END-ISO-10303-21;
