ISO-10303-21;
HEADER;
FILE_DESCRIPTION(('CATIA V5 STEP Exchange','CAx-IF Rec.Pracs.--- Model Styling and Organization---1.4--- 2014-01-23','CAx-IF Rec.Pracs.---Representation and Presentation of Product Manufacturing Information (PMI)---4.0---2014-10-13','CAx-IF Rec.Pracs.---3D Tessellated Data Validation Properties---0.5---2014-09-14'),'2;1');

FILE_NAME('V:\\catia\\priv\\e_dmacia\\Laura\\step au 14-12-2023\\M3D-226629_--B_CATPART_1.stp','2023-12-14T15:21:49+00:00',('none'),('none'),'CATIA Version 5-6 Release 2016 SP5 HF64','CATIA V5 STEP AP242','none');

FILE_SCHEMA(('AP242_MANAGED_MODEL_BASED_3D_ENGINEERING_MIM_LF  {1 0 10303 442 1 1 4}'));

ENDSEC;
DATA;
#5=PRODUCT('M3D-226629','','EARTH CABLE RETURN',(#2)) ;
#2=PRODUCT_CONTEXT(' ',#1,'mechanical') ;
#1=APPLICATION_CONTEXT('managed model based 3d engineering') ;
#10=PRODUCT_DEFINITION('MASTER',' ',#6,#3) ;
#3=PRODUCT_DEFINITION_CONTEXT('part definition',#1,' ') ;
#11=PRODUCT_DEFINITION_SHAPE(' ',' ',#10) ;
#312=MECHANICAL_DESIGN_GEOMETRIC_PRESENTATION_REPRESENTATION(' ',(#29),#16) ;
#19=SHAPE_REPRESENTATION(' ',(#18),#16) ;
#7=PRODUCT_CATEGORY('part','specification') ;
#17=CARTESIAN_POINT(' ',(0.,0.,0.)) ;
#31=CARTESIAN_POINT('Axis2P3D Location',(-348.,-25.,424.)) ;
#36=CARTESIAN_POINT('Line Origine',(-354.75,-45.,424.)) ;
#40=CARTESIAN_POINT('Vertex',(-354.75,-65.,424.)) ;
#42=CARTESIAN_POINT('Vertex',(-354.75,-25.,424.)) ;
#45=CARTESIAN_POINT('Axis2P3D Location',(-348.,-65.,424.)) ;
#49=CARTESIAN_POINT('Vertex',(-341.25,-65.,424.)) ;
#52=CARTESIAN_POINT('Line Origine',(-341.25,-45.,424.)) ;
#56=CARTESIAN_POINT('Vertex',(-341.25,-25.,424.)) ;
#59=CARTESIAN_POINT('Axis2P3D Location',(-348.,-25.,424.)) ;
#71=CARTESIAN_POINT('Axis2P3D Location',(-348.,-65.,424.)) ;
#76=CARTESIAN_POINT('Axis2P3D Location',(-348.,-25.,424.)) ;
#88=CARTESIAN_POINT('Axis2P3D Location',(-308.,-45.,424.)) ;
#93=CARTESIAN_POINT('Line Origine',(-308.,-45.,454.)) ;
#97=CARTESIAN_POINT('Vertex',(-308.,-25.,454.)) ;
#99=CARTESIAN_POINT('Vertex',(-308.,-65.,454.)) ;
#102=CARTESIAN_POINT('Line Origine',(-308.,-65.,424.)) ;
#106=CARTESIAN_POINT('Vertex',(-308.,-65.,394.)) ;
#109=CARTESIAN_POINT('Line Origine',(-308.,-45.,394.)) ;
#113=CARTESIAN_POINT('Vertex',(-308.,-25.,394.)) ;
#116=CARTESIAN_POINT('Line Origine',(-308.,-25.,424.)) ;
#128=CARTESIAN_POINT('Axis2P3D Location',(-308.,-65.,454.)) ;
#133=CARTESIAN_POINT('Line Origine',(-334.,-65.,454.)) ;
#137=CARTESIAN_POINT('Vertex',(-360.,-65.,454.)) ;
#140=CARTESIAN_POINT('Line Origine',(-334.,-25.,454.)) ;
#144=CARTESIAN_POINT('Vertex',(-360.,-25.,454.)) ;
#147=CARTESIAN_POINT('Line Origine',(-360.,-45.,454.)) ;
#159=CARTESIAN_POINT('Axis2P3D Location',(-368.,-45.,446.)) ;
#164=CARTESIAN_POINT('Line Origine',(-364.,-25.,450.)) ;
#168=CARTESIAN_POINT('Vertex',(-368.,-25.,446.)) ;
#171=CARTESIAN_POINT('Line Origine',(-368.,-45.,446.)) ;
#175=CARTESIAN_POINT('Vertex',(-368.,-65.,446.)) ;
#178=CARTESIAN_POINT('Line Origine',(-364.,-65.,450.)) ;
#190=CARTESIAN_POINT('Axis2P3D Location',(-308.,-25.,394.)) ;
#195=CARTESIAN_POINT('Line Origine',(-334.,-25.,394.)) ;
#199=CARTESIAN_POINT('Vertex',(-360.,-25.,394.)) ;
#202=CARTESIAN_POINT('Line Origine',(-334.,-65.,394.)) ;
#206=CARTESIAN_POINT('Vertex',(-360.,-65.,394.)) ;
#209=CARTESIAN_POINT('Line Origine',(-360.,-45.,394.)) ;
#221=CARTESIAN_POINT('Axis2P3D Location',(-308.,-25.,454.)) ;
#226=CARTESIAN_POINT('Line Origine',(-368.,-25.,424.)) ;
#230=CARTESIAN_POINT('Vertex',(-368.,-25.,402.)) ;
#233=CARTESIAN_POINT('Line Origine',(-364.,-25.,398.)) ;
#251=CARTESIAN_POINT('Axis2P3D Location',(-308.,-65.,394.)) ;
#256=CARTESIAN_POINT('Line Origine',(-368.,-65.,424.)) ;
#260=CARTESIAN_POINT('Vertex',(-368.,-65.,402.)) ;
#263=CARTESIAN_POINT('Line Origine',(-364.,-65.,398.)) ;
#281=CARTESIAN_POINT('Axis2P3D Location',(-368.,-45.,424.)) ;
#286=CARTESIAN_POINT('Line Origine',(-368.,-45.,402.)) ;
#298=CARTESIAN_POINT('Axis2P3D Location',(-368.,-45.,402.)) ;
#8=PRODUCT_RELATED_PRODUCT_CATEGORY('part',$,(#5)) ;
#29=STYLED_ITEM(' ',(#28),#21) ;
#28=PRESENTATION_STYLE_ASSIGNMENT((#27)) ;
#27=SURFACE_STYLE_USAGE(.BOTH.,#26) ;
#26=SURFACE_SIDE_STYLE(' ',(#25)) ;
#25=SURFACE_STYLE_FILL_AREA(#24) ;
#24=FILL_AREA_STYLE(' ',(#23)) ;
#23=FILL_AREA_STYLE_COLOUR(' ',#22) ;
#38=VECTOR('Line Direction',#37,1.) ;
#54=VECTOR('Line Direction',#53,1.) ;
#95=VECTOR('Line Direction',#94,1.) ;
#104=VECTOR('Line Direction',#103,1.) ;
#111=VECTOR('Line Direction',#110,1.) ;
#118=VECTOR('Line Direction',#117,1.) ;
#135=VECTOR('Line Direction',#134,1.) ;
#142=VECTOR('Line Direction',#141,1.) ;
#149=VECTOR('Line Direction',#148,1.) ;
#166=VECTOR('Line Direction',#165,1.) ;
#173=VECTOR('Line Direction',#172,1.) ;
#180=VECTOR('Line Direction',#179,1.) ;
#197=VECTOR('Line Direction',#196,1.) ;
#204=VECTOR('Line Direction',#203,1.) ;
#211=VECTOR('Line Direction',#210,1.) ;
#228=VECTOR('Line Direction',#227,1.) ;
#235=VECTOR('Line Direction',#234,1.) ;
#258=VECTOR('Line Direction',#257,1.) ;
#265=VECTOR('Line Direction',#264,1.) ;
#288=VECTOR('Line Direction',#287,1.) ;
#32=DIRECTION('Axis2P3D Direction',(0.,-1.,-0.)) ;
#33=DIRECTION('Axis2P3D XDirection',(1.,0.,0.)) ;
#37=DIRECTION('Vector Direction',(0.,-1.,0.)) ;
#46=DIRECTION('Axis2P3D Direction',(0.,-1.,-0.)) ;
#53=DIRECTION('Vector Direction',(0.,-1.,0.)) ;
#60=DIRECTION('Axis2P3D Direction',(0.,-1.,-0.)) ;
#72=DIRECTION('Axis2P3D Direction',(0.,-1.,-0.)) ;
#77=DIRECTION('Axis2P3D Direction',(0.,-1.,-0.)) ;
#89=DIRECTION('Axis2P3D Direction',(1.,0.,0.)) ;
#90=DIRECTION('Axis2P3D XDirection',(0.,1.,0.)) ;
#94=DIRECTION('Vector Direction',(0.,1.,0.)) ;
#103=DIRECTION('Vector Direction',(0.,0.,1.)) ;
#110=DIRECTION('Vector Direction',(0.,-1.,0.)) ;
#117=DIRECTION('Vector Direction',(0.,0.,-1.)) ;
#129=DIRECTION('Axis2P3D Direction',(0.,-0.,1.)) ;
#130=DIRECTION('Axis2P3D XDirection',(0.,1.,0.)) ;
#134=DIRECTION('Vector Direction',(-1.,0.,0.)) ;
#141=DIRECTION('Vector Direction',(-1.,0.,0.)) ;
#148=DIRECTION('Vector Direction',(0.,1.,0.)) ;
#160=DIRECTION('Axis2P3D Direction',(0.707106781187,0.,-0.707106781187)) ;
#161=DIRECTION('Axis2P3D XDirection',(0.,1.,0.)) ;
#165=DIRECTION('Vector Direction',(0.707106781187,0.,0.707106781187)) ;
#172=DIRECTION('Vector Direction',(0.,1.,0.)) ;
#179=DIRECTION('Vector Direction',(0.707106781187,0.,0.707106781187)) ;
#191=DIRECTION('Axis2P3D Direction',(-0.,-0.,-1.)) ;
#192=DIRECTION('Axis2P3D XDirection',(0.,-1.,0.)) ;
#196=DIRECTION('Vector Direction',(-1.,0.,0.)) ;
#203=DIRECTION('Vector Direction',(-1.,0.,0.)) ;
#210=DIRECTION('Vector Direction',(0.,-1.,0.)) ;
#222=DIRECTION('Axis2P3D Direction',(0.,1.,0.)) ;
#223=DIRECTION('Axis2P3D XDirection',(0.,0.,-1.)) ;
#227=DIRECTION('Vector Direction',(0.,0.,-1.)) ;
#234=DIRECTION('Vector Direction',(0.707106781187,0.,-0.707106781187)) ;
#252=DIRECTION('Axis2P3D Direction',(0.,-1.,0.)) ;
#253=DIRECTION('Axis2P3D XDirection',(0.,0.,1.)) ;
#257=DIRECTION('Vector Direction',(0.,0.,1.)) ;
#264=DIRECTION('Vector Direction',(-0.707106781187,0.,0.707106781187)) ;
#282=DIRECTION('Axis2P3D Direction',(1.,0.,0.)) ;
#283=DIRECTION('Axis2P3D XDirection',(0.,1.,0.)) ;
#287=DIRECTION('Vector Direction',(0.,-1.,0.)) ;
#299=DIRECTION('Axis2P3D Direction',(0.707106781187,0.,0.707106781187)) ;
#300=DIRECTION('Axis2P3D XDirection',(0.,-1.,0.)) ;
#15=UNCERTAINTY_MEASURE_WITH_UNIT(LENGTH_MEASURE(0.005),#12,'distance_accuracy_value','CONFUSED CURVE UNCERTAINTY') ;
#18=AXIS2_PLACEMENT_3D(' ',#17,$,$) ;
#34=AXIS2_PLACEMENT_3D('Cylinder Axis2P3D',#31,#32,#33) ;
#47=AXIS2_PLACEMENT_3D('Circle Axis2P3D',#45,#46,$) ;
#61=AXIS2_PLACEMENT_3D('Circle Axis2P3D',#59,#60,$) ;
#73=AXIS2_PLACEMENT_3D('Circle Axis2P3D',#71,#72,$) ;
#78=AXIS2_PLACEMENT_3D('Circle Axis2P3D',#76,#77,$) ;
#91=AXIS2_PLACEMENT_3D('Plane Axis2P3D',#88,#89,#90) ;
#131=AXIS2_PLACEMENT_3D('Plane Axis2P3D',#128,#129,#130) ;
#162=AXIS2_PLACEMENT_3D('Plane Axis2P3D',#159,#160,#161) ;
#193=AXIS2_PLACEMENT_3D('Plane Axis2P3D',#190,#191,#192) ;
#224=AXIS2_PLACEMENT_3D('Plane Axis2P3D',#221,#222,#223) ;
#254=AXIS2_PLACEMENT_3D('Plane Axis2P3D',#251,#252,#253) ;
#284=AXIS2_PLACEMENT_3D('Plane Axis2P3D',#281,#282,#283) ;
#301=AXIS2_PLACEMENT_3D('Plane Axis2P3D',#298,#299,#300) ;
#39=LINE('Line',#36,#38) ;
#55=LINE('Line',#52,#54) ;
#96=LINE('Line',#93,#95) ;
#105=LINE('Line',#102,#104) ;
#112=LINE('Line',#109,#111) ;
#119=LINE('Line',#116,#118) ;
#136=LINE('Line',#133,#135) ;
#143=LINE('Line',#140,#142) ;
#150=LINE('Line',#147,#149) ;
#167=LINE('Line',#164,#166) ;
#174=LINE('Line',#171,#173) ;
#181=LINE('Line',#178,#180) ;
#198=LINE('Line',#195,#197) ;
#205=LINE('Line',#202,#204) ;
#212=LINE('Line',#209,#211) ;
#229=LINE('Line',#226,#228) ;
#236=LINE('Line',#233,#235) ;
#259=LINE('Line',#256,#258) ;
#266=LINE('Line',#263,#265) ;
#289=LINE('Line',#286,#288) ;
#48=CIRCLE('generated circle',#47,6.75) ;
#62=CIRCLE('generated circle',#61,6.75) ;
#74=CIRCLE('generated circle',#73,6.75) ;
#79=CIRCLE('generated circle',#78,6.75) ;
#92=PLANE('',#91) ;
#132=PLANE('',#131) ;
#163=PLANE('',#162) ;
#194=PLANE('',#193) ;
#225=PLANE('',#224) ;
#255=PLANE('',#254) ;
#285=PLANE('',#284) ;
#302=PLANE('',#301) ;
#35=CYLINDRICAL_SURFACE('generated cylinder',#34,6.75) ;
#249=FACE_BOUND('',#246,.T.) ;
#279=FACE_BOUND('',#276,.T.) ;
#44=EDGE_CURVE('',#41,#43,#39,.F.) ;
#51=EDGE_CURVE('',#41,#50,#48,.T.) ;
#58=EDGE_CURVE('',#50,#57,#55,.F.) ;
#63=EDGE_CURVE('',#57,#43,#62,.F.) ;
#75=EDGE_CURVE('',#50,#41,#74,.T.) ;
#80=EDGE_CURVE('',#43,#57,#79,.F.) ;
#101=EDGE_CURVE('',#98,#100,#96,.F.) ;
#108=EDGE_CURVE('',#100,#107,#105,.F.) ;
#115=EDGE_CURVE('',#107,#114,#112,.F.) ;
#120=EDGE_CURVE('',#114,#98,#119,.F.) ;
#139=EDGE_CURVE('',#100,#138,#136,.T.) ;
#146=EDGE_CURVE('',#98,#145,#143,.T.) ;
#151=EDGE_CURVE('',#145,#138,#150,.F.) ;
#170=EDGE_CURVE('',#145,#169,#167,.F.) ;
#177=EDGE_CURVE('',#169,#176,#174,.F.) ;
#182=EDGE_CURVE('',#176,#138,#181,.T.) ;
#201=EDGE_CURVE('',#114,#200,#198,.T.) ;
#208=EDGE_CURVE('',#107,#207,#205,.T.) ;
#213=EDGE_CURVE('',#207,#200,#212,.F.) ;
#232=EDGE_CURVE('',#231,#169,#229,.F.) ;
#237=EDGE_CURVE('',#231,#200,#236,.T.) ;
#262=EDGE_CURVE('',#176,#261,#259,.F.) ;
#267=EDGE_CURVE('',#207,#261,#266,.T.) ;
#290=EDGE_CURVE('',#261,#231,#289,.F.) ;
#30=CLOSED_SHELL('Closed Shell',(#70,#87,#127,#158,#189,#220,#250,#280,#297,#309)) ;
#311=SHAPE_REPRESENTATION_RELATIONSHIP(' ',' ',#19,#310) ;
#64=EDGE_LOOP('',(#65,#66,#67,#68)) ;
#81=EDGE_LOOP('',(#82,#83,#84,#85)) ;
#121=EDGE_LOOP('',(#122,#123,#124,#125)) ;
#152=EDGE_LOOP('',(#153,#154,#155,#156)) ;
#183=EDGE_LOOP('',(#184,#185,#186,#187)) ;
#214=EDGE_LOOP('',(#215,#216,#217,#218)) ;
#238=EDGE_LOOP('',(#239,#240,#241,#242,#243,#244)) ;
#246=EDGE_LOOP('',(#247,#248)) ;
#268=EDGE_LOOP('',(#269,#270,#271,#272,#273,#274)) ;
#276=EDGE_LOOP('',(#277,#278)) ;
#291=EDGE_LOOP('',(#292,#293,#294,#295)) ;
#303=EDGE_LOOP('',(#304,#305,#306,#307)) ;
#65=ORIENTED_EDGE('',*,*,#44,.F.) ;
#66=ORIENTED_EDGE('',*,*,#51,.T.) ;
#67=ORIENTED_EDGE('',*,*,#58,.T.) ;
#68=ORIENTED_EDGE('',*,*,#63,.T.) ;
#82=ORIENTED_EDGE('',*,*,#58,.F.) ;
#83=ORIENTED_EDGE('',*,*,#75,.T.) ;
#84=ORIENTED_EDGE('',*,*,#44,.T.) ;
#85=ORIENTED_EDGE('',*,*,#80,.T.) ;
#122=ORIENTED_EDGE('',*,*,#101,.T.) ;
#123=ORIENTED_EDGE('',*,*,#108,.T.) ;
#124=ORIENTED_EDGE('',*,*,#115,.T.) ;
#125=ORIENTED_EDGE('',*,*,#120,.T.) ;
#153=ORIENTED_EDGE('',*,*,#139,.F.) ;
#154=ORIENTED_EDGE('',*,*,#101,.F.) ;
#155=ORIENTED_EDGE('',*,*,#146,.T.) ;
#156=ORIENTED_EDGE('',*,*,#151,.T.) ;
#184=ORIENTED_EDGE('',*,*,#151,.F.) ;
#185=ORIENTED_EDGE('',*,*,#170,.T.) ;
#186=ORIENTED_EDGE('',*,*,#177,.T.) ;
#187=ORIENTED_EDGE('',*,*,#182,.T.) ;
#215=ORIENTED_EDGE('',*,*,#201,.F.) ;
#216=ORIENTED_EDGE('',*,*,#115,.F.) ;
#217=ORIENTED_EDGE('',*,*,#208,.T.) ;
#218=ORIENTED_EDGE('',*,*,#213,.T.) ;
#239=ORIENTED_EDGE('',*,*,#232,.T.) ;
#240=ORIENTED_EDGE('',*,*,#170,.F.) ;
#241=ORIENTED_EDGE('',*,*,#146,.F.) ;
#242=ORIENTED_EDGE('',*,*,#120,.F.) ;
#243=ORIENTED_EDGE('',*,*,#201,.T.) ;
#244=ORIENTED_EDGE('',*,*,#237,.F.) ;
#247=ORIENTED_EDGE('',*,*,#80,.F.) ;
#248=ORIENTED_EDGE('',*,*,#63,.F.) ;
#269=ORIENTED_EDGE('',*,*,#208,.F.) ;
#270=ORIENTED_EDGE('',*,*,#108,.F.) ;
#271=ORIENTED_EDGE('',*,*,#139,.T.) ;
#272=ORIENTED_EDGE('',*,*,#182,.F.) ;
#273=ORIENTED_EDGE('',*,*,#262,.T.) ;
#274=ORIENTED_EDGE('',*,*,#267,.F.) ;
#277=ORIENTED_EDGE('',*,*,#75,.F.) ;
#278=ORIENTED_EDGE('',*,*,#51,.F.) ;
#292=ORIENTED_EDGE('',*,*,#290,.F.) ;
#293=ORIENTED_EDGE('',*,*,#262,.F.) ;
#294=ORIENTED_EDGE('',*,*,#177,.F.) ;
#295=ORIENTED_EDGE('',*,*,#232,.F.) ;
#304=ORIENTED_EDGE('',*,*,#213,.F.) ;
#305=ORIENTED_EDGE('',*,*,#267,.T.) ;
#306=ORIENTED_EDGE('',*,*,#290,.T.) ;
#307=ORIENTED_EDGE('',*,*,#237,.T.) ;
#21=MANIFOLD_SOLID_BREP('226629_Bossage',#30) ;
#41=VERTEX_POINT('',#40) ;
#43=VERTEX_POINT('',#42) ;
#50=VERTEX_POINT('',#49) ;
#57=VERTEX_POINT('',#56) ;
#98=VERTEX_POINT('',#97) ;
#100=VERTEX_POINT('',#99) ;
#107=VERTEX_POINT('',#106) ;
#114=VERTEX_POINT('',#113) ;
#138=VERTEX_POINT('',#137) ;
#145=VERTEX_POINT('',#144) ;
#169=VERTEX_POINT('',#168) ;
#176=VERTEX_POINT('',#175) ;
#200=VERTEX_POINT('',#199) ;
#207=VERTEX_POINT('',#206) ;
#231=VERTEX_POINT('',#230) ;
#261=VERTEX_POINT('',#260) ;
#310=ADVANCED_BREP_SHAPE_REPRESENTATION('NONE',(#21),#16) ;
#70=ADVANCED_FACE('226629_Bossage',(#69),#35,.F.) ;
#87=ADVANCED_FACE('226629_Bossage',(#86),#35,.F.) ;
#127=ADVANCED_FACE('226629_Bossage',(#126),#92,.T.) ;
#158=ADVANCED_FACE('226629_Bossage',(#157),#132,.T.) ;
#189=ADVANCED_FACE('226629_Bossage',(#188),#163,.F.) ;
#220=ADVANCED_FACE('226629_Bossage',(#219),#194,.T.) ;
#250=ADVANCED_FACE('226629_Bossage',(#245,#249),#225,.T.) ;
#280=ADVANCED_FACE('226629_Bossage',(#275,#279),#255,.T.) ;
#297=ADVANCED_FACE('226629_Bossage',(#296),#285,.F.) ;
#309=ADVANCED_FACE('226629_Bossage',(#308),#302,.F.) ;
#4=APPLICATION_PROTOCOL_DEFINITION('international standard','ap242_managed_model_based_3d_engineering',2014,#1) ;
#22=COLOUR_RGB('Colour',0.,0.501960784314,1.) ;
#69=FACE_OUTER_BOUND('',#64,.T.) ;
#86=FACE_OUTER_BOUND('',#81,.T.) ;
#126=FACE_OUTER_BOUND('',#121,.T.) ;
#157=FACE_OUTER_BOUND('',#152,.T.) ;
#188=FACE_OUTER_BOUND('',#183,.T.) ;
#219=FACE_OUTER_BOUND('',#214,.T.) ;
#245=FACE_OUTER_BOUND('',#238,.T.) ;
#275=FACE_OUTER_BOUND('',#268,.T.) ;
#296=FACE_OUTER_BOUND('',#291,.T.) ;
#308=FACE_OUTER_BOUND('',#303,.T.) ;
#9=PRODUCT_CATEGORY_RELATIONSHIP(' ',' ',#7,#8) ;
#6=PRODUCT_DEFINITION_FORMATION_WITH_SPECIFIED_SOURCE('--B',' ',#5,.NOT_KNOWN.) ;
#20=SHAPE_DEFINITION_REPRESENTATION(#11,#19) ;
#12=(LENGTH_UNIT()NAMED_UNIT(*)SI_UNIT(.MILLI.,.METRE.)) ;
#13=(NAMED_UNIT(*)PLANE_ANGLE_UNIT()SI_UNIT($,.RADIAN.)) ;
#14=(NAMED_UNIT(*)SI_UNIT($,.STERADIAN.)SOLID_ANGLE_UNIT()) ;
#16=(GEOMETRIC_REPRESENTATION_CONTEXT(3)GLOBAL_UNCERTAINTY_ASSIGNED_CONTEXT((#15))GLOBAL_UNIT_ASSIGNED_CONTEXT((#12,#13,#14))REPRESENTATION_CONTEXT(' ',' ')) ;
ENDSEC;
END-ISO-10303-21;
