ISO-10303-21;
HEADER;
FILE_DESCRIPTION(('CATIA V5 STEP Exchange','CAx-IF Rec.Pracs.--- Model Styling and Organization---1.4--- 2014-01-23','CAx-IF Rec.Pracs.---Representation and Presentation of Product Manufacturing Information (PMI)---4.0---2014-10-13','CAx-IF Rec.Pracs.---3D Tessellated Data Validation Properties---0.5---2014-09-14'),'2;1');

FILE_NAME('C:\\Users\\e_jmelko\\Downloads\\M3D-138242........A--RELFBO--A0..RELMETHOD___RENFORT_PRIMAIRE_INTERIEUR_.stp','2023-10-09T08:26:33+00:00',('none'),('none'),'CATIA Version 5-6 Release 2016 SP5 HF64','CATIA V5 STEP AP242','none');

FILE_SCHEMA(('AP242_MANAGED_MODEL_BASED_3D_ENGINEERING_MIM_LF  {1 0 10303 442 1 1 4}'));

ENDSEC;
DATA;
#5=PRODUCT('M3D-138242','','(VIDE)',(#2)) ;
#2=PRODUCT_CONTEXT(' ',#1,'mechanical') ;
#1=APPLICATION_CONTEXT('managed model based 3d engineering') ;
#10=PRODUCT_DEFINITION('METHOD',' ',#6,#3) ;
#3=PRODUCT_DEFINITION_CONTEXT('part definition',#1,' ') ;
#11=PRODUCT_DEFINITION_SHAPE(' ',' ',#10) ;
#308=MECHANICAL_DESIGN_GEOMETRIC_PRESENTATION_REPRESENTATION(' ',(#29),#16) ;
#19=SHAPE_REPRESENTATION(' ',(#18),#16) ;
#7=PRODUCT_CATEGORY('part','specification') ;
#17=CARTESIAN_POINT(' ',(0.,0.,0.)) ;
#31=CARTESIAN_POINT('Axis2P3D Location',(-1081.41658869,950.214821291,751.458814798)) ;
#36=CARTESIAN_POINT('Line Origine',(-1077.95248708,950.214821291,749.458814798)) ;
#40=CARTESIAN_POINT('Vertex',(-1081.41658869,950.214821291,751.458814798)) ;
#42=CARTESIAN_POINT('Vertex',(-1074.48838546,950.214821291,747.458814798)) ;
#45=CARTESIAN_POINT('Line Origine',(-1074.71077921,946.62118882,763.073617528)) ;
#49=CARTESIAN_POINT('Vertex',(-1068.00496973,943.027556349,774.688420258)) ;
#52=CARTESIAN_POINT('Line Origine',(-1064.54086811,943.027556349,772.688420258)) ;
#56=CARTESIAN_POINT('Vertex',(-1061.0767665,943.027556349,770.688420258)) ;
#59=CARTESIAN_POINT('Line Origine',(-1067.78257598,946.62118882,759.073617528)) ;
#71=CARTESIAN_POINT('Axis2P3D Location',(-1148.00496973,0.,636.124355653)) ;
#76=CARTESIAN_POINT('Line Origine',(-1068.00496973,1089.48622183,774.688420258)) ;
#80=CARTESIAN_POINT('Vertex',(-1068.00496973,1082.97244365,774.688420258)) ;
#82=CARTESIAN_POINT('Vertex',(-1068.00496973,1096.,774.688420258)) ;
#85=CARTESIAN_POINT('Line Origine',(-1108.00496973,1096.,705.406387956)) ;
#89=CARTESIAN_POINT('Vertex',(-1148.00496973,1096.,636.124355653)) ;
#92=CARTESIAN_POINT('Line Origine',(-1148.00496973,1013.,636.124355653)) ;
#96=CARTESIAN_POINT('Vertex',(-1148.00496973,930.,636.124355653)) ;
#99=CARTESIAN_POINT('Line Origine',(-1108.00496973,930.,705.406387956)) ;
#103=CARTESIAN_POINT('Vertex',(-1068.00496973,930.,774.688420258)) ;
#106=CARTESIAN_POINT('Line Origine',(-1068.00496973,936.513778175,774.688420258)) ;
#111=CARTESIAN_POINT('Axis2P3D Location',(-1073.00496973,1013.,766.028166221)) ;
#115=CARTESIAN_POINT('Vertex',(-1081.41658869,1075.78517871,751.458814798)) ;
#118=CARTESIAN_POINT('Line Origine',(-1074.71077921,1079.37881118,763.073617528)) ;
#134=CARTESIAN_POINT('Axis2P3D Location',(-1068.00496973,0.,774.688420258)) ;
#139=CARTESIAN_POINT('Line Origine',(-1064.54086811,930.,772.688420258)) ;
#143=CARTESIAN_POINT('Vertex',(-1061.0767665,930.,770.688420258)) ;
#146=CARTESIAN_POINT('Line Origine',(-1061.0767665,936.513778175,770.688420258)) ;
#158=CARTESIAN_POINT('Axis2P3D Location',(-1061.0767665,0.,770.688420258)) ;
#163=CARTESIAN_POINT('Line Origine',(-1101.0767665,930.,701.406387956)) ;
#167=CARTESIAN_POINT('Vertex',(-1141.0767665,930.,632.124355653)) ;
#170=CARTESIAN_POINT('Line Origine',(-1141.0767665,1013.,632.124355653)) ;
#174=CARTESIAN_POINT('Vertex',(-1141.0767665,1096.,632.124355653)) ;
#177=CARTESIAN_POINT('Line Origine',(-1101.0767665,1096.,701.406387956)) ;
#181=CARTESIAN_POINT('Vertex',(-1061.0767665,1096.,770.688420258)) ;
#184=CARTESIAN_POINT('Line Origine',(-1061.0767665,1089.48622183,770.688420258)) ;
#188=CARTESIAN_POINT('Vertex',(-1061.0767665,1082.97244365,770.688420258)) ;
#191=CARTESIAN_POINT('Line Origine',(-1067.78257598,1079.37881118,759.073617528)) ;
#195=CARTESIAN_POINT('Vertex',(-1074.48838546,1075.78517871,747.458814798)) ;
#198=CARTESIAN_POINT('Axis2P3D Location',(-1066.0767665,1013.,762.028166221)) ;
#214=CARTESIAN_POINT('Line Origine',(-1064.54086811,1096.,772.688420258)) ;
#219=CARTESIAN_POINT('Line Origine',(-1064.54086811,1082.97244365,772.688420258)) ;
#231=CARTESIAN_POINT('Axis2P3D Location',(1200.38351013,930.,0.)) ;
#236=CARTESIAN_POINT('Line Origine',(-1144.54086811,930.,634.124355653)) ;
#248=CARTESIAN_POINT('Axis2P3D Location',(-1068.00496973,1082.97244365,774.688420258)) ;
#253=CARTESIAN_POINT('Line Origine',(-1077.95248708,1075.78517871,749.458814798)) ;
#265=CARTESIAN_POINT('Axis2P3D Location',(-1141.0767665,0.,632.124355653)) ;
#270=CARTESIAN_POINT('Line Origine',(-1144.54086811,1096.,634.124355653)) ;
#282=CARTESIAN_POINT('Axis2P3D Location',(-1207.59162801,1096.,0.)) ;
#294=CARTESIAN_POINT('Axis2P3D Location',(-1010.79357336,1013.,730.110399782)) ;
#8=PRODUCT_RELATED_PRODUCT_CATEGORY('part',$,(#5)) ;
#29=STYLED_ITEM(' ',(#28),#21) ;
#28=PRESENTATION_STYLE_ASSIGNMENT((#27)) ;
#27=SURFACE_STYLE_USAGE(.BOTH.,#26) ;
#26=SURFACE_SIDE_STYLE(' ',(#25)) ;
#25=SURFACE_STYLE_FILL_AREA(#24) ;
#24=FILL_AREA_STYLE(' ',(#23)) ;
#23=FILL_AREA_STYLE_COLOUR(' ',#22) ;
#38=VECTOR('Line Direction',#37,1.) ;
#47=VECTOR('Line Direction',#46,1.) ;
#54=VECTOR('Line Direction',#53,1.) ;
#61=VECTOR('Line Direction',#60,1.) ;
#78=VECTOR('Line Direction',#77,1.) ;
#87=VECTOR('Line Direction',#86,1.) ;
#94=VECTOR('Line Direction',#93,1.) ;
#101=VECTOR('Line Direction',#100,1.) ;
#108=VECTOR('Line Direction',#107,1.) ;
#120=VECTOR('Line Direction',#119,1.) ;
#141=VECTOR('Line Direction',#140,1.) ;
#148=VECTOR('Line Direction',#147,1.) ;
#165=VECTOR('Line Direction',#164,1.) ;
#172=VECTOR('Line Direction',#171,1.) ;
#179=VECTOR('Line Direction',#178,1.) ;
#186=VECTOR('Line Direction',#185,1.) ;
#193=VECTOR('Line Direction',#192,1.) ;
#216=VECTOR('Line Direction',#215,1.) ;
#221=VECTOR('Line Direction',#220,1.) ;
#238=VECTOR('Line Direction',#237,1.) ;
#255=VECTOR('Line Direction',#254,1.) ;
#272=VECTOR('Line Direction',#271,1.) ;
#32=DIRECTION('Axis2P3D Direction',(0.129409522551,0.965925826289,0.224143868042)) ;
#33=DIRECTION('Axis2P3D XDirection',(0.482962913145,-0.258819045103,0.836516303738)) ;
#37=DIRECTION('Vector Direction',(0.866025403784,0.,-0.5)) ;
#46=DIRECTION('Vector Direction',(0.482962913145,-0.258819045103,0.836516303738)) ;
#53=DIRECTION('Vector Direction',(0.866025403784,0.,-0.5)) ;
#60=DIRECTION('Vector Direction',(-0.482962913145,0.258819045103,-0.836516303738)) ;
#72=DIRECTION('Axis2P3D Direction',(-0.866025403784,0.,0.5)) ;
#73=DIRECTION('Axis2P3D XDirection',(0.5,0.,0.866025403784)) ;
#77=DIRECTION('Vector Direction',(0.,1.,0.)) ;
#86=DIRECTION('Vector Direction',(0.5,0.,0.866025403784)) ;
#93=DIRECTION('Vector Direction',(0.,1.,0.)) ;
#100=DIRECTION('Vector Direction',(0.5,0.,0.866025403784)) ;
#107=DIRECTION('Vector Direction',(0.,1.,0.)) ;
#112=DIRECTION('Axis2P3D Direction',(-0.866025403784,0.,0.5)) ;
#119=DIRECTION('Vector Direction',(-0.482962913145,-0.258819045103,-0.836516303738)) ;
#135=DIRECTION('Axis2P3D Direction',(0.5,-0.,0.866025403784)) ;
#136=DIRECTION('Axis2P3D XDirection',(0.866025403784,-0.,-0.5)) ;
#140=DIRECTION('Vector Direction',(0.866025403784,0.,-0.5)) ;
#147=DIRECTION('Vector Direction',(0.,1.,0.)) ;
#159=DIRECTION('Axis2P3D Direction',(0.866025403784,0.,-0.5)) ;
#160=DIRECTION('Axis2P3D XDirection',(-0.5,0.,-0.866025403784)) ;
#164=DIRECTION('Vector Direction',(-0.5,0.,-0.866025403784)) ;
#171=DIRECTION('Vector Direction',(0.,1.,0.)) ;
#178=DIRECTION('Vector Direction',(-0.5,0.,-0.866025403784)) ;
#185=DIRECTION('Vector Direction',(0.,1.,0.)) ;
#192=DIRECTION('Vector Direction',(-0.482962913145,-0.258819045103,-0.836516303738)) ;
#199=DIRECTION('Axis2P3D Direction',(0.866025403784,0.,-0.5)) ;
#215=DIRECTION('Vector Direction',(0.866025403784,0.,-0.5)) ;
#220=DIRECTION('Vector Direction',(0.866025403784,0.,-0.5)) ;
#232=DIRECTION('Axis2P3D Direction',(-9.47087632928E-016,1.,0.)) ;
#233=DIRECTION('Axis2P3D XDirection',(-1.,-9.47087632928E-016,-0.)) ;
#237=DIRECTION('Vector Direction',(-0.866025403784,0.,0.5)) ;
#249=DIRECTION('Axis2P3D Direction',(0.129409522551,-0.965925826289,0.224143868042)) ;
#250=DIRECTION('Axis2P3D XDirection',(-0.482962913145,-0.258819045103,-0.836516303738)) ;
#254=DIRECTION('Vector Direction',(0.866025403784,0.,-0.5)) ;
#266=DIRECTION('Axis2P3D Direction',(-0.5,0.,-0.866025403784)) ;
#267=DIRECTION('Axis2P3D XDirection',(-0.866025403784,0.,0.5)) ;
#271=DIRECTION('Vector Direction',(-0.866025403784,0.,0.5)) ;
#283=DIRECTION('Axis2P3D Direction',(0.,-1.,0.)) ;
#284=DIRECTION('Axis2P3D XDirection',(1.,0.,0.)) ;
#295=DIRECTION('Axis2P3D Direction',(-0.866025403784,0.,0.5)) ;
#296=DIRECTION('Axis2P3D XDirection',(-0.129409522551,0.965925826289,-0.224143868042)) ;
#15=UNCERTAINTY_MEASURE_WITH_UNIT(LENGTH_MEASURE(0.005),#12,'distance_accuracy_value','CONFUSED CURVE UNCERTAINTY') ;
#18=AXIS2_PLACEMENT_3D(' ',#17,$,$) ;
#34=AXIS2_PLACEMENT_3D('Plane Axis2P3D',#31,#32,#33) ;
#74=AXIS2_PLACEMENT_3D('Plane Axis2P3D',#71,#72,#73) ;
#113=AXIS2_PLACEMENT_3D('Circle Axis2P3D',#111,#112,$) ;
#137=AXIS2_PLACEMENT_3D('Plane Axis2P3D',#134,#135,#136) ;
#161=AXIS2_PLACEMENT_3D('Plane Axis2P3D',#158,#159,#160) ;
#200=AXIS2_PLACEMENT_3D('Circle Axis2P3D',#198,#199,$) ;
#234=AXIS2_PLACEMENT_3D('Plane Axis2P3D',#231,#232,#233) ;
#251=AXIS2_PLACEMENT_3D('Plane Axis2P3D',#248,#249,#250) ;
#268=AXIS2_PLACEMENT_3D('Plane Axis2P3D',#265,#266,#267) ;
#285=AXIS2_PLACEMENT_3D('Plane Axis2P3D',#282,#283,#284) ;
#297=AXIS2_PLACEMENT_3D('Cylinder Axis2P3D',#294,#295,#296) ;
#39=LINE('Line',#36,#38) ;
#48=LINE('Line',#45,#47) ;
#55=LINE('Line',#52,#54) ;
#62=LINE('Line',#59,#61) ;
#79=LINE('Line',#76,#78) ;
#88=LINE('Line',#85,#87) ;
#95=LINE('Line',#92,#94) ;
#102=LINE('Line',#99,#101) ;
#109=LINE('Line',#106,#108) ;
#121=LINE('Line',#118,#120) ;
#142=LINE('Line',#139,#141) ;
#149=LINE('Line',#146,#148) ;
#166=LINE('Line',#163,#165) ;
#173=LINE('Line',#170,#172) ;
#180=LINE('Line',#177,#179) ;
#187=LINE('Line',#184,#186) ;
#194=LINE('Line',#191,#193) ;
#217=LINE('Line',#214,#216) ;
#222=LINE('Line',#219,#221) ;
#239=LINE('Line',#236,#238) ;
#256=LINE('Line',#253,#255) ;
#273=LINE('Line',#270,#272) ;
#114=CIRCLE('generated circle',#113,65.) ;
#201=CIRCLE('generated circle',#200,65.) ;
#35=PLANE('',#34) ;
#75=PLANE('',#74) ;
#138=PLANE('',#137) ;
#162=PLANE('',#161) ;
#235=PLANE('',#234) ;
#252=PLANE('',#251) ;
#269=PLANE('',#268) ;
#286=PLANE('',#285) ;
#298=CYLINDRICAL_SURFACE('generated cylinder',#297,65.) ;
#44=EDGE_CURVE('',#41,#43,#39,.T.) ;
#51=EDGE_CURVE('',#41,#50,#48,.T.) ;
#58=EDGE_CURVE('',#50,#57,#55,.T.) ;
#63=EDGE_CURVE('',#57,#43,#62,.T.) ;
#84=EDGE_CURVE('',#81,#83,#79,.T.) ;
#91=EDGE_CURVE('',#90,#83,#88,.T.) ;
#98=EDGE_CURVE('',#97,#90,#95,.T.) ;
#105=EDGE_CURVE('',#97,#104,#102,.T.) ;
#110=EDGE_CURVE('',#104,#50,#109,.T.) ;
#117=EDGE_CURVE('',#116,#41,#114,.T.) ;
#122=EDGE_CURVE('',#81,#116,#121,.T.) ;
#145=EDGE_CURVE('',#104,#144,#142,.T.) ;
#150=EDGE_CURVE('',#144,#57,#149,.T.) ;
#169=EDGE_CURVE('',#144,#168,#166,.T.) ;
#176=EDGE_CURVE('',#168,#175,#173,.T.) ;
#183=EDGE_CURVE('',#182,#175,#180,.T.) ;
#190=EDGE_CURVE('',#189,#182,#187,.T.) ;
#197=EDGE_CURVE('',#189,#196,#194,.T.) ;
#202=EDGE_CURVE('',#43,#196,#201,.T.) ;
#218=EDGE_CURVE('',#83,#182,#217,.T.) ;
#223=EDGE_CURVE('',#81,#189,#222,.T.) ;
#240=EDGE_CURVE('',#168,#97,#239,.T.) ;
#257=EDGE_CURVE('',#116,#196,#256,.T.) ;
#274=EDGE_CURVE('',#175,#90,#273,.T.) ;
#30=CLOSED_SHELL('Closed Shell',(#70,#133,#157,#213,#230,#247,#264,#281,#293,#305)) ;
#307=SHAPE_REPRESENTATION_RELATIONSHIP(' ',' ',#19,#306) ;
#64=EDGE_LOOP('',(#65,#66,#67,#68)) ;
#123=EDGE_LOOP('',(#124,#125,#126,#127,#128,#129,#130,#131)) ;
#151=EDGE_LOOP('',(#152,#153,#154,#155)) ;
#203=EDGE_LOOP('',(#204,#205,#206,#207,#208,#209,#210,#211)) ;
#224=EDGE_LOOP('',(#225,#226,#227,#228)) ;
#241=EDGE_LOOP('',(#242,#243,#244,#245)) ;
#258=EDGE_LOOP('',(#259,#260,#261,#262)) ;
#275=EDGE_LOOP('',(#276,#277,#278,#279)) ;
#287=EDGE_LOOP('',(#288,#289,#290,#291)) ;
#299=EDGE_LOOP('',(#300,#301,#302,#303)) ;
#65=ORIENTED_EDGE('',*,*,#44,.F.) ;
#66=ORIENTED_EDGE('',*,*,#51,.T.) ;
#67=ORIENTED_EDGE('',*,*,#58,.T.) ;
#68=ORIENTED_EDGE('',*,*,#63,.T.) ;
#124=ORIENTED_EDGE('',*,*,#84,.T.) ;
#125=ORIENTED_EDGE('',*,*,#91,.F.) ;
#126=ORIENTED_EDGE('',*,*,#98,.F.) ;
#127=ORIENTED_EDGE('',*,*,#105,.T.) ;
#128=ORIENTED_EDGE('',*,*,#110,.T.) ;
#129=ORIENTED_EDGE('',*,*,#51,.F.) ;
#130=ORIENTED_EDGE('',*,*,#117,.F.) ;
#131=ORIENTED_EDGE('',*,*,#122,.F.) ;
#152=ORIENTED_EDGE('',*,*,#110,.F.) ;
#153=ORIENTED_EDGE('',*,*,#145,.T.) ;
#154=ORIENTED_EDGE('',*,*,#150,.T.) ;
#155=ORIENTED_EDGE('',*,*,#58,.F.) ;
#204=ORIENTED_EDGE('',*,*,#150,.F.) ;
#205=ORIENTED_EDGE('',*,*,#169,.T.) ;
#206=ORIENTED_EDGE('',*,*,#176,.T.) ;
#207=ORIENTED_EDGE('',*,*,#183,.F.) ;
#208=ORIENTED_EDGE('',*,*,#190,.F.) ;
#209=ORIENTED_EDGE('',*,*,#197,.T.) ;
#210=ORIENTED_EDGE('',*,*,#202,.F.) ;
#211=ORIENTED_EDGE('',*,*,#63,.F.) ;
#225=ORIENTED_EDGE('',*,*,#190,.T.) ;
#226=ORIENTED_EDGE('',*,*,#218,.F.) ;
#227=ORIENTED_EDGE('',*,*,#84,.F.) ;
#228=ORIENTED_EDGE('',*,*,#223,.T.) ;
#242=ORIENTED_EDGE('',*,*,#145,.F.) ;
#243=ORIENTED_EDGE('',*,*,#105,.F.) ;
#244=ORIENTED_EDGE('',*,*,#240,.F.) ;
#245=ORIENTED_EDGE('',*,*,#169,.F.) ;
#259=ORIENTED_EDGE('',*,*,#223,.F.) ;
#260=ORIENTED_EDGE('',*,*,#122,.T.) ;
#261=ORIENTED_EDGE('',*,*,#257,.T.) ;
#262=ORIENTED_EDGE('',*,*,#197,.F.) ;
#276=ORIENTED_EDGE('',*,*,#240,.T.) ;
#277=ORIENTED_EDGE('',*,*,#98,.T.) ;
#278=ORIENTED_EDGE('',*,*,#274,.F.) ;
#279=ORIENTED_EDGE('',*,*,#176,.F.) ;
#288=ORIENTED_EDGE('',*,*,#183,.T.) ;
#289=ORIENTED_EDGE('',*,*,#274,.T.) ;
#290=ORIENTED_EDGE('',*,*,#91,.T.) ;
#291=ORIENTED_EDGE('',*,*,#218,.T.) ;
#300=ORIENTED_EDGE('',*,*,#202,.T.) ;
#301=ORIENTED_EDGE('',*,*,#257,.F.) ;
#302=ORIENTED_EDGE('',*,*,#117,.T.) ;
#303=ORIENTED_EDGE('',*,*,#44,.T.) ;
#21=MANIFOLD_SOLID_BREP('M3D-138242 Renfort Primaire',#30) ;
#41=VERTEX_POINT('',#40) ;
#43=VERTEX_POINT('',#42) ;
#50=VERTEX_POINT('',#49) ;
#57=VERTEX_POINT('',#56) ;
#81=VERTEX_POINT('',#80) ;
#83=VERTEX_POINT('',#82) ;
#90=VERTEX_POINT('',#89) ;
#97=VERTEX_POINT('',#96) ;
#104=VERTEX_POINT('',#103) ;
#116=VERTEX_POINT('',#115) ;
#144=VERTEX_POINT('',#143) ;
#168=VERTEX_POINT('',#167) ;
#175=VERTEX_POINT('',#174) ;
#182=VERTEX_POINT('',#181) ;
#189=VERTEX_POINT('',#188) ;
#196=VERTEX_POINT('',#195) ;
#306=ADVANCED_BREP_SHAPE_REPRESENTATION('NONE',(#21),#16) ;
#70=ADVANCED_FACE('M3D-138242 Renfort Primaire',(#69),#35,.T.) ;
#133=ADVANCED_FACE('M3D-138242 Renfort Primaire',(#132),#75,.T.) ;
#157=ADVANCED_FACE('M3D-138242 Renfort Primaire',(#156),#138,.T.) ;
#213=ADVANCED_FACE('M3D-138242 Renfort Primaire',(#212),#162,.T.) ;
#230=ADVANCED_FACE('M3D-138242 Renfort Primaire',(#229),#138,.T.) ;
#247=ADVANCED_FACE('M3D-138242 Renfort Primaire',(#246),#235,.F.) ;
#264=ADVANCED_FACE('M3D-138242 Renfort Primaire',(#263),#252,.T.) ;
#281=ADVANCED_FACE('M3D-138242 Renfort Primaire',(#280),#269,.T.) ;
#293=ADVANCED_FACE('M3D-138242 Renfort Primaire',(#292),#286,.F.) ;
#305=ADVANCED_FACE('M3D-138242 Renfort Primaire',(#304),#298,.F.) ;
#4=APPLICATION_PROTOCOL_DEFINITION('international standard','ap242_managed_model_based_3d_engineering',2014,#1) ;
#22=COLOUR_RGB('Colour',0.623529411765,0.745098039216,0.874509803922) ;
#69=FACE_OUTER_BOUND('',#64,.T.) ;
#132=FACE_OUTER_BOUND('',#123,.T.) ;
#156=FACE_OUTER_BOUND('',#151,.T.) ;
#212=FACE_OUTER_BOUND('',#203,.T.) ;
#229=FACE_OUTER_BOUND('',#224,.T.) ;
#246=FACE_OUTER_BOUND('',#241,.T.) ;
#263=FACE_OUTER_BOUND('',#258,.T.) ;
#280=FACE_OUTER_BOUND('',#275,.T.) ;
#292=FACE_OUTER_BOUND('',#287,.T.) ;
#304=FACE_OUTER_BOUND('',#299,.T.) ;
#9=PRODUCT_CATEGORY_RELATIONSHIP(' ',' ',#7,#8) ;
#6=PRODUCT_DEFINITION_FORMATION_WITH_SPECIFIED_SOURCE('--A',' ',#5,.NOT_KNOWN.) ;
#20=SHAPE_DEFINITION_REPRESENTATION(#11,#19) ;
#12=(LENGTH_UNIT()NAMED_UNIT(*)SI_UNIT(.MILLI.,.METRE.)) ;
#13=(NAMED_UNIT(*)PLANE_ANGLE_UNIT()SI_UNIT($,.RADIAN.)) ;
#14=(NAMED_UNIT(*)SI_UNIT($,.STERADIAN.)SOLID_ANGLE_UNIT()) ;
#16=(GEOMETRIC_REPRESENTATION_CONTEXT(3)GLOBAL_UNCERTAINTY_ASSIGNED_CONTEXT((#15))GLOBAL_UNIT_ASSIGNED_CONTEXT((#12,#13,#14))REPRESENTATION_CONTEXT(' ',' ')) ;
ENDSEC;
END-ISO-10303-21;
