ISO-10303-21;
HEADER;
FILE_DESCRIPTION(('CATIA V5 STEP Exchange'),'2;1');

FILE_NAME('U:\\wlnt\\M3D-251673_A.stp','2023-08-21T15:32:35+00:00',('none'),('none'),'CATIA Version 5-6 Release 2016 SP5 HF59','CATIA V5 STEP AP203','none');

FILE_SCHEMA(('CONFIG_CONTROL_DESIGN'));

ENDSEC;
DATA;
#5=PRODUCT('M3D-251673','','HALF CLAMP D28.5-D15.1-D28.5',(#2)) ;
#1=APPLICATION_CONTEXT('configuration controlled 3D design of mechanical parts and assemblies') ;
#14=PRODUCT_DEFINITION('MASTER',' ',#6,#3) ;
#16=SECURITY_CLASSIFICATION(' ',' ',#15) ;
#15=SECURITY_CLASSIFICATION_LEVEL('unclassified') ;
#46=CARTESIAN_POINT(' ',(0.,0.,0.)) ;
#51=CARTESIAN_POINT('Axis2P3D Location',(64.,0.,-0.5)) ;
#56=CARTESIAN_POINT('Line Origine',(61.6211529354,-12.5,-0.5)) ;
#60=CARTESIAN_POINT('Vertex',(64.,-12.5,-0.5)) ;
#62=CARTESIAN_POINT('Vertex',(59.2423058708,-12.5,-0.5)) ;
#65=CARTESIAN_POINT('Line Origine',(64.,0.,-0.5)) ;
#69=CARTESIAN_POINT('Vertex',(64.,12.5,-0.5)) ;
#72=CARTESIAN_POINT('Line Origine',(61.6211529354,12.5,-0.5)) ;
#76=CARTESIAN_POINT('Vertex',(59.2423058708,12.5,-0.5)) ;
#80=CARTESIAN_POINT('Control Point',(59.2423058708,12.5,-0.5)) ;
#81=CARTESIAN_POINT('Control Point',(59.2051059044,12.5,-0.5)) ;
#82=CARTESIAN_POINT('Control Point',(59.1679060037,12.4991359204,-0.5)) ;
#83=CARTESIAN_POINT('Control Point',(59.1306994811,12.4974059112,-0.5)) ;
#84=CARTESIAN_POINT('Control Point',(59.093579979,12.4948143334,-0.5)) ;
#85=CARTESIAN_POINT('Control Point',(59.0565407233,12.4913624378,-0.5)) ;
#86=CARTESIAN_POINT('Vertex',(59.0565407233,12.4913624378,-0.5)) ;
#89=CARTESIAN_POINT('Line Origine',(59.0565407233,0.,-0.5)) ;
#93=CARTESIAN_POINT('Vertex',(59.0565407233,-12.4913624378,-0.5)) ;
#97=CARTESIAN_POINT('Control Point',(59.2423058708,-12.5,-0.5)) ;
#98=CARTESIAN_POINT('Control Point',(59.2051059044,-12.5,-0.5)) ;
#99=CARTESIAN_POINT('Control Point',(59.1679060037,-12.4991359204,-0.5)) ;
#100=CARTESIAN_POINT('Control Point',(59.1306994811,-12.4974059112,-0.5)) ;
#101=CARTESIAN_POINT('Control Point',(59.093579979,-12.4948143334,-0.5)) ;
#102=CARTESIAN_POINT('Control Point',(59.0565407233,-12.4913624378,-0.5)) ;
#113=CARTESIAN_POINT('Axis2P3D Location',(59.0565407233,0.,-2.5)) ;
#119=CARTESIAN_POINT('Control Point',(57.0803510958,-10.5,-2.19230769231)) ;
#120=CARTESIAN_POINT('Control Point',(57.0906555993,-10.571525298,-2.12612582062)) ;
#121=CARTESIAN_POINT('Control Point',(57.1037533571,-10.6429463101,-2.06022922887)) ;
#122=CARTESIAN_POINT('Control Point',(57.1071637779,-10.6594465811,-2.04537080628)) ;
#123=CARTESIAN_POINT('Control Point',(57.1783028444,-10.9598647937,-1.77147014713)) ;
#124=CARTESIAN_POINT('Control Point',(57.2991860947,-11.2565338163,-1.50725897936)) ;
#125=CARTESIAN_POINT('Control Point',(57.4212535475,-11.4774796098,-1.31337244352)) ;
#126=CARTESIAN_POINT('Control Point',(57.7268712412,-11.8922599245,-0.954177288117)) ;
#127=CARTESIAN_POINT('Control Point',(58.1825580821,-12.2330675139,-0.672012515323)) ;
#128=CARTESIAN_POINT('Control Point',(58.4461052777,-12.3746408096,-0.55928796986)) ;
#129=CARTESIAN_POINT('Control Point',(58.7485459965,-12.4626586849,-0.5)) ;
#130=CARTESIAN_POINT('Control Point',(59.0565407233,-12.4913624378,-0.5)) ;
#131=CARTESIAN_POINT('Vertex',(57.0803510958,-10.5,-2.19230769231)) ;
#135=CARTESIAN_POINT('Control Point',(57.0803510958,10.5,-2.19230769231)) ;
#136=CARTESIAN_POINT('Control Point',(57.0906555933,10.5715252562,-2.1261258593)) ;
#137=CARTESIAN_POINT('Control Point',(57.1037533417,10.6429462266,-2.06022930591)) ;
#138=CARTESIAN_POINT('Control Point',(57.1071637977,10.6594466646,-2.04537073019)) ;
#139=CARTESIAN_POINT('Control Point',(57.1783028612,10.9598648349,-1.77147011044)) ;
#140=CARTESIAN_POINT('Control Point',(57.2991860947,11.2565338163,-1.50725897935)) ;
#141=CARTESIAN_POINT('Control Point',(57.4212535475,11.4774796098,-1.31337244352)) ;
#142=CARTESIAN_POINT('Control Point',(57.7268712412,11.8922599245,-0.954177288114)) ;
#143=CARTESIAN_POINT('Control Point',(58.1825580821,12.2330675139,-0.672012515325)) ;
#144=CARTESIAN_POINT('Control Point',(58.4461052777,12.3746408096,-0.559287969858)) ;
#145=CARTESIAN_POINT('Control Point',(58.7485459965,12.4626586849,-0.5)) ;
#146=CARTESIAN_POINT('Control Point',(59.0565407233,12.4913624378,-0.5)) ;
#147=CARTESIAN_POINT('Vertex',(57.0803510958,10.5,-2.19230769231)) ;
#150=CARTESIAN_POINT('Line Origine',(57.0803510958,0.,-2.19230769231)) ;
#162=CARTESIAN_POINT('Axis2P3D Location',(43.,0.,-8.52651282912E-014)) ;
#167=CARTESIAN_POINT('Axis2P3D Location',(43.,-10.5,-8.52651282912E-014)) ;
#171=CARTESIAN_POINT('Vertex',(28.9196489042,-10.5,-2.19230769231)) ;
#174=CARTESIAN_POINT('Axis2P3D Location',(43.,10.5,-8.52651282912E-014)) ;
#178=CARTESIAN_POINT('Vertex',(28.9196489042,10.5,-2.19230769231)) ;
#181=CARTESIAN_POINT('Line Origine',(28.9196489042,0.,-2.19230769231)) ;
#193=CARTESIAN_POINT('Axis2P3D Location',(43.,10.5,-8.17124146124E-014)) ;
#198=CARTESIAN_POINT('Axis2P3D Location',(43.,12.5,-8.17124146124E-014)) ;
#202=CARTESIAN_POINT('Vertex',(26.7576941292,12.5,-0.5)) ;
#206=CARTESIAN_POINT('Control Point',(26.7576941292,12.5,-0.5)) ;
#207=CARTESIAN_POINT('Control Point',(26.8196940731,12.5,-0.5)) ;
#208=CARTESIAN_POINT('Control Point',(26.8817271838,12.4971155971,-0.5)) ;
#209=CARTESIAN_POINT('Control Point',(26.9434592767,12.4913624378,-0.5)) ;
#210=CARTESIAN_POINT('Vertex',(26.9434592767,12.4913624378,-0.5)) ;
#214=CARTESIAN_POINT('Control Point',(28.9196489042,10.5,-2.19230769231)) ;
#215=CARTESIAN_POINT('Control Point',(28.9093444028,10.5715252836,-2.12612583396)) ;
#216=CARTESIAN_POINT('Control Point',(28.896291599,10.6431902864,-2.06051795728)) ;
#217=CARTESIAN_POINT('Control Point',(28.8928362218,10.6594466512,-2.04537082876)) ;
#218=CARTESIAN_POINT('Control Point',(28.8216971288,10.9598646754,-1.77146997814)) ;
#219=CARTESIAN_POINT('Control Point',(28.7008139729,11.2565342412,-1.50725948096)) ;
#220=CARTESIAN_POINT('Control Point',(28.5787465192,11.4774803988,-1.31337326685)) ;
#221=CARTESIAN_POINT('Control Point',(28.2731286953,11.8922591741,-0.954176505061)) ;
#222=CARTESIAN_POINT('Control Point',(27.8174419783,12.2330682276,-0.672013260061)) ;
#223=CARTESIAN_POINT('Control Point',(27.5538947232,12.3746406459,-0.55928800139)) ;
#224=CARTESIAN_POINT('Control Point',(27.2514540035,12.4626586849,-0.5)) ;
#225=CARTESIAN_POINT('Control Point',(26.9434592767,12.4913624378,-0.5)) ;
#236=CARTESIAN_POINT('Axis2P3D Location',(43.,-10.5,-8.17124146124E-014)) ;
#242=CARTESIAN_POINT('Control Point',(28.9196489042,-10.5,-2.19230769231)) ;
#243=CARTESIAN_POINT('Control Point',(28.9093443927,-10.5715253537,-2.12612576912)) ;
#244=CARTESIAN_POINT('Control Point',(28.8962915735,-10.6431904269,-2.06051782872)) ;
#245=CARTESIAN_POINT('Control Point',(28.8928362549,-10.6594465113,-2.0453709563)) ;
#246=CARTESIAN_POINT('Control Point',(28.8216971569,-10.9598646064,-1.77147003965)) ;
#247=CARTESIAN_POINT('Control Point',(28.7008139729,-11.2565342412,-1.50725948096)) ;
#248=CARTESIAN_POINT('Control Point',(28.5787465192,-11.4774803988,-1.31337326686)) ;
#249=CARTESIAN_POINT('Control Point',(28.2731286954,-11.8922591741,-0.954176505069)) ;
#250=CARTESIAN_POINT('Control Point',(27.8174419783,-12.2330682275,-0.672013260068)) ;
#251=CARTESIAN_POINT('Control Point',(27.5538947232,-12.3746406459,-0.559288001387)) ;
#252=CARTESIAN_POINT('Control Point',(27.2514540035,-12.4626586849,-0.5)) ;
#253=CARTESIAN_POINT('Control Point',(26.9434592767,-12.4913624378,-0.5)) ;
#254=CARTESIAN_POINT('Vertex',(26.9434592767,-12.4913624378,-0.5)) ;
#258=CARTESIAN_POINT('Control Point',(26.7576941292,-12.5,-0.5)) ;
#259=CARTESIAN_POINT('Control Point',(26.8196940731,-12.5,-0.5)) ;
#260=CARTESIAN_POINT('Control Point',(26.8817271838,-12.4971155971,-0.5)) ;
#261=CARTESIAN_POINT('Control Point',(26.9434592767,-12.4913624378,-0.5)) ;
#262=CARTESIAN_POINT('Vertex',(26.7576941292,-12.5,-0.5)) ;
#265=CARTESIAN_POINT('Axis2P3D Location',(43.,-12.5,-8.17124146124E-014)) ;
#279=CARTESIAN_POINT('Axis2P3D Location',(26.9434592767,0.,-2.5)) ;
#284=CARTESIAN_POINT('Line Origine',(26.9434592767,0.,-0.5)) ;
#296=CARTESIAN_POINT('Axis2P3D Location',(1.5,0.,0.5)) ;
#301=CARTESIAN_POINT('Axis2P3D Location',(1.5,-10.5,0.5)) ;
#305=CARTESIAN_POINT('Vertex',(9.69703479346,-10.5,-1.93127962085)) ;
#307=CARTESIAN_POINT('Vertex',(1.5,-10.5,-8.05)) ;
#310=CARTESIAN_POINT('Line Origine',(9.69703479346,0.,-1.93127962085)) ;
#314=CARTESIAN_POINT('Vertex',(9.69703479346,10.5,-1.93127962085)) ;
#317=CARTESIAN_POINT('Axis2P3D Location',(1.5,10.5,0.5)) ;
#321=CARTESIAN_POINT('Vertex',(1.5,10.5,-8.05)) ;
#324=CARTESIAN_POINT('Line Origine',(1.5,0.,-8.05)) ;
#336=CARTESIAN_POINT('Axis2P3D Location',(1.5,10.5,0.5)) ;
#341=CARTESIAN_POINT('Axis2P3D Location',(1.5,12.5,0.5)) ;
#345=CARTESIAN_POINT('Vertex',(1.5,12.5,-10.05)) ;
#347=CARTESIAN_POINT('Vertex',(12.0024997025,12.5,-0.5)) ;
#350=CARTESIAN_POINT('Axis2P3D Location',(1.5,10.5,-10.05)) ;
#356=CARTESIAN_POINT('Control Point',(9.69703479346,10.5,-1.93127962085)) ;
#357=CARTESIAN_POINT('Control Point',(9.71428026816,10.5673673603,-1.87313667632)) ;
#358=CARTESIAN_POINT('Control Point',(9.73369258694,10.6348626204,-1.81577219471)) ;
#359=CARTESIAN_POINT('Control Point',(9.73853660818,10.6501844913,-1.8025656933)) ;
#360=CARTESIAN_POINT('Control Point',(9.83311317577,10.9329125346,-1.56478528064)) ;
#361=CARTESIAN_POINT('Control Point',(9.9673923863,11.2129112079,-1.33920635194)) ;
#362=CARTESIAN_POINT('Control Point',(10.0938590007,11.4225169966,-1.17523717013)) ;
#363=CARTESIAN_POINT('Control Point',(10.3942381243,11.8174989041,-0.875320230242)) ;
#364=CARTESIAN_POINT('Control Point',(10.8181282788,12.1560858811,-0.642320528262)) ;
#365=CARTESIAN_POINT('Control Point',(11.0572071585,12.3014917875,-0.550277195922)) ;
#366=CARTESIAN_POINT('Control Point',(11.3308439039,12.4068046368,-0.5)) ;
#367=CARTESIAN_POINT('Control Point',(11.6144698329,12.4623549638,-0.5)) ;
#368=CARTESIAN_POINT('Vertex',(11.6144698329,12.4623549638,-0.5)) ;
#372=CARTESIAN_POINT('Control Point',(12.0024997025,12.5,-0.5)) ;
#373=CARTESIAN_POINT('Control Point',(11.8723349262,12.5,-0.5)) ;
#374=CARTESIAN_POINT('Control Point',(11.7421845886,12.4873688843,-0.5)) ;
#375=CARTESIAN_POINT('Control Point',(11.6144698329,12.4623549638,-0.5)) ;
#385=CARTESIAN_POINT('Axis2P3D Location',(1.5,-10.5,0.5)) ;
#390=CARTESIAN_POINT('Axis2P3D Location',(1.5,-10.5,-10.05)) ;
#394=CARTESIAN_POINT('Vertex',(1.5,-12.5,-10.05)) ;
#397=CARTESIAN_POINT('Axis2P3D Location',(1.5,-12.5,0.5)) ;
#401=CARTESIAN_POINT('Vertex',(12.0024997025,-12.5,-0.5)) ;
#405=CARTESIAN_POINT('Control Point',(12.0024997025,-12.5,-0.5)) ;
#406=CARTESIAN_POINT('Control Point',(11.8723349262,-12.5,-0.5)) ;
#407=CARTESIAN_POINT('Control Point',(11.7421845886,-12.4873688843,-0.5)) ;
#408=CARTESIAN_POINT('Control Point',(11.6144698329,-12.4623549638,-0.5)) ;
#409=CARTESIAN_POINT('Vertex',(11.6144698329,-12.4623549638,-0.5)) ;
#413=CARTESIAN_POINT('Control Point',(9.69703479346,-10.5,-1.93127962085)) ;
#414=CARTESIAN_POINT('Control Point',(9.71428027392,-10.5673673828,-1.87313665689)) ;
#415=CARTESIAN_POINT('Control Point',(9.73369259991,-10.6348626655,-1.81577215639)) ;
#416=CARTESIAN_POINT('Control Point',(9.73853659315,-10.6501844463,-1.8025657311)) ;
#417=CARTESIAN_POINT('Control Point',(9.83311316509,-10.9329125124,-1.56478529857)) ;
#418=CARTESIAN_POINT('Control Point',(9.96739238629,-11.2129112079,-1.33920635194)) ;
#419=CARTESIAN_POINT('Control Point',(10.0938590007,-11.4225169966,-1.17523717014)) ;
#420=CARTESIAN_POINT('Control Point',(10.3942381243,-11.8174989041,-0.875320230244)) ;
#421=CARTESIAN_POINT('Control Point',(10.8181282788,-12.1560858811,-0.642320528265)) ;
#422=CARTESIAN_POINT('Control Point',(11.0572071585,-12.3014917875,-0.550277195922)) ;
#423=CARTESIAN_POINT('Control Point',(11.3308439039,-12.4068046368,-0.5)) ;
#424=CARTESIAN_POINT('Control Point',(11.6144698329,-12.4623549638,-0.5)) ;
#434=CARTESIAN_POINT('Axis2P3D Location',(11.6144698329,0.,-2.5)) ;
#439=CARTESIAN_POINT('Line Origine',(11.6144698329,0.,-0.5)) ;
#443=CARTESIAN_POINT('Vertex',(11.6144698329,-1.0085262283,-0.5)) ;
#447=CARTESIAN_POINT('Control Point',(11.5,0.,-0.503278522837)) ;
#448=CARTESIAN_POINT('Control Point',(11.5,-0.339069207831,-0.503278522837)) ;
#449=CARTESIAN_POINT('Control Point',(11.5384786797,-0.678082175039,-0.5)) ;
#450=CARTESIAN_POINT('Control Point',(11.6144698329,-1.0085262283,-0.5)) ;
#451=CARTESIAN_POINT('Vertex',(11.5,-1.66935498963E-015,-0.503278522837)) ;
#455=CARTESIAN_POINT('Control Point',(11.6144698329,1.0085262283,-0.5)) ;
#456=CARTESIAN_POINT('Control Point',(11.5384786797,0.678082175041,-0.5)) ;
#457=CARTESIAN_POINT('Control Point',(11.5,0.339069207829,-0.503278522837)) ;
#458=CARTESIAN_POINT('Control Point',(11.5,-1.12932732442E-016,-0.503278522837)) ;
#459=CARTESIAN_POINT('Vertex',(11.6144698329,1.0085262283,-0.5)) ;
#462=CARTESIAN_POINT('Line Origine',(11.6144698329,0.,-0.5)) ;
#477=CARTESIAN_POINT('Axis2P3D Location',(1.5,0.,-8.05)) ;
#482=CARTESIAN_POINT('Line Origine',(2.10942374679E-014,10.5,-8.05)) ;
#486=CARTESIAN_POINT('Vertex',(-1.5,10.5,-8.05)) ;
#489=CARTESIAN_POINT('Line Origine',(-1.5,0.,-8.05)) ;
#493=CARTESIAN_POINT('Vertex',(-1.5,-10.5,-8.05)) ;
#496=CARTESIAN_POINT('Line Origine',(2.10942374679E-014,-10.5,-8.05)) ;
#508=CARTESIAN_POINT('Axis2P3D Location',(-1.13686837722E-013,10.5,-10.05)) ;
#513=CARTESIAN_POINT('Axis2P3D Location',(-1.5,10.5,-10.05)) ;
#517=CARTESIAN_POINT('Vertex',(-1.5,12.5,-10.05)) ;
#520=CARTESIAN_POINT('Line Origine',(-1.13686837722E-013,12.5,-10.05)) ;
#532=CARTESIAN_POINT('Axis2P3D Location',(-1.13686837722E-013,-10.5,-10.05)) ;
#537=CARTESIAN_POINT('Axis2P3D Location',(-1.5,-10.5,-10.05)) ;
#541=CARTESIAN_POINT('Vertex',(-1.5,-12.5,-10.05)) ;
#544=CARTESIAN_POINT('Line Origine',(-1.13686837722E-013,-12.5,-10.05)) ;
#556=CARTESIAN_POINT('Axis2P3D Location',(-1.5,0.,0.5)) ;
#561=CARTESIAN_POINT('Axis2P3D Location',(-1.5,10.5,0.5)) ;
#565=CARTESIAN_POINT('Vertex',(-9.69703479346,10.5,-1.93127962085)) ;
#568=CARTESIAN_POINT('Line Origine',(-9.69703479346,0.,-1.93127962085)) ;
#572=CARTESIAN_POINT('Vertex',(-9.69703479346,-10.5,-1.93127962085)) ;
#575=CARTESIAN_POINT('Axis2P3D Location',(-1.5,-10.5,0.5)) ;
#587=CARTESIAN_POINT('Axis2P3D Location',(-1.5,10.5,0.5)) ;
#592=CARTESIAN_POINT('Axis2P3D Location',(-1.5,12.5,0.5)) ;
#596=CARTESIAN_POINT('Vertex',(-12.0024997025,12.5,-0.5)) ;
#600=CARTESIAN_POINT('Control Point',(-12.0024997025,12.5,-0.5)) ;
#601=CARTESIAN_POINT('Control Point',(-11.8723349262,12.5,-0.5)) ;
#602=CARTESIAN_POINT('Control Point',(-11.7421845886,12.4873688843,-0.5)) ;
#603=CARTESIAN_POINT('Control Point',(-11.6144698329,12.4623549638,-0.5)) ;
#604=CARTESIAN_POINT('Vertex',(-11.6144698329,12.4623549638,-0.5)) ;
#608=CARTESIAN_POINT('Control Point',(-9.69703479346,10.5,-1.93127962085)) ;
#609=CARTESIAN_POINT('Control Point',(-9.71428027875,10.5673674017,-1.87313664061)) ;
#610=CARTESIAN_POINT('Control Point',(-9.73369261079,10.6348627033,-1.81577212425)) ;
#611=CARTESIAN_POINT('Control Point',(-9.73853658054,10.6501844086,-1.80256576279)) ;
#612=CARTESIAN_POINT('Control Point',(-9.83311315615,10.9329124937,-1.5647853136)) ;
#613=CARTESIAN_POINT('Control Point',(-9.9673923863,11.212911208,-1.33920635194)) ;
#614=CARTESIAN_POINT('Control Point',(-10.0938590007,11.4225169966,-1.17523717013)) ;
#615=CARTESIAN_POINT('Control Point',(-10.3942381243,11.8174989041,-0.875320230241)) ;
#616=CARTESIAN_POINT('Control Point',(-10.8181282788,12.1560858811,-0.642320528262)) ;
#617=CARTESIAN_POINT('Control Point',(-11.0572071585,12.3014917875,-0.550277195922)) ;
#618=CARTESIAN_POINT('Control Point',(-11.3308439039,12.4068046368,-0.5)) ;
#619=CARTESIAN_POINT('Control Point',(-11.6144698329,12.4623549638,-0.5)) ;
#629=CARTESIAN_POINT('Axis2P3D Location',(-1.5,-10.5,0.5)) ;
#634=CARTESIAN_POINT('Axis2P3D Location',(-1.5,-12.5,0.5)) ;
#638=CARTESIAN_POINT('Vertex',(-12.0024997025,-12.5,-0.5)) ;
#642=CARTESIAN_POINT('Control Point',(-9.69703479346,-10.5,-1.93127962085)) ;
#643=CARTESIAN_POINT('Control Point',(-9.71428028178,-10.5673674135,-1.8731366304)) ;
#644=CARTESIAN_POINT('Control Point',(-9.7336926176,-10.634862727,-1.81577210411)) ;
#645=CARTESIAN_POINT('Control Point',(-9.73853657264,-10.650184385,-1.80256578265)) ;
#646=CARTESIAN_POINT('Control Point',(-9.83311315054,-10.932912482,-1.56478532302)) ;
#647=CARTESIAN_POINT('Control Point',(-9.9673923863,-11.212911208,-1.33920635194)) ;
#648=CARTESIAN_POINT('Control Point',(-10.0938590007,-11.4225169966,-1.17523717014)) ;
#649=CARTESIAN_POINT('Control Point',(-10.3942381243,-11.8174989041,-0.875320230243)) ;
#650=CARTESIAN_POINT('Control Point',(-10.8181282788,-12.1560858811,-0.642320528262)) ;
#651=CARTESIAN_POINT('Control Point',(-11.0572071585,-12.3014917875,-0.550277195922)) ;
#652=CARTESIAN_POINT('Control Point',(-11.3308439039,-12.4068046368,-0.5)) ;
#653=CARTESIAN_POINT('Control Point',(-11.6144698329,-12.4623549638,-0.5)) ;
#654=CARTESIAN_POINT('Vertex',(-11.6144698329,-12.4623549638,-0.5)) ;
#658=CARTESIAN_POINT('Control Point',(-12.0024997025,-12.5,-0.5)) ;
#659=CARTESIAN_POINT('Control Point',(-11.8723349262,-12.5,-0.5)) ;
#660=CARTESIAN_POINT('Control Point',(-11.7421845886,-12.4873688843,-0.5)) ;
#661=CARTESIAN_POINT('Control Point',(-11.6144698329,-12.4623549638,-0.5)) ;
#671=CARTESIAN_POINT('Axis2P3D Location',(-11.6144698329,1.7763568394E-015,-2.5)) ;
#676=CARTESIAN_POINT('Line Origine',(-11.6144698329,0.,-0.5)) ;
#680=CARTESIAN_POINT('Vertex',(-11.6144698329,1.0085262283,-0.5)) ;
#684=CARTESIAN_POINT('Control Point',(-11.5,6.66133814775E-016,-0.503278522837)) ;
#685=CARTESIAN_POINT('Control Point',(-11.5,0.339069207832,-0.503278522837)) ;
#686=CARTESIAN_POINT('Control Point',(-11.5384786797,0.678082175038,-0.5)) ;
#687=CARTESIAN_POINT('Control Point',(-11.6144698329,1.0085262283,-0.5)) ;
#688=CARTESIAN_POINT('Vertex',(-11.5,4.67097760882E-015,-0.503278522837)) ;
#692=CARTESIAN_POINT('Control Point',(-11.6144698329,-1.0085262283,-0.5)) ;
#693=CARTESIAN_POINT('Control Point',(-11.5384786797,-0.678082175034,-0.5)) ;
#694=CARTESIAN_POINT('Control Point',(-11.5,-0.339069207837,-0.503278522837)) ;
#695=CARTESIAN_POINT('Control Point',(-11.5,7.7906654722E-016,-0.503278522837)) ;
#696=CARTESIAN_POINT('Vertex',(-11.6144698329,-1.0085262283,-0.5)) ;
#699=CARTESIAN_POINT('Line Origine',(-11.6144698329,0.,-0.5)) ;
#714=CARTESIAN_POINT('Axis2P3D Location',(-43.,0.,-8.52651282912E-014)) ;
#719=CARTESIAN_POINT('Axis2P3D Location',(-43.,-10.5,-8.52651282912E-014)) ;
#723=CARTESIAN_POINT('Vertex',(-28.9196489042,-10.5,-2.19230769231)) ;
#725=CARTESIAN_POINT('Vertex',(-57.0803510958,-10.5,-2.19230769231)) ;
#728=CARTESIAN_POINT('Line Origine',(-28.9196489042,0.,-2.19230769231)) ;
#732=CARTESIAN_POINT('Vertex',(-28.9196489042,10.5,-2.19230769231)) ;
#735=CARTESIAN_POINT('Axis2P3D Location',(-43.,10.5,-8.52651282912E-014)) ;
#739=CARTESIAN_POINT('Vertex',(-57.0803510958,10.5,-2.19230769231)) ;
#742=CARTESIAN_POINT('Line Origine',(-57.0803510958,0.,-2.19230769231)) ;
#754=CARTESIAN_POINT('Axis2P3D Location',(-59.0565407233,0.,-2.5)) ;
#760=CARTESIAN_POINT('Control Point',(-57.0803510958,10.5,-2.19230769231)) ;
#761=CARTESIAN_POINT('Control Point',(-57.0906556213,10.5715254508,-2.1261256792)) ;
#762=CARTESIAN_POINT('Control Point',(-57.103753413,10.6429466153,-2.06022894725)) ;
#763=CARTESIAN_POINT('Control Point',(-57.1071637057,10.6594462761,-2.04537108441)) ;
#764=CARTESIAN_POINT('Control Point',(-57.178302783,10.959864643,-1.77147028128)) ;
#765=CARTESIAN_POINT('Control Point',(-57.2991860947,11.2565338163,-1.50725897935)) ;
#766=CARTESIAN_POINT('Control Point',(-57.4212535475,11.4774796098,-1.31337244351)) ;
#767=CARTESIAN_POINT('Control Point',(-57.7268712412,11.8922599245,-0.95417728811)) ;
#768=CARTESIAN_POINT('Control Point',(-58.1825580821,12.2330675139,-0.672012515321)) ;
#769=CARTESIAN_POINT('Control Point',(-58.4461052777,12.3746408096,-0.559287969858)) ;
#770=CARTESIAN_POINT('Control Point',(-58.7485459965,12.4626586849,-0.5)) ;
#771=CARTESIAN_POINT('Control Point',(-59.0565407233,12.4913624378,-0.5)) ;
#772=CARTESIAN_POINT('Vertex',(-59.0565407233,12.4913624378,-0.5)) ;
#775=CARTESIAN_POINT('Line Origine',(-59.0565407233,0.,-0.5)) ;
#779=CARTESIAN_POINT('Vertex',(-59.0565407233,-12.4913624378,-0.5)) ;
#783=CARTESIAN_POINT('Control Point',(-57.0803510958,-10.5,-2.19230769231)) ;
#784=CARTESIAN_POINT('Control Point',(-57.0906556011,-10.5715253105,-2.12612580907)) ;
#785=CARTESIAN_POINT('Control Point',(-57.1037533616,-10.642946335,-2.06022920588)) ;
#786=CARTESIAN_POINT('Control Point',(-57.107163772,-10.6594465562,-2.04537082899)) ;
#787=CARTESIAN_POINT('Control Point',(-57.1783028394,-10.9598647814,-1.77147015808)) ;
#788=CARTESIAN_POINT('Control Point',(-57.2991860947,-11.2565338163,-1.50725897935)) ;
#789=CARTESIAN_POINT('Control Point',(-57.4212535475,-11.4774796098,-1.31337244352)) ;
#790=CARTESIAN_POINT('Control Point',(-57.7268712412,-11.8922599245,-0.954177288113)) ;
#791=CARTESIAN_POINT('Control Point',(-58.1825580821,-12.2330675139,-0.672012515321)) ;
#792=CARTESIAN_POINT('Control Point',(-58.4461052777,-12.3746408096,-0.559287969859)) ;
#793=CARTESIAN_POINT('Control Point',(-58.7485459965,-12.4626586849,-0.5)) ;
#794=CARTESIAN_POINT('Control Point',(-59.0565407233,-12.4913624378,-0.5)) ;
#803=CARTESIAN_POINT('Axis2P3D Location',(-43.,10.5,-8.17124146124E-014)) ;
#809=CARTESIAN_POINT('Control Point',(-28.9196489042,10.5,-2.19230769231)) ;
#810=CARTESIAN_POINT('Control Point',(-28.9093444051,10.5715252677,-2.12612584866)) ;
#811=CARTESIAN_POINT('Control Point',(-28.8962916048,10.6431902546,-2.06051798642)) ;
#812=CARTESIAN_POINT('Control Point',(-28.8928362143,10.6594466829,-2.04537079986)) ;
#813=CARTESIAN_POINT('Control Point',(-28.8216971224,10.9598646911,-1.77146996419)) ;
#814=CARTESIAN_POINT('Control Point',(-28.7008139728,11.2565342412,-1.50725948095)) ;
#815=CARTESIAN_POINT('Control Point',(-28.5787465192,11.4774803988,-1.31337326685)) ;
#816=CARTESIAN_POINT('Control Point',(-28.2731286953,11.8922591741,-0.954176505063)) ;
#817=CARTESIAN_POINT('Control Point',(-27.8174419783,12.2330682276,-0.672013260063)) ;
#818=CARTESIAN_POINT('Control Point',(-27.5538947232,12.3746406459,-0.559288001389)) ;
#819=CARTESIAN_POINT('Control Point',(-27.2514540035,12.4626586849,-0.5)) ;
#820=CARTESIAN_POINT('Control Point',(-26.9434592767,12.4913624378,-0.5)) ;
#821=CARTESIAN_POINT('Vertex',(-26.9434592767,12.4913624378,-0.5)) ;
#825=CARTESIAN_POINT('Control Point',(-26.7576941292,12.5,-0.5)) ;
#826=CARTESIAN_POINT('Control Point',(-26.8196940731,12.5,-0.5)) ;
#827=CARTESIAN_POINT('Control Point',(-26.8817271838,12.4971155971,-0.5)) ;
#828=CARTESIAN_POINT('Control Point',(-26.9434592767,12.4913624378,-0.5)) ;
#829=CARTESIAN_POINT('Vertex',(-26.7576941292,12.5,-0.5)) ;
#832=CARTESIAN_POINT('Axis2P3D Location',(-43.,12.5,-8.17124146124E-014)) ;
#836=CARTESIAN_POINT('Vertex',(-59.2423058708,12.5,-0.5)) ;
#840=CARTESIAN_POINT('Control Point',(-59.2423058708,12.5,-0.5)) ;
#841=CARTESIAN_POINT('Control Point',(-59.1803059269,12.5,-0.5)) ;
#842=CARTESIAN_POINT('Control Point',(-59.1182728162,12.4971155971,-0.5)) ;
#843=CARTESIAN_POINT('Control Point',(-59.0565407233,12.4913624378,-0.5)) ;
#854=CARTESIAN_POINT('Axis2P3D Location',(-43.,-10.5,-8.17124146124E-014)) ;
#860=CARTESIAN_POINT('Control Point',(-59.2423058708,-12.5,-0.5)) ;
#861=CARTESIAN_POINT('Control Point',(-59.1803059269,-12.5,-0.5)) ;
#862=CARTESIAN_POINT('Control Point',(-59.1182728162,-12.4971155971,-0.5)) ;
#863=CARTESIAN_POINT('Control Point',(-59.0565407233,-12.4913624378,-0.5)) ;
#864=CARTESIAN_POINT('Vertex',(-59.2423058708,-12.5,-0.5)) ;
#867=CARTESIAN_POINT('Axis2P3D Location',(-43.,-12.5,-8.17124146124E-014)) ;
#871=CARTESIAN_POINT('Vertex',(-26.7576941292,-12.5,-0.5)) ;
#875=CARTESIAN_POINT('Control Point',(-26.7576941292,-12.5,-0.5)) ;
#876=CARTESIAN_POINT('Control Point',(-26.8196940731,-12.5,-0.5)) ;
#877=CARTESIAN_POINT('Control Point',(-26.8817271838,-12.4971155971,-0.5)) ;
#878=CARTESIAN_POINT('Control Point',(-26.9434592767,-12.4913624378,-0.5)) ;
#879=CARTESIAN_POINT('Vertex',(-26.9434592767,-12.4913624378,-0.5)) ;
#883=CARTESIAN_POINT('Control Point',(-28.9196489042,-10.5,-2.19230769231)) ;
#884=CARTESIAN_POINT('Control Point',(-28.9093444554,-10.5715249185,-2.12612617174)) ;
#885=CARTESIAN_POINT('Control Point',(-28.8962917323,-10.6431895549,-2.06051862698)) ;
#886=CARTESIAN_POINT('Control Point',(-28.8928360493,-10.6594473799,-2.04537016442)) ;
#887=CARTESIAN_POINT('Control Point',(-28.8216969822,-10.9598650352,-1.77146965772)) ;
#888=CARTESIAN_POINT('Control Point',(-28.7008139729,-11.2565342412,-1.50725948096)) ;
#889=CARTESIAN_POINT('Control Point',(-28.5787465192,-11.4774803988,-1.31337326685)) ;
#890=CARTESIAN_POINT('Control Point',(-28.2731286953,-11.8922591741,-0.954176505064)) ;
#891=CARTESIAN_POINT('Control Point',(-27.8174419783,-12.2330682276,-0.672013260063)) ;
#892=CARTESIAN_POINT('Control Point',(-27.5538947232,-12.3746406459,-0.559288001389)) ;
#893=CARTESIAN_POINT('Control Point',(-27.2514540035,-12.4626586849,-0.5)) ;
#894=CARTESIAN_POINT('Control Point',(-26.9434592767,-12.4913624378,-0.5)) ;
#905=CARTESIAN_POINT('Axis2P3D Location',(-26.9434592767,0.,-2.5)) ;
#910=CARTESIAN_POINT('Line Origine',(-26.9434592767,0.,-0.5)) ;
#922=CARTESIAN_POINT('Line Origine',(-61.6211529354,12.5,-0.5)) ;
#926=CARTESIAN_POINT('Vertex',(-64.,12.5,-0.5)) ;
#929=CARTESIAN_POINT('Line Origine',(-64.,0.,-0.5)) ;
#933=CARTESIAN_POINT('Vertex',(-64.,-12.5,-0.5)) ;
#936=CARTESIAN_POINT('Line Origine',(-61.6211529354,-12.5,-0.5)) ;
#950=CARTESIAN_POINT('Line Origine',(-19.3800969158,12.5,-0.5)) ;
#955=CARTESIAN_POINT('Line Origine',(-19.3800969158,-12.5,-0.5)) ;
#960=CARTESIAN_POINT('Axis2P3D Location',(-16.,1.7763568394E-015,-0.5)) ;
#964=CARTESIAN_POINT('Vertex',(-20.5,-1.66935498963E-015,-0.5)) ;
#967=CARTESIAN_POINT('Axis2P3D Location',(-16.,1.7763568394E-015,-0.5)) ;
#986=CARTESIAN_POINT('Line Origine',(19.3800969158,-12.5,-0.5)) ;
#991=CARTESIAN_POINT('Line Origine',(19.3800969158,12.5,-0.5)) ;
#996=CARTESIAN_POINT('Axis2P3D Location',(16.,1.7763568394E-015,-0.5)) ;
#1000=CARTESIAN_POINT('Vertex',(20.5,1.81346036393E-015,-0.5)) ;
#1003=CARTESIAN_POINT('Axis2P3D Location',(16.,1.7763568394E-015,-0.5)) ;
#1022=CARTESIAN_POINT('Axis2P3D Location',(-16.,1.7763568394E-015,-13.)) ;
#1027=CARTESIAN_POINT('Line Origine',(-11.5,6.74174720168E-016,-13.)) ;
#1031=CARTESIAN_POINT('Vertex',(-11.5,1.85027561733E-015,-19.5)) ;
#1034=CARTESIAN_POINT('Axis2P3D Location',(-16.,1.7763568394E-015,-19.5)) ;
#1038=CARTESIAN_POINT('Vertex',(-20.5,2.32744789902E-015,-19.5)) ;
#1041=CARTESIAN_POINT('Line Origine',(-20.5,2.32744789902E-015,-13.)) ;
#1054=CARTESIAN_POINT('Axis2P3D Location',(-16.,1.7763568394E-015,-19.5)) ;
#1067=CARTESIAN_POINT('Axis2P3D Location',(16.,1.7763568394E-015,-13.)) ;
#1072=CARTESIAN_POINT('Line Origine',(20.5,6.74174720168E-016,-13.)) ;
#1076=CARTESIAN_POINT('Vertex',(20.5,1.81346036393E-015,-19.5)) ;
#1079=CARTESIAN_POINT('Axis2P3D Location',(16.,1.7763568394E-015,-19.5)) ;
#1083=CARTESIAN_POINT('Vertex',(11.5,2.32744789902E-015,-19.5)) ;
#1086=CARTESIAN_POINT('Line Origine',(11.5,2.32744789902E-015,-13.)) ;
#1099=CARTESIAN_POINT('Axis2P3D Location',(16.,1.7763568394E-015,-19.5)) ;
#1112=CARTESIAN_POINT('Axis2P3D Location',(-64.,0.,-0.5)) ;
#1117=CARTESIAN_POINT('Line Origine',(-64.,-12.5,-8.5)) ;
#1121=CARTESIAN_POINT('Vertex',(-64.,-12.5,-16.5)) ;
#1124=CARTESIAN_POINT('Line Origine',(-64.,12.5,-8.5)) ;
#1128=CARTESIAN_POINT('Vertex',(-64.,12.5,-16.5)) ;
#1131=CARTESIAN_POINT('Line Origine',(-64.,0.,-16.5)) ;
#1143=CARTESIAN_POINT('Axis2P3D Location',(-61.,0.,-19.5)) ;
#1148=CARTESIAN_POINT('Line Origine',(-62.5,-12.5,-18.)) ;
#1152=CARTESIAN_POINT('Vertex',(-61.,-12.5,-19.5)) ;
#1155=CARTESIAN_POINT('Line Origine',(-62.5,12.5,-18.)) ;
#1159=CARTESIAN_POINT('Vertex',(-61.,12.5,-19.5)) ;
#1162=CARTESIAN_POINT('Line Origine',(-61.,0.,-19.5)) ;
#1174=CARTESIAN_POINT('Axis2P3D Location',(64.,0.,-19.5)) ;
#1179=CARTESIAN_POINT('Line Origine',(64.,12.5,-8.5)) ;
#1183=CARTESIAN_POINT('Vertex',(64.,12.5,-16.5)) ;
#1186=CARTESIAN_POINT('Line Origine',(64.,-12.5,-8.5)) ;
#1190=CARTESIAN_POINT('Vertex',(64.,-12.5,-16.5)) ;
#1193=CARTESIAN_POINT('Line Origine',(64.,1.7763568394E-015,-16.5)) ;
#1205=CARTESIAN_POINT('Axis2P3D Location',(0.,12.5,0.)) ;
#1210=CARTESIAN_POINT('Line Origine',(62.5,12.5,-18.)) ;
#1214=CARTESIAN_POINT('Vertex',(61.,12.5,-19.5)) ;
#1217=CARTESIAN_POINT('Line Origine',(-7.81597009336E-014,12.5,-19.5)) ;
#1239=CARTESIAN_POINT('Axis2P3D Location',(0.,-12.5,0.)) ;
#1244=CARTESIAN_POINT('Line Origine',(-7.81597009336E-014,-12.5,-19.5)) ;
#1248=CARTESIAN_POINT('Vertex',(61.,-12.5,-19.5)) ;
#1251=CARTESIAN_POINT('Line Origine',(62.5,-12.5,-18.)) ;
#1273=CARTESIAN_POINT('Axis2P3D Location',(-64.,0.,-19.5)) ;
#1278=CARTESIAN_POINT('Line Origine',(61.,-1.7763568394E-015,-19.5)) ;
#1298=CARTESIAN_POINT('Axis2P3D Location',(61.,0.,-19.5)) ;
#52=DIRECTION('Axis2P3D Direction',(-1.64263950964E-017,0.,1.)) ;
#53=DIRECTION('Axis2P3D XDirection',(-1.,0.,-1.64263950964E-017)) ;
#57=DIRECTION('Vector Direction',(-1.,0.,-2.33353173716E-017)) ;
#66=DIRECTION('Vector Direction',(0.,-1.,0.)) ;
#73=DIRECTION('Vector Direction',(-1.,0.,-2.33353173716E-017)) ;
#90=DIRECTION('Vector Direction',(0.,-1.,0.)) ;
#114=DIRECTION('Axis2P3D Direction',(0.,-1.,0.)) ;
#115=DIRECTION('Axis2P3D XDirection',(3.33066907388E-016,0.,1.)) ;
#151=DIRECTION('Vector Direction',(0.,-1.,0.)) ;
#163=DIRECTION('Axis2P3D Direction',(0.,-1.,0.)) ;
#164=DIRECTION('Axis2P3D XDirection',(-0.999384236395,-0.,-0.0350877192982)) ;
#168=DIRECTION('Axis2P3D Direction',(0.,-1.,0.)) ;
#175=DIRECTION('Axis2P3D Direction',(0.,-1.,0.)) ;
#182=DIRECTION('Vector Direction',(0.,-1.,0.)) ;
#194=DIRECTION('Axis2P3D Direction',(0.,-1.,0.)) ;
#195=DIRECTION('Axis2P3D XDirection',(9.9725296247E-016,0.,1.)) ;
#199=DIRECTION('Axis2P3D Direction',(0.,-1.,0.)) ;
#237=DIRECTION('Axis2P3D Direction',(0.,-1.,0.)) ;
#238=DIRECTION('Axis2P3D XDirection',(8.7451413632E-016,0.,1.)) ;
#266=DIRECTION('Axis2P3D Direction',(0.,-1.,0.)) ;
#280=DIRECTION('Axis2P3D Direction',(-0.,1.,0.)) ;
#281=DIRECTION('Axis2P3D XDirection',(-3.33066907388E-016,0.,1.)) ;
#285=DIRECTION('Vector Direction',(0.,1.,0.)) ;
#297=DIRECTION('Axis2P3D Direction',(0.,-1.,0.)) ;
#298=DIRECTION('Axis2P3D XDirection',(-1.96005385927E-015,-0.,-1.)) ;
#302=DIRECTION('Axis2P3D Direction',(0.,-1.,0.)) ;
#311=DIRECTION('Vector Direction',(0.,-1.,0.)) ;
#318=DIRECTION('Axis2P3D Direction',(0.,-1.,0.)) ;
#325=DIRECTION('Vector Direction',(0.,-1.,0.)) ;
#337=DIRECTION('Axis2P3D Direction',(0.,-1.,-0.)) ;
#338=DIRECTION('Axis2P3D XDirection',(-7.27163618468E-016,0.,-1.)) ;
#342=DIRECTION('Axis2P3D Direction',(0.,-1.,-0.)) ;
#351=DIRECTION('Axis2P3D Direction',(-1.,-0.,1.49880108324E-015)) ;
#386=DIRECTION('Axis2P3D Direction',(0.,-1.,-0.)) ;
#387=DIRECTION('Axis2P3D XDirection',(-6.73500223469E-016,0.,-1.)) ;
#391=DIRECTION('Axis2P3D Direction',(-1.,-0.,1.49880108324E-015)) ;
#398=DIRECTION('Axis2P3D Direction',(0.,-1.,-0.)) ;
#435=DIRECTION('Axis2P3D Direction',(0.,-1.,0.)) ;
#436=DIRECTION('Axis2P3D XDirection',(-3.88578058619E-016,0.,1.)) ;
#440=DIRECTION('Vector Direction',(0.,-1.,0.)) ;
#463=DIRECTION('Vector Direction',(0.,-1.,0.)) ;
#478=DIRECTION('Axis2P3D Direction',(-1.18423789293E-015,0.,1.)) ;
#479=DIRECTION('Axis2P3D XDirection',(-1.,0.,-1.18423789293E-015)) ;
#483=DIRECTION('Vector Direction',(-1.,0.,-1.18423789293E-015)) ;
#490=DIRECTION('Vector Direction',(0.,-1.,0.)) ;
#497=DIRECTION('Vector Direction',(-1.,0.,-1.18423789293E-015)) ;
#509=DIRECTION('Axis2P3D Direction',(-1.,0.,0.)) ;
#510=DIRECTION('Axis2P3D XDirection',(0.,0.,1.)) ;
#514=DIRECTION('Axis2P3D Direction',(-1.,0.,0.)) ;
#521=DIRECTION('Vector Direction',(-1.,0.,0.)) ;
#533=DIRECTION('Axis2P3D Direction',(-1.,0.,0.)) ;
#534=DIRECTION('Axis2P3D XDirection',(-0.,-1.,-1.83697019872E-016)) ;
#538=DIRECTION('Axis2P3D Direction',(-1.,0.,0.)) ;
#545=DIRECTION('Vector Direction',(-1.,0.,0.)) ;
#557=DIRECTION('Axis2P3D Direction',(0.,-1.,0.)) ;
#558=DIRECTION('Axis2P3D XDirection',(-0.993136736442,-0.,-0.116959064327)) ;
#562=DIRECTION('Axis2P3D Direction',(0.,-1.,0.)) ;
#569=DIRECTION('Vector Direction',(0.,-1.,0.)) ;
#576=DIRECTION('Axis2P3D Direction',(0.,-1.,0.)) ;
#588=DIRECTION('Axis2P3D Direction',(0.,-1.,0.)) ;
#589=DIRECTION('Axis2P3D XDirection',(0.664470065418,0.,0.747314881535)) ;
#593=DIRECTION('Axis2P3D Direction',(0.,-1.,0.)) ;
#630=DIRECTION('Axis2P3D Direction',(0.,-1.,0.)) ;
#631=DIRECTION('Axis2P3D XDirection',(0.664470065418,0.,0.747314881535)) ;
#635=DIRECTION('Axis2P3D Direction',(0.,-1.,0.)) ;
#672=DIRECTION('Axis2P3D Direction',(-0.,1.,0.)) ;
#673=DIRECTION('Axis2P3D XDirection',(1.22124532709E-015,0.,1.)) ;
#677=DIRECTION('Vector Direction',(0.,1.,0.)) ;
#700=DIRECTION('Vector Direction',(0.,1.,0.)) ;
#715=DIRECTION('Axis2P3D Direction',(0.,-1.,0.)) ;
#716=DIRECTION('Axis2P3D XDirection',(-0.999384236395,-0.,-0.0350877192982)) ;
#720=DIRECTION('Axis2P3D Direction',(0.,-1.,0.)) ;
#729=DIRECTION('Vector Direction',(0.,-1.,0.)) ;
#736=DIRECTION('Axis2P3D Direction',(0.,-1.,0.)) ;
#743=DIRECTION('Vector Direction',(0.,-1.,0.)) ;
#755=DIRECTION('Axis2P3D Direction',(-0.,1.,0.)) ;
#756=DIRECTION('Axis2P3D XDirection',(8.32667268469E-017,0.,1.)) ;
#776=DIRECTION('Vector Direction',(0.,1.,0.)) ;
#804=DIRECTION('Axis2P3D Direction',(0.,-1.,0.)) ;
#805=DIRECTION('Axis2P3D XDirection',(9.9725296247E-016,0.,1.)) ;
#833=DIRECTION('Axis2P3D Direction',(0.,-1.,0.)) ;
#855=DIRECTION('Axis2P3D Direction',(0.,-1.,0.)) ;
#856=DIRECTION('Axis2P3D XDirection',(8.7451413632E-016,0.,1.)) ;
#868=DIRECTION('Axis2P3D Direction',(0.,-1.,0.)) ;
#906=DIRECTION('Axis2P3D Direction',(0.,-1.,0.)) ;
#907=DIRECTION('Axis2P3D XDirection',(3.88578058619E-015,0.,1.)) ;
#911=DIRECTION('Vector Direction',(0.,-1.,0.)) ;
#923=DIRECTION('Vector Direction',(-1.,0.,-2.33353173716E-017)) ;
#930=DIRECTION('Vector Direction',(0.,-1.,0.)) ;
#937=DIRECTION('Vector Direction',(-1.,0.,-2.33353173716E-017)) ;
#951=DIRECTION('Vector Direction',(-1.,0.,-1.50485719471E-017)) ;
#956=DIRECTION('Vector Direction',(-1.,0.,-1.50485719471E-017)) ;
#961=DIRECTION('Axis2P3D Direction',(-1.64263950964E-017,0.,1.)) ;
#968=DIRECTION('Axis2P3D Direction',(-1.64263950964E-017,0.,1.)) ;
#987=DIRECTION('Vector Direction',(-1.,0.,-1.50485719471E-017)) ;
#992=DIRECTION('Vector Direction',(-1.,0.,-1.50485719471E-017)) ;
#997=DIRECTION('Axis2P3D Direction',(-1.64263950964E-017,0.,1.)) ;
#1004=DIRECTION('Axis2P3D Direction',(-1.64263950964E-017,0.,1.)) ;
#1023=DIRECTION('Axis2P3D Direction',(-1.64263950964E-017,0.,1.)) ;
#1024=DIRECTION('Axis2P3D XDirection',(1.,1.64263950964E-017,1.64263950964E-017)) ;
#1028=DIRECTION('Vector Direction',(0.,0.,1.)) ;
#1035=DIRECTION('Axis2P3D Direction',(-1.64263950964E-017,0.,1.)) ;
#1042=DIRECTION('Vector Direction',(0.,0.,1.)) ;
#1055=DIRECTION('Axis2P3D Direction',(-1.64263950964E-017,0.,1.)) ;
#1068=DIRECTION('Axis2P3D Direction',(-1.64263950964E-017,0.,1.)) ;
#1069=DIRECTION('Axis2P3D XDirection',(1.,8.24522767304E-018,1.64263950964E-017)) ;
#1073=DIRECTION('Vector Direction',(0.,0.,1.)) ;
#1080=DIRECTION('Axis2P3D Direction',(-1.64263950964E-017,0.,1.)) ;
#1087=DIRECTION('Vector Direction',(0.,0.,1.)) ;
#1100=DIRECTION('Axis2P3D Direction',(-1.64263950964E-017,0.,1.)) ;
#1113=DIRECTION('Axis2P3D Direction',(-1.,-0.,-0.)) ;
#1114=DIRECTION('Axis2P3D XDirection',(0.,0.,-1.)) ;
#1118=DIRECTION('Vector Direction',(0.,0.,-1.)) ;
#1125=DIRECTION('Vector Direction',(0.,0.,-1.)) ;
#1132=DIRECTION('Vector Direction',(0.,-1.,0.)) ;
#1144=DIRECTION('Axis2P3D Direction',(-0.707106781187,-0.,-0.707106781187)) ;
#1145=DIRECTION('Axis2P3D XDirection',(0.,-1.,0.)) ;
#1149=DIRECTION('Vector Direction',(-0.707106781187,0.,0.707106781187)) ;
#1156=DIRECTION('Vector Direction',(-0.707106781187,0.,0.707106781187)) ;
#1163=DIRECTION('Vector Direction',(0.,-1.,0.)) ;
#1175=DIRECTION('Axis2P3D Direction',(1.,0.,-0.)) ;
#1176=DIRECTION('Axis2P3D XDirection',(0.,0.,1.)) ;
#1180=DIRECTION('Vector Direction',(0.,0.,1.)) ;
#1187=DIRECTION('Vector Direction',(0.,0.,1.)) ;
#1194=DIRECTION('Vector Direction',(0.,-1.,0.)) ;
#1206=DIRECTION('Axis2P3D Direction',(0.,-1.,0.)) ;
#1207=DIRECTION('Axis2P3D XDirection',(1.,0.,0.)) ;
#1211=DIRECTION('Vector Direction',(-0.707106781187,0.,-0.707106781187)) ;
#1218=DIRECTION('Vector Direction',(1.,0.,0.)) ;
#1240=DIRECTION('Axis2P3D Direction',(0.,-1.,0.)) ;
#1241=DIRECTION('Axis2P3D XDirection',(1.,0.,0.)) ;
#1245=DIRECTION('Vector Direction',(1.,0.,0.)) ;
#1252=DIRECTION('Vector Direction',(-0.707106781187,0.,-0.707106781187)) ;
#1274=DIRECTION('Axis2P3D Direction',(0.,0.,-1.)) ;
#1275=DIRECTION('Axis2P3D XDirection',(1.,0.,0.)) ;
#1279=DIRECTION('Vector Direction',(0.,-1.,0.)) ;
#1299=DIRECTION('Axis2P3D Direction',(-0.707106781187,0.,0.707106781187)) ;
#1300=DIRECTION('Axis2P3D XDirection',(0.,-1.,0.)) ;
#47=AXIS2_PLACEMENT_3D(' ',#46,$,$) ;
#54=AXIS2_PLACEMENT_3D('Plane Axis2P3D',#51,#52,#53) ;
#116=AXIS2_PLACEMENT_3D('Cylinder Axis2P3D',#113,#114,#115) ;
#165=AXIS2_PLACEMENT_3D('Cylinder Axis2P3D',#162,#163,#164) ;
#169=AXIS2_PLACEMENT_3D('Circle Axis2P3D',#167,#168,$) ;
#176=AXIS2_PLACEMENT_3D('Circle Axis2P3D',#174,#175,$) ;
#196=AXIS2_PLACEMENT_3D('Torus Axis2P3D',#193,#194,#195) ;
#200=AXIS2_PLACEMENT_3D('Circle Axis2P3D',#198,#199,$) ;
#239=AXIS2_PLACEMENT_3D('Torus Axis2P3D',#236,#237,#238) ;
#267=AXIS2_PLACEMENT_3D('Circle Axis2P3D',#265,#266,$) ;
#282=AXIS2_PLACEMENT_3D('Cylinder Axis2P3D',#279,#280,#281) ;
#299=AXIS2_PLACEMENT_3D('Cylinder Axis2P3D',#296,#297,#298) ;
#303=AXIS2_PLACEMENT_3D('Circle Axis2P3D',#301,#302,$) ;
#319=AXIS2_PLACEMENT_3D('Circle Axis2P3D',#317,#318,$) ;
#339=AXIS2_PLACEMENT_3D('Torus Axis2P3D',#336,#337,#338) ;
#343=AXIS2_PLACEMENT_3D('Circle Axis2P3D',#341,#342,$) ;
#352=AXIS2_PLACEMENT_3D('Circle Axis2P3D',#350,#351,$) ;
#388=AXIS2_PLACEMENT_3D('Torus Axis2P3D',#385,#386,#387) ;
#392=AXIS2_PLACEMENT_3D('Circle Axis2P3D',#390,#391,$) ;
#399=AXIS2_PLACEMENT_3D('Circle Axis2P3D',#397,#398,$) ;
#437=AXIS2_PLACEMENT_3D('Cylinder Axis2P3D',#434,#435,#436) ;
#480=AXIS2_PLACEMENT_3D('Plane Axis2P3D',#477,#478,#479) ;
#511=AXIS2_PLACEMENT_3D('Cylinder Axis2P3D',#508,#509,#510) ;
#515=AXIS2_PLACEMENT_3D('Circle Axis2P3D',#513,#514,$) ;
#535=AXIS2_PLACEMENT_3D('Cylinder Axis2P3D',#532,#533,#534) ;
#539=AXIS2_PLACEMENT_3D('Circle Axis2P3D',#537,#538,$) ;
#559=AXIS2_PLACEMENT_3D('Cylinder Axis2P3D',#556,#557,#558) ;
#563=AXIS2_PLACEMENT_3D('Circle Axis2P3D',#561,#562,$) ;
#577=AXIS2_PLACEMENT_3D('Circle Axis2P3D',#575,#576,$) ;
#590=AXIS2_PLACEMENT_3D('Torus Axis2P3D',#587,#588,#589) ;
#594=AXIS2_PLACEMENT_3D('Circle Axis2P3D',#592,#593,$) ;
#632=AXIS2_PLACEMENT_3D('Torus Axis2P3D',#629,#630,#631) ;
#636=AXIS2_PLACEMENT_3D('Circle Axis2P3D',#634,#635,$) ;
#674=AXIS2_PLACEMENT_3D('Cylinder Axis2P3D',#671,#672,#673) ;
#717=AXIS2_PLACEMENT_3D('Cylinder Axis2P3D',#714,#715,#716) ;
#721=AXIS2_PLACEMENT_3D('Circle Axis2P3D',#719,#720,$) ;
#737=AXIS2_PLACEMENT_3D('Circle Axis2P3D',#735,#736,$) ;
#757=AXIS2_PLACEMENT_3D('Cylinder Axis2P3D',#754,#755,#756) ;
#806=AXIS2_PLACEMENT_3D('Torus Axis2P3D',#803,#804,#805) ;
#834=AXIS2_PLACEMENT_3D('Circle Axis2P3D',#832,#833,$) ;
#857=AXIS2_PLACEMENT_3D('Torus Axis2P3D',#854,#855,#856) ;
#869=AXIS2_PLACEMENT_3D('Circle Axis2P3D',#867,#868,$) ;
#908=AXIS2_PLACEMENT_3D('Cylinder Axis2P3D',#905,#906,#907) ;
#962=AXIS2_PLACEMENT_3D('Circle Axis2P3D',#960,#961,$) ;
#969=AXIS2_PLACEMENT_3D('Circle Axis2P3D',#967,#968,$) ;
#998=AXIS2_PLACEMENT_3D('Circle Axis2P3D',#996,#997,$) ;
#1005=AXIS2_PLACEMENT_3D('Circle Axis2P3D',#1003,#1004,$) ;
#1025=AXIS2_PLACEMENT_3D('Cylinder Axis2P3D',#1022,#1023,#1024) ;
#1036=AXIS2_PLACEMENT_3D('Circle Axis2P3D',#1034,#1035,$) ;
#1056=AXIS2_PLACEMENT_3D('Circle Axis2P3D',#1054,#1055,$) ;
#1070=AXIS2_PLACEMENT_3D('Cylinder Axis2P3D',#1067,#1068,#1069) ;
#1081=AXIS2_PLACEMENT_3D('Circle Axis2P3D',#1079,#1080,$) ;
#1101=AXIS2_PLACEMENT_3D('Circle Axis2P3D',#1099,#1100,$) ;
#1115=AXIS2_PLACEMENT_3D('Plane Axis2P3D',#1112,#1113,#1114) ;
#1146=AXIS2_PLACEMENT_3D('Plane Axis2P3D',#1143,#1144,#1145) ;
#1177=AXIS2_PLACEMENT_3D('Plane Axis2P3D',#1174,#1175,#1176) ;
#1208=AXIS2_PLACEMENT_3D('Plane Axis2P3D',#1205,#1206,#1207) ;
#1242=AXIS2_PLACEMENT_3D('Plane Axis2P3D',#1239,#1240,#1241) ;
#1276=AXIS2_PLACEMENT_3D('Plane Axis2P3D',#1273,#1274,#1275) ;
#1301=AXIS2_PLACEMENT_3D('Plane Axis2P3D',#1298,#1299,#1300) ;
#40=PRODUCT_DEFINITION_SHAPE(' ',' ',#14) ;
#31=APPROVAL_PERSON_ORGANIZATION(#25,#21,#19) ;
#25=PERSON_AND_ORGANIZATION(#22,#23) ;
#22=PERSON(' ',' ',' ',$,$,$) ;
#23=ORGANIZATION(' ',' ',' ') ;
#21=APPROVAL(#20,' ') ;
#20=APPROVAL_STATUS('not_yet_approved') ;
#19=APPROVAL_ROLE('APPROVER') ;
#13=DATE_AND_TIME(#11,#12) ;
#12=LOCAL_TIME(17,32,34.,#10) ;
#10=COORDINATED_UNIVERSAL_TIME_OFFSET(0,0,.AHEAD.) ;
#105=ORIENTED_EDGE('',*,*,#64,.F.) ;
#106=ORIENTED_EDGE('',*,*,#71,.F.) ;
#107=ORIENTED_EDGE('',*,*,#78,.T.) ;
#108=ORIENTED_EDGE('',*,*,#88,.F.) ;
#109=ORIENTED_EDGE('',*,*,#95,.T.) ;
#110=ORIENTED_EDGE('',*,*,#103,.F.) ;
#156=ORIENTED_EDGE('',*,*,#133,.F.) ;
#157=ORIENTED_EDGE('',*,*,#95,.F.) ;
#158=ORIENTED_EDGE('',*,*,#149,.F.) ;
#159=ORIENTED_EDGE('',*,*,#154,.T.) ;
#187=ORIENTED_EDGE('',*,*,#173,.F.) ;
#188=ORIENTED_EDGE('',*,*,#154,.F.) ;
#189=ORIENTED_EDGE('',*,*,#180,.F.) ;
#190=ORIENTED_EDGE('',*,*,#185,.F.) ;
#228=ORIENTED_EDGE('',*,*,#180,.T.) ;
#229=ORIENTED_EDGE('',*,*,#149,.T.) ;
#230=ORIENTED_EDGE('',*,*,#88,.T.) ;
#231=ORIENTED_EDGE('',*,*,#204,.F.) ;
#232=ORIENTED_EDGE('',*,*,#212,.T.) ;
#233=ORIENTED_EDGE('',*,*,#226,.F.) ;
#271=ORIENTED_EDGE('',*,*,#173,.T.) ;
#272=ORIENTED_EDGE('',*,*,#256,.T.) ;
#273=ORIENTED_EDGE('',*,*,#264,.T.) ;
#274=ORIENTED_EDGE('',*,*,#269,.F.) ;
#275=ORIENTED_EDGE('',*,*,#103,.T.) ;
#276=ORIENTED_EDGE('',*,*,#133,.T.) ;
#290=ORIENTED_EDGE('',*,*,#226,.T.) ;
#291=ORIENTED_EDGE('',*,*,#288,.F.) ;
#292=ORIENTED_EDGE('',*,*,#256,.F.) ;
#293=ORIENTED_EDGE('',*,*,#185,.T.) ;
#330=ORIENTED_EDGE('',*,*,#309,.F.) ;
#331=ORIENTED_EDGE('',*,*,#316,.F.) ;
#332=ORIENTED_EDGE('',*,*,#323,.F.) ;
#333=ORIENTED_EDGE('',*,*,#328,.T.) ;
#378=ORIENTED_EDGE('',*,*,#349,.F.) ;
#379=ORIENTED_EDGE('',*,*,#354,.T.) ;
#380=ORIENTED_EDGE('',*,*,#323,.T.) ;
#381=ORIENTED_EDGE('',*,*,#370,.T.) ;
#382=ORIENTED_EDGE('',*,*,#376,.T.) ;
#427=ORIENTED_EDGE('',*,*,#309,.T.) ;
#428=ORIENTED_EDGE('',*,*,#396,.F.) ;
#429=ORIENTED_EDGE('',*,*,#403,.F.) ;
#430=ORIENTED_EDGE('',*,*,#411,.T.) ;
#431=ORIENTED_EDGE('',*,*,#425,.T.) ;
#468=ORIENTED_EDGE('',*,*,#425,.F.) ;
#469=ORIENTED_EDGE('',*,*,#445,.F.) ;
#470=ORIENTED_EDGE('',*,*,#453,.T.) ;
#471=ORIENTED_EDGE('',*,*,#461,.T.) ;
#472=ORIENTED_EDGE('',*,*,#466,.F.) ;
#473=ORIENTED_EDGE('',*,*,#370,.F.) ;
#474=ORIENTED_EDGE('',*,*,#316,.T.) ;
#502=ORIENTED_EDGE('',*,*,#488,.F.) ;
#503=ORIENTED_EDGE('',*,*,#495,.T.) ;
#504=ORIENTED_EDGE('',*,*,#500,.F.) ;
#505=ORIENTED_EDGE('',*,*,#328,.F.) ;
#526=ORIENTED_EDGE('',*,*,#519,.T.) ;
#527=ORIENTED_EDGE('',*,*,#488,.T.) ;
#528=ORIENTED_EDGE('',*,*,#354,.F.) ;
#529=ORIENTED_EDGE('',*,*,#524,.F.) ;
#550=ORIENTED_EDGE('',*,*,#396,.T.) ;
#551=ORIENTED_EDGE('',*,*,#500,.T.) ;
#552=ORIENTED_EDGE('',*,*,#543,.F.) ;
#553=ORIENTED_EDGE('',*,*,#548,.F.) ;
#581=ORIENTED_EDGE('',*,*,#567,.F.) ;
#582=ORIENTED_EDGE('',*,*,#574,.F.) ;
#583=ORIENTED_EDGE('',*,*,#579,.F.) ;
#584=ORIENTED_EDGE('',*,*,#495,.F.) ;
#622=ORIENTED_EDGE('',*,*,#567,.T.) ;
#623=ORIENTED_EDGE('',*,*,#519,.F.) ;
#624=ORIENTED_EDGE('',*,*,#598,.F.) ;
#625=ORIENTED_EDGE('',*,*,#606,.T.) ;
#626=ORIENTED_EDGE('',*,*,#620,.F.) ;
#664=ORIENTED_EDGE('',*,*,#640,.F.) ;
#665=ORIENTED_EDGE('',*,*,#543,.T.) ;
#666=ORIENTED_EDGE('',*,*,#579,.T.) ;
#667=ORIENTED_EDGE('',*,*,#656,.T.) ;
#668=ORIENTED_EDGE('',*,*,#662,.T.) ;
#705=ORIENTED_EDGE('',*,*,#620,.T.) ;
#706=ORIENTED_EDGE('',*,*,#682,.F.) ;
#707=ORIENTED_EDGE('',*,*,#690,.T.) ;
#708=ORIENTED_EDGE('',*,*,#698,.T.) ;
#709=ORIENTED_EDGE('',*,*,#703,.F.) ;
#710=ORIENTED_EDGE('',*,*,#656,.F.) ;
#711=ORIENTED_EDGE('',*,*,#574,.T.) ;
#748=ORIENTED_EDGE('',*,*,#727,.F.) ;
#749=ORIENTED_EDGE('',*,*,#734,.F.) ;
#750=ORIENTED_EDGE('',*,*,#741,.F.) ;
#751=ORIENTED_EDGE('',*,*,#746,.F.) ;
#797=ORIENTED_EDGE('',*,*,#774,.T.) ;
#798=ORIENTED_EDGE('',*,*,#781,.F.) ;
#799=ORIENTED_EDGE('',*,*,#795,.F.) ;
#800=ORIENTED_EDGE('',*,*,#746,.T.) ;
#846=ORIENTED_EDGE('',*,*,#741,.T.) ;
#847=ORIENTED_EDGE('',*,*,#823,.T.) ;
#848=ORIENTED_EDGE('',*,*,#831,.T.) ;
#849=ORIENTED_EDGE('',*,*,#838,.F.) ;
#850=ORIENTED_EDGE('',*,*,#844,.T.) ;
#851=ORIENTED_EDGE('',*,*,#774,.F.) ;
#897=ORIENTED_EDGE('',*,*,#727,.T.) ;
#898=ORIENTED_EDGE('',*,*,#795,.T.) ;
#899=ORIENTED_EDGE('',*,*,#866,.T.) ;
#900=ORIENTED_EDGE('',*,*,#873,.F.) ;
#901=ORIENTED_EDGE('',*,*,#881,.T.) ;
#902=ORIENTED_EDGE('',*,*,#895,.T.) ;
#916=ORIENTED_EDGE('',*,*,#895,.F.) ;
#917=ORIENTED_EDGE('',*,*,#914,.F.) ;
#918=ORIENTED_EDGE('',*,*,#823,.F.) ;
#919=ORIENTED_EDGE('',*,*,#734,.T.) ;
#942=ORIENTED_EDGE('',*,*,#928,.T.) ;
#943=ORIENTED_EDGE('',*,*,#935,.T.) ;
#944=ORIENTED_EDGE('',*,*,#940,.F.) ;
#945=ORIENTED_EDGE('',*,*,#866,.F.) ;
#946=ORIENTED_EDGE('',*,*,#781,.T.) ;
#947=ORIENTED_EDGE('',*,*,#844,.F.) ;
#973=ORIENTED_EDGE('',*,*,#954,.T.) ;
#974=ORIENTED_EDGE('',*,*,#831,.F.) ;
#975=ORIENTED_EDGE('',*,*,#914,.T.) ;
#976=ORIENTED_EDGE('',*,*,#881,.F.) ;
#977=ORIENTED_EDGE('',*,*,#959,.F.) ;
#978=ORIENTED_EDGE('',*,*,#662,.F.) ;
#979=ORIENTED_EDGE('',*,*,#703,.T.) ;
#980=ORIENTED_EDGE('',*,*,#966,.F.) ;
#981=ORIENTED_EDGE('',*,*,#971,.F.) ;
#982=ORIENTED_EDGE('',*,*,#682,.T.) ;
#983=ORIENTED_EDGE('',*,*,#606,.F.) ;
#1009=ORIENTED_EDGE('',*,*,#990,.F.) ;
#1010=ORIENTED_EDGE('',*,*,#264,.F.) ;
#1011=ORIENTED_EDGE('',*,*,#288,.T.) ;
#1012=ORIENTED_EDGE('',*,*,#212,.F.) ;
#1013=ORIENTED_EDGE('',*,*,#995,.T.) ;
#1014=ORIENTED_EDGE('',*,*,#376,.F.) ;
#1015=ORIENTED_EDGE('',*,*,#466,.T.) ;
#1016=ORIENTED_EDGE('',*,*,#1002,.F.) ;
#1017=ORIENTED_EDGE('',*,*,#1007,.F.) ;
#1018=ORIENTED_EDGE('',*,*,#445,.T.) ;
#1019=ORIENTED_EDGE('',*,*,#411,.F.) ;
#1047=ORIENTED_EDGE('',*,*,#698,.F.) ;
#1048=ORIENTED_EDGE('',*,*,#1033,.T.) ;
#1049=ORIENTED_EDGE('',*,*,#1040,.T.) ;
#1050=ORIENTED_EDGE('',*,*,#1045,.F.) ;
#1051=ORIENTED_EDGE('',*,*,#966,.T.) ;
#1060=ORIENTED_EDGE('',*,*,#690,.F.) ;
#1061=ORIENTED_EDGE('',*,*,#971,.T.) ;
#1062=ORIENTED_EDGE('',*,*,#1045,.T.) ;
#1063=ORIENTED_EDGE('',*,*,#1058,.T.) ;
#1064=ORIENTED_EDGE('',*,*,#1033,.F.) ;
#1092=ORIENTED_EDGE('',*,*,#453,.F.) ;
#1093=ORIENTED_EDGE('',*,*,#1007,.T.) ;
#1094=ORIENTED_EDGE('',*,*,#1078,.T.) ;
#1095=ORIENTED_EDGE('',*,*,#1085,.T.) ;
#1096=ORIENTED_EDGE('',*,*,#1090,.F.) ;
#1105=ORIENTED_EDGE('',*,*,#461,.F.) ;
#1106=ORIENTED_EDGE('',*,*,#1090,.T.) ;
#1107=ORIENTED_EDGE('',*,*,#1103,.T.) ;
#1108=ORIENTED_EDGE('',*,*,#1078,.F.) ;
#1109=ORIENTED_EDGE('',*,*,#1002,.T.) ;
#1137=ORIENTED_EDGE('',*,*,#1123,.F.) ;
#1138=ORIENTED_EDGE('',*,*,#935,.F.) ;
#1139=ORIENTED_EDGE('',*,*,#1130,.T.) ;
#1140=ORIENTED_EDGE('',*,*,#1135,.T.) ;
#1168=ORIENTED_EDGE('',*,*,#1154,.T.) ;
#1169=ORIENTED_EDGE('',*,*,#1135,.F.) ;
#1170=ORIENTED_EDGE('',*,*,#1161,.T.) ;
#1171=ORIENTED_EDGE('',*,*,#1166,.T.) ;
#1199=ORIENTED_EDGE('',*,*,#1185,.T.) ;
#1200=ORIENTED_EDGE('',*,*,#71,.T.) ;
#1201=ORIENTED_EDGE('',*,*,#1192,.F.) ;
#1202=ORIENTED_EDGE('',*,*,#1197,.F.) ;
#1223=ORIENTED_EDGE('',*,*,#1216,.F.) ;
#1224=ORIENTED_EDGE('',*,*,#1221,.F.) ;
#1225=ORIENTED_EDGE('',*,*,#1161,.F.) ;
#1226=ORIENTED_EDGE('',*,*,#1130,.F.) ;
#1227=ORIENTED_EDGE('',*,*,#928,.F.) ;
#1228=ORIENTED_EDGE('',*,*,#838,.T.) ;
#1229=ORIENTED_EDGE('',*,*,#954,.F.) ;
#1230=ORIENTED_EDGE('',*,*,#598,.T.) ;
#1231=ORIENTED_EDGE('',*,*,#524,.T.) ;
#1232=ORIENTED_EDGE('',*,*,#349,.T.) ;
#1233=ORIENTED_EDGE('',*,*,#995,.F.) ;
#1234=ORIENTED_EDGE('',*,*,#204,.T.) ;
#1235=ORIENTED_EDGE('',*,*,#78,.F.) ;
#1236=ORIENTED_EDGE('',*,*,#1185,.F.) ;
#1257=ORIENTED_EDGE('',*,*,#1192,.T.) ;
#1258=ORIENTED_EDGE('',*,*,#64,.T.) ;
#1259=ORIENTED_EDGE('',*,*,#269,.T.) ;
#1260=ORIENTED_EDGE('',*,*,#990,.T.) ;
#1261=ORIENTED_EDGE('',*,*,#403,.T.) ;
#1262=ORIENTED_EDGE('',*,*,#548,.T.) ;
#1263=ORIENTED_EDGE('',*,*,#640,.T.) ;
#1264=ORIENTED_EDGE('',*,*,#959,.T.) ;
#1265=ORIENTED_EDGE('',*,*,#873,.T.) ;
#1266=ORIENTED_EDGE('',*,*,#940,.T.) ;
#1267=ORIENTED_EDGE('',*,*,#1123,.T.) ;
#1268=ORIENTED_EDGE('',*,*,#1154,.F.) ;
#1269=ORIENTED_EDGE('',*,*,#1250,.T.) ;
#1270=ORIENTED_EDGE('',*,*,#1255,.F.) ;
#1284=ORIENTED_EDGE('',*,*,#1250,.F.) ;
#1285=ORIENTED_EDGE('',*,*,#1166,.F.) ;
#1286=ORIENTED_EDGE('',*,*,#1221,.T.) ;
#1287=ORIENTED_EDGE('',*,*,#1282,.T.) ;
#1290=ORIENTED_EDGE('',*,*,#1103,.F.) ;
#1291=ORIENTED_EDGE('',*,*,#1085,.F.) ;
#1294=ORIENTED_EDGE('',*,*,#1058,.F.) ;
#1295=ORIENTED_EDGE('',*,*,#1040,.F.) ;
#1304=ORIENTED_EDGE('',*,*,#1282,.F.) ;
#1305=ORIENTED_EDGE('',*,*,#1216,.T.) ;
#1306=ORIENTED_EDGE('',*,*,#1197,.T.) ;
#1307=ORIENTED_EDGE('',*,*,#1255,.T.) ;
#1292=FACE_BOUND('',#1289,.T.) ;
#1296=FACE_BOUND('',#1293,.T.) ;
#50=CLOSED_SHELL('Closed Shell',(#112,#161,#192,#235,#278,#295,#335,#384,#433,#476,#507,#531,#555,#586,#628,#670,#713,#753,#802,#853,#904,#921,#949,#985,#1021,#1053,#1066,#1098,#1111,#1142,#1173,#1204,#1238,#1272,#1297,#1309)) ;
#58=VECTOR('Line Direction',#57,1.) ;
#67=VECTOR('Line Direction',#66,1.) ;
#74=VECTOR('Line Direction',#73,1.) ;
#91=VECTOR('Line Direction',#90,1.) ;
#152=VECTOR('Line Direction',#151,1.) ;
#183=VECTOR('Line Direction',#182,1.) ;
#286=VECTOR('Line Direction',#285,1.) ;
#312=VECTOR('Line Direction',#311,1.) ;
#326=VECTOR('Line Direction',#325,1.) ;
#441=VECTOR('Line Direction',#440,1.) ;
#464=VECTOR('Line Direction',#463,1.) ;
#484=VECTOR('Line Direction',#483,1.) ;
#491=VECTOR('Line Direction',#490,1.) ;
#498=VECTOR('Line Direction',#497,1.) ;
#522=VECTOR('Line Direction',#521,1.) ;
#546=VECTOR('Line Direction',#545,1.) ;
#570=VECTOR('Line Direction',#569,1.) ;
#678=VECTOR('Line Direction',#677,1.) ;
#701=VECTOR('Line Direction',#700,1.) ;
#730=VECTOR('Line Direction',#729,1.) ;
#744=VECTOR('Line Direction',#743,1.) ;
#777=VECTOR('Line Direction',#776,1.) ;
#912=VECTOR('Line Direction',#911,1.) ;
#924=VECTOR('Line Direction',#923,1.) ;
#931=VECTOR('Line Direction',#930,1.) ;
#938=VECTOR('Line Direction',#937,1.) ;
#952=VECTOR('Line Direction',#951,1.) ;
#957=VECTOR('Line Direction',#956,1.) ;
#988=VECTOR('Line Direction',#987,1.) ;
#993=VECTOR('Line Direction',#992,1.) ;
#1029=VECTOR('Line Direction',#1028,1.) ;
#1043=VECTOR('Line Direction',#1042,1.) ;
#1074=VECTOR('Line Direction',#1073,1.) ;
#1088=VECTOR('Line Direction',#1087,1.) ;
#1119=VECTOR('Line Direction',#1118,1.) ;
#1126=VECTOR('Line Direction',#1125,1.) ;
#1133=VECTOR('Line Direction',#1132,1.) ;
#1150=VECTOR('Line Direction',#1149,1.) ;
#1157=VECTOR('Line Direction',#1156,1.) ;
#1164=VECTOR('Line Direction',#1163,1.) ;
#1181=VECTOR('Line Direction',#1180,1.) ;
#1188=VECTOR('Line Direction',#1187,1.) ;
#1195=VECTOR('Line Direction',#1194,1.) ;
#1212=VECTOR('Line Direction',#1211,1.) ;
#1219=VECTOR('Line Direction',#1218,1.) ;
#1246=VECTOR('Line Direction',#1245,1.) ;
#1253=VECTOR('Line Direction',#1252,1.) ;
#1280=VECTOR('Line Direction',#1279,1.) ;
#1311=ADVANCED_BREP_SHAPE_REPRESENTATION('NONE',(#1310),#45) ;
#48=SHAPE_REPRESENTATION(' ',(#47),#45) ;
#112=ADVANCED_FACE('PartBody',(#111),#55,.T.) ;
#161=ADVANCED_FACE('PartBody',(#160),#117,.T.) ;
#192=ADVANCED_FACE('PartBody',(#191),#166,.F.) ;
#235=ADVANCED_FACE('PartBody',(#234),#197,.T.) ;
#278=ADVANCED_FACE('PartBody',(#277),#240,.T.) ;
#295=ADVANCED_FACE('PartBody',(#294),#283,.T.) ;
#335=ADVANCED_FACE('PartBody',(#334),#300,.F.) ;
#384=ADVANCED_FACE('PartBody',(#383),#340,.T.) ;
#433=ADVANCED_FACE('PartBody',(#432),#389,.T.) ;
#476=ADVANCED_FACE('PartBody',(#475),#438,.T.) ;
#507=ADVANCED_FACE('PartBody',(#506),#481,.T.) ;
#531=ADVANCED_FACE('PartBody',(#530),#512,.T.) ;
#555=ADVANCED_FACE('PartBody',(#554),#536,.T.) ;
#586=ADVANCED_FACE('PartBody',(#585),#560,.F.) ;
#628=ADVANCED_FACE('PartBody',(#627),#591,.T.) ;
#670=ADVANCED_FACE('PartBody',(#669),#633,.T.) ;
#713=ADVANCED_FACE('PartBody',(#712),#675,.T.) ;
#753=ADVANCED_FACE('PartBody',(#752),#718,.F.) ;
#802=ADVANCED_FACE('PartBody',(#801),#758,.T.) ;
#853=ADVANCED_FACE('PartBody',(#852),#807,.T.) ;
#904=ADVANCED_FACE('PartBody',(#903),#858,.T.) ;
#921=ADVANCED_FACE('PartBody',(#920),#909,.T.) ;
#949=ADVANCED_FACE('PartBody',(#948),#55,.T.) ;
#985=ADVANCED_FACE('PartBody',(#984),#55,.T.) ;
#1021=ADVANCED_FACE('PartBody',(#1020),#55,.T.) ;
#1053=ADVANCED_FACE('PartBody',(#1052),#1026,.F.) ;
#1066=ADVANCED_FACE('PartBody',(#1065),#1026,.F.) ;
#1098=ADVANCED_FACE('PartBody',(#1097),#1071,.F.) ;
#1111=ADVANCED_FACE('PartBody',(#1110),#1071,.F.) ;
#1142=ADVANCED_FACE('PartBody',(#1141),#1116,.T.) ;
#1173=ADVANCED_FACE('PartBody',(#1172),#1147,.T.) ;
#1204=ADVANCED_FACE('PartBody',(#1203),#1178,.T.) ;
#1238=ADVANCED_FACE('PartBody',(#1237),#1209,.F.) ;
#1272=ADVANCED_FACE('PartBody',(#1271),#1243,.T.) ;
#1297=ADVANCED_FACE('PartBody',(#1288,#1292,#1296),#1277,.T.) ;
#1309=ADVANCED_FACE('PartBody',(#1308),#1302,.F.) ;
#4=APPLICATION_PROTOCOL_DEFINITION('international standard','config_control_design',1994,#1) ;
#32=APPROVAL_DATE_TIME(#13,#21) ;
#79=B_SPLINE_CURVE_WITH_KNOTS('',5,(#80,#81,#82,#83,#84,#85),.UNSPECIFIED.,.F.,.U.,(6,6),(0.,0.263043484624),.UNSPECIFIED.) ;
#96=B_SPLINE_CURVE_WITH_KNOTS('',5,(#97,#98,#99,#100,#101,#102),.UNSPECIFIED.,.F.,.U.,(6,6),(0.,0.263043484624),.UNSPECIFIED.) ;
#118=B_SPLINE_CURVE_WITH_KNOTS('',5,(#119,#120,#121,#122,#123,#124,#125,#126,#127,#128,#129,#130),.UNSPECIFIED.,.F.,.U.,(6,3,3,6),(0.,0.716795722217,3.01661519925,5.20391633899),.UNSPECIFIED.) ;
#134=B_SPLINE_CURVE_WITH_KNOTS('',5,(#135,#136,#137,#138,#139,#140,#141,#142,#143,#144,#145,#146),.UNSPECIFIED.,.F.,.U.,(6,3,3,6),(0.,0.716795303228,3.01661478024,5.20391591995),.UNSPECIFIED.) ;
#205=B_SPLINE_CURVE_WITH_KNOTS('',3,(#206,#207,#208,#209),.UNSPECIFIED.,.F.,.U.,(4,4),(0.,0.263043484624),.UNSPECIFIED.) ;
#213=B_SPLINE_CURVE_WITH_KNOTS('',5,(#214,#215,#216,#217,#218,#219,#220,#221,#222,#223,#224,#225),.UNSPECIFIED.,.F.,.U.,(6,3,3,6),(0.,0.716795577685,3.01661505471,5.20391619445),.UNSPECIFIED.) ;
#241=B_SPLINE_CURVE_WITH_KNOTS('',5,(#242,#243,#244,#245,#246,#247,#248,#249,#250,#251,#252,#253),.UNSPECIFIED.,.F.,.U.,(6,3,3,6),(0.,0.716796279995,3.01661575704,5.20391689674),.UNSPECIFIED.) ;
#257=B_SPLINE_CURVE_WITH_KNOTS('',3,(#258,#259,#260,#261),.UNSPECIFIED.,.F.,.U.,(4,4),(0.,0.263043484624),.UNSPECIFIED.) ;
#355=B_SPLINE_CURVE_WITH_KNOTS('',5,(#356,#357,#358,#359,#360,#361,#362,#363,#364,#365,#366,#367),.UNSPECIFIED.,.F.,.U.,(6,3,3,6),(0.,0.677397539867,2.84724252493,4.89125401472),.UNSPECIFIED.) ;
#371=B_SPLINE_CURVE_WITH_KNOTS('',3,(#372,#373,#374,#375),.UNSPECIFIED.,.F.,.U.,(4,4),(0.,0.552242375699),.UNSPECIFIED.) ;
#404=B_SPLINE_CURVE_WITH_KNOTS('',3,(#405,#406,#407,#408),.UNSPECIFIED.,.F.,.U.,(4,4),(0.,0.552242375698),.UNSPECIFIED.) ;
#412=B_SPLINE_CURVE_WITH_KNOTS('',5,(#413,#414,#415,#416,#417,#418,#419,#420,#421,#422,#423,#424),.UNSPECIFIED.,.F.,.U.,(6,3,3,6),(0.,0.677397766138,2.8472427512,4.89125424099),.UNSPECIFIED.) ;
#446=B_SPLINE_CURVE_WITH_KNOTS('',3,(#447,#448,#449,#450),.UNSPECIFIED.,.F.,.U.,(4,4),(0.,1.43854881689),.UNSPECIFIED.) ;
#454=B_SPLINE_CURVE_WITH_KNOTS('',3,(#455,#456,#457,#458),.UNSPECIFIED.,.F.,.U.,(4,4),(0.,1.43854881689),.UNSPECIFIED.) ;
#599=B_SPLINE_CURVE_WITH_KNOTS('',3,(#600,#601,#602,#603),.UNSPECIFIED.,.F.,.U.,(4,4),(0.,0.552242375699),.UNSPECIFIED.) ;
#607=B_SPLINE_CURVE_WITH_KNOTS('',5,(#608,#609,#610,#611,#612,#613,#614,#615,#616,#617,#618,#619),.UNSPECIFIED.,.F.,.U.,(6,3,3,6),(0.,0.677397955909,2.84724294097,4.89125443076),.UNSPECIFIED.) ;
#641=B_SPLINE_CURVE_WITH_KNOTS('',5,(#642,#643,#644,#645,#646,#647,#648,#649,#650,#651,#652,#653),.UNSPECIFIED.,.F.,.U.,(6,3,3,6),(0.,0.677398074804,2.84724305987,4.89125454967),.UNSPECIFIED.) ;
#657=B_SPLINE_CURVE_WITH_KNOTS('',3,(#658,#659,#660,#661),.UNSPECIFIED.,.F.,.U.,(4,4),(0.,0.552242375698),.UNSPECIFIED.) ;
#683=B_SPLINE_CURVE_WITH_KNOTS('',3,(#684,#685,#686,#687),.UNSPECIFIED.,.F.,.U.,(4,4),(0.,1.4385488169),.UNSPECIFIED.) ;
#691=B_SPLINE_CURVE_WITH_KNOTS('',3,(#692,#693,#694,#695),.UNSPECIFIED.,.F.,.U.,(4,4),(0.,1.43854881692),.UNSPECIFIED.) ;
#759=B_SPLINE_CURVE_WITH_KNOTS('',5,(#760,#761,#762,#763,#764,#765,#766,#767,#768,#769,#770,#771),.UNSPECIFIED.,.F.,.U.,(6,3,3,6),(0.,0.716797253859,3.01661673087,5.20391787058),.UNSPECIFIED.) ;
#782=B_SPLINE_CURVE_WITH_KNOTS('',5,(#783,#784,#785,#786,#787,#788,#789,#790,#791,#792,#793,#794),.UNSPECIFIED.,.F.,.U.,(6,3,3,6),(0.,0.71679584726,3.01661532429,5.20391646401),.UNSPECIFIED.) ;
#808=B_SPLINE_CURVE_WITH_KNOTS('',5,(#809,#810,#811,#812,#813,#814,#815,#816,#817,#818,#819,#820),.UNSPECIFIED.,.F.,.U.,(6,3,3,6),(0.,0.716795418508,3.01661489554,5.20391603527),.UNSPECIFIED.) ;
#824=B_SPLINE_CURVE_WITH_KNOTS('',3,(#825,#826,#827,#828),.UNSPECIFIED.,.F.,.U.,(4,4),(0.,0.263043484624),.UNSPECIFIED.) ;
#839=B_SPLINE_CURVE_WITH_KNOTS('',3,(#840,#841,#842,#843),.UNSPECIFIED.,.F.,.U.,(4,4),(0.,0.263043484624),.UNSPECIFIED.) ;
#859=B_SPLINE_CURVE_WITH_KNOTS('',3,(#860,#861,#862,#863),.UNSPECIFIED.,.F.,.U.,(4,4),(0.,0.263043484624),.UNSPECIFIED.) ;
#874=B_SPLINE_CURVE_WITH_KNOTS('',3,(#875,#876,#877,#878),.UNSPECIFIED.,.F.,.U.,(4,4),(0.,0.263043484624),.UNSPECIFIED.) ;
#882=B_SPLINE_CURVE_WITH_KNOTS('',5,(#883,#884,#885,#886,#887,#888,#889,#890,#891,#892,#893,#894),.UNSPECIFIED.,.F.,.U.,(6,3,3,6),(0.,0.716791919283,3.01661139631,5.20391253605),.UNSPECIFIED.) ;
#1310=MANIFOLD_SOLID_BREP('PartBody',#50) ;
#11=CALENDAR_DATE(2023,21,8) ;
#30=CC_DESIGN_APPROVAL(#21,(#16,#6,#14)) ;
#18=CC_DESIGN_DATE_AND_TIME_ASSIGNMENT(#13,#17,(#16)) ;
#29=CC_DESIGN_DATE_AND_TIME_ASSIGNMENT(#13,#28,(#14)) ;
#17=DATE_TIME_ROLE('classification_date') ;
#28=DATE_TIME_ROLE('creation_date') ;
#27=CC_DESIGN_PERSON_AND_ORGANIZATION_ASSIGNMENT(#25,#26,(#16)) ;
#33=CC_DESIGN_PERSON_AND_ORGANIZATION_ASSIGNMENT(#25,#34,(#6)) ;
#35=CC_DESIGN_PERSON_AND_ORGANIZATION_ASSIGNMENT(#25,#36,(#6,#14)) ;
#37=CC_DESIGN_PERSON_AND_ORGANIZATION_ASSIGNMENT(#25,#38,(#5)) ;
#26=PERSON_AND_ORGANIZATION_ROLE('classification_officer') ;
#34=PERSON_AND_ORGANIZATION_ROLE('design_supplier') ;
#36=PERSON_AND_ORGANIZATION_ROLE('creator') ;
#38=PERSON_AND_ORGANIZATION_ROLE('design_owner') ;
#39=CC_DESIGN_SECURITY_CLASSIFICATION(#16,(#6)) ;
#170=CIRCLE('generated circle',#169,14.25) ;
#177=CIRCLE('generated circle',#176,14.25) ;
#201=CIRCLE('generated circle',#200,16.25) ;
#268=CIRCLE('generated circle',#267,16.25) ;
#304=CIRCLE('generated circle',#303,8.55) ;
#320=CIRCLE('generated circle',#319,8.55) ;
#344=CIRCLE('generated circle',#343,10.55) ;
#353=CIRCLE('generated circle',#352,2.) ;
#393=CIRCLE('generated circle',#392,2.) ;
#400=CIRCLE('generated circle',#399,10.55) ;
#516=CIRCLE('generated circle',#515,2.) ;
#540=CIRCLE('generated circle',#539,2.) ;
#564=CIRCLE('generated circle',#563,8.55) ;
#578=CIRCLE('generated circle',#577,8.55) ;
#595=CIRCLE('generated circle',#594,10.55) ;
#637=CIRCLE('generated circle',#636,10.55) ;
#722=CIRCLE('generated circle',#721,14.25) ;
#738=CIRCLE('generated circle',#737,14.25) ;
#835=CIRCLE('generated circle',#834,16.25) ;
#870=CIRCLE('generated circle',#869,16.25) ;
#963=CIRCLE('generated circle',#962,4.5) ;
#970=CIRCLE('generated circle',#969,4.5) ;
#999=CIRCLE('generated circle',#998,4.5) ;
#1006=CIRCLE('generated circle',#1005,4.5) ;
#1037=CIRCLE('generated circle',#1036,4.5) ;
#1057=CIRCLE('generated circle',#1056,4.5) ;
#1082=CIRCLE('generated circle',#1081,4.5) ;
#1102=CIRCLE('generated circle',#1101,4.5) ;
#1312=SHAPE_REPRESENTATION_RELATIONSHIP(' ',' ',#48,#1311) ;
#117=CYLINDRICAL_SURFACE('generated cylinder',#116,2.) ;
#166=CYLINDRICAL_SURFACE('generated cylinder',#165,14.25) ;
#283=CYLINDRICAL_SURFACE('generated cylinder',#282,2.) ;
#300=CYLINDRICAL_SURFACE('generated cylinder',#299,8.55) ;
#438=CYLINDRICAL_SURFACE('generated cylinder',#437,2.) ;
#512=CYLINDRICAL_SURFACE('generated cylinder',#511,2.) ;
#536=CYLINDRICAL_SURFACE('generated cylinder',#535,2.) ;
#560=CYLINDRICAL_SURFACE('generated cylinder',#559,8.55) ;
#675=CYLINDRICAL_SURFACE('generated cylinder',#674,2.) ;
#718=CYLINDRICAL_SURFACE('generated cylinder',#717,14.25) ;
#758=CYLINDRICAL_SURFACE('generated cylinder',#757,2.) ;
#909=CYLINDRICAL_SURFACE('generated cylinder',#908,2.) ;
#1026=CYLINDRICAL_SURFACE('generated cylinder',#1025,4.5) ;
#1071=CYLINDRICAL_SURFACE('generated cylinder',#1070,4.5) ;
#197=TOROIDAL_SURFACE('homeo Torus',#196,16.25,2.) ;
#240=TOROIDAL_SURFACE('homeo Torus',#239,16.25,2.) ;
#340=TOROIDAL_SURFACE('homeo Torus',#339,10.55,2.) ;
#389=TOROIDAL_SURFACE('homeo Torus',#388,10.55,2.) ;
#591=TOROIDAL_SURFACE('homeo Torus',#590,10.55,2.) ;
#633=TOROIDAL_SURFACE('homeo Torus',#632,10.55,2.) ;
#807=TOROIDAL_SURFACE('homeo Torus',#806,16.25,2.) ;
#858=TOROIDAL_SURFACE('homeo Torus',#857,16.25,2.) ;
#3=DESIGN_CONTEXT(' ',#1,'design') ;
#64=EDGE_CURVE('',#61,#63,#59,.T.) ;
#71=EDGE_CURVE('',#70,#61,#68,.T.) ;
#78=EDGE_CURVE('',#70,#77,#75,.T.) ;
#88=EDGE_CURVE('',#87,#77,#79,.F.) ;
#95=EDGE_CURVE('',#87,#94,#92,.T.) ;
#103=EDGE_CURVE('',#63,#94,#96,.T.) ;
#133=EDGE_CURVE('',#94,#132,#118,.F.) ;
#149=EDGE_CURVE('',#148,#87,#134,.T.) ;
#154=EDGE_CURVE('',#148,#132,#153,.T.) ;
#173=EDGE_CURVE('',#132,#172,#170,.F.) ;
#180=EDGE_CURVE('',#179,#148,#177,.T.) ;
#185=EDGE_CURVE('',#172,#179,#184,.F.) ;
#204=EDGE_CURVE('',#203,#77,#201,.T.) ;
#212=EDGE_CURVE('',#203,#211,#205,.T.) ;
#226=EDGE_CURVE('',#179,#211,#213,.T.) ;
#256=EDGE_CURVE('',#172,#255,#241,.T.) ;
#264=EDGE_CURVE('',#255,#263,#257,.F.) ;
#269=EDGE_CURVE('',#63,#263,#268,.F.) ;
#288=EDGE_CURVE('',#255,#211,#287,.T.) ;
#309=EDGE_CURVE('',#306,#308,#304,.F.) ;
#316=EDGE_CURVE('',#315,#306,#313,.T.) ;
#323=EDGE_CURVE('',#322,#315,#320,.T.) ;
#328=EDGE_CURVE('',#322,#308,#327,.T.) ;
#349=EDGE_CURVE('',#346,#348,#344,.T.) ;
#354=EDGE_CURVE('',#346,#322,#353,.F.) ;
#370=EDGE_CURVE('',#315,#369,#355,.T.) ;
#376=EDGE_CURVE('',#369,#348,#371,.F.) ;
#396=EDGE_CURVE('',#395,#308,#393,.T.) ;
#403=EDGE_CURVE('',#402,#395,#400,.F.) ;
#411=EDGE_CURVE('',#402,#410,#404,.T.) ;
#425=EDGE_CURVE('',#410,#306,#412,.F.) ;
#445=EDGE_CURVE('',#444,#410,#442,.T.) ;
#453=EDGE_CURVE('',#444,#452,#446,.F.) ;
#461=EDGE_CURVE('',#452,#460,#454,.F.) ;
#466=EDGE_CURVE('',#369,#460,#465,.T.) ;
#488=EDGE_CURVE('',#487,#322,#485,.F.) ;
#495=EDGE_CURVE('',#487,#494,#492,.T.) ;
#500=EDGE_CURVE('',#308,#494,#499,.T.) ;
#519=EDGE_CURVE('',#518,#487,#516,.F.) ;
#524=EDGE_CURVE('',#518,#346,#523,.F.) ;
#543=EDGE_CURVE('',#542,#494,#540,.T.) ;
#548=EDGE_CURVE('',#395,#542,#547,.T.) ;
#567=EDGE_CURVE('',#566,#487,#564,.T.) ;
#574=EDGE_CURVE('',#573,#566,#571,.F.) ;
#579=EDGE_CURVE('',#494,#573,#578,.F.) ;
#598=EDGE_CURVE('',#597,#518,#595,.T.) ;
#606=EDGE_CURVE('',#597,#605,#599,.T.) ;
#620=EDGE_CURVE('',#566,#605,#607,.T.) ;
#640=EDGE_CURVE('',#542,#639,#637,.F.) ;
#656=EDGE_CURVE('',#573,#655,#641,.T.) ;
#662=EDGE_CURVE('',#655,#639,#657,.F.) ;
#682=EDGE_CURVE('',#681,#605,#679,.T.) ;
#690=EDGE_CURVE('',#681,#689,#683,.F.) ;
#698=EDGE_CURVE('',#689,#697,#691,.F.) ;
#703=EDGE_CURVE('',#655,#697,#702,.T.) ;
#727=EDGE_CURVE('',#724,#726,#722,.F.) ;
#734=EDGE_CURVE('',#733,#724,#731,.T.) ;
#741=EDGE_CURVE('',#740,#733,#738,.T.) ;
#746=EDGE_CURVE('',#726,#740,#745,.F.) ;
#774=EDGE_CURVE('',#740,#773,#759,.T.) ;
#781=EDGE_CURVE('',#780,#773,#778,.T.) ;
#795=EDGE_CURVE('',#726,#780,#782,.T.) ;
#823=EDGE_CURVE('',#733,#822,#808,.T.) ;
#831=EDGE_CURVE('',#822,#830,#824,.F.) ;
#838=EDGE_CURVE('',#837,#830,#835,.T.) ;
#844=EDGE_CURVE('',#837,#773,#839,.T.) ;
#866=EDGE_CURVE('',#780,#865,#859,.F.) ;
#873=EDGE_CURVE('',#872,#865,#870,.F.) ;
#881=EDGE_CURVE('',#872,#880,#874,.T.) ;
#895=EDGE_CURVE('',#880,#724,#882,.F.) ;
#914=EDGE_CURVE('',#822,#880,#913,.T.) ;
#928=EDGE_CURVE('',#837,#927,#925,.T.) ;
#935=EDGE_CURVE('',#927,#934,#932,.T.) ;
#940=EDGE_CURVE('',#865,#934,#939,.T.) ;
#954=EDGE_CURVE('',#597,#830,#953,.T.) ;
#959=EDGE_CURVE('',#639,#872,#958,.T.) ;
#966=EDGE_CURVE('',#965,#697,#963,.T.) ;
#971=EDGE_CURVE('',#681,#965,#970,.T.) ;
#990=EDGE_CURVE('',#263,#402,#989,.T.) ;
#995=EDGE_CURVE('',#203,#348,#994,.T.) ;
#1002=EDGE_CURVE('',#1001,#460,#999,.T.) ;
#1007=EDGE_CURVE('',#444,#1001,#1006,.T.) ;
#1033=EDGE_CURVE('',#689,#1032,#1030,.F.) ;
#1040=EDGE_CURVE('',#1032,#1039,#1037,.F.) ;
#1045=EDGE_CURVE('',#965,#1039,#1044,.F.) ;
#1058=EDGE_CURVE('',#1039,#1032,#1057,.F.) ;
#1078=EDGE_CURVE('',#1001,#1077,#1075,.F.) ;
#1085=EDGE_CURVE('',#1077,#1084,#1082,.F.) ;
#1090=EDGE_CURVE('',#452,#1084,#1089,.F.) ;
#1103=EDGE_CURVE('',#1084,#1077,#1102,.F.) ;
#1123=EDGE_CURVE('',#934,#1122,#1120,.T.) ;
#1130=EDGE_CURVE('',#927,#1129,#1127,.T.) ;
#1135=EDGE_CURVE('',#1129,#1122,#1134,.T.) ;
#1154=EDGE_CURVE('',#1153,#1122,#1151,.T.) ;
#1161=EDGE_CURVE('',#1129,#1160,#1158,.F.) ;
#1166=EDGE_CURVE('',#1160,#1153,#1165,.T.) ;
#1185=EDGE_CURVE('',#1184,#70,#1182,.T.) ;
#1192=EDGE_CURVE('',#1191,#61,#1189,.T.) ;
#1197=EDGE_CURVE('',#1184,#1191,#1196,.T.) ;
#1216=EDGE_CURVE('',#1215,#1184,#1213,.F.) ;
#1221=EDGE_CURVE('',#1160,#1215,#1220,.T.) ;
#1250=EDGE_CURVE('',#1153,#1249,#1247,.T.) ;
#1255=EDGE_CURVE('',#1191,#1249,#1254,.T.) ;
#1282=EDGE_CURVE('',#1215,#1249,#1281,.T.) ;
#104=EDGE_LOOP('',(#105,#106,#107,#108,#109,#110)) ;
#155=EDGE_LOOP('',(#156,#157,#158,#159)) ;
#186=EDGE_LOOP('',(#187,#188,#189,#190)) ;
#227=EDGE_LOOP('',(#228,#229,#230,#231,#232,#233)) ;
#270=EDGE_LOOP('',(#271,#272,#273,#274,#275,#276)) ;
#289=EDGE_LOOP('',(#290,#291,#292,#293)) ;
#329=EDGE_LOOP('',(#330,#331,#332,#333)) ;
#377=EDGE_LOOP('',(#378,#379,#380,#381,#382)) ;
#426=EDGE_LOOP('',(#427,#428,#429,#430,#431)) ;
#467=EDGE_LOOP('',(#468,#469,#470,#471,#472,#473,#474)) ;
#501=EDGE_LOOP('',(#502,#503,#504,#505)) ;
#525=EDGE_LOOP('',(#526,#527,#528,#529)) ;
#549=EDGE_LOOP('',(#550,#551,#552,#553)) ;
#580=EDGE_LOOP('',(#581,#582,#583,#584)) ;
#621=EDGE_LOOP('',(#622,#623,#624,#625,#626)) ;
#663=EDGE_LOOP('',(#664,#665,#666,#667,#668)) ;
#704=EDGE_LOOP('',(#705,#706,#707,#708,#709,#710,#711)) ;
#747=EDGE_LOOP('',(#748,#749,#750,#751)) ;
#796=EDGE_LOOP('',(#797,#798,#799,#800)) ;
#845=EDGE_LOOP('',(#846,#847,#848,#849,#850,#851)) ;
#896=EDGE_LOOP('',(#897,#898,#899,#900,#901,#902)) ;
#915=EDGE_LOOP('',(#916,#917,#918,#919)) ;
#941=EDGE_LOOP('',(#942,#943,#944,#945,#946,#947)) ;
#972=EDGE_LOOP('',(#973,#974,#975,#976,#977,#978,#979,#980,#981,#982,#983)) ;
#1008=EDGE_LOOP('',(#1009,#1010,#1011,#1012,#1013,#1014,#1015,#1016,#1017,#1018,#1019)) ;
#1046=EDGE_LOOP('',(#1047,#1048,#1049,#1050,#1051)) ;
#1059=EDGE_LOOP('',(#1060,#1061,#1062,#1063,#1064)) ;
#1091=EDGE_LOOP('',(#1092,#1093,#1094,#1095,#1096)) ;
#1104=EDGE_LOOP('',(#1105,#1106,#1107,#1108,#1109)) ;
#1136=EDGE_LOOP('',(#1137,#1138,#1139,#1140)) ;
#1167=EDGE_LOOP('',(#1168,#1169,#1170,#1171)) ;
#1198=EDGE_LOOP('',(#1199,#1200,#1201,#1202)) ;
#1222=EDGE_LOOP('',(#1223,#1224,#1225,#1226,#1227,#1228,#1229,#1230,#1231,#1232,#1233,#1234,#1235,#1236)) ;
#1256=EDGE_LOOP('',(#1257,#1258,#1259,#1260,#1261,#1262,#1263,#1264,#1265,#1266,#1267,#1268,#1269,#1270)) ;
#1283=EDGE_LOOP('',(#1284,#1285,#1286,#1287)) ;
#1289=EDGE_LOOP('',(#1290,#1291)) ;
#1293=EDGE_LOOP('',(#1294,#1295)) ;
#1303=EDGE_LOOP('',(#1304,#1305,#1306,#1307)) ;
#111=FACE_OUTER_BOUND('',#104,.T.) ;
#160=FACE_OUTER_BOUND('',#155,.T.) ;
#191=FACE_OUTER_BOUND('',#186,.T.) ;
#234=FACE_OUTER_BOUND('',#227,.T.) ;
#277=FACE_OUTER_BOUND('',#270,.T.) ;
#294=FACE_OUTER_BOUND('',#289,.T.) ;
#334=FACE_OUTER_BOUND('',#329,.T.) ;
#383=FACE_OUTER_BOUND('',#377,.T.) ;
#432=FACE_OUTER_BOUND('',#426,.T.) ;
#475=FACE_OUTER_BOUND('',#467,.T.) ;
#506=FACE_OUTER_BOUND('',#501,.T.) ;
#530=FACE_OUTER_BOUND('',#525,.T.) ;
#554=FACE_OUTER_BOUND('',#549,.T.) ;
#585=FACE_OUTER_BOUND('',#580,.T.) ;
#627=FACE_OUTER_BOUND('',#621,.T.) ;
#669=FACE_OUTER_BOUND('',#663,.T.) ;
#712=FACE_OUTER_BOUND('',#704,.T.) ;
#752=FACE_OUTER_BOUND('',#747,.T.) ;
#801=FACE_OUTER_BOUND('',#796,.T.) ;
#852=FACE_OUTER_BOUND('',#845,.T.) ;
#903=FACE_OUTER_BOUND('',#896,.T.) ;
#920=FACE_OUTER_BOUND('',#915,.T.) ;
#948=FACE_OUTER_BOUND('',#941,.T.) ;
#984=FACE_OUTER_BOUND('',#972,.T.) ;
#1020=FACE_OUTER_BOUND('',#1008,.T.) ;
#1052=FACE_OUTER_BOUND('',#1046,.T.) ;
#1065=FACE_OUTER_BOUND('',#1059,.T.) ;
#1097=FACE_OUTER_BOUND('',#1091,.T.) ;
#1110=FACE_OUTER_BOUND('',#1104,.T.) ;
#1141=FACE_OUTER_BOUND('',#1136,.T.) ;
#1172=FACE_OUTER_BOUND('',#1167,.T.) ;
#1203=FACE_OUTER_BOUND('',#1198,.T.) ;
#1237=FACE_OUTER_BOUND('',#1222,.T.) ;
#1271=FACE_OUTER_BOUND('',#1256,.T.) ;
#1288=FACE_OUTER_BOUND('',#1283,.T.) ;
#1308=FACE_OUTER_BOUND('',#1303,.T.) ;
#44=UNCERTAINTY_MEASURE_WITH_UNIT(LENGTH_MEASURE(0.005),#41,'distance_accuracy_value','CONFUSED CURVE UNCERTAINTY') ;
#59=LINE('Line',#56,#58) ;
#68=LINE('Line',#65,#67) ;
#75=LINE('Line',#72,#74) ;
#92=LINE('Line',#89,#91) ;
#153=LINE('Line',#150,#152) ;
#184=LINE('Line',#181,#183) ;
#287=LINE('Line',#284,#286) ;
#313=LINE('Line',#310,#312) ;
#327=LINE('Line',#324,#326) ;
#442=LINE('Line',#439,#441) ;
#465=LINE('Line',#462,#464) ;
#485=LINE('Line',#482,#484) ;
#492=LINE('Line',#489,#491) ;
#499=LINE('Line',#496,#498) ;
#523=LINE('Line',#520,#522) ;
#547=LINE('Line',#544,#546) ;
#571=LINE('Line',#568,#570) ;
#679=LINE('Line',#676,#678) ;
#702=LINE('Line',#699,#701) ;
#731=LINE('Line',#728,#730) ;
#745=LINE('Line',#742,#744) ;
#778=LINE('Line',#775,#777) ;
#913=LINE('Line',#910,#912) ;
#925=LINE('Line',#922,#924) ;
#932=LINE('Line',#929,#931) ;
#939=LINE('Line',#936,#938) ;
#953=LINE('Line',#950,#952) ;
#958=LINE('Line',#955,#957) ;
#989=LINE('Line',#986,#988) ;
#994=LINE('Line',#991,#993) ;
#1030=LINE('Line',#1027,#1029) ;
#1044=LINE('Line',#1041,#1043) ;
#1075=LINE('Line',#1072,#1074) ;
#1089=LINE('Line',#1086,#1088) ;
#1120=LINE('Line',#1117,#1119) ;
#1127=LINE('Line',#1124,#1126) ;
#1134=LINE('Line',#1131,#1133) ;
#1151=LINE('Line',#1148,#1150) ;
#1158=LINE('Line',#1155,#1157) ;
#1165=LINE('Line',#1162,#1164) ;
#1182=LINE('Line',#1179,#1181) ;
#1189=LINE('Line',#1186,#1188) ;
#1196=LINE('Line',#1193,#1195) ;
#1213=LINE('Line',#1210,#1212) ;
#1220=LINE('Line',#1217,#1219) ;
#1247=LINE('Line',#1244,#1246) ;
#1254=LINE('Line',#1251,#1253) ;
#1281=LINE('Line',#1278,#1280) ;
#2=MECHANICAL_CONTEXT(' ',#1,'mechanical') ;
#24=PERSONAL_ADDRESS(' ',' ',' ',' ',' ',' ',' ',' ',' ',' ',' ',' ',(#22),' ') ;
#55=PLANE('',#54) ;
#481=PLANE('',#480) ;
#1116=PLANE('',#1115) ;
#1147=PLANE('',#1146) ;
#1178=PLANE('',#1177) ;
#1209=PLANE('',#1208) ;
#1243=PLANE('',#1242) ;
#1277=PLANE('',#1276) ;
#1302=PLANE('',#1301) ;
#7=PRODUCT_CATEGORY('part',$) ;
#9=PRODUCT_CATEGORY_RELATIONSHIP(' ',' ',#7,#8) ;
#6=PRODUCT_DEFINITION_FORMATION_WITH_SPECIFIED_SOURCE('--A',' ',#5,.NOT_KNOWN.) ;
#8=PRODUCT_RELATED_PRODUCT_CATEGORY('detail',$,(#5)) ;
#49=SHAPE_DEFINITION_REPRESENTATION(#40,#48) ;
#61=VERTEX_POINT('',#60) ;
#63=VERTEX_POINT('',#62) ;
#70=VERTEX_POINT('',#69) ;
#77=VERTEX_POINT('',#76) ;
#87=VERTEX_POINT('',#86) ;
#94=VERTEX_POINT('',#93) ;
#132=VERTEX_POINT('',#131) ;
#148=VERTEX_POINT('',#147) ;
#172=VERTEX_POINT('',#171) ;
#179=VERTEX_POINT('',#178) ;
#203=VERTEX_POINT('',#202) ;
#211=VERTEX_POINT('',#210) ;
#255=VERTEX_POINT('',#254) ;
#263=VERTEX_POINT('',#262) ;
#306=VERTEX_POINT('',#305) ;
#308=VERTEX_POINT('',#307) ;
#315=VERTEX_POINT('',#314) ;
#322=VERTEX_POINT('',#321) ;
#346=VERTEX_POINT('',#345) ;
#348=VERTEX_POINT('',#347) ;
#369=VERTEX_POINT('',#368) ;
#395=VERTEX_POINT('',#394) ;
#402=VERTEX_POINT('',#401) ;
#410=VERTEX_POINT('',#409) ;
#444=VERTEX_POINT('',#443) ;
#452=VERTEX_POINT('',#451) ;
#460=VERTEX_POINT('',#459) ;
#487=VERTEX_POINT('',#486) ;
#494=VERTEX_POINT('',#493) ;
#518=VERTEX_POINT('',#517) ;
#542=VERTEX_POINT('',#541) ;
#566=VERTEX_POINT('',#565) ;
#573=VERTEX_POINT('',#572) ;
#597=VERTEX_POINT('',#596) ;
#605=VERTEX_POINT('',#604) ;
#639=VERTEX_POINT('',#638) ;
#655=VERTEX_POINT('',#654) ;
#681=VERTEX_POINT('',#680) ;
#689=VERTEX_POINT('',#688) ;
#697=VERTEX_POINT('',#696) ;
#724=VERTEX_POINT('',#723) ;
#726=VERTEX_POINT('',#725) ;
#733=VERTEX_POINT('',#732) ;
#740=VERTEX_POINT('',#739) ;
#773=VERTEX_POINT('',#772) ;
#780=VERTEX_POINT('',#779) ;
#822=VERTEX_POINT('',#821) ;
#830=VERTEX_POINT('',#829) ;
#837=VERTEX_POINT('',#836) ;
#865=VERTEX_POINT('',#864) ;
#872=VERTEX_POINT('',#871) ;
#880=VERTEX_POINT('',#879) ;
#927=VERTEX_POINT('',#926) ;
#934=VERTEX_POINT('',#933) ;
#965=VERTEX_POINT('',#964) ;
#1001=VERTEX_POINT('',#1000) ;
#1032=VERTEX_POINT('',#1031) ;
#1039=VERTEX_POINT('',#1038) ;
#1077=VERTEX_POINT('',#1076) ;
#1084=VERTEX_POINT('',#1083) ;
#1122=VERTEX_POINT('',#1121) ;
#1129=VERTEX_POINT('',#1128) ;
#1153=VERTEX_POINT('',#1152) ;
#1160=VERTEX_POINT('',#1159) ;
#1184=VERTEX_POINT('',#1183) ;
#1191=VERTEX_POINT('',#1190) ;
#1215=VERTEX_POINT('',#1214) ;
#1249=VERTEX_POINT('',#1248) ;
#41=(LENGTH_UNIT()NAMED_UNIT(*)SI_UNIT(.MILLI.,.METRE.)) ;
#42=(NAMED_UNIT(*)PLANE_ANGLE_UNIT()SI_UNIT($,.RADIAN.)) ;
#43=(NAMED_UNIT(*)SI_UNIT($,.STERADIAN.)SOLID_ANGLE_UNIT()) ;
#45=(GEOMETRIC_REPRESENTATION_CONTEXT(3)GLOBAL_UNCERTAINTY_ASSIGNED_CONTEXT((#44))GLOBAL_UNIT_ASSIGNED_CONTEXT((#41,#42,#43))REPRESENTATION_CONTEXT(' ',' ')) ;
ENDSEC;
END-ISO-10303-21;
