ISO-10303-21;
HEADER;
FILE_DESCRIPTION(('CATIA V5 STEP Exchange','CAx-IF Rec.Pracs.--- Model Styling and Organization---1.4--- 2014-01-23'),'2;1');

FILE_NAME('P:\\vberny\\AVELIA\\M3D-232788_A.stp','2022-11-14T14:37:51+00:00',('none'),('none'),'CATIA Version 5-6 Release 2016 SP5 HF59','CATIA V5 STEP AP214 Edition 3','none');

FILE_SCHEMA(('AUTOMOTIVE_DESIGN { 1 0 10303 214 3 1 1 1 }'));

ENDSEC;
DATA;
#5=PRODUCT('M3D-232788','','LEFT AL STIFFENER',(#2)) ;
#2=PRODUCT_CONTEXT(' ',#1,'mechanical') ;
#1=APPLICATION_CONTEXT('automotive design') ;
#10=PRODUCT_DEFINITION('MASTER',' ',#6,#3) ;
#3=PRODUCT_DEFINITION_CONTEXT('part definition',#1,' ') ;
#11=PRODUCT_DEFINITION_SHAPE(' ',' ',#10) ;
#735=MECHANICAL_DESIGN_GEOMETRIC_PRESENTATION_REPRESENTATION(' ',(#78,#110,#142,#196,#228,#282,#336,#397,#434,#460,#486,#511,#536,#561,#586,#611,#636,#662,#688,#711,#732,#29),#16) ;
#19=SHAPE_REPRESENTATION(' ',(#18),#16) ;
#18=AXIS2_PLACEMENT_3D(' ',#17,$,$) ;
#34=AXIS2_PLACEMENT_3D('Cylinder Axis2P3D',#31,#32,#33) ;
#38=AXIS2_PLACEMENT_3D('Circle Axis2P3D',#36,#37,$) ;
#54=AXIS2_PLACEMENT_3D('Circle Axis2P3D',#52,#53,$) ;
#82=AXIS2_PLACEMENT_3D('Plane Axis2P3D',#79,#80,#81) ;
#114=AXIS2_PLACEMENT_3D('Plane Axis2P3D',#111,#112,#113) ;
#146=AXIS2_PLACEMENT_3D('Cylinder Axis2P3D',#143,#144,#145) ;
#169=AXIS2_PLACEMENT_3D('Circle Axis2P3D',#167,#168,$) ;
#174=AXIS2_PLACEMENT_3D('Circle Axis2P3D',#172,#173,$) ;
#200=AXIS2_PLACEMENT_3D('Cylinder Axis2P3D',#197,#198,#199) ;
#204=AXIS2_PLACEMENT_3D('Circle Axis2P3D',#202,#203,$) ;
#211=AXIS2_PLACEMENT_3D('Circle Axis2P3D',#209,#210,$) ;
#232=AXIS2_PLACEMENT_3D('Plane Axis2P3D',#229,#230,#231) ;
#286=AXIS2_PLACEMENT_3D('Plane Axis2P3D',#283,#284,#285) ;
#340=AXIS2_PLACEMENT_3D('Cylinder Axis2P3D',#337,#338,#339) ;
#401=AXIS2_PLACEMENT_3D('Plane Axis2P3D',#398,#399,#400) ;
#438=AXIS2_PLACEMENT_3D('Cylinder Axis2P3D',#435,#436,#437) ;
#449=AXIS2_PLACEMENT_3D('Circle Axis2P3D',#447,#448,$) ;
#464=AXIS2_PLACEMENT_3D('Cylinder Axis2P3D',#461,#462,#463) ;
#475=AXIS2_PLACEMENT_3D('Circle Axis2P3D',#473,#474,$) ;
#490=AXIS2_PLACEMENT_3D('Plane Axis2P3D',#487,#488,#489) ;
#515=AXIS2_PLACEMENT_3D('Plane Axis2P3D',#512,#513,#514) ;
#540=AXIS2_PLACEMENT_3D('Plane Axis2P3D',#537,#538,#539) ;
#565=AXIS2_PLACEMENT_3D('Plane Axis2P3D',#562,#563,#564) ;
#590=AXIS2_PLACEMENT_3D('Plane Axis2P3D',#587,#588,#589) ;
#615=AXIS2_PLACEMENT_3D('Plane Axis2P3D',#612,#613,#614) ;
#640=AXIS2_PLACEMENT_3D('Cylinder Axis2P3D',#637,#638,#639) ;
#644=AXIS2_PLACEMENT_3D('Circle Axis2P3D',#642,#643,$) ;
#666=AXIS2_PLACEMENT_3D('Cylinder Axis2P3D',#663,#664,#665) ;
#670=AXIS2_PLACEMENT_3D('Circle Axis2P3D',#668,#669,$) ;
#692=AXIS2_PLACEMENT_3D('Plane Axis2P3D',#689,#690,#691) ;
#715=AXIS2_PLACEMENT_3D('Plane Axis2P3D',#712,#713,#714) ;
#17=CARTESIAN_POINT(' ',(0.,0.,0.)) ;
#31=CARTESIAN_POINT('Axis2P3D Location',(-20.,1375.,0.)) ;
#36=CARTESIAN_POINT('Axis2P3D Location',(-20.,1375.,399.)) ;
#40=CARTESIAN_POINT('Vertex',(-20.,1395.,399.)) ;
#42=CARTESIAN_POINT('Vertex',(-40.,1375.,399.)) ;
#45=CARTESIAN_POINT('Line Origine',(-40.,1375.,0.)) ;
#49=CARTESIAN_POINT('Vertex',(-40.,1375.,411.)) ;
#52=CARTESIAN_POINT('Axis2P3D Location',(-20.,1375.,411.)) ;
#56=CARTESIAN_POINT('Vertex',(-20.,1395.,411.)) ;
#59=CARTESIAN_POINT('Line Origine',(-20.,1395.,0.)) ;
#79=CARTESIAN_POINT('Axis2P3D Location',(-40.,1375.,0.)) ;
#84=CARTESIAN_POINT('Line Origine',(-40.,1316.63241181,399.)) ;
#88=CARTESIAN_POINT('Vertex',(-40.,1258.26482362,399.)) ;
#91=CARTESIAN_POINT('Line Origine',(-40.,1258.26482362,405.)) ;
#95=CARTESIAN_POINT('Vertex',(-40.,1258.26482362,411.)) ;
#98=CARTESIAN_POINT('Line Origine',(-40.,1316.63241181,411.)) ;
#111=CARTESIAN_POINT('Axis2P3D Location',(34.6534602404,1395.,0.)) ;
#116=CARTESIAN_POINT('Line Origine',(7.32673012021,1395.,399.)) ;
#120=CARTESIAN_POINT('Vertex',(34.6534602404,1395.,399.)) ;
#123=CARTESIAN_POINT('Line Origine',(7.32673012021,1395.,411.)) ;
#127=CARTESIAN_POINT('Vertex',(34.6534602404,1395.,411.)) ;
#130=CARTESIAN_POINT('Line Origine',(34.6534602404,1395.,405.)) ;
#143=CARTESIAN_POINT('Axis2P3D Location',(-140.,1258.26482362,0.)) ;
#148=CARTESIAN_POINT('Line Origine',(-114.11809549,1161.672241,0.)) ;
#152=CARTESIAN_POINT('Vertex',(-114.11809549,1161.672241,406.053467874)) ;
#154=CARTESIAN_POINT('Vertex',(-114.11809549,1161.672241,418.968621627)) ;
#158=CARTESIAN_POINT('Control Point',(-114.11809549,1161.672241,418.968621627)) ;
#159=CARTESIAN_POINT('Control Point',(-105.97219805,1163.85492764,415.506193925)) ;
#160=CARTESIAN_POINT('Control Point',(-97.66094478,1166.99984588,413.03655045)) ;
#161=CARTESIAN_POINT('Control Point',(-89.5276887071,1171.20895626,411.598678954)) ;
#162=CARTESIAN_POINT('Control Point',(-81.9278401492,1176.34576344,411.)) ;
#163=CARTESIAN_POINT('Control Point',(-75.,1182.27140286,411.)) ;
#164=CARTESIAN_POINT('Vertex',(-75.,1182.27140286,411.)) ;
#167=CARTESIAN_POINT('Axis2P3D Location',(-140.,1258.26482362,411.)) ;
#172=CARTESIAN_POINT('Axis2P3D Location',(-140.,1258.26482362,399.)) ;
#176=CARTESIAN_POINT('Vertex',(-75.,1182.27140286,399.)) ;
#180=CARTESIAN_POINT('Control Point',(-114.11809549,1161.672241,406.053467874)) ;
#181=CARTESIAN_POINT('Control Point',(-105.872322707,1163.88168915,402.979912983)) ;
#182=CARTESIAN_POINT('Control Point',(-97.5505635452,1167.05278193,400.799659688)) ;
#183=CARTESIAN_POINT('Control Point',(-89.4563152774,1171.25794735,399.529702611)) ;
#184=CARTESIAN_POINT('Control Point',(-81.8949601484,1176.37388693,399.)) ;
#185=CARTESIAN_POINT('Control Point',(-75.,1182.27140286,399.)) ;
#197=CARTESIAN_POINT('Axis2P3D Location',(34.6534602404,1375.,0.)) ;
#202=CARTESIAN_POINT('Axis2P3D Location',(34.6534602404,1375.,399.)) ;
#206=CARTESIAN_POINT('Vertex',(53.9719767662,1380.1763809,399.)) ;
#209=CARTESIAN_POINT('Axis2P3D Location',(34.6534602404,1375.,411.)) ;
#213=CARTESIAN_POINT('Vertex',(53.9719767662,1380.1763809,411.)) ;
#216=CARTESIAN_POINT('Line Origine',(53.9719767662,1380.1763809,0.)) ;
#229=CARTESIAN_POINT('Axis2P3D Location',(-195.,1140.,0.)) ;
#235=CARTESIAN_POINT('Control Point',(-131.,1157.14874832,414.005154776)) ;
#236=CARTESIAN_POINT('Control Point',(-127.75672506,1158.01778122,412.132649116)) ;
#237=CARTESIAN_POINT('Control Point',(-124.439184088,1158.90671364,410.398011496)) ;
#238=CARTESIAN_POINT('Control Point',(-121.05502622,1159.81349601,408.8047673)) ;
#239=CARTESIAN_POINT('Control Point',(-117.612053108,1160.73603787,407.35581646)) ;
#240=CARTESIAN_POINT('Control Point',(-114.11809549,1161.672241,406.053467874)) ;
#241=CARTESIAN_POINT('Vertex',(-131.,1157.14874832,414.005154776)) ;
#244=CARTESIAN_POINT('Line Origine',(-161.310889132,1149.02697005,431.505154776)) ;
#248=CARTESIAN_POINT('Vertex',(-191.621778265,1140.90519179,449.005154776)) ;
#251=CARTESIAN_POINT('Line Origine',(-188.621778265,1141.70903936,454.201307199)) ;
#255=CARTESIAN_POINT('Vertex',(-185.621778265,1142.51288694,459.397459622)) ;
#258=CARTESIAN_POINT('Line Origine',(-155.310889132,1150.63466521,441.897459622)) ;
#262=CARTESIAN_POINT('Vertex',(-125.,1158.75644347,424.397459622)) ;
#266=CARTESIAN_POINT('Control Point',(-125.,1158.75644347,424.397459622)) ;
#267=CARTESIAN_POINT('Control Point',(-122.888782324,1159.32214254,423.178547528)) ;
#268=CARTESIAN_POINT('Control Point',(-120.742318902,1159.89728568,422.025065917)) ;
#269=CARTESIAN_POINT('Control Point',(-118.56325776,1160.48116336,420.938235254)) ;
#270=CARTESIAN_POINT('Control Point',(-116.354283714,1161.07305617,419.919117273)) ;
#271=CARTESIAN_POINT('Control Point',(-114.11809549,1161.672241,418.968621627)) ;
#283=CARTESIAN_POINT('Axis2P3D Location',(53.9719767662,1380.1763809,0.)) ;
#288=CARTESIAN_POINT('Line Origine',(64.4859883831,1340.93755536,411.)) ;
#292=CARTESIAN_POINT('Vertex',(75.,1301.69872981,411.)) ;
#296=CARTESIAN_POINT('Control Point',(98.4671650286,1214.11807761,413.7925303)) ;
#297=CARTESIAN_POINT('Control Point',(93.7797393731,1231.61178832,412.660923935)) ;
#298=CARTESIAN_POINT('Control Point',(89.0874971138,1249.12347483,411.827160751)) ;
#299=CARTESIAN_POINT('Control Point',(84.3931333877,1266.64307877,411.275721734)) ;
#300=CARTESIAN_POINT('Control Point',(79.6965666948,1284.17090428,411.)) ;
#301=CARTESIAN_POINT('Control Point',(75.,1301.69872981,411.)) ;
#302=CARTESIAN_POINT('Vertex',(98.4671650286,1214.11807761,413.7925303)) ;
#305=CARTESIAN_POINT('Line Origine',(98.4671650286,1214.11807761,407.639320007)) ;
#309=CARTESIAN_POINT('Vertex',(98.4671650286,1214.11807761,401.486109714)) ;
#313=CARTESIAN_POINT('Control Point',(98.4671650286,1214.11807761,401.486109714)) ;
#314=CARTESIAN_POINT('Control Point',(93.7784840665,1231.61647319,400.481396526)) ;
#315=CARTESIAN_POINT('Control Point',(89.0860474147,1249.12888518,399.738324447)) ;
#316=CARTESIAN_POINT('Control Point',(84.391772866,1266.6481563,399.24610881)) ;
#317=CARTESIAN_POINT('Control Point',(79.6958864337,1284.17344305,399.)) ;
#318=CARTESIAN_POINT('Control Point',(75.,1301.69872981,399.)) ;
#319=CARTESIAN_POINT('Vertex',(75.,1301.69872981,399.)) ;
#322=CARTESIAN_POINT('Line Origine',(64.4859883831,1340.93755536,399.)) ;
#337=CARTESIAN_POINT('Axis2P3D Location',(195.059747657,1239.99998212,0.)) ;
#343=CARTESIAN_POINT('Control Point',(125.,1168.6443113,424.397459622)) ;
#344=CARTESIAN_POINT('Control Point',(117.799699931,1175.71384341,420.240364438)) ;
#345=CARTESIAN_POINT('Control Point',(111.10784051,1184.0684783,417.379444839)) ;
#346=CARTESIAN_POINT('Control Point',(105.529302956,1193.49077463,415.609231384)) ;
#347=CARTESIAN_POINT('Control Point',(101.286283882,1203.59698282,414.473102766)) ;
#348=CARTESIAN_POINT('Control Point',(98.4671650286,1214.11807761,413.7925303)) ;
#349=CARTESIAN_POINT('Vertex',(125.,1168.6443113,424.397459622)) ;
#353=CARTESIAN_POINT('Control Point',(125.,1168.6443113,424.397459622)) ;
#354=CARTESIAN_POINT('Control Point',(135.118845743,1158.70923857,430.239577935)) ;
#355=CARTESIAN_POINT('Control Point',(146.745840969,1150.82038359,436.952425299)) ;
#356=CARTESIAN_POINT('Control Point',(159.301626272,1145.16413281,444.201510064)) ;
#357=CARTESIAN_POINT('Control Point',(172.383989175,1141.70133507,451.754618527)) ;
#358=CARTESIAN_POINT('Control Point',(185.621778265,1140.4463547,459.397459622)) ;
#359=CARTESIAN_POINT('Vertex',(185.621778265,1140.4463547,459.397459622)) ;
#363=CARTESIAN_POINT('Control Point',(185.621778265,1140.4463547,459.397459622)) ;
#364=CARTESIAN_POINT('Control Point',(187.620612922,1140.25685944,455.935376439)) ;
#365=CARTESIAN_POINT('Control Point',(189.620995215,1140.12792476,452.470612673)) ;
#366=CARTESIAN_POINT('Control Point',(191.621778265,1140.05909777,449.005154776)) ;
#367=CARTESIAN_POINT('Vertex',(191.621778265,1140.05909777,449.005154776)) ;
#371=CARTESIAN_POINT('Control Point',(131.,1163.21229607,414.005154776)) ;
#372=CARTESIAN_POINT('Control Point',(141.504395367,1154.44905614,420.069870269)) ;
#373=CARTESIAN_POINT('Control Point',(153.262600159,1147.68879316,426.858473685)) ;
#374=CARTESIAN_POINT('Control Point',(165.768143181,1143.05139823,434.078546653)) ;
#375=CARTESIAN_POINT('Control Point',(178.668431746,1140.50469327,441.526536676)) ;
#376=CARTESIAN_POINT('Control Point',(191.621778265,1140.05909777,449.005154776)) ;
#377=CARTESIAN_POINT('Vertex',(131.,1163.21229607,414.005154776)) ;
#381=CARTESIAN_POINT('Control Point',(131.,1163.21229607,414.005154776)) ;
#382=CARTESIAN_POINT('Control Point',(122.157279808,1170.58929169,408.899807893)) ;
#383=CARTESIAN_POINT('Control Point',(113.811852122,1179.70959062,405.433433629)) ;
#384=CARTESIAN_POINT('Control Point',(106.876013929,1190.36751307,403.42056975)) ;
#385=CARTESIAN_POINT('Control Point',(101.722443459,1201.96921312,402.183666489)) ;
#386=CARTESIAN_POINT('Control Point',(98.4671650286,1214.11807761,401.486109714)) ;
#398=CARTESIAN_POINT('Axis2P3D Location',(75.,0.,411.)) ;
#403=CARTESIAN_POINT('Line Origine',(75.,1210.84936491,411.)) ;
#407=CARTESIAN_POINT('Vertex',(75.,1120.,411.)) ;
#410=CARTESIAN_POINT('Line Origine',(-75.,1151.13570143,411.)) ;
#414=CARTESIAN_POINT('Vertex',(-75.,1120.,411.)) ;
#417=CARTESIAN_POINT('Line Origine',(1.25055521494E-012,1120.,411.)) ;
#435=CARTESIAN_POINT('Axis2P3D Location',(-75.,0.,511.)) ;
#440=CARTESIAN_POINT('Line Origine',(-125.,0.,424.397459622)) ;
#444=CARTESIAN_POINT('Vertex',(-125.,1120.,424.397459622)) ;
#447=CARTESIAN_POINT('Axis2P3D Location',(-75.,1120.,511.)) ;
#461=CARTESIAN_POINT('Axis2P3D Location',(75.,0.,511.)) ;
#466=CARTESIAN_POINT('Line Origine',(125.,0.,424.397459622)) ;
#470=CARTESIAN_POINT('Vertex',(125.,1120.,424.397459622)) ;
#473=CARTESIAN_POINT('Axis2P3D Location',(75.,1120.,511.)) ;
#487=CARTESIAN_POINT('Axis2P3D Location',(-125.,0.,424.397459622)) ;
#492=CARTESIAN_POINT('Line Origine',(-185.621778265,1131.25644347,459.397459622)) ;
#496=CARTESIAN_POINT('Vertex',(-185.621778265,1120.,459.397459622)) ;
#499=CARTESIAN_POINT('Line Origine',(-155.310889132,1120.,441.897459622)) ;
#512=CARTESIAN_POINT('Axis2P3D Location',(125.,0.,424.397459622)) ;
#517=CARTESIAN_POINT('Line Origine',(155.310889132,1120.,441.897459622)) ;
#521=CARTESIAN_POINT('Vertex',(185.621778265,1120.,459.397459622)) ;
#524=CARTESIAN_POINT('Line Origine',(185.621778265,1130.22317735,459.397459622)) ;
#537=CARTESIAN_POINT('Axis2P3D Location',(-185.621778265,0.,459.397459622)) ;
#542=CARTESIAN_POINT('Line Origine',(-191.621778265,1130.45259589,449.005154776)) ;
#546=CARTESIAN_POINT('Vertex',(-191.621778265,1120.,449.005154776)) ;
#549=CARTESIAN_POINT('Line Origine',(-188.621778265,1120.,454.201307199)) ;
#562=CARTESIAN_POINT('Axis2P3D Location',(191.621778265,0.,449.005154776)) ;
#567=CARTESIAN_POINT('Line Origine',(191.621778265,1130.02954888,449.005154776)) ;
#571=CARTESIAN_POINT('Vertex',(191.621778265,1120.,449.005154776)) ;
#574=CARTESIAN_POINT('Line Origine',(188.621778265,1120.,454.201307199)) ;
#587=CARTESIAN_POINT('Axis2P3D Location',(-191.621778265,0.,449.005154776)) ;
#592=CARTESIAN_POINT('Line Origine',(-131.,1138.57437416,414.005154776)) ;
#596=CARTESIAN_POINT('Vertex',(-131.,1120.,414.005154776)) ;
#599=CARTESIAN_POINT('Line Origine',(-161.310889132,1120.,431.505154776)) ;
#612=CARTESIAN_POINT('Axis2P3D Location',(191.621778265,0.,449.005154776)) ;
#617=CARTESIAN_POINT('Line Origine',(161.310889132,1120.,431.505154776)) ;
#621=CARTESIAN_POINT('Vertex',(131.,1120.,414.005154776)) ;
#624=CARTESIAN_POINT('Line Origine',(131.,1141.60614803,414.005154776)) ;
#637=CARTESIAN_POINT('Axis2P3D Location',(-75.,0.,511.)) ;
#642=CARTESIAN_POINT('Axis2P3D Location',(-75.,1120.,511.)) ;
#646=CARTESIAN_POINT('Vertex',(-75.,1120.,399.)) ;
#649=CARTESIAN_POINT('Line Origine',(-75.,0.,399.)) ;
#663=CARTESIAN_POINT('Axis2P3D Location',(75.,0.,511.)) ;
#668=CARTESIAN_POINT('Axis2P3D Location',(75.,1120.,511.)) ;
#672=CARTESIAN_POINT('Vertex',(75.,1120.,399.)) ;
#675=CARTESIAN_POINT('Line Origine',(75.,0.,399.)) ;
#689=CARTESIAN_POINT('Axis2P3D Location',(-75.,0.,399.)) ;
#694=CARTESIAN_POINT('Line Origine',(0.,1120.,399.)) ;
#712=CARTESIAN_POINT('Axis2P3D Location',(-195.,1120.,0.)) ;
#32=DIRECTION('Axis2P3D Direction',(0.,0.,1.)) ;
#33=DIRECTION('Axis2P3D XDirection',(-5.26783817824E-015,1.,0.)) ;
#37=DIRECTION('Axis2P3D Direction',(0.,0.,1.)) ;
#46=DIRECTION('Vector Direction',(0.,0.,1.)) ;
#53=DIRECTION('Axis2P3D Direction',(0.,0.,1.)) ;
#60=DIRECTION('Vector Direction',(0.,0.,1.)) ;
#80=DIRECTION('Axis2P3D Direction',(-1.,0.,0.)) ;
#81=DIRECTION('Axis2P3D XDirection',(0.,-1.,0.)) ;
#85=DIRECTION('Vector Direction',(0.,-1.,0.)) ;
#92=DIRECTION('Vector Direction',(0.,0.,1.)) ;
#99=DIRECTION('Vector Direction',(0.,-1.,0.)) ;
#112=DIRECTION('Axis2P3D Direction',(0.,1.,-0.)) ;
#113=DIRECTION('Axis2P3D XDirection',(-1.,0.,0.)) ;
#117=DIRECTION('Vector Direction',(-1.,0.,0.)) ;
#124=DIRECTION('Vector Direction',(-1.,0.,0.)) ;
#131=DIRECTION('Vector Direction',(0.,0.,1.)) ;
#144=DIRECTION('Axis2P3D Direction',(0.,0.,1.)) ;
#145=DIRECTION('Axis2P3D XDirection',(0.258819045103,-0.965925826289,0.)) ;
#149=DIRECTION('Vector Direction',(0.,0.,1.)) ;
#168=DIRECTION('Axis2P3D Direction',(0.,0.,1.)) ;
#173=DIRECTION('Axis2P3D Direction',(0.,0.,1.)) ;
#198=DIRECTION('Axis2P3D Direction',(0.,0.,1.)) ;
#199=DIRECTION('Axis2P3D XDirection',(0.965925826289,0.258819045103,0.)) ;
#203=DIRECTION('Axis2P3D Direction',(0.,0.,1.)) ;
#210=DIRECTION('Axis2P3D Direction',(0.,0.,1.)) ;
#217=DIRECTION('Vector Direction',(0.,0.,1.)) ;
#230=DIRECTION('Axis2P3D Direction',(0.258819045103,-0.965925826289,0.)) ;
#231=DIRECTION('Axis2P3D XDirection',(0.965925826289,0.258819045103,0.)) ;
#245=DIRECTION('Vector Direction',(0.843610022962,0.226044624379,-0.487058473848)) ;
#252=DIRECTION('Vector Direction',(-0.495572219835,-0.132788176096,-0.858356263574)) ;
#259=DIRECTION('Vector Direction',(-0.843610022962,-0.226044624379,0.487058473848)) ;
#284=DIRECTION('Axis2P3D Direction',(-0.965925826289,-0.258819045103,0.)) ;
#285=DIRECTION('Axis2P3D XDirection',(0.258819045103,-0.965925826289,0.)) ;
#289=DIRECTION('Vector Direction',(0.258819045103,-0.965925826289,0.)) ;
#306=DIRECTION('Vector Direction',(0.,0.,1.)) ;
#323=DIRECTION('Vector Direction',(0.258819045103,-0.965925826289,0.)) ;
#338=DIRECTION('Axis2P3D Direction',(0.,0.,1.)) ;
#339=DIRECTION('Axis2P3D XDirection',(-0.965925826289,-0.258819045103,-0.)) ;
#399=DIRECTION('Axis2P3D Direction',(0.,0.,-1.)) ;
#400=DIRECTION('Axis2P3D XDirection',(-1.,0.,0.)) ;
#404=DIRECTION('Vector Direction',(0.,1.,0.)) ;
#411=DIRECTION('Vector Direction',(0.,1.,0.)) ;
#418=DIRECTION('Vector Direction',(-1.,0.,0.)) ;
#436=DIRECTION('Axis2P3D Direction',(0.,1.,-0.)) ;
#437=DIRECTION('Axis2P3D XDirection',(1.26181948957E-014,-0.,-1.)) ;
#441=DIRECTION('Vector Direction',(0.,1.,0.)) ;
#448=DIRECTION('Axis2P3D Direction',(0.,1.,-0.)) ;
#462=DIRECTION('Axis2P3D Direction',(0.,1.,-0.)) ;
#463=DIRECTION('Axis2P3D XDirection',(0.5,-0.,-0.866025403784)) ;
#467=DIRECTION('Vector Direction',(0.,1.,0.)) ;
#474=DIRECTION('Axis2P3D Direction',(0.,1.,-0.)) ;
#488=DIRECTION('Axis2P3D Direction',(-0.5,0.,-0.866025403784)) ;
#489=DIRECTION('Axis2P3D XDirection',(-0.866025403784,0.,0.5)) ;
#493=DIRECTION('Vector Direction',(0.,1.,0.)) ;
#500=DIRECTION('Vector Direction',(-0.866025403784,0.,0.5)) ;
#513=DIRECTION('Axis2P3D Direction',(-0.5,0.,0.866025403784)) ;
#514=DIRECTION('Axis2P3D XDirection',(0.866025403784,0.,0.5)) ;
#518=DIRECTION('Vector Direction',(0.866025403784,0.,0.5)) ;
#525=DIRECTION('Vector Direction',(0.,1.,0.)) ;
#538=DIRECTION('Axis2P3D Direction',(0.866025403784,0.,-0.5)) ;
#539=DIRECTION('Axis2P3D XDirection',(-0.5,0.,-0.866025403784)) ;
#543=DIRECTION('Vector Direction',(0.,1.,0.)) ;
#550=DIRECTION('Vector Direction',(-0.5,0.,-0.866025403784)) ;
#563=DIRECTION('Axis2P3D Direction',(-0.866025403784,0.,-0.5)) ;
#564=DIRECTION('Axis2P3D XDirection',(-0.5,0.,0.866025403784)) ;
#568=DIRECTION('Vector Direction',(0.,1.,0.)) ;
#575=DIRECTION('Vector Direction',(-0.5,0.,0.866025403784)) ;
#588=DIRECTION('Axis2P3D Direction',(0.5,-0.,0.866025403784)) ;
#589=DIRECTION('Axis2P3D XDirection',(0.866025403784,0.,-0.5)) ;
#593=DIRECTION('Vector Direction',(0.,1.,0.)) ;
#600=DIRECTION('Vector Direction',(0.866025403784,0.,-0.5)) ;
#613=DIRECTION('Axis2P3D Direction',(0.5,0.,-0.866025403784)) ;
#614=DIRECTION('Axis2P3D XDirection',(-0.866025403784,0.,-0.5)) ;
#618=DIRECTION('Vector Direction',(-0.866025403784,0.,-0.5)) ;
#625=DIRECTION('Vector Direction',(0.,1.,0.)) ;
#638=DIRECTION('Axis2P3D Direction',(0.,1.,-0.)) ;
#639=DIRECTION('Axis2P3D XDirection',(1.96005385927E-015,-0.,-1.)) ;
#643=DIRECTION('Axis2P3D Direction',(0.,1.,-0.)) ;
#650=DIRECTION('Vector Direction',(0.,1.,0.)) ;
#664=DIRECTION('Axis2P3D Direction',(0.,1.,-0.)) ;
#665=DIRECTION('Axis2P3D XDirection',(0.5,-0.,-0.866025403784)) ;
#669=DIRECTION('Axis2P3D Direction',(0.,1.,-0.)) ;
#676=DIRECTION('Vector Direction',(0.,1.,0.)) ;
#690=DIRECTION('Axis2P3D Direction',(0.,0.,1.)) ;
#691=DIRECTION('Axis2P3D XDirection',(1.,0.,0.)) ;
#695=DIRECTION('Vector Direction',(1.,0.,0.)) ;
#713=DIRECTION('Axis2P3D Direction',(0.,-1.,0.)) ;
#714=DIRECTION('Axis2P3D XDirection',(1.,0.,0.)) ;
#8=PRODUCT_RELATED_PRODUCT_CATEGORY('part',$,(#5)) ;
#7=PRODUCT_CATEGORY('part','specification') ;
#29=STYLED_ITEM(' ',(#28),#21) ;
#28=PRESENTATION_STYLE_ASSIGNMENT((#27)) ;
#77=PRESENTATION_STYLE_ASSIGNMENT((#76)) ;
#27=SURFACE_STYLE_USAGE(.BOTH.,#26) ;
#76=SURFACE_STYLE_USAGE(.BOTH.,#75) ;
#26=SURFACE_SIDE_STYLE(' ',(#25)) ;
#75=SURFACE_SIDE_STYLE(' ',(#74)) ;
#25=SURFACE_STYLE_FILL_AREA(#24) ;
#74=SURFACE_STYLE_FILL_AREA(#73) ;
#24=FILL_AREA_STYLE(' ',(#23)) ;
#73=FILL_AREA_STYLE(' ',(#72)) ;
#23=FILL_AREA_STYLE_COLOUR(' ',#22) ;
#72=FILL_AREA_STYLE_COLOUR(' ',#71) ;
#47=VECTOR('Line Direction',#46,1.) ;
#61=VECTOR('Line Direction',#60,1.) ;
#86=VECTOR('Line Direction',#85,1.) ;
#93=VECTOR('Line Direction',#92,1.) ;
#100=VECTOR('Line Direction',#99,1.) ;
#118=VECTOR('Line Direction',#117,1.) ;
#125=VECTOR('Line Direction',#124,1.) ;
#132=VECTOR('Line Direction',#131,1.) ;
#150=VECTOR('Line Direction',#149,1.) ;
#218=VECTOR('Line Direction',#217,1.) ;
#246=VECTOR('Line Direction',#245,1.) ;
#253=VECTOR('Line Direction',#252,1.) ;
#260=VECTOR('Line Direction',#259,1.) ;
#290=VECTOR('Line Direction',#289,1.) ;
#307=VECTOR('Line Direction',#306,1.) ;
#324=VECTOR('Line Direction',#323,1.) ;
#405=VECTOR('Line Direction',#404,1.) ;
#412=VECTOR('Line Direction',#411,1.) ;
#419=VECTOR('Line Direction',#418,1.) ;
#442=VECTOR('Line Direction',#441,1.) ;
#468=VECTOR('Line Direction',#467,1.) ;
#494=VECTOR('Line Direction',#493,1.) ;
#501=VECTOR('Line Direction',#500,1.) ;
#519=VECTOR('Line Direction',#518,1.) ;
#526=VECTOR('Line Direction',#525,1.) ;
#544=VECTOR('Line Direction',#543,1.) ;
#551=VECTOR('Line Direction',#550,1.) ;
#569=VECTOR('Line Direction',#568,1.) ;
#576=VECTOR('Line Direction',#575,1.) ;
#594=VECTOR('Line Direction',#593,1.) ;
#601=VECTOR('Line Direction',#600,1.) ;
#619=VECTOR('Line Direction',#618,1.) ;
#626=VECTOR('Line Direction',#625,1.) ;
#651=VECTOR('Line Direction',#650,1.) ;
#677=VECTOR('Line Direction',#676,1.) ;
#696=VECTOR('Line Direction',#695,1.) ;
#15=UNCERTAINTY_MEASURE_WITH_UNIT(LENGTH_MEASURE(0.005),#12,'distance_accuracy_value','CONFUSED CURVE UNCERTAINTY') ;
#734=SHAPE_REPRESENTATION_RELATIONSHIP(' ',' ',#19,#733) ;
#65=ORIENTED_EDGE('',*,*,#44,.T.) ;
#66=ORIENTED_EDGE('',*,*,#51,.T.) ;
#67=ORIENTED_EDGE('',*,*,#58,.T.) ;
#68=ORIENTED_EDGE('',*,*,#63,.F.) ;
#104=ORIENTED_EDGE('',*,*,#90,.T.) ;
#105=ORIENTED_EDGE('',*,*,#97,.T.) ;
#106=ORIENTED_EDGE('',*,*,#102,.F.) ;
#107=ORIENTED_EDGE('',*,*,#51,.F.) ;
#136=ORIENTED_EDGE('',*,*,#122,.T.) ;
#137=ORIENTED_EDGE('',*,*,#63,.T.) ;
#138=ORIENTED_EDGE('',*,*,#129,.F.) ;
#139=ORIENTED_EDGE('',*,*,#134,.F.) ;
#188=ORIENTED_EDGE('',*,*,#156,.T.) ;
#189=ORIENTED_EDGE('',*,*,#166,.T.) ;
#190=ORIENTED_EDGE('',*,*,#171,.F.) ;
#191=ORIENTED_EDGE('',*,*,#97,.F.) ;
#192=ORIENTED_EDGE('',*,*,#178,.F.) ;
#193=ORIENTED_EDGE('',*,*,#186,.F.) ;
#222=ORIENTED_EDGE('',*,*,#208,.T.) ;
#223=ORIENTED_EDGE('',*,*,#134,.T.) ;
#224=ORIENTED_EDGE('',*,*,#215,.T.) ;
#225=ORIENTED_EDGE('',*,*,#220,.F.) ;
#274=ORIENTED_EDGE('',*,*,#243,.F.) ;
#275=ORIENTED_EDGE('',*,*,#250,.F.) ;
#276=ORIENTED_EDGE('',*,*,#257,.F.) ;
#277=ORIENTED_EDGE('',*,*,#264,.F.) ;
#278=ORIENTED_EDGE('',*,*,#272,.T.) ;
#279=ORIENTED_EDGE('',*,*,#156,.F.) ;
#328=ORIENTED_EDGE('',*,*,#220,.T.) ;
#329=ORIENTED_EDGE('',*,*,#294,.T.) ;
#330=ORIENTED_EDGE('',*,*,#304,.F.) ;
#331=ORIENTED_EDGE('',*,*,#311,.F.) ;
#332=ORIENTED_EDGE('',*,*,#321,.T.) ;
#333=ORIENTED_EDGE('',*,*,#326,.F.) ;
#389=ORIENTED_EDGE('',*,*,#351,.F.) ;
#390=ORIENTED_EDGE('',*,*,#361,.T.) ;
#391=ORIENTED_EDGE('',*,*,#369,.T.) ;
#392=ORIENTED_EDGE('',*,*,#379,.F.) ;
#393=ORIENTED_EDGE('',*,*,#387,.T.) ;
#394=ORIENTED_EDGE('',*,*,#311,.T.) ;
#423=ORIENTED_EDGE('',*,*,#409,.T.) ;
#424=ORIENTED_EDGE('',*,*,#294,.F.) ;
#425=ORIENTED_EDGE('',*,*,#215,.F.) ;
#426=ORIENTED_EDGE('',*,*,#129,.T.) ;
#427=ORIENTED_EDGE('',*,*,#58,.F.) ;
#428=ORIENTED_EDGE('',*,*,#102,.T.) ;
#429=ORIENTED_EDGE('',*,*,#171,.T.) ;
#430=ORIENTED_EDGE('',*,*,#416,.F.) ;
#431=ORIENTED_EDGE('',*,*,#421,.F.) ;
#453=ORIENTED_EDGE('',*,*,#416,.T.) ;
#454=ORIENTED_EDGE('',*,*,#166,.F.) ;
#455=ORIENTED_EDGE('',*,*,#272,.F.) ;
#456=ORIENTED_EDGE('',*,*,#446,.F.) ;
#457=ORIENTED_EDGE('',*,*,#451,.T.) ;
#479=ORIENTED_EDGE('',*,*,#472,.T.) ;
#480=ORIENTED_EDGE('',*,*,#351,.T.) ;
#481=ORIENTED_EDGE('',*,*,#304,.T.) ;
#482=ORIENTED_EDGE('',*,*,#409,.F.) ;
#483=ORIENTED_EDGE('',*,*,#477,.T.) ;
#505=ORIENTED_EDGE('',*,*,#446,.T.) ;
#506=ORIENTED_EDGE('',*,*,#264,.T.) ;
#507=ORIENTED_EDGE('',*,*,#498,.F.) ;
#508=ORIENTED_EDGE('',*,*,#503,.F.) ;
#530=ORIENTED_EDGE('',*,*,#523,.T.) ;
#531=ORIENTED_EDGE('',*,*,#528,.T.) ;
#532=ORIENTED_EDGE('',*,*,#361,.F.) ;
#533=ORIENTED_EDGE('',*,*,#472,.F.) ;
#555=ORIENTED_EDGE('',*,*,#498,.T.) ;
#556=ORIENTED_EDGE('',*,*,#257,.T.) ;
#557=ORIENTED_EDGE('',*,*,#548,.F.) ;
#558=ORIENTED_EDGE('',*,*,#553,.F.) ;
#580=ORIENTED_EDGE('',*,*,#573,.T.) ;
#581=ORIENTED_EDGE('',*,*,#369,.F.) ;
#582=ORIENTED_EDGE('',*,*,#528,.F.) ;
#583=ORIENTED_EDGE('',*,*,#578,.F.) ;
#605=ORIENTED_EDGE('',*,*,#548,.T.) ;
#606=ORIENTED_EDGE('',*,*,#250,.T.) ;
#607=ORIENTED_EDGE('',*,*,#598,.F.) ;
#608=ORIENTED_EDGE('',*,*,#603,.F.) ;
#630=ORIENTED_EDGE('',*,*,#623,.T.) ;
#631=ORIENTED_EDGE('',*,*,#628,.T.) ;
#632=ORIENTED_EDGE('',*,*,#379,.T.) ;
#633=ORIENTED_EDGE('',*,*,#573,.F.) ;
#655=ORIENTED_EDGE('',*,*,#648,.F.) ;
#656=ORIENTED_EDGE('',*,*,#598,.T.) ;
#657=ORIENTED_EDGE('',*,*,#243,.T.) ;
#658=ORIENTED_EDGE('',*,*,#186,.T.) ;
#659=ORIENTED_EDGE('',*,*,#653,.F.) ;
#681=ORIENTED_EDGE('',*,*,#674,.F.) ;
#682=ORIENTED_EDGE('',*,*,#679,.T.) ;
#683=ORIENTED_EDGE('',*,*,#321,.F.) ;
#684=ORIENTED_EDGE('',*,*,#387,.F.) ;
#685=ORIENTED_EDGE('',*,*,#628,.F.) ;
#700=ORIENTED_EDGE('',*,*,#653,.T.) ;
#701=ORIENTED_EDGE('',*,*,#178,.T.) ;
#702=ORIENTED_EDGE('',*,*,#90,.F.) ;
#703=ORIENTED_EDGE('',*,*,#44,.F.) ;
#704=ORIENTED_EDGE('',*,*,#122,.F.) ;
#705=ORIENTED_EDGE('',*,*,#208,.F.) ;
#706=ORIENTED_EDGE('',*,*,#326,.T.) ;
#707=ORIENTED_EDGE('',*,*,#679,.F.) ;
#708=ORIENTED_EDGE('',*,*,#698,.F.) ;
#718=ORIENTED_EDGE('',*,*,#451,.F.) ;
#719=ORIENTED_EDGE('',*,*,#503,.T.) ;
#720=ORIENTED_EDGE('',*,*,#553,.T.) ;
#721=ORIENTED_EDGE('',*,*,#603,.T.) ;
#722=ORIENTED_EDGE('',*,*,#648,.T.) ;
#723=ORIENTED_EDGE('',*,*,#698,.T.) ;
#724=ORIENTED_EDGE('',*,*,#674,.T.) ;
#725=ORIENTED_EDGE('',*,*,#623,.F.) ;
#726=ORIENTED_EDGE('',*,*,#578,.T.) ;
#727=ORIENTED_EDGE('',*,*,#523,.F.) ;
#728=ORIENTED_EDGE('',*,*,#477,.F.) ;
#729=ORIENTED_EDGE('',*,*,#421,.T.) ;
#30=CLOSED_SHELL('Closed Shell',(#70,#109,#141,#195,#227,#281,#335,#396,#433,#459,#485,#510,#535,#560,#585,#610,#635,#661,#687,#710,#731)) ;
#733=ADVANCED_BREP_SHAPE_REPRESENTATION('NONE',(#21),#16) ;
#70=ADVANCED_FACE('232788-Renfort AL Gauche',(#69),#35,.T.) ;
#109=ADVANCED_FACE('232788-Renfort AL Gauche',(#108),#83,.T.) ;
#141=ADVANCED_FACE('232788-Renfort AL Gauche',(#140),#115,.T.) ;
#195=ADVANCED_FACE('232788-Renfort AL Gauche',(#194),#147,.F.) ;
#227=ADVANCED_FACE('232788-Renfort AL Gauche',(#226),#201,.T.) ;
#281=ADVANCED_FACE('232788-Renfort AL Gauche',(#280),#233,.F.) ;
#335=ADVANCED_FACE('232788-Renfort AL Gauche',(#334),#287,.F.) ;
#396=ADVANCED_FACE('232788-Renfort AL Gauche',(#395),#341,.F.) ;
#433=ADVANCED_FACE('232788-Renfort AL Gauche',(#432),#402,.F.) ;
#459=ADVANCED_FACE('232788-Renfort AL Gauche',(#458),#439,.F.) ;
#485=ADVANCED_FACE('232788-Renfort AL Gauche',(#484),#465,.F.) ;
#510=ADVANCED_FACE('232788-Renfort AL Gauche',(#509),#491,.F.) ;
#535=ADVANCED_FACE('232788-Renfort AL Gauche',(#534),#516,.T.) ;
#560=ADVANCED_FACE('232788-Renfort AL Gauche',(#559),#541,.F.) ;
#585=ADVANCED_FACE('232788-Renfort AL Gauche',(#584),#566,.F.) ;
#610=ADVANCED_FACE('232788-Renfort AL Gauche',(#609),#591,.F.) ;
#635=ADVANCED_FACE('232788-Renfort AL Gauche',(#634),#616,.T.) ;
#661=ADVANCED_FACE('232788-Renfort AL Gauche',(#660),#641,.T.) ;
#687=ADVANCED_FACE('232788-Renfort AL Gauche',(#686),#667,.T.) ;
#710=ADVANCED_FACE('232788-Renfort AL Gauche',(#709),#693,.F.) ;
#731=ADVANCED_FACE('232788-Renfort AL Gauche',(#730),#716,.T.) ;
#4=APPLICATION_PROTOCOL_DEFINITION('international standard','automotive_design',2010,#1) ;
#157=B_SPLINE_CURVE_WITH_KNOTS('',5,(#158,#159,#160,#161,#162,#163),.UNSPECIFIED.,.F.,.U.,(6,6),(0.,64.4624587095),.UNSPECIFIED.) ;
#179=B_SPLINE_CURVE_WITH_KNOTS('',5,(#180,#181,#182,#183,#184,#185),.UNSPECIFIED.,.F.,.U.,(6,6),(0.,64.1565154946),.UNSPECIFIED.) ;
#234=B_SPLINE_CURVE_WITH_KNOTS('',5,(#235,#236,#237,#238,#239,#240),.UNSPECIFIED.,.F.,.U.,(6,6),(0.,27.1848560464),.UNSPECIFIED.) ;
#265=B_SPLINE_CURVE_WITH_KNOTS('',5,(#266,#267,#268,#269,#270,#271),.UNSPECIFIED.,.F.,.U.,(6,6),(0.,17.6960478744),.UNSPECIFIED.) ;
#295=B_SPLINE_CURVE_WITH_KNOTS('',5,(#296,#297,#298,#299,#300,#301),.UNSPECIFIED.,.F.,.U.,(6,6),(0.,128.312588313),.UNSPECIFIED.) ;
#312=B_SPLINE_CURVE_WITH_KNOTS('',5,(#313,#314,#315,#316,#317,#318),.UNSPECIFIED.,.F.,.U.,(6,6),(0.,128.294003234),.UNSPECIFIED.) ;
#342=B_SPLINE_CURVE_WITH_KNOTS('',5,(#343,#344,#345,#346,#347,#348),.UNSPECIFIED.,.F.,.U.,(6,6),(0.,77.1699571268),.UNSPECIFIED.) ;
#352=B_SPLINE_CURVE_WITH_KNOTS('',5,(#353,#354,#355,#356,#357,#358),.UNSPECIFIED.,.F.,.U.,(6,6),(0.,108.449770799),.UNSPECIFIED.) ;
#362=B_SPLINE_CURVE_WITH_KNOTS('',3,(#363,#364,#365,#366),.UNSPECIFIED.,.F.,.U.,(4,4),(0.,16.9797182334),.UNSPECIFIED.) ;
#370=B_SPLINE_CURVE_WITH_KNOTS('',5,(#371,#372,#373,#374,#375,#376),.UNSPECIFIED.,.F.,.U.,(6,6),(0.,105.810554787),.UNSPECIFIED.) ;
#380=B_SPLINE_CURVE_WITH_KNOTS('',5,(#381,#382,#383,#384,#385,#386),.UNSPECIFIED.,.F.,.U.,(6,6),(0.,89.0725355134),.UNSPECIFIED.) ;
#21=MANIFOLD_SOLID_BREP('232788-Renfort AL Gauche',#30) ;
#39=CIRCLE('generated circle',#38,20.) ;
#55=CIRCLE('generated circle',#54,20.) ;
#170=CIRCLE('generated circle',#169,100.) ;
#175=CIRCLE('generated circle',#174,100.) ;
#205=CIRCLE('generated circle',#204,20.) ;
#212=CIRCLE('generated circle',#211,20.) ;
#450=CIRCLE('generated circle',#449,100.) ;
#476=CIRCLE('generated circle',#475,100.) ;
#645=CIRCLE('generated circle',#644,112.) ;
#671=CIRCLE('generated circle',#670,112.) ;
#22=COLOUR_RGB('Colour',0.823529411765,0.823529411765,1.) ;
#71=COLOUR_RGB('Colour',0.513725490196,0.666666666667,0.839215686275) ;
#78=OVER_RIDING_STYLED_ITEM(' ',(#77),#70,#29) ;
#110=OVER_RIDING_STYLED_ITEM(' ',(#77),#109,#29) ;
#142=OVER_RIDING_STYLED_ITEM(' ',(#77),#141,#29) ;
#196=OVER_RIDING_STYLED_ITEM(' ',(#77),#195,#29) ;
#228=OVER_RIDING_STYLED_ITEM(' ',(#77),#227,#29) ;
#282=OVER_RIDING_STYLED_ITEM(' ',(#77),#281,#29) ;
#336=OVER_RIDING_STYLED_ITEM(' ',(#77),#335,#29) ;
#397=OVER_RIDING_STYLED_ITEM(' ',(#77),#396,#29) ;
#434=OVER_RIDING_STYLED_ITEM(' ',(#77),#433,#29) ;
#460=OVER_RIDING_STYLED_ITEM(' ',(#77),#459,#29) ;
#486=OVER_RIDING_STYLED_ITEM(' ',(#77),#485,#29) ;
#511=OVER_RIDING_STYLED_ITEM(' ',(#77),#510,#29) ;
#536=OVER_RIDING_STYLED_ITEM(' ',(#77),#535,#29) ;
#561=OVER_RIDING_STYLED_ITEM(' ',(#77),#560,#29) ;
#586=OVER_RIDING_STYLED_ITEM(' ',(#77),#585,#29) ;
#611=OVER_RIDING_STYLED_ITEM(' ',(#77),#610,#29) ;
#636=OVER_RIDING_STYLED_ITEM(' ',(#77),#635,#29) ;
#662=OVER_RIDING_STYLED_ITEM(' ',(#77),#661,#29) ;
#688=OVER_RIDING_STYLED_ITEM(' ',(#77),#687,#29) ;
#711=OVER_RIDING_STYLED_ITEM(' ',(#77),#710,#29) ;
#732=OVER_RIDING_STYLED_ITEM(' ',(#77),#731,#29) ;
#35=CYLINDRICAL_SURFACE('generated cylinder',#34,20.) ;
#147=CYLINDRICAL_SURFACE('generated cylinder',#146,100.) ;
#201=CYLINDRICAL_SURFACE('generated cylinder',#200,20.) ;
#341=CYLINDRICAL_SURFACE('generated cylinder',#340,100.) ;
#439=CYLINDRICAL_SURFACE('generated cylinder',#438,100.) ;
#465=CYLINDRICAL_SURFACE('generated cylinder',#464,100.) ;
#641=CYLINDRICAL_SURFACE('generated cylinder',#640,112.) ;
#667=CYLINDRICAL_SURFACE('generated cylinder',#666,112.) ;
#44=EDGE_CURVE('',#41,#43,#39,.T.) ;
#51=EDGE_CURVE('',#43,#50,#48,.T.) ;
#58=EDGE_CURVE('',#50,#57,#55,.F.) ;
#63=EDGE_CURVE('',#41,#57,#62,.T.) ;
#90=EDGE_CURVE('',#43,#89,#87,.T.) ;
#97=EDGE_CURVE('',#89,#96,#94,.T.) ;
#102=EDGE_CURVE('',#50,#96,#101,.T.) ;
#122=EDGE_CURVE('',#121,#41,#119,.T.) ;
#129=EDGE_CURVE('',#128,#57,#126,.T.) ;
#134=EDGE_CURVE('',#121,#128,#133,.T.) ;
#156=EDGE_CURVE('',#153,#155,#151,.T.) ;
#166=EDGE_CURVE('',#155,#165,#157,.T.) ;
#171=EDGE_CURVE('',#96,#165,#170,.F.) ;
#178=EDGE_CURVE('',#177,#89,#175,.T.) ;
#186=EDGE_CURVE('',#153,#177,#179,.T.) ;
#208=EDGE_CURVE('',#207,#121,#205,.T.) ;
#215=EDGE_CURVE('',#128,#214,#212,.F.) ;
#220=EDGE_CURVE('',#207,#214,#219,.T.) ;
#243=EDGE_CURVE('',#242,#153,#234,.T.) ;
#250=EDGE_CURVE('',#249,#242,#247,.T.) ;
#257=EDGE_CURVE('',#256,#249,#254,.T.) ;
#264=EDGE_CURVE('',#263,#256,#261,.T.) ;
#272=EDGE_CURVE('',#263,#155,#265,.T.) ;
#294=EDGE_CURVE('',#214,#293,#291,.T.) ;
#304=EDGE_CURVE('',#303,#293,#295,.T.) ;
#311=EDGE_CURVE('',#310,#303,#308,.T.) ;
#321=EDGE_CURVE('',#310,#320,#312,.T.) ;
#326=EDGE_CURVE('',#207,#320,#325,.T.) ;
#351=EDGE_CURVE('',#350,#303,#342,.T.) ;
#361=EDGE_CURVE('',#350,#360,#352,.T.) ;
#369=EDGE_CURVE('',#360,#368,#362,.T.) ;
#379=EDGE_CURVE('',#378,#368,#370,.T.) ;
#387=EDGE_CURVE('',#378,#310,#380,.T.) ;
#409=EDGE_CURVE('',#408,#293,#406,.T.) ;
#416=EDGE_CURVE('',#415,#165,#413,.T.) ;
#421=EDGE_CURVE('',#408,#415,#420,.T.) ;
#446=EDGE_CURVE('',#445,#263,#443,.T.) ;
#451=EDGE_CURVE('',#445,#415,#450,.F.) ;
#472=EDGE_CURVE('',#471,#350,#469,.T.) ;
#477=EDGE_CURVE('',#408,#471,#476,.F.) ;
#498=EDGE_CURVE('',#497,#256,#495,.T.) ;
#503=EDGE_CURVE('',#445,#497,#502,.T.) ;
#523=EDGE_CURVE('',#471,#522,#520,.T.) ;
#528=EDGE_CURVE('',#522,#360,#527,.T.) ;
#548=EDGE_CURVE('',#547,#249,#545,.T.) ;
#553=EDGE_CURVE('',#497,#547,#552,.T.) ;
#573=EDGE_CURVE('',#572,#368,#570,.T.) ;
#578=EDGE_CURVE('',#572,#522,#577,.T.) ;
#598=EDGE_CURVE('',#597,#242,#595,.T.) ;
#603=EDGE_CURVE('',#547,#597,#602,.T.) ;
#623=EDGE_CURVE('',#572,#622,#620,.T.) ;
#628=EDGE_CURVE('',#622,#378,#627,.T.) ;
#648=EDGE_CURVE('',#597,#647,#645,.F.) ;
#653=EDGE_CURVE('',#647,#177,#652,.T.) ;
#674=EDGE_CURVE('',#673,#622,#671,.F.) ;
#679=EDGE_CURVE('',#673,#320,#678,.T.) ;
#698=EDGE_CURVE('',#647,#673,#697,.T.) ;
#64=EDGE_LOOP('',(#65,#66,#67,#68)) ;
#103=EDGE_LOOP('',(#104,#105,#106,#107)) ;
#135=EDGE_LOOP('',(#136,#137,#138,#139)) ;
#187=EDGE_LOOP('',(#188,#189,#190,#191,#192,#193)) ;
#221=EDGE_LOOP('',(#222,#223,#224,#225)) ;
#273=EDGE_LOOP('',(#274,#275,#276,#277,#278,#279)) ;
#327=EDGE_LOOP('',(#328,#329,#330,#331,#332,#333)) ;
#388=EDGE_LOOP('',(#389,#390,#391,#392,#393,#394)) ;
#422=EDGE_LOOP('',(#423,#424,#425,#426,#427,#428,#429,#430,#431)) ;
#452=EDGE_LOOP('',(#453,#454,#455,#456,#457)) ;
#478=EDGE_LOOP('',(#479,#480,#481,#482,#483)) ;
#504=EDGE_LOOP('',(#505,#506,#507,#508)) ;
#529=EDGE_LOOP('',(#530,#531,#532,#533)) ;
#554=EDGE_LOOP('',(#555,#556,#557,#558)) ;
#579=EDGE_LOOP('',(#580,#581,#582,#583)) ;
#604=EDGE_LOOP('',(#605,#606,#607,#608)) ;
#629=EDGE_LOOP('',(#630,#631,#632,#633)) ;
#654=EDGE_LOOP('',(#655,#656,#657,#658,#659)) ;
#680=EDGE_LOOP('',(#681,#682,#683,#684,#685)) ;
#699=EDGE_LOOP('',(#700,#701,#702,#703,#704,#705,#706,#707,#708)) ;
#717=EDGE_LOOP('',(#718,#719,#720,#721,#722,#723,#724,#725,#726,#727,#728,#729)) ;
#69=FACE_OUTER_BOUND('',#64,.T.) ;
#108=FACE_OUTER_BOUND('',#103,.T.) ;
#140=FACE_OUTER_BOUND('',#135,.T.) ;
#194=FACE_OUTER_BOUND('',#187,.T.) ;
#226=FACE_OUTER_BOUND('',#221,.T.) ;
#280=FACE_OUTER_BOUND('',#273,.T.) ;
#334=FACE_OUTER_BOUND('',#327,.T.) ;
#395=FACE_OUTER_BOUND('',#388,.T.) ;
#432=FACE_OUTER_BOUND('',#422,.T.) ;
#458=FACE_OUTER_BOUND('',#452,.T.) ;
#484=FACE_OUTER_BOUND('',#478,.T.) ;
#509=FACE_OUTER_BOUND('',#504,.T.) ;
#534=FACE_OUTER_BOUND('',#529,.T.) ;
#559=FACE_OUTER_BOUND('',#554,.T.) ;
#584=FACE_OUTER_BOUND('',#579,.T.) ;
#609=FACE_OUTER_BOUND('',#604,.T.) ;
#634=FACE_OUTER_BOUND('',#629,.T.) ;
#660=FACE_OUTER_BOUND('',#654,.T.) ;
#686=FACE_OUTER_BOUND('',#680,.T.) ;
#709=FACE_OUTER_BOUND('',#699,.T.) ;
#730=FACE_OUTER_BOUND('',#717,.T.) ;
#48=LINE('Line',#45,#47) ;
#62=LINE('Line',#59,#61) ;
#87=LINE('Line',#84,#86) ;
#94=LINE('Line',#91,#93) ;
#101=LINE('Line',#98,#100) ;
#119=LINE('Line',#116,#118) ;
#126=LINE('Line',#123,#125) ;
#133=LINE('Line',#130,#132) ;
#151=LINE('Line',#148,#150) ;
#219=LINE('Line',#216,#218) ;
#247=LINE('Line',#244,#246) ;
#254=LINE('Line',#251,#253) ;
#261=LINE('Line',#258,#260) ;
#291=LINE('Line',#288,#290) ;
#308=LINE('Line',#305,#307) ;
#325=LINE('Line',#322,#324) ;
#406=LINE('Line',#403,#405) ;
#413=LINE('Line',#410,#412) ;
#420=LINE('Line',#417,#419) ;
#443=LINE('Line',#440,#442) ;
#469=LINE('Line',#466,#468) ;
#495=LINE('Line',#492,#494) ;
#502=LINE('Line',#499,#501) ;
#520=LINE('Line',#517,#519) ;
#527=LINE('Line',#524,#526) ;
#545=LINE('Line',#542,#544) ;
#552=LINE('Line',#549,#551) ;
#570=LINE('Line',#567,#569) ;
#577=LINE('Line',#574,#576) ;
#595=LINE('Line',#592,#594) ;
#602=LINE('Line',#599,#601) ;
#620=LINE('Line',#617,#619) ;
#627=LINE('Line',#624,#626) ;
#652=LINE('Line',#649,#651) ;
#678=LINE('Line',#675,#677) ;
#697=LINE('Line',#694,#696) ;
#83=PLANE('',#82) ;
#115=PLANE('',#114) ;
#233=PLANE('',#232) ;
#287=PLANE('',#286) ;
#402=PLANE('',#401) ;
#491=PLANE('',#490) ;
#516=PLANE('',#515) ;
#541=PLANE('',#540) ;
#566=PLANE('',#565) ;
#591=PLANE('',#590) ;
#616=PLANE('',#615) ;
#693=PLANE('',#692) ;
#716=PLANE('',#715) ;
#9=PRODUCT_CATEGORY_RELATIONSHIP(' ',' ',#7,#8) ;
#6=PRODUCT_DEFINITION_FORMATION_WITH_SPECIFIED_SOURCE('--A',' ',#5,.NOT_KNOWN.) ;
#20=SHAPE_DEFINITION_REPRESENTATION(#11,#19) ;
#41=VERTEX_POINT('',#40) ;
#43=VERTEX_POINT('',#42) ;
#50=VERTEX_POINT('',#49) ;
#57=VERTEX_POINT('',#56) ;
#89=VERTEX_POINT('',#88) ;
#96=VERTEX_POINT('',#95) ;
#121=VERTEX_POINT('',#120) ;
#128=VERTEX_POINT('',#127) ;
#153=VERTEX_POINT('',#152) ;
#155=VERTEX_POINT('',#154) ;
#165=VERTEX_POINT('',#164) ;
#177=VERTEX_POINT('',#176) ;
#207=VERTEX_POINT('',#206) ;
#214=VERTEX_POINT('',#213) ;
#242=VERTEX_POINT('',#241) ;
#249=VERTEX_POINT('',#248) ;
#256=VERTEX_POINT('',#255) ;
#263=VERTEX_POINT('',#262) ;
#293=VERTEX_POINT('',#292) ;
#303=VERTEX_POINT('',#302) ;
#310=VERTEX_POINT('',#309) ;
#320=VERTEX_POINT('',#319) ;
#350=VERTEX_POINT('',#349) ;
#360=VERTEX_POINT('',#359) ;
#368=VERTEX_POINT('',#367) ;
#378=VERTEX_POINT('',#377) ;
#408=VERTEX_POINT('',#407) ;
#415=VERTEX_POINT('',#414) ;
#445=VERTEX_POINT('',#444) ;
#471=VERTEX_POINT('',#470) ;
#497=VERTEX_POINT('',#496) ;
#522=VERTEX_POINT('',#521) ;
#547=VERTEX_POINT('',#546) ;
#572=VERTEX_POINT('',#571) ;
#597=VERTEX_POINT('',#596) ;
#622=VERTEX_POINT('',#621) ;
#647=VERTEX_POINT('',#646) ;
#673=VERTEX_POINT('',#672) ;
#12=(LENGTH_UNIT()NAMED_UNIT(*)SI_UNIT(.MILLI.,.METRE.)) ;
#13=(NAMED_UNIT(*)PLANE_ANGLE_UNIT()SI_UNIT($,.RADIAN.)) ;
#14=(NAMED_UNIT(*)SI_UNIT($,.STERADIAN.)SOLID_ANGLE_UNIT()) ;
#16=(GEOMETRIC_REPRESENTATION_CONTEXT(3)GLOBAL_UNCERTAINTY_ASSIGNED_CONTEXT((#15))GLOBAL_UNIT_ASSIGNED_CONTEXT((#12,#13,#14))REPRESENTATION_CONTEXT(' ',' ')) ;
ENDSEC;
END-ISO-10303-21;
