ISO-10303-21;
HEADER;
FILE_DESCRIPTION(('CATIA V5 STEP Exchange','CAx-IF Rec.Pracs.--- Model Styling and Organization---1.4--- 2014-01-23','CAx-IF Rec.Pracs.---Representation and Presentation of Product Manufacturing Information (PMI)---4.0---2014-10-13','CAx-IF Rec.Pracs.---3D Tessellated Data Validation Properties---0.5---2014-09-14'),'2;1');

FILE_NAME('V:\\catia\\priv\\e_dmacia\\Laura\\step au 14-12-2023\\M3D-179795_--A_CATPART_1.stp','2023-12-14T15:23:32+00:00',('none'),('none'),'CATIA Version 5-6 Release 2016 SP5 HF64','CATIA V5 STEP AP242','none');

FILE_SCHEMA(('AP242_MANAGED_MODEL_BASED_3D_ENGINEERING_MIM_LF  {1 0 10303 442 1 1 4}'));

ENDSEC;
DATA;
#5=PRODUCT('M3D-179795','','BRACE',(#2)) ;
#2=PRODUCT_CONTEXT(' ',#1,'mechanical') ;
#1=APPLICATION_CONTEXT('managed model based 3d engineering') ;
#10=PRODUCT_DEFINITION('METHOD',' ',#6,#3) ;
#3=PRODUCT_DEFINITION_CONTEXT('part definition',#1,' ') ;
#11=PRODUCT_DEFINITION_SHAPE(' ',' ',#10) ;
#211=MECHANICAL_DESIGN_GEOMETRIC_PRESENTATION_REPRESENTATION(' ',(#29),#16) ;
#212=MECHANICAL_DESIGN_GEOMETRIC_PRESENTATION_REPRESENTATION(' ',(#208),#16) ;
#19=SHAPE_REPRESENTATION(' ',(#18),#16) ;
#7=PRODUCT_CATEGORY('part','specification') ;
#17=CARTESIAN_POINT(' ',(0.,0.,0.)) ;
#31=CARTESIAN_POINT('Axis2P3D Location',(259.006179513,0.,0.)) ;
#36=CARTESIAN_POINT('Line Origine',(261.003089756,-3.03533868594,1.65821308165)) ;
#40=CARTESIAN_POINT('Vertex',(259.006179513,0.,0.)) ;
#42=CARTESIAN_POINT('Vertex',(263.,-6.07067737188,3.31642616329)) ;
#45=CARTESIAN_POINT('Axis2P3D Location',(263.,0.,0.)) ;
#49=CARTESIAN_POINT('Vertex',(263.,6.07067737188,-3.31642616329)) ;
#52=CARTESIAN_POINT('Line Origine',(261.003089756,3.03533868594,-1.65821308165)) ;
#63=CARTESIAN_POINT('Axis2P3D Location',(295.,0.,0.)) ;
#68=CARTESIAN_POINT('Axis2P3D Location',(295.,0.,0.)) ;
#72=CARTESIAN_POINT('Vertex',(295.,15.,0.)) ;
#74=CARTESIAN_POINT('Vertex',(295.,-15.,8.49830834647E-015)) ;
#77=CARTESIAN_POINT('Axis2P3D Location',(295.,0.,0.)) ;
#86=CARTESIAN_POINT('Axis2P3D Location',(295.,0.,-8.881784197E-016)) ;
#90=CARTESIAN_POINT('Vertex',(295.,-6.07067737188,3.31642616329)) ;
#92=CARTESIAN_POINT('Vertex',(295.,6.07067737188,-3.31642616329)) ;
#95=CARTESIAN_POINT('Axis2P3D Location',(295.,-2.22044604925E-016,0.)) ;
#105=CARTESIAN_POINT('Axis2P3D Location',(147.5,0.,0.)) ;
#110=CARTESIAN_POINT('Line Origine',(147.5,15.,0.)) ;
#114=CARTESIAN_POINT('Vertex',(0.,15.,0.)) ;
#117=CARTESIAN_POINT('Axis2P3D Location',(0.,0.,0.)) ;
#121=CARTESIAN_POINT('Vertex',(0.,-15.,8.49830834647E-015)) ;
#124=CARTESIAN_POINT('Line Origine',(147.5,-15.,8.49830834647E-015)) ;
#136=CARTESIAN_POINT('Axis2P3D Location',(0.,0.,0.)) ;
#148=CARTESIAN_POINT('Axis2P3D Location',(0.,0.,0.)) ;
#158=CARTESIAN_POINT('Axis2P3D Location',(294.9,0.,0.)) ;
#163=CARTESIAN_POINT('Line Origine',(279.155000001,-6.07067737188,3.31642616329)) ;
#168=CARTESIAN_POINT('Axis2P3D Location',(263.,0.,0.)) ;
#173=CARTESIAN_POINT('Line Origine',(279.155000001,6.07067737188,-3.31642616329)) ;
#200=CARTESIAN_POINT('Axis2P3D Location',(0.,0.,0.)) ;
#8=PRODUCT_RELATED_PRODUCT_CATEGORY('part',$,(#5)) ;
#29=STYLED_ITEM(' ',(#28),#21) ;
#208=STYLED_ITEM(' ',(#207),#203) ;
#28=PRESENTATION_STYLE_ASSIGNMENT((#27)) ;
#207=PRESENTATION_STYLE_ASSIGNMENT((#206)) ;
#206=CURVE_STYLE(' ',#204,POSITIVE_LENGTH_MEASURE(0.180000007153),#205) ;
#27=SURFACE_STYLE_USAGE(.BOTH.,#26) ;
#26=SURFACE_SIDE_STYLE(' ',(#25)) ;
#25=SURFACE_STYLE_FILL_AREA(#24) ;
#24=FILL_AREA_STYLE(' ',(#23)) ;
#23=FILL_AREA_STYLE_COLOUR(' ',#22) ;
#38=VECTOR('Line Direction',#37,1.) ;
#54=VECTOR('Line Direction',#53,1.) ;
#112=VECTOR('Line Direction',#111,1.) ;
#126=VECTOR('Line Direction',#125,1.) ;
#165=VECTOR('Line Direction',#164,1.) ;
#175=VECTOR('Line Direction',#174,1.) ;
#32=DIRECTION('Axis2P3D Direction',(1.,0.,0.)) ;
#33=DIRECTION('Axis2P3D XDirection',(0.,0.87758256189,-0.479425538604)) ;
#37=DIRECTION('Vector Direction',(0.5,-0.760008792515,0.415194695654)) ;
#46=DIRECTION('Axis2P3D Direction',(1.,0.,0.)) ;
#53=DIRECTION('Vector Direction',(0.5,0.760008792515,-0.415194695654)) ;
#64=DIRECTION('Axis2P3D Direction',(1.,0.,0.)) ;
#65=DIRECTION('Axis2P3D XDirection',(0.,1.,0.)) ;
#69=DIRECTION('Axis2P3D Direction',(1.,0.,0.)) ;
#78=DIRECTION('Axis2P3D Direction',(1.,0.,0.)) ;
#87=DIRECTION('Axis2P3D Direction',(1.,0.,0.)) ;
#96=DIRECTION('Axis2P3D Direction',(1.,0.,0.)) ;
#106=DIRECTION('Axis2P3D Direction',(1.,0.,0.)) ;
#107=DIRECTION('Axis2P3D XDirection',(0.,1.,0.)) ;
#111=DIRECTION('Vector Direction',(1.,0.,0.)) ;
#118=DIRECTION('Axis2P3D Direction',(1.,0.,0.)) ;
#125=DIRECTION('Vector Direction',(1.,0.,0.)) ;
#137=DIRECTION('Axis2P3D Direction',(1.,0.,0.)) ;
#149=DIRECTION('Axis2P3D Direction',(1.,0.,0.)) ;
#150=DIRECTION('Axis2P3D XDirection',(0.,1.,0.)) ;
#159=DIRECTION('Axis2P3D Direction',(-1.,0.,-0.)) ;
#160=DIRECTION('Axis2P3D XDirection',(0.,0.87758256189,-0.479425538604)) ;
#164=DIRECTION('Vector Direction',(-1.,0.,0.)) ;
#169=DIRECTION('Axis2P3D Direction',(-1.,0.,-0.)) ;
#174=DIRECTION('Vector Direction',(-1.,0.,0.)) ;
#201=DIRECTION('Axis2P3D Direction',(0.,0.,1.)) ;
#202=DIRECTION('Axis2P3D XDirection',(1.,0.,0.)) ;
#15=UNCERTAINTY_MEASURE_WITH_UNIT(LENGTH_MEASURE(0.005),#12,'distance_accuracy_value','CONFUSED CURVE UNCERTAINTY') ;
#18=AXIS2_PLACEMENT_3D(' ',#17,$,$) ;
#34=AXIS2_PLACEMENT_3D('Cone Axis2P3D',#31,#32,#33) ;
#47=AXIS2_PLACEMENT_3D('Circle Axis2P3D',#45,#46,$) ;
#66=AXIS2_PLACEMENT_3D('Plane Axis2P3D',#63,#64,#65) ;
#70=AXIS2_PLACEMENT_3D('Circle Axis2P3D',#68,#69,$) ;
#79=AXIS2_PLACEMENT_3D('Circle Axis2P3D',#77,#78,$) ;
#88=AXIS2_PLACEMENT_3D('Circle Axis2P3D',#86,#87,$) ;
#97=AXIS2_PLACEMENT_3D('Circle Axis2P3D',#95,#96,$) ;
#108=AXIS2_PLACEMENT_3D('Cylinder Axis2P3D',#105,#106,#107) ;
#119=AXIS2_PLACEMENT_3D('Circle Axis2P3D',#117,#118,$) ;
#138=AXIS2_PLACEMENT_3D('Circle Axis2P3D',#136,#137,$) ;
#151=AXIS2_PLACEMENT_3D('Plane Axis2P3D',#148,#149,#150) ;
#161=AXIS2_PLACEMENT_3D('Cylinder Axis2P3D',#158,#159,#160) ;
#170=AXIS2_PLACEMENT_3D('Circle Axis2P3D',#168,#169,$) ;
#203=AXIS2_PLACEMENT_3D('Absolute Axis System',#200,#201,#202) ;
#39=LINE('Line',#36,#38) ;
#55=LINE('Line',#52,#54) ;
#113=LINE('Line',#110,#112) ;
#127=LINE('Line',#124,#126) ;
#166=LINE('Line',#163,#165) ;
#176=LINE('Line',#173,#175) ;
#48=CIRCLE('generated circle',#47,6.9175) ;
#71=CIRCLE('generated circle',#70,15.) ;
#80=CIRCLE('generated circle',#79,15.) ;
#89=CIRCLE('generated circle',#88,6.9175) ;
#98=CIRCLE('generated circle',#97,6.9175) ;
#120=CIRCLE('generated circle',#119,15.) ;
#139=CIRCLE('generated circle',#138,15.) ;
#171=CIRCLE('generated circle',#170,6.9175) ;
#67=PLANE('',#66) ;
#152=PLANE('',#151) ;
#109=CYLINDRICAL_SURFACE('generated cylinder',#108,15.) ;
#162=CYLINDRICAL_SURFACE('generated cylinder',#161,6.9175) ;
#35=CONICAL_SURFACE('Cone',#34,0.,1.0471975512) ;
#103=FACE_BOUND('',#100,.T.) ;
#44=EDGE_CURVE('',#41,#43,#39,.T.) ;
#51=EDGE_CURVE('',#50,#43,#48,.F.) ;
#56=EDGE_CURVE('',#41,#50,#55,.T.) ;
#76=EDGE_CURVE('',#73,#75,#71,.T.) ;
#81=EDGE_CURVE('',#75,#73,#80,.T.) ;
#94=EDGE_CURVE('',#91,#93,#89,.T.) ;
#99=EDGE_CURVE('',#93,#91,#98,.T.) ;
#116=EDGE_CURVE('',#115,#73,#113,.T.) ;
#123=EDGE_CURVE('',#115,#122,#120,.T.) ;
#128=EDGE_CURVE('',#122,#75,#127,.T.) ;
#140=EDGE_CURVE('',#122,#115,#139,.T.) ;
#167=EDGE_CURVE('',#43,#91,#166,.F.) ;
#172=EDGE_CURVE('',#43,#50,#171,.T.) ;
#177=EDGE_CURVE('',#50,#93,#176,.F.) ;
#30=CLOSED_SHELL('Closed Shell',(#62,#104,#135,#147,#157,#184,#191,#197)) ;
#209=CONSTRUCTIVE_GEOMETRY_REPRESENTATION('supplemental geometry',(#203),#16) ;
#199=SHAPE_REPRESENTATION_RELATIONSHIP(' ',' ',#19,#198) ;
#57=EDGE_LOOP('',(#58,#59,#60)) ;
#82=EDGE_LOOP('',(#83,#84)) ;
#100=EDGE_LOOP('',(#101,#102)) ;
#129=EDGE_LOOP('',(#130,#131,#132,#133)) ;
#141=EDGE_LOOP('',(#142,#143,#144,#145)) ;
#153=EDGE_LOOP('',(#154,#155)) ;
#178=EDGE_LOOP('',(#179,#180,#181,#182)) ;
#185=EDGE_LOOP('',(#186,#187,#188,#189)) ;
#192=EDGE_LOOP('',(#193,#194,#195)) ;
#58=ORIENTED_EDGE('',*,*,#44,.T.) ;
#59=ORIENTED_EDGE('',*,*,#51,.F.) ;
#60=ORIENTED_EDGE('',*,*,#56,.F.) ;
#83=ORIENTED_EDGE('',*,*,#76,.T.) ;
#84=ORIENTED_EDGE('',*,*,#81,.T.) ;
#101=ORIENTED_EDGE('',*,*,#94,.F.) ;
#102=ORIENTED_EDGE('',*,*,#99,.F.) ;
#130=ORIENTED_EDGE('',*,*,#116,.F.) ;
#131=ORIENTED_EDGE('',*,*,#123,.T.) ;
#132=ORIENTED_EDGE('',*,*,#128,.T.) ;
#133=ORIENTED_EDGE('',*,*,#76,.F.) ;
#142=ORIENTED_EDGE('',*,*,#128,.F.) ;
#143=ORIENTED_EDGE('',*,*,#140,.T.) ;
#144=ORIENTED_EDGE('',*,*,#116,.T.) ;
#145=ORIENTED_EDGE('',*,*,#81,.F.) ;
#154=ORIENTED_EDGE('',*,*,#140,.F.) ;
#155=ORIENTED_EDGE('',*,*,#123,.F.) ;
#179=ORIENTED_EDGE('',*,*,#99,.T.) ;
#180=ORIENTED_EDGE('',*,*,#167,.F.) ;
#181=ORIENTED_EDGE('',*,*,#172,.T.) ;
#182=ORIENTED_EDGE('',*,*,#177,.T.) ;
#186=ORIENTED_EDGE('',*,*,#94,.T.) ;
#187=ORIENTED_EDGE('',*,*,#177,.F.) ;
#188=ORIENTED_EDGE('',*,*,#51,.T.) ;
#189=ORIENTED_EDGE('',*,*,#167,.T.) ;
#193=ORIENTED_EDGE('',*,*,#56,.T.) ;
#194=ORIENTED_EDGE('',*,*,#172,.F.) ;
#195=ORIENTED_EDGE('',*,*,#44,.F.) ;
#21=MANIFOLD_SOLID_BREP('PartBody',#30) ;
#41=VERTEX_POINT('',#40) ;
#43=VERTEX_POINT('',#42) ;
#50=VERTEX_POINT('',#49) ;
#73=VERTEX_POINT('',#72) ;
#75=VERTEX_POINT('',#74) ;
#91=VERTEX_POINT('',#90) ;
#93=VERTEX_POINT('',#92) ;
#115=VERTEX_POINT('',#114) ;
#122=VERTEX_POINT('',#121) ;
#198=ADVANCED_BREP_SHAPE_REPRESENTATION('NONE',(#21),#16) ;
#62=ADVANCED_FACE('PartBody',(#61),#35,.F.) ;
#104=ADVANCED_FACE('PartBody',(#85,#103),#67,.T.) ;
#135=ADVANCED_FACE('PartBody',(#134),#109,.T.) ;
#147=ADVANCED_FACE('PartBody',(#146),#109,.T.) ;
#157=ADVANCED_FACE('PartBody',(#156),#152,.F.) ;
#184=ADVANCED_FACE('PartBody',(#183),#162,.F.) ;
#191=ADVANCED_FACE('PartBody',(#190),#162,.F.) ;
#197=ADVANCED_FACE('PartBody',(#196),#35,.F.) ;
#4=APPLICATION_PROTOCOL_DEFINITION('international standard','ap242_managed_model_based_3d_engineering',2014,#1) ;
#22=COLOUR_RGB('Colour',0.823529411765,0.823529411765,1.) ;
#210=CONSTRUCTIVE_GEOMETRY_REPRESENTATION_RELATIONSHIP('supplemental geometry','',#19,#209) ;
#205=DRAUGHTING_PRE_DEFINED_COLOUR('white') ;
#204=DRAUGHTING_PRE_DEFINED_CURVE_FONT('continuous') ;
#61=FACE_OUTER_BOUND('',#57,.T.) ;
#85=FACE_OUTER_BOUND('',#82,.T.) ;
#134=FACE_OUTER_BOUND('',#129,.T.) ;
#146=FACE_OUTER_BOUND('',#141,.T.) ;
#156=FACE_OUTER_BOUND('',#153,.T.) ;
#183=FACE_OUTER_BOUND('',#178,.T.) ;
#190=FACE_OUTER_BOUND('',#185,.T.) ;
#196=FACE_OUTER_BOUND('',#192,.T.) ;
#9=PRODUCT_CATEGORY_RELATIONSHIP(' ',' ',#7,#8) ;
#6=PRODUCT_DEFINITION_FORMATION_WITH_SPECIFIED_SOURCE('--A',' ',#5,.NOT_KNOWN.) ;
#20=SHAPE_DEFINITION_REPRESENTATION(#11,#19) ;
#12=(LENGTH_UNIT()NAMED_UNIT(*)SI_UNIT(.MILLI.,.METRE.)) ;
#13=(NAMED_UNIT(*)PLANE_ANGLE_UNIT()SI_UNIT($,.RADIAN.)) ;
#14=(NAMED_UNIT(*)SI_UNIT($,.STERADIAN.)SOLID_ANGLE_UNIT()) ;
#16=(GEOMETRIC_REPRESENTATION_CONTEXT(3)GLOBAL_UNCERTAINTY_ASSIGNED_CONTEXT((#15))GLOBAL_UNIT_ASSIGNED_CONTEXT((#12,#13,#14))REPRESENTATION_CONTEXT(' ',' ')) ;
ENDSEC;
END-ISO-10303-21;
