ISO-10303-21;
HEADER;
FILE_DESCRIPTION(('CATIA V5 STEP Exchange','CAx-IF Rec.Pracs.--- Model Styling and Organization---1.4--- 2014-01-23','CAx-IF Rec.Pracs.---Representation and Presentation of Product Manufacturing Information (PMI)---4.0---2014-10-13','CAx-IF Rec.Pracs.---3D Tessellated Data Validation Properties---0.5---2014-09-14'),'2;1');

FILE_NAME('C:\\Users\\518713\\Desktop\\STEP THOMAS\\M3D-210525_--A_CATPART_1.stp','2024-01-25T09:49:23+00:00',('none'),('none'),'CATIA Version 5-6 Release 2016 SP5 HF64','CATIA V5 STEP AP242','none');

FILE_SCHEMA(('AP242_MANAGED_MODEL_BASED_3D_ENGINEERING_MIM_LF  {1 0 10303 442 1 1 4}'));

ENDSEC;
DATA;
#5=PRODUCT('M3D-210525','','JOINT',(#2)) ;
#2=PRODUCT_CONTEXT(' ',#1,'mechanical') ;
#1=APPLICATION_CONTEXT('managed model based 3d engineering') ;
#10=PRODUCT_DEFINITION('MASTER',' ',#6,#3) ;
#3=PRODUCT_DEFINITION_CONTEXT('part definition',#1,' ') ;
#11=PRODUCT_DEFINITION_SHAPE(' ',' ',#10) ;
#565=MECHANICAL_DESIGN_GEOMETRIC_PRESENTATION_REPRESENTATION(' ',(#29),#16) ;
#19=SHAPE_REPRESENTATION(' ',(#18),#16) ;
#7=PRODUCT_CATEGORY('part','specification') ;
#17=CARTESIAN_POINT(' ',(0.,0.,0.)) ;
#31=CARTESIAN_POINT('Axis2P3D Location',(2.,0.,0.)) ;
#36=CARTESIAN_POINT('Axis2P3D Location',(2.,0.,0.)) ;
#40=CARTESIAN_POINT('Vertex',(2.,63.5,0.)) ;
#42=CARTESIAN_POINT('Vertex',(2.,-63.5,7.77650717459E-015)) ;
#45=CARTESIAN_POINT('Axis2P3D Location',(2.,0.,0.)) ;
#54=CARTESIAN_POINT('Axis2P3D Location',(2.,-50.2294734195,29.)) ;
#58=CARTESIAN_POINT('Vertex',(2.,-47.2405225014,30.8210360812)) ;
#60=CARTESIAN_POINT('Vertex',(2.,-53.2184243376,27.1789639188)) ;
#63=CARTESIAN_POINT('Axis2P3D Location',(2.,-50.2294734195,29.)) ;
#72=CARTESIAN_POINT('Axis2P3D Location',(2.,-2.10942374679E-015,58.)) ;
#76=CARTESIAN_POINT('Vertex',(2.,-3.07153896662,59.6779893851)) ;
#78=CARTESIAN_POINT('Vertex',(2.,3.07153896662,56.3220106149)) ;
#81=CARTESIAN_POINT('Axis2P3D Location',(2.,-6.2172489379E-015,58.)) ;
#90=CARTESIAN_POINT('Axis2P3D Location',(2.,0.,0.)) ;
#94=CARTESIAN_POINT('Vertex',(2.,-50.,6.12323399574E-015)) ;
#96=CARTESIAN_POINT('Vertex',(2.,50.,0.)) ;
#99=CARTESIAN_POINT('Axis2P3D Location',(2.,0.,0.)) ;
#108=CARTESIAN_POINT('Axis2P3D Location',(2.,2.48714716741E-014,-58.)) ;
#112=CARTESIAN_POINT('Vertex',(2.,-3.07153896662,-56.3220106149)) ;
#114=CARTESIAN_POINT('Vertex',(2.,3.07153896662,-59.6779893851)) ;
#117=CARTESIAN_POINT('Axis2P3D Location',(2.,2.0763646483E-014,-58.)) ;
#126=CARTESIAN_POINT('Axis2P3D Location',(2.,50.2294734195,-29.)) ;
#130=CARTESIAN_POINT('Vertex',(2.,47.2405225014,-30.8210360812)) ;
#132=CARTESIAN_POINT('Vertex',(2.,53.2184243376,-27.1789639188)) ;
#135=CARTESIAN_POINT('Axis2P3D Location',(2.,50.2294734195,-29.)) ;
#144=CARTESIAN_POINT('Axis2P3D Location',(2.,-50.2294734195,-29.)) ;
#148=CARTESIAN_POINT('Vertex',(2.,-50.312061468,-25.5009745336)) ;
#150=CARTESIAN_POINT('Vertex',(2.,-50.146885371,-32.4990254664)) ;
#153=CARTESIAN_POINT('Axis2P3D Location',(2.,-50.2294734195,-29.)) ;
#162=CARTESIAN_POINT('Axis2P3D Location',(2.,50.2294734195,29.)) ;
#166=CARTESIAN_POINT('Vertex',(2.,50.312061468,25.5009745336)) ;
#168=CARTESIAN_POINT('Vertex',(2.,50.146885371,32.4990254664)) ;
#171=CARTESIAN_POINT('Axis2P3D Location',(2.,50.2294734195,29.)) ;
#181=CARTESIAN_POINT('Axis2P3D Location',(0.,0.,0.)) ;
#186=CARTESIAN_POINT('Axis2P3D Location',(0.,0.,0.)) ;
#190=CARTESIAN_POINT('Vertex',(0.,-63.5,7.77650717459E-015)) ;
#192=CARTESIAN_POINT('Vertex',(0.,63.5,0.)) ;
#195=CARTESIAN_POINT('Axis2P3D Location',(0.,0.,0.)) ;
#204=CARTESIAN_POINT('Axis2P3D Location',(0.,-50.2294734195,29.)) ;
#208=CARTESIAN_POINT('Vertex',(0.,-53.2184243376,27.1789639188)) ;
#210=CARTESIAN_POINT('Vertex',(0.,-47.2405225014,30.8210360812)) ;
#213=CARTESIAN_POINT('Axis2P3D Location',(0.,-50.2294734195,29.)) ;
#222=CARTESIAN_POINT('Axis2P3D Location',(0.,-6.2172489379E-015,58.)) ;
#226=CARTESIAN_POINT('Vertex',(0.,3.07153896662,56.3220106149)) ;
#228=CARTESIAN_POINT('Vertex',(0.,-3.07153896662,59.6779893851)) ;
#231=CARTESIAN_POINT('Axis2P3D Location',(0.,-2.10942374679E-015,58.)) ;
#240=CARTESIAN_POINT('Axis2P3D Location',(0.,0.,0.)) ;
#244=CARTESIAN_POINT('Vertex',(0.,50.,0.)) ;
#246=CARTESIAN_POINT('Vertex',(0.,-50.,6.12323399574E-015)) ;
#249=CARTESIAN_POINT('Axis2P3D Location',(0.,0.,0.)) ;
#258=CARTESIAN_POINT('Axis2P3D Location',(0.,2.0763646483E-014,-58.)) ;
#262=CARTESIAN_POINT('Vertex',(0.,3.07153896662,-59.6779893851)) ;
#264=CARTESIAN_POINT('Vertex',(0.,-3.07153896662,-56.3220106149)) ;
#267=CARTESIAN_POINT('Axis2P3D Location',(0.,2.48714716741E-014,-58.)) ;
#276=CARTESIAN_POINT('Axis2P3D Location',(0.,50.2294734195,-29.)) ;
#280=CARTESIAN_POINT('Vertex',(0.,53.2184243376,-27.1789639188)) ;
#282=CARTESIAN_POINT('Vertex',(0.,47.2405225014,-30.8210360812)) ;
#285=CARTESIAN_POINT('Axis2P3D Location',(0.,50.2294734195,-29.)) ;
#294=CARTESIAN_POINT('Axis2P3D Location',(0.,-50.2294734195,-29.)) ;
#298=CARTESIAN_POINT('Vertex',(0.,-50.146885371,-32.4990254664)) ;
#300=CARTESIAN_POINT('Vertex',(0.,-50.312061468,-25.5009745336)) ;
#303=CARTESIAN_POINT('Axis2P3D Location',(0.,-50.2294734195,-29.)) ;
#312=CARTESIAN_POINT('Axis2P3D Location',(0.,50.2294734195,29.)) ;
#316=CARTESIAN_POINT('Vertex',(0.,50.146885371,32.4990254664)) ;
#318=CARTESIAN_POINT('Vertex',(0.,50.312061468,25.5009745336)) ;
#321=CARTESIAN_POINT('Axis2P3D Location',(0.,50.2294734195,29.)) ;
#331=CARTESIAN_POINT('Axis2P3D Location',(1.9,2.21826553686E-014,-58.)) ;
#336=CARTESIAN_POINT('Line Origine',(-2.84499999999,-3.07153896662,-56.3220106149)) ;
#341=CARTESIAN_POINT('Line Origine',(-2.84499999999,3.07153896662,-59.6779893851)) ;
#360=CARTESIAN_POINT('Axis2P3D Location',(1.9,-3.52843263233E-015,58.)) ;
#365=CARTESIAN_POINT('Line Origine',(-2.84499999999,-3.07153896662,59.6779893851)) ;
#370=CARTESIAN_POINT('Line Origine',(-2.84499999999,3.07153896662,56.3220106149)) ;
#389=CARTESIAN_POINT('Axis2P3D Location',(1.,0.,0.)) ;
#394=CARTESIAN_POINT('Line Origine',(1.,63.5,0.)) ;
#399=CARTESIAN_POINT('Line Origine',(1.,-63.5,7.77650717459E-015)) ;
#418=CARTESIAN_POINT('Axis2P3D Location',(1.,0.,0.)) ;
#423=CARTESIAN_POINT('Line Origine',(1.,-50.,6.12323399574E-015)) ;
#428=CARTESIAN_POINT('Line Origine',(1.,50.,0.)) ;
#447=CARTESIAN_POINT('Axis2P3D Location',(1.9,50.2294734195,-29.)) ;
#452=CARTESIAN_POINT('Line Origine',(-2.84499999999,47.2405225014,-30.8210360812)) ;
#457=CARTESIAN_POINT('Line Origine',(-2.84499999999,53.2184243376,-27.1789639188)) ;
#476=CARTESIAN_POINT('Axis2P3D Location',(1.9,-50.2294734195,29.)) ;
#481=CARTESIAN_POINT('Line Origine',(-2.84499999999,-53.2184243376,27.1789639188)) ;
#486=CARTESIAN_POINT('Line Origine',(-2.84499999999,-47.2405225014,30.8210360812)) ;
#505=CARTESIAN_POINT('Axis2P3D Location',(1.9,-50.2294734195,-29.)) ;
#510=CARTESIAN_POINT('Line Origine',(-2.84499999999,-50.146885371,-32.4990254664)) ;
#515=CARTESIAN_POINT('Line Origine',(-2.84499999999,-50.312061468,-25.5009745336)) ;
#534=CARTESIAN_POINT('Axis2P3D Location',(1.9,50.2294734195,29.)) ;
#539=CARTESIAN_POINT('Line Origine',(-2.84499999999,50.146885371,32.4990254664)) ;
#544=CARTESIAN_POINT('Line Origine',(-2.84499999999,50.312061468,25.5009745336)) ;
#8=PRODUCT_RELATED_PRODUCT_CATEGORY('part',$,(#5)) ;
#29=STYLED_ITEM(' ',(#28),#21) ;
#28=PRESENTATION_STYLE_ASSIGNMENT((#27)) ;
#27=SURFACE_STYLE_USAGE(.BOTH.,#26) ;
#26=SURFACE_SIDE_STYLE(' ',(#25)) ;
#25=SURFACE_STYLE_FILL_AREA(#24) ;
#24=FILL_AREA_STYLE(' ',(#23)) ;
#23=FILL_AREA_STYLE_COLOUR(' ',#22) ;
#338=VECTOR('Line Direction',#337,1.) ;
#343=VECTOR('Line Direction',#342,1.) ;
#367=VECTOR('Line Direction',#366,1.) ;
#372=VECTOR('Line Direction',#371,1.) ;
#396=VECTOR('Line Direction',#395,1.) ;
#401=VECTOR('Line Direction',#400,1.) ;
#425=VECTOR('Line Direction',#424,1.) ;
#430=VECTOR('Line Direction',#429,1.) ;
#454=VECTOR('Line Direction',#453,1.) ;
#459=VECTOR('Line Direction',#458,1.) ;
#483=VECTOR('Line Direction',#482,1.) ;
#488=VECTOR('Line Direction',#487,1.) ;
#512=VECTOR('Line Direction',#511,1.) ;
#517=VECTOR('Line Direction',#516,1.) ;
#541=VECTOR('Line Direction',#540,1.) ;
#546=VECTOR('Line Direction',#545,1.) ;
#32=DIRECTION('Axis2P3D Direction',(1.,0.,0.)) ;
#33=DIRECTION('Axis2P3D XDirection',(0.,1.,0.)) ;
#37=DIRECTION('Axis2P3D Direction',(1.,0.,0.)) ;
#46=DIRECTION('Axis2P3D Direction',(1.,0.,0.)) ;
#55=DIRECTION('Axis2P3D Direction',(1.,0.,0.)) ;
#64=DIRECTION('Axis2P3D Direction',(1.,0.,0.)) ;
#73=DIRECTION('Axis2P3D Direction',(1.,0.,0.)) ;
#82=DIRECTION('Axis2P3D Direction',(1.,0.,0.)) ;
#91=DIRECTION('Axis2P3D Direction',(1.,0.,0.)) ;
#100=DIRECTION('Axis2P3D Direction',(1.,0.,0.)) ;
#109=DIRECTION('Axis2P3D Direction',(1.,0.,0.)) ;
#118=DIRECTION('Axis2P3D Direction',(1.,0.,0.)) ;
#127=DIRECTION('Axis2P3D Direction',(1.,0.,0.)) ;
#136=DIRECTION('Axis2P3D Direction',(1.,0.,0.)) ;
#145=DIRECTION('Axis2P3D Direction',(1.,0.,0.)) ;
#154=DIRECTION('Axis2P3D Direction',(1.,0.,0.)) ;
#163=DIRECTION('Axis2P3D Direction',(1.,0.,0.)) ;
#172=DIRECTION('Axis2P3D Direction',(1.,0.,0.)) ;
#182=DIRECTION('Axis2P3D Direction',(1.,0.,0.)) ;
#183=DIRECTION('Axis2P3D XDirection',(0.,1.,0.)) ;
#187=DIRECTION('Axis2P3D Direction',(1.,0.,0.)) ;
#196=DIRECTION('Axis2P3D Direction',(1.,0.,0.)) ;
#205=DIRECTION('Axis2P3D Direction',(1.,0.,0.)) ;
#214=DIRECTION('Axis2P3D Direction',(1.,0.,0.)) ;
#223=DIRECTION('Axis2P3D Direction',(1.,0.,0.)) ;
#232=DIRECTION('Axis2P3D Direction',(1.,0.,0.)) ;
#241=DIRECTION('Axis2P3D Direction',(1.,0.,0.)) ;
#250=DIRECTION('Axis2P3D Direction',(1.,0.,0.)) ;
#259=DIRECTION('Axis2P3D Direction',(1.,0.,0.)) ;
#268=DIRECTION('Axis2P3D Direction',(1.,0.,0.)) ;
#277=DIRECTION('Axis2P3D Direction',(1.,0.,0.)) ;
#286=DIRECTION('Axis2P3D Direction',(1.,0.,0.)) ;
#295=DIRECTION('Axis2P3D Direction',(1.,0.,0.)) ;
#304=DIRECTION('Axis2P3D Direction',(1.,0.,0.)) ;
#313=DIRECTION('Axis2P3D Direction',(1.,0.,0.)) ;
#322=DIRECTION('Axis2P3D Direction',(1.,0.,0.)) ;
#332=DIRECTION('Axis2P3D Direction',(-1.,-0.,0.)) ;
#333=DIRECTION('Axis2P3D XDirection',(0.,-0.87758256189,0.479425538604)) ;
#337=DIRECTION('Vector Direction',(-1.,0.,0.)) ;
#342=DIRECTION('Vector Direction',(-1.,0.,0.)) ;
#361=DIRECTION('Axis2P3D Direction',(-1.,0.,-0.)) ;
#362=DIRECTION('Axis2P3D XDirection',(0.,0.87758256189,-0.479425538604)) ;
#366=DIRECTION('Vector Direction',(-1.,0.,0.)) ;
#371=DIRECTION('Vector Direction',(-1.,0.,0.)) ;
#390=DIRECTION('Axis2P3D Direction',(1.,0.,0.)) ;
#391=DIRECTION('Axis2P3D XDirection',(0.,1.,0.)) ;
#395=DIRECTION('Vector Direction',(1.,0.,0.)) ;
#400=DIRECTION('Vector Direction',(1.,0.,0.)) ;
#419=DIRECTION('Axis2P3D Direction',(1.,0.,0.)) ;
#420=DIRECTION('Axis2P3D XDirection',(0.,1.,0.)) ;
#424=DIRECTION('Vector Direction',(1.,0.,0.)) ;
#429=DIRECTION('Vector Direction',(1.,0.,0.)) ;
#448=DIRECTION('Axis2P3D Direction',(-1.,-0.,0.)) ;
#449=DIRECTION('Axis2P3D XDirection',(0.,-0.853985976599,-0.520296023213)) ;
#453=DIRECTION('Vector Direction',(-1.,0.,0.)) ;
#458=DIRECTION('Vector Direction',(-1.,0.,0.)) ;
#477=DIRECTION('Axis2P3D Direction',(-1.,0.,0.)) ;
#478=DIRECTION('Axis2P3D XDirection',(0.,0.853985976599,0.520296023213)) ;
#482=DIRECTION('Vector Direction',(-1.,0.,0.)) ;
#487=DIRECTION('Vector Direction',(-1.,0.,0.)) ;
#506=DIRECTION('Axis2P3D Direction',(-1.,0.,0.)) ;
#507=DIRECTION('Axis2P3D XDirection',(0.,-0.0235965852909,0.999721561817)) ;
#511=DIRECTION('Vector Direction',(-1.,0.,0.)) ;
#516=DIRECTION('Vector Direction',(-1.,0.,0.)) ;
#535=DIRECTION('Axis2P3D Direction',(-1.,0.,-0.)) ;
#536=DIRECTION('Axis2P3D XDirection',(0.,0.0235965852909,-0.999721561817)) ;
#540=DIRECTION('Vector Direction',(-1.,0.,0.)) ;
#545=DIRECTION('Vector Direction',(-1.,0.,0.)) ;
#15=UNCERTAINTY_MEASURE_WITH_UNIT(LENGTH_MEASURE(0.005),#12,'distance_accuracy_value','CONFUSED CURVE UNCERTAINTY') ;
#18=AXIS2_PLACEMENT_3D(' ',#17,$,$) ;
#34=AXIS2_PLACEMENT_3D('Plane Axis2P3D',#31,#32,#33) ;
#38=AXIS2_PLACEMENT_3D('Circle Axis2P3D',#36,#37,$) ;
#47=AXIS2_PLACEMENT_3D('Circle Axis2P3D',#45,#46,$) ;
#56=AXIS2_PLACEMENT_3D('Circle Axis2P3D',#54,#55,$) ;
#65=AXIS2_PLACEMENT_3D('Circle Axis2P3D',#63,#64,$) ;
#74=AXIS2_PLACEMENT_3D('Circle Axis2P3D',#72,#73,$) ;
#83=AXIS2_PLACEMENT_3D('Circle Axis2P3D',#81,#82,$) ;
#92=AXIS2_PLACEMENT_3D('Circle Axis2P3D',#90,#91,$) ;
#101=AXIS2_PLACEMENT_3D('Circle Axis2P3D',#99,#100,$) ;
#110=AXIS2_PLACEMENT_3D('Circle Axis2P3D',#108,#109,$) ;
#119=AXIS2_PLACEMENT_3D('Circle Axis2P3D',#117,#118,$) ;
#128=AXIS2_PLACEMENT_3D('Circle Axis2P3D',#126,#127,$) ;
#137=AXIS2_PLACEMENT_3D('Circle Axis2P3D',#135,#136,$) ;
#146=AXIS2_PLACEMENT_3D('Circle Axis2P3D',#144,#145,$) ;
#155=AXIS2_PLACEMENT_3D('Circle Axis2P3D',#153,#154,$) ;
#164=AXIS2_PLACEMENT_3D('Circle Axis2P3D',#162,#163,$) ;
#173=AXIS2_PLACEMENT_3D('Circle Axis2P3D',#171,#172,$) ;
#184=AXIS2_PLACEMENT_3D('Plane Axis2P3D',#181,#182,#183) ;
#188=AXIS2_PLACEMENT_3D('Circle Axis2P3D',#186,#187,$) ;
#197=AXIS2_PLACEMENT_3D('Circle Axis2P3D',#195,#196,$) ;
#206=AXIS2_PLACEMENT_3D('Circle Axis2P3D',#204,#205,$) ;
#215=AXIS2_PLACEMENT_3D('Circle Axis2P3D',#213,#214,$) ;
#224=AXIS2_PLACEMENT_3D('Circle Axis2P3D',#222,#223,$) ;
#233=AXIS2_PLACEMENT_3D('Circle Axis2P3D',#231,#232,$) ;
#242=AXIS2_PLACEMENT_3D('Circle Axis2P3D',#240,#241,$) ;
#251=AXIS2_PLACEMENT_3D('Circle Axis2P3D',#249,#250,$) ;
#260=AXIS2_PLACEMENT_3D('Circle Axis2P3D',#258,#259,$) ;
#269=AXIS2_PLACEMENT_3D('Circle Axis2P3D',#267,#268,$) ;
#278=AXIS2_PLACEMENT_3D('Circle Axis2P3D',#276,#277,$) ;
#287=AXIS2_PLACEMENT_3D('Circle Axis2P3D',#285,#286,$) ;
#296=AXIS2_PLACEMENT_3D('Circle Axis2P3D',#294,#295,$) ;
#305=AXIS2_PLACEMENT_3D('Circle Axis2P3D',#303,#304,$) ;
#314=AXIS2_PLACEMENT_3D('Circle Axis2P3D',#312,#313,$) ;
#323=AXIS2_PLACEMENT_3D('Circle Axis2P3D',#321,#322,$) ;
#334=AXIS2_PLACEMENT_3D('Cylinder Axis2P3D',#331,#332,#333) ;
#363=AXIS2_PLACEMENT_3D('Cylinder Axis2P3D',#360,#361,#362) ;
#392=AXIS2_PLACEMENT_3D('Cylinder Axis2P3D',#389,#390,#391) ;
#421=AXIS2_PLACEMENT_3D('Cylinder Axis2P3D',#418,#419,#420) ;
#450=AXIS2_PLACEMENT_3D('Cylinder Axis2P3D',#447,#448,#449) ;
#479=AXIS2_PLACEMENT_3D('Cylinder Axis2P3D',#476,#477,#478) ;
#508=AXIS2_PLACEMENT_3D('Cylinder Axis2P3D',#505,#506,#507) ;
#537=AXIS2_PLACEMENT_3D('Cylinder Axis2P3D',#534,#535,#536) ;
#339=LINE('Line',#336,#338) ;
#344=LINE('Line',#341,#343) ;
#368=LINE('Line',#365,#367) ;
#373=LINE('Line',#370,#372) ;
#397=LINE('Line',#394,#396) ;
#402=LINE('Line',#399,#401) ;
#426=LINE('Line',#423,#425) ;
#431=LINE('Line',#428,#430) ;
#455=LINE('Line',#452,#454) ;
#460=LINE('Line',#457,#459) ;
#484=LINE('Line',#481,#483) ;
#489=LINE('Line',#486,#488) ;
#513=LINE('Line',#510,#512) ;
#518=LINE('Line',#515,#517) ;
#542=LINE('Line',#539,#541) ;
#547=LINE('Line',#544,#546) ;
#39=CIRCLE('generated circle',#38,63.5) ;
#48=CIRCLE('generated circle',#47,63.5) ;
#57=CIRCLE('generated circle',#56,3.5) ;
#66=CIRCLE('generated circle',#65,3.5) ;
#75=CIRCLE('generated circle',#74,3.5) ;
#84=CIRCLE('generated circle',#83,3.5) ;
#93=CIRCLE('generated circle',#92,50.) ;
#102=CIRCLE('generated circle',#101,50.) ;
#111=CIRCLE('generated circle',#110,3.5) ;
#120=CIRCLE('generated circle',#119,3.5) ;
#129=CIRCLE('generated circle',#128,3.5) ;
#138=CIRCLE('generated circle',#137,3.5) ;
#147=CIRCLE('generated circle',#146,3.5) ;
#156=CIRCLE('generated circle',#155,3.5) ;
#165=CIRCLE('generated circle',#164,3.5) ;
#174=CIRCLE('generated circle',#173,3.5) ;
#189=CIRCLE('generated circle',#188,63.5) ;
#198=CIRCLE('generated circle',#197,63.5) ;
#207=CIRCLE('generated circle',#206,3.5) ;
#216=CIRCLE('generated circle',#215,3.5) ;
#225=CIRCLE('generated circle',#224,3.5) ;
#234=CIRCLE('generated circle',#233,3.5) ;
#243=CIRCLE('generated circle',#242,50.) ;
#252=CIRCLE('generated circle',#251,50.) ;
#261=CIRCLE('generated circle',#260,3.5) ;
#270=CIRCLE('generated circle',#269,3.5) ;
#279=CIRCLE('generated circle',#278,3.5) ;
#288=CIRCLE('generated circle',#287,3.5) ;
#297=CIRCLE('generated circle',#296,3.5) ;
#306=CIRCLE('generated circle',#305,3.5) ;
#315=CIRCLE('generated circle',#314,3.5) ;
#324=CIRCLE('generated circle',#323,3.5) ;
#35=PLANE('',#34) ;
#185=PLANE('',#184) ;
#335=CYLINDRICAL_SURFACE('generated cylinder',#334,3.5) ;
#364=CYLINDRICAL_SURFACE('generated cylinder',#363,3.5) ;
#393=CYLINDRICAL_SURFACE('generated cylinder',#392,63.5) ;
#422=CYLINDRICAL_SURFACE('generated cylinder',#421,50.) ;
#451=CYLINDRICAL_SURFACE('generated cylinder',#450,3.5) ;
#480=CYLINDRICAL_SURFACE('generated cylinder',#479,3.5) ;
#509=CYLINDRICAL_SURFACE('generated cylinder',#508,3.5) ;
#538=CYLINDRICAL_SURFACE('generated cylinder',#537,3.5) ;
#71=FACE_BOUND('',#68,.T.) ;
#89=FACE_BOUND('',#86,.T.) ;
#107=FACE_BOUND('',#104,.T.) ;
#125=FACE_BOUND('',#122,.T.) ;
#143=FACE_BOUND('',#140,.T.) ;
#161=FACE_BOUND('',#158,.T.) ;
#179=FACE_BOUND('',#176,.T.) ;
#221=FACE_BOUND('',#218,.T.) ;
#239=FACE_BOUND('',#236,.T.) ;
#257=FACE_BOUND('',#254,.T.) ;
#275=FACE_BOUND('',#272,.T.) ;
#293=FACE_BOUND('',#290,.T.) ;
#311=FACE_BOUND('',#308,.T.) ;
#329=FACE_BOUND('',#326,.T.) ;
#44=EDGE_CURVE('',#41,#43,#39,.T.) ;
#49=EDGE_CURVE('',#43,#41,#48,.T.) ;
#62=EDGE_CURVE('',#59,#61,#57,.T.) ;
#67=EDGE_CURVE('',#61,#59,#66,.T.) ;
#80=EDGE_CURVE('',#77,#79,#75,.T.) ;
#85=EDGE_CURVE('',#79,#77,#84,.T.) ;
#98=EDGE_CURVE('',#95,#97,#93,.T.) ;
#103=EDGE_CURVE('',#97,#95,#102,.T.) ;
#116=EDGE_CURVE('',#113,#115,#111,.T.) ;
#121=EDGE_CURVE('',#115,#113,#120,.T.) ;
#134=EDGE_CURVE('',#131,#133,#129,.T.) ;
#139=EDGE_CURVE('',#133,#131,#138,.T.) ;
#152=EDGE_CURVE('',#149,#151,#147,.T.) ;
#157=EDGE_CURVE('',#151,#149,#156,.T.) ;
#170=EDGE_CURVE('',#167,#169,#165,.T.) ;
#175=EDGE_CURVE('',#169,#167,#174,.T.) ;
#194=EDGE_CURVE('',#191,#193,#189,.T.) ;
#199=EDGE_CURVE('',#193,#191,#198,.T.) ;
#212=EDGE_CURVE('',#209,#211,#207,.T.) ;
#217=EDGE_CURVE('',#211,#209,#216,.T.) ;
#230=EDGE_CURVE('',#227,#229,#225,.T.) ;
#235=EDGE_CURVE('',#229,#227,#234,.T.) ;
#248=EDGE_CURVE('',#245,#247,#243,.T.) ;
#253=EDGE_CURVE('',#247,#245,#252,.T.) ;
#266=EDGE_CURVE('',#263,#265,#261,.T.) ;
#271=EDGE_CURVE('',#265,#263,#270,.T.) ;
#284=EDGE_CURVE('',#281,#283,#279,.T.) ;
#289=EDGE_CURVE('',#283,#281,#288,.T.) ;
#302=EDGE_CURVE('',#299,#301,#297,.T.) ;
#307=EDGE_CURVE('',#301,#299,#306,.T.) ;
#320=EDGE_CURVE('',#317,#319,#315,.T.) ;
#325=EDGE_CURVE('',#319,#317,#324,.T.) ;
#340=EDGE_CURVE('',#265,#113,#339,.F.) ;
#345=EDGE_CURVE('',#263,#115,#344,.F.) ;
#369=EDGE_CURVE('',#229,#77,#368,.F.) ;
#374=EDGE_CURVE('',#227,#79,#373,.F.) ;
#398=EDGE_CURVE('',#193,#41,#397,.T.) ;
#403=EDGE_CURVE('',#191,#43,#402,.T.) ;
#427=EDGE_CURVE('',#247,#95,#426,.T.) ;
#432=EDGE_CURVE('',#245,#97,#431,.T.) ;
#456=EDGE_CURVE('',#283,#131,#455,.F.) ;
#461=EDGE_CURVE('',#281,#133,#460,.F.) ;
#485=EDGE_CURVE('',#209,#61,#484,.F.) ;
#490=EDGE_CURVE('',#211,#59,#489,.F.) ;
#514=EDGE_CURVE('',#299,#151,#513,.F.) ;
#519=EDGE_CURVE('',#301,#149,#518,.F.) ;
#543=EDGE_CURVE('',#317,#169,#542,.F.) ;
#548=EDGE_CURVE('',#319,#167,#547,.F.) ;
#30=CLOSED_SHELL('Closed Shell',(#180,#330,#352,#359,#381,#388,#410,#417,#439,#446,#468,#475,#497,#504,#526,#533,#555,#562)) ;
#564=SHAPE_REPRESENTATION_RELATIONSHIP(' ',' ',#19,#563) ;
#50=EDGE_LOOP('',(#51,#52)) ;
#68=EDGE_LOOP('',(#69,#70)) ;
#86=EDGE_LOOP('',(#87,#88)) ;
#104=EDGE_LOOP('',(#105,#106)) ;
#122=EDGE_LOOP('',(#123,#124)) ;
#140=EDGE_LOOP('',(#141,#142)) ;
#158=EDGE_LOOP('',(#159,#160)) ;
#176=EDGE_LOOP('',(#177,#178)) ;
#200=EDGE_LOOP('',(#201,#202)) ;
#218=EDGE_LOOP('',(#219,#220)) ;
#236=EDGE_LOOP('',(#237,#238)) ;
#254=EDGE_LOOP('',(#255,#256)) ;
#272=EDGE_LOOP('',(#273,#274)) ;
#290=EDGE_LOOP('',(#291,#292)) ;
#308=EDGE_LOOP('',(#309,#310)) ;
#326=EDGE_LOOP('',(#327,#328)) ;
#346=EDGE_LOOP('',(#347,#348,#349,#350)) ;
#353=EDGE_LOOP('',(#354,#355,#356,#357)) ;
#375=EDGE_LOOP('',(#376,#377,#378,#379)) ;
#382=EDGE_LOOP('',(#383,#384,#385,#386)) ;
#404=EDGE_LOOP('',(#405,#406,#407,#408)) ;
#411=EDGE_LOOP('',(#412,#413,#414,#415)) ;
#433=EDGE_LOOP('',(#434,#435,#436,#437)) ;
#440=EDGE_LOOP('',(#441,#442,#443,#444)) ;
#462=EDGE_LOOP('',(#463,#464,#465,#466)) ;
#469=EDGE_LOOP('',(#470,#471,#472,#473)) ;
#491=EDGE_LOOP('',(#492,#493,#494,#495)) ;
#498=EDGE_LOOP('',(#499,#500,#501,#502)) ;
#520=EDGE_LOOP('',(#521,#522,#523,#524)) ;
#527=EDGE_LOOP('',(#528,#529,#530,#531)) ;
#549=EDGE_LOOP('',(#550,#551,#552,#553)) ;
#556=EDGE_LOOP('',(#557,#558,#559,#560)) ;
#51=ORIENTED_EDGE('',*,*,#44,.T.) ;
#52=ORIENTED_EDGE('',*,*,#49,.T.) ;
#69=ORIENTED_EDGE('',*,*,#62,.F.) ;
#70=ORIENTED_EDGE('',*,*,#67,.F.) ;
#87=ORIENTED_EDGE('',*,*,#80,.F.) ;
#88=ORIENTED_EDGE('',*,*,#85,.F.) ;
#105=ORIENTED_EDGE('',*,*,#98,.F.) ;
#106=ORIENTED_EDGE('',*,*,#103,.F.) ;
#123=ORIENTED_EDGE('',*,*,#116,.F.) ;
#124=ORIENTED_EDGE('',*,*,#121,.F.) ;
#141=ORIENTED_EDGE('',*,*,#134,.F.) ;
#142=ORIENTED_EDGE('',*,*,#139,.F.) ;
#159=ORIENTED_EDGE('',*,*,#152,.F.) ;
#160=ORIENTED_EDGE('',*,*,#157,.F.) ;
#177=ORIENTED_EDGE('',*,*,#170,.F.) ;
#178=ORIENTED_EDGE('',*,*,#175,.F.) ;
#201=ORIENTED_EDGE('',*,*,#194,.F.) ;
#202=ORIENTED_EDGE('',*,*,#199,.F.) ;
#219=ORIENTED_EDGE('',*,*,#212,.T.) ;
#220=ORIENTED_EDGE('',*,*,#217,.T.) ;
#237=ORIENTED_EDGE('',*,*,#230,.T.) ;
#238=ORIENTED_EDGE('',*,*,#235,.T.) ;
#255=ORIENTED_EDGE('',*,*,#248,.T.) ;
#256=ORIENTED_EDGE('',*,*,#253,.T.) ;
#273=ORIENTED_EDGE('',*,*,#266,.T.) ;
#274=ORIENTED_EDGE('',*,*,#271,.T.) ;
#291=ORIENTED_EDGE('',*,*,#284,.T.) ;
#292=ORIENTED_EDGE('',*,*,#289,.T.) ;
#309=ORIENTED_EDGE('',*,*,#302,.T.) ;
#310=ORIENTED_EDGE('',*,*,#307,.T.) ;
#327=ORIENTED_EDGE('',*,*,#320,.T.) ;
#328=ORIENTED_EDGE('',*,*,#325,.T.) ;
#347=ORIENTED_EDGE('',*,*,#340,.F.) ;
#348=ORIENTED_EDGE('',*,*,#266,.F.) ;
#349=ORIENTED_EDGE('',*,*,#345,.T.) ;
#350=ORIENTED_EDGE('',*,*,#121,.T.) ;
#354=ORIENTED_EDGE('',*,*,#345,.F.) ;
#355=ORIENTED_EDGE('',*,*,#271,.F.) ;
#356=ORIENTED_EDGE('',*,*,#340,.T.) ;
#357=ORIENTED_EDGE('',*,*,#116,.T.) ;
#376=ORIENTED_EDGE('',*,*,#369,.F.) ;
#377=ORIENTED_EDGE('',*,*,#230,.F.) ;
#378=ORIENTED_EDGE('',*,*,#374,.T.) ;
#379=ORIENTED_EDGE('',*,*,#85,.T.) ;
#383=ORIENTED_EDGE('',*,*,#374,.F.) ;
#384=ORIENTED_EDGE('',*,*,#235,.F.) ;
#385=ORIENTED_EDGE('',*,*,#369,.T.) ;
#386=ORIENTED_EDGE('',*,*,#80,.T.) ;
#405=ORIENTED_EDGE('',*,*,#398,.F.) ;
#406=ORIENTED_EDGE('',*,*,#199,.T.) ;
#407=ORIENTED_EDGE('',*,*,#403,.T.) ;
#408=ORIENTED_EDGE('',*,*,#44,.F.) ;
#412=ORIENTED_EDGE('',*,*,#403,.F.) ;
#413=ORIENTED_EDGE('',*,*,#194,.T.) ;
#414=ORIENTED_EDGE('',*,*,#398,.T.) ;
#415=ORIENTED_EDGE('',*,*,#49,.F.) ;
#434=ORIENTED_EDGE('',*,*,#103,.T.) ;
#435=ORIENTED_EDGE('',*,*,#427,.F.) ;
#436=ORIENTED_EDGE('',*,*,#248,.F.) ;
#437=ORIENTED_EDGE('',*,*,#432,.T.) ;
#441=ORIENTED_EDGE('',*,*,#98,.T.) ;
#442=ORIENTED_EDGE('',*,*,#432,.F.) ;
#443=ORIENTED_EDGE('',*,*,#253,.F.) ;
#444=ORIENTED_EDGE('',*,*,#427,.T.) ;
#463=ORIENTED_EDGE('',*,*,#456,.F.) ;
#464=ORIENTED_EDGE('',*,*,#284,.F.) ;
#465=ORIENTED_EDGE('',*,*,#461,.T.) ;
#466=ORIENTED_EDGE('',*,*,#139,.T.) ;
#470=ORIENTED_EDGE('',*,*,#461,.F.) ;
#471=ORIENTED_EDGE('',*,*,#289,.F.) ;
#472=ORIENTED_EDGE('',*,*,#456,.T.) ;
#473=ORIENTED_EDGE('',*,*,#134,.T.) ;
#492=ORIENTED_EDGE('',*,*,#485,.F.) ;
#493=ORIENTED_EDGE('',*,*,#217,.F.) ;
#494=ORIENTED_EDGE('',*,*,#490,.T.) ;
#495=ORIENTED_EDGE('',*,*,#62,.T.) ;
#499=ORIENTED_EDGE('',*,*,#490,.F.) ;
#500=ORIENTED_EDGE('',*,*,#212,.F.) ;
#501=ORIENTED_EDGE('',*,*,#485,.T.) ;
#502=ORIENTED_EDGE('',*,*,#67,.T.) ;
#521=ORIENTED_EDGE('',*,*,#514,.F.) ;
#522=ORIENTED_EDGE('',*,*,#307,.F.) ;
#523=ORIENTED_EDGE('',*,*,#519,.T.) ;
#524=ORIENTED_EDGE('',*,*,#152,.T.) ;
#528=ORIENTED_EDGE('',*,*,#519,.F.) ;
#529=ORIENTED_EDGE('',*,*,#302,.F.) ;
#530=ORIENTED_EDGE('',*,*,#514,.T.) ;
#531=ORIENTED_EDGE('',*,*,#157,.T.) ;
#550=ORIENTED_EDGE('',*,*,#543,.F.) ;
#551=ORIENTED_EDGE('',*,*,#325,.F.) ;
#552=ORIENTED_EDGE('',*,*,#548,.T.) ;
#553=ORIENTED_EDGE('',*,*,#170,.T.) ;
#557=ORIENTED_EDGE('',*,*,#548,.F.) ;
#558=ORIENTED_EDGE('',*,*,#320,.F.) ;
#559=ORIENTED_EDGE('',*,*,#543,.T.) ;
#560=ORIENTED_EDGE('',*,*,#175,.T.) ;
#21=MANIFOLD_SOLID_BREP('PartBody',#30) ;
#41=VERTEX_POINT('',#40) ;
#43=VERTEX_POINT('',#42) ;
#59=VERTEX_POINT('',#58) ;
#61=VERTEX_POINT('',#60) ;
#77=VERTEX_POINT('',#76) ;
#79=VERTEX_POINT('',#78) ;
#95=VERTEX_POINT('',#94) ;
#97=VERTEX_POINT('',#96) ;
#113=VERTEX_POINT('',#112) ;
#115=VERTEX_POINT('',#114) ;
#131=VERTEX_POINT('',#130) ;
#133=VERTEX_POINT('',#132) ;
#149=VERTEX_POINT('',#148) ;
#151=VERTEX_POINT('',#150) ;
#167=VERTEX_POINT('',#166) ;
#169=VERTEX_POINT('',#168) ;
#191=VERTEX_POINT('',#190) ;
#193=VERTEX_POINT('',#192) ;
#209=VERTEX_POINT('',#208) ;
#211=VERTEX_POINT('',#210) ;
#227=VERTEX_POINT('',#226) ;
#229=VERTEX_POINT('',#228) ;
#245=VERTEX_POINT('',#244) ;
#247=VERTEX_POINT('',#246) ;
#263=VERTEX_POINT('',#262) ;
#265=VERTEX_POINT('',#264) ;
#281=VERTEX_POINT('',#280) ;
#283=VERTEX_POINT('',#282) ;
#299=VERTEX_POINT('',#298) ;
#301=VERTEX_POINT('',#300) ;
#317=VERTEX_POINT('',#316) ;
#319=VERTEX_POINT('',#318) ;
#563=ADVANCED_BREP_SHAPE_REPRESENTATION('NONE',(#21),#16) ;
#180=ADVANCED_FACE('PartBody',(#53,#71,#89,#107,#125,#143,#161,#179),#35,.T.) ;
#330=ADVANCED_FACE('PartBody',(#203,#221,#239,#257,#275,#293,#311,#329),#185,.F.) ;
#352=ADVANCED_FACE('PartBody',(#351),#335,.F.) ;
#359=ADVANCED_FACE('PartBody',(#358),#335,.F.) ;
#381=ADVANCED_FACE('PartBody',(#380),#364,.F.) ;
#388=ADVANCED_FACE('PartBody',(#387),#364,.F.) ;
#410=ADVANCED_FACE('PartBody',(#409),#393,.T.) ;
#417=ADVANCED_FACE('PartBody',(#416),#393,.T.) ;
#439=ADVANCED_FACE('PartBody',(#438),#422,.F.) ;
#446=ADVANCED_FACE('PartBody',(#445),#422,.F.) ;
#468=ADVANCED_FACE('PartBody',(#467),#451,.F.) ;
#475=ADVANCED_FACE('PartBody',(#474),#451,.F.) ;
#497=ADVANCED_FACE('PartBody',(#496),#480,.F.) ;
#504=ADVANCED_FACE('PartBody',(#503),#480,.F.) ;
#526=ADVANCED_FACE('PartBody',(#525),#509,.F.) ;
#533=ADVANCED_FACE('PartBody',(#532),#509,.F.) ;
#555=ADVANCED_FACE('PartBody',(#554),#538,.F.) ;
#562=ADVANCED_FACE('PartBody',(#561),#538,.F.) ;
#4=APPLICATION_PROTOCOL_DEFINITION('international standard','ap242_managed_model_based_3d_engineering',2014,#1) ;
#22=COLOUR_RGB('Colour',0.,0.501960784314,1.) ;
#53=FACE_OUTER_BOUND('',#50,.T.) ;
#203=FACE_OUTER_BOUND('',#200,.T.) ;
#351=FACE_OUTER_BOUND('',#346,.T.) ;
#358=FACE_OUTER_BOUND('',#353,.T.) ;
#380=FACE_OUTER_BOUND('',#375,.T.) ;
#387=FACE_OUTER_BOUND('',#382,.T.) ;
#409=FACE_OUTER_BOUND('',#404,.T.) ;
#416=FACE_OUTER_BOUND('',#411,.T.) ;
#438=FACE_OUTER_BOUND('',#433,.T.) ;
#445=FACE_OUTER_BOUND('',#440,.T.) ;
#467=FACE_OUTER_BOUND('',#462,.T.) ;
#474=FACE_OUTER_BOUND('',#469,.T.) ;
#496=FACE_OUTER_BOUND('',#491,.T.) ;
#503=FACE_OUTER_BOUND('',#498,.T.) ;
#525=FACE_OUTER_BOUND('',#520,.T.) ;
#532=FACE_OUTER_BOUND('',#527,.T.) ;
#554=FACE_OUTER_BOUND('',#549,.T.) ;
#561=FACE_OUTER_BOUND('',#556,.T.) ;
#9=PRODUCT_CATEGORY_RELATIONSHIP(' ',' ',#7,#8) ;
#6=PRODUCT_DEFINITION_FORMATION_WITH_SPECIFIED_SOURCE('--A',' ',#5,.NOT_KNOWN.) ;
#20=SHAPE_DEFINITION_REPRESENTATION(#11,#19) ;
#12=(LENGTH_UNIT()NAMED_UNIT(*)SI_UNIT(.MILLI.,.METRE.)) ;
#13=(NAMED_UNIT(*)PLANE_ANGLE_UNIT()SI_UNIT($,.RADIAN.)) ;
#14=(NAMED_UNIT(*)SI_UNIT($,.STERADIAN.)SOLID_ANGLE_UNIT()) ;
#16=(GEOMETRIC_REPRESENTATION_CONTEXT(3)GLOBAL_UNCERTAINTY_ASSIGNED_CONTEXT((#15))GLOBAL_UNIT_ASSIGNED_CONTEXT((#12,#13,#14))REPRESENTATION_CONTEXT(' ',' ')) ;
ENDSEC;
END-ISO-10303-21;
