ISO-10303-21;
HEADER;
FILE_DESCRIPTION(('CATIA V5 STEP Exchange','CAx-IF Rec.Pracs.--- Model Styling and Organization---1.4--- 2014-01-23','CAx-IF Rec.Pracs.---Representation and Presentation of Product Manufacturing Information (PMI)---4.0---2014-10-13','CAx-IF Rec.Pracs.---3D Tessellated Data Validation Properties---0.5---2014-09-14'),'2;1');

FILE_NAME('V:\\catia\\priv\\e_dmacia\\Laura\\step au 14-12-2023\\M3D-217583_--A_CATPART_1.stp','2023-12-14T15:19:03+00:00',('none'),('none'),'CATIA Version 5-6 Release 2016 SP5 HF64','CATIA V5 STEP AP242','none');

FILE_SCHEMA(('AP242_MANAGED_MODEL_BASED_3D_ENGINEERING_MIM_LF  {1 0 10303 442 1 1 4}'));

ENDSEC;
DATA;
#5=PRODUCT('M3D-217583','','BRAKE PIPE',(#2)) ;
#2=PRODUCT_CONTEXT(' ',#1,'mechanical') ;
#1=APPLICATION_CONTEXT('managed model based 3d engineering') ;
#10=PRODUCT_DEFINITION('MASTER',' ',#6,#3) ;
#3=PRODUCT_DEFINITION_CONTEXT('part definition',#1,' ') ;
#11=PRODUCT_DEFINITION_SHAPE(' ',' ',#10) ;
#175=MECHANICAL_DESIGN_GEOMETRIC_PRESENTATION_REPRESENTATION(' ',(#29),#16) ;
#19=SHAPE_REPRESENTATION(' ',(#18),#16) ;
#7=PRODUCT_CATEGORY('part','specification') ;
#17=CARTESIAN_POINT(' ',(0.,0.,0.)) ;
#31=CARTESIAN_POINT('Axis2P3D Location',(0.,71.,0.)) ;
#36=CARTESIAN_POINT('Line Origine',(14.3827661581,71.,26.3274768567)) ;
#40=CARTESIAN_POINT('Vertex',(14.3827661581,-23.,26.3274768567)) ;
#42=CARTESIAN_POINT('Vertex',(14.3827661581,165.,26.3274768567)) ;
#45=CARTESIAN_POINT('Axis2P3D Location',(0.,165.,0.)) ;
#49=CARTESIAN_POINT('Vertex',(-14.3827661581,165.,-26.3274768567)) ;
#52=CARTESIAN_POINT('Line Origine',(-14.3827661581,71.,-26.3274768567)) ;
#56=CARTESIAN_POINT('Vertex',(-14.3827661581,-23.,-26.3274768567)) ;
#59=CARTESIAN_POINT('Axis2P3D Location',(0.,-23.,0.)) ;
#71=CARTESIAN_POINT('Axis2P3D Location',(0.,165.,0.)) ;
#76=CARTESIAN_POINT('Axis2P3D Location',(0.,-23.,0.)) ;
#88=CARTESIAN_POINT('Axis2P3D Location',(0.,71.,0.)) ;
#93=CARTESIAN_POINT('Line Origine',(7.43109584837,71.,13.6025297093)) ;
#97=CARTESIAN_POINT('Vertex',(7.43109584837,165.,13.6025297093)) ;
#99=CARTESIAN_POINT('Vertex',(7.43109584837,-23.,13.6025297093)) ;
#102=CARTESIAN_POINT('Axis2P3D Location',(0.,-23.,0.)) ;
#106=CARTESIAN_POINT('Vertex',(-7.43109584837,-23.,-13.6025297093)) ;
#109=CARTESIAN_POINT('Line Origine',(-7.43109584837,71.,-13.6025297093)) ;
#113=CARTESIAN_POINT('Vertex',(-7.43109584837,165.,-13.6025297093)) ;
#116=CARTESIAN_POINT('Axis2P3D Location',(0.,165.,0.)) ;
#128=CARTESIAN_POINT('Axis2P3D Location',(0.,-23.,0.)) ;
#133=CARTESIAN_POINT('Axis2P3D Location',(0.,165.,0.)) ;
#145=CARTESIAN_POINT('Axis2P3D Location',(0.,-23.,-30.)) ;
#159=CARTESIAN_POINT('Axis2P3D Location',(0.,165.,-15.5)) ;
#8=PRODUCT_RELATED_PRODUCT_CATEGORY('part',$,(#5)) ;
#29=STYLED_ITEM(' ',(#28),#21) ;
#28=PRESENTATION_STYLE_ASSIGNMENT((#27)) ;
#27=SURFACE_STYLE_USAGE(.BOTH.,#26) ;
#26=SURFACE_SIDE_STYLE(' ',(#25)) ;
#25=SURFACE_STYLE_FILL_AREA(#24) ;
#24=FILL_AREA_STYLE(' ',(#23)) ;
#23=FILL_AREA_STYLE_COLOUR(' ',#22) ;
#38=VECTOR('Line Direction',#37,1.) ;
#54=VECTOR('Line Direction',#53,1.) ;
#95=VECTOR('Line Direction',#94,1.) ;
#111=VECTOR('Line Direction',#110,1.) ;
#32=DIRECTION('Axis2P3D Direction',(0.,1.,0.)) ;
#33=DIRECTION('Axis2P3D XDirection',(-0.479425538604,0.,-0.87758256189)) ;
#37=DIRECTION('Vector Direction',(0.,1.,0.)) ;
#46=DIRECTION('Axis2P3D Direction',(0.,1.,0.)) ;
#53=DIRECTION('Vector Direction',(0.,1.,0.)) ;
#60=DIRECTION('Axis2P3D Direction',(0.,1.,0.)) ;
#72=DIRECTION('Axis2P3D Direction',(0.,1.,0.)) ;
#77=DIRECTION('Axis2P3D Direction',(0.,1.,0.)) ;
#89=DIRECTION('Axis2P3D Direction',(0.,1.,0.)) ;
#90=DIRECTION('Axis2P3D XDirection',(-0.479425538604,0.,-0.87758256189)) ;
#94=DIRECTION('Vector Direction',(0.,1.,0.)) ;
#103=DIRECTION('Axis2P3D Direction',(0.,1.,0.)) ;
#110=DIRECTION('Vector Direction',(0.,1.,0.)) ;
#117=DIRECTION('Axis2P3D Direction',(0.,1.,0.)) ;
#129=DIRECTION('Axis2P3D Direction',(0.,1.,0.)) ;
#134=DIRECTION('Axis2P3D Direction',(0.,1.,0.)) ;
#146=DIRECTION('Axis2P3D Direction',(-0.,1.,0.)) ;
#147=DIRECTION('Axis2P3D XDirection',(1.,0.,0.)) ;
#160=DIRECTION('Axis2P3D Direction',(-0.,1.,0.)) ;
#161=DIRECTION('Axis2P3D XDirection',(1.,0.,0.)) ;
#15=UNCERTAINTY_MEASURE_WITH_UNIT(LENGTH_MEASURE(0.005),#12,'distance_accuracy_value','CONFUSED CURVE UNCERTAINTY') ;
#18=AXIS2_PLACEMENT_3D(' ',#17,$,$) ;
#34=AXIS2_PLACEMENT_3D('Cylinder Axis2P3D',#31,#32,#33) ;
#47=AXIS2_PLACEMENT_3D('Circle Axis2P3D',#45,#46,$) ;
#61=AXIS2_PLACEMENT_3D('Circle Axis2P3D',#59,#60,$) ;
#73=AXIS2_PLACEMENT_3D('Circle Axis2P3D',#71,#72,$) ;
#78=AXIS2_PLACEMENT_3D('Circle Axis2P3D',#76,#77,$) ;
#91=AXIS2_PLACEMENT_3D('Cylinder Axis2P3D',#88,#89,#90) ;
#104=AXIS2_PLACEMENT_3D('Circle Axis2P3D',#102,#103,$) ;
#118=AXIS2_PLACEMENT_3D('Circle Axis2P3D',#116,#117,$) ;
#130=AXIS2_PLACEMENT_3D('Circle Axis2P3D',#128,#129,$) ;
#135=AXIS2_PLACEMENT_3D('Circle Axis2P3D',#133,#134,$) ;
#148=AXIS2_PLACEMENT_3D('Plane Axis2P3D',#145,#146,#147) ;
#162=AXIS2_PLACEMENT_3D('Plane Axis2P3D',#159,#160,#161) ;
#39=LINE('Line',#36,#38) ;
#55=LINE('Line',#52,#54) ;
#96=LINE('Line',#93,#95) ;
#112=LINE('Line',#109,#111) ;
#48=CIRCLE('generated circle',#47,30.) ;
#62=CIRCLE('generated circle',#61,30.) ;
#74=CIRCLE('generated circle',#73,30.) ;
#79=CIRCLE('generated circle',#78,30.) ;
#105=CIRCLE('generated circle',#104,15.5) ;
#119=CIRCLE('generated circle',#118,15.5) ;
#131=CIRCLE('generated circle',#130,15.5) ;
#136=CIRCLE('generated circle',#135,15.5) ;
#149=PLANE('',#148) ;
#163=PLANE('',#162) ;
#35=CYLINDRICAL_SURFACE('generated cylinder',#34,30.) ;
#92=CYLINDRICAL_SURFACE('generated cylinder',#91,15.5) ;
#157=FACE_BOUND('',#154,.T.) ;
#171=FACE_BOUND('',#168,.T.) ;
#44=EDGE_CURVE('',#41,#43,#39,.T.) ;
#51=EDGE_CURVE('',#50,#43,#48,.T.) ;
#58=EDGE_CURVE('',#57,#50,#55,.T.) ;
#63=EDGE_CURVE('',#57,#41,#62,.T.) ;
#75=EDGE_CURVE('',#43,#50,#74,.T.) ;
#80=EDGE_CURVE('',#41,#57,#79,.T.) ;
#101=EDGE_CURVE('',#98,#100,#96,.F.) ;
#108=EDGE_CURVE('',#107,#100,#105,.T.) ;
#115=EDGE_CURVE('',#114,#107,#112,.F.) ;
#120=EDGE_CURVE('',#114,#98,#119,.T.) ;
#132=EDGE_CURVE('',#100,#107,#131,.T.) ;
#137=EDGE_CURVE('',#98,#114,#136,.T.) ;
#30=CLOSED_SHELL('Closed Shell',(#70,#87,#127,#144,#158,#172)) ;
#174=SHAPE_REPRESENTATION_RELATIONSHIP(' ',' ',#19,#173) ;
#64=EDGE_LOOP('',(#65,#66,#67,#68)) ;
#81=EDGE_LOOP('',(#82,#83,#84,#85)) ;
#121=EDGE_LOOP('',(#122,#123,#124,#125)) ;
#138=EDGE_LOOP('',(#139,#140,#141,#142)) ;
#150=EDGE_LOOP('',(#151,#152)) ;
#154=EDGE_LOOP('',(#155,#156)) ;
#164=EDGE_LOOP('',(#165,#166)) ;
#168=EDGE_LOOP('',(#169,#170)) ;
#65=ORIENTED_EDGE('',*,*,#44,.T.) ;
#66=ORIENTED_EDGE('',*,*,#51,.F.) ;
#67=ORIENTED_EDGE('',*,*,#58,.F.) ;
#68=ORIENTED_EDGE('',*,*,#63,.T.) ;
#82=ORIENTED_EDGE('',*,*,#58,.T.) ;
#83=ORIENTED_EDGE('',*,*,#75,.F.) ;
#84=ORIENTED_EDGE('',*,*,#44,.F.) ;
#85=ORIENTED_EDGE('',*,*,#80,.T.) ;
#122=ORIENTED_EDGE('',*,*,#101,.T.) ;
#123=ORIENTED_EDGE('',*,*,#108,.F.) ;
#124=ORIENTED_EDGE('',*,*,#115,.F.) ;
#125=ORIENTED_EDGE('',*,*,#120,.T.) ;
#139=ORIENTED_EDGE('',*,*,#115,.T.) ;
#140=ORIENTED_EDGE('',*,*,#132,.F.) ;
#141=ORIENTED_EDGE('',*,*,#101,.F.) ;
#142=ORIENTED_EDGE('',*,*,#137,.T.) ;
#151=ORIENTED_EDGE('',*,*,#63,.F.) ;
#152=ORIENTED_EDGE('',*,*,#80,.F.) ;
#155=ORIENTED_EDGE('',*,*,#132,.T.) ;
#156=ORIENTED_EDGE('',*,*,#108,.T.) ;
#165=ORIENTED_EDGE('',*,*,#75,.T.) ;
#166=ORIENTED_EDGE('',*,*,#51,.T.) ;
#169=ORIENTED_EDGE('',*,*,#120,.F.) ;
#170=ORIENTED_EDGE('',*,*,#137,.F.) ;
#21=MANIFOLD_SOLID_BREP('217583 Tube frein droit',#30) ;
#41=VERTEX_POINT('',#40) ;
#43=VERTEX_POINT('',#42) ;
#50=VERTEX_POINT('',#49) ;
#57=VERTEX_POINT('',#56) ;
#98=VERTEX_POINT('',#97) ;
#100=VERTEX_POINT('',#99) ;
#107=VERTEX_POINT('',#106) ;
#114=VERTEX_POINT('',#113) ;
#173=ADVANCED_BREP_SHAPE_REPRESENTATION('NONE',(#21),#16) ;
#70=ADVANCED_FACE('217583 Tube frein droit',(#69),#35,.T.) ;
#87=ADVANCED_FACE('217583 Tube frein droit',(#86),#35,.T.) ;
#127=ADVANCED_FACE('217583 Tube frein droit',(#126),#92,.F.) ;
#144=ADVANCED_FACE('217583 Tube frein droit',(#143),#92,.F.) ;
#158=ADVANCED_FACE('217583 Tube frein droit',(#153,#157),#149,.F.) ;
#172=ADVANCED_FACE('217583 Tube frein droit',(#167,#171),#163,.T.) ;
#4=APPLICATION_PROTOCOL_DEFINITION('international standard','ap242_managed_model_based_3d_engineering',2014,#1) ;
#22=COLOUR_RGB('Colour',0.949019607843,0.635294117647,0.341176470588) ;
#69=FACE_OUTER_BOUND('',#64,.T.) ;
#86=FACE_OUTER_BOUND('',#81,.T.) ;
#126=FACE_OUTER_BOUND('',#121,.T.) ;
#143=FACE_OUTER_BOUND('',#138,.T.) ;
#153=FACE_OUTER_BOUND('',#150,.T.) ;
#167=FACE_OUTER_BOUND('',#164,.T.) ;
#9=PRODUCT_CATEGORY_RELATIONSHIP(' ',' ',#7,#8) ;
#6=PRODUCT_DEFINITION_FORMATION_WITH_SPECIFIED_SOURCE('--A',' ',#5,.NOT_KNOWN.) ;
#20=SHAPE_DEFINITION_REPRESENTATION(#11,#19) ;
#12=(LENGTH_UNIT()NAMED_UNIT(*)SI_UNIT(.MILLI.,.METRE.)) ;
#13=(NAMED_UNIT(*)PLANE_ANGLE_UNIT()SI_UNIT($,.RADIAN.)) ;
#14=(NAMED_UNIT(*)SI_UNIT($,.STERADIAN.)SOLID_ANGLE_UNIT()) ;
#16=(GEOMETRIC_REPRESENTATION_CONTEXT(3)GLOBAL_UNCERTAINTY_ASSIGNED_CONTEXT((#15))GLOBAL_UNIT_ASSIGNED_CONTEXT((#12,#13,#14))REPRESENTATION_CONTEXT(' ',' ')) ;
ENDSEC;
END-ISO-10303-21;
