ISO-10303-21;
HEADER;
FILE_DESCRIPTION(('CATIA V5 STEP Exchange','CAx-IF Rec.Pracs.--- Model Styling and Organization---1.4--- 2014-01-23','CAx-IF Rec.Pracs.---Representation and Presentation of Product Manufacturing Information (PMI)---4.0---2014-10-13','CAx-IF Rec.Pracs.---3D Tessellated Data Validation Properties---0.5---2014-09-14'),'2;1');

FILE_NAME('C:\\Users\\e_jmelko\\Downloads\\M3D-138243........A--RELFBO--A0..RELMETHOD___RENFORT_DE_LONGERON__PARTIE.stp','2023-10-09T08:26:55+00:00',('none'),('none'),'CATIA Version 5-6 Release 2016 SP5 HF64','CATIA V5 STEP AP242','none');

FILE_SCHEMA(('AP242_MANAGED_MODEL_BASED_3D_ENGINEERING_MIM_LF  {1 0 10303 442 1 1 4}'));

ENDSEC;
DATA;
#5=PRODUCT('M3D-138243','','(VIDE)',(#2)) ;
#2=PRODUCT_CONTEXT(' ',#1,'mechanical') ;
#1=APPLICATION_CONTEXT('managed model based 3d engineering') ;
#10=PRODUCT_DEFINITION('METHOD',' ',#6,#3) ;
#3=PRODUCT_DEFINITION_CONTEXT('part definition',#1,' ') ;
#11=PRODUCT_DEFINITION_SHAPE(' ',' ',#10) ;
#567=MECHANICAL_DESIGN_GEOMETRIC_PRESENTATION_REPRESENTATION(' ',(#29),#16) ;
#19=SHAPE_REPRESENTATION(' ',(#18),#16) ;
#7=PRODUCT_CATEGORY('part','specification') ;
#17=CARTESIAN_POINT(' ',(0.,0.,0.)) ;
#31=CARTESIAN_POINT('Axis2P3D Location',(-330.,0.,524.)) ;
#36=CARTESIAN_POINT('Line Origine',(-330.,1013.,304.)) ;
#40=CARTESIAN_POINT('Vertex',(-330.,960.,304.)) ;
#42=CARTESIAN_POINT('Vertex',(-330.,1066.,304.)) ;
#45=CARTESIAN_POINT('Line Origine',(-330.,1066.,309.)) ;
#49=CARTESIAN_POINT('Vertex',(-330.,1066.,314.)) ;
#52=CARTESIAN_POINT('Axis2P3D Location',(-330.,1086.,314.)) ;
#56=CARTESIAN_POINT('Vertex',(-330.,1086.,334.)) ;
#59=CARTESIAN_POINT('Line Origine',(-330.,1091.,334.)) ;
#63=CARTESIAN_POINT('Vertex',(-330.,1096.,334.)) ;
#66=CARTESIAN_POINT('Line Origine',(-330.,1096.,427.)) ;
#70=CARTESIAN_POINT('Vertex',(-330.,1096.,520.)) ;
#73=CARTESIAN_POINT('Line Origine',(-330.,1086.,520.)) ;
#77=CARTESIAN_POINT('Vertex',(-330.,1076.,520.)) ;
#80=CARTESIAN_POINT('Line Origine',(-330.,1076.,512.5)) ;
#84=CARTESIAN_POINT('Vertex',(-330.,1076.,505.)) ;
#87=CARTESIAN_POINT('Axis2P3D Location',(-330.,1061.,505.)) ;
#91=CARTESIAN_POINT('Vertex',(-330.,1061.,490.)) ;
#94=CARTESIAN_POINT('Line Origine',(-330.,1013.,490.)) ;
#98=CARTESIAN_POINT('Vertex',(-330.,965.,490.)) ;
#101=CARTESIAN_POINT('Axis2P3D Location',(-330.,965.,505.)) ;
#105=CARTESIAN_POINT('Vertex',(-330.,950.,505.)) ;
#108=CARTESIAN_POINT('Line Origine',(-330.,950.,512.5)) ;
#112=CARTESIAN_POINT('Vertex',(-330.,950.,520.)) ;
#115=CARTESIAN_POINT('Line Origine',(-330.,940.,520.)) ;
#119=CARTESIAN_POINT('Vertex',(-330.,930.,520.)) ;
#122=CARTESIAN_POINT('Line Origine',(-330.,930.,427.)) ;
#126=CARTESIAN_POINT('Vertex',(-330.,930.,334.)) ;
#129=CARTESIAN_POINT('Line Origine',(-330.,935.,334.)) ;
#133=CARTESIAN_POINT('Vertex',(-330.,940.,334.)) ;
#136=CARTESIAN_POINT('Axis2P3D Location',(-330.,940.,314.)) ;
#140=CARTESIAN_POINT('Vertex',(-330.,960.,314.)) ;
#143=CARTESIAN_POINT('Line Origine',(-330.,960.,309.)) ;
#167=CARTESIAN_POINT('Axis2P3D Location',(-342.,0.,304.)) ;
#172=CARTESIAN_POINT('Line Origine',(-342.,1013.,304.)) ;
#176=CARTESIAN_POINT('Vertex',(-342.,960.,304.)) ;
#178=CARTESIAN_POINT('Vertex',(-342.,1066.,304.)) ;
#181=CARTESIAN_POINT('Line Origine',(-342.,960.,309.)) ;
#185=CARTESIAN_POINT('Vertex',(-342.,960.,314.)) ;
#188=CARTESIAN_POINT('Axis2P3D Location',(-342.,940.,314.)) ;
#192=CARTESIAN_POINT('Vertex',(-342.,940.,334.)) ;
#195=CARTESIAN_POINT('Line Origine',(-342.,935.,334.)) ;
#199=CARTESIAN_POINT('Vertex',(-342.,930.,334.)) ;
#202=CARTESIAN_POINT('Line Origine',(-342.,930.,427.)) ;
#206=CARTESIAN_POINT('Vertex',(-342.,930.,520.)) ;
#209=CARTESIAN_POINT('Line Origine',(-342.,940.,520.)) ;
#213=CARTESIAN_POINT('Vertex',(-342.,950.,520.)) ;
#216=CARTESIAN_POINT('Line Origine',(-342.,950.,512.5)) ;
#220=CARTESIAN_POINT('Vertex',(-342.,950.,505.)) ;
#223=CARTESIAN_POINT('Axis2P3D Location',(-342.,965.,505.)) ;
#227=CARTESIAN_POINT('Vertex',(-342.,965.,490.)) ;
#230=CARTESIAN_POINT('Line Origine',(-342.,1013.,490.)) ;
#234=CARTESIAN_POINT('Vertex',(-342.,1061.,490.)) ;
#237=CARTESIAN_POINT('Axis2P3D Location',(-342.,1061.,505.)) ;
#241=CARTESIAN_POINT('Vertex',(-342.,1076.,505.)) ;
#244=CARTESIAN_POINT('Line Origine',(-342.,1076.,512.5)) ;
#248=CARTESIAN_POINT('Vertex',(-342.,1076.,520.)) ;
#251=CARTESIAN_POINT('Line Origine',(-342.,1086.,520.)) ;
#255=CARTESIAN_POINT('Vertex',(-342.,1096.,520.)) ;
#258=CARTESIAN_POINT('Line Origine',(-342.,1096.,427.)) ;
#262=CARTESIAN_POINT('Vertex',(-342.,1096.,334.)) ;
#265=CARTESIAN_POINT('Line Origine',(-342.,1091.,334.)) ;
#269=CARTESIAN_POINT('Vertex',(-342.,1086.,334.)) ;
#272=CARTESIAN_POINT('Axis2P3D Location',(-342.,1086.,314.)) ;
#276=CARTESIAN_POINT('Vertex',(-342.,1066.,314.)) ;
#279=CARTESIAN_POINT('Line Origine',(-342.,1066.,309.)) ;
#303=CARTESIAN_POINT('Axis2P3D Location',(0.,1066.,304.)) ;
#308=CARTESIAN_POINT('Line Origine',(-336.,1066.,304.)) ;
#313=CARTESIAN_POINT('Line Origine',(-336.,1066.,314.)) ;
#325=CARTESIAN_POINT('Axis2P3D Location',(-250.,1086.,314.)) ;
#330=CARTESIAN_POINT('Line Origine',(-250.,1086.,334.)) ;
#342=CARTESIAN_POINT('Axis2P3D Location',(0.,1086.,334.)) ;
#347=CARTESIAN_POINT('Line Origine',(-336.,1096.,334.)) ;
#359=CARTESIAN_POINT('Axis2P3D Location',(0.,1096.,334.)) ;
#364=CARTESIAN_POINT('Line Origine',(-336.,1096.,520.)) ;
#376=CARTESIAN_POINT('Axis2P3D Location',(0.,1096.,520.)) ;
#381=CARTESIAN_POINT('Line Origine',(-336.,1076.,520.)) ;
#393=CARTESIAN_POINT('Axis2P3D Location',(0.,1076.,520.)) ;
#398=CARTESIAN_POINT('Line Origine',(-336.,1076.,505.)) ;
#410=CARTESIAN_POINT('Axis2P3D Location',(-250.,1061.,505.)) ;
#415=CARTESIAN_POINT('Line Origine',(-250.,1061.,490.)) ;
#427=CARTESIAN_POINT('Axis2P3D Location',(0.,1061.,490.)) ;
#432=CARTESIAN_POINT('Line Origine',(-336.,965.,490.)) ;
#444=CARTESIAN_POINT('Axis2P3D Location',(-250.,965.,505.)) ;
#449=CARTESIAN_POINT('Line Origine',(-250.,950.,505.)) ;
#461=CARTESIAN_POINT('Axis2P3D Location',(0.,950.,505.)) ;
#466=CARTESIAN_POINT('Line Origine',(-336.,950.,520.)) ;
#478=CARTESIAN_POINT('Line Origine',(-336.,930.,520.)) ;
#490=CARTESIAN_POINT('Axis2P3D Location',(0.,930.,520.)) ;
#495=CARTESIAN_POINT('Line Origine',(-336.,930.,334.)) ;
#507=CARTESIAN_POINT('Line Origine',(-336.,940.,334.)) ;
#519=CARTESIAN_POINT('Axis2P3D Location',(-250.,940.,314.)) ;
#524=CARTESIAN_POINT('Line Origine',(-250.,960.,314.)) ;
#536=CARTESIAN_POINT('Axis2P3D Location',(0.,960.,314.)) ;
#541=CARTESIAN_POINT('Line Origine',(-336.,960.,304.)) ;
#553=CARTESIAN_POINT('Axis2P3D Location',(-330.,0.,304.)) ;
#8=PRODUCT_RELATED_PRODUCT_CATEGORY('part',$,(#5)) ;
#29=STYLED_ITEM(' ',(#28),#21) ;
#28=PRESENTATION_STYLE_ASSIGNMENT((#27)) ;
#27=SURFACE_STYLE_USAGE(.BOTH.,#26) ;
#26=SURFACE_SIDE_STYLE(' ',(#25)) ;
#25=SURFACE_STYLE_FILL_AREA(#24) ;
#24=FILL_AREA_STYLE(' ',(#23)) ;
#23=FILL_AREA_STYLE_COLOUR(' ',#22) ;
#38=VECTOR('Line Direction',#37,1.) ;
#47=VECTOR('Line Direction',#46,1.) ;
#61=VECTOR('Line Direction',#60,1.) ;
#68=VECTOR('Line Direction',#67,1.) ;
#75=VECTOR('Line Direction',#74,1.) ;
#82=VECTOR('Line Direction',#81,1.) ;
#96=VECTOR('Line Direction',#95,1.) ;
#110=VECTOR('Line Direction',#109,1.) ;
#117=VECTOR('Line Direction',#116,1.) ;
#124=VECTOR('Line Direction',#123,1.) ;
#131=VECTOR('Line Direction',#130,1.) ;
#145=VECTOR('Line Direction',#144,1.) ;
#174=VECTOR('Line Direction',#173,1.) ;
#183=VECTOR('Line Direction',#182,1.) ;
#197=VECTOR('Line Direction',#196,1.) ;
#204=VECTOR('Line Direction',#203,1.) ;
#211=VECTOR('Line Direction',#210,1.) ;
#218=VECTOR('Line Direction',#217,1.) ;
#232=VECTOR('Line Direction',#231,1.) ;
#246=VECTOR('Line Direction',#245,1.) ;
#253=VECTOR('Line Direction',#252,1.) ;
#260=VECTOR('Line Direction',#259,1.) ;
#267=VECTOR('Line Direction',#266,1.) ;
#281=VECTOR('Line Direction',#280,1.) ;
#310=VECTOR('Line Direction',#309,1.) ;
#315=VECTOR('Line Direction',#314,1.) ;
#332=VECTOR('Line Direction',#331,1.) ;
#349=VECTOR('Line Direction',#348,1.) ;
#366=VECTOR('Line Direction',#365,1.) ;
#383=VECTOR('Line Direction',#382,1.) ;
#400=VECTOR('Line Direction',#399,1.) ;
#417=VECTOR('Line Direction',#416,1.) ;
#434=VECTOR('Line Direction',#433,1.) ;
#451=VECTOR('Line Direction',#450,1.) ;
#468=VECTOR('Line Direction',#467,1.) ;
#480=VECTOR('Line Direction',#479,1.) ;
#497=VECTOR('Line Direction',#496,1.) ;
#509=VECTOR('Line Direction',#508,1.) ;
#526=VECTOR('Line Direction',#525,1.) ;
#543=VECTOR('Line Direction',#542,1.) ;
#32=DIRECTION('Axis2P3D Direction',(1.,0.,-0.)) ;
#33=DIRECTION('Axis2P3D XDirection',(-0.,0.,-1.)) ;
#37=DIRECTION('Vector Direction',(0.,1.,0.)) ;
#46=DIRECTION('Vector Direction',(0.,0.,1.)) ;
#53=DIRECTION('Axis2P3D Direction',(1.,0.,-0.)) ;
#60=DIRECTION('Vector Direction',(0.,1.,0.)) ;
#67=DIRECTION('Vector Direction',(0.,0.,1.)) ;
#74=DIRECTION('Vector Direction',(0.,-1.,0.)) ;
#81=DIRECTION('Vector Direction',(0.,0.,-1.)) ;
#88=DIRECTION('Axis2P3D Direction',(1.,0.,-0.)) ;
#95=DIRECTION('Vector Direction',(0.,-1.,0.)) ;
#102=DIRECTION('Axis2P3D Direction',(1.,0.,-0.)) ;
#109=DIRECTION('Vector Direction',(0.,0.,1.)) ;
#116=DIRECTION('Vector Direction',(0.,-1.,0.)) ;
#123=DIRECTION('Vector Direction',(0.,0.,-1.)) ;
#130=DIRECTION('Vector Direction',(0.,1.,0.)) ;
#137=DIRECTION('Axis2P3D Direction',(1.,0.,-0.)) ;
#144=DIRECTION('Vector Direction',(0.,0.,1.)) ;
#168=DIRECTION('Axis2P3D Direction',(-1.,0.,0.)) ;
#169=DIRECTION('Axis2P3D XDirection',(0.,0.,1.)) ;
#173=DIRECTION('Vector Direction',(0.,1.,0.)) ;
#182=DIRECTION('Vector Direction',(0.,0.,1.)) ;
#189=DIRECTION('Axis2P3D Direction',(-1.,0.,0.)) ;
#196=DIRECTION('Vector Direction',(0.,1.,0.)) ;
#203=DIRECTION('Vector Direction',(0.,0.,-1.)) ;
#210=DIRECTION('Vector Direction',(0.,-1.,0.)) ;
#217=DIRECTION('Vector Direction',(0.,0.,1.)) ;
#224=DIRECTION('Axis2P3D Direction',(-1.,0.,0.)) ;
#231=DIRECTION('Vector Direction',(0.,-1.,0.)) ;
#238=DIRECTION('Axis2P3D Direction',(-1.,0.,0.)) ;
#245=DIRECTION('Vector Direction',(0.,0.,-1.)) ;
#252=DIRECTION('Vector Direction',(0.,-1.,0.)) ;
#259=DIRECTION('Vector Direction',(0.,0.,1.)) ;
#266=DIRECTION('Vector Direction',(0.,1.,0.)) ;
#273=DIRECTION('Axis2P3D Direction',(-1.,0.,0.)) ;
#280=DIRECTION('Vector Direction',(0.,0.,1.)) ;
#304=DIRECTION('Axis2P3D Direction',(0.,-1.,0.)) ;
#305=DIRECTION('Axis2P3D XDirection',(0.,0.,1.)) ;
#309=DIRECTION('Vector Direction',(-1.,0.,0.)) ;
#314=DIRECTION('Vector Direction',(-1.,0.,0.)) ;
#326=DIRECTION('Axis2P3D Direction',(1.,0.,0.)) ;
#327=DIRECTION('Axis2P3D XDirection',(0.,6.12323399574E-017,1.)) ;
#331=DIRECTION('Vector Direction',(1.,0.,0.)) ;
#343=DIRECTION('Axis2P3D Direction',(0.,-0.,1.)) ;
#344=DIRECTION('Axis2P3D XDirection',(0.,1.,0.)) ;
#348=DIRECTION('Vector Direction',(-1.,0.,0.)) ;
#360=DIRECTION('Axis2P3D Direction',(0.,-1.,0.)) ;
#361=DIRECTION('Axis2P3D XDirection',(0.,0.,1.)) ;
#365=DIRECTION('Vector Direction',(-1.,0.,0.)) ;
#377=DIRECTION('Axis2P3D Direction',(-0.,-0.,-1.)) ;
#378=DIRECTION('Axis2P3D XDirection',(0.,-1.,0.)) ;
#382=DIRECTION('Vector Direction',(-1.,0.,0.)) ;
#394=DIRECTION('Axis2P3D Direction',(0.,1.,0.)) ;
#395=DIRECTION('Axis2P3D XDirection',(0.,0.,-1.)) ;
#399=DIRECTION('Vector Direction',(-1.,0.,0.)) ;
#411=DIRECTION('Axis2P3D Direction',(1.,0.,0.)) ;
#412=DIRECTION('Axis2P3D XDirection',(-0.,-1.83697019872E-016,-1.)) ;
#416=DIRECTION('Vector Direction',(1.,0.,0.)) ;
#428=DIRECTION('Axis2P3D Direction',(-0.,-0.,-1.)) ;
#429=DIRECTION('Axis2P3D XDirection',(0.,-1.,0.)) ;
#433=DIRECTION('Vector Direction',(-1.,0.,0.)) ;
#445=DIRECTION('Axis2P3D Direction',(1.,0.,0.)) ;
#446=DIRECTION('Axis2P3D XDirection',(0.,-1.,5.66553889765E-016)) ;
#450=DIRECTION('Vector Direction',(1.,0.,0.)) ;
#462=DIRECTION('Axis2P3D Direction',(0.,-1.,0.)) ;
#463=DIRECTION('Axis2P3D XDirection',(0.,0.,1.)) ;
#467=DIRECTION('Vector Direction',(-1.,0.,0.)) ;
#479=DIRECTION('Vector Direction',(-1.,0.,0.)) ;
#491=DIRECTION('Axis2P3D Direction',(0.,1.,0.)) ;
#492=DIRECTION('Axis2P3D XDirection',(0.,0.,-1.)) ;
#496=DIRECTION('Vector Direction',(-1.,0.,0.)) ;
#508=DIRECTION('Vector Direction',(-1.,0.,0.)) ;
#520=DIRECTION('Axis2P3D Direction',(1.,0.,0.)) ;
#521=DIRECTION('Axis2P3D XDirection',(0.,1.,0.)) ;
#525=DIRECTION('Vector Direction',(1.,0.,0.)) ;
#537=DIRECTION('Axis2P3D Direction',(0.,1.,0.)) ;
#538=DIRECTION('Axis2P3D XDirection',(0.,0.,-1.)) ;
#542=DIRECTION('Vector Direction',(-1.,0.,0.)) ;
#554=DIRECTION('Axis2P3D Direction',(0.,0.,-1.)) ;
#555=DIRECTION('Axis2P3D XDirection',(-1.,0.,0.)) ;
#15=UNCERTAINTY_MEASURE_WITH_UNIT(LENGTH_MEASURE(0.005),#12,'distance_accuracy_value','CONFUSED CURVE UNCERTAINTY') ;
#18=AXIS2_PLACEMENT_3D(' ',#17,$,$) ;
#34=AXIS2_PLACEMENT_3D('Plane Axis2P3D',#31,#32,#33) ;
#54=AXIS2_PLACEMENT_3D('Circle Axis2P3D',#52,#53,$) ;
#89=AXIS2_PLACEMENT_3D('Circle Axis2P3D',#87,#88,$) ;
#103=AXIS2_PLACEMENT_3D('Circle Axis2P3D',#101,#102,$) ;
#138=AXIS2_PLACEMENT_3D('Circle Axis2P3D',#136,#137,$) ;
#170=AXIS2_PLACEMENT_3D('Plane Axis2P3D',#167,#168,#169) ;
#190=AXIS2_PLACEMENT_3D('Circle Axis2P3D',#188,#189,$) ;
#225=AXIS2_PLACEMENT_3D('Circle Axis2P3D',#223,#224,$) ;
#239=AXIS2_PLACEMENT_3D('Circle Axis2P3D',#237,#238,$) ;
#274=AXIS2_PLACEMENT_3D('Circle Axis2P3D',#272,#273,$) ;
#306=AXIS2_PLACEMENT_3D('Plane Axis2P3D',#303,#304,#305) ;
#328=AXIS2_PLACEMENT_3D('Cylinder Axis2P3D',#325,#326,#327) ;
#345=AXIS2_PLACEMENT_3D('Plane Axis2P3D',#342,#343,#344) ;
#362=AXIS2_PLACEMENT_3D('Plane Axis2P3D',#359,#360,#361) ;
#379=AXIS2_PLACEMENT_3D('Plane Axis2P3D',#376,#377,#378) ;
#396=AXIS2_PLACEMENT_3D('Plane Axis2P3D',#393,#394,#395) ;
#413=AXIS2_PLACEMENT_3D('Cylinder Axis2P3D',#410,#411,#412) ;
#430=AXIS2_PLACEMENT_3D('Plane Axis2P3D',#427,#428,#429) ;
#447=AXIS2_PLACEMENT_3D('Cylinder Axis2P3D',#444,#445,#446) ;
#464=AXIS2_PLACEMENT_3D('Plane Axis2P3D',#461,#462,#463) ;
#493=AXIS2_PLACEMENT_3D('Plane Axis2P3D',#490,#491,#492) ;
#522=AXIS2_PLACEMENT_3D('Cylinder Axis2P3D',#519,#520,#521) ;
#539=AXIS2_PLACEMENT_3D('Plane Axis2P3D',#536,#537,#538) ;
#556=AXIS2_PLACEMENT_3D('Plane Axis2P3D',#553,#554,#555) ;
#39=LINE('Line',#36,#38) ;
#48=LINE('Line',#45,#47) ;
#62=LINE('Line',#59,#61) ;
#69=LINE('Line',#66,#68) ;
#76=LINE('Line',#73,#75) ;
#83=LINE('Line',#80,#82) ;
#97=LINE('Line',#94,#96) ;
#111=LINE('Line',#108,#110) ;
#118=LINE('Line',#115,#117) ;
#125=LINE('Line',#122,#124) ;
#132=LINE('Line',#129,#131) ;
#146=LINE('Line',#143,#145) ;
#175=LINE('Line',#172,#174) ;
#184=LINE('Line',#181,#183) ;
#198=LINE('Line',#195,#197) ;
#205=LINE('Line',#202,#204) ;
#212=LINE('Line',#209,#211) ;
#219=LINE('Line',#216,#218) ;
#233=LINE('Line',#230,#232) ;
#247=LINE('Line',#244,#246) ;
#254=LINE('Line',#251,#253) ;
#261=LINE('Line',#258,#260) ;
#268=LINE('Line',#265,#267) ;
#282=LINE('Line',#279,#281) ;
#311=LINE('Line',#308,#310) ;
#316=LINE('Line',#313,#315) ;
#333=LINE('Line',#330,#332) ;
#350=LINE('Line',#347,#349) ;
#367=LINE('Line',#364,#366) ;
#384=LINE('Line',#381,#383) ;
#401=LINE('Line',#398,#400) ;
#418=LINE('Line',#415,#417) ;
#435=LINE('Line',#432,#434) ;
#452=LINE('Line',#449,#451) ;
#469=LINE('Line',#466,#468) ;
#481=LINE('Line',#478,#480) ;
#498=LINE('Line',#495,#497) ;
#510=LINE('Line',#507,#509) ;
#527=LINE('Line',#524,#526) ;
#544=LINE('Line',#541,#543) ;
#55=CIRCLE('generated circle',#54,20.) ;
#90=CIRCLE('generated circle',#89,15.) ;
#104=CIRCLE('generated circle',#103,15.) ;
#139=CIRCLE('generated circle',#138,20.) ;
#191=CIRCLE('generated circle',#190,20.) ;
#226=CIRCLE('generated circle',#225,15.) ;
#240=CIRCLE('generated circle',#239,15.) ;
#275=CIRCLE('generated circle',#274,20.) ;
#35=PLANE('',#34) ;
#171=PLANE('',#170) ;
#307=PLANE('',#306) ;
#346=PLANE('',#345) ;
#363=PLANE('',#362) ;
#380=PLANE('',#379) ;
#397=PLANE('',#396) ;
#431=PLANE('',#430) ;
#465=PLANE('',#464) ;
#494=PLANE('',#493) ;
#540=PLANE('',#539) ;
#557=PLANE('',#556) ;
#329=CYLINDRICAL_SURFACE('generated cylinder',#328,20.) ;
#414=CYLINDRICAL_SURFACE('generated cylinder',#413,15.) ;
#448=CYLINDRICAL_SURFACE('generated cylinder',#447,15.) ;
#523=CYLINDRICAL_SURFACE('generated cylinder',#522,20.) ;
#44=EDGE_CURVE('',#41,#43,#39,.T.) ;
#51=EDGE_CURVE('',#43,#50,#48,.T.) ;
#58=EDGE_CURVE('',#57,#50,#55,.T.) ;
#65=EDGE_CURVE('',#57,#64,#62,.T.) ;
#72=EDGE_CURVE('',#64,#71,#69,.T.) ;
#79=EDGE_CURVE('',#71,#78,#76,.T.) ;
#86=EDGE_CURVE('',#78,#85,#83,.T.) ;
#93=EDGE_CURVE('',#92,#85,#90,.T.) ;
#100=EDGE_CURVE('',#92,#99,#97,.T.) ;
#107=EDGE_CURVE('',#106,#99,#104,.T.) ;
#114=EDGE_CURVE('',#106,#113,#111,.T.) ;
#121=EDGE_CURVE('',#113,#120,#118,.T.) ;
#128=EDGE_CURVE('',#120,#127,#125,.T.) ;
#135=EDGE_CURVE('',#127,#134,#132,.T.) ;
#142=EDGE_CURVE('',#141,#134,#139,.T.) ;
#147=EDGE_CURVE('',#41,#141,#146,.T.) ;
#180=EDGE_CURVE('',#177,#179,#175,.T.) ;
#187=EDGE_CURVE('',#177,#186,#184,.T.) ;
#194=EDGE_CURVE('',#193,#186,#191,.T.) ;
#201=EDGE_CURVE('',#200,#193,#198,.T.) ;
#208=EDGE_CURVE('',#207,#200,#205,.T.) ;
#215=EDGE_CURVE('',#214,#207,#212,.T.) ;
#222=EDGE_CURVE('',#221,#214,#219,.T.) ;
#229=EDGE_CURVE('',#228,#221,#226,.T.) ;
#236=EDGE_CURVE('',#235,#228,#233,.T.) ;
#243=EDGE_CURVE('',#242,#235,#240,.T.) ;
#250=EDGE_CURVE('',#249,#242,#247,.T.) ;
#257=EDGE_CURVE('',#256,#249,#254,.T.) ;
#264=EDGE_CURVE('',#263,#256,#261,.T.) ;
#271=EDGE_CURVE('',#270,#263,#268,.T.) ;
#278=EDGE_CURVE('',#277,#270,#275,.T.) ;
#283=EDGE_CURVE('',#179,#277,#282,.T.) ;
#312=EDGE_CURVE('',#43,#179,#311,.T.) ;
#317=EDGE_CURVE('',#50,#277,#316,.T.) ;
#334=EDGE_CURVE('',#57,#270,#333,.F.) ;
#351=EDGE_CURVE('',#64,#263,#350,.T.) ;
#368=EDGE_CURVE('',#71,#256,#367,.T.) ;
#385=EDGE_CURVE('',#78,#249,#384,.T.) ;
#402=EDGE_CURVE('',#85,#242,#401,.T.) ;
#419=EDGE_CURVE('',#92,#235,#418,.F.) ;
#436=EDGE_CURVE('',#99,#228,#435,.T.) ;
#453=EDGE_CURVE('',#106,#221,#452,.F.) ;
#470=EDGE_CURVE('',#113,#214,#469,.T.) ;
#482=EDGE_CURVE('',#120,#207,#481,.T.) ;
#499=EDGE_CURVE('',#127,#200,#498,.T.) ;
#511=EDGE_CURVE('',#134,#193,#510,.T.) ;
#528=EDGE_CURVE('',#141,#186,#527,.F.) ;
#545=EDGE_CURVE('',#41,#177,#544,.T.) ;
#30=CLOSED_SHELL('Closed Shell',(#166,#302,#324,#341,#358,#375,#392,#409,#426,#443,#460,#477,#489,#506,#518,#535,#552,#564)) ;
#566=SHAPE_REPRESENTATION_RELATIONSHIP(' ',' ',#19,#565) ;
#148=EDGE_LOOP('',(#149,#150,#151,#152,#153,#154,#155,#156,#157,#158,#159,#160,#161,#162,#163,#164)) ;
#284=EDGE_LOOP('',(#285,#286,#287,#288,#289,#290,#291,#292,#293,#294,#295,#296,#297,#298,#299,#300)) ;
#318=EDGE_LOOP('',(#319,#320,#321,#322)) ;
#335=EDGE_LOOP('',(#336,#337,#338,#339)) ;
#352=EDGE_LOOP('',(#353,#354,#355,#356)) ;
#369=EDGE_LOOP('',(#370,#371,#372,#373)) ;
#386=EDGE_LOOP('',(#387,#388,#389,#390)) ;
#403=EDGE_LOOP('',(#404,#405,#406,#407)) ;
#420=EDGE_LOOP('',(#421,#422,#423,#424)) ;
#437=EDGE_LOOP('',(#438,#439,#440,#441)) ;
#454=EDGE_LOOP('',(#455,#456,#457,#458)) ;
#471=EDGE_LOOP('',(#472,#473,#474,#475)) ;
#483=EDGE_LOOP('',(#484,#485,#486,#487)) ;
#500=EDGE_LOOP('',(#501,#502,#503,#504)) ;
#512=EDGE_LOOP('',(#513,#514,#515,#516)) ;
#529=EDGE_LOOP('',(#530,#531,#532,#533)) ;
#546=EDGE_LOOP('',(#547,#548,#549,#550)) ;
#558=EDGE_LOOP('',(#559,#560,#561,#562)) ;
#149=ORIENTED_EDGE('',*,*,#44,.T.) ;
#150=ORIENTED_EDGE('',*,*,#51,.T.) ;
#151=ORIENTED_EDGE('',*,*,#58,.F.) ;
#152=ORIENTED_EDGE('',*,*,#65,.T.) ;
#153=ORIENTED_EDGE('',*,*,#72,.T.) ;
#154=ORIENTED_EDGE('',*,*,#79,.T.) ;
#155=ORIENTED_EDGE('',*,*,#86,.T.) ;
#156=ORIENTED_EDGE('',*,*,#93,.F.) ;
#157=ORIENTED_EDGE('',*,*,#100,.T.) ;
#158=ORIENTED_EDGE('',*,*,#107,.F.) ;
#159=ORIENTED_EDGE('',*,*,#114,.T.) ;
#160=ORIENTED_EDGE('',*,*,#121,.T.) ;
#161=ORIENTED_EDGE('',*,*,#128,.T.) ;
#162=ORIENTED_EDGE('',*,*,#135,.T.) ;
#163=ORIENTED_EDGE('',*,*,#142,.F.) ;
#164=ORIENTED_EDGE('',*,*,#147,.F.) ;
#285=ORIENTED_EDGE('',*,*,#180,.F.) ;
#286=ORIENTED_EDGE('',*,*,#187,.T.) ;
#287=ORIENTED_EDGE('',*,*,#194,.F.) ;
#288=ORIENTED_EDGE('',*,*,#201,.F.) ;
#289=ORIENTED_EDGE('',*,*,#208,.F.) ;
#290=ORIENTED_EDGE('',*,*,#215,.F.) ;
#291=ORIENTED_EDGE('',*,*,#222,.F.) ;
#292=ORIENTED_EDGE('',*,*,#229,.F.) ;
#293=ORIENTED_EDGE('',*,*,#236,.F.) ;
#294=ORIENTED_EDGE('',*,*,#243,.F.) ;
#295=ORIENTED_EDGE('',*,*,#250,.F.) ;
#296=ORIENTED_EDGE('',*,*,#257,.F.) ;
#297=ORIENTED_EDGE('',*,*,#264,.F.) ;
#298=ORIENTED_EDGE('',*,*,#271,.F.) ;
#299=ORIENTED_EDGE('',*,*,#278,.F.) ;
#300=ORIENTED_EDGE('',*,*,#283,.F.) ;
#319=ORIENTED_EDGE('',*,*,#312,.T.) ;
#320=ORIENTED_EDGE('',*,*,#283,.T.) ;
#321=ORIENTED_EDGE('',*,*,#317,.F.) ;
#322=ORIENTED_EDGE('',*,*,#51,.F.) ;
#336=ORIENTED_EDGE('',*,*,#317,.T.) ;
#337=ORIENTED_EDGE('',*,*,#278,.T.) ;
#338=ORIENTED_EDGE('',*,*,#334,.F.) ;
#339=ORIENTED_EDGE('',*,*,#58,.T.) ;
#353=ORIENTED_EDGE('',*,*,#334,.T.) ;
#354=ORIENTED_EDGE('',*,*,#271,.T.) ;
#355=ORIENTED_EDGE('',*,*,#351,.F.) ;
#356=ORIENTED_EDGE('',*,*,#65,.F.) ;
#370=ORIENTED_EDGE('',*,*,#351,.T.) ;
#371=ORIENTED_EDGE('',*,*,#264,.T.) ;
#372=ORIENTED_EDGE('',*,*,#368,.F.) ;
#373=ORIENTED_EDGE('',*,*,#72,.F.) ;
#387=ORIENTED_EDGE('',*,*,#368,.T.) ;
#388=ORIENTED_EDGE('',*,*,#257,.T.) ;
#389=ORIENTED_EDGE('',*,*,#385,.F.) ;
#390=ORIENTED_EDGE('',*,*,#79,.F.) ;
#404=ORIENTED_EDGE('',*,*,#385,.T.) ;
#405=ORIENTED_EDGE('',*,*,#250,.T.) ;
#406=ORIENTED_EDGE('',*,*,#402,.F.) ;
#407=ORIENTED_EDGE('',*,*,#86,.F.) ;
#421=ORIENTED_EDGE('',*,*,#402,.T.) ;
#422=ORIENTED_EDGE('',*,*,#243,.T.) ;
#423=ORIENTED_EDGE('',*,*,#419,.F.) ;
#424=ORIENTED_EDGE('',*,*,#93,.T.) ;
#438=ORIENTED_EDGE('',*,*,#419,.T.) ;
#439=ORIENTED_EDGE('',*,*,#236,.T.) ;
#440=ORIENTED_EDGE('',*,*,#436,.F.) ;
#441=ORIENTED_EDGE('',*,*,#100,.F.) ;
#455=ORIENTED_EDGE('',*,*,#436,.T.) ;
#456=ORIENTED_EDGE('',*,*,#229,.T.) ;
#457=ORIENTED_EDGE('',*,*,#453,.F.) ;
#458=ORIENTED_EDGE('',*,*,#107,.T.) ;
#472=ORIENTED_EDGE('',*,*,#453,.T.) ;
#473=ORIENTED_EDGE('',*,*,#222,.T.) ;
#474=ORIENTED_EDGE('',*,*,#470,.F.) ;
#475=ORIENTED_EDGE('',*,*,#114,.F.) ;
#484=ORIENTED_EDGE('',*,*,#470,.T.) ;
#485=ORIENTED_EDGE('',*,*,#215,.T.) ;
#486=ORIENTED_EDGE('',*,*,#482,.F.) ;
#487=ORIENTED_EDGE('',*,*,#121,.F.) ;
#501=ORIENTED_EDGE('',*,*,#482,.T.) ;
#502=ORIENTED_EDGE('',*,*,#208,.T.) ;
#503=ORIENTED_EDGE('',*,*,#499,.F.) ;
#504=ORIENTED_EDGE('',*,*,#128,.F.) ;
#513=ORIENTED_EDGE('',*,*,#499,.T.) ;
#514=ORIENTED_EDGE('',*,*,#201,.T.) ;
#515=ORIENTED_EDGE('',*,*,#511,.F.) ;
#516=ORIENTED_EDGE('',*,*,#135,.F.) ;
#530=ORIENTED_EDGE('',*,*,#511,.T.) ;
#531=ORIENTED_EDGE('',*,*,#194,.T.) ;
#532=ORIENTED_EDGE('',*,*,#528,.F.) ;
#533=ORIENTED_EDGE('',*,*,#142,.T.) ;
#547=ORIENTED_EDGE('',*,*,#528,.T.) ;
#548=ORIENTED_EDGE('',*,*,#187,.F.) ;
#549=ORIENTED_EDGE('',*,*,#545,.F.) ;
#550=ORIENTED_EDGE('',*,*,#147,.T.) ;
#559=ORIENTED_EDGE('',*,*,#44,.F.) ;
#560=ORIENTED_EDGE('',*,*,#545,.T.) ;
#561=ORIENTED_EDGE('',*,*,#180,.T.) ;
#562=ORIENTED_EDGE('',*,*,#312,.F.) ;
#21=MANIFOLD_SOLID_BREP('Corps principal',#30) ;
#41=VERTEX_POINT('',#40) ;
#43=VERTEX_POINT('',#42) ;
#50=VERTEX_POINT('',#49) ;
#57=VERTEX_POINT('',#56) ;
#64=VERTEX_POINT('',#63) ;
#71=VERTEX_POINT('',#70) ;
#78=VERTEX_POINT('',#77) ;
#85=VERTEX_POINT('',#84) ;
#92=VERTEX_POINT('',#91) ;
#99=VERTEX_POINT('',#98) ;
#106=VERTEX_POINT('',#105) ;
#113=VERTEX_POINT('',#112) ;
#120=VERTEX_POINT('',#119) ;
#127=VERTEX_POINT('',#126) ;
#134=VERTEX_POINT('',#133) ;
#141=VERTEX_POINT('',#140) ;
#177=VERTEX_POINT('',#176) ;
#179=VERTEX_POINT('',#178) ;
#186=VERTEX_POINT('',#185) ;
#193=VERTEX_POINT('',#192) ;
#200=VERTEX_POINT('',#199) ;
#207=VERTEX_POINT('',#206) ;
#214=VERTEX_POINT('',#213) ;
#221=VERTEX_POINT('',#220) ;
#228=VERTEX_POINT('',#227) ;
#235=VERTEX_POINT('',#234) ;
#242=VERTEX_POINT('',#241) ;
#249=VERTEX_POINT('',#248) ;
#256=VERTEX_POINT('',#255) ;
#263=VERTEX_POINT('',#262) ;
#270=VERTEX_POINT('',#269) ;
#277=VERTEX_POINT('',#276) ;
#565=ADVANCED_BREP_SHAPE_REPRESENTATION('NONE',(#21),#16) ;
#166=ADVANCED_FACE('Corps principal',(#165),#35,.T.) ;
#302=ADVANCED_FACE('Corps principal',(#301),#171,.T.) ;
#324=ADVANCED_FACE('Corps principal',(#323),#307,.F.) ;
#341=ADVANCED_FACE('Corps principal',(#340),#329,.F.) ;
#358=ADVANCED_FACE('Corps principal',(#357),#346,.F.) ;
#375=ADVANCED_FACE('Corps principal',(#374),#363,.F.) ;
#392=ADVANCED_FACE('Corps principal',(#391),#380,.F.) ;
#409=ADVANCED_FACE('Corps principal',(#408),#397,.F.) ;
#426=ADVANCED_FACE('Corps principal',(#425),#414,.F.) ;
#443=ADVANCED_FACE('Corps principal',(#442),#431,.F.) ;
#460=ADVANCED_FACE('Corps principal',(#459),#448,.F.) ;
#477=ADVANCED_FACE('Corps principal',(#476),#465,.F.) ;
#489=ADVANCED_FACE('Corps principal',(#488),#380,.F.) ;
#506=ADVANCED_FACE('Corps principal',(#505),#494,.F.) ;
#518=ADVANCED_FACE('Corps principal',(#517),#346,.F.) ;
#535=ADVANCED_FACE('Corps principal',(#534),#523,.F.) ;
#552=ADVANCED_FACE('Corps principal',(#551),#540,.F.) ;
#564=ADVANCED_FACE('Corps principal',(#563),#557,.T.) ;
#4=APPLICATION_PROTOCOL_DEFINITION('international standard','ap242_managed_model_based_3d_engineering',2014,#1) ;
#22=COLOUR_RGB('Colour',0.823529411765,0.823529411765,1.) ;
#165=FACE_OUTER_BOUND('',#148,.T.) ;
#301=FACE_OUTER_BOUND('',#284,.T.) ;
#323=FACE_OUTER_BOUND('',#318,.T.) ;
#340=FACE_OUTER_BOUND('',#335,.T.) ;
#357=FACE_OUTER_BOUND('',#352,.T.) ;
#374=FACE_OUTER_BOUND('',#369,.T.) ;
#391=FACE_OUTER_BOUND('',#386,.T.) ;
#408=FACE_OUTER_BOUND('',#403,.T.) ;
#425=FACE_OUTER_BOUND('',#420,.T.) ;
#442=FACE_OUTER_BOUND('',#437,.T.) ;
#459=FACE_OUTER_BOUND('',#454,.T.) ;
#476=FACE_OUTER_BOUND('',#471,.T.) ;
#488=FACE_OUTER_BOUND('',#483,.T.) ;
#505=FACE_OUTER_BOUND('',#500,.T.) ;
#517=FACE_OUTER_BOUND('',#512,.T.) ;
#534=FACE_OUTER_BOUND('',#529,.T.) ;
#551=FACE_OUTER_BOUND('',#546,.T.) ;
#563=FACE_OUTER_BOUND('',#558,.T.) ;
#9=PRODUCT_CATEGORY_RELATIONSHIP(' ',' ',#7,#8) ;
#6=PRODUCT_DEFINITION_FORMATION_WITH_SPECIFIED_SOURCE('--A',' ',#5,.NOT_KNOWN.) ;
#20=SHAPE_DEFINITION_REPRESENTATION(#11,#19) ;
#12=(LENGTH_UNIT()NAMED_UNIT(*)SI_UNIT(.MILLI.,.METRE.)) ;
#13=(NAMED_UNIT(*)PLANE_ANGLE_UNIT()SI_UNIT($,.RADIAN.)) ;
#14=(NAMED_UNIT(*)SI_UNIT($,.STERADIAN.)SOLID_ANGLE_UNIT()) ;
#16=(GEOMETRIC_REPRESENTATION_CONTEXT(3)GLOBAL_UNCERTAINTY_ASSIGNED_CONTEXT((#15))GLOBAL_UNIT_ASSIGNED_CONTEXT((#12,#13,#14))REPRESENTATION_CONTEXT(' ',' ')) ;
ENDSEC;
END-ISO-10303-21;
