ISO-10303-21;
HEADER;
FILE_DESCRIPTION(('CATIA V5 STEP Exchange','CAx-IF Rec.Pracs.--- Model Styling and Organization---1.4--- 2014-01-23','CAx-IF Rec.Pracs.---Representation and Presentation of Product Manufacturing Information (PMI)---4.0---2014-10-13','CAx-IF Rec.Pracs.---3D Tessellated Data Validation Properties---0.5---2014-09-14'),'2;1');

FILE_NAME('V:\\catia\\priv\\e_dmacia\\Laura\\step au 14-12-2023\\M3D-217571_--A_CATPART_1.stp','2023-12-14T15:14:23+00:00',('none'),('none'),'CATIA Version 5-6 Release 2016 SP5 HF64','CATIA V5 STEP AP242','none');

FILE_SCHEMA(('AP242_MANAGED_MODEL_BASED_3D_ENGINEERING_MIM_LF  {1 0 10303 442 1 1 4}'));

ENDSEC;
DATA;
#5=PRODUCT('M3D-217571','','LIFTING PIN',(#2)) ;
#2=PRODUCT_CONTEXT(' ',#1,'mechanical') ;
#1=APPLICATION_CONTEXT('managed model based 3d engineering') ;
#10=PRODUCT_DEFINITION('MASTER',' ',#6,#3) ;
#3=PRODUCT_DEFINITION_CONTEXT('part definition',#1,' ') ;
#11=PRODUCT_DEFINITION_SHAPE(' ',' ',#10) ;
#458=MECHANICAL_DESIGN_GEOMETRIC_PRESENTATION_REPRESENTATION(' ',(#29),#16) ;
#19=SHAPE_REPRESENTATION(' ',(#18),#16) ;
#7=PRODUCT_CATEGORY('part','specification') ;
#17=CARTESIAN_POINT(' ',(0.,0.,0.)) ;
#31=CARTESIAN_POINT('Axis2P3D Location',(0.,60.9751288694,0.)) ;
#36=CARTESIAN_POINT('Line Origine',(0.299640961628,61.3359727876,0.548489101181)) ;
#40=CARTESIAN_POINT('Vertex',(0.,60.9751288694,0.)) ;
#42=CARTESIAN_POINT('Vertex',(0.599281923255,61.6968167059,1.09697820236)) ;
#45=CARTESIAN_POINT('Axis2P3D Location',(0.,61.6968167059,0.)) ;
#49=CARTESIAN_POINT('Vertex',(-0.599281923255,61.6968167059,-1.09697820236)) ;
#52=CARTESIAN_POINT('Line Origine',(-0.299640961628,61.3359727876,-0.548489101181)) ;
#63=CARTESIAN_POINT('Axis2P3D Location',(0.,61.6968167059,0.)) ;
#74=CARTESIAN_POINT('Axis2P3D Location',(0.,30.4875644346,0.)) ;
#79=CARTESIAN_POINT('Line Origine',(0.599281923255,63.1359727876,1.09697820236)) ;
#83=CARTESIAN_POINT('Vertex',(0.599281923255,64.5751288694,1.09697820236)) ;
#86=CARTESIAN_POINT('Axis2P3D Location',(0.,64.5751288694,0.)) ;
#90=CARTESIAN_POINT('Vertex',(-0.599281923255,64.5751288694,-1.09697820236)) ;
#93=CARTESIAN_POINT('Line Origine',(-0.599281923255,63.1359727876,-1.09697820236)) ;
#105=CARTESIAN_POINT('Axis2P3D Location',(0.,64.5751288694,0.)) ;
#117=CARTESIAN_POINT('Axis2P3D Location',(0.,64.5751288694,0.)) ;
#122=CARTESIAN_POINT('Line Origine',(0.934879800278,65.7875644347,1.71128599569)) ;
#126=CARTESIAN_POINT('Vertex',(1.2704776773,67.,2.32559378901)) ;
#129=CARTESIAN_POINT('Axis2P3D Location',(0.,67.,0.)) ;
#133=CARTESIAN_POINT('Vertex',(-1.2704776773,67.,-2.32559378901)) ;
#136=CARTESIAN_POINT('Line Origine',(-0.934879800278,65.7875644347,-1.71128599569)) ;
#148=CARTESIAN_POINT('Axis2P3D Location',(0.,67.,0.)) ;
#160=CARTESIAN_POINT('Axis2P3D Location',(0.,67.,0.)) ;
#165=CARTESIAN_POINT('Axis2P3D Location',(0.,67.,0.)) ;
#169=CARTESIAN_POINT('Vertex',(5.99281923255,67.,10.9697820236)) ;
#171=CARTESIAN_POINT('Vertex',(-5.99281923255,67.,-10.9697820236)) ;
#174=CARTESIAN_POINT('Line Origine',(6.23253200185,66.5,11.4085733046)) ;
#178=CARTESIAN_POINT('Vertex',(6.47224477116,66.,11.8473645855)) ;
#181=CARTESIAN_POINT('Axis2P3D Location',(0.,66.,0.)) ;
#185=CARTESIAN_POINT('Vertex',(-6.47224477116,66.,-11.8473645855)) ;
#188=CARTESIAN_POINT('Line Origine',(-6.23253200185,66.5,-11.4085733046)) ;
#200=CARTESIAN_POINT('Axis2P3D Location',(0.,67.,0.)) ;
#205=CARTESIAN_POINT('Axis2P3D Location',(0.,66.,0.)) ;
#217=CARTESIAN_POINT('Axis2P3D Location',(0.,30.4875644346,0.)) ;
#222=CARTESIAN_POINT('Line Origine',(6.47224477116,49.5532199807,11.8473645855)) ;
#226=CARTESIAN_POINT('Vertex',(6.47224477116,33.1064399614,11.8473645855)) ;
#229=CARTESIAN_POINT('Axis2P3D Location',(0.,33.1064399614,0.)) ;
#233=CARTESIAN_POINT('Vertex',(-6.47224477116,33.1064399614,-11.8473645855)) ;
#236=CARTESIAN_POINT('Line Origine',(-6.47224477116,49.5532199807,-11.8473645855)) ;
#248=CARTESIAN_POINT('Axis2P3D Location',(0.,33.1064399614,0.)) ;
#260=CARTESIAN_POINT('Axis2P3D Location',(0.,33.1064399614,0.)) ;
#265=CARTESIAN_POINT('Axis2P3D Location',(14.1430533888,33.1064399614,25.8886855758)) ;
#269=CARTESIAN_POINT('Vertex',(6.7336212365,28.9653352398,12.3258109961)) ;
#272=CARTESIAN_POINT('Axis2P3D Location',(0.,28.9653352398,0.)) ;
#276=CARTESIAN_POINT('Vertex',(-6.7336212365,28.9653352398,-12.3258109961)) ;
#279=CARTESIAN_POINT('Axis2P3D Location',(-14.1430533888,33.1064399614,-25.8886855758)) ;
#291=CARTESIAN_POINT('Axis2P3D Location',(0.,28.9653352398,0.)) ;
#303=CARTESIAN_POINT('Axis2P3D Location',(0.,28.9653352398,0.)) ;
#308=CARTESIAN_POINT('Line Origine',(7.57121299432,22.4451673628,13.8590124246)) ;
#312=CARTESIAN_POINT('Vertex',(8.40880475215,15.9249994859,15.3922138531)) ;
#315=CARTESIAN_POINT('Axis2P3D Location',(0.,15.9249994859,0.)) ;
#319=CARTESIAN_POINT('Vertex',(-8.40880475215,15.9249994859,-15.3922138531)) ;
#322=CARTESIAN_POINT('Line Origine',(-7.57121299432,22.4451673628,-13.8590124246)) ;
#334=CARTESIAN_POINT('Axis2P3D Location',(0.,15.9249994859,0.)) ;
#346=CARTESIAN_POINT('Axis2P3D Location',(0.,17.9955518467,0.)) ;
#351=CARTESIAN_POINT('Axis2P3D Location',(12.1135208283,17.9955518467,22.1736511429)) ;
#355=CARTESIAN_POINT('Vertex',(11.9856384651,10.,21.9395640473)) ;
#358=CARTESIAN_POINT('Axis2P3D Location',(0.,10.,0.)) ;
#362=CARTESIAN_POINT('Vertex',(-11.9856384651,10.,-21.9395640473)) ;
#365=CARTESIAN_POINT('Axis2P3D Location',(-12.1135208283,17.9955518467,-22.1736511429)) ;
#377=CARTESIAN_POINT('Axis2P3D Location',(0.,10.,0.)) ;
#389=CARTESIAN_POINT('Axis2P3D Location',(0.,30.4875644346,0.)) ;
#394=CARTESIAN_POINT('Line Origine',(11.9856384651,5.,21.9395640473)) ;
#398=CARTESIAN_POINT('Vertex',(11.9856384651,-3.5527136788E-015,21.9395640473)) ;
#401=CARTESIAN_POINT('Axis2P3D Location',(0.,0.,0.)) ;
#405=CARTESIAN_POINT('Vertex',(-11.9856384651,-3.5527136788E-015,-21.9395640473)) ;
#408=CARTESIAN_POINT('Line Origine',(-11.9856384651,5.,-21.9395640473)) ;
#420=CARTESIAN_POINT('Axis2P3D Location',(0.,0.,0.)) ;
#432=CARTESIAN_POINT('Axis2P3D Location',(0.,67.,12.5)) ;
#446=CARTESIAN_POINT('Axis2P3D Location',(0.,0.,0.)) ;
#8=PRODUCT_RELATED_PRODUCT_CATEGORY('part',$,(#5)) ;
#29=STYLED_ITEM(' ',(#28),#21) ;
#28=PRESENTATION_STYLE_ASSIGNMENT((#27)) ;
#27=SURFACE_STYLE_USAGE(.BOTH.,#26) ;
#26=SURFACE_SIDE_STYLE(' ',(#25)) ;
#25=SURFACE_STYLE_FILL_AREA(#24) ;
#24=FILL_AREA_STYLE(' ',(#23)) ;
#23=FILL_AREA_STYLE_COLOUR(' ',#22) ;
#38=VECTOR('Line Direction',#37,1.) ;
#54=VECTOR('Line Direction',#53,1.) ;
#81=VECTOR('Line Direction',#80,1.) ;
#95=VECTOR('Line Direction',#94,1.) ;
#124=VECTOR('Line Direction',#123,1.) ;
#138=VECTOR('Line Direction',#137,1.) ;
#176=VECTOR('Line Direction',#175,1.) ;
#190=VECTOR('Line Direction',#189,1.) ;
#224=VECTOR('Line Direction',#223,1.) ;
#238=VECTOR('Line Direction',#237,1.) ;
#310=VECTOR('Line Direction',#309,1.) ;
#324=VECTOR('Line Direction',#323,1.) ;
#396=VECTOR('Line Direction',#395,1.) ;
#410=VECTOR('Line Direction',#409,1.) ;
#32=DIRECTION('Axis2P3D Direction',(0.,1.,0.)) ;
#33=DIRECTION('Axis2P3D XDirection',(0.479425538604,0.,0.87758256189)) ;
#37=DIRECTION('Vector Direction',(0.415194695654,0.5,0.760008792515)) ;
#46=DIRECTION('Axis2P3D Direction',(0.,1.,0.)) ;
#53=DIRECTION('Vector Direction',(-0.415194695654,0.5,-0.760008792515)) ;
#64=DIRECTION('Axis2P3D Direction',(0.,1.,0.)) ;
#75=DIRECTION('Axis2P3D Direction',(0.,1.,0.)) ;
#76=DIRECTION('Axis2P3D XDirection',(0.479425538604,-0.,0.87758256189)) ;
#80=DIRECTION('Vector Direction',(0.,1.,0.)) ;
#87=DIRECTION('Axis2P3D Direction',(0.,1.,0.)) ;
#94=DIRECTION('Vector Direction',(0.,1.,0.)) ;
#106=DIRECTION('Axis2P3D Direction',(0.,1.,0.)) ;
#118=DIRECTION('Axis2P3D Direction',(0.,1.,0.)) ;
#119=DIRECTION('Axis2P3D XDirection',(0.479425538604,0.,0.87758256189)) ;
#123=DIRECTION('Vector Direction',(0.239712769302,0.866025403784,0.438791280945)) ;
#130=DIRECTION('Axis2P3D Direction',(0.,1.,0.)) ;
#137=DIRECTION('Vector Direction',(-0.239712769302,0.866025403784,-0.438791280945)) ;
#149=DIRECTION('Axis2P3D Direction',(0.,1.,0.)) ;
#161=DIRECTION('Axis2P3D Direction',(-0.,-1.,-0.)) ;
#162=DIRECTION('Axis2P3D XDirection',(0.479425538604,0.,0.87758256189)) ;
#166=DIRECTION('Axis2P3D Direction',(0.,-1.,-0.)) ;
#175=DIRECTION('Vector Direction',(0.339005049421,-0.707106781187,0.620544580564)) ;
#182=DIRECTION('Axis2P3D Direction',(0.,-1.,-0.)) ;
#189=DIRECTION('Vector Direction',(-0.339005049421,-0.707106781187,-0.620544580564)) ;
#201=DIRECTION('Axis2P3D Direction',(0.,-1.,-0.)) ;
#206=DIRECTION('Axis2P3D Direction',(0.,-1.,-0.)) ;
#218=DIRECTION('Axis2P3D Direction',(0.,1.,0.)) ;
#219=DIRECTION('Axis2P3D XDirection',(0.479425538604,-0.,0.87758256189)) ;
#223=DIRECTION('Vector Direction',(0.,1.,0.)) ;
#230=DIRECTION('Axis2P3D Direction',(0.,1.,0.)) ;
#237=DIRECTION('Vector Direction',(0.,1.,0.)) ;
#249=DIRECTION('Axis2P3D Direction',(0.,1.,0.)) ;
#261=DIRECTION('Axis2P3D Direction',(0.,1.,0.)) ;
#262=DIRECTION('Axis2P3D XDirection',(0.479425538604,0.,0.87758256189)) ;
#266=DIRECTION('Axis2P3D Direction',(-0.87758256189,0.,0.479425538604)) ;
#273=DIRECTION('Axis2P3D Direction',(0.,1.,0.)) ;
#280=DIRECTION('Axis2P3D Direction',(0.87758256189,0.,-0.479425538604)) ;
#292=DIRECTION('Axis2P3D Direction',(0.,1.,0.)) ;
#304=DIRECTION('Axis2P3D Direction',(-0.,-1.,-0.)) ;
#305=DIRECTION('Axis2P3D XDirection',(0.479425538604,0.,0.87758256189)) ;
#309=DIRECTION('Vector Direction',(0.124084460099,-0.965925826289,0.227135080667)) ;
#316=DIRECTION('Axis2P3D Direction',(0.,-1.,-0.)) ;
#323=DIRECTION('Vector Direction',(-0.124084460099,-0.965925826289,-0.227135080667)) ;
#335=DIRECTION('Axis2P3D Direction',(0.,-1.,-0.)) ;
#347=DIRECTION('Axis2P3D Direction',(0.,1.,0.)) ;
#348=DIRECTION('Axis2P3D XDirection',(0.479425538604,0.,0.87758256189)) ;
#352=DIRECTION('Axis2P3D Direction',(-0.87758256189,0.,0.479425538604)) ;
#359=DIRECTION('Axis2P3D Direction',(0.,1.,0.)) ;
#366=DIRECTION('Axis2P3D Direction',(0.87758256189,0.,-0.479425538604)) ;
#378=DIRECTION('Axis2P3D Direction',(0.,1.,0.)) ;
#390=DIRECTION('Axis2P3D Direction',(0.,1.,0.)) ;
#391=DIRECTION('Axis2P3D XDirection',(0.479425538604,-0.,0.87758256189)) ;
#395=DIRECTION('Vector Direction',(0.,1.,0.)) ;
#402=DIRECTION('Axis2P3D Direction',(0.,1.,0.)) ;
#409=DIRECTION('Vector Direction',(0.,1.,0.)) ;
#421=DIRECTION('Axis2P3D Direction',(0.,1.,0.)) ;
#433=DIRECTION('Axis2P3D Direction',(-0.,1.,0.)) ;
#434=DIRECTION('Axis2P3D XDirection',(1.,0.,0.)) ;
#447=DIRECTION('Axis2P3D Direction',(-0.,1.,0.)) ;
#448=DIRECTION('Axis2P3D XDirection',(1.,0.,0.)) ;
#15=UNCERTAINTY_MEASURE_WITH_UNIT(LENGTH_MEASURE(0.005),#12,'distance_accuracy_value','CONFUSED CURVE UNCERTAINTY') ;
#18=AXIS2_PLACEMENT_3D(' ',#17,$,$) ;
#34=AXIS2_PLACEMENT_3D('Cone Axis2P3D',#31,#32,#33) ;
#47=AXIS2_PLACEMENT_3D('Circle Axis2P3D',#45,#46,$) ;
#65=AXIS2_PLACEMENT_3D('Circle Axis2P3D',#63,#64,$) ;
#77=AXIS2_PLACEMENT_3D('Cylinder Axis2P3D',#74,#75,#76) ;
#88=AXIS2_PLACEMENT_3D('Circle Axis2P3D',#86,#87,$) ;
#107=AXIS2_PLACEMENT_3D('Circle Axis2P3D',#105,#106,$) ;
#120=AXIS2_PLACEMENT_3D('Cone Axis2P3D',#117,#118,#119) ;
#131=AXIS2_PLACEMENT_3D('Circle Axis2P3D',#129,#130,$) ;
#150=AXIS2_PLACEMENT_3D('Circle Axis2P3D',#148,#149,$) ;
#163=AXIS2_PLACEMENT_3D('Cone Axis2P3D',#160,#161,#162) ;
#167=AXIS2_PLACEMENT_3D('Circle Axis2P3D',#165,#166,$) ;
#183=AXIS2_PLACEMENT_3D('Circle Axis2P3D',#181,#182,$) ;
#202=AXIS2_PLACEMENT_3D('Circle Axis2P3D',#200,#201,$) ;
#207=AXIS2_PLACEMENT_3D('Circle Axis2P3D',#205,#206,$) ;
#220=AXIS2_PLACEMENT_3D('Cylinder Axis2P3D',#217,#218,#219) ;
#231=AXIS2_PLACEMENT_3D('Circle Axis2P3D',#229,#230,$) ;
#250=AXIS2_PLACEMENT_3D('Circle Axis2P3D',#248,#249,$) ;
#263=AXIS2_PLACEMENT_3D('Torus Axis2P3D',#260,#261,#262) ;
#267=AXIS2_PLACEMENT_3D('Circle Axis2P3D',#265,#266,$) ;
#274=AXIS2_PLACEMENT_3D('Circle Axis2P3D',#272,#273,$) ;
#281=AXIS2_PLACEMENT_3D('Circle Axis2P3D',#279,#280,$) ;
#293=AXIS2_PLACEMENT_3D('Circle Axis2P3D',#291,#292,$) ;
#306=AXIS2_PLACEMENT_3D('Cone Axis2P3D',#303,#304,#305) ;
#317=AXIS2_PLACEMENT_3D('Circle Axis2P3D',#315,#316,$) ;
#336=AXIS2_PLACEMENT_3D('Circle Axis2P3D',#334,#335,$) ;
#349=AXIS2_PLACEMENT_3D('Torus Axis2P3D',#346,#347,#348) ;
#353=AXIS2_PLACEMENT_3D('Circle Axis2P3D',#351,#352,$) ;
#360=AXIS2_PLACEMENT_3D('Circle Axis2P3D',#358,#359,$) ;
#367=AXIS2_PLACEMENT_3D('Circle Axis2P3D',#365,#366,$) ;
#379=AXIS2_PLACEMENT_3D('Circle Axis2P3D',#377,#378,$) ;
#392=AXIS2_PLACEMENT_3D('Cylinder Axis2P3D',#389,#390,#391) ;
#403=AXIS2_PLACEMENT_3D('Circle Axis2P3D',#401,#402,$) ;
#422=AXIS2_PLACEMENT_3D('Circle Axis2P3D',#420,#421,$) ;
#435=AXIS2_PLACEMENT_3D('Plane Axis2P3D',#432,#433,#434) ;
#449=AXIS2_PLACEMENT_3D('Plane Axis2P3D',#446,#447,#448) ;
#39=LINE('Line',#36,#38) ;
#55=LINE('Line',#52,#54) ;
#82=LINE('Line',#79,#81) ;
#96=LINE('Line',#93,#95) ;
#125=LINE('Line',#122,#124) ;
#139=LINE('Line',#136,#138) ;
#177=LINE('Line',#174,#176) ;
#191=LINE('Line',#188,#190) ;
#225=LINE('Line',#222,#224) ;
#239=LINE('Line',#236,#238) ;
#311=LINE('Line',#308,#310) ;
#325=LINE('Line',#322,#324) ;
#397=LINE('Line',#394,#396) ;
#411=LINE('Line',#408,#410) ;
#48=CIRCLE('generated circle',#47,1.25) ;
#66=CIRCLE('generated circle',#65,1.25) ;
#89=CIRCLE('generated circle',#88,1.25) ;
#108=CIRCLE('generated circle',#107,1.25) ;
#132=CIRCLE('generated circle',#131,2.65) ;
#151=CIRCLE('generated circle',#150,2.65) ;
#168=CIRCLE('generated circle',#167,12.5) ;
#184=CIRCLE('generated circle',#183,13.5) ;
#203=CIRCLE('generated circle',#202,12.5) ;
#208=CIRCLE('generated circle',#207,13.5) ;
#232=CIRCLE('generated circle',#231,13.5) ;
#251=CIRCLE('generated circle',#250,13.5) ;
#268=CIRCLE('generated circle',#267,16.) ;
#275=CIRCLE('generated circle',#274,14.0451867794) ;
#282=CIRCLE('generated circle',#281,16.) ;
#294=CIRCLE('generated circle',#293,14.0451867794) ;
#318=CIRCLE('generated circle',#317,17.5393342137) ;
#337=CIRCLE('generated circle',#336,17.5393342137) ;
#354=CIRCLE('generated circle',#353,8.) ;
#361=CIRCLE('generated circle',#360,25.) ;
#368=CIRCLE('generated circle',#367,8.) ;
#380=CIRCLE('generated circle',#379,25.) ;
#404=CIRCLE('generated circle',#403,25.) ;
#423=CIRCLE('generated circle',#422,25.) ;
#436=PLANE('',#435) ;
#450=PLANE('',#449) ;
#78=CYLINDRICAL_SURFACE('generated cylinder',#77,1.25) ;
#221=CYLINDRICAL_SURFACE('generated cylinder',#220,13.5) ;
#393=CYLINDRICAL_SURFACE('generated cylinder',#392,25.) ;
#35=CONICAL_SURFACE('Cone',#34,0.,1.0471975512) ;
#121=CONICAL_SURFACE('Cone',#120,1.25,0.523598775598) ;
#164=CONICAL_SURFACE('Cone',#163,12.5,0.785398163397) ;
#307=CONICAL_SURFACE('Cone',#306,14.0451867794,0.261799387799) ;
#264=TOROIDAL_SURFACE('homeo Torus',#263,29.5,16.) ;
#350=TOROIDAL_SURFACE('homeo Torus',#349,25.266740824,8.) ;
#444=FACE_BOUND('',#441,.T.) ;
#44=EDGE_CURVE('',#41,#43,#39,.T.) ;
#51=EDGE_CURVE('',#43,#50,#48,.T.) ;
#56=EDGE_CURVE('',#41,#50,#55,.T.) ;
#67=EDGE_CURVE('',#50,#43,#66,.T.) ;
#85=EDGE_CURVE('',#43,#84,#82,.T.) ;
#92=EDGE_CURVE('',#84,#91,#89,.T.) ;
#97=EDGE_CURVE('',#50,#91,#96,.T.) ;
#109=EDGE_CURVE('',#91,#84,#108,.T.) ;
#128=EDGE_CURVE('',#84,#127,#125,.T.) ;
#135=EDGE_CURVE('',#127,#134,#132,.T.) ;
#140=EDGE_CURVE('',#91,#134,#139,.T.) ;
#152=EDGE_CURVE('',#134,#127,#151,.T.) ;
#173=EDGE_CURVE('',#170,#172,#168,.F.) ;
#180=EDGE_CURVE('',#170,#179,#177,.T.) ;
#187=EDGE_CURVE('',#179,#186,#184,.F.) ;
#192=EDGE_CURVE('',#172,#186,#191,.T.) ;
#204=EDGE_CURVE('',#172,#170,#203,.F.) ;
#209=EDGE_CURVE('',#186,#179,#208,.F.) ;
#228=EDGE_CURVE('',#179,#227,#225,.F.) ;
#235=EDGE_CURVE('',#227,#234,#232,.T.) ;
#240=EDGE_CURVE('',#186,#234,#239,.F.) ;
#252=EDGE_CURVE('',#234,#227,#251,.T.) ;
#271=EDGE_CURVE('',#227,#270,#268,.T.) ;
#278=EDGE_CURVE('',#270,#277,#275,.T.) ;
#283=EDGE_CURVE('',#234,#277,#282,.T.) ;
#295=EDGE_CURVE('',#277,#270,#294,.T.) ;
#314=EDGE_CURVE('',#270,#313,#311,.T.) ;
#321=EDGE_CURVE('',#313,#320,#318,.F.) ;
#326=EDGE_CURVE('',#277,#320,#325,.T.) ;
#338=EDGE_CURVE('',#320,#313,#337,.F.) ;
#357=EDGE_CURVE('',#313,#356,#354,.T.) ;
#364=EDGE_CURVE('',#356,#363,#361,.T.) ;
#369=EDGE_CURVE('',#320,#363,#368,.T.) ;
#381=EDGE_CURVE('',#363,#356,#380,.T.) ;
#400=EDGE_CURVE('',#356,#399,#397,.F.) ;
#407=EDGE_CURVE('',#399,#406,#404,.T.) ;
#412=EDGE_CURVE('',#363,#406,#411,.F.) ;
#424=EDGE_CURVE('',#406,#399,#423,.T.) ;
#30=CLOSED_SHELL('Closed Shell',(#62,#73,#104,#116,#147,#159,#199,#216,#247,#259,#290,#302,#333,#345,#376,#388,#419,#431,#445,#455)) ;
#457=SHAPE_REPRESENTATION_RELATIONSHIP(' ',' ',#19,#456) ;
#57=EDGE_LOOP('',(#58,#59,#60)) ;
#68=EDGE_LOOP('',(#69,#70,#71)) ;
#98=EDGE_LOOP('',(#99,#100,#101,#102)) ;
#110=EDGE_LOOP('',(#111,#112,#113,#114)) ;
#141=EDGE_LOOP('',(#142,#143,#144,#145)) ;
#153=EDGE_LOOP('',(#154,#155,#156,#157)) ;
#193=EDGE_LOOP('',(#194,#195,#196,#197)) ;
#210=EDGE_LOOP('',(#211,#212,#213,#214)) ;
#241=EDGE_LOOP('',(#242,#243,#244,#245)) ;
#253=EDGE_LOOP('',(#254,#255,#256,#257)) ;
#284=EDGE_LOOP('',(#285,#286,#287,#288)) ;
#296=EDGE_LOOP('',(#297,#298,#299,#300)) ;
#327=EDGE_LOOP('',(#328,#329,#330,#331)) ;
#339=EDGE_LOOP('',(#340,#341,#342,#343)) ;
#370=EDGE_LOOP('',(#371,#372,#373,#374)) ;
#382=EDGE_LOOP('',(#383,#384,#385,#386)) ;
#413=EDGE_LOOP('',(#414,#415,#416,#417)) ;
#425=EDGE_LOOP('',(#426,#427,#428,#429)) ;
#437=EDGE_LOOP('',(#438,#439)) ;
#441=EDGE_LOOP('',(#442,#443)) ;
#451=EDGE_LOOP('',(#452,#453)) ;
#58=ORIENTED_EDGE('',*,*,#44,.T.) ;
#59=ORIENTED_EDGE('',*,*,#51,.T.) ;
#60=ORIENTED_EDGE('',*,*,#56,.F.) ;
#69=ORIENTED_EDGE('',*,*,#56,.T.) ;
#70=ORIENTED_EDGE('',*,*,#67,.T.) ;
#71=ORIENTED_EDGE('',*,*,#44,.F.) ;
#99=ORIENTED_EDGE('',*,*,#51,.F.) ;
#100=ORIENTED_EDGE('',*,*,#85,.T.) ;
#101=ORIENTED_EDGE('',*,*,#92,.T.) ;
#102=ORIENTED_EDGE('',*,*,#97,.F.) ;
#111=ORIENTED_EDGE('',*,*,#67,.F.) ;
#112=ORIENTED_EDGE('',*,*,#97,.T.) ;
#113=ORIENTED_EDGE('',*,*,#109,.T.) ;
#114=ORIENTED_EDGE('',*,*,#85,.F.) ;
#142=ORIENTED_EDGE('',*,*,#92,.F.) ;
#143=ORIENTED_EDGE('',*,*,#128,.T.) ;
#144=ORIENTED_EDGE('',*,*,#135,.T.) ;
#145=ORIENTED_EDGE('',*,*,#140,.F.) ;
#154=ORIENTED_EDGE('',*,*,#109,.F.) ;
#155=ORIENTED_EDGE('',*,*,#140,.T.) ;
#156=ORIENTED_EDGE('',*,*,#152,.T.) ;
#157=ORIENTED_EDGE('',*,*,#128,.F.) ;
#194=ORIENTED_EDGE('',*,*,#173,.F.) ;
#195=ORIENTED_EDGE('',*,*,#180,.T.) ;
#196=ORIENTED_EDGE('',*,*,#187,.T.) ;
#197=ORIENTED_EDGE('',*,*,#192,.F.) ;
#211=ORIENTED_EDGE('',*,*,#204,.F.) ;
#212=ORIENTED_EDGE('',*,*,#192,.T.) ;
#213=ORIENTED_EDGE('',*,*,#209,.T.) ;
#214=ORIENTED_EDGE('',*,*,#180,.F.) ;
#242=ORIENTED_EDGE('',*,*,#187,.F.) ;
#243=ORIENTED_EDGE('',*,*,#228,.T.) ;
#244=ORIENTED_EDGE('',*,*,#235,.T.) ;
#245=ORIENTED_EDGE('',*,*,#240,.F.) ;
#254=ORIENTED_EDGE('',*,*,#209,.F.) ;
#255=ORIENTED_EDGE('',*,*,#240,.T.) ;
#256=ORIENTED_EDGE('',*,*,#252,.T.) ;
#257=ORIENTED_EDGE('',*,*,#228,.F.) ;
#285=ORIENTED_EDGE('',*,*,#235,.F.) ;
#286=ORIENTED_EDGE('',*,*,#271,.T.) ;
#287=ORIENTED_EDGE('',*,*,#278,.T.) ;
#288=ORIENTED_EDGE('',*,*,#283,.F.) ;
#297=ORIENTED_EDGE('',*,*,#252,.F.) ;
#298=ORIENTED_EDGE('',*,*,#283,.T.) ;
#299=ORIENTED_EDGE('',*,*,#295,.T.) ;
#300=ORIENTED_EDGE('',*,*,#271,.F.) ;
#328=ORIENTED_EDGE('',*,*,#278,.F.) ;
#329=ORIENTED_EDGE('',*,*,#314,.T.) ;
#330=ORIENTED_EDGE('',*,*,#321,.T.) ;
#331=ORIENTED_EDGE('',*,*,#326,.F.) ;
#340=ORIENTED_EDGE('',*,*,#295,.F.) ;
#341=ORIENTED_EDGE('',*,*,#326,.T.) ;
#342=ORIENTED_EDGE('',*,*,#338,.T.) ;
#343=ORIENTED_EDGE('',*,*,#314,.F.) ;
#371=ORIENTED_EDGE('',*,*,#321,.F.) ;
#372=ORIENTED_EDGE('',*,*,#357,.T.) ;
#373=ORIENTED_EDGE('',*,*,#364,.T.) ;
#374=ORIENTED_EDGE('',*,*,#369,.F.) ;
#383=ORIENTED_EDGE('',*,*,#338,.F.) ;
#384=ORIENTED_EDGE('',*,*,#369,.T.) ;
#385=ORIENTED_EDGE('',*,*,#381,.T.) ;
#386=ORIENTED_EDGE('',*,*,#357,.F.) ;
#414=ORIENTED_EDGE('',*,*,#364,.F.) ;
#415=ORIENTED_EDGE('',*,*,#400,.T.) ;
#416=ORIENTED_EDGE('',*,*,#407,.T.) ;
#417=ORIENTED_EDGE('',*,*,#412,.F.) ;
#426=ORIENTED_EDGE('',*,*,#381,.F.) ;
#427=ORIENTED_EDGE('',*,*,#412,.T.) ;
#428=ORIENTED_EDGE('',*,*,#424,.T.) ;
#429=ORIENTED_EDGE('',*,*,#400,.F.) ;
#438=ORIENTED_EDGE('',*,*,#204,.T.) ;
#439=ORIENTED_EDGE('',*,*,#173,.T.) ;
#442=ORIENTED_EDGE('',*,*,#135,.F.) ;
#443=ORIENTED_EDGE('',*,*,#152,.F.) ;
#452=ORIENTED_EDGE('',*,*,#407,.F.) ;
#453=ORIENTED_EDGE('',*,*,#424,.F.) ;
#21=MANIFOLD_SOLID_BREP('217571 Plot de relevage',#30) ;
#41=VERTEX_POINT('',#40) ;
#43=VERTEX_POINT('',#42) ;
#50=VERTEX_POINT('',#49) ;
#84=VERTEX_POINT('',#83) ;
#91=VERTEX_POINT('',#90) ;
#127=VERTEX_POINT('',#126) ;
#134=VERTEX_POINT('',#133) ;
#170=VERTEX_POINT('',#169) ;
#172=VERTEX_POINT('',#171) ;
#179=VERTEX_POINT('',#178) ;
#186=VERTEX_POINT('',#185) ;
#227=VERTEX_POINT('',#226) ;
#234=VERTEX_POINT('',#233) ;
#270=VERTEX_POINT('',#269) ;
#277=VERTEX_POINT('',#276) ;
#313=VERTEX_POINT('',#312) ;
#320=VERTEX_POINT('',#319) ;
#356=VERTEX_POINT('',#355) ;
#363=VERTEX_POINT('',#362) ;
#399=VERTEX_POINT('',#398) ;
#406=VERTEX_POINT('',#405) ;
#456=ADVANCED_BREP_SHAPE_REPRESENTATION('NONE',(#21),#16) ;
#62=ADVANCED_FACE('217571 Plot de relevage',(#61),#35,.F.) ;
#73=ADVANCED_FACE('217571 Plot de relevage',(#72),#35,.F.) ;
#104=ADVANCED_FACE('217571 Plot de relevage',(#103),#78,.F.) ;
#116=ADVANCED_FACE('217571 Plot de relevage',(#115),#78,.F.) ;
#147=ADVANCED_FACE('217571 Plot de relevage',(#146),#121,.F.) ;
#159=ADVANCED_FACE('217571 Plot de relevage',(#158),#121,.F.) ;
#199=ADVANCED_FACE('217571 Plot de relevage',(#198),#164,.T.) ;
#216=ADVANCED_FACE('217571 Plot de relevage',(#215),#164,.T.) ;
#247=ADVANCED_FACE('217571 Plot de relevage',(#246),#221,.T.) ;
#259=ADVANCED_FACE('217571 Plot de relevage',(#258),#221,.T.) ;
#290=ADVANCED_FACE('217571 Plot de relevage',(#289),#264,.F.) ;
#302=ADVANCED_FACE('217571 Plot de relevage',(#301),#264,.F.) ;
#333=ADVANCED_FACE('217571 Plot de relevage',(#332),#307,.T.) ;
#345=ADVANCED_FACE('217571 Plot de relevage',(#344),#307,.T.) ;
#376=ADVANCED_FACE('217571 Plot de relevage',(#375),#350,.F.) ;
#388=ADVANCED_FACE('217571 Plot de relevage',(#387),#350,.F.) ;
#419=ADVANCED_FACE('217571 Plot de relevage',(#418),#393,.T.) ;
#431=ADVANCED_FACE('217571 Plot de relevage',(#430),#393,.T.) ;
#445=ADVANCED_FACE('217571 Plot de relevage',(#440,#444),#436,.T.) ;
#455=ADVANCED_FACE('217571 Plot de relevage',(#454),#450,.F.) ;
#4=APPLICATION_PROTOCOL_DEFINITION('international standard','ap242_managed_model_based_3d_engineering',2014,#1) ;
#22=COLOUR_RGB('Colour',0.949019607843,0.635294117647,0.341176470588) ;
#61=FACE_OUTER_BOUND('',#57,.T.) ;
#72=FACE_OUTER_BOUND('',#68,.T.) ;
#103=FACE_OUTER_BOUND('',#98,.T.) ;
#115=FACE_OUTER_BOUND('',#110,.T.) ;
#146=FACE_OUTER_BOUND('',#141,.T.) ;
#158=FACE_OUTER_BOUND('',#153,.T.) ;
#198=FACE_OUTER_BOUND('',#193,.T.) ;
#215=FACE_OUTER_BOUND('',#210,.T.) ;
#246=FACE_OUTER_BOUND('',#241,.T.) ;
#258=FACE_OUTER_BOUND('',#253,.T.) ;
#289=FACE_OUTER_BOUND('',#284,.T.) ;
#301=FACE_OUTER_BOUND('',#296,.T.) ;
#332=FACE_OUTER_BOUND('',#327,.T.) ;
#344=FACE_OUTER_BOUND('',#339,.T.) ;
#375=FACE_OUTER_BOUND('',#370,.T.) ;
#387=FACE_OUTER_BOUND('',#382,.T.) ;
#418=FACE_OUTER_BOUND('',#413,.T.) ;
#430=FACE_OUTER_BOUND('',#425,.T.) ;
#440=FACE_OUTER_BOUND('',#437,.T.) ;
#454=FACE_OUTER_BOUND('',#451,.T.) ;
#9=PRODUCT_CATEGORY_RELATIONSHIP(' ',' ',#7,#8) ;
#6=PRODUCT_DEFINITION_FORMATION_WITH_SPECIFIED_SOURCE('--A',' ',#5,.NOT_KNOWN.) ;
#20=SHAPE_DEFINITION_REPRESENTATION(#11,#19) ;
#12=(LENGTH_UNIT()NAMED_UNIT(*)SI_UNIT(.MILLI.,.METRE.)) ;
#13=(NAMED_UNIT(*)PLANE_ANGLE_UNIT()SI_UNIT($,.RADIAN.)) ;
#14=(NAMED_UNIT(*)SI_UNIT($,.STERADIAN.)SOLID_ANGLE_UNIT()) ;
#16=(GEOMETRIC_REPRESENTATION_CONTEXT(3)GLOBAL_UNCERTAINTY_ASSIGNED_CONTEXT((#15))GLOBAL_UNIT_ASSIGNED_CONTEXT((#12,#13,#14))REPRESENTATION_CONTEXT(' ',' ')) ;
ENDSEC;
END-ISO-10303-21;
