ISO-10303-21;
HEADER;
FILE_DESCRIPTION(('CATIA V5 STEP Exchange'),'2;1');

FILE_NAME('U:\\wlnt\\M3D-251685_A.stp','2023-08-21T15:32:53+00:00',('none'),('none'),'CATIA Version 5-6 Release 2016 SP5 HF59','CATIA V5 STEP AP203','none');

FILE_SCHEMA(('CONFIG_CONTROL_DESIGN'));

ENDSEC;
DATA;
#5=PRODUCT('M3D-251685','','HALF CLAMP D15.1',(#2)) ;
#1=APPLICATION_CONTEXT('configuration controlled 3D design of mechanical parts and assemblies') ;
#14=PRODUCT_DEFINITION('MASTER',' ',#6,#3) ;
#16=SECURITY_CLASSIFICATION(' ',' ',#15) ;
#15=SECURITY_CLASSIFICATION_LEVEL('unclassified') ;
#46=CARTESIAN_POINT(' ',(0.,0.,0.)) ;
#51=CARTESIAN_POINT('Axis2P3D Location',(22.5,2.20268248086E-013,-10.6600000001)) ;
#56=CARTESIAN_POINT('Axis2P3D Location',(22.5,2.20268248086E-013,-19.5)) ;
#60=CARTESIAN_POINT('Vertex',(18.,2.20819339145E-013,-19.5)) ;
#62=CARTESIAN_POINT('Vertex',(27.,2.20268248086E-013,-19.5)) ;
#65=CARTESIAN_POINT('Line Origine',(18.,2.20819339145E-013,-10.6600000001)) ;
#69=CARTESIAN_POINT('Vertex',(18.,2.20819339145E-013,-0.5)) ;
#72=CARTESIAN_POINT('Axis2P3D Location',(22.5,2.20268248086E-013,-0.5)) ;
#76=CARTESIAN_POINT('Vertex',(27.,2.20268248086E-013,-0.5)) ;
#79=CARTESIAN_POINT('Line Origine',(27.,2.19166065966E-013,-10.6600000001)) ;
#91=CARTESIAN_POINT('Axis2P3D Location',(22.5,2.20268248086E-013,-19.5)) ;
#96=CARTESIAN_POINT('Axis2P3D Location',(22.5,2.20268248086E-013,-0.5)) ;
#108=CARTESIAN_POINT('Axis2P3D Location',(-22.5,2.0605739337E-013,-10.6600000001)) ;
#113=CARTESIAN_POINT('Axis2P3D Location',(-22.5,2.0605739337E-013,-19.5)) ;
#117=CARTESIAN_POINT('Vertex',(-18.,2.0605739337E-013,-19.5)) ;
#119=CARTESIAN_POINT('Vertex',(-27.,2.0660848443E-013,-19.5)) ;
#122=CARTESIAN_POINT('Line Origine',(-18.,2.0605739337E-013,-10.6600000001)) ;
#126=CARTESIAN_POINT('Vertex',(-18.,2.0605739337E-013,-0.5)) ;
#129=CARTESIAN_POINT('Axis2P3D Location',(-22.5,2.0605739337E-013,-0.5)) ;
#133=CARTESIAN_POINT('Vertex',(-27.,2.0660848443E-013,-0.5)) ;
#136=CARTESIAN_POINT('Line Origine',(-27.,2.0660848443E-013,-10.6600000001)) ;
#148=CARTESIAN_POINT('Axis2P3D Location',(-22.5,2.0605739337E-013,-19.5)) ;
#153=CARTESIAN_POINT('Axis2P3D Location',(-22.5,2.0605739337E-013,-0.5)) ;
#165=CARTESIAN_POINT('Axis2P3D Location',(-32.5,0.,-0.5)) ;
#171=CARTESIAN_POINT('Control Point',(12.0024997025,12.5,-0.5)) ;
#172=CARTESIAN_POINT('Control Point',(11.9244008367,12.5,-0.5)) ;
#173=CARTESIAN_POINT('Control Point',(11.8463052691,12.4962221051,-0.5)) ;
#174=CARTESIAN_POINT('Control Point',(11.7684567056,12.4886681911,-0.5)) ;
#175=CARTESIAN_POINT('Control Point',(11.6910986863,12.4773633161,-0.5)) ;
#176=CARTESIAN_POINT('Control Point',(11.6144698329,12.4623549638,-0.5)) ;
#177=CARTESIAN_POINT('Vertex',(11.6144698329,12.4623549638,-0.5)) ;
#179=CARTESIAN_POINT('Vertex',(12.0024997025,12.5,-0.5)) ;
#182=CARTESIAN_POINT('Line Origine',(11.6144698329,1.95399252334E-014,-0.5)) ;
#186=CARTESIAN_POINT('Vertex',(11.6144698329,-12.4623549638,-0.5)) ;
#190=CARTESIAN_POINT('Control Point',(12.0024997025,-12.5,-0.5)) ;
#191=CARTESIAN_POINT('Control Point',(11.9244008367,-12.5,-0.5)) ;
#192=CARTESIAN_POINT('Control Point',(11.8463052691,-12.4962221051,-0.5)) ;
#193=CARTESIAN_POINT('Control Point',(11.7684567056,-12.4886681911,-0.5)) ;
#194=CARTESIAN_POINT('Control Point',(11.6910986863,-12.4773633161,-0.5)) ;
#195=CARTESIAN_POINT('Control Point',(11.6144698329,-12.4623549638,-0.5)) ;
#196=CARTESIAN_POINT('Vertex',(12.0024997025,-12.5,-0.5)) ;
#199=CARTESIAN_POINT('Line Origine',(22.2512498512,-12.5,-0.5)) ;
#203=CARTESIAN_POINT('Vertex',(32.5,-12.5,-0.5)) ;
#206=CARTESIAN_POINT('Line Origine',(32.5,0.,-0.5)) ;
#210=CARTESIAN_POINT('Vertex',(32.5,12.5,-0.5)) ;
#213=CARTESIAN_POINT('Line Origine',(22.2512498512,12.5,-0.5)) ;
#231=CARTESIAN_POINT('Axis2P3D Location',(-1.5,0.660000000202,0.5)) ;
#236=CARTESIAN_POINT('Axis2P3D Location',(-1.5,10.5,0.5)) ;
#240=CARTESIAN_POINT('Vertex',(-1.5,10.5,-8.05)) ;
#242=CARTESIAN_POINT('Vertex',(-9.69703479346,10.5,-1.93127962085)) ;
#245=CARTESIAN_POINT('Line Origine',(-9.69703479346,0.660000000202,-1.93127962085)) ;
#249=CARTESIAN_POINT('Vertex',(-9.69703479346,-10.5,-1.93127962085)) ;
#252=CARTESIAN_POINT('Axis2P3D Location',(-1.5,-10.5,0.5)) ;
#256=CARTESIAN_POINT('Vertex',(-1.5,-10.5,-8.05)) ;
#259=CARTESIAN_POINT('Line Origine',(-1.5,0.660000000202,-8.05)) ;
#271=CARTESIAN_POINT('Axis2P3D Location',(1.5,-12.5,-8.05)) ;
#276=CARTESIAN_POINT('Line Origine',(1.5,0.,-8.05)) ;
#280=CARTESIAN_POINT('Vertex',(1.5,-10.5,-8.05)) ;
#282=CARTESIAN_POINT('Vertex',(1.5,10.5,-8.05)) ;
#285=CARTESIAN_POINT('Line Origine',(2.44249065418E-014,10.5,-8.05)) ;
#290=CARTESIAN_POINT('Line Origine',(2.53130849615E-014,-10.5,-8.05)) ;
#303=CARTESIAN_POINT('Control Point',(-12.0024997025,-12.5,-0.5)) ;
#304=CARTESIAN_POINT('Control Point',(-11.9244008367,-12.5,-0.5)) ;
#305=CARTESIAN_POINT('Control Point',(-11.8463052691,-12.4962221051,-0.5)) ;
#306=CARTESIAN_POINT('Control Point',(-11.7684567056,-12.4886681911,-0.5)) ;
#307=CARTESIAN_POINT('Control Point',(-11.6910986863,-12.4773633161,-0.5)) ;
#308=CARTESIAN_POINT('Control Point',(-11.6144698329,-12.4623549638,-0.5)) ;
#309=CARTESIAN_POINT('Vertex',(-11.6144698329,-12.4623549638,-0.5)) ;
#311=CARTESIAN_POINT('Vertex',(-12.0024997025,-12.5,-0.5)) ;
#314=CARTESIAN_POINT('Line Origine',(-11.6144698329,-1.7763568394E-015,-0.5)) ;
#318=CARTESIAN_POINT('Vertex',(-11.6144698329,12.4623549638,-0.5)) ;
#322=CARTESIAN_POINT('Control Point',(-12.0024997025,12.5,-0.5)) ;
#323=CARTESIAN_POINT('Control Point',(-11.9244008367,12.5,-0.5)) ;
#324=CARTESIAN_POINT('Control Point',(-11.8463052691,12.4962221051,-0.5)) ;
#325=CARTESIAN_POINT('Control Point',(-11.7684567056,12.4886681911,-0.5)) ;
#326=CARTESIAN_POINT('Control Point',(-11.6910986863,12.4773633161,-0.5)) ;
#327=CARTESIAN_POINT('Control Point',(-11.6144698329,12.4623549638,-0.5)) ;
#328=CARTESIAN_POINT('Vertex',(-12.0024997025,12.5,-0.5)) ;
#331=CARTESIAN_POINT('Line Origine',(-22.2512498512,12.5,-0.5)) ;
#335=CARTESIAN_POINT('Vertex',(-32.5,12.5,-0.5)) ;
#338=CARTESIAN_POINT('Line Origine',(-32.5,0.,-0.5)) ;
#342=CARTESIAN_POINT('Vertex',(-32.5,-12.5,-0.5)) ;
#345=CARTESIAN_POINT('Line Origine',(-22.2512498512,-12.5,-0.5)) ;
#363=CARTESIAN_POINT('Axis2P3D Location',(1.5,0.660000000202,0.5)) ;
#368=CARTESIAN_POINT('Axis2P3D Location',(1.5,-10.5,0.5)) ;
#372=CARTESIAN_POINT('Vertex',(9.69703479346,-10.5,-1.93127962085)) ;
#375=CARTESIAN_POINT('Line Origine',(9.69703479346,0.660000000202,-1.93127962085)) ;
#379=CARTESIAN_POINT('Vertex',(9.69703479346,10.5,-1.93127962085)) ;
#382=CARTESIAN_POINT('Axis2P3D Location',(1.5,10.5,0.5)) ;
#394=CARTESIAN_POINT('Axis2P3D Location',(-7.1054273576E-015,10.5,-10.05)) ;
#399=CARTESIAN_POINT('Axis2P3D Location',(1.5,10.5,-10.05)) ;
#403=CARTESIAN_POINT('Vertex',(1.49999999758,12.5,-10.05)) ;
#406=CARTESIAN_POINT('Line Origine',(-7.1054273576E-015,12.5,-10.05)) ;
#410=CARTESIAN_POINT('Vertex',(-1.5,12.5,-10.05)) ;
#413=CARTESIAN_POINT('Axis2P3D Location',(-1.5,10.5,-10.05)) ;
#425=CARTESIAN_POINT('Axis2P3D Location',(-7.1054273576E-015,-10.5,-10.05)) ;
#430=CARTESIAN_POINT('Axis2P3D Location',(-1.5,-10.5,-10.05)) ;
#434=CARTESIAN_POINT('Vertex',(-1.50000008596,-12.5,-10.05)) ;
#437=CARTESIAN_POINT('Line Origine',(-7.1054273576E-015,-12.5,-10.05)) ;
#441=CARTESIAN_POINT('Vertex',(1.5,-12.5,-10.05)) ;
#444=CARTESIAN_POINT('Axis2P3D Location',(1.5,-10.5,-10.05)) ;
#456=CARTESIAN_POINT('Axis2P3D Location',(1.5,-10.5,0.5)) ;
#461=CARTESIAN_POINT('Axis2P3D Location',(1.5,-12.5,0.5)) ;
#467=CARTESIAN_POINT('Control Point',(9.69703479346,-10.5,-1.93127962085)) ;
#468=CARTESIAN_POINT('Control Point',(9.71428029012,-10.5673674461,-1.87313660229)) ;
#469=CARTESIAN_POINT('Control Point',(9.73369263637,-10.6348627923,-1.81577204864)) ;
#470=CARTESIAN_POINT('Control Point',(9.73853655098,-10.6501843203,-1.80256583709)) ;
#471=CARTESIAN_POINT('Control Point',(9.83311313522,-10.9329124501,-1.56478534872)) ;
#472=CARTESIAN_POINT('Control Point',(9.96739238646,-11.2129112082,-1.33920635171)) ;
#473=CARTESIAN_POINT('Control Point',(10.0938590009,-11.4225169968,-1.17523716992)) ;
#474=CARTESIAN_POINT('Control Point',(10.3942381245,-11.8174989043,-0.875320230097)) ;
#475=CARTESIAN_POINT('Control Point',(10.818128279,-12.1560858812,-0.642320528189)) ;
#476=CARTESIAN_POINT('Control Point',(11.0572071587,-12.3014917875,-0.550277195896)) ;
#477=CARTESIAN_POINT('Control Point',(11.3308439039,-12.4068046368,-0.5)) ;
#478=CARTESIAN_POINT('Control Point',(11.6144698329,-12.4623549638,-0.5)) ;
#488=CARTESIAN_POINT('Axis2P3D Location',(-1.5,-10.5,0.5)) ;
#493=CARTESIAN_POINT('Axis2P3D Location',(-1.5,-12.5,0.5)) ;
#499=CARTESIAN_POINT('Control Point',(-9.69703479346,-10.5,-1.93127962085)) ;
#500=CARTESIAN_POINT('Control Point',(-9.71428029549,-10.5673674671,-1.87313658419)) ;
#501=CARTESIAN_POINT('Control Point',(-9.73369264846,-10.6348628343,-1.81577201292)) ;
#502=CARTESIAN_POINT('Control Point',(-9.73853653688,-10.6501842781,-1.80256587256)) ;
#503=CARTESIAN_POINT('Control Point',(-9.83311312516,-10.9329124291,-1.56478536566)) ;
#504=CARTESIAN_POINT('Control Point',(-9.96739238631,-11.212911208,-1.33920635192)) ;
#505=CARTESIAN_POINT('Control Point',(-10.0938590007,-11.4225169966,-1.17523717012)) ;
#506=CARTESIAN_POINT('Control Point',(-10.3942381244,-11.8174989041,-0.87532023023)) ;
#507=CARTESIAN_POINT('Control Point',(-10.8181282788,-12.1560858811,-0.642320528256)) ;
#508=CARTESIAN_POINT('Control Point',(-11.0572071585,-12.3014917875,-0.550277195921)) ;
#509=CARTESIAN_POINT('Control Point',(-11.3308439039,-12.4068046368,-0.5)) ;
#510=CARTESIAN_POINT('Control Point',(-11.6144698329,-12.4623549638,-0.5)) ;
#520=CARTESIAN_POINT('Axis2P3D Location',(11.6144698329,0.,-2.5)) ;
#526=CARTESIAN_POINT('Control Point',(9.69703479346,10.5,-1.93127962085)) ;
#527=CARTESIAN_POINT('Control Point',(9.71428026268,10.5673673389,-1.87313669479)) ;
#528=CARTESIAN_POINT('Control Point',(9.73376900384,10.6346587139,-1.81551455076)) ;
#529=CARTESIAN_POINT('Control Point',(9.73853663456,10.6501844974,-1.80256561125)) ;
#530=CARTESIAN_POINT('Control Point',(9.83311314708,10.9329126726,-1.56478541162)) ;
#531=CARTESIAN_POINT('Control Point',(9.96739251051,11.2129108334,-1.33920587808)) ;
#532=CARTESIAN_POINT('Control Point',(10.0938591309,11.4225163033,-1.17523642914)) ;
#533=CARTESIAN_POINT('Control Point',(10.3942380015,11.817499557,-0.875320928375)) ;
#534=CARTESIAN_POINT('Control Point',(10.8181283943,12.156085266,-0.642319870682)) ;
#535=CARTESIAN_POINT('Control Point',(11.05720714,12.3014921389,-0.550277292259)) ;
#536=CARTESIAN_POINT('Control Point',(11.3308439038,12.4068046368,-0.5)) ;
#537=CARTESIAN_POINT('Control Point',(11.6144698329,12.4623549638,-0.5)) ;
#546=CARTESIAN_POINT('Axis2P3D Location',(-1.5,10.5,0.5)) ;
#551=CARTESIAN_POINT('Axis2P3D Location',(-1.5,12.5,0.5)) ;
#557=CARTESIAN_POINT('Control Point',(-9.69703479346,10.5,-1.93127962085)) ;
#558=CARTESIAN_POINT('Control Point',(-9.71428028304,10.5673674185,-1.87313662614)) ;
#559=CARTESIAN_POINT('Control Point',(-9.73369262045,10.6348627369,-1.8157720957)) ;
#560=CARTESIAN_POINT('Control Point',(-9.73853656933,10.6501843751,-1.80256579098)) ;
#561=CARTESIAN_POINT('Control Point',(-9.83311314818,10.9329124771,-1.56478532699)) ;
#562=CARTESIAN_POINT('Control Point',(-9.96739238627,11.2129112079,-1.33920635197)) ;
#563=CARTESIAN_POINT('Control Point',(-10.0938590007,11.4225169965,-1.17523717017)) ;
#564=CARTESIAN_POINT('Control Point',(-10.3942381243,11.817498904,-0.875320230267)) ;
#565=CARTESIAN_POINT('Control Point',(-10.8181282787,12.1560858811,-0.642320528275)) ;
#566=CARTESIAN_POINT('Control Point',(-11.0572071585,12.3014917875,-0.550277195926)) ;
#567=CARTESIAN_POINT('Control Point',(-11.3308439039,12.4068046368,-0.5)) ;
#568=CARTESIAN_POINT('Control Point',(-11.6144698329,12.4623549638,-0.5)) ;
#578=CARTESIAN_POINT('Axis2P3D Location',(1.5,10.5,0.5)) ;
#583=CARTESIAN_POINT('Axis2P3D Location',(1.5,12.5,0.5)) ;
#596=CARTESIAN_POINT('Axis2P3D Location',(-11.6144698329,0.,-2.5)) ;
#608=CARTESIAN_POINT('Axis2P3D Location',(32.5,0.,-19.5)) ;
#613=CARTESIAN_POINT('Line Origine',(32.5,12.5,-8.5)) ;
#617=CARTESIAN_POINT('Vertex',(32.5,12.5,-16.5)) ;
#620=CARTESIAN_POINT('Line Origine',(32.5,-12.5,-8.5)) ;
#624=CARTESIAN_POINT('Vertex',(32.5,-12.5,-16.5)) ;
#627=CARTESIAN_POINT('Line Origine',(32.5,-1.7763568394E-015,-16.5)) ;
#639=CARTESIAN_POINT('Axis2P3D Location',(32.5,0.,-16.5)) ;
#644=CARTESIAN_POINT('Line Origine',(31.,-12.5,-18.)) ;
#648=CARTESIAN_POINT('Vertex',(29.5,-12.5,-19.5)) ;
#651=CARTESIAN_POINT('Line Origine',(29.5,0.,-19.5)) ;
#655=CARTESIAN_POINT('Vertex',(29.5,12.5,-19.5)) ;
#658=CARTESIAN_POINT('Line Origine',(31.,12.5,-18.)) ;
#670=CARTESIAN_POINT('Axis2P3D Location',(-32.5,0.,-0.5)) ;
#675=CARTESIAN_POINT('Line Origine',(-32.5,-12.5,-8.5)) ;
#679=CARTESIAN_POINT('Vertex',(-32.5,-12.5,-16.5)) ;
#682=CARTESIAN_POINT('Line Origine',(-32.5,12.5,-8.5)) ;
#686=CARTESIAN_POINT('Vertex',(-32.5,12.5,-16.5)) ;
#689=CARTESIAN_POINT('Line Origine',(-32.5,-1.7763568394E-015,-16.5)) ;
#701=CARTESIAN_POINT('Axis2P3D Location',(32.5,0.,-19.5)) ;
#706=CARTESIAN_POINT('Line Origine',(-29.5,-1.7763568394E-015,-19.5)) ;
#710=CARTESIAN_POINT('Vertex',(-29.5,12.5,-19.5)) ;
#712=CARTESIAN_POINT('Vertex',(-29.5,-12.5,-19.5)) ;
#715=CARTESIAN_POINT('Line Origine',(0.,12.5,-19.5)) ;
#720=CARTESIAN_POINT('Line Origine',(0.,-12.5,-19.5)) ;
#740=CARTESIAN_POINT('Axis2P3D Location',(0.,12.5,0.)) ;
#745=CARTESIAN_POINT('Line Origine',(-31.,12.5,-18.)) ;
#763=CARTESIAN_POINT('Axis2P3D Location',(0.,-12.5,0.)) ;
#768=CARTESIAN_POINT('Line Origine',(-31.,-12.5,-18.)) ;
#786=CARTESIAN_POINT('Axis2P3D Location',(-32.5,0.,-16.5)) ;
#52=DIRECTION('Axis2P3D Direction',(-0.,0.,1.)) ;
#53=DIRECTION('Axis2P3D XDirection',(1.,0.,0.)) ;
#57=DIRECTION('Axis2P3D Direction',(-0.,0.,1.)) ;
#66=DIRECTION('Vector Direction',(0.,0.,1.)) ;
#73=DIRECTION('Axis2P3D Direction',(-0.,0.,1.)) ;
#80=DIRECTION('Vector Direction',(0.,0.,1.)) ;
#92=DIRECTION('Axis2P3D Direction',(-0.,0.,1.)) ;
#97=DIRECTION('Axis2P3D Direction',(-0.,0.,1.)) ;
#109=DIRECTION('Axis2P3D Direction',(-0.,0.,1.)) ;
#110=DIRECTION('Axis2P3D XDirection',(1.,0.,0.)) ;
#114=DIRECTION('Axis2P3D Direction',(-0.,0.,1.)) ;
#123=DIRECTION('Vector Direction',(0.,0.,1.)) ;
#130=DIRECTION('Axis2P3D Direction',(-0.,0.,1.)) ;
#137=DIRECTION('Vector Direction',(0.,0.,1.)) ;
#149=DIRECTION('Axis2P3D Direction',(-0.,0.,1.)) ;
#154=DIRECTION('Axis2P3D Direction',(-0.,0.,1.)) ;
#166=DIRECTION('Axis2P3D Direction',(0.,0.,-1.)) ;
#167=DIRECTION('Axis2P3D XDirection',(1.,0.,0.)) ;
#183=DIRECTION('Vector Direction',(0.,-1.,0.)) ;
#200=DIRECTION('Vector Direction',(1.,0.,0.)) ;
#207=DIRECTION('Vector Direction',(0.,-1.,0.)) ;
#214=DIRECTION('Vector Direction',(1.,0.,0.)) ;
#232=DIRECTION('Axis2P3D Direction',(0.,-1.,0.)) ;
#233=DIRECTION('Axis2P3D XDirection',(-1.,0.,1.22464679915E-016)) ;
#237=DIRECTION('Axis2P3D Direction',(0.,-1.,0.)) ;
#246=DIRECTION('Vector Direction',(0.,-1.,0.)) ;
#253=DIRECTION('Axis2P3D Direction',(0.,-1.,0.)) ;
#260=DIRECTION('Vector Direction',(0.,-1.,0.)) ;
#272=DIRECTION('Axis2P3D Direction',(1.18423789293E-015,0.,-1.)) ;
#273=DIRECTION('Axis2P3D XDirection',(-1.,0.,-1.18423789293E-015)) ;
#277=DIRECTION('Vector Direction',(0.,1.,0.)) ;
#286=DIRECTION('Vector Direction',(1.,0.,1.18423789293E-015)) ;
#291=DIRECTION('Vector Direction',(1.,0.,1.18423789293E-015)) ;
#315=DIRECTION('Vector Direction',(0.,1.,0.)) ;
#332=DIRECTION('Vector Direction',(1.,0.,0.)) ;
#339=DIRECTION('Vector Direction',(0.,-1.,0.)) ;
#346=DIRECTION('Vector Direction',(1.,0.,0.)) ;
#364=DIRECTION('Axis2P3D Direction',(0.,-1.,0.)) ;
#365=DIRECTION('Axis2P3D XDirection',(-1.96005385927E-015,-0.,-1.)) ;
#369=DIRECTION('Axis2P3D Direction',(0.,-1.,0.)) ;
#376=DIRECTION('Vector Direction',(0.,-1.,0.)) ;
#383=DIRECTION('Axis2P3D Direction',(0.,-1.,0.)) ;
#395=DIRECTION('Axis2P3D Direction',(1.,0.,0.)) ;
#396=DIRECTION('Axis2P3D XDirection',(0.,1.,0.)) ;
#400=DIRECTION('Axis2P3D Direction',(1.,0.,0.)) ;
#407=DIRECTION('Vector Direction',(1.,0.,0.)) ;
#414=DIRECTION('Axis2P3D Direction',(1.,0.,0.)) ;
#426=DIRECTION('Axis2P3D Direction',(1.,0.,0.)) ;
#427=DIRECTION('Axis2P3D XDirection',(-0.,1.83697019872E-016,1.)) ;
#431=DIRECTION('Axis2P3D Direction',(1.,0.,0.)) ;
#438=DIRECTION('Vector Direction',(1.,0.,0.)) ;
#445=DIRECTION('Axis2P3D Direction',(1.,0.,0.)) ;
#457=DIRECTION('Axis2P3D Direction',(-0.,-1.,0.)) ;
#458=DIRECTION('Axis2P3D XDirection',(-0.420005581776,0.,-0.90752152111)) ;
#462=DIRECTION('Axis2P3D Direction',(-0.,-1.,0.)) ;
#489=DIRECTION('Axis2P3D Direction',(0.,-1.,0.)) ;
#490=DIRECTION('Axis2P3D XDirection',(-0.964137609788,0.,0.265402843602)) ;
#494=DIRECTION('Axis2P3D Direction',(0.,-1.,0.)) ;
#521=DIRECTION('Axis2P3D Direction',(0.,-1.,0.)) ;
#522=DIRECTION('Axis2P3D XDirection',(0.,0.,1.)) ;
#547=DIRECTION('Axis2P3D Direction',(0.,-1.,0.)) ;
#548=DIRECTION('Axis2P3D XDirection',(-0.964137609788,0.,0.265402843602)) ;
#552=DIRECTION('Axis2P3D Direction',(0.,-1.,0.)) ;
#579=DIRECTION('Axis2P3D Direction',(-0.,-1.,0.)) ;
#580=DIRECTION('Axis2P3D XDirection',(-0.420005581776,0.,-0.90752152111)) ;
#584=DIRECTION('Axis2P3D Direction',(-0.,-1.,0.)) ;
#597=DIRECTION('Axis2P3D Direction',(0.,1.,0.)) ;
#598=DIRECTION('Axis2P3D XDirection',(0.,0.,1.)) ;
#609=DIRECTION('Axis2P3D Direction',(1.,0.,-0.)) ;
#610=DIRECTION('Axis2P3D XDirection',(0.,0.,1.)) ;
#614=DIRECTION('Vector Direction',(0.,0.,1.)) ;
#621=DIRECTION('Vector Direction',(0.,0.,1.)) ;
#628=DIRECTION('Vector Direction',(0.,-1.,0.)) ;
#640=DIRECTION('Axis2P3D Direction',(0.707106781187,0.,-0.707106781187)) ;
#641=DIRECTION('Axis2P3D XDirection',(0.,-1.,0.)) ;
#645=DIRECTION('Vector Direction',(-0.707106781187,0.,-0.707106781187)) ;
#652=DIRECTION('Vector Direction',(0.,-1.,0.)) ;
#659=DIRECTION('Vector Direction',(-0.707106781187,0.,-0.707106781187)) ;
#671=DIRECTION('Axis2P3D Direction',(-1.,-0.,-0.)) ;
#672=DIRECTION('Axis2P3D XDirection',(0.,0.,-1.)) ;
#676=DIRECTION('Vector Direction',(0.,0.,-1.)) ;
#683=DIRECTION('Vector Direction',(0.,0.,-1.)) ;
#690=DIRECTION('Vector Direction',(0.,-1.,0.)) ;
#702=DIRECTION('Axis2P3D Direction',(0.,0.,1.)) ;
#703=DIRECTION('Axis2P3D XDirection',(-1.,0.,0.)) ;
#707=DIRECTION('Vector Direction',(0.,-1.,0.)) ;
#716=DIRECTION('Vector Direction',(-1.,0.,0.)) ;
#721=DIRECTION('Vector Direction',(-1.,0.,0.)) ;
#741=DIRECTION('Axis2P3D Direction',(0.,-1.,0.)) ;
#742=DIRECTION('Axis2P3D XDirection',(1.,0.,0.)) ;
#746=DIRECTION('Vector Direction',(0.707106781187,0.,-0.707106781187)) ;
#764=DIRECTION('Axis2P3D Direction',(0.,-1.,0.)) ;
#765=DIRECTION('Axis2P3D XDirection',(1.,0.,0.)) ;
#769=DIRECTION('Vector Direction',(0.707106781187,0.,-0.707106781187)) ;
#787=DIRECTION('Axis2P3D Direction',(0.707106781187,0.,0.707106781187)) ;
#788=DIRECTION('Axis2P3D XDirection',(0.,-1.,0.)) ;
#47=AXIS2_PLACEMENT_3D(' ',#46,$,$) ;
#54=AXIS2_PLACEMENT_3D('Cylinder Axis2P3D',#51,#52,#53) ;
#58=AXIS2_PLACEMENT_3D('Circle Axis2P3D',#56,#57,$) ;
#74=AXIS2_PLACEMENT_3D('Circle Axis2P3D',#72,#73,$) ;
#93=AXIS2_PLACEMENT_3D('Circle Axis2P3D',#91,#92,$) ;
#98=AXIS2_PLACEMENT_3D('Circle Axis2P3D',#96,#97,$) ;
#111=AXIS2_PLACEMENT_3D('Cylinder Axis2P3D',#108,#109,#110) ;
#115=AXIS2_PLACEMENT_3D('Circle Axis2P3D',#113,#114,$) ;
#131=AXIS2_PLACEMENT_3D('Circle Axis2P3D',#129,#130,$) ;
#150=AXIS2_PLACEMENT_3D('Circle Axis2P3D',#148,#149,$) ;
#155=AXIS2_PLACEMENT_3D('Circle Axis2P3D',#153,#154,$) ;
#168=AXIS2_PLACEMENT_3D('Plane Axis2P3D',#165,#166,#167) ;
#234=AXIS2_PLACEMENT_3D('Cylinder Axis2P3D',#231,#232,#233) ;
#238=AXIS2_PLACEMENT_3D('Circle Axis2P3D',#236,#237,$) ;
#254=AXIS2_PLACEMENT_3D('Circle Axis2P3D',#252,#253,$) ;
#274=AXIS2_PLACEMENT_3D('Plane Axis2P3D',#271,#272,#273) ;
#366=AXIS2_PLACEMENT_3D('Cylinder Axis2P3D',#363,#364,#365) ;
#370=AXIS2_PLACEMENT_3D('Circle Axis2P3D',#368,#369,$) ;
#384=AXIS2_PLACEMENT_3D('Circle Axis2P3D',#382,#383,$) ;
#397=AXIS2_PLACEMENT_3D('Cylinder Axis2P3D',#394,#395,#396) ;
#401=AXIS2_PLACEMENT_3D('Circle Axis2P3D',#399,#400,$) ;
#415=AXIS2_PLACEMENT_3D('Circle Axis2P3D',#413,#414,$) ;
#428=AXIS2_PLACEMENT_3D('Cylinder Axis2P3D',#425,#426,#427) ;
#432=AXIS2_PLACEMENT_3D('Circle Axis2P3D',#430,#431,$) ;
#446=AXIS2_PLACEMENT_3D('Circle Axis2P3D',#444,#445,$) ;
#459=AXIS2_PLACEMENT_3D('Torus Axis2P3D',#456,#457,#458) ;
#463=AXIS2_PLACEMENT_3D('Circle Axis2P3D',#461,#462,$) ;
#491=AXIS2_PLACEMENT_3D('Torus Axis2P3D',#488,#489,#490) ;
#495=AXIS2_PLACEMENT_3D('Circle Axis2P3D',#493,#494,$) ;
#523=AXIS2_PLACEMENT_3D('Cylinder Axis2P3D',#520,#521,#522) ;
#549=AXIS2_PLACEMENT_3D('Torus Axis2P3D',#546,#547,#548) ;
#553=AXIS2_PLACEMENT_3D('Circle Axis2P3D',#551,#552,$) ;
#581=AXIS2_PLACEMENT_3D('Torus Axis2P3D',#578,#579,#580) ;
#585=AXIS2_PLACEMENT_3D('Circle Axis2P3D',#583,#584,$) ;
#599=AXIS2_PLACEMENT_3D('Cylinder Axis2P3D',#596,#597,#598) ;
#611=AXIS2_PLACEMENT_3D('Plane Axis2P3D',#608,#609,#610) ;
#642=AXIS2_PLACEMENT_3D('Plane Axis2P3D',#639,#640,#641) ;
#673=AXIS2_PLACEMENT_3D('Plane Axis2P3D',#670,#671,#672) ;
#704=AXIS2_PLACEMENT_3D('Plane Axis2P3D',#701,#702,#703) ;
#743=AXIS2_PLACEMENT_3D('Plane Axis2P3D',#740,#741,#742) ;
#766=AXIS2_PLACEMENT_3D('Plane Axis2P3D',#763,#764,#765) ;
#789=AXIS2_PLACEMENT_3D('Plane Axis2P3D',#786,#787,#788) ;
#40=PRODUCT_DEFINITION_SHAPE(' ',' ',#14) ;
#31=APPROVAL_PERSON_ORGANIZATION(#25,#21,#19) ;
#25=PERSON_AND_ORGANIZATION(#22,#23) ;
#22=PERSON(' ',' ',' ',$,$,$) ;
#23=ORGANIZATION(' ',' ',' ') ;
#21=APPROVAL(#20,' ') ;
#20=APPROVAL_STATUS('not_yet_approved') ;
#19=APPROVAL_ROLE('APPROVER') ;
#13=DATE_AND_TIME(#11,#12) ;
#12=LOCAL_TIME(17,32,53.,#10) ;
#10=COORDINATED_UNIVERSAL_TIME_OFFSET(0,0,.AHEAD.) ;
#85=ORIENTED_EDGE('',*,*,#64,.F.) ;
#86=ORIENTED_EDGE('',*,*,#71,.F.) ;
#87=ORIENTED_EDGE('',*,*,#78,.T.) ;
#88=ORIENTED_EDGE('',*,*,#83,.T.) ;
#102=ORIENTED_EDGE('',*,*,#95,.F.) ;
#103=ORIENTED_EDGE('',*,*,#83,.F.) ;
#104=ORIENTED_EDGE('',*,*,#100,.T.) ;
#105=ORIENTED_EDGE('',*,*,#71,.T.) ;
#142=ORIENTED_EDGE('',*,*,#121,.F.) ;
#143=ORIENTED_EDGE('',*,*,#128,.F.) ;
#144=ORIENTED_EDGE('',*,*,#135,.T.) ;
#145=ORIENTED_EDGE('',*,*,#140,.T.) ;
#159=ORIENTED_EDGE('',*,*,#152,.F.) ;
#160=ORIENTED_EDGE('',*,*,#140,.F.) ;
#161=ORIENTED_EDGE('',*,*,#157,.T.) ;
#162=ORIENTED_EDGE('',*,*,#128,.T.) ;
#219=ORIENTED_EDGE('',*,*,#181,.F.) ;
#220=ORIENTED_EDGE('',*,*,#188,.F.) ;
#221=ORIENTED_EDGE('',*,*,#198,.F.) ;
#222=ORIENTED_EDGE('',*,*,#205,.F.) ;
#223=ORIENTED_EDGE('',*,*,#212,.F.) ;
#224=ORIENTED_EDGE('',*,*,#217,.T.) ;
#227=ORIENTED_EDGE('',*,*,#78,.F.) ;
#228=ORIENTED_EDGE('',*,*,#100,.F.) ;
#265=ORIENTED_EDGE('',*,*,#244,.T.) ;
#266=ORIENTED_EDGE('',*,*,#251,.T.) ;
#267=ORIENTED_EDGE('',*,*,#258,.T.) ;
#268=ORIENTED_EDGE('',*,*,#263,.T.) ;
#296=ORIENTED_EDGE('',*,*,#284,.T.) ;
#297=ORIENTED_EDGE('',*,*,#289,.T.) ;
#298=ORIENTED_EDGE('',*,*,#263,.F.) ;
#299=ORIENTED_EDGE('',*,*,#294,.T.) ;
#351=ORIENTED_EDGE('',*,*,#313,.F.) ;
#352=ORIENTED_EDGE('',*,*,#320,.F.) ;
#353=ORIENTED_EDGE('',*,*,#330,.F.) ;
#354=ORIENTED_EDGE('',*,*,#337,.T.) ;
#355=ORIENTED_EDGE('',*,*,#344,.T.) ;
#356=ORIENTED_EDGE('',*,*,#349,.F.) ;
#359=ORIENTED_EDGE('',*,*,#157,.F.) ;
#360=ORIENTED_EDGE('',*,*,#135,.F.) ;
#388=ORIENTED_EDGE('',*,*,#374,.T.) ;
#389=ORIENTED_EDGE('',*,*,#381,.T.) ;
#390=ORIENTED_EDGE('',*,*,#386,.T.) ;
#391=ORIENTED_EDGE('',*,*,#284,.F.) ;
#419=ORIENTED_EDGE('',*,*,#405,.T.) ;
#420=ORIENTED_EDGE('',*,*,#412,.T.) ;
#421=ORIENTED_EDGE('',*,*,#417,.F.) ;
#422=ORIENTED_EDGE('',*,*,#289,.F.) ;
#450=ORIENTED_EDGE('',*,*,#436,.T.) ;
#451=ORIENTED_EDGE('',*,*,#443,.T.) ;
#452=ORIENTED_EDGE('',*,*,#448,.F.) ;
#453=ORIENTED_EDGE('',*,*,#294,.F.) ;
#481=ORIENTED_EDGE('',*,*,#374,.F.) ;
#482=ORIENTED_EDGE('',*,*,#448,.T.) ;
#483=ORIENTED_EDGE('',*,*,#465,.T.) ;
#484=ORIENTED_EDGE('',*,*,#198,.T.) ;
#485=ORIENTED_EDGE('',*,*,#479,.T.) ;
#513=ORIENTED_EDGE('',*,*,#497,.T.) ;
#514=ORIENTED_EDGE('',*,*,#436,.F.) ;
#515=ORIENTED_EDGE('',*,*,#258,.F.) ;
#516=ORIENTED_EDGE('',*,*,#511,.T.) ;
#517=ORIENTED_EDGE('',*,*,#313,.T.) ;
#540=ORIENTED_EDGE('',*,*,#538,.T.) ;
#541=ORIENTED_EDGE('',*,*,#381,.F.) ;
#542=ORIENTED_EDGE('',*,*,#479,.F.) ;
#543=ORIENTED_EDGE('',*,*,#188,.T.) ;
#571=ORIENTED_EDGE('',*,*,#244,.F.) ;
#572=ORIENTED_EDGE('',*,*,#417,.T.) ;
#573=ORIENTED_EDGE('',*,*,#555,.T.) ;
#574=ORIENTED_EDGE('',*,*,#330,.T.) ;
#575=ORIENTED_EDGE('',*,*,#569,.T.) ;
#589=ORIENTED_EDGE('',*,*,#587,.T.) ;
#590=ORIENTED_EDGE('',*,*,#405,.F.) ;
#591=ORIENTED_EDGE('',*,*,#386,.F.) ;
#592=ORIENTED_EDGE('',*,*,#538,.F.) ;
#593=ORIENTED_EDGE('',*,*,#181,.T.) ;
#602=ORIENTED_EDGE('',*,*,#511,.F.) ;
#603=ORIENTED_EDGE('',*,*,#251,.F.) ;
#604=ORIENTED_EDGE('',*,*,#569,.F.) ;
#605=ORIENTED_EDGE('',*,*,#320,.T.) ;
#633=ORIENTED_EDGE('',*,*,#619,.T.) ;
#634=ORIENTED_EDGE('',*,*,#212,.T.) ;
#635=ORIENTED_EDGE('',*,*,#626,.F.) ;
#636=ORIENTED_EDGE('',*,*,#631,.F.) ;
#664=ORIENTED_EDGE('',*,*,#650,.T.) ;
#665=ORIENTED_EDGE('',*,*,#657,.F.) ;
#666=ORIENTED_EDGE('',*,*,#662,.T.) ;
#667=ORIENTED_EDGE('',*,*,#631,.T.) ;
#695=ORIENTED_EDGE('',*,*,#681,.F.) ;
#696=ORIENTED_EDGE('',*,*,#344,.F.) ;
#697=ORIENTED_EDGE('',*,*,#688,.T.) ;
#698=ORIENTED_EDGE('',*,*,#693,.T.) ;
#726=ORIENTED_EDGE('',*,*,#714,.F.) ;
#727=ORIENTED_EDGE('',*,*,#719,.T.) ;
#728=ORIENTED_EDGE('',*,*,#657,.T.) ;
#729=ORIENTED_EDGE('',*,*,#724,.F.) ;
#732=ORIENTED_EDGE('',*,*,#64,.T.) ;
#733=ORIENTED_EDGE('',*,*,#95,.T.) ;
#736=ORIENTED_EDGE('',*,*,#152,.T.) ;
#737=ORIENTED_EDGE('',*,*,#121,.T.) ;
#751=ORIENTED_EDGE('',*,*,#749,.F.) ;
#752=ORIENTED_EDGE('',*,*,#688,.F.) ;
#753=ORIENTED_EDGE('',*,*,#337,.F.) ;
#754=ORIENTED_EDGE('',*,*,#555,.F.) ;
#755=ORIENTED_EDGE('',*,*,#412,.F.) ;
#756=ORIENTED_EDGE('',*,*,#587,.F.) ;
#757=ORIENTED_EDGE('',*,*,#217,.F.) ;
#758=ORIENTED_EDGE('',*,*,#619,.F.) ;
#759=ORIENTED_EDGE('',*,*,#662,.F.) ;
#760=ORIENTED_EDGE('',*,*,#719,.F.) ;
#774=ORIENTED_EDGE('',*,*,#724,.T.) ;
#775=ORIENTED_EDGE('',*,*,#650,.F.) ;
#776=ORIENTED_EDGE('',*,*,#626,.T.) ;
#777=ORIENTED_EDGE('',*,*,#205,.T.) ;
#778=ORIENTED_EDGE('',*,*,#465,.F.) ;
#779=ORIENTED_EDGE('',*,*,#443,.F.) ;
#780=ORIENTED_EDGE('',*,*,#497,.F.) ;
#781=ORIENTED_EDGE('',*,*,#349,.T.) ;
#782=ORIENTED_EDGE('',*,*,#681,.T.) ;
#783=ORIENTED_EDGE('',*,*,#772,.F.) ;
#792=ORIENTED_EDGE('',*,*,#693,.F.) ;
#793=ORIENTED_EDGE('',*,*,#749,.T.) ;
#794=ORIENTED_EDGE('',*,*,#714,.T.) ;
#795=ORIENTED_EDGE('',*,*,#772,.T.) ;
#229=FACE_BOUND('',#226,.T.) ;
#361=FACE_BOUND('',#358,.T.) ;
#734=FACE_BOUND('',#731,.T.) ;
#738=FACE_BOUND('',#735,.T.) ;
#50=CLOSED_SHELL('Closed Shell',(#90,#107,#147,#164,#230,#270,#301,#362,#393,#424,#455,#487,#519,#545,#577,#595,#607,#638,#669,#700,#739,#762,#785,#797)) ;
#67=VECTOR('Line Direction',#66,1.) ;
#81=VECTOR('Line Direction',#80,1.) ;
#124=VECTOR('Line Direction',#123,1.) ;
#138=VECTOR('Line Direction',#137,1.) ;
#184=VECTOR('Line Direction',#183,1.) ;
#201=VECTOR('Line Direction',#200,1.) ;
#208=VECTOR('Line Direction',#207,1.) ;
#215=VECTOR('Line Direction',#214,1.) ;
#247=VECTOR('Line Direction',#246,1.) ;
#261=VECTOR('Line Direction',#260,1.) ;
#278=VECTOR('Line Direction',#277,1.) ;
#287=VECTOR('Line Direction',#286,1.) ;
#292=VECTOR('Line Direction',#291,1.) ;
#316=VECTOR('Line Direction',#315,1.) ;
#333=VECTOR('Line Direction',#332,1.) ;
#340=VECTOR('Line Direction',#339,1.) ;
#347=VECTOR('Line Direction',#346,1.) ;
#377=VECTOR('Line Direction',#376,1.) ;
#408=VECTOR('Line Direction',#407,1.) ;
#439=VECTOR('Line Direction',#438,1.) ;
#615=VECTOR('Line Direction',#614,1.) ;
#622=VECTOR('Line Direction',#621,1.) ;
#629=VECTOR('Line Direction',#628,1.) ;
#646=VECTOR('Line Direction',#645,1.) ;
#653=VECTOR('Line Direction',#652,1.) ;
#660=VECTOR('Line Direction',#659,1.) ;
#677=VECTOR('Line Direction',#676,1.) ;
#684=VECTOR('Line Direction',#683,1.) ;
#691=VECTOR('Line Direction',#690,1.) ;
#708=VECTOR('Line Direction',#707,1.) ;
#717=VECTOR('Line Direction',#716,1.) ;
#722=VECTOR('Line Direction',#721,1.) ;
#747=VECTOR('Line Direction',#746,1.) ;
#770=VECTOR('Line Direction',#769,1.) ;
#799=ADVANCED_BREP_SHAPE_REPRESENTATION('NONE',(#798),#45) ;
#48=SHAPE_REPRESENTATION(' ',(#47),#45) ;
#90=ADVANCED_FACE('PartBody',(#89),#55,.F.) ;
#107=ADVANCED_FACE('PartBody',(#106),#55,.F.) ;
#147=ADVANCED_FACE('PartBody',(#146),#112,.F.) ;
#164=ADVANCED_FACE('PartBody',(#163),#112,.F.) ;
#230=ADVANCED_FACE('PartBody',(#225,#229),#169,.F.) ;
#270=ADVANCED_FACE('PartBody',(#269),#235,.F.) ;
#301=ADVANCED_FACE('PartBody',(#300),#275,.F.) ;
#362=ADVANCED_FACE('PartBody',(#357,#361),#169,.F.) ;
#393=ADVANCED_FACE('PartBody',(#392),#367,.F.) ;
#424=ADVANCED_FACE('PartBody',(#423),#398,.T.) ;
#455=ADVANCED_FACE('PartBody',(#454),#429,.T.) ;
#487=ADVANCED_FACE('PartBody',(#486),#460,.T.) ;
#519=ADVANCED_FACE('PartBody',(#518),#492,.T.) ;
#545=ADVANCED_FACE('PartBody',(#544),#524,.T.) ;
#577=ADVANCED_FACE('PartBody',(#576),#550,.T.) ;
#595=ADVANCED_FACE('PartBody',(#594),#582,.T.) ;
#607=ADVANCED_FACE('PartBody',(#606),#600,.T.) ;
#638=ADVANCED_FACE('PartBody',(#637),#612,.T.) ;
#669=ADVANCED_FACE('PartBody',(#668),#643,.T.) ;
#700=ADVANCED_FACE('PartBody',(#699),#674,.T.) ;
#739=ADVANCED_FACE('PartBody',(#730,#734,#738),#705,.F.) ;
#762=ADVANCED_FACE('PartBody',(#761),#744,.F.) ;
#785=ADVANCED_FACE('PartBody',(#784),#767,.T.) ;
#797=ADVANCED_FACE('PartBody',(#796),#790,.F.) ;
#4=APPLICATION_PROTOCOL_DEFINITION('international standard','config_control_design',1994,#1) ;
#32=APPROVAL_DATE_TIME(#13,#21) ;
#170=B_SPLINE_CURVE_WITH_KNOTS('',5,(#171,#172,#173,#174,#175,#176),.UNSPECIFIED.,.F.,.U.,(6,6),(0.,0.552242375699),.UNSPECIFIED.) ;
#189=B_SPLINE_CURVE_WITH_KNOTS('',5,(#190,#191,#192,#193,#194,#195),.UNSPECIFIED.,.F.,.U.,(6,6),(0.,0.552242375699),.UNSPECIFIED.) ;
#302=B_SPLINE_CURVE_WITH_KNOTS('',5,(#303,#304,#305,#306,#307,#308),.UNSPECIFIED.,.F.,.U.,(6,6),(0.,0.552242375698),.UNSPECIFIED.) ;
#321=B_SPLINE_CURVE_WITH_KNOTS('',5,(#322,#323,#324,#325,#326,#327),.UNSPECIFIED.,.F.,.U.,(6,6),(0.,0.552242375699),.UNSPECIFIED.) ;
#466=B_SPLINE_CURVE_WITH_KNOTS('',5,(#467,#468,#469,#470,#471,#472,#473,#474,#475,#476,#477,#478),.UNSPECIFIED.,.F.,.U.,(6,3,3,6),(0.,0.67739840232,2.84724338729,4.89125487654),.UNSPECIFIED.) ;
#498=B_SPLINE_CURVE_WITH_KNOTS('',5,(#499,#500,#501,#502,#503,#504,#505,#506,#507,#508,#509,#510),.UNSPECIFIED.,.F.,.U.,(6,3,3,6),(0.,0.677398613238,2.84724359829,4.89125508803),.UNSPECIFIED.) ;
#525=B_SPLINE_CURVE_WITH_KNOTS('',5,(#526,#527,#528,#529,#530,#531,#532,#533,#534,#535,#536,#537),.UNSPECIFIED.,.F.,.U.,(6,3,3,6),(0.,0.677397324633,2.84724230973,4.89125379969),.UNSPECIFIED.) ;
#556=B_SPLINE_CURVE_WITH_KNOTS('',5,(#557,#558,#559,#560,#561,#562,#563,#564,#565,#566,#567,#568),.UNSPECIFIED.,.F.,.U.,(6,3,3,6),(0.,0.677398124449,2.84724310953,4.8912545994),.UNSPECIFIED.) ;
#798=MANIFOLD_SOLID_BREP('PartBody',#50) ;
#11=CALENDAR_DATE(2023,21,8) ;
#30=CC_DESIGN_APPROVAL(#21,(#16,#6,#14)) ;
#18=CC_DESIGN_DATE_AND_TIME_ASSIGNMENT(#13,#17,(#16)) ;
#29=CC_DESIGN_DATE_AND_TIME_ASSIGNMENT(#13,#28,(#14)) ;
#17=DATE_TIME_ROLE('classification_date') ;
#28=DATE_TIME_ROLE('creation_date') ;
#27=CC_DESIGN_PERSON_AND_ORGANIZATION_ASSIGNMENT(#25,#26,(#16)) ;
#33=CC_DESIGN_PERSON_AND_ORGANIZATION_ASSIGNMENT(#25,#34,(#6)) ;
#35=CC_DESIGN_PERSON_AND_ORGANIZATION_ASSIGNMENT(#25,#36,(#6,#14)) ;
#37=CC_DESIGN_PERSON_AND_ORGANIZATION_ASSIGNMENT(#25,#38,(#5)) ;
#26=PERSON_AND_ORGANIZATION_ROLE('classification_officer') ;
#34=PERSON_AND_ORGANIZATION_ROLE('design_supplier') ;
#36=PERSON_AND_ORGANIZATION_ROLE('creator') ;
#38=PERSON_AND_ORGANIZATION_ROLE('design_owner') ;
#39=CC_DESIGN_SECURITY_CLASSIFICATION(#16,(#6)) ;
#59=CIRCLE('generated circle',#58,4.5) ;
#75=CIRCLE('generated circle',#74,4.5) ;
#94=CIRCLE('generated circle',#93,4.5) ;
#99=CIRCLE('generated circle',#98,4.5) ;
#116=CIRCLE('generated circle',#115,4.5) ;
#132=CIRCLE('generated circle',#131,4.5) ;
#151=CIRCLE('generated circle',#150,4.5) ;
#156=CIRCLE('generated circle',#155,4.5) ;
#239=CIRCLE('generated circle',#238,8.55) ;
#255=CIRCLE('generated circle',#254,8.55) ;
#371=CIRCLE('generated circle',#370,8.55) ;
#385=CIRCLE('generated circle',#384,8.55) ;
#402=CIRCLE('generated circle',#401,2.) ;
#416=CIRCLE('generated circle',#415,2.) ;
#433=CIRCLE('generated circle',#432,2.) ;
#447=CIRCLE('generated circle',#446,2.) ;
#464=CIRCLE('generated circle',#463,10.55) ;
#496=CIRCLE('generated circle',#495,10.55) ;
#554=CIRCLE('generated circle',#553,10.55) ;
#586=CIRCLE('generated circle',#585,10.55) ;
#800=SHAPE_REPRESENTATION_RELATIONSHIP(' ',' ',#48,#799) ;
#55=CYLINDRICAL_SURFACE('generated cylinder',#54,4.5) ;
#112=CYLINDRICAL_SURFACE('generated cylinder',#111,4.5) ;
#235=CYLINDRICAL_SURFACE('generated cylinder',#234,8.55) ;
#367=CYLINDRICAL_SURFACE('generated cylinder',#366,8.55) ;
#398=CYLINDRICAL_SURFACE('generated cylinder',#397,2.) ;
#429=CYLINDRICAL_SURFACE('generated cylinder',#428,2.) ;
#524=CYLINDRICAL_SURFACE('generated cylinder',#523,2.) ;
#600=CYLINDRICAL_SURFACE('generated cylinder',#599,2.) ;
#460=TOROIDAL_SURFACE('homeo Torus',#459,10.55,2.) ;
#492=TOROIDAL_SURFACE('homeo Torus',#491,10.55,2.) ;
#550=TOROIDAL_SURFACE('homeo Torus',#549,10.55,2.) ;
#582=TOROIDAL_SURFACE('homeo Torus',#581,10.55,2.) ;
#3=DESIGN_CONTEXT(' ',#1,'design') ;
#64=EDGE_CURVE('',#61,#63,#59,.T.) ;
#71=EDGE_CURVE('',#70,#61,#68,.F.) ;
#78=EDGE_CURVE('',#70,#77,#75,.T.) ;
#83=EDGE_CURVE('',#77,#63,#82,.F.) ;
#95=EDGE_CURVE('',#63,#61,#94,.T.) ;
#100=EDGE_CURVE('',#77,#70,#99,.T.) ;
#121=EDGE_CURVE('',#118,#120,#116,.T.) ;
#128=EDGE_CURVE('',#127,#118,#125,.F.) ;
#135=EDGE_CURVE('',#127,#134,#132,.T.) ;
#140=EDGE_CURVE('',#134,#120,#139,.F.) ;
#152=EDGE_CURVE('',#120,#118,#151,.T.) ;
#157=EDGE_CURVE('',#134,#127,#156,.T.) ;
#181=EDGE_CURVE('',#178,#180,#170,.F.) ;
#188=EDGE_CURVE('',#187,#178,#185,.F.) ;
#198=EDGE_CURVE('',#197,#187,#189,.T.) ;
#205=EDGE_CURVE('',#204,#197,#202,.F.) ;
#212=EDGE_CURVE('',#211,#204,#209,.T.) ;
#217=EDGE_CURVE('',#211,#180,#216,.F.) ;
#244=EDGE_CURVE('',#241,#243,#239,.F.) ;
#251=EDGE_CURVE('',#243,#250,#248,.T.) ;
#258=EDGE_CURVE('',#250,#257,#255,.T.) ;
#263=EDGE_CURVE('',#257,#241,#262,.F.) ;
#284=EDGE_CURVE('',#281,#283,#279,.T.) ;
#289=EDGE_CURVE('',#283,#241,#288,.F.) ;
#294=EDGE_CURVE('',#257,#281,#293,.T.) ;
#313=EDGE_CURVE('',#310,#312,#302,.F.) ;
#320=EDGE_CURVE('',#319,#310,#317,.F.) ;
#330=EDGE_CURVE('',#329,#319,#321,.T.) ;
#337=EDGE_CURVE('',#329,#336,#334,.F.) ;
#344=EDGE_CURVE('',#336,#343,#341,.T.) ;
#349=EDGE_CURVE('',#312,#343,#348,.F.) ;
#374=EDGE_CURVE('',#281,#373,#371,.T.) ;
#381=EDGE_CURVE('',#373,#380,#378,.F.) ;
#386=EDGE_CURVE('',#380,#283,#385,.F.) ;
#405=EDGE_CURVE('',#283,#404,#402,.F.) ;
#412=EDGE_CURVE('',#404,#411,#409,.F.) ;
#417=EDGE_CURVE('',#241,#411,#416,.F.) ;
#436=EDGE_CURVE('',#257,#435,#433,.T.) ;
#443=EDGE_CURVE('',#435,#442,#440,.T.) ;
#448=EDGE_CURVE('',#281,#442,#447,.T.) ;
#465=EDGE_CURVE('',#442,#197,#464,.T.) ;
#479=EDGE_CURVE('',#187,#373,#466,.F.) ;
#497=EDGE_CURVE('',#312,#435,#496,.T.) ;
#511=EDGE_CURVE('',#250,#310,#498,.T.) ;
#538=EDGE_CURVE('',#178,#380,#525,.F.) ;
#555=EDGE_CURVE('',#411,#329,#554,.F.) ;
#569=EDGE_CURVE('',#319,#243,#556,.F.) ;
#587=EDGE_CURVE('',#180,#404,#586,.F.) ;
#619=EDGE_CURVE('',#618,#211,#616,.T.) ;
#626=EDGE_CURVE('',#625,#204,#623,.T.) ;
#631=EDGE_CURVE('',#618,#625,#630,.T.) ;
#650=EDGE_CURVE('',#625,#649,#647,.T.) ;
#657=EDGE_CURVE('',#656,#649,#654,.T.) ;
#662=EDGE_CURVE('',#656,#618,#661,.F.) ;
#681=EDGE_CURVE('',#343,#680,#678,.T.) ;
#688=EDGE_CURVE('',#336,#687,#685,.T.) ;
#693=EDGE_CURVE('',#687,#680,#692,.T.) ;
#714=EDGE_CURVE('',#711,#713,#709,.T.) ;
#719=EDGE_CURVE('',#711,#656,#718,.F.) ;
#724=EDGE_CURVE('',#713,#649,#723,.F.) ;
#749=EDGE_CURVE('',#687,#711,#748,.T.) ;
#772=EDGE_CURVE('',#713,#680,#771,.F.) ;
#84=EDGE_LOOP('',(#85,#86,#87,#88)) ;
#101=EDGE_LOOP('',(#102,#103,#104,#105)) ;
#141=EDGE_LOOP('',(#142,#143,#144,#145)) ;
#158=EDGE_LOOP('',(#159,#160,#161,#162)) ;
#218=EDGE_LOOP('',(#219,#220,#221,#222,#223,#224)) ;
#226=EDGE_LOOP('',(#227,#228)) ;
#264=EDGE_LOOP('',(#265,#266,#267,#268)) ;
#295=EDGE_LOOP('',(#296,#297,#298,#299)) ;
#350=EDGE_LOOP('',(#351,#352,#353,#354,#355,#356)) ;
#358=EDGE_LOOP('',(#359,#360)) ;
#387=EDGE_LOOP('',(#388,#389,#390,#391)) ;
#418=EDGE_LOOP('',(#419,#420,#421,#422)) ;
#449=EDGE_LOOP('',(#450,#451,#452,#453)) ;
#480=EDGE_LOOP('',(#481,#482,#483,#484,#485)) ;
#512=EDGE_LOOP('',(#513,#514,#515,#516,#517)) ;
#539=EDGE_LOOP('',(#540,#541,#542,#543)) ;
#570=EDGE_LOOP('',(#571,#572,#573,#574,#575)) ;
#588=EDGE_LOOP('',(#589,#590,#591,#592,#593)) ;
#601=EDGE_LOOP('',(#602,#603,#604,#605)) ;
#632=EDGE_LOOP('',(#633,#634,#635,#636)) ;
#663=EDGE_LOOP('',(#664,#665,#666,#667)) ;
#694=EDGE_LOOP('',(#695,#696,#697,#698)) ;
#725=EDGE_LOOP('',(#726,#727,#728,#729)) ;
#731=EDGE_LOOP('',(#732,#733)) ;
#735=EDGE_LOOP('',(#736,#737)) ;
#750=EDGE_LOOP('',(#751,#752,#753,#754,#755,#756,#757,#758,#759,#760)) ;
#773=EDGE_LOOP('',(#774,#775,#776,#777,#778,#779,#780,#781,#782,#783)) ;
#791=EDGE_LOOP('',(#792,#793,#794,#795)) ;
#89=FACE_OUTER_BOUND('',#84,.T.) ;
#106=FACE_OUTER_BOUND('',#101,.T.) ;
#146=FACE_OUTER_BOUND('',#141,.T.) ;
#163=FACE_OUTER_BOUND('',#158,.T.) ;
#225=FACE_OUTER_BOUND('',#218,.T.) ;
#269=FACE_OUTER_BOUND('',#264,.T.) ;
#300=FACE_OUTER_BOUND('',#295,.T.) ;
#357=FACE_OUTER_BOUND('',#350,.T.) ;
#392=FACE_OUTER_BOUND('',#387,.T.) ;
#423=FACE_OUTER_BOUND('',#418,.T.) ;
#454=FACE_OUTER_BOUND('',#449,.T.) ;
#486=FACE_OUTER_BOUND('',#480,.T.) ;
#518=FACE_OUTER_BOUND('',#512,.T.) ;
#544=FACE_OUTER_BOUND('',#539,.T.) ;
#576=FACE_OUTER_BOUND('',#570,.T.) ;
#594=FACE_OUTER_BOUND('',#588,.T.) ;
#606=FACE_OUTER_BOUND('',#601,.T.) ;
#637=FACE_OUTER_BOUND('',#632,.T.) ;
#668=FACE_OUTER_BOUND('',#663,.T.) ;
#699=FACE_OUTER_BOUND('',#694,.T.) ;
#730=FACE_OUTER_BOUND('',#725,.T.) ;
#761=FACE_OUTER_BOUND('',#750,.T.) ;
#784=FACE_OUTER_BOUND('',#773,.T.) ;
#796=FACE_OUTER_BOUND('',#791,.T.) ;
#44=UNCERTAINTY_MEASURE_WITH_UNIT(LENGTH_MEASURE(0.005),#41,'distance_accuracy_value','CONFUSED CURVE UNCERTAINTY') ;
#68=LINE('Line',#65,#67) ;
#82=LINE('Line',#79,#81) ;
#125=LINE('Line',#122,#124) ;
#139=LINE('Line',#136,#138) ;
#185=LINE('Line',#182,#184) ;
#202=LINE('Line',#199,#201) ;
#209=LINE('Line',#206,#208) ;
#216=LINE('Line',#213,#215) ;
#248=LINE('Line',#245,#247) ;
#262=LINE('Line',#259,#261) ;
#279=LINE('Line',#276,#278) ;
#288=LINE('Line',#285,#287) ;
#293=LINE('Line',#290,#292) ;
#317=LINE('Line',#314,#316) ;
#334=LINE('Line',#331,#333) ;
#341=LINE('Line',#338,#340) ;
#348=LINE('Line',#345,#347) ;
#378=LINE('Line',#375,#377) ;
#409=LINE('Line',#406,#408) ;
#440=LINE('Line',#437,#439) ;
#616=LINE('Line',#613,#615) ;
#623=LINE('Line',#620,#622) ;
#630=LINE('Line',#627,#629) ;
#647=LINE('Line',#644,#646) ;
#654=LINE('Line',#651,#653) ;
#661=LINE('Line',#658,#660) ;
#678=LINE('Line',#675,#677) ;
#685=LINE('Line',#682,#684) ;
#692=LINE('Line',#689,#691) ;
#709=LINE('Line',#706,#708) ;
#718=LINE('Line',#715,#717) ;
#723=LINE('Line',#720,#722) ;
#748=LINE('Line',#745,#747) ;
#771=LINE('Line',#768,#770) ;
#2=MECHANICAL_CONTEXT(' ',#1,'mechanical') ;
#24=PERSONAL_ADDRESS(' ',' ',' ',' ',' ',' ',' ',' ',' ',' ',' ',' ',(#22),' ') ;
#169=PLANE('',#168) ;
#275=PLANE('',#274) ;
#612=PLANE('',#611) ;
#643=PLANE('',#642) ;
#674=PLANE('',#673) ;
#705=PLANE('',#704) ;
#744=PLANE('',#743) ;
#767=PLANE('',#766) ;
#790=PLANE('',#789) ;
#7=PRODUCT_CATEGORY('part',$) ;
#9=PRODUCT_CATEGORY_RELATIONSHIP(' ',' ',#7,#8) ;
#6=PRODUCT_DEFINITION_FORMATION_WITH_SPECIFIED_SOURCE('--A',' ',#5,.NOT_KNOWN.) ;
#8=PRODUCT_RELATED_PRODUCT_CATEGORY('detail',$,(#5)) ;
#49=SHAPE_DEFINITION_REPRESENTATION(#40,#48) ;
#61=VERTEX_POINT('',#60) ;
#63=VERTEX_POINT('',#62) ;
#70=VERTEX_POINT('',#69) ;
#77=VERTEX_POINT('',#76) ;
#118=VERTEX_POINT('',#117) ;
#120=VERTEX_POINT('',#119) ;
#127=VERTEX_POINT('',#126) ;
#134=VERTEX_POINT('',#133) ;
#178=VERTEX_POINT('',#177) ;
#180=VERTEX_POINT('',#179) ;
#187=VERTEX_POINT('',#186) ;
#197=VERTEX_POINT('',#196) ;
#204=VERTEX_POINT('',#203) ;
#211=VERTEX_POINT('',#210) ;
#241=VERTEX_POINT('',#240) ;
#243=VERTEX_POINT('',#242) ;
#250=VERTEX_POINT('',#249) ;
#257=VERTEX_POINT('',#256) ;
#281=VERTEX_POINT('',#280) ;
#283=VERTEX_POINT('',#282) ;
#310=VERTEX_POINT('',#309) ;
#312=VERTEX_POINT('',#311) ;
#319=VERTEX_POINT('',#318) ;
#329=VERTEX_POINT('',#328) ;
#336=VERTEX_POINT('',#335) ;
#343=VERTEX_POINT('',#342) ;
#373=VERTEX_POINT('',#372) ;
#380=VERTEX_POINT('',#379) ;
#404=VERTEX_POINT('',#403) ;
#411=VERTEX_POINT('',#410) ;
#435=VERTEX_POINT('',#434) ;
#442=VERTEX_POINT('',#441) ;
#618=VERTEX_POINT('',#617) ;
#625=VERTEX_POINT('',#624) ;
#649=VERTEX_POINT('',#648) ;
#656=VERTEX_POINT('',#655) ;
#680=VERTEX_POINT('',#679) ;
#687=VERTEX_POINT('',#686) ;
#711=VERTEX_POINT('',#710) ;
#713=VERTEX_POINT('',#712) ;
#41=(LENGTH_UNIT()NAMED_UNIT(*)SI_UNIT(.MILLI.,.METRE.)) ;
#42=(NAMED_UNIT(*)PLANE_ANGLE_UNIT()SI_UNIT($,.RADIAN.)) ;
#43=(NAMED_UNIT(*)SI_UNIT($,.STERADIAN.)SOLID_ANGLE_UNIT()) ;
#45=(GEOMETRIC_REPRESENTATION_CONTEXT(3)GLOBAL_UNCERTAINTY_ASSIGNED_CONTEXT((#44))GLOBAL_UNIT_ASSIGNED_CONTEXT((#41,#42,#43))REPRESENTATION_CONTEXT(' ',' ')) ;
ENDSEC;
END-ISO-10303-21;
