ISO-10303-21;
HEADER;
FILE_DESCRIPTION(('CATIA V5 STEP Exchange','CAx-IF Rec.Pracs.--- Model Styling and Organization---1.4--- 2014-01-23','CAx-IF Rec.Pracs.---Representation and Presentation of Product Manufacturing Information (PMI)---4.0---2014-10-13','CAx-IF Rec.Pracs.---3D Tessellated Data Validation Properties---0.5---2014-09-14'),'2;1');

FILE_NAME('C:\\Users\\e_jmelko\\Downloads\\M3D-138239........A--RELFBO--A0..RELMETHOD___RENFORT_ANTI-GALOP.stp','2023-10-09T08:27:04+00:00',('none'),('none'),'CATIA Version 5-6 Release 2016 SP5 HF64','CATIA V5 STEP AP242','none');

FILE_SCHEMA(('AP242_MANAGED_MODEL_BASED_3D_ENGINEERING_MIM_LF  {1 0 10303 442 1 1 4}'));

ENDSEC;
DATA;
#5=PRODUCT('M3D-138239','','(VIDE)',(#2)) ;
#2=PRODUCT_CONTEXT(' ',#1,'mechanical') ;
#1=APPLICATION_CONTEXT('managed model based 3d engineering') ;
#10=PRODUCT_DEFINITION('METHOD',' ',#6,#3) ;
#3=PRODUCT_DEFINITION_CONTEXT('part definition',#1,' ') ;
#11=PRODUCT_DEFINITION_SHAPE(' ',' ',#10) ;
#313=MECHANICAL_DESIGN_GEOMETRIC_PRESENTATION_REPRESENTATION(' ',(#29),#16) ;
#19=SHAPE_REPRESENTATION(' ',(#18),#16) ;
#7=PRODUCT_CATEGORY('part','specification') ;
#17=CARTESIAN_POINT(' ',(0.,0.,0.)) ;
#31=CARTESIAN_POINT('Axis2P3D Location',(1419.61548682,1238.50674387,740.)) ;
#36=CARTESIAN_POINT('Line Origine',(1414.69921229,1237.59556624,740.)) ;
#40=CARTESIAN_POINT('Vertex',(1419.61548682,1238.50674387,740.)) ;
#42=CARTESIAN_POINT('Vertex',(1409.78293775,1236.68438861,740.)) ;
#45=CARTESIAN_POINT('Line Origine',(1416.94372111,1252.92230167,740.)) ;
#49=CARTESIAN_POINT('Vertex',(1414.27195539,1267.33785947,740.)) ;
#52=CARTESIAN_POINT('Line Origine',(1409.35568085,1266.42668185,740.)) ;
#56=CARTESIAN_POINT('Vertex',(1404.43940632,1265.51550422,740.)) ;
#59=CARTESIAN_POINT('Line Origine',(1407.11117203,1251.09994642,740.)) ;
#71=CARTESIAN_POINT('Axis2P3D Location',(1414.27195539,1267.33785947,0.)) ;
#76=CARTESIAN_POINT('Line Origine',(1414.27195539,1267.33785947,732.5)) ;
#80=CARTESIAN_POINT('Vertex',(1414.27195539,1267.33785947,725.)) ;
#83=CARTESIAN_POINT('Line Origine',(1409.35568085,1266.42668185,725.)) ;
#87=CARTESIAN_POINT('Vertex',(1404.43940632,1265.51550422,725.)) ;
#90=CARTESIAN_POINT('Line Origine',(1404.43940632,1265.51550422,732.5)) ;
#102=CARTESIAN_POINT('Axis2P3D Location',(0.,1267.33785947,825.)) ;
#107=CARTESIAN_POINT('Line Origine',(1426.4869814,1146.55743421,825.)) ;
#111=CARTESIAN_POINT('Vertex',(1427.85374784,1139.1830224,825.)) ;
#113=CARTESIAN_POINT('Vertex',(1425.12021496,1153.93184601,825.)) ;
#116=CARTESIAN_POINT('Line Origine',(1432.77002238,1140.09420003,825.)) ;
#120=CARTESIAN_POINT('Vertex',(1437.68629692,1141.00537766,825.)) ;
#123=CARTESIAN_POINT('Line Origine',(1436.31953047,1148.37978946,825.)) ;
#127=CARTESIAN_POINT('Vertex',(1434.95276403,1155.75420127,825.)) ;
#130=CARTESIAN_POINT('Line Origine',(1430.0364895,1154.84302364,825.)) ;
#142=CARTESIAN_POINT('Axis2P3D Location',(1434.95276403,1155.75420127,825.)) ;
#147=CARTESIAN_POINT('Line Origine',(1434.32516545,1159.14042021,812.147238196)) ;
#151=CARTESIAN_POINT('Vertex',(1433.69756687,1162.52663914,799.294476392)) ;
#154=CARTESIAN_POINT('Line Origine',(1428.78129233,1161.61546152,799.294476392)) ;
#158=CARTESIAN_POINT('Vertex',(1423.86501779,1160.70428389,799.294476392)) ;
#161=CARTESIAN_POINT('Line Origine',(1424.49261637,1157.31806495,812.147238196)) ;
#173=CARTESIAN_POINT('Axis2P3D Location',(1382.71184742,1231.66705859,820.)) ;
#178=CARTESIAN_POINT('Axis2P3D Location',(1409.78293775,1236.68438861,820.)) ;
#183=CARTESIAN_POINT('Axis2P3D Location',(1419.61548682,1238.50674387,820.)) ;
#195=CARTESIAN_POINT('Axis2P3D Location',(1437.68629692,1141.00537766,0.)) ;
#200=CARTESIAN_POINT('Line Origine',(1425.43241958,1207.12138329,725.)) ;
#204=CARTESIAN_POINT('Vertex',(1436.59288376,1146.9049071,725.)) ;
#207=CARTESIAN_POINT('Line Origine',(1437.68629692,1141.00537766,781.)) ;
#211=CARTESIAN_POINT('Vertex',(1437.68629692,1141.00537766,737.)) ;
#214=CARTESIAN_POINT('Line Origine',(1437.13959034,1143.95514238,731.)) ;
#230=CARTESIAN_POINT('Axis2P3D Location',(1404.43940632,1265.51550422,0.)) ;
#235=CARTESIAN_POINT('Line Origine',(1427.85374784,1139.1830224,781.)) ;
#239=CARTESIAN_POINT('Vertex',(1427.85374784,1139.1830224,737.)) ;
#242=CARTESIAN_POINT('Line Origine',(1415.5998705,1205.29902803,725.)) ;
#246=CARTESIAN_POINT('Vertex',(1426.76033469,1145.08255185,725.)) ;
#249=CARTESIAN_POINT('Line Origine',(1427.30704126,1142.13278712,731.)) ;
#265=CARTESIAN_POINT('Axis2P3D Location',(0.,1139.1830224,725.)) ;
#270=CARTESIAN_POINT('Line Origine',(1431.67660923,1145.99372947,725.)) ;
#282=CARTESIAN_POINT('Axis2P3D Location',(1427.85374784,1139.1830224,0.)) ;
#287=CARTESIAN_POINT('Line Origine',(1432.77002238,1140.09420003,737.)) ;
#299=CARTESIAN_POINT('Axis2P3D Location',(1398.88344135,1133.81369346,737.)) ;
#8=PRODUCT_RELATED_PRODUCT_CATEGORY('part',$,(#5)) ;
#29=STYLED_ITEM(' ',(#28),#21) ;
#28=PRESENTATION_STYLE_ASSIGNMENT((#27)) ;
#27=SURFACE_STYLE_USAGE(.BOTH.,#26) ;
#26=SURFACE_SIDE_STYLE(' ',(#25)) ;
#25=SURFACE_STYLE_FILL_AREA(#24) ;
#24=FILL_AREA_STYLE(' ',(#23)) ;
#23=FILL_AREA_STYLE_COLOUR(' ',#22) ;
#38=VECTOR('Line Direction',#37,1.) ;
#47=VECTOR('Line Direction',#46,1.) ;
#54=VECTOR('Line Direction',#53,1.) ;
#61=VECTOR('Line Direction',#60,1.) ;
#78=VECTOR('Line Direction',#77,1.) ;
#85=VECTOR('Line Direction',#84,1.) ;
#92=VECTOR('Line Direction',#91,1.) ;
#109=VECTOR('Line Direction',#108,1.) ;
#118=VECTOR('Line Direction',#117,1.) ;
#125=VECTOR('Line Direction',#124,1.) ;
#132=VECTOR('Line Direction',#131,1.) ;
#149=VECTOR('Line Direction',#148,1.) ;
#156=VECTOR('Line Direction',#155,1.) ;
#163=VECTOR('Line Direction',#162,1.) ;
#202=VECTOR('Line Direction',#201,1.) ;
#209=VECTOR('Line Direction',#208,1.) ;
#216=VECTOR('Line Direction',#215,1.) ;
#237=VECTOR('Line Direction',#236,1.) ;
#244=VECTOR('Line Direction',#243,1.) ;
#251=VECTOR('Line Direction',#250,1.) ;
#272=VECTOR('Line Direction',#271,1.) ;
#289=VECTOR('Line Direction',#288,1.) ;
#32=DIRECTION('Axis2P3D Direction',(0.,0.,1.)) ;
#33=DIRECTION('Axis2P3D XDirection',(-0.182235525492,0.983254907564,0.)) ;
#37=DIRECTION('Vector Direction',(-0.983254907564,-0.182235525492,0.)) ;
#46=DIRECTION('Vector Direction',(-0.182235525492,0.983254907564,0.)) ;
#53=DIRECTION('Vector Direction',(-0.983254907564,-0.182235525492,0.)) ;
#60=DIRECTION('Vector Direction',(0.182235525492,-0.983254907564,0.)) ;
#72=DIRECTION('Axis2P3D Direction',(-0.182235525492,0.983254907564,0.)) ;
#73=DIRECTION('Axis2P3D XDirection',(-0.983254907564,-0.182235525492,-0.)) ;
#77=DIRECTION('Vector Direction',(0.,0.,1.)) ;
#84=DIRECTION('Vector Direction',(-0.983254907564,-0.182235525492,0.)) ;
#91=DIRECTION('Vector Direction',(0.,0.,1.)) ;
#103=DIRECTION('Axis2P3D Direction',(-0.,0.,1.)) ;
#104=DIRECTION('Axis2P3D XDirection',(0.,-1.,0.)) ;
#108=DIRECTION('Vector Direction',(-0.182235525492,0.983254907564,0.)) ;
#117=DIRECTION('Vector Direction',(0.983254907564,0.182235525494,0.)) ;
#124=DIRECTION('Vector Direction',(0.182235525492,-0.983254907564,0.)) ;
#131=DIRECTION('Vector Direction',(-0.983254907564,-0.182235525492,0.)) ;
#143=DIRECTION('Axis2P3D Direction',(-0.17602600054,0.949751309041,0.258819045103)) ;
#144=DIRECTION('Axis2P3D XDirection',(-0.0471660246916,0.254485096268,-0.965925826289)) ;
#148=DIRECTION('Vector Direction',(-0.0471660246916,0.254485096268,-0.965925826289)) ;
#155=DIRECTION('Vector Direction',(-0.983254907564,-0.182235525492,0.)) ;
#162=DIRECTION('Vector Direction',(-0.0471660246916,0.254485096268,-0.965925826289)) ;
#174=DIRECTION('Axis2P3D Direction',(0.983254907564,0.182235525492,-0.)) ;
#175=DIRECTION('Axis2P3D XDirection',(0.17602600054,-0.949751309041,-0.258819045103)) ;
#179=DIRECTION('Axis2P3D Direction',(0.983254907564,0.182235525492,-0.)) ;
#184=DIRECTION('Axis2P3D Direction',(0.983254907564,0.182235525492,-0.)) ;
#196=DIRECTION('Axis2P3D Direction',(0.983254907564,0.182235525492,-0.)) ;
#197=DIRECTION('Axis2P3D XDirection',(-0.182235525492,0.983254907564,0.)) ;
#201=DIRECTION('Vector Direction',(0.182235525492,-0.983254907564,0.)) ;
#208=DIRECTION('Vector Direction',(0.,0.,1.)) ;
#215=DIRECTION('Vector Direction',(-0.0814982045834,0.439724962506,-0.894427190999)) ;
#231=DIRECTION('Axis2P3D Direction',(-0.983254907564,-0.182235525492,0.)) ;
#232=DIRECTION('Axis2P3D XDirection',(0.182235525492,-0.983254907564,0.)) ;
#236=DIRECTION('Vector Direction',(0.,0.,-1.)) ;
#243=DIRECTION('Vector Direction',(-0.182235525492,0.983254907564,0.)) ;
#250=DIRECTION('Vector Direction',(-0.0814982045833,0.439724962506,-0.894427190999)) ;
#266=DIRECTION('Axis2P3D Direction',(0.,0.,-1.)) ;
#267=DIRECTION('Axis2P3D XDirection',(0.,1.,0.)) ;
#271=DIRECTION('Vector Direction',(0.983254907564,0.182235525492,0.)) ;
#283=DIRECTION('Axis2P3D Direction',(0.182235525492,-0.983254907564,0.)) ;
#284=DIRECTION('Axis2P3D XDirection',(0.983254907564,0.182235525492,0.)) ;
#288=DIRECTION('Vector Direction',(0.983254907564,0.182235525492,0.)) ;
#300=DIRECTION('Axis2P3D Direction',(-0.162996409166,0.879449925009,0.4472135955)) ;
#301=DIRECTION('Axis2P3D XDirection',(0.983254907564,0.182235525492,0.)) ;
#15=UNCERTAINTY_MEASURE_WITH_UNIT(LENGTH_MEASURE(0.005),#12,'distance_accuracy_value','CONFUSED CURVE UNCERTAINTY') ;
#18=AXIS2_PLACEMENT_3D(' ',#17,$,$) ;
#34=AXIS2_PLACEMENT_3D('Plane Axis2P3D',#31,#32,#33) ;
#74=AXIS2_PLACEMENT_3D('Plane Axis2P3D',#71,#72,#73) ;
#105=AXIS2_PLACEMENT_3D('Plane Axis2P3D',#102,#103,#104) ;
#145=AXIS2_PLACEMENT_3D('Plane Axis2P3D',#142,#143,#144) ;
#176=AXIS2_PLACEMENT_3D('Cylinder Axis2P3D',#173,#174,#175) ;
#180=AXIS2_PLACEMENT_3D('Circle Axis2P3D',#178,#179,$) ;
#185=AXIS2_PLACEMENT_3D('Circle Axis2P3D',#183,#184,$) ;
#198=AXIS2_PLACEMENT_3D('Plane Axis2P3D',#195,#196,#197) ;
#233=AXIS2_PLACEMENT_3D('Plane Axis2P3D',#230,#231,#232) ;
#268=AXIS2_PLACEMENT_3D('Plane Axis2P3D',#265,#266,#267) ;
#285=AXIS2_PLACEMENT_3D('Plane Axis2P3D',#282,#283,#284) ;
#302=AXIS2_PLACEMENT_3D('Plane Axis2P3D',#299,#300,#301) ;
#39=LINE('Line',#36,#38) ;
#48=LINE('Line',#45,#47) ;
#55=LINE('Line',#52,#54) ;
#62=LINE('Line',#59,#61) ;
#79=LINE('Line',#76,#78) ;
#86=LINE('Line',#83,#85) ;
#93=LINE('Line',#90,#92) ;
#110=LINE('Line',#107,#109) ;
#119=LINE('Line',#116,#118) ;
#126=LINE('Line',#123,#125) ;
#133=LINE('Line',#130,#132) ;
#150=LINE('Line',#147,#149) ;
#157=LINE('Line',#154,#156) ;
#164=LINE('Line',#161,#163) ;
#203=LINE('Line',#200,#202) ;
#210=LINE('Line',#207,#209) ;
#217=LINE('Line',#214,#216) ;
#238=LINE('Line',#235,#237) ;
#245=LINE('Line',#242,#244) ;
#252=LINE('Line',#249,#251) ;
#273=LINE('Line',#270,#272) ;
#290=LINE('Line',#287,#289) ;
#181=CIRCLE('generated circle',#180,80.) ;
#186=CIRCLE('generated circle',#185,80.) ;
#35=PLANE('',#34) ;
#75=PLANE('',#74) ;
#106=PLANE('',#105) ;
#146=PLANE('',#145) ;
#199=PLANE('',#198) ;
#234=PLANE('',#233) ;
#269=PLANE('',#268) ;
#286=PLANE('',#285) ;
#303=PLANE('',#302) ;
#177=CYLINDRICAL_SURFACE('generated cylinder',#176,80.) ;
#44=EDGE_CURVE('',#41,#43,#39,.T.) ;
#51=EDGE_CURVE('',#41,#50,#48,.T.) ;
#58=EDGE_CURVE('',#50,#57,#55,.T.) ;
#63=EDGE_CURVE('',#57,#43,#62,.T.) ;
#82=EDGE_CURVE('',#81,#50,#79,.T.) ;
#89=EDGE_CURVE('',#81,#88,#86,.T.) ;
#94=EDGE_CURVE('',#88,#57,#93,.T.) ;
#115=EDGE_CURVE('',#112,#114,#110,.T.) ;
#122=EDGE_CURVE('',#112,#121,#119,.T.) ;
#129=EDGE_CURVE('',#128,#121,#126,.T.) ;
#134=EDGE_CURVE('',#128,#114,#133,.T.) ;
#153=EDGE_CURVE('',#128,#152,#150,.T.) ;
#160=EDGE_CURVE('',#152,#159,#157,.T.) ;
#165=EDGE_CURVE('',#114,#159,#164,.T.) ;
#182=EDGE_CURVE('',#43,#159,#181,.F.) ;
#187=EDGE_CURVE('',#152,#41,#186,.T.) ;
#206=EDGE_CURVE('',#81,#205,#203,.T.) ;
#213=EDGE_CURVE('',#212,#121,#210,.T.) ;
#218=EDGE_CURVE('',#205,#212,#217,.F.) ;
#241=EDGE_CURVE('',#240,#112,#238,.F.) ;
#248=EDGE_CURVE('',#247,#88,#245,.T.) ;
#253=EDGE_CURVE('',#240,#247,#252,.T.) ;
#274=EDGE_CURVE('',#247,#205,#273,.T.) ;
#291=EDGE_CURVE('',#240,#212,#290,.T.) ;
#30=CLOSED_SHELL('Closed Shell',(#70,#101,#141,#172,#194,#229,#264,#281,#298,#310)) ;
#312=SHAPE_REPRESENTATION_RELATIONSHIP(' ',' ',#19,#311) ;
#64=EDGE_LOOP('',(#65,#66,#67,#68)) ;
#95=EDGE_LOOP('',(#96,#97,#98,#99)) ;
#135=EDGE_LOOP('',(#136,#137,#138,#139)) ;
#166=EDGE_LOOP('',(#167,#168,#169,#170)) ;
#188=EDGE_LOOP('',(#189,#190,#191,#192)) ;
#219=EDGE_LOOP('',(#220,#221,#222,#223,#224,#225,#226,#227)) ;
#254=EDGE_LOOP('',(#255,#256,#257,#258,#259,#260,#261,#262)) ;
#275=EDGE_LOOP('',(#276,#277,#278,#279)) ;
#292=EDGE_LOOP('',(#293,#294,#295,#296)) ;
#304=EDGE_LOOP('',(#305,#306,#307,#308)) ;
#65=ORIENTED_EDGE('',*,*,#44,.F.) ;
#66=ORIENTED_EDGE('',*,*,#51,.T.) ;
#67=ORIENTED_EDGE('',*,*,#58,.T.) ;
#68=ORIENTED_EDGE('',*,*,#63,.T.) ;
#96=ORIENTED_EDGE('',*,*,#82,.F.) ;
#97=ORIENTED_EDGE('',*,*,#89,.T.) ;
#98=ORIENTED_EDGE('',*,*,#94,.T.) ;
#99=ORIENTED_EDGE('',*,*,#58,.F.) ;
#136=ORIENTED_EDGE('',*,*,#115,.F.) ;
#137=ORIENTED_EDGE('',*,*,#122,.T.) ;
#138=ORIENTED_EDGE('',*,*,#129,.F.) ;
#139=ORIENTED_EDGE('',*,*,#134,.T.) ;
#167=ORIENTED_EDGE('',*,*,#134,.F.) ;
#168=ORIENTED_EDGE('',*,*,#153,.T.) ;
#169=ORIENTED_EDGE('',*,*,#160,.T.) ;
#170=ORIENTED_EDGE('',*,*,#165,.F.) ;
#189=ORIENTED_EDGE('',*,*,#182,.T.) ;
#190=ORIENTED_EDGE('',*,*,#160,.F.) ;
#191=ORIENTED_EDGE('',*,*,#187,.T.) ;
#192=ORIENTED_EDGE('',*,*,#44,.T.) ;
#220=ORIENTED_EDGE('',*,*,#206,.F.) ;
#221=ORIENTED_EDGE('',*,*,#82,.T.) ;
#222=ORIENTED_EDGE('',*,*,#51,.F.) ;
#223=ORIENTED_EDGE('',*,*,#187,.F.) ;
#224=ORIENTED_EDGE('',*,*,#153,.F.) ;
#225=ORIENTED_EDGE('',*,*,#129,.T.) ;
#226=ORIENTED_EDGE('',*,*,#213,.F.) ;
#227=ORIENTED_EDGE('',*,*,#218,.F.) ;
#255=ORIENTED_EDGE('',*,*,#241,.T.) ;
#256=ORIENTED_EDGE('',*,*,#115,.T.) ;
#257=ORIENTED_EDGE('',*,*,#165,.T.) ;
#258=ORIENTED_EDGE('',*,*,#182,.F.) ;
#259=ORIENTED_EDGE('',*,*,#63,.F.) ;
#260=ORIENTED_EDGE('',*,*,#94,.F.) ;
#261=ORIENTED_EDGE('',*,*,#248,.F.) ;
#262=ORIENTED_EDGE('',*,*,#253,.F.) ;
#276=ORIENTED_EDGE('',*,*,#248,.T.) ;
#277=ORIENTED_EDGE('',*,*,#89,.F.) ;
#278=ORIENTED_EDGE('',*,*,#206,.T.) ;
#279=ORIENTED_EDGE('',*,*,#274,.F.) ;
#293=ORIENTED_EDGE('',*,*,#213,.T.) ;
#294=ORIENTED_EDGE('',*,*,#122,.F.) ;
#295=ORIENTED_EDGE('',*,*,#241,.F.) ;
#296=ORIENTED_EDGE('',*,*,#291,.T.) ;
#305=ORIENTED_EDGE('',*,*,#291,.F.) ;
#306=ORIENTED_EDGE('',*,*,#253,.T.) ;
#307=ORIENTED_EDGE('',*,*,#274,.T.) ;
#308=ORIENTED_EDGE('',*,*,#218,.T.) ;
#21=MANIFOLD_SOLID_BREP('M3D-118272 Renfort Anti-Galop 1/4',#30) ;
#41=VERTEX_POINT('',#40) ;
#43=VERTEX_POINT('',#42) ;
#50=VERTEX_POINT('',#49) ;
#57=VERTEX_POINT('',#56) ;
#81=VERTEX_POINT('',#80) ;
#88=VERTEX_POINT('',#87) ;
#112=VERTEX_POINT('',#111) ;
#114=VERTEX_POINT('',#113) ;
#121=VERTEX_POINT('',#120) ;
#128=VERTEX_POINT('',#127) ;
#152=VERTEX_POINT('',#151) ;
#159=VERTEX_POINT('',#158) ;
#205=VERTEX_POINT('',#204) ;
#212=VERTEX_POINT('',#211) ;
#240=VERTEX_POINT('',#239) ;
#247=VERTEX_POINT('',#246) ;
#311=ADVANCED_BREP_SHAPE_REPRESENTATION('NONE',(#21),#16) ;
#70=ADVANCED_FACE('M3D-118272 Renfort Anti-Galop 1/4',(#69),#35,.T.) ;
#101=ADVANCED_FACE('M3D-118272 Renfort Anti-Galop 1/4',(#100),#75,.T.) ;
#141=ADVANCED_FACE('M3D-118272 Renfort Anti-Galop 1/4',(#140),#106,.T.) ;
#172=ADVANCED_FACE('M3D-118272 Renfort Anti-Galop 1/4',(#171),#146,.T.) ;
#194=ADVANCED_FACE('M3D-118272 Renfort Anti-Galop 1/4',(#193),#177,.F.) ;
#229=ADVANCED_FACE('M3D-118272 Renfort Anti-Galop 1/4',(#228),#199,.T.) ;
#264=ADVANCED_FACE('M3D-118272 Renfort Anti-Galop 1/4',(#263),#234,.T.) ;
#281=ADVANCED_FACE('M3D-118272 Renfort Anti-Galop 1/4',(#280),#269,.T.) ;
#298=ADVANCED_FACE('M3D-118272 Renfort Anti-Galop 1/4',(#297),#286,.T.) ;
#310=ADVANCED_FACE('M3D-118272 Renfort Anti-Galop 1/4',(#309),#303,.F.) ;
#4=APPLICATION_PROTOCOL_DEFINITION('international standard','ap242_managed_model_based_3d_engineering',2014,#1) ;
#22=COLOUR_RGB('Colour',0.623529411765,0.745098039216,0.874509803922) ;
#69=FACE_OUTER_BOUND('',#64,.T.) ;
#100=FACE_OUTER_BOUND('',#95,.T.) ;
#140=FACE_OUTER_BOUND('',#135,.T.) ;
#171=FACE_OUTER_BOUND('',#166,.T.) ;
#193=FACE_OUTER_BOUND('',#188,.T.) ;
#228=FACE_OUTER_BOUND('',#219,.T.) ;
#263=FACE_OUTER_BOUND('',#254,.T.) ;
#280=FACE_OUTER_BOUND('',#275,.T.) ;
#297=FACE_OUTER_BOUND('',#292,.T.) ;
#309=FACE_OUTER_BOUND('',#304,.T.) ;
#9=PRODUCT_CATEGORY_RELATIONSHIP(' ',' ',#7,#8) ;
#6=PRODUCT_DEFINITION_FORMATION_WITH_SPECIFIED_SOURCE('--A',' ',#5,.NOT_KNOWN.) ;
#20=SHAPE_DEFINITION_REPRESENTATION(#11,#19) ;
#12=(LENGTH_UNIT()NAMED_UNIT(*)SI_UNIT(.MILLI.,.METRE.)) ;
#13=(NAMED_UNIT(*)PLANE_ANGLE_UNIT()SI_UNIT($,.RADIAN.)) ;
#14=(NAMED_UNIT(*)SI_UNIT($,.STERADIAN.)SOLID_ANGLE_UNIT()) ;
#16=(GEOMETRIC_REPRESENTATION_CONTEXT(3)GLOBAL_UNCERTAINTY_ASSIGNED_CONTEXT((#15))GLOBAL_UNIT_ASSIGNED_CONTEXT((#12,#13,#14))REPRESENTATION_CONTEXT(' ',' ')) ;
ENDSEC;
END-ISO-10303-21;
