ISO-10303-21;
HEADER;
FILE_DESCRIPTION(('CATIA V5 STEP Exchange','CAx-IF Rec.Pracs.--- Model Styling and Organization---1.4--- 2014-01-23','CAx-IF Rec.Pracs.---Representation and Presentation of Product Manufacturing Information (PMI)---4.0---2014-10-13','CAx-IF Rec.Pracs.---3D Tessellated Data Validation Properties---0.5---2014-09-14'),'2;1');

FILE_NAME('C:\\Users\\e_mdemir\\OneDrive - Alstom\\Desktop\\M3D-184607.stp','2023-03-22T16:09:04+00:00',('none'),('none'),'CATIA Version 5-6 Release 2016 SP5 HF64','CATIA V5 STEP AP242','none');

FILE_SCHEMA(('AP242_MANAGED_MODEL_BASED_3D_ENGINEERING_MIM_LF  {1 0 10303 442 1 1 4}'));

ENDSEC;
DATA;
#5=PRODUCT('M3D-184607','','FIXATION PLATE - CUT IN THE MASS',(#2)) ;
#2=PRODUCT_CONTEXT(' ',#1,'mechanical') ;
#1=APPLICATION_CONTEXT('managed model based 3d engineering') ;
#10=PRODUCT_DEFINITION('MASTER',' ',#6,#3) ;
#3=PRODUCT_DEFINITION_CONTEXT('part definition',#1,' ') ;
#11=PRODUCT_DEFINITION_SHAPE(' ',' ',#10) ;
#919=MECHANICAL_DESIGN_GEOMETRIC_PRESENTATION_REPRESENTATION(' ',(#29),#16) ;
#920=MECHANICAL_DESIGN_GEOMETRIC_PRESENTATION_REPRESENTATION(' ',(#916),#16) ;
#19=SHAPE_REPRESENTATION(' ',(#18),#16) ;
#7=PRODUCT_CATEGORY('part','specification') ;
#17=CARTESIAN_POINT(' ',(0.,0.,0.)) ;
#31=CARTESIAN_POINT('Axis2P3D Location',(-34.0294406283,9.37331230792,13.75)) ;
#36=CARTESIAN_POINT('Axis2P3D Location',(-34.0294406283,9.37331230792,7.5)) ;
#40=CARTESIAN_POINT('Vertex',(-56.7157343805,-23.5710662078,7.5)) ;
#42=CARTESIAN_POINT('Vertex',(-69.9038859973,-8.31917676149,7.5)) ;
#45=CARTESIAN_POINT('Line Origine',(-56.7157343805,-23.5710662078,13.75)) ;
#49=CARTESIAN_POINT('Vertex',(-56.7157343805,-23.5710662078,0.)) ;
#52=CARTESIAN_POINT('Axis2P3D Location',(-34.0294406283,9.37331230792,0.)) ;
#56=CARTESIAN_POINT('Vertex',(-73.4800551634,2.7665723552,0.)) ;
#59=CARTESIAN_POINT('Line Origine',(-73.4800551634,2.7665723552,13.75)) ;
#63=CARTESIAN_POINT('Vertex',(-73.4800551634,2.7665723552,7.5)) ;
#66=CARTESIAN_POINT('Line Origine',(-73.4800551634,2.7665723552,13.75)) ;
#70=CARTESIAN_POINT('Vertex',(-73.4800551634,2.7665723552,12.5)) ;
#74=CARTESIAN_POINT('Control Point',(-69.9038859973,-8.31917676149,7.5)) ;
#75=CARTESIAN_POINT('Control Point',(-70.4264812277,-7.25952857006,7.5)) ;
#76=CARTESIAN_POINT('Control Point',(-70.9041508253,-6.19234792123,7.69720736609)) ;
#77=CARTESIAN_POINT('Control Point',(-71.3169313368,-5.16472780049,8.02379546591)) ;
#78=CARTESIAN_POINT('Control Point',(-72.1595615812,-2.85908548855,8.97009185409)) ;
#79=CARTESIAN_POINT('Control Point',(-72.7625815452,-0.727619484619,10.2161447071)) ;
#80=CARTESIAN_POINT('Control Point',(-73.0469530614,0.443972959174,10.9650352449)) ;
#81=CARTESIAN_POINT('Control Point',(-73.2851096532,1.602500478,11.7318994136)) ;
#82=CARTESIAN_POINT('Control Point',(-73.4800551634,2.7665723552,12.4999972637)) ;
#93=CARTESIAN_POINT('Axis2P3D Location',(-105.768244556,-54.515364473,13.75)) ;
#98=CARTESIAN_POINT('Axis2P3D Location',(-105.768244556,-54.515364473,7.5)) ;
#102=CARTESIAN_POINT('Vertex',(-84.0549385818,-20.9217290092,7.5)) ;
#104=CARTESIAN_POINT('Vertex',(-78.4732137028,-25.2753013622,7.5)) ;
#108=CARTESIAN_POINT('Control Point',(-84.0549385818,-20.9217290092,7.5)) ;
#109=CARTESIAN_POINT('Control Point',(-85.0472169208,-20.2803681416,7.5)) ;
#110=CARTESIAN_POINT('Control Point',(-86.0521606493,-19.6827638542,7.69720736609)) ;
#111=CARTESIAN_POINT('Control Point',(-87.0252945165,-19.1541795756,8.02379546591)) ;
#112=CARTESIAN_POINT('Control Point',(-89.2183228411,-18.0511659905,8.97009185423)) ;
#113=CARTESIAN_POINT('Control Point',(-91.2659826815,-17.2062579588,10.2161447075)) ;
#114=CARTESIAN_POINT('Control Point',(-92.3969424574,-16.7886145751,10.9650352484)) ;
#115=CARTESIAN_POINT('Control Point',(-93.5202565379,-16.4183848473,11.7318994172)) ;
#116=CARTESIAN_POINT('Control Point',(-94.6540633711,-16.0904379722,12.4999972676)) ;
#117=CARTESIAN_POINT('Vertex',(-94.6540633711,-16.0904379722,12.5)) ;
#120=CARTESIAN_POINT('Line Origine',(-94.6540633711,-16.0904379722,13.75)) ;
#124=CARTESIAN_POINT('Vertex',(-94.6540633711,-16.0904379722,7.5)) ;
#127=CARTESIAN_POINT('Line Origine',(-94.6540633711,-16.0904379722,13.75)) ;
#131=CARTESIAN_POINT('Vertex',(-94.6540633711,-16.0904379722,0.)) ;
#134=CARTESIAN_POINT('Axis2P3D Location',(-105.768244556,-54.515364473,0.)) ;
#138=CARTESIAN_POINT('Vertex',(-78.4732137028,-25.2753013622,0.)) ;
#141=CARTESIAN_POINT('Line Origine',(-78.4732137028,-25.2753013622,13.75)) ;
#155=CARTESIAN_POINT('Axis2P3D Location',(-90.,0.,12.5)) ;
#160=CARTESIAN_POINT('Axis2P3D Location',(-90.,0.,12.5)) ;
#165=CARTESIAN_POINT('Axis2P3D Location',(-90.,0.,7.5)) ;
#177=CARTESIAN_POINT('Axis2P3D Location',(0.,58.7898800815,13.75)) ;
#182=CARTESIAN_POINT('Axis2P3D Location',(0.,58.7898800815,0.)) ;
#186=CARTESIAN_POINT('Vertex',(-2.11251572853E-014,-56.2101199185,0.)) ;
#189=CARTESIAN_POINT('Line Origine',(-1.23265675551E-013,-56.2101199185,13.75)) ;
#193=CARTESIAN_POINT('Vertex',(-1.23265675551E-013,-56.2101199185,7.5)) ;
#196=CARTESIAN_POINT('Axis2P3D Location',(0.,58.7898800815,7.5)) ;
#208=CARTESIAN_POINT('Axis2P3D Location',(0.,58.7898800815,0.)) ;
#212=CARTESIAN_POINT('Vertex',(78.4732137028,-25.2753013622,0.)) ;
#215=CARTESIAN_POINT('Line Origine',(78.4732137028,-25.2753013622,13.75)) ;
#219=CARTESIAN_POINT('Vertex',(78.4732137028,-25.2753013622,7.5)) ;
#222=CARTESIAN_POINT('Axis2P3D Location',(0.,58.7898800815,7.5)) ;
#234=CARTESIAN_POINT('Axis2P3D Location',(105.768244556,-54.515364473,13.75)) ;
#239=CARTESIAN_POINT('Axis2P3D Location',(105.768244556,-54.515364473,7.5)) ;
#243=CARTESIAN_POINT('Vertex',(84.0549385818,-20.9217290092,7.5)) ;
#246=CARTESIAN_POINT('Axis2P3D Location',(105.768244556,-54.515364473,0.)) ;
#250=CARTESIAN_POINT('Vertex',(94.6540633711,-16.0904379722,0.)) ;
#253=CARTESIAN_POINT('Line Origine',(94.6540633711,-16.0904379722,13.75)) ;
#257=CARTESIAN_POINT('Vertex',(94.6540633711,-16.0904379722,7.5)) ;
#260=CARTESIAN_POINT('Line Origine',(94.6540633711,-16.0904379722,13.75)) ;
#264=CARTESIAN_POINT('Vertex',(94.6540633711,-16.0904379722,12.5)) ;
#268=CARTESIAN_POINT('Control Point',(84.0549385818,-20.9217290092,7.5)) ;
#269=CARTESIAN_POINT('Control Point',(85.0472169208,-20.2803681416,7.5)) ;
#270=CARTESIAN_POINT('Control Point',(86.0521606493,-19.6827638542,7.69720736609)) ;
#271=CARTESIAN_POINT('Control Point',(87.0252945165,-19.1541795756,8.0237954659)) ;
#272=CARTESIAN_POINT('Control Point',(89.2183228304,-18.0511659959,8.97009184963)) ;
#273=CARTESIAN_POINT('Control Point',(91.2659826616,-17.206257967,10.2161446954)) ;
#274=CARTESIAN_POINT('Control Point',(92.3969424762,-16.7886145689,10.9650351252)) ;
#275=CARTESIAN_POINT('Control Point',(93.5202565476,-16.4183848445,11.7318992872)) ;
#276=CARTESIAN_POINT('Control Point',(94.6540633711,-16.0904379722,12.499997131)) ;
#287=CARTESIAN_POINT('Axis2P3D Location',(90.,8.32667268469E-015,12.5)) ;
#292=CARTESIAN_POINT('Axis2P3D Location',(90.,8.32667268469E-015,12.5)) ;
#296=CARTESIAN_POINT('Vertex',(73.4800551634,2.7665723552,12.5)) ;
#300=CARTESIAN_POINT('Control Point',(69.9038859973,-8.31917676149,7.5)) ;
#301=CARTESIAN_POINT('Control Point',(70.4264812277,-7.25952857006,7.5)) ;
#302=CARTESIAN_POINT('Control Point',(70.9041516594,-6.1923474782,7.69720814767)) ;
#303=CARTESIAN_POINT('Control Point',(71.3169315877,-5.16472809257,8.02379598105)) ;
#304=CARTESIAN_POINT('Control Point',(72.159561263,-2.85908505966,8.97009118698)) ;
#305=CARTESIAN_POINT('Control Point',(72.7625820091,-0.727619923632,10.2161456597)) ;
#306=CARTESIAN_POINT('Control Point',(73.0473846787,0.446554440794,10.9626760135)) ;
#307=CARTESIAN_POINT('Control Point',(73.2851093084,1.60250049838,11.7318998899)) ;
#308=CARTESIAN_POINT('Control Point',(73.4800551634,2.7665723552,12.4999977641)) ;
#309=CARTESIAN_POINT('Vertex',(69.9038859973,-8.31917676149,7.5)) ;
#312=CARTESIAN_POINT('Axis2P3D Location',(90.,8.32667268469E-015,7.5)) ;
#324=CARTESIAN_POINT('Axis2P3D Location',(0.,58.7898800815,13.75)) ;
#329=CARTESIAN_POINT('Axis2P3D Location',(0.,58.7898800815,7.5)) ;
#333=CARTESIAN_POINT('Vertex',(56.7157343805,-23.5710662078,7.5)) ;
#335=CARTESIAN_POINT('Vertex',(-1.83697019872E-014,-41.2101199185,7.5)) ;
#338=CARTESIAN_POINT('Line Origine',(56.7157343805,-23.5710662078,13.75)) ;
#342=CARTESIAN_POINT('Vertex',(56.7157343805,-23.5710662078,0.)) ;
#345=CARTESIAN_POINT('Axis2P3D Location',(0.,58.7898800815,0.)) ;
#349=CARTESIAN_POINT('Vertex',(-1.83697019872E-014,-41.2101199185,0.)) ;
#352=CARTESIAN_POINT('Line Origine',(-1.83697019872E-014,-41.2101199185,13.75)) ;
#364=CARTESIAN_POINT('Axis2P3D Location',(34.0294406283,9.37331230792,13.75)) ;
#369=CARTESIAN_POINT('Axis2P3D Location',(34.0294406283,9.37331230792,7.5)) ;
#374=CARTESIAN_POINT('Line Origine',(73.4800551634,2.7665723552,13.75)) ;
#378=CARTESIAN_POINT('Vertex',(73.4800551634,2.7665723552,7.5)) ;
#381=CARTESIAN_POINT('Line Origine',(73.4800551634,2.7665723552,13.75)) ;
#385=CARTESIAN_POINT('Vertex',(73.4800551634,2.7665723552,0.)) ;
#388=CARTESIAN_POINT('Axis2P3D Location',(34.0294406283,9.37331230792,0.)) ;
#402=CARTESIAN_POINT('Axis2P3D Location',(0.,0.,7.5)) ;
#407=CARTESIAN_POINT('Axis2P3D Location',(0.,58.7898800815,7.5)) ;
#425=CARTESIAN_POINT('Axis2P3D Location',(0.,58.7898800815,0.)) ;
#437=CARTESIAN_POINT('Axis2P3D Location',(0.,0.,0.)) ;
#442=CARTESIAN_POINT('Axis2P3D Location',(-90.,0.,0.)) ;
#447=CARTESIAN_POINT('Axis2P3D Location',(90.,0.,0.)) ;
#464=CARTESIAN_POINT('Axis2P3D Location',(90.,-8.881784197E-016,0.)) ;
#468=CARTESIAN_POINT('Vertex',(82.4115435873,4.14559263231,0.)) ;
#470=CARTESIAN_POINT('Vertex',(97.5884564127,-4.14559263231,0.)) ;
#473=CARTESIAN_POINT('Axis2P3D Location',(90.,-5.3290705182E-015,0.)) ;
#482=CARTESIAN_POINT('Axis2P3D Location',(-90.,-5.3290705182E-015,0.)) ;
#486=CARTESIAN_POINT('Vertex',(-82.4115435873,-4.14559263231,0.)) ;
#488=CARTESIAN_POINT('Vertex',(-97.5884564127,4.14559263231,0.)) ;
#491=CARTESIAN_POINT('Axis2P3D Location',(-90.,-8.881784197E-016,0.)) ;
#501=CARTESIAN_POINT('Axis2P3D Location',(90.,-4.18846353073E-030,17.5)) ;
#506=CARTESIAN_POINT('Line Origine',(73.4800551634,2.7665723552,17.5)) ;
#510=CARTESIAN_POINT('Vertex',(73.4800551634,2.7665723552,26.5)) ;
#513=CARTESIAN_POINT('Line Origine',(94.6540633711,-16.0904379722,17.5)) ;
#517=CARTESIAN_POINT('Vertex',(94.6540633711,-16.0904379722,26.5)) ;
#520=CARTESIAN_POINT('Axis2P3D Location',(90.,-4.18846353073E-030,26.5)) ;
#532=CARTESIAN_POINT('Axis2P3D Location',(90.,0.,13.75)) ;
#537=CARTESIAN_POINT('Axis2P3D Location',(90.,0.,26.5)) ;
#553=CARTESIAN_POINT('Axis2P3D Location',(90.,-4.28546087505E-014,43.25)) ;
#558=CARTESIAN_POINT('Line Origine',(94.5151361063,-15.610126391,27.)) ;
#562=CARTESIAN_POINT('Vertex',(94.3762090349,-15.1298147538,27.5)) ;
#565=CARTESIAN_POINT('Line Origine',(73.9731878451,2.68398810579,27.)) ;
#569=CARTESIAN_POINT('Vertex',(74.4663205265,2.60140385468,27.5)) ;
#572=CARTESIAN_POINT('Axis2P3D Location',(90.,-8.881784197E-016,27.5)) ;
#584=CARTESIAN_POINT('Axis2P3D Location',(90.,2.69229083472E-014,43.25)) ;
#589=CARTESIAN_POINT('Axis2P3D Location',(90.,2.44249065418E-015,27.5)) ;
#601=CARTESIAN_POINT('Axis2P3D Location',(90.,0.,27.4)) ;
#606=CARTESIAN_POINT('Axis2P3D Location',(90.,0.,26.5)) ;
#610=CARTESIAN_POINT('Vertex',(97.5884564127,-4.14559263231,26.5)) ;
#612=CARTESIAN_POINT('Vertex',(82.4115435873,4.14559263231,26.5)) ;
#615=CARTESIAN_POINT('Line Origine',(82.4115435873,4.14559263231,13.75000019)) ;
#620=CARTESIAN_POINT('Line Origine',(97.5884564127,-4.14559263231,13.75000019)) ;
#632=CARTESIAN_POINT('Axis2P3D Location',(90.,0.,26.5)) ;
#644=CARTESIAN_POINT('Axis2P3D Location',(0.,0.,27.5)) ;
#653=CARTESIAN_POINT('Axis2P3D Location',(90.,2.24619585085E-015,27.5)) ;
#657=CARTESIAN_POINT('Vertex',(98.4660389746,-4.62501817091,27.5)) ;
#659=CARTESIAN_POINT('Vertex',(81.5339610254,4.62501817091,27.5)) ;
#662=CARTESIAN_POINT('Axis2P3D Location',(90.,-2.22044604925E-016,27.5)) ;
#672=CARTESIAN_POINT('Axis2P3D Location',(90.,-2.95186097787E-015,17.853)) ;
#677=CARTESIAN_POINT('Line Origine',(81.9727524105,4.3853055922,27.)) ;
#682=CARTESIAN_POINT('Line Origine',(98.0272476936,-4.38530540161,27.)) ;
#694=CARTESIAN_POINT('Axis2P3D Location',(90.,-1.56763491077E-016,17.853)) ;
#706=CARTESIAN_POINT('Axis2P3D Location',(-90.,0.,13.75)) ;
#711=CARTESIAN_POINT('Line Origine',(-73.4800551634,2.7665723552,13.75)) ;
#715=CARTESIAN_POINT('Vertex',(-73.4800551634,2.7665723552,26.5)) ;
#718=CARTESIAN_POINT('Line Origine',(-94.6540633711,-16.0904379722,13.75)) ;
#722=CARTESIAN_POINT('Vertex',(-94.6540633711,-16.0904379722,26.5)) ;
#725=CARTESIAN_POINT('Axis2P3D Location',(-90.,0.,26.5)) ;
#741=CARTESIAN_POINT('Axis2P3D Location',(-90.,0.,17.5)) ;
#746=CARTESIAN_POINT('Axis2P3D Location',(-90.,0.,26.5)) ;
#758=CARTESIAN_POINT('Axis2P3D Location',(-90.,5.68434188608E-014,43.25)) ;
#763=CARTESIAN_POINT('Line Origine',(-73.9731878451,2.68398810579,27.)) ;
#767=CARTESIAN_POINT('Vertex',(-74.4663204608,2.60140346251,27.5)) ;
#770=CARTESIAN_POINT('Line Origine',(-94.5151361063,-15.610126391,27.)) ;
#774=CARTESIAN_POINT('Vertex',(-94.3762089369,-15.1298147821,27.5)) ;
#777=CARTESIAN_POINT('Axis2P3D Location',(-90.,8.881784197E-016,27.5)) ;
#789=CARTESIAN_POINT('Axis2P3D Location',(-90.,-1.64313007645E-013,43.25)) ;
#794=CARTESIAN_POINT('Axis2P3D Location',(-90.,3.5527136788E-015,27.5)) ;
#806=CARTESIAN_POINT('Axis2P3D Location',(-90.,0.,27.4)) ;
#811=CARTESIAN_POINT('Axis2P3D Location',(-90.,0.,26.5)) ;
#815=CARTESIAN_POINT('Vertex',(-82.4115435873,-4.14559263231,26.5)) ;
#817=CARTESIAN_POINT('Vertex',(-97.5884564127,4.14559263231,26.5)) ;
#820=CARTESIAN_POINT('Line Origine',(-97.5884564127,4.14559263231,13.75000019)) ;
#825=CARTESIAN_POINT('Line Origine',(-82.4115435873,-4.14559263231,13.75000019)) ;
#837=CARTESIAN_POINT('Axis2P3D Location',(-90.,0.,26.5)) ;
#853=CARTESIAN_POINT('Axis2P3D Location',(-90.,-1.00592277563E-015,27.5)) ;
#857=CARTESIAN_POINT('Vertex',(-81.5339610254,-4.62501817091,27.5)) ;
#859=CARTESIAN_POINT('Vertex',(-98.4660389746,4.62501817091,27.5)) ;
#862=CARTESIAN_POINT('Axis2P3D Location',(-90.,-3.99680288865E-015,27.5)) ;
#872=CARTESIAN_POINT('Axis2P3D Location',(-90.,-5.49882361867E-015,17.853)) ;
#877=CARTESIAN_POINT('Line Origine',(-98.0272475895,4.3853055922,27.)) ;
#882=CARTESIAN_POINT('Line Origine',(-81.9727523064,-4.38530540161,27.)) ;
#894=CARTESIAN_POINT('Axis2P3D Location',(-90.,2.95186097787E-015,17.853)) ;
#908=CARTESIAN_POINT('Axis2P3D Location',(0.,0.,0.)) ;
#8=PRODUCT_RELATED_PRODUCT_CATEGORY('part',$,(#5)) ;
#29=STYLED_ITEM(' ',(#28),#21) ;
#916=STYLED_ITEM(' ',(#915),#911) ;
#28=PRESENTATION_STYLE_ASSIGNMENT((#27)) ;
#915=PRESENTATION_STYLE_ASSIGNMENT((#914)) ;
#914=CURVE_STYLE(' ',#912,POSITIVE_LENGTH_MEASURE(0.180000007153),#913) ;
#27=SURFACE_STYLE_USAGE(.BOTH.,#26) ;
#26=SURFACE_SIDE_STYLE(' ',(#25)) ;
#25=SURFACE_STYLE_FILL_AREA(#24) ;
#24=FILL_AREA_STYLE(' ',(#23)) ;
#23=FILL_AREA_STYLE_COLOUR(' ',#22) ;
#47=VECTOR('Line Direction',#46,1.) ;
#61=VECTOR('Line Direction',#60,1.) ;
#68=VECTOR('Line Direction',#67,1.) ;
#122=VECTOR('Line Direction',#121,1.) ;
#129=VECTOR('Line Direction',#128,1.) ;
#143=VECTOR('Line Direction',#142,1.) ;
#191=VECTOR('Line Direction',#190,1.) ;
#217=VECTOR('Line Direction',#216,1.) ;
#255=VECTOR('Line Direction',#254,1.) ;
#262=VECTOR('Line Direction',#261,1.) ;
#340=VECTOR('Line Direction',#339,1.) ;
#354=VECTOR('Line Direction',#353,1.) ;
#376=VECTOR('Line Direction',#375,1.) ;
#383=VECTOR('Line Direction',#382,1.) ;
#508=VECTOR('Line Direction',#507,1.) ;
#515=VECTOR('Line Direction',#514,1.) ;
#560=VECTOR('Line Direction',#559,1.) ;
#567=VECTOR('Line Direction',#566,1.) ;
#617=VECTOR('Line Direction',#616,1.) ;
#622=VECTOR('Line Direction',#621,1.) ;
#679=VECTOR('Line Direction',#678,1.) ;
#684=VECTOR('Line Direction',#683,1.) ;
#713=VECTOR('Line Direction',#712,1.) ;
#720=VECTOR('Line Direction',#719,1.) ;
#765=VECTOR('Line Direction',#764,1.) ;
#772=VECTOR('Line Direction',#771,1.) ;
#822=VECTOR('Line Direction',#821,1.) ;
#827=VECTOR('Line Direction',#826,1.) ;
#879=VECTOR('Line Direction',#878,1.) ;
#884=VECTOR('Line Direction',#883,1.) ;
#32=DIRECTION('Axis2P3D Direction',(0.,0.,1.)) ;
#33=DIRECTION('Axis2P3D XDirection',(-0.986265363378,-0.165168498818,-0.)) ;
#37=DIRECTION('Axis2P3D Direction',(0.,0.,1.)) ;
#46=DIRECTION('Vector Direction',(0.,0.,1.)) ;
#53=DIRECTION('Axis2P3D Direction',(0.,0.,1.)) ;
#60=DIRECTION('Vector Direction',(0.,0.,1.)) ;
#67=DIRECTION('Vector Direction',(0.,0.,1.)) ;
#94=DIRECTION('Axis2P3D Direction',(0.,0.,1.)) ;
#95=DIRECTION('Axis2P3D XDirection',(0.682375771328,0.731001577771,0.)) ;
#99=DIRECTION('Axis2P3D Direction',(0.,0.,1.)) ;
#121=DIRECTION('Vector Direction',(0.,0.,1.)) ;
#128=DIRECTION('Vector Direction',(0.,0.,1.)) ;
#135=DIRECTION('Axis2P3D Direction',(0.,0.,1.)) ;
#142=DIRECTION('Vector Direction',(0.,0.,1.)) ;
#156=DIRECTION('Axis2P3D Direction',(0.,-0.,1.)) ;
#157=DIRECTION('Axis2P3D XDirection',(-0.632841045963,-0.774281738481,0.)) ;
#161=DIRECTION('Axis2P3D Direction',(0.,-0.,1.)) ;
#166=DIRECTION('Axis2P3D Direction',(0.,-0.,1.)) ;
#178=DIRECTION('Axis2P3D Direction',(0.,0.,1.)) ;
#179=DIRECTION('Axis2P3D XDirection',(-0.682375771328,-0.731001577771,-0.)) ;
#183=DIRECTION('Axis2P3D Direction',(0.,0.,1.)) ;
#190=DIRECTION('Vector Direction',(0.,0.,1.)) ;
#197=DIRECTION('Axis2P3D Direction',(0.,0.,1.)) ;
#209=DIRECTION('Axis2P3D Direction',(0.,0.,1.)) ;
#216=DIRECTION('Vector Direction',(0.,0.,1.)) ;
#223=DIRECTION('Axis2P3D Direction',(0.,0.,1.)) ;
#235=DIRECTION('Axis2P3D Direction',(0.,0.,1.)) ;
#236=DIRECTION('Axis2P3D XDirection',(-0.277854529619,0.96062316252,0.)) ;
#240=DIRECTION('Axis2P3D Direction',(0.,0.,1.)) ;
#247=DIRECTION('Axis2P3D Direction',(0.,0.,1.)) ;
#254=DIRECTION('Vector Direction',(0.,0.,1.)) ;
#261=DIRECTION('Vector Direction',(0.,0.,1.)) ;
#288=DIRECTION('Axis2P3D Direction',(0.,-0.,1.)) ;
#289=DIRECTION('Axis2P3D XDirection',(-0.901298344043,0.433198909308,0.)) ;
#293=DIRECTION('Axis2P3D Direction',(0.,-0.,1.)) ;
#313=DIRECTION('Axis2P3D Direction',(0.,-0.,1.)) ;
#325=DIRECTION('Axis2P3D Direction',(0.,0.,1.)) ;
#326=DIRECTION('Axis2P3D XDirection',(-0.567157343805,-0.823609462893,-0.)) ;
#330=DIRECTION('Axis2P3D Direction',(0.,0.,1.)) ;
#339=DIRECTION('Vector Direction',(0.,0.,1.)) ;
#346=DIRECTION('Axis2P3D Direction',(0.,0.,1.)) ;
#353=DIRECTION('Vector Direction',(0.,0.,1.)) ;
#365=DIRECTION('Axis2P3D Direction',(0.,0.,1.)) ;
#366=DIRECTION('Axis2P3D XDirection',(0.567157343805,-0.823609462893,0.)) ;
#370=DIRECTION('Axis2P3D Direction',(0.,0.,1.)) ;
#375=DIRECTION('Vector Direction',(0.,0.,1.)) ;
#382=DIRECTION('Vector Direction',(0.,0.,1.)) ;
#389=DIRECTION('Axis2P3D Direction',(0.,0.,1.)) ;
#403=DIRECTION('Axis2P3D Direction',(0.,0.,1.)) ;
#404=DIRECTION('Axis2P3D XDirection',(1.,0.,0.)) ;
#408=DIRECTION('Axis2P3D Direction',(0.,0.,1.)) ;
#426=DIRECTION('Axis2P3D Direction',(0.,0.,1.)) ;
#438=DIRECTION('Axis2P3D Direction',(0.,0.,1.)) ;
#439=DIRECTION('Axis2P3D XDirection',(1.,0.,0.)) ;
#443=DIRECTION('Axis2P3D Direction',(0.,0.,1.)) ;
#448=DIRECTION('Axis2P3D Direction',(0.,0.,1.)) ;
#465=DIRECTION('Axis2P3D Direction',(0.,0.,1.)) ;
#474=DIRECTION('Axis2P3D Direction',(0.,0.,1.)) ;
#483=DIRECTION('Axis2P3D Direction',(0.,0.,1.)) ;
#492=DIRECTION('Axis2P3D Direction',(0.,0.,1.)) ;
#502=DIRECTION('Axis2P3D Direction',(0.,0.,1.)) ;
#503=DIRECTION('Axis2P3D XDirection',(-0.986265363378,0.165168498818,0.)) ;
#507=DIRECTION('Vector Direction',(0.,0.,1.)) ;
#514=DIRECTION('Vector Direction',(0.,0.,1.)) ;
#521=DIRECTION('Axis2P3D Direction',(0.,0.,1.)) ;
#533=DIRECTION('Axis2P3D Direction',(0.,0.,1.)) ;
#534=DIRECTION('Axis2P3D XDirection',(0.277854529619,-0.96062316252,0.)) ;
#538=DIRECTION('Axis2P3D Direction',(0.,0.,1.)) ;
#554=DIRECTION('Axis2P3D Direction',(-1.42108547152E-014,2.6645352591E-015,-1.)) ;
#555=DIRECTION('Axis2P3D XDirection',(0.0790113836737,-0.996873713792,-3.8195581463E-015)) ;
#559=DIRECTION('Vector Direction',(0.196472822077,-0.679263152383,-0.707106781187)) ;
#566=DIRECTION('Vector Direction',(-0.697394926494,0.116791765553,-0.707106781187)) ;
#573=DIRECTION('Axis2P3D Direction',(1.39122687642E-014,1.10267488238E-015,1.)) ;
#585=DIRECTION('Axis2P3D Direction',(1.42108547152E-014,-1.55431223448E-015,-1.)) ;
#586=DIRECTION('Axis2P3D XDirection',(-0.773661332318,0.633599355173,-1.19855100453E-014)) ;
#590=DIRECTION('Axis2P3D Direction',(-4.94301086619E-015,-6.03570117485E-015,1.)) ;
#602=DIRECTION('Axis2P3D Direction',(0.,0.,-1.)) ;
#603=DIRECTION('Axis2P3D XDirection',(0.87758256189,-0.479425538604,0.)) ;
#607=DIRECTION('Axis2P3D Direction',(0.,0.,-1.)) ;
#616=DIRECTION('Vector Direction',(0.,0.,-1.)) ;
#621=DIRECTION('Vector Direction',(0.,0.,-1.)) ;
#633=DIRECTION('Axis2P3D Direction',(0.,0.,-1.)) ;
#645=DIRECTION('Axis2P3D Direction',(0.,0.,1.)) ;
#646=DIRECTION('Axis2P3D XDirection',(1.,0.,0.)) ;
#654=DIRECTION('Axis2P3D Direction',(0.,0.,1.)) ;
#663=DIRECTION('Axis2P3D Direction',(0.,0.,1.)) ;
#673=DIRECTION('Axis2P3D Direction',(-0.,4.4408920985E-016,1.)) ;
#674=DIRECTION('Axis2P3D XDirection',(-0.74902668865,0.662539824984,-2.63417803193E-016)) ;
#678=DIRECTION('Vector Direction',(-0.620544572515,0.339005064155,0.707106781187)) ;
#683=DIRECTION('Vector Direction',(0.620544580564,-0.339005049421,0.707106781187)) ;
#695=DIRECTION('Axis2P3D Direction',(-0.,-4.4408920985E-016,1.)) ;
#696=DIRECTION('Axis2P3D XDirection',(0.87758256189,-0.479425538604,-2.63417803193E-016)) ;
#707=DIRECTION('Axis2P3D Direction',(0.,0.,1.)) ;
#708=DIRECTION('Axis2P3D XDirection',(0.986265363378,0.165168498818,0.)) ;
#712=DIRECTION('Vector Direction',(0.,0.,1.)) ;
#719=DIRECTION('Vector Direction',(0.,0.,1.)) ;
#726=DIRECTION('Axis2P3D Direction',(0.,0.,1.)) ;
#742=DIRECTION('Axis2P3D Direction',(0.,0.,1.)) ;
#743=DIRECTION('Axis2P3D XDirection',(-0.277854529619,-0.96062316252,-0.)) ;
#747=DIRECTION('Axis2P3D Direction',(0.,0.,1.)) ;
#759=DIRECTION('Axis2P3D Direction',(0.,-3.5527136788E-015,-1.)) ;
#760=DIRECTION('Axis2P3D XDirection',(0.963759384919,-0.266773027085,9.21962311176E-016)) ;
#764=DIRECTION('Vector Direction',(0.697394926494,0.116791765553,-0.707106781187)) ;
#771=DIRECTION('Vector Direction',(-0.196472822077,-0.679263152383,-0.707106781187)) ;
#778=DIRECTION('Axis2P3D Direction',(9.13420480572E-016,3.29987469179E-015,1.)) ;
#790=DIRECTION('Axis2P3D Direction',(0.,1.06581410364E-014,-1.)) ;
#791=DIRECTION('Axis2P3D XDirection',(-0.387732933076,-0.921771757328,-9.87816761974E-015)) ;
#795=DIRECTION('Axis2P3D Direction',(3.8092331113E-015,-1.60231110931E-015,1.)) ;
#807=DIRECTION('Axis2P3D Direction',(0.,-0.,-1.)) ;
#808=DIRECTION('Axis2P3D XDirection',(0.87758256189,-0.479425538604,0.)) ;
#812=DIRECTION('Axis2P3D Direction',(0.,-0.,-1.)) ;
#821=DIRECTION('Vector Direction',(0.,0.,-1.)) ;
#826=DIRECTION('Vector Direction',(0.,0.,-1.)) ;
#838=DIRECTION('Axis2P3D Direction',(0.,-0.,-1.)) ;
#854=DIRECTION('Axis2P3D Direction',(0.,0.,1.)) ;
#863=DIRECTION('Axis2P3D Direction',(0.,0.,1.)) ;
#873=DIRECTION('Axis2P3D Direction',(-0.,7.77156117238E-016,1.)) ;
#874=DIRECTION('Axis2P3D XDirection',(-0.749026688637,0.662539824999,-5.26835606386E-016)) ;
#878=DIRECTION('Vector Direction',(-0.620544572515,0.339005064155,0.707106781187)) ;
#883=DIRECTION('Vector Direction',(0.620544580564,-0.339005049421,0.707106781187)) ;
#895=DIRECTION('Axis2P3D Direction',(-0.,-4.4408920985E-016,1.)) ;
#896=DIRECTION('Axis2P3D XDirection',(0.87758256189,-0.479425538604,-2.63417803193E-016)) ;
#909=DIRECTION('Axis2P3D Direction',(0.,0.,1.)) ;
#910=DIRECTION('Axis2P3D XDirection',(1.,0.,0.)) ;
#15=UNCERTAINTY_MEASURE_WITH_UNIT(LENGTH_MEASURE(0.005),#12,'distance_accuracy_value','CONFUSED CURVE UNCERTAINTY') ;
#18=AXIS2_PLACEMENT_3D(' ',#17,$,$) ;
#34=AXIS2_PLACEMENT_3D('Cylinder Axis2P3D',#31,#32,#33) ;
#38=AXIS2_PLACEMENT_3D('Circle Axis2P3D',#36,#37,$) ;
#54=AXIS2_PLACEMENT_3D('Circle Axis2P3D',#52,#53,$) ;
#96=AXIS2_PLACEMENT_3D('Cylinder Axis2P3D',#93,#94,#95) ;
#100=AXIS2_PLACEMENT_3D('Circle Axis2P3D',#98,#99,$) ;
#136=AXIS2_PLACEMENT_3D('Circle Axis2P3D',#134,#135,$) ;
#158=AXIS2_PLACEMENT_3D('Torus Axis2P3D',#155,#156,#157) ;
#162=AXIS2_PLACEMENT_3D('Circle Axis2P3D',#160,#161,$) ;
#167=AXIS2_PLACEMENT_3D('Circle Axis2P3D',#165,#166,$) ;
#180=AXIS2_PLACEMENT_3D('Cylinder Axis2P3D',#177,#178,#179) ;
#184=AXIS2_PLACEMENT_3D('Circle Axis2P3D',#182,#183,$) ;
#198=AXIS2_PLACEMENT_3D('Circle Axis2P3D',#196,#197,$) ;
#210=AXIS2_PLACEMENT_3D('Circle Axis2P3D',#208,#209,$) ;
#224=AXIS2_PLACEMENT_3D('Circle Axis2P3D',#222,#223,$) ;
#237=AXIS2_PLACEMENT_3D('Cylinder Axis2P3D',#234,#235,#236) ;
#241=AXIS2_PLACEMENT_3D('Circle Axis2P3D',#239,#240,$) ;
#248=AXIS2_PLACEMENT_3D('Circle Axis2P3D',#246,#247,$) ;
#290=AXIS2_PLACEMENT_3D('Torus Axis2P3D',#287,#288,#289) ;
#294=AXIS2_PLACEMENT_3D('Circle Axis2P3D',#292,#293,$) ;
#314=AXIS2_PLACEMENT_3D('Circle Axis2P3D',#312,#313,$) ;
#327=AXIS2_PLACEMENT_3D('Cylinder Axis2P3D',#324,#325,#326) ;
#331=AXIS2_PLACEMENT_3D('Circle Axis2P3D',#329,#330,$) ;
#347=AXIS2_PLACEMENT_3D('Circle Axis2P3D',#345,#346,$) ;
#367=AXIS2_PLACEMENT_3D('Cylinder Axis2P3D',#364,#365,#366) ;
#371=AXIS2_PLACEMENT_3D('Circle Axis2P3D',#369,#370,$) ;
#390=AXIS2_PLACEMENT_3D('Circle Axis2P3D',#388,#389,$) ;
#405=AXIS2_PLACEMENT_3D('Plane Axis2P3D',#402,#403,#404) ;
#409=AXIS2_PLACEMENT_3D('Circle Axis2P3D',#407,#408,$) ;
#427=AXIS2_PLACEMENT_3D('Circle Axis2P3D',#425,#426,$) ;
#440=AXIS2_PLACEMENT_3D('Plane Axis2P3D',#437,#438,#439) ;
#444=AXIS2_PLACEMENT_3D('Circle Axis2P3D',#442,#443,$) ;
#449=AXIS2_PLACEMENT_3D('Circle Axis2P3D',#447,#448,$) ;
#466=AXIS2_PLACEMENT_3D('Circle Axis2P3D',#464,#465,$) ;
#475=AXIS2_PLACEMENT_3D('Circle Axis2P3D',#473,#474,$) ;
#484=AXIS2_PLACEMENT_3D('Circle Axis2P3D',#482,#483,$) ;
#493=AXIS2_PLACEMENT_3D('Circle Axis2P3D',#491,#492,$) ;
#504=AXIS2_PLACEMENT_3D('Cylinder Axis2P3D',#501,#502,#503) ;
#522=AXIS2_PLACEMENT_3D('Circle Axis2P3D',#520,#521,$) ;
#535=AXIS2_PLACEMENT_3D('Cylinder Axis2P3D',#532,#533,#534) ;
#539=AXIS2_PLACEMENT_3D('Circle Axis2P3D',#537,#538,$) ;
#556=AXIS2_PLACEMENT_3D('Cone Axis2P3D',#553,#554,#555) ;
#574=AXIS2_PLACEMENT_3D('Circle Axis2P3D',#572,#573,$) ;
#587=AXIS2_PLACEMENT_3D('Cone Axis2P3D',#584,#585,#586) ;
#591=AXIS2_PLACEMENT_3D('Circle Axis2P3D',#589,#590,$) ;
#604=AXIS2_PLACEMENT_3D('Cylinder Axis2P3D',#601,#602,#603) ;
#608=AXIS2_PLACEMENT_3D('Circle Axis2P3D',#606,#607,$) ;
#634=AXIS2_PLACEMENT_3D('Circle Axis2P3D',#632,#633,$) ;
#647=AXIS2_PLACEMENT_3D('Plane Axis2P3D',#644,#645,#646) ;
#655=AXIS2_PLACEMENT_3D('Circle Axis2P3D',#653,#654,$) ;
#664=AXIS2_PLACEMENT_3D('Circle Axis2P3D',#662,#663,$) ;
#675=AXIS2_PLACEMENT_3D('Cone Axis2P3D',#672,#673,#674) ;
#697=AXIS2_PLACEMENT_3D('Cone Axis2P3D',#694,#695,#696) ;
#709=AXIS2_PLACEMENT_3D('Cylinder Axis2P3D',#706,#707,#708) ;
#727=AXIS2_PLACEMENT_3D('Circle Axis2P3D',#725,#726,$) ;
#744=AXIS2_PLACEMENT_3D('Cylinder Axis2P3D',#741,#742,#743) ;
#748=AXIS2_PLACEMENT_3D('Circle Axis2P3D',#746,#747,$) ;
#761=AXIS2_PLACEMENT_3D('Cone Axis2P3D',#758,#759,#760) ;
#779=AXIS2_PLACEMENT_3D('Circle Axis2P3D',#777,#778,$) ;
#792=AXIS2_PLACEMENT_3D('Cone Axis2P3D',#789,#790,#791) ;
#796=AXIS2_PLACEMENT_3D('Circle Axis2P3D',#794,#795,$) ;
#809=AXIS2_PLACEMENT_3D('Cylinder Axis2P3D',#806,#807,#808) ;
#813=AXIS2_PLACEMENT_3D('Circle Axis2P3D',#811,#812,$) ;
#839=AXIS2_PLACEMENT_3D('Circle Axis2P3D',#837,#838,$) ;
#855=AXIS2_PLACEMENT_3D('Circle Axis2P3D',#853,#854,$) ;
#864=AXIS2_PLACEMENT_3D('Circle Axis2P3D',#862,#863,$) ;
#875=AXIS2_PLACEMENT_3D('Cone Axis2P3D',#872,#873,#874) ;
#897=AXIS2_PLACEMENT_3D('Cone Axis2P3D',#894,#895,#896) ;
#911=AXIS2_PLACEMENT_3D('Absolute Axis System',#908,#909,#910) ;
#48=LINE('Line',#45,#47) ;
#62=LINE('Line',#59,#61) ;
#69=LINE('Line',#66,#68) ;
#123=LINE('Line',#120,#122) ;
#130=LINE('Line',#127,#129) ;
#144=LINE('Line',#141,#143) ;
#192=LINE('Line',#189,#191) ;
#218=LINE('Line',#215,#217) ;
#256=LINE('Line',#253,#255) ;
#263=LINE('Line',#260,#262) ;
#341=LINE('Line',#338,#340) ;
#355=LINE('Line',#352,#354) ;
#377=LINE('Line',#374,#376) ;
#384=LINE('Line',#381,#383) ;
#509=LINE('Line',#506,#508) ;
#516=LINE('Line',#513,#515) ;
#561=LINE('Line',#558,#560) ;
#568=LINE('Line',#565,#567) ;
#618=LINE('Line',#615,#617) ;
#623=LINE('Line',#620,#622) ;
#680=LINE('Line',#677,#679) ;
#685=LINE('Line',#682,#684) ;
#714=LINE('Line',#711,#713) ;
#721=LINE('Line',#718,#720) ;
#766=LINE('Line',#763,#765) ;
#773=LINE('Line',#770,#772) ;
#823=LINE('Line',#820,#822) ;
#828=LINE('Line',#825,#827) ;
#880=LINE('Line',#877,#879) ;
#885=LINE('Line',#882,#884) ;
#39=CIRCLE('generated circle',#38,40.) ;
#55=CIRCLE('generated circle',#54,40.) ;
#101=CIRCLE('generated circle',#100,40.) ;
#137=CIRCLE('generated circle',#136,40.) ;
#163=CIRCLE('generated circle',#162,16.75) ;
#168=CIRCLE('generated circle',#167,21.75) ;
#185=CIRCLE('generated circle',#184,115.) ;
#199=CIRCLE('generated circle',#198,115.) ;
#211=CIRCLE('generated circle',#210,115.) ;
#225=CIRCLE('generated circle',#224,115.) ;
#242=CIRCLE('generated circle',#241,40.) ;
#249=CIRCLE('generated circle',#248,40.) ;
#295=CIRCLE('generated circle',#294,16.75) ;
#315=CIRCLE('generated circle',#314,21.75) ;
#332=CIRCLE('generated circle',#331,100.) ;
#348=CIRCLE('generated circle',#347,100.) ;
#372=CIRCLE('generated circle',#371,40.) ;
#391=CIRCLE('generated circle',#390,40.) ;
#410=CIRCLE('generated circle',#409,100.) ;
#428=CIRCLE('generated circle',#427,100.) ;
#445=CIRCLE('generated circle',#444,16.75) ;
#450=CIRCLE('generated circle',#449,16.75) ;
#467=CIRCLE('generated circle',#466,8.647) ;
#476=CIRCLE('generated circle',#475,8.647) ;
#485=CIRCLE('generated circle',#484,8.647) ;
#494=CIRCLE('generated circle',#493,8.647) ;
#523=CIRCLE('generated circle',#522,16.75) ;
#540=CIRCLE('generated circle',#539,16.75) ;
#575=CIRCLE('generated circle',#574,15.75) ;
#592=CIRCLE('generated circle',#591,15.75) ;
#609=CIRCLE('generated circle',#608,8.647) ;
#635=CIRCLE('generated circle',#634,8.647) ;
#656=CIRCLE('generated circle',#655,9.647) ;
#665=CIRCLE('generated circle',#664,9.647) ;
#728=CIRCLE('generated circle',#727,16.75) ;
#749=CIRCLE('generated circle',#748,16.75) ;
#780=CIRCLE('generated circle',#779,15.75) ;
#797=CIRCLE('generated circle',#796,15.75) ;
#814=CIRCLE('generated circle',#813,8.647) ;
#840=CIRCLE('generated circle',#839,8.647) ;
#856=CIRCLE('generated circle',#855,9.647) ;
#865=CIRCLE('generated circle',#864,9.647) ;
#406=PLANE('',#405) ;
#441=PLANE('',#440) ;
#648=PLANE('',#647) ;
#35=CYLINDRICAL_SURFACE('generated cylinder',#34,40.) ;
#97=CYLINDRICAL_SURFACE('generated cylinder',#96,40.) ;
#181=CYLINDRICAL_SURFACE('generated cylinder',#180,115.) ;
#238=CYLINDRICAL_SURFACE('generated cylinder',#237,40.) ;
#328=CYLINDRICAL_SURFACE('generated cylinder',#327,100.) ;
#368=CYLINDRICAL_SURFACE('generated cylinder',#367,40.) ;
#505=CYLINDRICAL_SURFACE('generated cylinder',#504,16.75) ;
#536=CYLINDRICAL_SURFACE('generated cylinder',#535,16.75) ;
#605=CYLINDRICAL_SURFACE('generated cylinder',#604,8.647) ;
#710=CYLINDRICAL_SURFACE('generated cylinder',#709,16.75) ;
#745=CYLINDRICAL_SURFACE('generated cylinder',#744,16.75) ;
#810=CYLINDRICAL_SURFACE('generated cylinder',#809,8.647) ;
#557=CONICAL_SURFACE('Cone',#556,0.,0.785398163397) ;
#588=CONICAL_SURFACE('Cone',#587,0.,0.785398163397) ;
#676=CONICAL_SURFACE('Cone',#675,0.,0.785398163397) ;
#698=CONICAL_SURFACE('Cone',#697,0.,0.785398163397) ;
#762=CONICAL_SURFACE('Cone',#761,0.,0.785398163397) ;
#793=CONICAL_SURFACE('Cone',#792,0.,0.785398163397) ;
#876=CONICAL_SURFACE('Cone',#875,0.,0.785398163397) ;
#898=CONICAL_SURFACE('Cone',#897,0.,0.785398163397) ;
#159=TOROIDAL_SURFACE('homeo Torus',#158,21.75,5.) ;
#291=TOROIDAL_SURFACE('homeo Torus',#290,21.75,5.) ;
#481=FACE_BOUND('',#478,.T.) ;
#499=FACE_BOUND('',#496,.T.) ;
#670=FACE_BOUND('',#667,.T.) ;
#870=FACE_BOUND('',#867,.T.) ;
#44=EDGE_CURVE('',#41,#43,#39,.F.) ;
#51=EDGE_CURVE('',#50,#41,#48,.T.) ;
#58=EDGE_CURVE('',#50,#57,#55,.F.) ;
#65=EDGE_CURVE('',#57,#64,#62,.T.) ;
#72=EDGE_CURVE('',#71,#64,#69,.F.) ;
#83=EDGE_CURVE('',#71,#43,#73,.F.) ;
#106=EDGE_CURVE('',#103,#105,#101,.F.) ;
#119=EDGE_CURVE('',#103,#118,#107,.T.) ;
#126=EDGE_CURVE('',#125,#118,#123,.T.) ;
#133=EDGE_CURVE('',#132,#125,#130,.T.) ;
#140=EDGE_CURVE('',#132,#139,#137,.F.) ;
#145=EDGE_CURVE('',#139,#105,#144,.T.) ;
#164=EDGE_CURVE('',#118,#71,#163,.T.) ;
#169=EDGE_CURVE('',#103,#43,#168,.T.) ;
#188=EDGE_CURVE('',#139,#187,#185,.T.) ;
#195=EDGE_CURVE('',#187,#194,#192,.T.) ;
#200=EDGE_CURVE('',#105,#194,#199,.T.) ;
#214=EDGE_CURVE('',#187,#213,#211,.T.) ;
#221=EDGE_CURVE('',#213,#220,#218,.T.) ;
#226=EDGE_CURVE('',#194,#220,#225,.T.) ;
#245=EDGE_CURVE('',#220,#244,#242,.F.) ;
#252=EDGE_CURVE('',#213,#251,#249,.F.) ;
#259=EDGE_CURVE('',#251,#258,#256,.T.) ;
#266=EDGE_CURVE('',#265,#258,#263,.F.) ;
#277=EDGE_CURVE('',#265,#244,#267,.F.) ;
#298=EDGE_CURVE('',#297,#265,#295,.T.) ;
#311=EDGE_CURVE('',#310,#297,#299,.T.) ;
#316=EDGE_CURVE('',#310,#244,#315,.T.) ;
#337=EDGE_CURVE('',#334,#336,#332,.F.) ;
#344=EDGE_CURVE('',#343,#334,#341,.T.) ;
#351=EDGE_CURVE('',#343,#350,#348,.F.) ;
#356=EDGE_CURVE('',#350,#336,#355,.T.) ;
#373=EDGE_CURVE('',#310,#334,#372,.F.) ;
#380=EDGE_CURVE('',#379,#297,#377,.T.) ;
#387=EDGE_CURVE('',#386,#379,#384,.T.) ;
#392=EDGE_CURVE('',#386,#343,#391,.F.) ;
#411=EDGE_CURVE('',#336,#41,#410,.F.) ;
#429=EDGE_CURVE('',#350,#50,#428,.F.) ;
#446=EDGE_CURVE('',#57,#132,#445,.T.) ;
#451=EDGE_CURVE('',#251,#386,#450,.T.) ;
#472=EDGE_CURVE('',#469,#471,#467,.T.) ;
#477=EDGE_CURVE('',#471,#469,#476,.T.) ;
#490=EDGE_CURVE('',#487,#489,#485,.T.) ;
#495=EDGE_CURVE('',#489,#487,#494,.T.) ;
#512=EDGE_CURVE('',#297,#511,#509,.T.) ;
#519=EDGE_CURVE('',#265,#518,#516,.T.) ;
#524=EDGE_CURVE('',#511,#518,#523,.T.) ;
#541=EDGE_CURVE('',#518,#511,#540,.T.) ;
#564=EDGE_CURVE('',#563,#518,#561,.T.) ;
#571=EDGE_CURVE('',#570,#511,#568,.T.) ;
#576=EDGE_CURVE('',#563,#570,#575,.T.) ;
#593=EDGE_CURVE('',#570,#563,#592,.T.) ;
#614=EDGE_CURVE('',#611,#613,#609,.F.) ;
#619=EDGE_CURVE('',#469,#613,#618,.F.) ;
#624=EDGE_CURVE('',#471,#611,#623,.F.) ;
#636=EDGE_CURVE('',#613,#611,#635,.F.) ;
#661=EDGE_CURVE('',#658,#660,#656,.T.) ;
#666=EDGE_CURVE('',#660,#658,#665,.T.) ;
#681=EDGE_CURVE('',#613,#660,#680,.T.) ;
#686=EDGE_CURVE('',#611,#658,#685,.T.) ;
#717=EDGE_CURVE('',#71,#716,#714,.T.) ;
#724=EDGE_CURVE('',#118,#723,#721,.T.) ;
#729=EDGE_CURVE('',#716,#723,#728,.T.) ;
#750=EDGE_CURVE('',#723,#716,#749,.T.) ;
#769=EDGE_CURVE('',#768,#716,#766,.T.) ;
#776=EDGE_CURVE('',#775,#723,#773,.T.) ;
#781=EDGE_CURVE('',#768,#775,#780,.T.) ;
#798=EDGE_CURVE('',#775,#768,#797,.T.) ;
#819=EDGE_CURVE('',#816,#818,#814,.F.) ;
#824=EDGE_CURVE('',#489,#818,#823,.F.) ;
#829=EDGE_CURVE('',#487,#816,#828,.F.) ;
#841=EDGE_CURVE('',#818,#816,#840,.F.) ;
#861=EDGE_CURVE('',#858,#860,#856,.T.) ;
#866=EDGE_CURVE('',#860,#858,#865,.T.) ;
#881=EDGE_CURVE('',#818,#860,#880,.T.) ;
#886=EDGE_CURVE('',#816,#858,#885,.T.) ;
#30=CLOSED_SHELL('Closed Shell',(#92,#154,#176,#207,#233,#286,#323,#363,#401,#424,#436,#500,#531,#552,#583,#600,#631,#643,#671,#693,#705,#740,#757,#788,#805,#836,#848,#871,#893,#905)) ;
#917=CONSTRUCTIVE_GEOMETRY_REPRESENTATION('supplemental geometry',(#911),#16) ;
#907=SHAPE_REPRESENTATION_RELATIONSHIP(' ',' ',#19,#906) ;
#84=EDGE_LOOP('',(#85,#86,#87,#88,#89,#90)) ;
#146=EDGE_LOOP('',(#147,#148,#149,#150,#151,#152)) ;
#170=EDGE_LOOP('',(#171,#172,#173,#174)) ;
#201=EDGE_LOOP('',(#202,#203,#204,#205)) ;
#227=EDGE_LOOP('',(#228,#229,#230,#231)) ;
#278=EDGE_LOOP('',(#279,#280,#281,#282,#283,#284)) ;
#317=EDGE_LOOP('',(#318,#319,#320,#321)) ;
#357=EDGE_LOOP('',(#358,#359,#360,#361)) ;
#393=EDGE_LOOP('',(#394,#395,#396,#397,#398,#399)) ;
#412=EDGE_LOOP('',(#413,#414,#415,#416,#417,#418,#419,#420,#421,#422)) ;
#430=EDGE_LOOP('',(#431,#432,#433,#434)) ;
#452=EDGE_LOOP('',(#453,#454,#455,#456,#457,#458,#459,#460,#461,#462)) ;
#478=EDGE_LOOP('',(#479,#480)) ;
#496=EDGE_LOOP('',(#497,#498)) ;
#525=EDGE_LOOP('',(#526,#527,#528,#529)) ;
#542=EDGE_LOOP('',(#543,#544,#545,#546,#547,#548,#549,#550)) ;
#577=EDGE_LOOP('',(#578,#579,#580,#581)) ;
#594=EDGE_LOOP('',(#595,#596,#597,#598)) ;
#625=EDGE_LOOP('',(#626,#627,#628,#629)) ;
#637=EDGE_LOOP('',(#638,#639,#640,#641)) ;
#649=EDGE_LOOP('',(#650,#651)) ;
#667=EDGE_LOOP('',(#668,#669)) ;
#687=EDGE_LOOP('',(#688,#689,#690,#691)) ;
#699=EDGE_LOOP('',(#700,#701,#702,#703)) ;
#730=EDGE_LOOP('',(#731,#732,#733,#734,#735,#736,#737,#738)) ;
#751=EDGE_LOOP('',(#752,#753,#754,#755)) ;
#782=EDGE_LOOP('',(#783,#784,#785,#786)) ;
#799=EDGE_LOOP('',(#800,#801,#802,#803)) ;
#830=EDGE_LOOP('',(#831,#832,#833,#834)) ;
#842=EDGE_LOOP('',(#843,#844,#845,#846)) ;
#849=EDGE_LOOP('',(#850,#851)) ;
#867=EDGE_LOOP('',(#868,#869)) ;
#887=EDGE_LOOP('',(#888,#889,#890,#891)) ;
#899=EDGE_LOOP('',(#900,#901,#902,#903)) ;
#85=ORIENTED_EDGE('',*,*,#44,.F.) ;
#86=ORIENTED_EDGE('',*,*,#51,.F.) ;
#87=ORIENTED_EDGE('',*,*,#58,.T.) ;
#88=ORIENTED_EDGE('',*,*,#65,.T.) ;
#89=ORIENTED_EDGE('',*,*,#72,.F.) ;
#90=ORIENTED_EDGE('',*,*,#83,.T.) ;
#147=ORIENTED_EDGE('',*,*,#106,.F.) ;
#148=ORIENTED_EDGE('',*,*,#119,.T.) ;
#149=ORIENTED_EDGE('',*,*,#126,.F.) ;
#150=ORIENTED_EDGE('',*,*,#133,.F.) ;
#151=ORIENTED_EDGE('',*,*,#140,.T.) ;
#152=ORIENTED_EDGE('',*,*,#145,.T.) ;
#171=ORIENTED_EDGE('',*,*,#164,.F.) ;
#172=ORIENTED_EDGE('',*,*,#119,.F.) ;
#173=ORIENTED_EDGE('',*,*,#169,.T.) ;
#174=ORIENTED_EDGE('',*,*,#83,.F.) ;
#202=ORIENTED_EDGE('',*,*,#145,.F.) ;
#203=ORIENTED_EDGE('',*,*,#188,.T.) ;
#204=ORIENTED_EDGE('',*,*,#195,.T.) ;
#205=ORIENTED_EDGE('',*,*,#200,.F.) ;
#228=ORIENTED_EDGE('',*,*,#195,.F.) ;
#229=ORIENTED_EDGE('',*,*,#214,.T.) ;
#230=ORIENTED_EDGE('',*,*,#221,.T.) ;
#231=ORIENTED_EDGE('',*,*,#226,.F.) ;
#279=ORIENTED_EDGE('',*,*,#245,.F.) ;
#280=ORIENTED_EDGE('',*,*,#221,.F.) ;
#281=ORIENTED_EDGE('',*,*,#252,.T.) ;
#282=ORIENTED_EDGE('',*,*,#259,.T.) ;
#283=ORIENTED_EDGE('',*,*,#266,.F.) ;
#284=ORIENTED_EDGE('',*,*,#277,.T.) ;
#318=ORIENTED_EDGE('',*,*,#298,.F.) ;
#319=ORIENTED_EDGE('',*,*,#311,.F.) ;
#320=ORIENTED_EDGE('',*,*,#316,.T.) ;
#321=ORIENTED_EDGE('',*,*,#277,.F.) ;
#358=ORIENTED_EDGE('',*,*,#337,.F.) ;
#359=ORIENTED_EDGE('',*,*,#344,.F.) ;
#360=ORIENTED_EDGE('',*,*,#351,.T.) ;
#361=ORIENTED_EDGE('',*,*,#356,.T.) ;
#394=ORIENTED_EDGE('',*,*,#373,.F.) ;
#395=ORIENTED_EDGE('',*,*,#311,.T.) ;
#396=ORIENTED_EDGE('',*,*,#380,.F.) ;
#397=ORIENTED_EDGE('',*,*,#387,.F.) ;
#398=ORIENTED_EDGE('',*,*,#392,.T.) ;
#399=ORIENTED_EDGE('',*,*,#344,.T.) ;
#413=ORIENTED_EDGE('',*,*,#373,.T.) ;
#414=ORIENTED_EDGE('',*,*,#337,.T.) ;
#415=ORIENTED_EDGE('',*,*,#411,.T.) ;
#416=ORIENTED_EDGE('',*,*,#44,.T.) ;
#417=ORIENTED_EDGE('',*,*,#169,.F.) ;
#418=ORIENTED_EDGE('',*,*,#106,.T.) ;
#419=ORIENTED_EDGE('',*,*,#200,.T.) ;
#420=ORIENTED_EDGE('',*,*,#226,.T.) ;
#421=ORIENTED_EDGE('',*,*,#245,.T.) ;
#422=ORIENTED_EDGE('',*,*,#316,.F.) ;
#431=ORIENTED_EDGE('',*,*,#411,.F.) ;
#432=ORIENTED_EDGE('',*,*,#356,.F.) ;
#433=ORIENTED_EDGE('',*,*,#429,.T.) ;
#434=ORIENTED_EDGE('',*,*,#51,.T.) ;
#453=ORIENTED_EDGE('',*,*,#252,.F.) ;
#454=ORIENTED_EDGE('',*,*,#214,.F.) ;
#455=ORIENTED_EDGE('',*,*,#188,.F.) ;
#456=ORIENTED_EDGE('',*,*,#140,.F.) ;
#457=ORIENTED_EDGE('',*,*,#446,.F.) ;
#458=ORIENTED_EDGE('',*,*,#58,.F.) ;
#459=ORIENTED_EDGE('',*,*,#429,.F.) ;
#460=ORIENTED_EDGE('',*,*,#351,.F.) ;
#461=ORIENTED_EDGE('',*,*,#392,.F.) ;
#462=ORIENTED_EDGE('',*,*,#451,.F.) ;
#479=ORIENTED_EDGE('',*,*,#472,.T.) ;
#480=ORIENTED_EDGE('',*,*,#477,.T.) ;
#497=ORIENTED_EDGE('',*,*,#490,.T.) ;
#498=ORIENTED_EDGE('',*,*,#495,.T.) ;
#526=ORIENTED_EDGE('',*,*,#512,.F.) ;
#527=ORIENTED_EDGE('',*,*,#298,.T.) ;
#528=ORIENTED_EDGE('',*,*,#519,.T.) ;
#529=ORIENTED_EDGE('',*,*,#524,.F.) ;
#543=ORIENTED_EDGE('',*,*,#519,.F.) ;
#544=ORIENTED_EDGE('',*,*,#266,.T.) ;
#545=ORIENTED_EDGE('',*,*,#259,.F.) ;
#546=ORIENTED_EDGE('',*,*,#451,.T.) ;
#547=ORIENTED_EDGE('',*,*,#387,.T.) ;
#548=ORIENTED_EDGE('',*,*,#380,.T.) ;
#549=ORIENTED_EDGE('',*,*,#512,.T.) ;
#550=ORIENTED_EDGE('',*,*,#541,.F.) ;
#578=ORIENTED_EDGE('',*,*,#564,.T.) ;
#579=ORIENTED_EDGE('',*,*,#541,.T.) ;
#580=ORIENTED_EDGE('',*,*,#571,.F.) ;
#581=ORIENTED_EDGE('',*,*,#576,.F.) ;
#595=ORIENTED_EDGE('',*,*,#571,.T.) ;
#596=ORIENTED_EDGE('',*,*,#524,.T.) ;
#597=ORIENTED_EDGE('',*,*,#564,.F.) ;
#598=ORIENTED_EDGE('',*,*,#593,.F.) ;
#626=ORIENTED_EDGE('',*,*,#614,.T.) ;
#627=ORIENTED_EDGE('',*,*,#619,.F.) ;
#628=ORIENTED_EDGE('',*,*,#477,.F.) ;
#629=ORIENTED_EDGE('',*,*,#624,.T.) ;
#638=ORIENTED_EDGE('',*,*,#636,.T.) ;
#639=ORIENTED_EDGE('',*,*,#624,.F.) ;
#640=ORIENTED_EDGE('',*,*,#472,.F.) ;
#641=ORIENTED_EDGE('',*,*,#619,.T.) ;
#650=ORIENTED_EDGE('',*,*,#576,.T.) ;
#651=ORIENTED_EDGE('',*,*,#593,.T.) ;
#668=ORIENTED_EDGE('',*,*,#661,.F.) ;
#669=ORIENTED_EDGE('',*,*,#666,.F.) ;
#688=ORIENTED_EDGE('',*,*,#681,.T.) ;
#689=ORIENTED_EDGE('',*,*,#666,.T.) ;
#690=ORIENTED_EDGE('',*,*,#686,.F.) ;
#691=ORIENTED_EDGE('',*,*,#636,.F.) ;
#700=ORIENTED_EDGE('',*,*,#686,.T.) ;
#701=ORIENTED_EDGE('',*,*,#661,.T.) ;
#702=ORIENTED_EDGE('',*,*,#681,.F.) ;
#703=ORIENTED_EDGE('',*,*,#614,.F.) ;
#731=ORIENTED_EDGE('',*,*,#717,.F.) ;
#732=ORIENTED_EDGE('',*,*,#72,.T.) ;
#733=ORIENTED_EDGE('',*,*,#65,.F.) ;
#734=ORIENTED_EDGE('',*,*,#446,.T.) ;
#735=ORIENTED_EDGE('',*,*,#133,.T.) ;
#736=ORIENTED_EDGE('',*,*,#126,.T.) ;
#737=ORIENTED_EDGE('',*,*,#724,.T.) ;
#738=ORIENTED_EDGE('',*,*,#729,.F.) ;
#752=ORIENTED_EDGE('',*,*,#724,.F.) ;
#753=ORIENTED_EDGE('',*,*,#164,.T.) ;
#754=ORIENTED_EDGE('',*,*,#717,.T.) ;
#755=ORIENTED_EDGE('',*,*,#750,.F.) ;
#783=ORIENTED_EDGE('',*,*,#769,.T.) ;
#784=ORIENTED_EDGE('',*,*,#729,.T.) ;
#785=ORIENTED_EDGE('',*,*,#776,.F.) ;
#786=ORIENTED_EDGE('',*,*,#781,.F.) ;
#800=ORIENTED_EDGE('',*,*,#776,.T.) ;
#801=ORIENTED_EDGE('',*,*,#750,.T.) ;
#802=ORIENTED_EDGE('',*,*,#769,.F.) ;
#803=ORIENTED_EDGE('',*,*,#798,.F.) ;
#831=ORIENTED_EDGE('',*,*,#819,.T.) ;
#832=ORIENTED_EDGE('',*,*,#824,.F.) ;
#833=ORIENTED_EDGE('',*,*,#490,.F.) ;
#834=ORIENTED_EDGE('',*,*,#829,.T.) ;
#843=ORIENTED_EDGE('',*,*,#841,.T.) ;
#844=ORIENTED_EDGE('',*,*,#829,.F.) ;
#845=ORIENTED_EDGE('',*,*,#495,.F.) ;
#846=ORIENTED_EDGE('',*,*,#824,.T.) ;
#850=ORIENTED_EDGE('',*,*,#781,.T.) ;
#851=ORIENTED_EDGE('',*,*,#798,.T.) ;
#868=ORIENTED_EDGE('',*,*,#861,.F.) ;
#869=ORIENTED_EDGE('',*,*,#866,.F.) ;
#888=ORIENTED_EDGE('',*,*,#881,.T.) ;
#889=ORIENTED_EDGE('',*,*,#866,.T.) ;
#890=ORIENTED_EDGE('',*,*,#886,.F.) ;
#891=ORIENTED_EDGE('',*,*,#841,.F.) ;
#900=ORIENTED_EDGE('',*,*,#886,.T.) ;
#901=ORIENTED_EDGE('',*,*,#861,.T.) ;
#902=ORIENTED_EDGE('',*,*,#881,.F.) ;
#903=ORIENTED_EDGE('',*,*,#819,.F.) ;
#21=MANIFOLD_SOLID_BREP('PartBody',#30) ;
#41=VERTEX_POINT('',#40) ;
#43=VERTEX_POINT('',#42) ;
#50=VERTEX_POINT('',#49) ;
#57=VERTEX_POINT('',#56) ;
#64=VERTEX_POINT('',#63) ;
#71=VERTEX_POINT('',#70) ;
#103=VERTEX_POINT('',#102) ;
#105=VERTEX_POINT('',#104) ;
#118=VERTEX_POINT('',#117) ;
#125=VERTEX_POINT('',#124) ;
#132=VERTEX_POINT('',#131) ;
#139=VERTEX_POINT('',#138) ;
#187=VERTEX_POINT('',#186) ;
#194=VERTEX_POINT('',#193) ;
#213=VERTEX_POINT('',#212) ;
#220=VERTEX_POINT('',#219) ;
#244=VERTEX_POINT('',#243) ;
#251=VERTEX_POINT('',#250) ;
#258=VERTEX_POINT('',#257) ;
#265=VERTEX_POINT('',#264) ;
#297=VERTEX_POINT('',#296) ;
#310=VERTEX_POINT('',#309) ;
#334=VERTEX_POINT('',#333) ;
#336=VERTEX_POINT('',#335) ;
#343=VERTEX_POINT('',#342) ;
#350=VERTEX_POINT('',#349) ;
#379=VERTEX_POINT('',#378) ;
#386=VERTEX_POINT('',#385) ;
#469=VERTEX_POINT('',#468) ;
#471=VERTEX_POINT('',#470) ;
#487=VERTEX_POINT('',#486) ;
#489=VERTEX_POINT('',#488) ;
#511=VERTEX_POINT('',#510) ;
#518=VERTEX_POINT('',#517) ;
#563=VERTEX_POINT('',#562) ;
#570=VERTEX_POINT('',#569) ;
#611=VERTEX_POINT('',#610) ;
#613=VERTEX_POINT('',#612) ;
#658=VERTEX_POINT('',#657) ;
#660=VERTEX_POINT('',#659) ;
#716=VERTEX_POINT('',#715) ;
#723=VERTEX_POINT('',#722) ;
#768=VERTEX_POINT('',#767) ;
#775=VERTEX_POINT('',#774) ;
#816=VERTEX_POINT('',#815) ;
#818=VERTEX_POINT('',#817) ;
#858=VERTEX_POINT('',#857) ;
#860=VERTEX_POINT('',#859) ;
#906=ADVANCED_BREP_SHAPE_REPRESENTATION('NONE',(#21),#16) ;
#92=ADVANCED_FACE('PartBody',(#91),#35,.F.) ;
#154=ADVANCED_FACE('PartBody',(#153),#97,.F.) ;
#176=ADVANCED_FACE('PartBody',(#175),#159,.F.) ;
#207=ADVANCED_FACE('PartBody',(#206),#181,.T.) ;
#233=ADVANCED_FACE('PartBody',(#232),#181,.T.) ;
#286=ADVANCED_FACE('PartBody',(#285),#238,.F.) ;
#323=ADVANCED_FACE('PartBody',(#322),#291,.F.) ;
#363=ADVANCED_FACE('PartBody',(#362),#328,.F.) ;
#401=ADVANCED_FACE('PartBody',(#400),#368,.F.) ;
#424=ADVANCED_FACE('PartBody',(#423),#406,.T.) ;
#436=ADVANCED_FACE('PartBody',(#435),#328,.F.) ;
#500=ADVANCED_FACE('PartBody',(#463,#481,#499),#441,.F.) ;
#531=ADVANCED_FACE('PartBody',(#530),#505,.T.) ;
#552=ADVANCED_FACE('PartBody',(#551),#536,.T.) ;
#583=ADVANCED_FACE('PartBody',(#582),#557,.T.) ;
#600=ADVANCED_FACE('PartBody',(#599),#588,.T.) ;
#631=ADVANCED_FACE('PartBody',(#630),#605,.F.) ;
#643=ADVANCED_FACE('PartBody',(#642),#605,.F.) ;
#671=ADVANCED_FACE('PartBody',(#652,#670),#648,.T.) ;
#693=ADVANCED_FACE('PartBody',(#692),#676,.F.) ;
#705=ADVANCED_FACE('PartBody',(#704),#698,.F.) ;
#740=ADVANCED_FACE('PartBody',(#739),#710,.T.) ;
#757=ADVANCED_FACE('PartBody',(#756),#745,.T.) ;
#788=ADVANCED_FACE('PartBody',(#787),#762,.T.) ;
#805=ADVANCED_FACE('PartBody',(#804),#793,.T.) ;
#836=ADVANCED_FACE('PartBody',(#835),#810,.F.) ;
#848=ADVANCED_FACE('PartBody',(#847),#810,.F.) ;
#871=ADVANCED_FACE('PartBody',(#852,#870),#648,.T.) ;
#893=ADVANCED_FACE('PartBody',(#892),#876,.F.) ;
#905=ADVANCED_FACE('PartBody',(#904),#898,.F.) ;
#4=APPLICATION_PROTOCOL_DEFINITION('international standard','ap242_managed_model_based_3d_engineering',2014,#1) ;
#73=B_SPLINE_CURVE_WITH_KNOTS('',5,(#74,#75,#76,#77,#78,#79,#80,#81,#82),.UNSPECIFIED.,.F.,.U.,(6,3,6),(0.,8.35451992781,19.4471934682),.UNSPECIFIED.) ;
#107=B_SPLINE_CURVE_WITH_KNOTS('',5,(#108,#109,#110,#111,#112,#113,#114,#115,#116),.UNSPECIFIED.,.F.,.U.,(6,3,6),(0.,8.35451992776,19.4471934709),.UNSPECIFIED.) ;
#267=B_SPLINE_CURVE_WITH_KNOTS('',5,(#268,#269,#270,#271,#272,#273,#274,#275,#276),.UNSPECIFIED.,.F.,.U.,(6,3,6),(0.,8.3545199278,19.4471933763),.UNSPECIFIED.) ;
#299=B_SPLINE_CURVE_WITH_KNOTS('',5,(#300,#301,#302,#303,#304,#305,#306,#307,#308),.UNSPECIFIED.,.F.,.U.,(6,3,6),(0.,8.35451992776,19.4471938145),.UNSPECIFIED.) ;
#22=COLOUR_RGB('Colour',0.823529411765,0.823529411765,1.) ;
#918=CONSTRUCTIVE_GEOMETRY_REPRESENTATION_RELATIONSHIP('supplemental geometry','',#19,#917) ;
#913=DRAUGHTING_PRE_DEFINED_COLOUR('white') ;
#912=DRAUGHTING_PRE_DEFINED_CURVE_FONT('continuous') ;
#91=FACE_OUTER_BOUND('',#84,.T.) ;
#153=FACE_OUTER_BOUND('',#146,.T.) ;
#175=FACE_OUTER_BOUND('',#170,.T.) ;
#206=FACE_OUTER_BOUND('',#201,.T.) ;
#232=FACE_OUTER_BOUND('',#227,.T.) ;
#285=FACE_OUTER_BOUND('',#278,.T.) ;
#322=FACE_OUTER_BOUND('',#317,.T.) ;
#362=FACE_OUTER_BOUND('',#357,.T.) ;
#400=FACE_OUTER_BOUND('',#393,.T.) ;
#423=FACE_OUTER_BOUND('',#412,.T.) ;
#435=FACE_OUTER_BOUND('',#430,.T.) ;
#463=FACE_OUTER_BOUND('',#452,.T.) ;
#530=FACE_OUTER_BOUND('',#525,.T.) ;
#551=FACE_OUTER_BOUND('',#542,.T.) ;
#582=FACE_OUTER_BOUND('',#577,.T.) ;
#599=FACE_OUTER_BOUND('',#594,.T.) ;
#630=FACE_OUTER_BOUND('',#625,.T.) ;
#642=FACE_OUTER_BOUND('',#637,.T.) ;
#652=FACE_OUTER_BOUND('',#649,.T.) ;
#692=FACE_OUTER_BOUND('',#687,.T.) ;
#704=FACE_OUTER_BOUND('',#699,.T.) ;
#739=FACE_OUTER_BOUND('',#730,.T.) ;
#756=FACE_OUTER_BOUND('',#751,.T.) ;
#787=FACE_OUTER_BOUND('',#782,.T.) ;
#804=FACE_OUTER_BOUND('',#799,.T.) ;
#835=FACE_OUTER_BOUND('',#830,.T.) ;
#847=FACE_OUTER_BOUND('',#842,.T.) ;
#852=FACE_OUTER_BOUND('',#849,.T.) ;
#892=FACE_OUTER_BOUND('',#887,.T.) ;
#904=FACE_OUTER_BOUND('',#899,.T.) ;
#9=PRODUCT_CATEGORY_RELATIONSHIP(' ',' ',#7,#8) ;
#6=PRODUCT_DEFINITION_FORMATION_WITH_SPECIFIED_SOURCE('--A',' ',#5,.NOT_KNOWN.) ;
#20=SHAPE_DEFINITION_REPRESENTATION(#11,#19) ;
#12=(LENGTH_UNIT()NAMED_UNIT(*)SI_UNIT(.MILLI.,.METRE.)) ;
#13=(NAMED_UNIT(*)PLANE_ANGLE_UNIT()SI_UNIT($,.RADIAN.)) ;
#14=(NAMED_UNIT(*)SI_UNIT($,.STERADIAN.)SOLID_ANGLE_UNIT()) ;
#16=(GEOMETRIC_REPRESENTATION_CONTEXT(3)GLOBAL_UNCERTAINTY_ASSIGNED_CONTEXT((#15))GLOBAL_UNIT_ASSIGNED_CONTEXT((#12,#13,#14))REPRESENTATION_CONTEXT(' ',' ')) ;
ENDSEC;
END-ISO-10303-21;
