ISO-10303-21;
HEADER;
FILE_DESCRIPTION(('CATIA V5 STEP Exchange','CAx-IF Rec.Pracs.--- Model Styling and Organization---1.4--- 2014-01-23','CAx-IF Rec.Pracs.---Representation and Presentation of Product Manufacturing Information (PMI)---4.0---2014-10-13','CAx-IF Rec.Pracs.---3D Tessellated Data Validation Properties---0.5---2014-09-14'),'2;1');

FILE_NAME('V:\\catia\\priv\\e_dmacia\\Laura\\step au 14-12-2023\\M3D-217585_--A_CATPART_1.stp','2023-12-14T15:13:58+00:00',('none'),('none'),'CATIA Version 5-6 Release 2016 SP5 HF64','CATIA V5 STEP AP242','none');

FILE_SCHEMA(('AP242_MANAGED_MODEL_BASED_3D_ENGINEERING_MIM_LF  {1 0 10303 442 1 1 4}'));

ENDSEC;
DATA;
#5=PRODUCT('M3D-217585','','LIFTING BOSS',(#2)) ;
#2=PRODUCT_CONTEXT(' ',#1,'mechanical') ;
#1=APPLICATION_CONTEXT('managed model based 3d engineering') ;
#10=PRODUCT_DEFINITION('MASTER',' ',#6,#3) ;
#3=PRODUCT_DEFINITION_CONTEXT('part definition',#1,' ') ;
#11=PRODUCT_DEFINITION_SHAPE(' ',' ',#10) ;
#369=MECHANICAL_DESIGN_GEOMETRIC_PRESENTATION_REPRESENTATION(' ',(#323,#335,#358,#366,#29),#16) ;
#19=SHAPE_REPRESENTATION(' ',(#18),#16) ;
#7=PRODUCT_CATEGORY('part','specification') ;
#17=CARTESIAN_POINT(' ',(0.,0.,0.)) ;
#32=CARTESIAN_POINT('Axis2P3D Location',(0.,0.,-60.)) ;
#37=CARTESIAN_POINT('Line Origine',(-14.3827661581,26.3274768567,-55.)) ;
#41=CARTESIAN_POINT('Vertex',(-11.9856384651,21.9395640473,-60.)) ;
#43=CARTESIAN_POINT('Vertex',(-16.7798938511,30.7153896662,-50.)) ;
#46=CARTESIAN_POINT('Axis2P3D Location',(0.,0.,-50.)) ;
#50=CARTESIAN_POINT('Vertex',(16.7798938511,-30.7153896662,-50.)) ;
#53=CARTESIAN_POINT('Line Origine',(14.3827661581,-26.3274768567,-55.)) ;
#57=CARTESIAN_POINT('Vertex',(11.9856384651,-21.9395640473,-60.)) ;
#60=CARTESIAN_POINT('Axis2P3D Location',(0.,0.,-60.)) ;
#72=CARTESIAN_POINT('Axis2P3D Location',(0.,0.,-50.)) ;
#77=CARTESIAN_POINT('Axis2P3D Location',(0.,0.,-60.)) ;
#89=CARTESIAN_POINT('Axis2P3D Location',(0.,0.,-22.5)) ;
#94=CARTESIAN_POINT('Line Origine',(-16.7798938511,30.7153896662,-32.)) ;
#98=CARTESIAN_POINT('Vertex',(-16.7798938511,30.7153896662,-14.)) ;
#101=CARTESIAN_POINT('Axis2P3D Location',(0.,0.,-14.)) ;
#105=CARTESIAN_POINT('Vertex',(16.7798938511,-30.7153896662,-14.)) ;
#108=CARTESIAN_POINT('Line Origine',(16.7798938511,-30.7153896662,-32.)) ;
#120=CARTESIAN_POINT('Axis2P3D Location',(0.,0.,-14.)) ;
#132=CARTESIAN_POINT('Axis2P3D Location',(0.,0.,-22.5)) ;
#137=CARTESIAN_POINT('Line Origine',(-11.9856384651,21.9395640473,-0.5)) ;
#141=CARTESIAN_POINT('Vertex',(-11.9856384651,21.9395640473,-14.)) ;
#143=CARTESIAN_POINT('Vertex',(-11.9856384651,21.9395640473,13.)) ;
#146=CARTESIAN_POINT('Axis2P3D Location',(0.,0.,13.)) ;
#150=CARTESIAN_POINT('Vertex',(11.9856384651,-21.9395640473,13.)) ;
#153=CARTESIAN_POINT('Line Origine',(11.9856384651,-21.9395640473,-0.5)) ;
#157=CARTESIAN_POINT('Vertex',(11.9856384651,-21.9395640473,-14.)) ;
#160=CARTESIAN_POINT('Axis2P3D Location',(0.,0.,-14.)) ;
#172=CARTESIAN_POINT('Axis2P3D Location',(0.,0.,13.)) ;
#177=CARTESIAN_POINT('Axis2P3D Location',(0.,0.,-14.)) ;
#189=CARTESIAN_POINT('Axis2P3D Location',(0.,0.,15.)) ;
#194=CARTESIAN_POINT('Line Origine',(-11.5062129265,21.0619814854,14.)) ;
#198=CARTESIAN_POINT('Vertex',(-11.0267873879,20.1843989235,15.)) ;
#201=CARTESIAN_POINT('Axis2P3D Location',(0.,0.,15.)) ;
#205=CARTESIAN_POINT('Vertex',(11.0267873879,-20.1843989235,15.)) ;
#208=CARTESIAN_POINT('Line Origine',(11.5062129265,-21.0619814854,14.)) ;
#220=CARTESIAN_POINT('Axis2P3D Location',(0.,0.,15.)) ;
#232=CARTESIAN_POINT('Axis2P3D Location',(0.,-25.,-60.)) ;
#242=CARTESIAN_POINT('Axis2P3D Location',(0.,-35.,-14.)) ;
#256=CARTESIAN_POINT('Axis2P3D Location',(0.,-23.,15.)) ;
#265=CARTESIAN_POINT('Axis2P3D Location',(0.,0.,15.)) ;
#269=CARTESIAN_POINT('Vertex',(9.10579666217,-4.97451938856,15.)) ;
#271=CARTESIAN_POINT('Vertex',(-9.10579666217,4.97451938856,15.)) ;
#274=CARTESIAN_POINT('Axis2P3D Location',(0.,0.,15.)) ;
#284=CARTESIAN_POINT('Axis2P3D Location',(0.,0.,-50.9905863931)) ;
#289=CARTESIAN_POINT('Line Origine',(-4.55289833109,2.48725969428,-47.9952931966)) ;
#293=CARTESIAN_POINT('Vertex',(6.75023408294E-016,-3.68766968654E-016,-50.9905863931)) ;
#295=CARTESIAN_POINT('Vertex',(-9.10579666217,4.97451938856,-45.)) ;
#298=CARTESIAN_POINT('Axis2P3D Location',(0.,0.,-45.)) ;
#302=CARTESIAN_POINT('Vertex',(9.10579666217,-4.97451938856,-45.)) ;
#305=CARTESIAN_POINT('Line Origine',(4.55289833109,-2.48725969428,-47.9952931966)) ;
#324=CARTESIAN_POINT('Axis2P3D Location',(0.,0.,-45.)) ;
#336=CARTESIAN_POINT('Axis2P3D Location',(0.,0.,15.)) ;
#341=CARTESIAN_POINT('Line Origine',(9.10579666217,-4.97451938856,-14.8)) ;
#346=CARTESIAN_POINT('Line Origine',(-9.10579666217,4.97451938856,-14.8)) ;
#8=PRODUCT_RELATED_PRODUCT_CATEGORY('part',$,(#5)) ;
#30=PRESENTATION_LAYER_ASSIGNMENT('0',' ',(#21)) ;
#29=STYLED_ITEM(' ',(#28),#21) ;
#28=PRESENTATION_STYLE_ASSIGNMENT((#27)) ;
#322=PRESENTATION_STYLE_ASSIGNMENT((#321)) ;
#27=SURFACE_STYLE_USAGE(.BOTH.,#26) ;
#321=SURFACE_STYLE_USAGE(.BOTH.,#320) ;
#26=SURFACE_SIDE_STYLE(' ',(#25)) ;
#320=SURFACE_SIDE_STYLE(' ',(#319)) ;
#25=SURFACE_STYLE_FILL_AREA(#24) ;
#319=SURFACE_STYLE_FILL_AREA(#318) ;
#24=FILL_AREA_STYLE(' ',(#23)) ;
#318=FILL_AREA_STYLE(' ',(#317)) ;
#23=FILL_AREA_STYLE_COLOUR(' ',#22) ;
#317=FILL_AREA_STYLE_COLOUR(' ',#316) ;
#39=VECTOR('Line Direction',#38,1.) ;
#55=VECTOR('Line Direction',#54,1.) ;
#96=VECTOR('Line Direction',#95,1.) ;
#110=VECTOR('Line Direction',#109,1.) ;
#139=VECTOR('Line Direction',#138,1.) ;
#155=VECTOR('Line Direction',#154,1.) ;
#196=VECTOR('Line Direction',#195,1.) ;
#210=VECTOR('Line Direction',#209,1.) ;
#291=VECTOR('Line Direction',#290,1.) ;
#307=VECTOR('Line Direction',#306,1.) ;
#343=VECTOR('Line Direction',#342,1.) ;
#348=VECTOR('Line Direction',#347,1.) ;
#33=DIRECTION('Axis2P3D Direction',(0.,0.,1.)) ;
#34=DIRECTION('Axis2P3D XDirection',(0.479425538604,-0.87758256189,0.)) ;
#38=DIRECTION('Vector Direction',(-0.339005049421,0.620544580564,0.707106781187)) ;
#47=DIRECTION('Axis2P3D Direction',(0.,0.,1.)) ;
#54=DIRECTION('Vector Direction',(0.339005049421,-0.620544580564,0.707106781187)) ;
#61=DIRECTION('Axis2P3D Direction',(0.,0.,1.)) ;
#73=DIRECTION('Axis2P3D Direction',(0.,0.,1.)) ;
#78=DIRECTION('Axis2P3D Direction',(0.,0.,1.)) ;
#90=DIRECTION('Axis2P3D Direction',(0.,0.,1.)) ;
#91=DIRECTION('Axis2P3D XDirection',(0.479425538604,-0.87758256189,0.)) ;
#95=DIRECTION('Vector Direction',(0.,0.,1.)) ;
#102=DIRECTION('Axis2P3D Direction',(0.,0.,1.)) ;
#109=DIRECTION('Vector Direction',(0.,0.,1.)) ;
#121=DIRECTION('Axis2P3D Direction',(0.,0.,1.)) ;
#133=DIRECTION('Axis2P3D Direction',(0.,0.,1.)) ;
#134=DIRECTION('Axis2P3D XDirection',(0.479425538604,-0.87758256189,0.)) ;
#138=DIRECTION('Vector Direction',(0.,0.,1.)) ;
#147=DIRECTION('Axis2P3D Direction',(0.,0.,1.)) ;
#154=DIRECTION('Vector Direction',(0.,0.,1.)) ;
#161=DIRECTION('Axis2P3D Direction',(0.,0.,1.)) ;
#173=DIRECTION('Axis2P3D Direction',(0.,0.,1.)) ;
#178=DIRECTION('Axis2P3D Direction',(0.,0.,1.)) ;
#190=DIRECTION('Axis2P3D Direction',(-0.,-0.,-1.)) ;
#191=DIRECTION('Axis2P3D XDirection',(0.479425538604,-0.87758256189,0.)) ;
#195=DIRECTION('Vector Direction',(-0.339005049421,0.620544580564,-0.707106781187)) ;
#202=DIRECTION('Axis2P3D Direction',(0.,0.,-1.)) ;
#209=DIRECTION('Vector Direction',(0.339005049421,-0.620544580564,-0.707106781187)) ;
#221=DIRECTION('Axis2P3D Direction',(0.,0.,-1.)) ;
#233=DIRECTION('Axis2P3D Direction',(0.,0.,1.)) ;
#234=DIRECTION('Axis2P3D XDirection',(1.,0.,0.)) ;
#243=DIRECTION('Axis2P3D Direction',(0.,0.,1.)) ;
#244=DIRECTION('Axis2P3D XDirection',(1.,0.,0.)) ;
#257=DIRECTION('Axis2P3D Direction',(0.,0.,1.)) ;
#258=DIRECTION('Axis2P3D XDirection',(1.,0.,0.)) ;
#266=DIRECTION('Axis2P3D Direction',(0.,0.,1.)) ;
#275=DIRECTION('Axis2P3D Direction',(0.,0.,1.)) ;
#285=DIRECTION('Axis2P3D Direction',(0.,0.,1.)) ;
#286=DIRECTION('Axis2P3D XDirection',(0.87758256189,-0.479425538604,0.)) ;
#290=DIRECTION('Vector Direction',(-0.760008792515,0.415194695654,0.5)) ;
#299=DIRECTION('Axis2P3D Direction',(0.,0.,1.)) ;
#306=DIRECTION('Vector Direction',(0.760008792515,-0.415194695654,0.5)) ;
#325=DIRECTION('Axis2P3D Direction',(0.,0.,1.)) ;
#337=DIRECTION('Axis2P3D Direction',(0.,-0.,-1.)) ;
#338=DIRECTION('Axis2P3D XDirection',(0.87758256189,-0.479425538604,0.)) ;
#342=DIRECTION('Vector Direction',(0.,0.,-1.)) ;
#347=DIRECTION('Vector Direction',(0.,0.,-1.)) ;
#15=UNCERTAINTY_MEASURE_WITH_UNIT(LENGTH_MEASURE(0.005),#12,'distance_accuracy_value','CONFUSED CURVE UNCERTAINTY') ;
#18=AXIS2_PLACEMENT_3D(' ',#17,$,$) ;
#35=AXIS2_PLACEMENT_3D('Cone Axis2P3D',#32,#33,#34) ;
#48=AXIS2_PLACEMENT_3D('Circle Axis2P3D',#46,#47,$) ;
#62=AXIS2_PLACEMENT_3D('Circle Axis2P3D',#60,#61,$) ;
#74=AXIS2_PLACEMENT_3D('Circle Axis2P3D',#72,#73,$) ;
#79=AXIS2_PLACEMENT_3D('Circle Axis2P3D',#77,#78,$) ;
#92=AXIS2_PLACEMENT_3D('Cylinder Axis2P3D',#89,#90,#91) ;
#103=AXIS2_PLACEMENT_3D('Circle Axis2P3D',#101,#102,$) ;
#122=AXIS2_PLACEMENT_3D('Circle Axis2P3D',#120,#121,$) ;
#135=AXIS2_PLACEMENT_3D('Cylinder Axis2P3D',#132,#133,#134) ;
#148=AXIS2_PLACEMENT_3D('Circle Axis2P3D',#146,#147,$) ;
#162=AXIS2_PLACEMENT_3D('Circle Axis2P3D',#160,#161,$) ;
#174=AXIS2_PLACEMENT_3D('Circle Axis2P3D',#172,#173,$) ;
#179=AXIS2_PLACEMENT_3D('Circle Axis2P3D',#177,#178,$) ;
#192=AXIS2_PLACEMENT_3D('Cone Axis2P3D',#189,#190,#191) ;
#203=AXIS2_PLACEMENT_3D('Circle Axis2P3D',#201,#202,$) ;
#222=AXIS2_PLACEMENT_3D('Circle Axis2P3D',#220,#221,$) ;
#235=AXIS2_PLACEMENT_3D('Plane Axis2P3D',#232,#233,#234) ;
#245=AXIS2_PLACEMENT_3D('Plane Axis2P3D',#242,#243,#244) ;
#259=AXIS2_PLACEMENT_3D('Plane Axis2P3D',#256,#257,#258) ;
#267=AXIS2_PLACEMENT_3D('Circle Axis2P3D',#265,#266,$) ;
#276=AXIS2_PLACEMENT_3D('Circle Axis2P3D',#274,#275,$) ;
#287=AXIS2_PLACEMENT_3D('Cone Axis2P3D',#284,#285,#286) ;
#300=AXIS2_PLACEMENT_3D('Circle Axis2P3D',#298,#299,$) ;
#326=AXIS2_PLACEMENT_3D('Circle Axis2P3D',#324,#325,$) ;
#339=AXIS2_PLACEMENT_3D('Cylinder Axis2P3D',#336,#337,#338) ;
#40=LINE('Line',#37,#39) ;
#56=LINE('Line',#53,#55) ;
#97=LINE('Line',#94,#96) ;
#111=LINE('Line',#108,#110) ;
#140=LINE('Line',#137,#139) ;
#156=LINE('Line',#153,#155) ;
#197=LINE('Line',#194,#196) ;
#211=LINE('Line',#208,#210) ;
#292=LINE('Line',#289,#291) ;
#308=LINE('Line',#305,#307) ;
#344=LINE('Line',#341,#343) ;
#349=LINE('Line',#346,#348) ;
#49=CIRCLE('generated circle',#48,35.) ;
#63=CIRCLE('generated circle',#62,25.) ;
#75=CIRCLE('generated circle',#74,35.) ;
#80=CIRCLE('generated circle',#79,25.) ;
#104=CIRCLE('generated circle',#103,35.) ;
#123=CIRCLE('generated circle',#122,35.) ;
#149=CIRCLE('generated circle',#148,25.) ;
#163=CIRCLE('generated circle',#162,25.) ;
#175=CIRCLE('generated circle',#174,25.) ;
#180=CIRCLE('generated circle',#179,25.) ;
#204=CIRCLE('generated circle',#203,23.) ;
#223=CIRCLE('generated circle',#222,23.) ;
#268=CIRCLE('generated circle',#267,10.376) ;
#277=CIRCLE('generated circle',#276,10.376) ;
#301=CIRCLE('generated circle',#300,10.376) ;
#327=CIRCLE('generated circle',#326,10.376) ;
#236=PLANE('',#235) ;
#246=PLANE('',#245) ;
#260=PLANE('',#259) ;
#93=CYLINDRICAL_SURFACE('generated cylinder',#92,35.) ;
#136=CYLINDRICAL_SURFACE('generated cylinder',#135,25.) ;
#340=CYLINDRICAL_SURFACE('generated cylinder',#339,10.376) ;
#36=CONICAL_SURFACE('Cone',#35,25.,0.785398163397) ;
#193=CONICAL_SURFACE('Cone',#192,23.,0.785398163397) ;
#288=CONICAL_SURFACE('Cone',#287,0.,1.0471975512) ;
#254=FACE_BOUND('',#251,.T.) ;
#282=FACE_BOUND('',#279,.T.) ;
#45=EDGE_CURVE('',#42,#44,#40,.T.) ;
#52=EDGE_CURVE('',#51,#44,#49,.T.) ;
#59=EDGE_CURVE('',#58,#51,#56,.T.) ;
#64=EDGE_CURVE('',#58,#42,#63,.T.) ;
#76=EDGE_CURVE('',#44,#51,#75,.T.) ;
#81=EDGE_CURVE('',#42,#58,#80,.T.) ;
#100=EDGE_CURVE('',#44,#99,#97,.T.) ;
#107=EDGE_CURVE('',#106,#99,#104,.T.) ;
#112=EDGE_CURVE('',#51,#106,#111,.T.) ;
#124=EDGE_CURVE('',#99,#106,#123,.T.) ;
#145=EDGE_CURVE('',#142,#144,#140,.T.) ;
#152=EDGE_CURVE('',#151,#144,#149,.T.) ;
#159=EDGE_CURVE('',#158,#151,#156,.T.) ;
#164=EDGE_CURVE('',#158,#142,#163,.T.) ;
#176=EDGE_CURVE('',#144,#151,#175,.T.) ;
#181=EDGE_CURVE('',#142,#158,#180,.T.) ;
#200=EDGE_CURVE('',#144,#199,#197,.F.) ;
#207=EDGE_CURVE('',#206,#199,#204,.F.) ;
#212=EDGE_CURVE('',#151,#206,#211,.F.) ;
#224=EDGE_CURVE('',#199,#206,#223,.F.) ;
#273=EDGE_CURVE('',#270,#272,#268,.T.) ;
#278=EDGE_CURVE('',#272,#270,#277,.T.) ;
#297=EDGE_CURVE('',#294,#296,#292,.T.) ;
#304=EDGE_CURVE('',#303,#296,#301,.F.) ;
#309=EDGE_CURVE('',#294,#303,#308,.T.) ;
#328=EDGE_CURVE('',#296,#303,#327,.F.) ;
#345=EDGE_CURVE('',#303,#270,#344,.F.) ;
#350=EDGE_CURVE('',#296,#272,#349,.F.) ;
#31=CLOSED_SHELL('Closed Shell',(#71,#88,#119,#131,#171,#188,#219,#231,#241,#255,#283,#315,#334,#357,#365)) ;
#368=SHAPE_REPRESENTATION_RELATIONSHIP(' ',' ',#19,#367) ;
#65=EDGE_LOOP('',(#66,#67,#68,#69)) ;
#82=EDGE_LOOP('',(#83,#84,#85,#86)) ;
#113=EDGE_LOOP('',(#114,#115,#116,#117)) ;
#125=EDGE_LOOP('',(#126,#127,#128,#129)) ;
#165=EDGE_LOOP('',(#166,#167,#168,#169)) ;
#182=EDGE_LOOP('',(#183,#184,#185,#186)) ;
#213=EDGE_LOOP('',(#214,#215,#216,#217)) ;
#225=EDGE_LOOP('',(#226,#227,#228,#229)) ;
#237=EDGE_LOOP('',(#238,#239)) ;
#247=EDGE_LOOP('',(#248,#249)) ;
#251=EDGE_LOOP('',(#252,#253)) ;
#261=EDGE_LOOP('',(#262,#263)) ;
#279=EDGE_LOOP('',(#280,#281)) ;
#310=EDGE_LOOP('',(#311,#312,#313)) ;
#329=EDGE_LOOP('',(#330,#331,#332)) ;
#351=EDGE_LOOP('',(#352,#353,#354,#355)) ;
#359=EDGE_LOOP('',(#360,#361,#362,#363)) ;
#66=ORIENTED_EDGE('',*,*,#45,.T.) ;
#67=ORIENTED_EDGE('',*,*,#52,.F.) ;
#68=ORIENTED_EDGE('',*,*,#59,.F.) ;
#69=ORIENTED_EDGE('',*,*,#64,.T.) ;
#83=ORIENTED_EDGE('',*,*,#59,.T.) ;
#84=ORIENTED_EDGE('',*,*,#76,.F.) ;
#85=ORIENTED_EDGE('',*,*,#45,.F.) ;
#86=ORIENTED_EDGE('',*,*,#81,.T.) ;
#114=ORIENTED_EDGE('',*,*,#100,.T.) ;
#115=ORIENTED_EDGE('',*,*,#107,.F.) ;
#116=ORIENTED_EDGE('',*,*,#112,.F.) ;
#117=ORIENTED_EDGE('',*,*,#52,.T.) ;
#126=ORIENTED_EDGE('',*,*,#112,.T.) ;
#127=ORIENTED_EDGE('',*,*,#124,.F.) ;
#128=ORIENTED_EDGE('',*,*,#100,.F.) ;
#129=ORIENTED_EDGE('',*,*,#76,.T.) ;
#166=ORIENTED_EDGE('',*,*,#145,.T.) ;
#167=ORIENTED_EDGE('',*,*,#152,.F.) ;
#168=ORIENTED_EDGE('',*,*,#159,.F.) ;
#169=ORIENTED_EDGE('',*,*,#164,.T.) ;
#183=ORIENTED_EDGE('',*,*,#159,.T.) ;
#184=ORIENTED_EDGE('',*,*,#176,.F.) ;
#185=ORIENTED_EDGE('',*,*,#145,.F.) ;
#186=ORIENTED_EDGE('',*,*,#181,.T.) ;
#214=ORIENTED_EDGE('',*,*,#200,.T.) ;
#215=ORIENTED_EDGE('',*,*,#207,.F.) ;
#216=ORIENTED_EDGE('',*,*,#212,.F.) ;
#217=ORIENTED_EDGE('',*,*,#152,.T.) ;
#226=ORIENTED_EDGE('',*,*,#212,.T.) ;
#227=ORIENTED_EDGE('',*,*,#224,.F.) ;
#228=ORIENTED_EDGE('',*,*,#200,.F.) ;
#229=ORIENTED_EDGE('',*,*,#176,.T.) ;
#238=ORIENTED_EDGE('',*,*,#81,.F.) ;
#239=ORIENTED_EDGE('',*,*,#64,.F.) ;
#248=ORIENTED_EDGE('',*,*,#124,.T.) ;
#249=ORIENTED_EDGE('',*,*,#107,.T.) ;
#252=ORIENTED_EDGE('',*,*,#164,.F.) ;
#253=ORIENTED_EDGE('',*,*,#181,.F.) ;
#262=ORIENTED_EDGE('',*,*,#224,.T.) ;
#263=ORIENTED_EDGE('',*,*,#207,.T.) ;
#280=ORIENTED_EDGE('',*,*,#273,.F.) ;
#281=ORIENTED_EDGE('',*,*,#278,.F.) ;
#311=ORIENTED_EDGE('',*,*,#297,.T.) ;
#312=ORIENTED_EDGE('',*,*,#304,.F.) ;
#313=ORIENTED_EDGE('',*,*,#309,.F.) ;
#330=ORIENTED_EDGE('',*,*,#309,.T.) ;
#331=ORIENTED_EDGE('',*,*,#328,.F.) ;
#332=ORIENTED_EDGE('',*,*,#297,.F.) ;
#352=ORIENTED_EDGE('',*,*,#278,.T.) ;
#353=ORIENTED_EDGE('',*,*,#345,.F.) ;
#354=ORIENTED_EDGE('',*,*,#304,.T.) ;
#355=ORIENTED_EDGE('',*,*,#350,.T.) ;
#360=ORIENTED_EDGE('',*,*,#273,.T.) ;
#361=ORIENTED_EDGE('',*,*,#350,.F.) ;
#362=ORIENTED_EDGE('',*,*,#328,.T.) ;
#363=ORIENTED_EDGE('',*,*,#345,.T.) ;
#21=MANIFOLD_SOLID_BREP('217585 BOSSAGE DE LEVAGE',#31) ;
#42=VERTEX_POINT('',#41) ;
#44=VERTEX_POINT('',#43) ;
#51=VERTEX_POINT('',#50) ;
#58=VERTEX_POINT('',#57) ;
#99=VERTEX_POINT('',#98) ;
#106=VERTEX_POINT('',#105) ;
#142=VERTEX_POINT('',#141) ;
#144=VERTEX_POINT('',#143) ;
#151=VERTEX_POINT('',#150) ;
#158=VERTEX_POINT('',#157) ;
#199=VERTEX_POINT('',#198) ;
#206=VERTEX_POINT('',#205) ;
#270=VERTEX_POINT('',#269) ;
#272=VERTEX_POINT('',#271) ;
#294=VERTEX_POINT('',#293) ;
#296=VERTEX_POINT('',#295) ;
#303=VERTEX_POINT('',#302) ;
#367=ADVANCED_BREP_SHAPE_REPRESENTATION('NONE',(#21),#16) ;
#71=ADVANCED_FACE('217585 BOSSAGE DE LEVAGE',(#70),#36,.T.) ;
#88=ADVANCED_FACE('217585 BOSSAGE DE LEVAGE',(#87),#36,.T.) ;
#119=ADVANCED_FACE('217585 BOSSAGE DE LEVAGE',(#118),#93,.T.) ;
#131=ADVANCED_FACE('217585 BOSSAGE DE LEVAGE',(#130),#93,.T.) ;
#171=ADVANCED_FACE('217585 BOSSAGE DE LEVAGE',(#170),#136,.T.) ;
#188=ADVANCED_FACE('217585 BOSSAGE DE LEVAGE',(#187),#136,.T.) ;
#219=ADVANCED_FACE('217585 BOSSAGE DE LEVAGE',(#218),#193,.T.) ;
#231=ADVANCED_FACE('217585 BOSSAGE DE LEVAGE',(#230),#193,.T.) ;
#241=ADVANCED_FACE('217585 BOSSAGE DE LEVAGE',(#240),#236,.F.) ;
#255=ADVANCED_FACE('217585 BOSSAGE DE LEVAGE',(#250,#254),#246,.T.) ;
#283=ADVANCED_FACE('217585 BOSSAGE DE LEVAGE',(#264,#282),#260,.T.) ;
#315=ADVANCED_FACE('217585 BOSSAGE DE LEVAGE',(#314),#288,.F.) ;
#334=ADVANCED_FACE('217585 BOSSAGE DE LEVAGE',(#333),#288,.F.) ;
#357=ADVANCED_FACE('217585 BOSSAGE DE LEVAGE',(#356),#340,.F.) ;
#365=ADVANCED_FACE('217585 BOSSAGE DE LEVAGE',(#364),#340,.F.) ;
#4=APPLICATION_PROTOCOL_DEFINITION('international standard','ap242_managed_model_based_3d_engineering',2014,#1) ;
#22=COLOUR_RGB('Colour',0.949019607843,0.635294117647,0.341176470588) ;
#316=COLOUR_RGB('Colour',1.,0.501960784314,0.501960784314) ;
#323=OVER_RIDING_STYLED_ITEM(' ',(#322),#315,#29) ;
#335=OVER_RIDING_STYLED_ITEM(' ',(#322),#334,#29) ;
#358=OVER_RIDING_STYLED_ITEM(' ',(#322),#357,#29) ;
#366=OVER_RIDING_STYLED_ITEM(' ',(#322),#365,#29) ;
#70=FACE_OUTER_BOUND('',#65,.T.) ;
#87=FACE_OUTER_BOUND('',#82,.T.) ;
#118=FACE_OUTER_BOUND('',#113,.T.) ;
#130=FACE_OUTER_BOUND('',#125,.T.) ;
#170=FACE_OUTER_BOUND('',#165,.T.) ;
#187=FACE_OUTER_BOUND('',#182,.T.) ;
#218=FACE_OUTER_BOUND('',#213,.T.) ;
#230=FACE_OUTER_BOUND('',#225,.T.) ;
#240=FACE_OUTER_BOUND('',#237,.T.) ;
#250=FACE_OUTER_BOUND('',#247,.T.) ;
#264=FACE_OUTER_BOUND('',#261,.T.) ;
#314=FACE_OUTER_BOUND('',#310,.T.) ;
#333=FACE_OUTER_BOUND('',#329,.T.) ;
#356=FACE_OUTER_BOUND('',#351,.T.) ;
#364=FACE_OUTER_BOUND('',#359,.T.) ;
#9=PRODUCT_CATEGORY_RELATIONSHIP(' ',' ',#7,#8) ;
#6=PRODUCT_DEFINITION_FORMATION_WITH_SPECIFIED_SOURCE('--A',' ',#5,.NOT_KNOWN.) ;
#20=SHAPE_DEFINITION_REPRESENTATION(#11,#19) ;
#12=(LENGTH_UNIT()NAMED_UNIT(*)SI_UNIT(.MILLI.,.METRE.)) ;
#13=(NAMED_UNIT(*)PLANE_ANGLE_UNIT()SI_UNIT($,.RADIAN.)) ;
#14=(NAMED_UNIT(*)SI_UNIT($,.STERADIAN.)SOLID_ANGLE_UNIT()) ;
#16=(GEOMETRIC_REPRESENTATION_CONTEXT(3)GLOBAL_UNCERTAINTY_ASSIGNED_CONTEXT((#15))GLOBAL_UNIT_ASSIGNED_CONTEXT((#12,#13,#14))REPRESENTATION_CONTEXT(' ',' ')) ;
ENDSEC;
END-ISO-10303-21;
