ISO-10303-21;
HEADER;
FILE_DESCRIPTION(('CATIA V5 STEP Exchange','CAx-IF Rec.Pracs.--- Model Styling and Organization---1.4--- 2014-01-23','CAx-IF Rec.Pracs.---Representation and Presentation of Product Manufacturing Information (PMI)---4.0---2014-10-13','CAx-IF Rec.Pracs.---3D Tessellated Data Validation Properties---0.5---2014-09-14'),'2;1');

FILE_NAME('C:\\Users\\e_mdemir\\OneDrive - Alstom\\Desktop\\M3D-149348.stp','2023-04-12T12:28:40+00:00',('none'),('none'),'CATIA Version 5-6 Release 2016 SP5 HF64','CATIA V5 STEP AP242','none');

FILE_SCHEMA(('AP242_MANAGED_MODEL_BASED_3D_ENGINEERING_MIM_LF  {1 0 10303 442 1 1 4}'));

ENDSEC;
DATA;
#5=PRODUCT('M3D-149348','','SECURITY BEARING',(#2)) ;
#2=PRODUCT_CONTEXT(' ',#1,'mechanical') ;
#1=APPLICATION_CONTEXT('managed model based 3d engineering') ;
#10=PRODUCT_DEFINITION('MASTER',' ',#6,#3) ;
#3=PRODUCT_DEFINITION_CONTEXT('part definition',#1,' ') ;
#11=PRODUCT_DEFINITION_SHAPE(' ',' ',#10) ;
#986=MECHANICAL_DESIGN_GEOMETRIC_PRESENTATION_REPRESENTATION(' ',(#29),#16) ;
#19=SHAPE_REPRESENTATION(' ',(#18),#16) ;
#7=PRODUCT_CATEGORY('part','specification') ;
#17=CARTESIAN_POINT(' ',(0.,0.,0.)) ;
#31=CARTESIAN_POINT('Axis2P3D Location',(61.0366996597,18.,-0.676503775866)) ;
#36=CARTESIAN_POINT('Line Origine',(55.6800979419,30.9465685057,4.68009794193)) ;
#40=CARTESIAN_POINT('Vertex',(26.,30.9465685057,-25.)) ;
#42=CARTESIAN_POINT('Vertex',(26.2557761934,30.9465685057,-24.7442238066)) ;
#46=CARTESIAN_POINT('Control Point',(26.2557760471,30.9465685057,-24.7442239529)) ;
#47=CARTESIAN_POINT('Control Point',(25.6026818122,30.1775682278,-23.5386930176)) ;
#48=CARTESIAN_POINT('Control Point',(24.8728566019,29.2199407217,-22.495055476)) ;
#49=CARTESIAN_POINT('Control Point',(24.1481101379,28.0916800767,-21.6335954206)) ;
#50=CARTESIAN_POINT('Control Point',(22.8458609498,25.5772563727,-20.2248705872)) ;
#51=CARTESIAN_POINT('Control Point',(21.9581134307,22.6545680466,-19.4059833002)) ;
#52=CARTESIAN_POINT('Control Point',(21.6527440597,21.1265987609,-19.1352729014)) ;
#53=CARTESIAN_POINT('Control Point',(21.5,19.5632993813,-19.)) ;
#54=CARTESIAN_POINT('Control Point',(21.5,18.,-19.)) ;
#55=CARTESIAN_POINT('Vertex',(21.5,18.,-19.)) ;
#58=CARTESIAN_POINT('Line Origine',(50.4300979419,18.,9.93009794193)) ;
#62=CARTESIAN_POINT('Vertex',(15.5,18.,-25.)) ;
#66=CARTESIAN_POINT('Control Point',(15.5,18.,-25.)) ;
#67=CARTESIAN_POINT('Control Point',(15.5,19.388103312,-25.)) ;
#68=CARTESIAN_POINT('Control Point',(15.727079188,20.7762062455,-25.)) ;
#69=CARTESIAN_POINT('Control Point',(16.1818141227,22.1122191892,-25.0000002121)) ;
#70=CARTESIAN_POINT('Control Point',(17.8017627524,25.285367447,-24.999999672)) ;
#71=CARTESIAN_POINT('Control Point',(20.3615570952,27.8187276932,-25.0000005072)) ;
#72=CARTESIAN_POINT('Control Point',(22.1231123699,29.0875696901,-24.9999996903)) ;
#73=CARTESIAN_POINT('Control Point',(24.0165230813,30.1259112123,-25.)) ;
#74=CARTESIAN_POINT('Control Point',(26.,30.9465685057,-25.)) ;
#83=CARTESIAN_POINT('Axis2P3D Location',(0.,77.,-25.)) ;
#88=CARTESIAN_POINT('Line Origine',(15.5,-23.5,-25.)) ;
#92=CARTESIAN_POINT('Vertex',(15.5,-65.,-25.)) ;
#95=CARTESIAN_POINT('Line Origine',(0.,-65.,-25.)) ;
#99=CARTESIAN_POINT('Vertex',(-15.5,-65.,-25.)) ;
#102=CARTESIAN_POINT('Line Origine',(-15.5,-23.5,-25.)) ;
#106=CARTESIAN_POINT('Vertex',(-15.5,18.,-25.)) ;
#110=CARTESIAN_POINT('Control Point',(-15.5,18.,-25.)) ;
#111=CARTESIAN_POINT('Control Point',(-15.5,18.7760366406,-25.)) ;
#112=CARTESIAN_POINT('Control Point',(-15.5709738241,19.5520730446,-25.)) ;
#113=CARTESIAN_POINT('Control Point',(-15.7129326045,20.3191094025,-25.)) ;
#114=CARTESIAN_POINT('Control Point',(-16.086207671,21.6610759541,-25.)) ;
#115=CARTESIAN_POINT('Control Point',(-16.6535022351,22.9312444667,-25.)) ;
#116=CARTESIAN_POINT('Control Point',(-16.9384407229,23.474716943,-25.)) ;
#117=CARTESIAN_POINT('Control Point',(-17.7901344195,24.8890114056,-25.)) ;
#118=CARTESIAN_POINT('Control Point',(-18.8462285466,26.1641624183,-25.)) ;
#119=CARTESIAN_POINT('Control Point',(-19.5760390857,26.9070005717,-25.)) ;
#120=CARTESIAN_POINT('Control Point',(-21.1955375297,28.3236117289,-25.)) ;
#121=CARTESIAN_POINT('Control Point',(-23.0005102414,29.4961596713,-25.)) ;
#122=CARTESIAN_POINT('Control Point',(-23.9723266183,30.0394233867,-25.)) ;
#123=CARTESIAN_POINT('Control Point',(-24.9741164111,30.5221124198,-25.)) ;
#124=CARTESIAN_POINT('Control Point',(-26.,30.9465685057,-25.)) ;
#125=CARTESIAN_POINT('Vertex',(-26.,30.9465685057,-25.)) ;
#128=CARTESIAN_POINT('Line Origine',(-26.,53.9732842529,-25.)) ;
#132=CARTESIAN_POINT('Vertex',(-26.,77.,-25.)) ;
#135=CARTESIAN_POINT('Line Origine',(0.,77.,-25.)) ;
#139=CARTESIAN_POINT('Vertex',(26.,77.,-25.)) ;
#142=CARTESIAN_POINT('Line Origine',(26.,53.9732842529,-25.)) ;
#158=CARTESIAN_POINT('Axis2P3D Location',(41.5,18.,0.66000000039)) ;
#164=CARTESIAN_POINT('Control Point',(26.2557761084,30.9465685779,-24.7442238066)) ;
#165=CARTESIAN_POINT('Control Point',(26.3365681743,31.0416989852,-24.6634317456)) ;
#166=CARTESIAN_POINT('Control Point',(26.4179850396,31.1357603315,-24.5820149604)) ;
#167=CARTESIAN_POINT('Control Point',(26.5,31.2287565553,-24.5)) ;
#168=CARTESIAN_POINT('Vertex',(26.5,31.2287565553,-24.5)) ;
#171=CARTESIAN_POINT('Line Origine',(26.5,31.2287565553,0.66000000039)) ;
#175=CARTESIAN_POINT('Vertex',(26.5,31.2287565553,24.5)) ;
#179=CARTESIAN_POINT('Control Point',(26.2557761084,30.9465685779,24.7442238066)) ;
#180=CARTESIAN_POINT('Control Point',(26.3365681743,31.0416989852,24.6634317456)) ;
#181=CARTESIAN_POINT('Control Point',(26.4179850396,31.1357603315,24.5820149604)) ;
#182=CARTESIAN_POINT('Control Point',(26.5,31.2287565553,24.5)) ;
#183=CARTESIAN_POINT('Vertex',(26.2557760471,30.9465685057,24.7442239529)) ;
#187=CARTESIAN_POINT('Control Point',(26.2557760471,30.9465685057,24.7442239529)) ;
#188=CARTESIAN_POINT('Control Point',(25.6026818122,30.1775682278,23.5386930176)) ;
#189=CARTESIAN_POINT('Control Point',(24.8728565605,29.2199410031,22.4950558159)) ;
#190=CARTESIAN_POINT('Control Point',(24.1481100533,28.09168036,21.6335955919)) ;
#191=CARTESIAN_POINT('Control Point',(22.8458610341,25.5772560913,20.224870417)) ;
#192=CARTESIAN_POINT('Control Point',(21.9581133471,22.6545683269,19.4059834696)) ;
#193=CARTESIAN_POINT('Control Point',(21.6527440597,21.126598551,19.1352729014)) ;
#194=CARTESIAN_POINT('Control Point',(21.5,19.5632993814,19.)) ;
#195=CARTESIAN_POINT('Control Point',(21.5,18.,19.)) ;
#196=CARTESIAN_POINT('Vertex',(21.5,18.,19.)) ;
#199=CARTESIAN_POINT('Line Origine',(21.5,18.,0.66000000039)) ;
#213=CARTESIAN_POINT('Axis2P3D Location',(26.,-107.8,-25.)) ;
#218=CARTESIAN_POINT('Line Origine',(55.6800979419,77.,4.68009794193)) ;
#222=CARTESIAN_POINT('Vertex',(26.5,77.,-24.5)) ;
#225=CARTESIAN_POINT('Line Origine',(26.5,-1.42108547152E-014,-24.5)) ;
#238=CARTESIAN_POINT('Axis2P3D Location',(0.,77.,-25.)) ;
#243=CARTESIAN_POINT('Line Origine',(-26.5,77.,7.1054273576E-015)) ;
#247=CARTESIAN_POINT('Vertex',(-26.5,77.,-24.5)) ;
#249=CARTESIAN_POINT('Vertex',(-26.5,77.,24.5)) ;
#252=CARTESIAN_POINT('Line Origine',(-26.25,77.,24.75)) ;
#256=CARTESIAN_POINT('Vertex',(-26.,77.,25.)) ;
#259=CARTESIAN_POINT('Line Origine',(0.,77.,25.)) ;
#263=CARTESIAN_POINT('Vertex',(26.,77.,25.)) ;
#266=CARTESIAN_POINT('Line Origine',(26.25,77.,24.75)) ;
#270=CARTESIAN_POINT('Vertex',(26.5,77.,24.5)) ;
#273=CARTESIAN_POINT('Line Origine',(26.5,77.,7.1054273576E-015)) ;
#278=CARTESIAN_POINT('Line Origine',(-26.25,77.,-24.75)) ;
#294=CARTESIAN_POINT('Axis2P3D Location',(-26.,-107.8,-25.)) ;
#299=CARTESIAN_POINT('Line Origine',(-54.2635533911,30.9465685057,3.26355339112)) ;
#303=CARTESIAN_POINT('Vertex',(-26.2557761934,30.9465685057,-24.7442238066)) ;
#307=CARTESIAN_POINT('Control Point',(-26.255776107,30.946568404,-24.744223893)) ;
#308=CARTESIAN_POINT('Control Point',(-26.3365681963,31.0416988503,-24.6634318037)) ;
#309=CARTESIAN_POINT('Control Point',(-26.4179850104,31.1357602983,-24.5820149896)) ;
#310=CARTESIAN_POINT('Control Point',(-26.5,31.2287565553,-24.5)) ;
#311=CARTESIAN_POINT('Vertex',(-26.5,31.2287565553,-24.5)) ;
#314=CARTESIAN_POINT('Line Origine',(-26.5,-1.42108547152E-014,-24.5)) ;
#327=CARTESIAN_POINT('Axis2P3D Location',(-59.6201551089,18.,-2.09304832668)) ;
#332=CARTESIAN_POINT('Line Origine',(-49.0135533911,18.,8.51355339112)) ;
#336=CARTESIAN_POINT('Vertex',(-21.5,18.,-19.)) ;
#340=CARTESIAN_POINT('Control Point',(-26.2557760471,30.9465685057,-24.7442239529)) ;
#341=CARTESIAN_POINT('Control Point',(-25.6026818122,30.1775682278,-23.5386930177)) ;
#342=CARTESIAN_POINT('Control Point',(-24.872856602,29.2199407219,-22.4950554761)) ;
#343=CARTESIAN_POINT('Control Point',(-24.148110138,28.0916800769,-21.6335954208)) ;
#344=CARTESIAN_POINT('Control Point',(-22.8458609499,25.577256373,-20.2248705874)) ;
#345=CARTESIAN_POINT('Control Point',(-21.9581134308,22.6545680469,-19.4059833002)) ;
#346=CARTESIAN_POINT('Control Point',(-21.6527440597,21.1265987611,-19.1352729015)) ;
#347=CARTESIAN_POINT('Control Point',(-21.5,19.5632993814,-19.)) ;
#348=CARTESIAN_POINT('Control Point',(-21.5,18.,-19.)) ;
#357=CARTESIAN_POINT('Axis2P3D Location',(-15.5,105.4,-25.)) ;
#363=CARTESIAN_POINT('Control Point',(-21.5,-62.5147186258,-19.)) ;
#364=CARTESIAN_POINT('Control Point',(-15.5,-65.,-25.)) ;
#365=CARTESIAN_POINT('Vertex',(-21.5,-62.5147186258,-19.)) ;
#368=CARTESIAN_POINT('Line Origine',(-21.5,4.7,-19.)) ;
#380=CARTESIAN_POINT('Axis2P3D Location',(2.09304832668,18.,59.6201551089)) ;
#385=CARTESIAN_POINT('Line Origine',(-3.26355339112,30.9465685057,54.2635533911)) ;
#389=CARTESIAN_POINT('Vertex',(26.,30.9465685057,25.)) ;
#393=CARTESIAN_POINT('Control Point',(15.5,18.,25.)) ;
#394=CARTESIAN_POINT('Control Point',(15.5,19.3881033121,25.)) ;
#395=CARTESIAN_POINT('Control Point',(15.7270791881,20.7762062457,25.)) ;
#396=CARTESIAN_POINT('Control Point',(16.1818141228,22.1122191895,25.0000002121)) ;
#397=CARTESIAN_POINT('Control Point',(17.8017627526,25.2853674473,24.999999672)) ;
#398=CARTESIAN_POINT('Control Point',(20.3615570955,27.8187276934,25.0000005072)) ;
#399=CARTESIAN_POINT('Control Point',(22.1231123701,29.0875696902,24.9999996903)) ;
#400=CARTESIAN_POINT('Control Point',(24.0165230814,30.1259112123,25.)) ;
#401=CARTESIAN_POINT('Control Point',(26.,30.9465685057,25.)) ;
#402=CARTESIAN_POINT('Vertex',(15.5,18.,25.)) ;
#405=CARTESIAN_POINT('Line Origine',(-8.51355339112,18.,49.0135533911)) ;
#417=CARTESIAN_POINT('Axis2P3D Location',(26.5,0.,0.)) ;
#422=CARTESIAN_POINT('Line Origine',(26.5,54.1143782777,24.5)) ;
#434=CARTESIAN_POINT('Axis2P3D Location',(-26.5,0.,0.)) ;
#439=CARTESIAN_POINT('Line Origine',(-26.5,31.2287565553,0.)) ;
#443=CARTESIAN_POINT('Vertex',(-26.5,31.2287565553,24.5)) ;
#446=CARTESIAN_POINT('Line Origine',(-26.5,54.1143782777,24.5)) ;
#458=CARTESIAN_POINT('Axis2P3D Location',(0.,-77.,25.)) ;
#464=CARTESIAN_POINT('Control Point',(-15.5,18.,25.)) ;
#465=CARTESIAN_POINT('Control Point',(-15.5,18.7760366406,25.)) ;
#466=CARTESIAN_POINT('Control Point',(-15.5709738241,19.5520730447,25.)) ;
#467=CARTESIAN_POINT('Control Point',(-15.7129326046,20.3191094029,25.)) ;
#468=CARTESIAN_POINT('Control Point',(-16.0862076711,21.6610759544,25.)) ;
#469=CARTESIAN_POINT('Control Point',(-16.6535022353,22.931244467,25.)) ;
#470=CARTESIAN_POINT('Control Point',(-16.9384407231,23.4747169435,25.)) ;
#471=CARTESIAN_POINT('Control Point',(-17.7901344198,24.889011406,25.)) ;
#472=CARTESIAN_POINT('Control Point',(-18.846228547,26.1641624187,25.)) ;
#473=CARTESIAN_POINT('Control Point',(-19.5760390861,26.9070005721,25.)) ;
#474=CARTESIAN_POINT('Control Point',(-21.1955375301,28.3236117292,25.)) ;
#475=CARTESIAN_POINT('Control Point',(-23.0005102417,29.4961596714,25.)) ;
#476=CARTESIAN_POINT('Control Point',(-23.9723266186,30.0394233868,25.)) ;
#477=CARTESIAN_POINT('Control Point',(-24.9741164112,30.5221124198,25.)) ;
#478=CARTESIAN_POINT('Control Point',(-26.,30.9465685057,25.)) ;
#479=CARTESIAN_POINT('Vertex',(-15.5,18.,25.)) ;
#481=CARTESIAN_POINT('Vertex',(-26.,30.9465685057,25.)) ;
#484=CARTESIAN_POINT('Line Origine',(-15.5,-23.5,25.)) ;
#488=CARTESIAN_POINT('Vertex',(-15.5,-65.,25.)) ;
#491=CARTESIAN_POINT('Line Origine',(-1.7763568394E-015,-65.,25.)) ;
#495=CARTESIAN_POINT('Vertex',(15.5,-65.,25.)) ;
#498=CARTESIAN_POINT('Line Origine',(15.5,-23.5,25.)) ;
#503=CARTESIAN_POINT('Line Origine',(26.,53.9732842529,25.)) ;
#508=CARTESIAN_POINT('Line Origine',(-26.,53.9732842529,25.)) ;
#524=CARTESIAN_POINT('Axis2P3D Location',(-41.5,18.,0.66000000039)) ;
#530=CARTESIAN_POINT('Control Point',(-26.2557760471,30.9465685057,24.7442239529)) ;
#531=CARTESIAN_POINT('Control Point',(-25.6026818122,30.1775682278,23.5386930177)) ;
#532=CARTESIAN_POINT('Control Point',(-24.8728565605,29.2199410031,22.495055816)) ;
#533=CARTESIAN_POINT('Control Point',(-24.1481100534,28.0916803602,21.6335955921)) ;
#534=CARTESIAN_POINT('Control Point',(-22.8458610342,25.5772560915,20.2248704171)) ;
#535=CARTESIAN_POINT('Control Point',(-21.9581133471,22.6545683271,19.4059834696)) ;
#536=CARTESIAN_POINT('Control Point',(-21.6527440597,21.126598551,19.1352729014)) ;
#537=CARTESIAN_POINT('Control Point',(-21.5,19.5632993813,19.)) ;
#538=CARTESIAN_POINT('Control Point',(-21.5,17.9999999999,19.)) ;
#539=CARTESIAN_POINT('Vertex',(-26.2557760471,30.9465685057,24.7442239529)) ;
#541=CARTESIAN_POINT('Vertex',(-21.5,18.,19.)) ;
#545=CARTESIAN_POINT('Control Point',(-26.2557761084,30.9465685779,24.7442238066)) ;
#546=CARTESIAN_POINT('Control Point',(-26.3365681743,31.0416989852,24.6634317456)) ;
#547=CARTESIAN_POINT('Control Point',(-26.4179850396,31.1357603315,24.5820149604)) ;
#548=CARTESIAN_POINT('Control Point',(-26.5,31.2287565553,24.5)) ;
#550=CARTESIAN_POINT('Line Origine',(-21.5,18.,0.66000000039)) ;
#564=CARTESIAN_POINT('Axis2P3D Location',(-21.5,0.,0.)) ;
#569=CARTESIAN_POINT('Line Origine',(-21.5,-66.7573593129,-14.7573593129)) ;
#573=CARTESIAN_POINT('Vertex',(-21.5,-71.,-10.5147186258)) ;
#576=CARTESIAN_POINT('Line Origine',(-21.5,-71.,0.)) ;
#580=CARTESIAN_POINT('Vertex',(-21.5,-71.,10.5147186258)) ;
#583=CARTESIAN_POINT('Line Origine',(-21.5,-66.7573593129,14.7573593129)) ;
#587=CARTESIAN_POINT('Vertex',(-21.5,-62.5147186258,19.)) ;
#590=CARTESIAN_POINT('Line Origine',(-21.5,-22.2573593129,19.)) ;
#603=CARTESIAN_POINT('Axis2P3D Location',(-21.5,-27.,0.)) ;
#607=CARTESIAN_POINT('Vertex',(-21.5,-19.101756943,4.31482984744)) ;
#609=CARTESIAN_POINT('Vertex',(-21.5,-34.898243057,-4.31482984744)) ;
#612=CARTESIAN_POINT('Axis2P3D Location',(-21.5,-27.,-8.881784197E-016)) ;
#622=CARTESIAN_POINT('Axis2P3D Location',(-37.1,-77.,13.)) ;
#627=CARTESIAN_POINT('Line Origine',(-15.5,-71.,19.)) ;
#631=CARTESIAN_POINT('Vertex',(-15.5,-77.,13.)) ;
#634=CARTESIAN_POINT('Line Origine',(-7.1054273576E-015,-77.,13.)) ;
#638=CARTESIAN_POINT('Vertex',(15.5,-77.,13.)) ;
#641=CARTESIAN_POINT('Line Origine',(15.5,-71.,19.)) ;
#653=CARTESIAN_POINT('Axis2P3D Location',(-15.5,-96.,25.)) ;
#659=CARTESIAN_POINT('Control Point',(-21.5,-62.5147186258,19.)) ;
#660=CARTESIAN_POINT('Control Point',(-15.5,-65.,25.)) ;
#662=CARTESIAN_POINT('Line Origine',(-18.5,18.,22.)) ;
#674=CARTESIAN_POINT('Axis2P3D Location',(0.,-77.,25.)) ;
#679=CARTESIAN_POINT('Line Origine',(-15.5,-77.,1.7763568394E-015)) ;
#683=CARTESIAN_POINT('Vertex',(-15.5,-77.,-13.)) ;
#686=CARTESIAN_POINT('Line Origine',(0.,-77.,-13.)) ;
#690=CARTESIAN_POINT('Vertex',(15.5,-77.,-13.)) ;
#693=CARTESIAN_POINT('Line Origine',(15.5,-77.,3.5527136788E-015)) ;
#705=CARTESIAN_POINT('Axis2P3D Location',(15.5,-100.242640687,10.2426406871)) ;
#711=CARTESIAN_POINT('Control Point',(21.5,-62.5147186258,-19.)) ;
#712=CARTESIAN_POINT('Control Point',(15.5,-65.,-25.)) ;
#713=CARTESIAN_POINT('Vertex',(21.5,-62.5147186258,-19.)) ;
#716=CARTESIAN_POINT('Line Origine',(21.5,-71.2573593129,-10.2573593129)) ;
#720=CARTESIAN_POINT('Vertex',(21.5,-71.,-10.5147186258)) ;
#724=CARTESIAN_POINT('Control Point',(21.5,-71.,-10.5147186258)) ;
#725=CARTESIAN_POINT('Control Point',(15.5,-77.,-13.)) ;
#727=CARTESIAN_POINT('Line Origine',(15.5,-75.5,-14.5)) ;
#739=CARTESIAN_POINT('Axis2P3D Location',(15.5,-77.,35.)) ;
#744=CARTESIAN_POINT('Line Origine',(21.5,-71.,7.1054273576E-015)) ;
#748=CARTESIAN_POINT('Vertex',(21.5,-71.,10.5147186258)) ;
#752=CARTESIAN_POINT('Control Point',(21.5,-71.,10.5147186258)) ;
#753=CARTESIAN_POINT('Control Point',(15.5,-77.,13.)) ;
#762=CARTESIAN_POINT('Axis2P3D Location',(15.5,-50.7573593129,39.2426406871)) ;
#767=CARTESIAN_POINT('Line Origine',(21.5,-71.2573593129,10.2573593129)) ;
#771=CARTESIAN_POINT('Vertex',(21.5,-62.5147186258,19.)) ;
#775=CARTESIAN_POINT('Control Point',(21.5,-62.5147186258,19.)) ;
#776=CARTESIAN_POINT('Control Point',(15.5,-65.,25.)) ;
#785=CARTESIAN_POINT('Axis2P3D Location',(-26.4,-27.,0.)) ;
#790=CARTESIAN_POINT('Axis2P3D Location',(21.5,-27.,0.)) ;
#794=CARTESIAN_POINT('Vertex',(21.5,-34.898243057,-4.31482984744)) ;
#796=CARTESIAN_POINT('Vertex',(21.5,-19.101756943,4.31482984744)) ;
#799=CARTESIAN_POINT('Line Origine',(0.,-34.898243057,-4.31482984744)) ;
#804=CARTESIAN_POINT('Line Origine',(0.,-19.101756943,4.31482984744)) ;
#816=CARTESIAN_POINT('Axis2P3D Location',(21.5,-27.,0.)) ;
#828=CARTESIAN_POINT('Axis2P3D Location',(-15.5,-50.7573593129,39.2426406871)) ;
#834=CARTESIAN_POINT('Control Point',(-21.5,-71.,10.5147186258)) ;
#835=CARTESIAN_POINT('Control Point',(-15.5,-77.,13.)) ;
#844=CARTESIAN_POINT('Axis2P3D Location',(-15.5,-77.,35.)) ;
#850=CARTESIAN_POINT('Control Point',(-21.5,-71.,-10.5147186258)) ;
#851=CARTESIAN_POINT('Control Point',(-15.5,-77.,-13.)) ;
#860=CARTESIAN_POINT('Axis2P3D Location',(-0.676503775866,18.,61.0366996597)) ;
#865=CARTESIAN_POINT('Line Origine',(4.68009794193,30.9465685057,55.6800979419)) ;
#877=CARTESIAN_POINT('Axis2P3D Location',(15.5,-96.,25.)) ;
#882=CARTESIAN_POINT('Line Origine',(21.5,4.7,19.)) ;
#894=CARTESIAN_POINT('Axis2P3D Location',(-15.5,-100.242640687,10.2426406871)) ;
#899=CARTESIAN_POINT('Line Origine',(-15.5,-75.5,-14.5)) ;
#911=CARTESIAN_POINT('Axis2P3D Location',(-26.,107.8,25.)) ;
#924=CARTESIAN_POINT('Axis2P3D Location',(26.,107.8,25.)) ;
#937=CARTESIAN_POINT('Axis2P3D Location',(21.5,0.,0.)) ;
#942=CARTESIAN_POINT('Line Origine',(21.5,-22.2573593129,-19.)) ;
#960=CARTESIAN_POINT('Axis2P3D Location',(37.1,-77.,-13.)) ;
#972=CARTESIAN_POINT('Axis2P3D Location',(15.5,105.4,-25.)) ;
#8=PRODUCT_RELATED_PRODUCT_CATEGORY('part',$,(#5)) ;
#29=STYLED_ITEM(' ',(#28),#21) ;
#28=PRESENTATION_STYLE_ASSIGNMENT((#27)) ;
#27=SURFACE_STYLE_USAGE(.BOTH.,#26) ;
#26=SURFACE_SIDE_STYLE(' ',(#25)) ;
#25=SURFACE_STYLE_FILL_AREA(#24) ;
#24=FILL_AREA_STYLE(' ',(#23)) ;
#23=FILL_AREA_STYLE_COLOUR(' ',#22) ;
#38=VECTOR('Line Direction',#37,1.) ;
#60=VECTOR('Line Direction',#59,1.) ;
#90=VECTOR('Line Direction',#89,1.) ;
#97=VECTOR('Line Direction',#96,1.) ;
#104=VECTOR('Line Direction',#103,1.) ;
#130=VECTOR('Line Direction',#129,1.) ;
#137=VECTOR('Line Direction',#136,1.) ;
#144=VECTOR('Line Direction',#143,1.) ;
#173=VECTOR('Line Direction',#172,1.) ;
#201=VECTOR('Line Direction',#200,1.) ;
#220=VECTOR('Line Direction',#219,1.) ;
#227=VECTOR('Line Direction',#226,1.) ;
#245=VECTOR('Line Direction',#244,1.) ;
#254=VECTOR('Line Direction',#253,1.) ;
#261=VECTOR('Line Direction',#260,1.) ;
#268=VECTOR('Line Direction',#267,1.) ;
#275=VECTOR('Line Direction',#274,1.) ;
#280=VECTOR('Line Direction',#279,1.) ;
#301=VECTOR('Line Direction',#300,1.) ;
#316=VECTOR('Line Direction',#315,1.) ;
#334=VECTOR('Line Direction',#333,1.) ;
#370=VECTOR('Line Direction',#369,1.) ;
#387=VECTOR('Line Direction',#386,1.) ;
#407=VECTOR('Line Direction',#406,1.) ;
#424=VECTOR('Line Direction',#423,1.) ;
#441=VECTOR('Line Direction',#440,1.) ;
#448=VECTOR('Line Direction',#447,1.) ;
#486=VECTOR('Line Direction',#485,1.) ;
#493=VECTOR('Line Direction',#492,1.) ;
#500=VECTOR('Line Direction',#499,1.) ;
#505=VECTOR('Line Direction',#504,1.) ;
#510=VECTOR('Line Direction',#509,1.) ;
#552=VECTOR('Line Direction',#551,1.) ;
#571=VECTOR('Line Direction',#570,1.) ;
#578=VECTOR('Line Direction',#577,1.) ;
#585=VECTOR('Line Direction',#584,1.) ;
#592=VECTOR('Line Direction',#591,1.) ;
#629=VECTOR('Line Direction',#628,1.) ;
#636=VECTOR('Line Direction',#635,1.) ;
#643=VECTOR('Line Direction',#642,1.) ;
#664=VECTOR('Line Direction',#663,1.) ;
#681=VECTOR('Line Direction',#680,1.) ;
#688=VECTOR('Line Direction',#687,1.) ;
#695=VECTOR('Line Direction',#694,1.) ;
#718=VECTOR('Line Direction',#717,1.) ;
#729=VECTOR('Line Direction',#728,1.) ;
#746=VECTOR('Line Direction',#745,1.) ;
#769=VECTOR('Line Direction',#768,1.) ;
#801=VECTOR('Line Direction',#800,1.) ;
#806=VECTOR('Line Direction',#805,1.) ;
#867=VECTOR('Line Direction',#866,1.) ;
#884=VECTOR('Line Direction',#883,1.) ;
#901=VECTOR('Line Direction',#900,1.) ;
#944=VECTOR('Line Direction',#943,1.) ;
#32=DIRECTION('Axis2P3D Direction',(0.707106781187,-0.,0.707106781187)) ;
#33=DIRECTION('Axis2P3D XDirection',(-0.357106781187,0.863104567049,0.357106781187)) ;
#37=DIRECTION('Vector Direction',(0.707106781187,0.,0.707106781187)) ;
#59=DIRECTION('Vector Direction',(0.707106781187,0.,0.707106781187)) ;
#84=DIRECTION('Axis2P3D Direction',(-0.,0.,1.)) ;
#85=DIRECTION('Axis2P3D XDirection',(0.,-1.,0.)) ;
#89=DIRECTION('Vector Direction',(0.,-1.,0.)) ;
#96=DIRECTION('Vector Direction',(-1.,0.,0.)) ;
#103=DIRECTION('Vector Direction',(0.,-1.,0.)) ;
#129=DIRECTION('Vector Direction',(0.,1.,0.)) ;
#136=DIRECTION('Vector Direction',(1.,0.,0.)) ;
#143=DIRECTION('Vector Direction',(0.,1.,0.)) ;
#159=DIRECTION('Axis2P3D Direction',(0.,0.,-1.)) ;
#160=DIRECTION('Axis2P3D XDirection',(-1.,-1.22464679915E-016,0.)) ;
#172=DIRECTION('Vector Direction',(0.,0.,-1.)) ;
#200=DIRECTION('Vector Direction',(0.,0.,-1.)) ;
#214=DIRECTION('Axis2P3D Direction',(0.707106781187,0.,-0.707106781187)) ;
#215=DIRECTION('Axis2P3D XDirection',(0.,1.,0.)) ;
#219=DIRECTION('Vector Direction',(0.707106781187,0.,0.707106781187)) ;
#226=DIRECTION('Vector Direction',(0.,1.,0.)) ;
#239=DIRECTION('Axis2P3D Direction',(0.,1.,0.)) ;
#240=DIRECTION('Axis2P3D XDirection',(0.,0.,1.)) ;
#244=DIRECTION('Vector Direction',(0.,0.,1.)) ;
#253=DIRECTION('Vector Direction',(-0.707106781186,0.,-0.707106781187)) ;
#260=DIRECTION('Vector Direction',(1.,0.,0.)) ;
#267=DIRECTION('Vector Direction',(-0.707106781186,0.,0.707106781187)) ;
#274=DIRECTION('Vector Direction',(0.,0.,1.)) ;
#279=DIRECTION('Vector Direction',(-0.707106781187,0.,0.707106781186)) ;
#295=DIRECTION('Axis2P3D Direction',(0.707106781187,-0.,0.707106781187)) ;
#296=DIRECTION('Axis2P3D XDirection',(0.,1.,0.)) ;
#300=DIRECTION('Vector Direction',(-0.707106781187,0.,0.707106781187)) ;
#315=DIRECTION('Vector Direction',(0.,1.,0.)) ;
#328=DIRECTION('Axis2P3D Direction',(0.707106781187,0.,-0.707106781187)) ;
#329=DIRECTION('Axis2P3D XDirection',(0.357106781187,0.863104567049,0.357106781187)) ;
#333=DIRECTION('Vector Direction',(0.707106781187,0.,-0.707106781187)) ;
#358=DIRECTION('Axis2P3D Direction',(-0.707106781187,-0.,-0.707106781187)) ;
#359=DIRECTION('Axis2P3D XDirection',(0.,-1.,0.)) ;
#369=DIRECTION('Vector Direction',(0.,-1.,0.)) ;
#381=DIRECTION('Axis2P3D Direction',(0.707106781187,0.,-0.707106781187)) ;
#382=DIRECTION('Axis2P3D XDirection',(-0.707106781187,-1.83697019872E-016,-0.707106781187)) ;
#386=DIRECTION('Vector Direction',(0.707106781187,0.,-0.707106781187)) ;
#406=DIRECTION('Vector Direction',(0.707106781187,0.,-0.707106781187)) ;
#418=DIRECTION('Axis2P3D Direction',(1.,0.,0.)) ;
#419=DIRECTION('Axis2P3D XDirection',(0.,1.,0.)) ;
#423=DIRECTION('Vector Direction',(0.,-1.,0.)) ;
#435=DIRECTION('Axis2P3D Direction',(1.,0.,0.)) ;
#436=DIRECTION('Axis2P3D XDirection',(0.,1.,0.)) ;
#440=DIRECTION('Vector Direction',(0.,0.,1.)) ;
#447=DIRECTION('Vector Direction',(0.,-1.,0.)) ;
#459=DIRECTION('Axis2P3D Direction',(0.,0.,-1.)) ;
#460=DIRECTION('Axis2P3D XDirection',(0.,1.,0.)) ;
#485=DIRECTION('Vector Direction',(0.,1.,0.)) ;
#492=DIRECTION('Vector Direction',(1.,0.,0.)) ;
#499=DIRECTION('Vector Direction',(0.,1.,0.)) ;
#504=DIRECTION('Vector Direction',(0.,-1.,0.)) ;
#509=DIRECTION('Vector Direction',(0.,-1.,0.)) ;
#525=DIRECTION('Axis2P3D Direction',(0.,0.,-1.)) ;
#526=DIRECTION('Axis2P3D XDirection',(0.75,0.661437827766,0.)) ;
#551=DIRECTION('Vector Direction',(0.,0.,-1.)) ;
#565=DIRECTION('Axis2P3D Direction',(-1.,0.,0.)) ;
#566=DIRECTION('Axis2P3D XDirection',(0.,-1.,0.)) ;
#570=DIRECTION('Vector Direction',(0.,0.707106781187,-0.707106781187)) ;
#577=DIRECTION('Vector Direction',(0.,0.,-1.)) ;
#584=DIRECTION('Vector Direction',(0.,-0.707106781187,-0.707106781187)) ;
#591=DIRECTION('Vector Direction',(0.,1.,0.)) ;
#604=DIRECTION('Axis2P3D Direction',(-1.,0.,0.)) ;
#613=DIRECTION('Axis2P3D Direction',(-1.,0.,0.)) ;
#623=DIRECTION('Axis2P3D Direction',(0.,-0.707106781187,0.707106781187)) ;
#624=DIRECTION('Axis2P3D XDirection',(1.,0.,0.)) ;
#628=DIRECTION('Vector Direction',(0.,0.707106781187,0.707106781187)) ;
#635=DIRECTION('Vector Direction',(1.,0.,0.)) ;
#642=DIRECTION('Vector Direction',(0.,0.707106781187,0.707106781187)) ;
#654=DIRECTION('Axis2P3D Direction',(-0.707106781187,0.,0.707106781187)) ;
#655=DIRECTION('Axis2P3D XDirection',(0.,1.,0.)) ;
#663=DIRECTION('Vector Direction',(-0.707106781187,0.,-0.707106781187)) ;
#675=DIRECTION('Axis2P3D Direction',(0.,-1.,0.)) ;
#676=DIRECTION('Axis2P3D XDirection',(0.,0.,-1.)) ;
#680=DIRECTION('Vector Direction',(0.,0.,-1.)) ;
#687=DIRECTION('Vector Direction',(-1.,0.,0.)) ;
#694=DIRECTION('Vector Direction',(0.,0.,-1.)) ;
#706=DIRECTION('Axis2P3D Direction',(0.707106781187,-0.5,-0.5)) ;
#707=DIRECTION('Axis2P3D XDirection',(0.,0.707106781187,-0.707106781187)) ;
#717=DIRECTION('Vector Direction',(0.,0.707106781187,-0.707106781187)) ;
#728=DIRECTION('Vector Direction',(0.,0.707106781187,-0.707106781187)) ;
#740=DIRECTION('Axis2P3D Direction',(0.707106781187,-0.707106781187,0.)) ;
#741=DIRECTION('Axis2P3D XDirection',(0.,0.,-1.)) ;
#745=DIRECTION('Vector Direction',(0.,0.,-1.)) ;
#763=DIRECTION('Axis2P3D Direction',(0.707106781187,-0.5,0.5)) ;
#764=DIRECTION('Axis2P3D XDirection',(0.,-0.707106781187,-0.707106781187)) ;
#768=DIRECTION('Vector Direction',(0.,-0.707106781187,-0.707106781187)) ;
#786=DIRECTION('Axis2P3D Direction',(1.,0.,-0.)) ;
#787=DIRECTION('Axis2P3D XDirection',(0.,0.87758256189,0.479425538604)) ;
#791=DIRECTION('Axis2P3D Direction',(1.,0.,-0.)) ;
#800=DIRECTION('Vector Direction',(1.,0.,0.)) ;
#805=DIRECTION('Vector Direction',(1.,0.,0.)) ;
#817=DIRECTION('Axis2P3D Direction',(1.,0.,-0.)) ;
#829=DIRECTION('Axis2P3D Direction',(0.707106781187,0.5,-0.5)) ;
#830=DIRECTION('Axis2P3D XDirection',(0.,-0.707106781187,-0.707106781187)) ;
#845=DIRECTION('Axis2P3D Direction',(0.707106781187,0.707106781187,0.)) ;
#846=DIRECTION('Axis2P3D XDirection',(0.,0.,-1.)) ;
#861=DIRECTION('Axis2P3D Direction',(0.707106781187,-0.,0.707106781187)) ;
#862=DIRECTION('Axis2P3D XDirection',(0.707106781187,-1.83697019872E-016,-0.707106781187)) ;
#866=DIRECTION('Vector Direction',(0.707106781187,0.,0.707106781187)) ;
#878=DIRECTION('Axis2P3D Direction',(-0.707106781187,0.,-0.707106781187)) ;
#879=DIRECTION('Axis2P3D XDirection',(0.,1.,0.)) ;
#883=DIRECTION('Vector Direction',(0.,1.,0.)) ;
#895=DIRECTION('Axis2P3D Direction',(0.707106781187,0.5,0.5)) ;
#896=DIRECTION('Axis2P3D XDirection',(0.,0.707106781187,-0.707106781187)) ;
#900=DIRECTION('Vector Direction',(0.,0.707106781187,-0.707106781187)) ;
#912=DIRECTION('Axis2P3D Direction',(0.707106781187,0.,-0.707106781187)) ;
#913=DIRECTION('Axis2P3D XDirection',(0.,-1.,0.)) ;
#925=DIRECTION('Axis2P3D Direction',(0.707106781187,0.,0.707106781187)) ;
#926=DIRECTION('Axis2P3D XDirection',(0.,-1.,0.)) ;
#938=DIRECTION('Axis2P3D Direction',(-1.,0.,0.)) ;
#939=DIRECTION('Axis2P3D XDirection',(0.,-1.,0.)) ;
#943=DIRECTION('Vector Direction',(0.,-1.,0.)) ;
#961=DIRECTION('Axis2P3D Direction',(-0.,-0.707106781187,-0.707106781187)) ;
#962=DIRECTION('Axis2P3D XDirection',(-1.,0.,0.)) ;
#973=DIRECTION('Axis2P3D Direction',(-0.707106781187,0.,0.707106781187)) ;
#974=DIRECTION('Axis2P3D XDirection',(0.,-1.,0.)) ;
#15=UNCERTAINTY_MEASURE_WITH_UNIT(LENGTH_MEASURE(0.005),#12,'distance_accuracy_value','CONFUSED CURVE UNCERTAINTY') ;
#18=AXIS2_PLACEMENT_3D(' ',#17,$,$) ;
#34=AXIS2_PLACEMENT_3D('Cylinder Axis2P3D',#31,#32,#33) ;
#86=AXIS2_PLACEMENT_3D('Plane Axis2P3D',#83,#84,#85) ;
#161=AXIS2_PLACEMENT_3D('Cylinder Axis2P3D',#158,#159,#160) ;
#216=AXIS2_PLACEMENT_3D('Plane Axis2P3D',#213,#214,#215) ;
#241=AXIS2_PLACEMENT_3D('Plane Axis2P3D',#238,#239,#240) ;
#297=AXIS2_PLACEMENT_3D('Plane Axis2P3D',#294,#295,#296) ;
#330=AXIS2_PLACEMENT_3D('Cylinder Axis2P3D',#327,#328,#329) ;
#360=AXIS2_PLACEMENT_3D('Plane Axis2P3D',#357,#358,#359) ;
#383=AXIS2_PLACEMENT_3D('Cylinder Axis2P3D',#380,#381,#382) ;
#420=AXIS2_PLACEMENT_3D('Plane Axis2P3D',#417,#418,#419) ;
#437=AXIS2_PLACEMENT_3D('Plane Axis2P3D',#434,#435,#436) ;
#461=AXIS2_PLACEMENT_3D('Plane Axis2P3D',#458,#459,#460) ;
#527=AXIS2_PLACEMENT_3D('Cylinder Axis2P3D',#524,#525,#526) ;
#567=AXIS2_PLACEMENT_3D('Plane Axis2P3D',#564,#565,#566) ;
#605=AXIS2_PLACEMENT_3D('Circle Axis2P3D',#603,#604,$) ;
#614=AXIS2_PLACEMENT_3D('Circle Axis2P3D',#612,#613,$) ;
#625=AXIS2_PLACEMENT_3D('Plane Axis2P3D',#622,#623,#624) ;
#656=AXIS2_PLACEMENT_3D('Plane Axis2P3D',#653,#654,#655) ;
#677=AXIS2_PLACEMENT_3D('Plane Axis2P3D',#674,#675,#676) ;
#708=AXIS2_PLACEMENT_3D('Plane Axis2P3D',#705,#706,#707) ;
#742=AXIS2_PLACEMENT_3D('Plane Axis2P3D',#739,#740,#741) ;
#765=AXIS2_PLACEMENT_3D('Plane Axis2P3D',#762,#763,#764) ;
#788=AXIS2_PLACEMENT_3D('Cylinder Axis2P3D',#785,#786,#787) ;
#792=AXIS2_PLACEMENT_3D('Circle Axis2P3D',#790,#791,$) ;
#818=AXIS2_PLACEMENT_3D('Circle Axis2P3D',#816,#817,$) ;
#831=AXIS2_PLACEMENT_3D('Plane Axis2P3D',#828,#829,#830) ;
#847=AXIS2_PLACEMENT_3D('Plane Axis2P3D',#844,#845,#846) ;
#863=AXIS2_PLACEMENT_3D('Cylinder Axis2P3D',#860,#861,#862) ;
#880=AXIS2_PLACEMENT_3D('Plane Axis2P3D',#877,#878,#879) ;
#897=AXIS2_PLACEMENT_3D('Plane Axis2P3D',#894,#895,#896) ;
#914=AXIS2_PLACEMENT_3D('Plane Axis2P3D',#911,#912,#913) ;
#927=AXIS2_PLACEMENT_3D('Plane Axis2P3D',#924,#925,#926) ;
#940=AXIS2_PLACEMENT_3D('Plane Axis2P3D',#937,#938,#939) ;
#963=AXIS2_PLACEMENT_3D('Plane Axis2P3D',#960,#961,#962) ;
#975=AXIS2_PLACEMENT_3D('Plane Axis2P3D',#972,#973,#974) ;
#39=LINE('Line',#36,#38) ;
#61=LINE('Line',#58,#60) ;
#91=LINE('Line',#88,#90) ;
#98=LINE('Line',#95,#97) ;
#105=LINE('Line',#102,#104) ;
#131=LINE('Line',#128,#130) ;
#138=LINE('Line',#135,#137) ;
#145=LINE('Line',#142,#144) ;
#174=LINE('Line',#171,#173) ;
#202=LINE('Line',#199,#201) ;
#221=LINE('Line',#218,#220) ;
#228=LINE('Line',#225,#227) ;
#246=LINE('Line',#243,#245) ;
#255=LINE('Line',#252,#254) ;
#262=LINE('Line',#259,#261) ;
#269=LINE('Line',#266,#268) ;
#276=LINE('Line',#273,#275) ;
#281=LINE('Line',#278,#280) ;
#302=LINE('Line',#299,#301) ;
#317=LINE('Line',#314,#316) ;
#335=LINE('Line',#332,#334) ;
#371=LINE('Line',#368,#370) ;
#388=LINE('Line',#385,#387) ;
#408=LINE('Line',#405,#407) ;
#425=LINE('Line',#422,#424) ;
#442=LINE('Line',#439,#441) ;
#449=LINE('Line',#446,#448) ;
#487=LINE('Line',#484,#486) ;
#494=LINE('Line',#491,#493) ;
#501=LINE('Line',#498,#500) ;
#506=LINE('Line',#503,#505) ;
#511=LINE('Line',#508,#510) ;
#553=LINE('Line',#550,#552) ;
#572=LINE('Line',#569,#571) ;
#579=LINE('Line',#576,#578) ;
#586=LINE('Line',#583,#585) ;
#593=LINE('Line',#590,#592) ;
#630=LINE('Line',#627,#629) ;
#637=LINE('Line',#634,#636) ;
#644=LINE('Line',#641,#643) ;
#665=LINE('Line',#662,#664) ;
#682=LINE('Line',#679,#681) ;
#689=LINE('Line',#686,#688) ;
#696=LINE('Line',#693,#695) ;
#719=LINE('Line',#716,#718) ;
#730=LINE('Line',#727,#729) ;
#747=LINE('Line',#744,#746) ;
#770=LINE('Line',#767,#769) ;
#802=LINE('Line',#799,#801) ;
#807=LINE('Line',#804,#806) ;
#868=LINE('Line',#865,#867) ;
#885=LINE('Line',#882,#884) ;
#902=LINE('Line',#899,#901) ;
#945=LINE('Line',#942,#944) ;
#606=CIRCLE('generated circle',#605,9.) ;
#615=CIRCLE('generated circle',#614,9.) ;
#793=CIRCLE('generated circle',#792,9.) ;
#819=CIRCLE('generated circle',#818,9.) ;
#87=PLANE('',#86) ;
#217=PLANE('',#216) ;
#242=PLANE('',#241) ;
#298=PLANE('',#297) ;
#361=PLANE('',#360) ;
#421=PLANE('',#420) ;
#438=PLANE('',#437) ;
#462=PLANE('',#461) ;
#568=PLANE('',#567) ;
#626=PLANE('',#625) ;
#657=PLANE('',#656) ;
#678=PLANE('',#677) ;
#709=PLANE('',#708) ;
#743=PLANE('',#742) ;
#766=PLANE('',#765) ;
#832=PLANE('',#831) ;
#848=PLANE('',#847) ;
#881=PLANE('',#880) ;
#898=PLANE('',#897) ;
#915=PLANE('',#914) ;
#928=PLANE('',#927) ;
#941=PLANE('',#940) ;
#964=PLANE('',#963) ;
#976=PLANE('',#975) ;
#35=CYLINDRICAL_SURFACE('generated cylinder',#34,15.) ;
#162=CYLINDRICAL_SURFACE('generated cylinder',#161,20.) ;
#331=CYLINDRICAL_SURFACE('generated cylinder',#330,15.) ;
#384=CYLINDRICAL_SURFACE('generated cylinder',#383,15.) ;
#528=CYLINDRICAL_SURFACE('generated cylinder',#527,20.) ;
#789=CYLINDRICAL_SURFACE('generated cylinder',#788,9.) ;
#864=CYLINDRICAL_SURFACE('generated cylinder',#863,15.) ;
#620=FACE_BOUND('',#617,.T.) ;
#958=FACE_BOUND('',#955,.T.) ;
#44=EDGE_CURVE('',#41,#43,#39,.T.) ;
#57=EDGE_CURVE('',#43,#56,#45,.T.) ;
#64=EDGE_CURVE('',#63,#56,#61,.T.) ;
#75=EDGE_CURVE('',#63,#41,#65,.T.) ;
#94=EDGE_CURVE('',#93,#63,#91,.F.) ;
#101=EDGE_CURVE('',#100,#93,#98,.F.) ;
#108=EDGE_CURVE('',#100,#107,#105,.F.) ;
#127=EDGE_CURVE('',#107,#126,#109,.T.) ;
#134=EDGE_CURVE('',#126,#133,#131,.T.) ;
#141=EDGE_CURVE('',#133,#140,#138,.T.) ;
#146=EDGE_CURVE('',#41,#140,#145,.T.) ;
#170=EDGE_CURVE('',#43,#169,#163,.T.) ;
#177=EDGE_CURVE('',#169,#176,#174,.F.) ;
#185=EDGE_CURVE('',#184,#176,#178,.T.) ;
#198=EDGE_CURVE('',#184,#197,#186,.T.) ;
#203=EDGE_CURVE('',#56,#197,#202,.F.) ;
#224=EDGE_CURVE('',#140,#223,#221,.T.) ;
#229=EDGE_CURVE('',#169,#223,#228,.T.) ;
#251=EDGE_CURVE('',#248,#250,#246,.T.) ;
#258=EDGE_CURVE('',#257,#250,#255,.T.) ;
#265=EDGE_CURVE('',#257,#264,#262,.T.) ;
#272=EDGE_CURVE('',#271,#264,#269,.T.) ;
#277=EDGE_CURVE('',#223,#271,#276,.T.) ;
#282=EDGE_CURVE('',#248,#133,#281,.F.) ;
#305=EDGE_CURVE('',#126,#304,#302,.T.) ;
#313=EDGE_CURVE('',#304,#312,#306,.T.) ;
#318=EDGE_CURVE('',#312,#248,#317,.T.) ;
#338=EDGE_CURVE('',#107,#337,#335,.F.) ;
#349=EDGE_CURVE('',#304,#337,#339,.T.) ;
#367=EDGE_CURVE('',#366,#100,#362,.T.) ;
#372=EDGE_CURVE('',#366,#337,#371,.F.) ;
#391=EDGE_CURVE('',#184,#390,#388,.F.) ;
#404=EDGE_CURVE('',#403,#390,#392,.T.) ;
#409=EDGE_CURVE('',#197,#403,#408,.F.) ;
#426=EDGE_CURVE('',#271,#176,#425,.T.) ;
#445=EDGE_CURVE('',#312,#444,#442,.T.) ;
#450=EDGE_CURVE('',#250,#444,#449,.T.) ;
#483=EDGE_CURVE('',#480,#482,#463,.T.) ;
#490=EDGE_CURVE('',#480,#489,#487,.F.) ;
#497=EDGE_CURVE('',#489,#496,#494,.T.) ;
#502=EDGE_CURVE('',#403,#496,#501,.F.) ;
#507=EDGE_CURVE('',#264,#390,#506,.T.) ;
#512=EDGE_CURVE('',#257,#482,#511,.T.) ;
#543=EDGE_CURVE('',#540,#542,#529,.T.) ;
#549=EDGE_CURVE('',#540,#444,#544,.T.) ;
#554=EDGE_CURVE('',#337,#542,#553,.F.) ;
#575=EDGE_CURVE('',#574,#366,#572,.T.) ;
#582=EDGE_CURVE('',#581,#574,#579,.T.) ;
#589=EDGE_CURVE('',#588,#581,#586,.T.) ;
#594=EDGE_CURVE('',#542,#588,#593,.F.) ;
#611=EDGE_CURVE('',#608,#610,#606,.T.) ;
#616=EDGE_CURVE('',#610,#608,#615,.T.) ;
#633=EDGE_CURVE('',#489,#632,#630,.F.) ;
#640=EDGE_CURVE('',#632,#639,#637,.T.) ;
#645=EDGE_CURVE('',#496,#639,#644,.F.) ;
#661=EDGE_CURVE('',#588,#489,#658,.T.) ;
#666=EDGE_CURVE('',#542,#480,#665,.F.) ;
#685=EDGE_CURVE('',#632,#684,#682,.T.) ;
#692=EDGE_CURVE('',#684,#691,#689,.F.) ;
#697=EDGE_CURVE('',#639,#691,#696,.T.) ;
#715=EDGE_CURVE('',#93,#714,#710,.F.) ;
#722=EDGE_CURVE('',#721,#714,#719,.T.) ;
#726=EDGE_CURVE('',#691,#721,#723,.F.) ;
#731=EDGE_CURVE('',#691,#93,#730,.T.) ;
#750=EDGE_CURVE('',#749,#721,#747,.T.) ;
#754=EDGE_CURVE('',#639,#749,#751,.F.) ;
#773=EDGE_CURVE('',#772,#749,#770,.T.) ;
#777=EDGE_CURVE('',#496,#772,#774,.F.) ;
#798=EDGE_CURVE('',#795,#797,#793,.F.) ;
#803=EDGE_CURVE('',#795,#610,#802,.F.) ;
#808=EDGE_CURVE('',#797,#608,#807,.F.) ;
#820=EDGE_CURVE('',#797,#795,#819,.F.) ;
#836=EDGE_CURVE('',#581,#632,#833,.T.) ;
#852=EDGE_CURVE('',#574,#684,#849,.T.) ;
#869=EDGE_CURVE('',#540,#482,#868,.T.) ;
#886=EDGE_CURVE('',#197,#772,#885,.F.) ;
#903=EDGE_CURVE('',#684,#100,#902,.T.) ;
#946=EDGE_CURVE('',#714,#56,#945,.F.) ;
#30=CLOSED_SHELL('Closed Shell',(#82,#157,#212,#237,#293,#326,#356,#379,#416,#433,#457,#523,#563,#621,#652,#673,#704,#738,#761,#784,#815,#827,#843,#859,#876,#893,#910,#923,#936,#959,#971,#983)) ;
#985=SHAPE_REPRESENTATION_RELATIONSHIP(' ',' ',#19,#984) ;
#76=EDGE_LOOP('',(#77,#78,#79,#80)) ;
#147=EDGE_LOOP('',(#148,#149,#150,#151,#152,#153,#154,#155)) ;
#204=EDGE_LOOP('',(#205,#206,#207,#208,#209,#210)) ;
#230=EDGE_LOOP('',(#231,#232,#233,#234,#235)) ;
#283=EDGE_LOOP('',(#284,#285,#286,#287,#288,#289,#290,#291)) ;
#319=EDGE_LOOP('',(#320,#321,#322,#323,#324)) ;
#350=EDGE_LOOP('',(#351,#352,#353,#354)) ;
#373=EDGE_LOOP('',(#374,#375,#376,#377)) ;
#410=EDGE_LOOP('',(#411,#412,#413,#414)) ;
#427=EDGE_LOOP('',(#428,#429,#430,#431)) ;
#451=EDGE_LOOP('',(#452,#453,#454,#455)) ;
#513=EDGE_LOOP('',(#514,#515,#516,#517,#518,#519,#520,#521)) ;
#555=EDGE_LOOP('',(#556,#557,#558,#559,#560,#561)) ;
#595=EDGE_LOOP('',(#596,#597,#598,#599,#600,#601)) ;
#617=EDGE_LOOP('',(#618,#619)) ;
#646=EDGE_LOOP('',(#647,#648,#649,#650)) ;
#667=EDGE_LOOP('',(#668,#669,#670,#671)) ;
#698=EDGE_LOOP('',(#699,#700,#701,#702)) ;
#732=EDGE_LOOP('',(#733,#734,#735,#736)) ;
#755=EDGE_LOOP('',(#756,#757,#758,#759)) ;
#778=EDGE_LOOP('',(#779,#780,#781,#782)) ;
#809=EDGE_LOOP('',(#810,#811,#812,#813)) ;
#821=EDGE_LOOP('',(#822,#823,#824,#825)) ;
#837=EDGE_LOOP('',(#838,#839,#840,#841)) ;
#853=EDGE_LOOP('',(#854,#855,#856,#857)) ;
#870=EDGE_LOOP('',(#871,#872,#873,#874)) ;
#887=EDGE_LOOP('',(#888,#889,#890,#891)) ;
#904=EDGE_LOOP('',(#905,#906,#907,#908)) ;
#916=EDGE_LOOP('',(#917,#918,#919,#920,#921)) ;
#929=EDGE_LOOP('',(#930,#931,#932,#933,#934)) ;
#947=EDGE_LOOP('',(#948,#949,#950,#951,#952,#953)) ;
#955=EDGE_LOOP('',(#956,#957)) ;
#965=EDGE_LOOP('',(#966,#967,#968,#969)) ;
#977=EDGE_LOOP('',(#978,#979,#980,#981)) ;
#77=ORIENTED_EDGE('',*,*,#44,.T.) ;
#78=ORIENTED_EDGE('',*,*,#57,.T.) ;
#79=ORIENTED_EDGE('',*,*,#64,.F.) ;
#80=ORIENTED_EDGE('',*,*,#75,.T.) ;
#148=ORIENTED_EDGE('',*,*,#75,.F.) ;
#149=ORIENTED_EDGE('',*,*,#94,.F.) ;
#150=ORIENTED_EDGE('',*,*,#101,.F.) ;
#151=ORIENTED_EDGE('',*,*,#108,.T.) ;
#152=ORIENTED_EDGE('',*,*,#127,.T.) ;
#153=ORIENTED_EDGE('',*,*,#134,.T.) ;
#154=ORIENTED_EDGE('',*,*,#141,.T.) ;
#155=ORIENTED_EDGE('',*,*,#146,.F.) ;
#205=ORIENTED_EDGE('',*,*,#57,.F.) ;
#206=ORIENTED_EDGE('',*,*,#170,.T.) ;
#207=ORIENTED_EDGE('',*,*,#177,.T.) ;
#208=ORIENTED_EDGE('',*,*,#185,.F.) ;
#209=ORIENTED_EDGE('',*,*,#198,.T.) ;
#210=ORIENTED_EDGE('',*,*,#203,.F.) ;
#231=ORIENTED_EDGE('',*,*,#146,.T.) ;
#232=ORIENTED_EDGE('',*,*,#224,.T.) ;
#233=ORIENTED_EDGE('',*,*,#229,.F.) ;
#234=ORIENTED_EDGE('',*,*,#170,.F.) ;
#235=ORIENTED_EDGE('',*,*,#44,.F.) ;
#284=ORIENTED_EDGE('',*,*,#251,.T.) ;
#285=ORIENTED_EDGE('',*,*,#258,.F.) ;
#286=ORIENTED_EDGE('',*,*,#265,.T.) ;
#287=ORIENTED_EDGE('',*,*,#272,.F.) ;
#288=ORIENTED_EDGE('',*,*,#277,.F.) ;
#289=ORIENTED_EDGE('',*,*,#224,.F.) ;
#290=ORIENTED_EDGE('',*,*,#141,.F.) ;
#291=ORIENTED_EDGE('',*,*,#282,.F.) ;
#320=ORIENTED_EDGE('',*,*,#305,.T.) ;
#321=ORIENTED_EDGE('',*,*,#313,.T.) ;
#322=ORIENTED_EDGE('',*,*,#318,.T.) ;
#323=ORIENTED_EDGE('',*,*,#282,.T.) ;
#324=ORIENTED_EDGE('',*,*,#134,.F.) ;
#351=ORIENTED_EDGE('',*,*,#338,.T.) ;
#352=ORIENTED_EDGE('',*,*,#349,.F.) ;
#353=ORIENTED_EDGE('',*,*,#305,.F.) ;
#354=ORIENTED_EDGE('',*,*,#127,.F.) ;
#374=ORIENTED_EDGE('',*,*,#338,.F.) ;
#375=ORIENTED_EDGE('',*,*,#108,.F.) ;
#376=ORIENTED_EDGE('',*,*,#367,.F.) ;
#377=ORIENTED_EDGE('',*,*,#372,.T.) ;
#411=ORIENTED_EDGE('',*,*,#391,.T.) ;
#412=ORIENTED_EDGE('',*,*,#404,.F.) ;
#413=ORIENTED_EDGE('',*,*,#409,.F.) ;
#414=ORIENTED_EDGE('',*,*,#198,.F.) ;
#428=ORIENTED_EDGE('',*,*,#229,.T.) ;
#429=ORIENTED_EDGE('',*,*,#277,.T.) ;
#430=ORIENTED_EDGE('',*,*,#426,.T.) ;
#431=ORIENTED_EDGE('',*,*,#177,.F.) ;
#452=ORIENTED_EDGE('',*,*,#445,.T.) ;
#453=ORIENTED_EDGE('',*,*,#450,.F.) ;
#454=ORIENTED_EDGE('',*,*,#251,.F.) ;
#455=ORIENTED_EDGE('',*,*,#318,.F.) ;
#514=ORIENTED_EDGE('',*,*,#483,.F.) ;
#515=ORIENTED_EDGE('',*,*,#490,.T.) ;
#516=ORIENTED_EDGE('',*,*,#497,.T.) ;
#517=ORIENTED_EDGE('',*,*,#502,.F.) ;
#518=ORIENTED_EDGE('',*,*,#404,.T.) ;
#519=ORIENTED_EDGE('',*,*,#507,.F.) ;
#520=ORIENTED_EDGE('',*,*,#265,.F.) ;
#521=ORIENTED_EDGE('',*,*,#512,.T.) ;
#556=ORIENTED_EDGE('',*,*,#543,.F.) ;
#557=ORIENTED_EDGE('',*,*,#549,.T.) ;
#558=ORIENTED_EDGE('',*,*,#445,.F.) ;
#559=ORIENTED_EDGE('',*,*,#313,.F.) ;
#560=ORIENTED_EDGE('',*,*,#349,.T.) ;
#561=ORIENTED_EDGE('',*,*,#554,.T.) ;
#596=ORIENTED_EDGE('',*,*,#554,.F.) ;
#597=ORIENTED_EDGE('',*,*,#372,.F.) ;
#598=ORIENTED_EDGE('',*,*,#575,.F.) ;
#599=ORIENTED_EDGE('',*,*,#582,.F.) ;
#600=ORIENTED_EDGE('',*,*,#589,.F.) ;
#601=ORIENTED_EDGE('',*,*,#594,.F.) ;
#618=ORIENTED_EDGE('',*,*,#611,.F.) ;
#619=ORIENTED_EDGE('',*,*,#616,.F.) ;
#647=ORIENTED_EDGE('',*,*,#497,.F.) ;
#648=ORIENTED_EDGE('',*,*,#633,.T.) ;
#649=ORIENTED_EDGE('',*,*,#640,.T.) ;
#650=ORIENTED_EDGE('',*,*,#645,.F.) ;
#668=ORIENTED_EDGE('',*,*,#661,.T.) ;
#669=ORIENTED_EDGE('',*,*,#490,.F.) ;
#670=ORIENTED_EDGE('',*,*,#666,.F.) ;
#671=ORIENTED_EDGE('',*,*,#594,.T.) ;
#699=ORIENTED_EDGE('',*,*,#640,.F.) ;
#700=ORIENTED_EDGE('',*,*,#685,.T.) ;
#701=ORIENTED_EDGE('',*,*,#692,.T.) ;
#702=ORIENTED_EDGE('',*,*,#697,.F.) ;
#733=ORIENTED_EDGE('',*,*,#715,.T.) ;
#734=ORIENTED_EDGE('',*,*,#722,.F.) ;
#735=ORIENTED_EDGE('',*,*,#726,.F.) ;
#736=ORIENTED_EDGE('',*,*,#731,.T.) ;
#756=ORIENTED_EDGE('',*,*,#726,.T.) ;
#757=ORIENTED_EDGE('',*,*,#750,.F.) ;
#758=ORIENTED_EDGE('',*,*,#754,.F.) ;
#759=ORIENTED_EDGE('',*,*,#697,.T.) ;
#779=ORIENTED_EDGE('',*,*,#754,.T.) ;
#780=ORIENTED_EDGE('',*,*,#773,.F.) ;
#781=ORIENTED_EDGE('',*,*,#777,.F.) ;
#782=ORIENTED_EDGE('',*,*,#645,.T.) ;
#810=ORIENTED_EDGE('',*,*,#798,.F.) ;
#811=ORIENTED_EDGE('',*,*,#803,.T.) ;
#812=ORIENTED_EDGE('',*,*,#616,.T.) ;
#813=ORIENTED_EDGE('',*,*,#808,.F.) ;
#822=ORIENTED_EDGE('',*,*,#820,.F.) ;
#823=ORIENTED_EDGE('',*,*,#808,.T.) ;
#824=ORIENTED_EDGE('',*,*,#611,.T.) ;
#825=ORIENTED_EDGE('',*,*,#803,.F.) ;
#838=ORIENTED_EDGE('',*,*,#633,.F.) ;
#839=ORIENTED_EDGE('',*,*,#661,.F.) ;
#840=ORIENTED_EDGE('',*,*,#589,.T.) ;
#841=ORIENTED_EDGE('',*,*,#836,.T.) ;
#854=ORIENTED_EDGE('',*,*,#685,.F.) ;
#855=ORIENTED_EDGE('',*,*,#836,.F.) ;
#856=ORIENTED_EDGE('',*,*,#582,.T.) ;
#857=ORIENTED_EDGE('',*,*,#852,.T.) ;
#871=ORIENTED_EDGE('',*,*,#666,.T.) ;
#872=ORIENTED_EDGE('',*,*,#483,.T.) ;
#873=ORIENTED_EDGE('',*,*,#869,.F.) ;
#874=ORIENTED_EDGE('',*,*,#543,.T.) ;
#888=ORIENTED_EDGE('',*,*,#886,.F.) ;
#889=ORIENTED_EDGE('',*,*,#409,.T.) ;
#890=ORIENTED_EDGE('',*,*,#502,.T.) ;
#891=ORIENTED_EDGE('',*,*,#777,.T.) ;
#905=ORIENTED_EDGE('',*,*,#903,.F.) ;
#906=ORIENTED_EDGE('',*,*,#852,.F.) ;
#907=ORIENTED_EDGE('',*,*,#575,.T.) ;
#908=ORIENTED_EDGE('',*,*,#367,.T.) ;
#917=ORIENTED_EDGE('',*,*,#869,.T.) ;
#918=ORIENTED_EDGE('',*,*,#512,.F.) ;
#919=ORIENTED_EDGE('',*,*,#258,.T.) ;
#920=ORIENTED_EDGE('',*,*,#450,.T.) ;
#921=ORIENTED_EDGE('',*,*,#549,.F.) ;
#930=ORIENTED_EDGE('',*,*,#185,.T.) ;
#931=ORIENTED_EDGE('',*,*,#426,.F.) ;
#932=ORIENTED_EDGE('',*,*,#272,.T.) ;
#933=ORIENTED_EDGE('',*,*,#507,.T.) ;
#934=ORIENTED_EDGE('',*,*,#391,.F.) ;
#948=ORIENTED_EDGE('',*,*,#886,.T.) ;
#949=ORIENTED_EDGE('',*,*,#773,.T.) ;
#950=ORIENTED_EDGE('',*,*,#750,.T.) ;
#951=ORIENTED_EDGE('',*,*,#722,.T.) ;
#952=ORIENTED_EDGE('',*,*,#946,.T.) ;
#953=ORIENTED_EDGE('',*,*,#203,.T.) ;
#956=ORIENTED_EDGE('',*,*,#820,.T.) ;
#957=ORIENTED_EDGE('',*,*,#798,.T.) ;
#966=ORIENTED_EDGE('',*,*,#692,.F.) ;
#967=ORIENTED_EDGE('',*,*,#903,.T.) ;
#968=ORIENTED_EDGE('',*,*,#101,.T.) ;
#969=ORIENTED_EDGE('',*,*,#731,.F.) ;
#978=ORIENTED_EDGE('',*,*,#946,.F.) ;
#979=ORIENTED_EDGE('',*,*,#715,.F.) ;
#980=ORIENTED_EDGE('',*,*,#94,.T.) ;
#981=ORIENTED_EDGE('',*,*,#64,.T.) ;
#21=MANIFOLD_SOLID_BREP('PartBody',#30) ;
#41=VERTEX_POINT('',#40) ;
#43=VERTEX_POINT('',#42) ;
#56=VERTEX_POINT('',#55) ;
#63=VERTEX_POINT('',#62) ;
#93=VERTEX_POINT('',#92) ;
#100=VERTEX_POINT('',#99) ;
#107=VERTEX_POINT('',#106) ;
#126=VERTEX_POINT('',#125) ;
#133=VERTEX_POINT('',#132) ;
#140=VERTEX_POINT('',#139) ;
#169=VERTEX_POINT('',#168) ;
#176=VERTEX_POINT('',#175) ;
#184=VERTEX_POINT('',#183) ;
#197=VERTEX_POINT('',#196) ;
#223=VERTEX_POINT('',#222) ;
#248=VERTEX_POINT('',#247) ;
#250=VERTEX_POINT('',#249) ;
#257=VERTEX_POINT('',#256) ;
#264=VERTEX_POINT('',#263) ;
#271=VERTEX_POINT('',#270) ;
#304=VERTEX_POINT('',#303) ;
#312=VERTEX_POINT('',#311) ;
#337=VERTEX_POINT('',#336) ;
#366=VERTEX_POINT('',#365) ;
#390=VERTEX_POINT('',#389) ;
#403=VERTEX_POINT('',#402) ;
#444=VERTEX_POINT('',#443) ;
#480=VERTEX_POINT('',#479) ;
#482=VERTEX_POINT('',#481) ;
#489=VERTEX_POINT('',#488) ;
#496=VERTEX_POINT('',#495) ;
#540=VERTEX_POINT('',#539) ;
#542=VERTEX_POINT('',#541) ;
#574=VERTEX_POINT('',#573) ;
#581=VERTEX_POINT('',#580) ;
#588=VERTEX_POINT('',#587) ;
#608=VERTEX_POINT('',#607) ;
#610=VERTEX_POINT('',#609) ;
#632=VERTEX_POINT('',#631) ;
#639=VERTEX_POINT('',#638) ;
#684=VERTEX_POINT('',#683) ;
#691=VERTEX_POINT('',#690) ;
#714=VERTEX_POINT('',#713) ;
#721=VERTEX_POINT('',#720) ;
#749=VERTEX_POINT('',#748) ;
#772=VERTEX_POINT('',#771) ;
#795=VERTEX_POINT('',#794) ;
#797=VERTEX_POINT('',#796) ;
#984=ADVANCED_BREP_SHAPE_REPRESENTATION('NONE',(#21),#16) ;
#82=ADVANCED_FACE('PartBody',(#81),#35,.F.) ;
#157=ADVANCED_FACE('PartBody',(#156),#87,.F.) ;
#212=ADVANCED_FACE('PartBody',(#211),#162,.F.) ;
#237=ADVANCED_FACE('PartBody',(#236),#217,.T.) ;
#293=ADVANCED_FACE('PartBody',(#292),#242,.T.) ;
#326=ADVANCED_FACE('PartBody',(#325),#298,.F.) ;
#356=ADVANCED_FACE('PartBody',(#355),#331,.F.) ;
#379=ADVANCED_FACE('PartBody',(#378),#361,.T.) ;
#416=ADVANCED_FACE('PartBody',(#415),#384,.F.) ;
#433=ADVANCED_FACE('PartBody',(#432),#421,.T.) ;
#457=ADVANCED_FACE('PartBody',(#456),#438,.F.) ;
#523=ADVANCED_FACE('PartBody',(#522),#462,.F.) ;
#563=ADVANCED_FACE('PartBody',(#562),#528,.F.) ;
#621=ADVANCED_FACE('PartBody',(#602,#620),#568,.T.) ;
#652=ADVANCED_FACE('PartBody',(#651),#626,.T.) ;
#673=ADVANCED_FACE('PartBody',(#672),#657,.T.) ;
#704=ADVANCED_FACE('PartBody',(#703),#678,.T.) ;
#738=ADVANCED_FACE('PartBody',(#737),#709,.T.) ;
#761=ADVANCED_FACE('PartBody',(#760),#743,.T.) ;
#784=ADVANCED_FACE('PartBody',(#783),#766,.T.) ;
#815=ADVANCED_FACE('PartBody',(#814),#789,.F.) ;
#827=ADVANCED_FACE('PartBody',(#826),#789,.F.) ;
#843=ADVANCED_FACE('PartBody',(#842),#832,.F.) ;
#859=ADVANCED_FACE('PartBody',(#858),#848,.F.) ;
#876=ADVANCED_FACE('PartBody',(#875),#864,.F.) ;
#893=ADVANCED_FACE('PartBody',(#892),#881,.F.) ;
#910=ADVANCED_FACE('PartBody',(#909),#898,.F.) ;
#923=ADVANCED_FACE('PartBody',(#922),#915,.F.) ;
#936=ADVANCED_FACE('PartBody',(#935),#928,.T.) ;
#959=ADVANCED_FACE('PartBody',(#954,#958),#941,.F.) ;
#971=ADVANCED_FACE('PartBody',(#970),#964,.T.) ;
#983=ADVANCED_FACE('PartBody',(#982),#976,.F.) ;
#4=APPLICATION_PROTOCOL_DEFINITION('international standard','ap242_managed_model_based_3d_engineering',2014,#1) ;
#45=B_SPLINE_CURVE_WITH_KNOTS('',5,(#46,#47,#48,#49,#50,#51,#52,#53,#54),.UNSPECIFIED.,.F.,.U.,(6,3,6),(0.,11.1157508593,22.1699467949),.UNSPECIFIED.) ;
#65=B_SPLINE_CURVE_WITH_KNOTS('',5,(#66,#67,#68,#69,#70,#71,#72,#73,#74),.UNSPECIFIED.,.F.,.U.,(6,3,6),(0.,9.81537264889,24.9937439059),.UNSPECIFIED.) ;
#109=B_SPLINE_CURVE_WITH_KNOTS('',5,(#110,#111,#112,#113,#114,#115,#116,#117,#118,#119,#120,#121,#122,#123,#124),.UNSPECIFIED.,.F.,.U.,(6,3,3,3,6),(0.,5.48740770993,9.81537264921,17.1432658734,24.9937439061),.UNSPECIFIED.) ;
#163=B_SPLINE_CURVE_WITH_KNOTS('',3,(#164,#165,#166,#167),.UNSPECIFIED.,.F.,.U.,(4,4),(0.671255909786,1.30198698719),.UNSPECIFIED.) ;
#178=B_SPLINE_CURVE_WITH_KNOTS('',3,(#179,#180,#181,#182),.UNSPECIFIED.,.F.,.U.,(4,4),(0.671255909786,1.30198698719),.UNSPECIFIED.) ;
#186=B_SPLINE_CURVE_WITH_KNOTS('',5,(#187,#188,#189,#190,#191,#192,#193,#194,#195),.UNSPECIFIED.,.F.,.U.,(6,3,6),(0.,11.1157508586,22.1699467945),.UNSPECIFIED.) ;
#306=B_SPLINE_CURVE_WITH_KNOTS('',3,(#307,#308,#309,#310),.UNSPECIFIED.,.F.,.U.,(4,4),(0.671255684991,1.30198698719),.UNSPECIFIED.) ;
#339=B_SPLINE_CURVE_WITH_KNOTS('',5,(#340,#341,#342,#343,#344,#345,#346,#347,#348),.UNSPECIFIED.,.F.,.U.,(6,3,6),(0.,11.1157508585,22.1699467948),.UNSPECIFIED.) ;
#362=B_SPLINE_CURVE_WITH_KNOTS('',1,(#363,#364),.UNSPECIFIED.,.F.,.U.,(2,2),(-4.42087727462,4.42087727462),.UNSPECIFIED.) ;
#392=B_SPLINE_CURVE_WITH_KNOTS('',5,(#393,#394,#395,#396,#397,#398,#399,#400,#401),.UNSPECIFIED.,.F.,.U.,(6,3,6),(0.,9.81537264963,24.9937439059),.UNSPECIFIED.) ;
#463=B_SPLINE_CURVE_WITH_KNOTS('',5,(#464,#465,#466,#467,#468,#469,#470,#471,#472,#473,#474,#475,#476,#477,#478),.UNSPECIFIED.,.F.,.U.,(6,3,3,3,6),(0.,5.4874077103,9.81537264946,17.1432658737,24.9937439055),.UNSPECIFIED.) ;
#529=B_SPLINE_CURVE_WITH_KNOTS('',5,(#530,#531,#532,#533,#534,#535,#536,#537,#538),.UNSPECIFIED.,.F.,.U.,(6,3,6),(0.,11.1157508585,22.1699467949),.UNSPECIFIED.) ;
#544=B_SPLINE_CURVE_WITH_KNOTS('',3,(#545,#546,#547,#548),.UNSPECIFIED.,.F.,.U.,(4,4),(0.671255909786,1.30198698719),.UNSPECIFIED.) ;
#658=B_SPLINE_CURVE_WITH_KNOTS('',1,(#659,#660),.UNSPECIFIED.,.F.,.U.,(2,2),(-4.42087727462,4.42087727462),.UNSPECIFIED.) ;
#710=B_SPLINE_CURVE_WITH_KNOTS('',1,(#711,#712),.UNSPECIFIED.,.F.,.U.,(2,2),(-4.42087727462,4.42087727462),.UNSPECIFIED.) ;
#723=B_SPLINE_CURVE_WITH_KNOTS('',1,(#724,#725),.UNSPECIFIED.,.F.,.U.,(2,2),(-4.42087727462,4.42087727462),.UNSPECIFIED.) ;
#751=B_SPLINE_CURVE_WITH_KNOTS('',1,(#752,#753),.UNSPECIFIED.,.F.,.U.,(2,2),(-4.42087727462,4.42087727462),.UNSPECIFIED.) ;
#774=B_SPLINE_CURVE_WITH_KNOTS('',1,(#775,#776),.UNSPECIFIED.,.F.,.U.,(2,2),(-4.42087727462,4.42087727462),.UNSPECIFIED.) ;
#833=B_SPLINE_CURVE_WITH_KNOTS('',1,(#834,#835),.UNSPECIFIED.,.F.,.U.,(2,2),(-4.42087727462,4.42087727462),.UNSPECIFIED.) ;
#849=B_SPLINE_CURVE_WITH_KNOTS('',1,(#850,#851),.UNSPECIFIED.,.F.,.U.,(2,2),(-4.42087727462,4.42087727462),.UNSPECIFIED.) ;
#22=COLOUR_RGB('Colour',0.823529411765,0.823529411765,1.) ;
#81=FACE_OUTER_BOUND('',#76,.T.) ;
#156=FACE_OUTER_BOUND('',#147,.T.) ;
#211=FACE_OUTER_BOUND('',#204,.T.) ;
#236=FACE_OUTER_BOUND('',#230,.T.) ;
#292=FACE_OUTER_BOUND('',#283,.T.) ;
#325=FACE_OUTER_BOUND('',#319,.T.) ;
#355=FACE_OUTER_BOUND('',#350,.T.) ;
#378=FACE_OUTER_BOUND('',#373,.T.) ;
#415=FACE_OUTER_BOUND('',#410,.T.) ;
#432=FACE_OUTER_BOUND('',#427,.T.) ;
#456=FACE_OUTER_BOUND('',#451,.T.) ;
#522=FACE_OUTER_BOUND('',#513,.T.) ;
#562=FACE_OUTER_BOUND('',#555,.T.) ;
#602=FACE_OUTER_BOUND('',#595,.T.) ;
#651=FACE_OUTER_BOUND('',#646,.T.) ;
#672=FACE_OUTER_BOUND('',#667,.T.) ;
#703=FACE_OUTER_BOUND('',#698,.T.) ;
#737=FACE_OUTER_BOUND('',#732,.T.) ;
#760=FACE_OUTER_BOUND('',#755,.T.) ;
#783=FACE_OUTER_BOUND('',#778,.T.) ;
#814=FACE_OUTER_BOUND('',#809,.T.) ;
#826=FACE_OUTER_BOUND('',#821,.T.) ;
#842=FACE_OUTER_BOUND('',#837,.T.) ;
#858=FACE_OUTER_BOUND('',#853,.T.) ;
#875=FACE_OUTER_BOUND('',#870,.T.) ;
#892=FACE_OUTER_BOUND('',#887,.T.) ;
#909=FACE_OUTER_BOUND('',#904,.T.) ;
#922=FACE_OUTER_BOUND('',#916,.T.) ;
#935=FACE_OUTER_BOUND('',#929,.T.) ;
#954=FACE_OUTER_BOUND('',#947,.T.) ;
#970=FACE_OUTER_BOUND('',#965,.T.) ;
#982=FACE_OUTER_BOUND('',#977,.T.) ;
#9=PRODUCT_CATEGORY_RELATIONSHIP(' ',' ',#7,#8) ;
#6=PRODUCT_DEFINITION_FORMATION_WITH_SPECIFIED_SOURCE('--B',' ',#5,.NOT_KNOWN.) ;
#20=SHAPE_DEFINITION_REPRESENTATION(#11,#19) ;
#12=(LENGTH_UNIT()NAMED_UNIT(*)SI_UNIT(.MILLI.,.METRE.)) ;
#13=(NAMED_UNIT(*)PLANE_ANGLE_UNIT()SI_UNIT($,.RADIAN.)) ;
#14=(NAMED_UNIT(*)SI_UNIT($,.STERADIAN.)SOLID_ANGLE_UNIT()) ;
#16=(GEOMETRIC_REPRESENTATION_CONTEXT(3)GLOBAL_UNCERTAINTY_ASSIGNED_CONTEXT((#15))GLOBAL_UNIT_ASSIGNED_CONTEXT((#12,#13,#14))REPRESENTATION_CONTEXT(' ',' ')) ;
ENDSEC;
END-ISO-10303-21;
