ISO-10303-21;
HEADER;
FILE_DESCRIPTION(('CATIA V5 STEP Exchange','CAx-IF Rec.Pracs.--- Model Styling and Organization---1.4--- 2014-01-23','CAx-IF Rec.Pracs.---Representation and Presentation of Product Manufacturing Information (PMI)---4.0---2014-10-13','CAx-IF Rec.Pracs.---3D Tessellated Data Validation Properties---0.5---2014-09-14'),'2;1');

FILE_NAME('V:\\catia\\priv\\e_dmacia\\Laura\\step au 14-12-2023\\M3D-217565_--A_CATPART_1.stp','2023-12-14T15:15:17+00:00',('none'),('none'),'CATIA Version 5-6 Release 2016 SP5 HF64','CATIA V5 STEP AP242','none');

FILE_SCHEMA(('AP242_MANAGED_MODEL_BASED_3D_ENGINEERING_MIM_LF  {1 0 10303 442 1 1 4}'));

ENDSEC;
DATA;
#5=PRODUCT('M3D-217565','','UPPER MOTOR SUPPORT',(#2)) ;
#2=PRODUCT_CONTEXT(' ',#1,'mechanical') ;
#1=APPLICATION_CONTEXT('managed model based 3d engineering') ;
#10=PRODUCT_DEFINITION('MASTER',' ',#6,#3) ;
#3=PRODUCT_DEFINITION_CONTEXT('part definition',#1,' ') ;
#11=PRODUCT_DEFINITION_SHAPE(' ',' ',#10) ;
#570=MECHANICAL_DESIGN_GEOMETRIC_PRESENTATION_REPRESENTATION(' ',(#29),#16) ;
#19=SHAPE_REPRESENTATION(' ',(#18),#16) ;
#7=PRODUCT_CATEGORY('part','specification') ;
#17=CARTESIAN_POINT(' ',(0.,0.,0.)) ;
#31=CARTESIAN_POINT('Axis2P3D Location',(0.,20.,-27.5)) ;
#36=CARTESIAN_POINT('Line Origine',(0.,20.,-27.5)) ;
#40=CARTESIAN_POINT('Vertex',(-197.5,20.,-27.5)) ;
#42=CARTESIAN_POINT('Vertex',(197.5,20.,-27.5)) ;
#45=CARTESIAN_POINT('Line Origine',(-197.5,44.,-27.5)) ;
#49=CARTESIAN_POINT('Vertex',(-197.5,68.,-27.5)) ;
#52=CARTESIAN_POINT('Line Origine',(0.,68.,-27.5)) ;
#56=CARTESIAN_POINT('Vertex',(197.5,68.,-27.5)) ;
#59=CARTESIAN_POINT('Line Origine',(197.5,44.,-27.5)) ;
#71=CARTESIAN_POINT('Axis2P3D Location',(0.,68.,-27.5)) ;
#76=CARTESIAN_POINT('Line Origine',(-197.5,68.,-13.75)) ;
#80=CARTESIAN_POINT('Vertex',(-197.5,68.,3.60834005838E-015)) ;
#83=CARTESIAN_POINT('Line Origine',(0.,68.,3.5527136788E-015)) ;
#87=CARTESIAN_POINT('Vertex',(197.5,68.,3.60834005838E-015)) ;
#90=CARTESIAN_POINT('Line Origine',(197.5,68.,-13.75)) ;
#102=CARTESIAN_POINT('Line Origine',(-197.5,68.,13.75)) ;
#106=CARTESIAN_POINT('Vertex',(-197.5,68.,27.5)) ;
#109=CARTESIAN_POINT('Line Origine',(0.,68.,27.5)) ;
#113=CARTESIAN_POINT('Vertex',(197.5,68.,27.5)) ;
#116=CARTESIAN_POINT('Line Origine',(197.5,68.,13.75)) ;
#128=CARTESIAN_POINT('Axis2P3D Location',(0.,20.,27.5)) ;
#133=CARTESIAN_POINT('Line Origine',(-197.5,44.,27.5)) ;
#137=CARTESIAN_POINT('Vertex',(-197.5,20.,27.5)) ;
#140=CARTESIAN_POINT('Line Origine',(0.,20.,27.5)) ;
#144=CARTESIAN_POINT('Vertex',(197.5,20.,27.5)) ;
#147=CARTESIAN_POINT('Line Origine',(197.5,44.,27.5)) ;
#159=CARTESIAN_POINT('Axis2P3D Location',(192.5,81.6,35.)) ;
#164=CARTESIAN_POINT('Line Origine',(195.,1.42108547152E-014,32.5)) ;
#168=CARTESIAN_POINT('Vertex',(192.5,0.,35.)) ;
#170=CARTESIAN_POINT('Vertex',(197.5,0.,30.)) ;
#173=CARTESIAN_POINT('Line Origine',(197.5,34.,30.)) ;
#177=CARTESIAN_POINT('Vertex',(197.5,15.6698729811,30.)) ;
#181=CARTESIAN_POINT('Control Point',(195.,15.,32.5)) ;
#182=CARTESIAN_POINT('Control Point',(195.640034298,15.,31.8599657019)) ;
#183=CARTESIAN_POINT('Control Point',(196.279519159,15.1091776375,31.2204808409)) ;
#184=CARTESIAN_POINT('Control Point',(196.907443382,15.3277602583,30.5925566177)) ;
#185=CARTESIAN_POINT('Control Point',(197.5,15.6698729811,30.)) ;
#186=CARTESIAN_POINT('Vertex',(195.,15.,32.5)) ;
#189=CARTESIAN_POINT('Line Origine',(195.,15.,32.5)) ;
#193=CARTESIAN_POINT('Vertex',(192.5,15.,35.)) ;
#196=CARTESIAN_POINT('Line Origine',(192.5,34.,35.)) ;
#209=CARTESIAN_POINT('Axis2P3D Location',(0.,20.,32.5)) ;
#215=CARTESIAN_POINT('Control Point',(-195.,15.,32.5)) ;
#216=CARTESIAN_POINT('Control Point',(-195.640034298,15.,31.8599657019)) ;
#217=CARTESIAN_POINT('Control Point',(-196.279519159,15.1091781074,31.2204754974)) ;
#218=CARTESIAN_POINT('Control Point',(-196.907443382,15.3277602583,30.5925566177)) ;
#219=CARTESIAN_POINT('Control Point',(-197.5,15.6698729811,30.)) ;
#220=CARTESIAN_POINT('Vertex',(-195.,15.,32.5)) ;
#222=CARTESIAN_POINT('Vertex',(-197.5,15.6698729811,30.)) ;
#225=CARTESIAN_POINT('Line Origine',(0.,15.,32.5)) ;
#230=CARTESIAN_POINT('Axis2P3D Location',(197.5,20.,32.5)) ;
#235=CARTESIAN_POINT('Axis2P3D Location',(-197.5,20.,32.5)) ;
#249=CARTESIAN_POINT('Axis2P3D Location',(0.,15.,-35.)) ;
#254=CARTESIAN_POINT('Line Origine',(0.,15.,35.)) ;
#258=CARTESIAN_POINT('Vertex',(-192.5,15.,35.)) ;
#261=CARTESIAN_POINT('Line Origine',(-193.75,15.,33.75)) ;
#273=CARTESIAN_POINT('Axis2P3D Location',(0.,0.,35.)) ;
#278=CARTESIAN_POINT('Line Origine',(-192.5,7.5,35.)) ;
#282=CARTESIAN_POINT('Vertex',(-192.5,0.,35.)) ;
#285=CARTESIAN_POINT('Line Origine',(0.,0.,35.)) ;
#297=CARTESIAN_POINT('Axis2P3D Location',(0.,0.,0.)) ;
#302=CARTESIAN_POINT('Line Origine',(-197.5,0.,15.)) ;
#306=CARTESIAN_POINT('Vertex',(-197.5,0.,30.)) ;
#308=CARTESIAN_POINT('Vertex',(-197.5,0.,0.)) ;
#311=CARTESIAN_POINT('Line Origine',(0.,0.,0.)) ;
#315=CARTESIAN_POINT('Vertex',(197.5,0.,0.)) ;
#318=CARTESIAN_POINT('Line Origine',(197.5,0.,15.)) ;
#323=CARTESIAN_POINT('Line Origine',(-195.,0.,32.5)) ;
#337=CARTESIAN_POINT('Axis2P3D Location',(-192.5,81.6,35.)) ;
#342=CARTESIAN_POINT('Line Origine',(-197.5,34.,30.)) ;
#355=CARTESIAN_POINT('Axis2P3D Location',(197.5,0.,0.)) ;
#360=CARTESIAN_POINT('Axis2P3D Location',(197.5,20.,-32.5)) ;
#364=CARTESIAN_POINT('Vertex',(197.5,15.6698729811,-30.)) ;
#367=CARTESIAN_POINT('Line Origine',(197.5,0.,-15.)) ;
#371=CARTESIAN_POINT('Vertex',(197.5,0.,-30.)) ;
#374=CARTESIAN_POINT('Line Origine',(197.5,7.83493649054,-30.)) ;
#392=CARTESIAN_POINT('Axis2P3D Location',(192.5,81.6,-35.)) ;
#397=CARTESIAN_POINT('Line Origine',(195.,0.,-32.5)) ;
#401=CARTESIAN_POINT('Vertex',(192.5,0.,-35.)) ;
#404=CARTESIAN_POINT('Line Origine',(192.5,34.,-35.)) ;
#408=CARTESIAN_POINT('Vertex',(192.5,15.,-35.)) ;
#411=CARTESIAN_POINT('Line Origine',(195.,15.,-32.5)) ;
#415=CARTESIAN_POINT('Vertex',(195.,15.,-32.5)) ;
#419=CARTESIAN_POINT('Control Point',(195.,15.,-32.5)) ;
#420=CARTESIAN_POINT('Control Point',(195.640034298,15.,-31.8599657019)) ;
#421=CARTESIAN_POINT('Control Point',(196.279519159,15.1091776375,-31.2204808409)) ;
#422=CARTESIAN_POINT('Control Point',(196.907443382,15.3277602583,-30.5925566177)) ;
#423=CARTESIAN_POINT('Control Point',(197.5,15.6698729811,-30.)) ;
#433=CARTESIAN_POINT('Axis2P3D Location',(-197.5,0.,0.)) ;
#438=CARTESIAN_POINT('Line Origine',(-197.5,7.83493649054,-30.)) ;
#442=CARTESIAN_POINT('Vertex',(-197.5,0.,-30.)) ;
#444=CARTESIAN_POINT('Vertex',(-197.5,15.6698729811,-30.)) ;
#447=CARTESIAN_POINT('Line Origine',(-197.5,0.,-15.)) ;
#452=CARTESIAN_POINT('Axis2P3D Location',(-197.5,20.,-32.5)) ;
#470=CARTESIAN_POINT('Line Origine',(0.,0.,-35.)) ;
#474=CARTESIAN_POINT('Vertex',(-192.5,0.,-35.)) ;
#477=CARTESIAN_POINT('Line Origine',(-195.,0.,-32.5)) ;
#491=CARTESIAN_POINT('Axis2P3D Location',(0.,0.,-35.)) ;
#496=CARTESIAN_POINT('Line Origine',(0.,15.,-35.)) ;
#500=CARTESIAN_POINT('Vertex',(-192.5,15.,-35.)) ;
#503=CARTESIAN_POINT('Line Origine',(-192.5,7.5,-35.)) ;
#515=CARTESIAN_POINT('Line Origine',(0.,15.,-32.5)) ;
#519=CARTESIAN_POINT('Vertex',(-195.,15.,-32.5)) ;
#522=CARTESIAN_POINT('Line Origine',(-193.75,15.,-33.75)) ;
#534=CARTESIAN_POINT('Axis2P3D Location',(0.,20.,-32.5)) ;
#540=CARTESIAN_POINT('Control Point',(-195.,15.,-32.5)) ;
#541=CARTESIAN_POINT('Control Point',(-195.640034298,15.,-31.8599657019)) ;
#542=CARTESIAN_POINT('Control Point',(-196.279519159,15.1091781074,-31.2204754974)) ;
#543=CARTESIAN_POINT('Control Point',(-196.907443382,15.3277602583,-30.5925566177)) ;
#544=CARTESIAN_POINT('Control Point',(-197.5,15.6698729811,-30.)) ;
#555=CARTESIAN_POINT('Axis2P3D Location',(-192.5,81.6,-35.)) ;
#8=PRODUCT_RELATED_PRODUCT_CATEGORY('part',$,(#5)) ;
#29=STYLED_ITEM(' ',(#28),#21) ;
#28=PRESENTATION_STYLE_ASSIGNMENT((#27)) ;
#27=SURFACE_STYLE_USAGE(.BOTH.,#26) ;
#26=SURFACE_SIDE_STYLE(' ',(#25)) ;
#25=SURFACE_STYLE_FILL_AREA(#24) ;
#24=FILL_AREA_STYLE(' ',(#23)) ;
#23=FILL_AREA_STYLE_COLOUR(' ',#22) ;
#38=VECTOR('Line Direction',#37,1.) ;
#47=VECTOR('Line Direction',#46,1.) ;
#54=VECTOR('Line Direction',#53,1.) ;
#61=VECTOR('Line Direction',#60,1.) ;
#78=VECTOR('Line Direction',#77,1.) ;
#85=VECTOR('Line Direction',#84,1.) ;
#92=VECTOR('Line Direction',#91,1.) ;
#104=VECTOR('Line Direction',#103,1.) ;
#111=VECTOR('Line Direction',#110,1.) ;
#118=VECTOR('Line Direction',#117,1.) ;
#135=VECTOR('Line Direction',#134,1.) ;
#142=VECTOR('Line Direction',#141,1.) ;
#149=VECTOR('Line Direction',#148,1.) ;
#166=VECTOR('Line Direction',#165,1.) ;
#175=VECTOR('Line Direction',#174,1.) ;
#191=VECTOR('Line Direction',#190,1.) ;
#198=VECTOR('Line Direction',#197,1.) ;
#227=VECTOR('Line Direction',#226,1.) ;
#256=VECTOR('Line Direction',#255,1.) ;
#263=VECTOR('Line Direction',#262,1.) ;
#280=VECTOR('Line Direction',#279,1.) ;
#287=VECTOR('Line Direction',#286,1.) ;
#304=VECTOR('Line Direction',#303,1.) ;
#313=VECTOR('Line Direction',#312,1.) ;
#320=VECTOR('Line Direction',#319,1.) ;
#325=VECTOR('Line Direction',#324,1.) ;
#344=VECTOR('Line Direction',#343,1.) ;
#369=VECTOR('Line Direction',#368,1.) ;
#376=VECTOR('Line Direction',#375,1.) ;
#399=VECTOR('Line Direction',#398,1.) ;
#406=VECTOR('Line Direction',#405,1.) ;
#413=VECTOR('Line Direction',#412,1.) ;
#440=VECTOR('Line Direction',#439,1.) ;
#449=VECTOR('Line Direction',#448,1.) ;
#472=VECTOR('Line Direction',#471,1.) ;
#479=VECTOR('Line Direction',#478,1.) ;
#498=VECTOR('Line Direction',#497,1.) ;
#505=VECTOR('Line Direction',#504,1.) ;
#517=VECTOR('Line Direction',#516,1.) ;
#524=VECTOR('Line Direction',#523,1.) ;
#32=DIRECTION('Axis2P3D Direction',(0.,0.,-1.)) ;
#33=DIRECTION('Axis2P3D XDirection',(0.,1.,0.)) ;
#37=DIRECTION('Vector Direction',(1.,0.,0.)) ;
#46=DIRECTION('Vector Direction',(0.,1.,0.)) ;
#53=DIRECTION('Vector Direction',(1.,0.,0.)) ;
#60=DIRECTION('Vector Direction',(0.,1.,0.)) ;
#72=DIRECTION('Axis2P3D Direction',(0.,1.,0.)) ;
#73=DIRECTION('Axis2P3D XDirection',(0.,0.,1.)) ;
#77=DIRECTION('Vector Direction',(0.,0.,1.)) ;
#84=DIRECTION('Vector Direction',(1.,0.,0.)) ;
#91=DIRECTION('Vector Direction',(0.,0.,1.)) ;
#103=DIRECTION('Vector Direction',(0.,0.,-1.)) ;
#110=DIRECTION('Vector Direction',(1.,0.,0.)) ;
#117=DIRECTION('Vector Direction',(0.,0.,-1.)) ;
#129=DIRECTION('Axis2P3D Direction',(0.,0.,-1.)) ;
#130=DIRECTION('Axis2P3D XDirection',(0.,1.,0.)) ;
#134=DIRECTION('Vector Direction',(0.,1.,0.)) ;
#141=DIRECTION('Vector Direction',(1.,0.,0.)) ;
#148=DIRECTION('Vector Direction',(0.,1.,0.)) ;
#160=DIRECTION('Axis2P3D Direction',(0.707106781187,0.,0.707106781187)) ;
#161=DIRECTION('Axis2P3D XDirection',(0.,-1.,0.)) ;
#165=DIRECTION('Vector Direction',(0.707106781187,0.,-0.707106781187)) ;
#174=DIRECTION('Vector Direction',(0.,-1.,0.)) ;
#190=DIRECTION('Vector Direction',(0.707106781187,0.,-0.707106781187)) ;
#197=DIRECTION('Vector Direction',(0.,-1.,0.)) ;
#210=DIRECTION('Axis2P3D Direction',(1.,0.,0.)) ;
#211=DIRECTION('Axis2P3D XDirection',(-0.,-1.,-1.20980294964E-015)) ;
#226=DIRECTION('Vector Direction',(1.,0.,0.)) ;
#231=DIRECTION('Axis2P3D Direction',(1.,0.,0.)) ;
#236=DIRECTION('Axis2P3D Direction',(1.,0.,0.)) ;
#250=DIRECTION('Axis2P3D Direction',(0.,1.,0.)) ;
#251=DIRECTION('Axis2P3D XDirection',(0.,0.,1.)) ;
#255=DIRECTION('Vector Direction',(1.,0.,0.)) ;
#262=DIRECTION('Vector Direction',(-0.707106781187,0.,-0.707106781187)) ;
#274=DIRECTION('Axis2P3D Direction',(0.,0.,-1.)) ;
#275=DIRECTION('Axis2P3D XDirection',(0.,1.,0.)) ;
#279=DIRECTION('Vector Direction',(0.,-1.,0.)) ;
#286=DIRECTION('Vector Direction',(1.,0.,0.)) ;
#298=DIRECTION('Axis2P3D Direction',(0.,-1.,0.)) ;
#299=DIRECTION('Axis2P3D XDirection',(0.,0.,-1.)) ;
#303=DIRECTION('Vector Direction',(0.,0.,1.)) ;
#312=DIRECTION('Vector Direction',(1.,0.,0.)) ;
#319=DIRECTION('Vector Direction',(0.,0.,1.)) ;
#324=DIRECTION('Vector Direction',(-0.707106781187,0.,-0.707106781187)) ;
#338=DIRECTION('Axis2P3D Direction',(0.707106781187,0.,-0.707106781187)) ;
#339=DIRECTION('Axis2P3D XDirection',(0.,-1.,0.)) ;
#343=DIRECTION('Vector Direction',(0.,-1.,0.)) ;
#356=DIRECTION('Axis2P3D Direction',(1.,0.,0.)) ;
#357=DIRECTION('Axis2P3D XDirection',(0.,1.,0.)) ;
#361=DIRECTION('Axis2P3D Direction',(1.,0.,0.)) ;
#368=DIRECTION('Vector Direction',(0.,0.,-1.)) ;
#375=DIRECTION('Vector Direction',(0.,-1.,0.)) ;
#393=DIRECTION('Axis2P3D Direction',(-0.707106781187,0.,0.707106781187)) ;
#394=DIRECTION('Axis2P3D XDirection',(0.,-1.,0.)) ;
#398=DIRECTION('Vector Direction',(0.707106781187,0.,0.707106781187)) ;
#405=DIRECTION('Vector Direction',(0.,-1.,0.)) ;
#412=DIRECTION('Vector Direction',(0.707106781187,0.,0.707106781187)) ;
#434=DIRECTION('Axis2P3D Direction',(1.,0.,0.)) ;
#435=DIRECTION('Axis2P3D XDirection',(0.,1.,0.)) ;
#439=DIRECTION('Vector Direction',(0.,-1.,0.)) ;
#448=DIRECTION('Vector Direction',(0.,0.,-1.)) ;
#453=DIRECTION('Axis2P3D Direction',(1.,0.,0.)) ;
#471=DIRECTION('Vector Direction',(1.,0.,0.)) ;
#478=DIRECTION('Vector Direction',(-0.707106781187,0.,0.707106781187)) ;
#492=DIRECTION('Axis2P3D Direction',(0.,0.,-1.)) ;
#493=DIRECTION('Axis2P3D XDirection',(0.,1.,0.)) ;
#497=DIRECTION('Vector Direction',(1.,0.,0.)) ;
#504=DIRECTION('Vector Direction',(0.,-1.,0.)) ;
#516=DIRECTION('Vector Direction',(1.,0.,0.)) ;
#523=DIRECTION('Vector Direction',(-0.707106781187,0.,0.707106781187)) ;
#535=DIRECTION('Axis2P3D Direction',(1.,0.,0.)) ;
#536=DIRECTION('Axis2P3D XDirection',(0.,6.12323399574E-017,1.)) ;
#556=DIRECTION('Axis2P3D Direction',(-0.707106781187,-0.,-0.707106781187)) ;
#557=DIRECTION('Axis2P3D XDirection',(0.,-1.,0.)) ;
#15=UNCERTAINTY_MEASURE_WITH_UNIT(LENGTH_MEASURE(0.005),#12,'distance_accuracy_value','CONFUSED CURVE UNCERTAINTY') ;
#18=AXIS2_PLACEMENT_3D(' ',#17,$,$) ;
#34=AXIS2_PLACEMENT_3D('Plane Axis2P3D',#31,#32,#33) ;
#74=AXIS2_PLACEMENT_3D('Plane Axis2P3D',#71,#72,#73) ;
#131=AXIS2_PLACEMENT_3D('Plane Axis2P3D',#128,#129,#130) ;
#162=AXIS2_PLACEMENT_3D('Plane Axis2P3D',#159,#160,#161) ;
#212=AXIS2_PLACEMENT_3D('Cylinder Axis2P3D',#209,#210,#211) ;
#232=AXIS2_PLACEMENT_3D('Circle Axis2P3D',#230,#231,$) ;
#237=AXIS2_PLACEMENT_3D('Circle Axis2P3D',#235,#236,$) ;
#252=AXIS2_PLACEMENT_3D('Plane Axis2P3D',#249,#250,#251) ;
#276=AXIS2_PLACEMENT_3D('Plane Axis2P3D',#273,#274,#275) ;
#300=AXIS2_PLACEMENT_3D('Plane Axis2P3D',#297,#298,#299) ;
#340=AXIS2_PLACEMENT_3D('Plane Axis2P3D',#337,#338,#339) ;
#358=AXIS2_PLACEMENT_3D('Plane Axis2P3D',#355,#356,#357) ;
#362=AXIS2_PLACEMENT_3D('Circle Axis2P3D',#360,#361,$) ;
#395=AXIS2_PLACEMENT_3D('Plane Axis2P3D',#392,#393,#394) ;
#436=AXIS2_PLACEMENT_3D('Plane Axis2P3D',#433,#434,#435) ;
#454=AXIS2_PLACEMENT_3D('Circle Axis2P3D',#452,#453,$) ;
#494=AXIS2_PLACEMENT_3D('Plane Axis2P3D',#491,#492,#493) ;
#537=AXIS2_PLACEMENT_3D('Cylinder Axis2P3D',#534,#535,#536) ;
#558=AXIS2_PLACEMENT_3D('Plane Axis2P3D',#555,#556,#557) ;
#39=LINE('Line',#36,#38) ;
#48=LINE('Line',#45,#47) ;
#55=LINE('Line',#52,#54) ;
#62=LINE('Line',#59,#61) ;
#79=LINE('Line',#76,#78) ;
#86=LINE('Line',#83,#85) ;
#93=LINE('Line',#90,#92) ;
#105=LINE('Line',#102,#104) ;
#112=LINE('Line',#109,#111) ;
#119=LINE('Line',#116,#118) ;
#136=LINE('Line',#133,#135) ;
#143=LINE('Line',#140,#142) ;
#150=LINE('Line',#147,#149) ;
#167=LINE('Line',#164,#166) ;
#176=LINE('Line',#173,#175) ;
#192=LINE('Line',#189,#191) ;
#199=LINE('Line',#196,#198) ;
#228=LINE('Line',#225,#227) ;
#257=LINE('Line',#254,#256) ;
#264=LINE('Line',#261,#263) ;
#281=LINE('Line',#278,#280) ;
#288=LINE('Line',#285,#287) ;
#305=LINE('Line',#302,#304) ;
#314=LINE('Line',#311,#313) ;
#321=LINE('Line',#318,#320) ;
#326=LINE('Line',#323,#325) ;
#345=LINE('Line',#342,#344) ;
#370=LINE('Line',#367,#369) ;
#377=LINE('Line',#374,#376) ;
#400=LINE('Line',#397,#399) ;
#407=LINE('Line',#404,#406) ;
#414=LINE('Line',#411,#413) ;
#441=LINE('Line',#438,#440) ;
#450=LINE('Line',#447,#449) ;
#473=LINE('Line',#470,#472) ;
#480=LINE('Line',#477,#479) ;
#499=LINE('Line',#496,#498) ;
#506=LINE('Line',#503,#505) ;
#518=LINE('Line',#515,#517) ;
#525=LINE('Line',#522,#524) ;
#233=CIRCLE('generated circle',#232,5.) ;
#238=CIRCLE('generated circle',#237,5.) ;
#363=CIRCLE('generated circle',#362,5.) ;
#455=CIRCLE('generated circle',#454,5.) ;
#35=PLANE('',#34) ;
#75=PLANE('',#74) ;
#132=PLANE('',#131) ;
#163=PLANE('',#162) ;
#253=PLANE('',#252) ;
#277=PLANE('',#276) ;
#301=PLANE('',#300) ;
#341=PLANE('',#340) ;
#359=PLANE('',#358) ;
#396=PLANE('',#395) ;
#437=PLANE('',#436) ;
#495=PLANE('',#494) ;
#559=PLANE('',#558) ;
#213=CYLINDRICAL_SURFACE('generated cylinder',#212,5.) ;
#538=CYLINDRICAL_SURFACE('generated cylinder',#537,5.) ;
#44=EDGE_CURVE('',#41,#43,#39,.T.) ;
#51=EDGE_CURVE('',#41,#50,#48,.T.) ;
#58=EDGE_CURVE('',#50,#57,#55,.T.) ;
#63=EDGE_CURVE('',#43,#57,#62,.T.) ;
#82=EDGE_CURVE('',#50,#81,#79,.T.) ;
#89=EDGE_CURVE('',#81,#88,#86,.T.) ;
#94=EDGE_CURVE('',#57,#88,#93,.T.) ;
#108=EDGE_CURVE('',#81,#107,#105,.F.) ;
#115=EDGE_CURVE('',#107,#114,#112,.T.) ;
#120=EDGE_CURVE('',#88,#114,#119,.F.) ;
#139=EDGE_CURVE('',#107,#138,#136,.F.) ;
#146=EDGE_CURVE('',#138,#145,#143,.T.) ;
#151=EDGE_CURVE('',#114,#145,#150,.F.) ;
#172=EDGE_CURVE('',#169,#171,#167,.T.) ;
#179=EDGE_CURVE('',#178,#171,#176,.T.) ;
#188=EDGE_CURVE('',#178,#187,#180,.F.) ;
#195=EDGE_CURVE('',#187,#194,#192,.F.) ;
#200=EDGE_CURVE('',#194,#169,#199,.T.) ;
#224=EDGE_CURVE('',#221,#223,#214,.T.) ;
#229=EDGE_CURVE('',#221,#187,#228,.T.) ;
#234=EDGE_CURVE('',#145,#178,#233,.F.) ;
#239=EDGE_CURVE('',#138,#223,#238,.F.) ;
#260=EDGE_CURVE('',#259,#194,#257,.T.) ;
#265=EDGE_CURVE('',#259,#221,#264,.T.) ;
#284=EDGE_CURVE('',#259,#283,#281,.T.) ;
#289=EDGE_CURVE('',#283,#169,#288,.T.) ;
#310=EDGE_CURVE('',#307,#309,#305,.F.) ;
#317=EDGE_CURVE('',#309,#316,#314,.T.) ;
#322=EDGE_CURVE('',#171,#316,#321,.F.) ;
#327=EDGE_CURVE('',#307,#283,#326,.F.) ;
#346=EDGE_CURVE('',#223,#307,#345,.T.) ;
#366=EDGE_CURVE('',#365,#43,#363,.F.) ;
#373=EDGE_CURVE('',#316,#372,#370,.T.) ;
#378=EDGE_CURVE('',#372,#365,#377,.F.) ;
#403=EDGE_CURVE('',#372,#402,#400,.F.) ;
#410=EDGE_CURVE('',#402,#409,#407,.F.) ;
#417=EDGE_CURVE('',#409,#416,#414,.T.) ;
#424=EDGE_CURVE('',#416,#365,#418,.T.) ;
#446=EDGE_CURVE('',#443,#445,#441,.F.) ;
#451=EDGE_CURVE('',#309,#443,#450,.T.) ;
#456=EDGE_CURVE('',#445,#41,#455,.F.) ;
#476=EDGE_CURVE('',#475,#402,#473,.T.) ;
#481=EDGE_CURVE('',#475,#443,#480,.T.) ;
#502=EDGE_CURVE('',#501,#409,#499,.T.) ;
#507=EDGE_CURVE('',#475,#501,#506,.F.) ;
#521=EDGE_CURVE('',#520,#416,#518,.T.) ;
#526=EDGE_CURVE('',#520,#501,#525,.F.) ;
#545=EDGE_CURVE('',#445,#520,#539,.F.) ;
#30=CLOSED_SHELL('Closed Shell',(#70,#101,#127,#158,#208,#248,#272,#296,#336,#354,#391,#432,#469,#490,#514,#533,#554,#567)) ;
#569=SHAPE_REPRESENTATION_RELATIONSHIP(' ',' ',#19,#568) ;
#64=EDGE_LOOP('',(#65,#66,#67,#68)) ;
#95=EDGE_LOOP('',(#96,#97,#98,#99)) ;
#121=EDGE_LOOP('',(#122,#123,#124,#125)) ;
#152=EDGE_LOOP('',(#153,#154,#155,#156)) ;
#201=EDGE_LOOP('',(#202,#203,#204,#205,#206)) ;
#240=EDGE_LOOP('',(#241,#242,#243,#244,#245,#246)) ;
#266=EDGE_LOOP('',(#267,#268,#269,#270)) ;
#290=EDGE_LOOP('',(#291,#292,#293,#294)) ;
#328=EDGE_LOOP('',(#329,#330,#331,#332,#333,#334)) ;
#347=EDGE_LOOP('',(#348,#349,#350,#351,#352)) ;
#379=EDGE_LOOP('',(#380,#381,#382,#383,#384,#385,#386,#387,#388,#389)) ;
#425=EDGE_LOOP('',(#426,#427,#428,#429,#430)) ;
#457=EDGE_LOOP('',(#458,#459,#460,#461,#462,#463,#464,#465,#466,#467)) ;
#482=EDGE_LOOP('',(#483,#484,#485,#486,#487,#488)) ;
#508=EDGE_LOOP('',(#509,#510,#511,#512)) ;
#527=EDGE_LOOP('',(#528,#529,#530,#531)) ;
#546=EDGE_LOOP('',(#547,#548,#549,#550,#551,#552)) ;
#560=EDGE_LOOP('',(#561,#562,#563,#564,#565)) ;
#65=ORIENTED_EDGE('',*,*,#44,.F.) ;
#66=ORIENTED_EDGE('',*,*,#51,.T.) ;
#67=ORIENTED_EDGE('',*,*,#58,.T.) ;
#68=ORIENTED_EDGE('',*,*,#63,.F.) ;
#96=ORIENTED_EDGE('',*,*,#58,.F.) ;
#97=ORIENTED_EDGE('',*,*,#82,.T.) ;
#98=ORIENTED_EDGE('',*,*,#89,.T.) ;
#99=ORIENTED_EDGE('',*,*,#94,.F.) ;
#122=ORIENTED_EDGE('',*,*,#89,.F.) ;
#123=ORIENTED_EDGE('',*,*,#108,.T.) ;
#124=ORIENTED_EDGE('',*,*,#115,.T.) ;
#125=ORIENTED_EDGE('',*,*,#120,.F.) ;
#153=ORIENTED_EDGE('',*,*,#115,.F.) ;
#154=ORIENTED_EDGE('',*,*,#139,.T.) ;
#155=ORIENTED_EDGE('',*,*,#146,.T.) ;
#156=ORIENTED_EDGE('',*,*,#151,.F.) ;
#202=ORIENTED_EDGE('',*,*,#172,.T.) ;
#203=ORIENTED_EDGE('',*,*,#179,.F.) ;
#204=ORIENTED_EDGE('',*,*,#188,.T.) ;
#205=ORIENTED_EDGE('',*,*,#195,.T.) ;
#206=ORIENTED_EDGE('',*,*,#200,.T.) ;
#241=ORIENTED_EDGE('',*,*,#224,.F.) ;
#242=ORIENTED_EDGE('',*,*,#229,.T.) ;
#243=ORIENTED_EDGE('',*,*,#188,.F.) ;
#244=ORIENTED_EDGE('',*,*,#234,.F.) ;
#245=ORIENTED_EDGE('',*,*,#146,.F.) ;
#246=ORIENTED_EDGE('',*,*,#239,.T.) ;
#267=ORIENTED_EDGE('',*,*,#260,.T.) ;
#268=ORIENTED_EDGE('',*,*,#195,.F.) ;
#269=ORIENTED_EDGE('',*,*,#229,.F.) ;
#270=ORIENTED_EDGE('',*,*,#265,.F.) ;
#291=ORIENTED_EDGE('',*,*,#284,.T.) ;
#292=ORIENTED_EDGE('',*,*,#289,.T.) ;
#293=ORIENTED_EDGE('',*,*,#200,.F.) ;
#294=ORIENTED_EDGE('',*,*,#260,.F.) ;
#329=ORIENTED_EDGE('',*,*,#310,.T.) ;
#330=ORIENTED_EDGE('',*,*,#317,.T.) ;
#331=ORIENTED_EDGE('',*,*,#322,.F.) ;
#332=ORIENTED_EDGE('',*,*,#172,.F.) ;
#333=ORIENTED_EDGE('',*,*,#289,.F.) ;
#334=ORIENTED_EDGE('',*,*,#327,.F.) ;
#348=ORIENTED_EDGE('',*,*,#284,.F.) ;
#349=ORIENTED_EDGE('',*,*,#265,.T.) ;
#350=ORIENTED_EDGE('',*,*,#224,.T.) ;
#351=ORIENTED_EDGE('',*,*,#346,.T.) ;
#352=ORIENTED_EDGE('',*,*,#327,.T.) ;
#380=ORIENTED_EDGE('',*,*,#366,.T.) ;
#381=ORIENTED_EDGE('',*,*,#63,.T.) ;
#382=ORIENTED_EDGE('',*,*,#94,.T.) ;
#383=ORIENTED_EDGE('',*,*,#120,.T.) ;
#384=ORIENTED_EDGE('',*,*,#151,.T.) ;
#385=ORIENTED_EDGE('',*,*,#234,.T.) ;
#386=ORIENTED_EDGE('',*,*,#179,.T.) ;
#387=ORIENTED_EDGE('',*,*,#322,.T.) ;
#388=ORIENTED_EDGE('',*,*,#373,.T.) ;
#389=ORIENTED_EDGE('',*,*,#378,.T.) ;
#426=ORIENTED_EDGE('',*,*,#378,.F.) ;
#427=ORIENTED_EDGE('',*,*,#403,.T.) ;
#428=ORIENTED_EDGE('',*,*,#410,.T.) ;
#429=ORIENTED_EDGE('',*,*,#417,.T.) ;
#430=ORIENTED_EDGE('',*,*,#424,.T.) ;
#458=ORIENTED_EDGE('',*,*,#446,.F.) ;
#459=ORIENTED_EDGE('',*,*,#451,.F.) ;
#460=ORIENTED_EDGE('',*,*,#310,.F.) ;
#461=ORIENTED_EDGE('',*,*,#346,.F.) ;
#462=ORIENTED_EDGE('',*,*,#239,.F.) ;
#463=ORIENTED_EDGE('',*,*,#139,.F.) ;
#464=ORIENTED_EDGE('',*,*,#108,.F.) ;
#465=ORIENTED_EDGE('',*,*,#82,.F.) ;
#466=ORIENTED_EDGE('',*,*,#51,.F.) ;
#467=ORIENTED_EDGE('',*,*,#456,.F.) ;
#483=ORIENTED_EDGE('',*,*,#476,.T.) ;
#484=ORIENTED_EDGE('',*,*,#403,.F.) ;
#485=ORIENTED_EDGE('',*,*,#373,.F.) ;
#486=ORIENTED_EDGE('',*,*,#317,.F.) ;
#487=ORIENTED_EDGE('',*,*,#451,.T.) ;
#488=ORIENTED_EDGE('',*,*,#481,.F.) ;
#509=ORIENTED_EDGE('',*,*,#502,.T.) ;
#510=ORIENTED_EDGE('',*,*,#410,.F.) ;
#511=ORIENTED_EDGE('',*,*,#476,.F.) ;
#512=ORIENTED_EDGE('',*,*,#507,.T.) ;
#528=ORIENTED_EDGE('',*,*,#521,.T.) ;
#529=ORIENTED_EDGE('',*,*,#417,.F.) ;
#530=ORIENTED_EDGE('',*,*,#502,.F.) ;
#531=ORIENTED_EDGE('',*,*,#526,.F.) ;
#547=ORIENTED_EDGE('',*,*,#545,.F.) ;
#548=ORIENTED_EDGE('',*,*,#456,.T.) ;
#549=ORIENTED_EDGE('',*,*,#44,.T.) ;
#550=ORIENTED_EDGE('',*,*,#366,.F.) ;
#551=ORIENTED_EDGE('',*,*,#424,.F.) ;
#552=ORIENTED_EDGE('',*,*,#521,.F.) ;
#561=ORIENTED_EDGE('',*,*,#545,.T.) ;
#562=ORIENTED_EDGE('',*,*,#526,.T.) ;
#563=ORIENTED_EDGE('',*,*,#507,.F.) ;
#564=ORIENTED_EDGE('',*,*,#481,.T.) ;
#565=ORIENTED_EDGE('',*,*,#446,.T.) ;
#21=MANIFOLD_SOLID_BREP('217565 Support moteur superieur',#30) ;
#41=VERTEX_POINT('',#40) ;
#43=VERTEX_POINT('',#42) ;
#50=VERTEX_POINT('',#49) ;
#57=VERTEX_POINT('',#56) ;
#81=VERTEX_POINT('',#80) ;
#88=VERTEX_POINT('',#87) ;
#107=VERTEX_POINT('',#106) ;
#114=VERTEX_POINT('',#113) ;
#138=VERTEX_POINT('',#137) ;
#145=VERTEX_POINT('',#144) ;
#169=VERTEX_POINT('',#168) ;
#171=VERTEX_POINT('',#170) ;
#178=VERTEX_POINT('',#177) ;
#187=VERTEX_POINT('',#186) ;
#194=VERTEX_POINT('',#193) ;
#221=VERTEX_POINT('',#220) ;
#223=VERTEX_POINT('',#222) ;
#259=VERTEX_POINT('',#258) ;
#283=VERTEX_POINT('',#282) ;
#307=VERTEX_POINT('',#306) ;
#309=VERTEX_POINT('',#308) ;
#316=VERTEX_POINT('',#315) ;
#365=VERTEX_POINT('',#364) ;
#372=VERTEX_POINT('',#371) ;
#402=VERTEX_POINT('',#401) ;
#409=VERTEX_POINT('',#408) ;
#416=VERTEX_POINT('',#415) ;
#443=VERTEX_POINT('',#442) ;
#445=VERTEX_POINT('',#444) ;
#475=VERTEX_POINT('',#474) ;
#501=VERTEX_POINT('',#500) ;
#520=VERTEX_POINT('',#519) ;
#568=ADVANCED_BREP_SHAPE_REPRESENTATION('NONE',(#21),#16) ;
#70=ADVANCED_FACE('217565 Support moteur superieur',(#69),#35,.T.) ;
#101=ADVANCED_FACE('217565 Support moteur superieur',(#100),#75,.T.) ;
#127=ADVANCED_FACE('217565 Support moteur superieur',(#126),#75,.T.) ;
#158=ADVANCED_FACE('217565 Support moteur superieur',(#157),#132,.F.) ;
#208=ADVANCED_FACE('217565 Support moteur superieur',(#207),#163,.T.) ;
#248=ADVANCED_FACE('217565 Support moteur superieur',(#247),#213,.F.) ;
#272=ADVANCED_FACE('217565 Support moteur superieur',(#271),#253,.T.) ;
#296=ADVANCED_FACE('217565 Support moteur superieur',(#295),#277,.F.) ;
#336=ADVANCED_FACE('217565 Support moteur superieur',(#335),#301,.T.) ;
#354=ADVANCED_FACE('217565 Support moteur superieur',(#353),#341,.F.) ;
#391=ADVANCED_FACE('217565 Support moteur superieur',(#390),#359,.T.) ;
#432=ADVANCED_FACE('217565 Support moteur superieur',(#431),#396,.F.) ;
#469=ADVANCED_FACE('217565 Support moteur superieur',(#468),#437,.F.) ;
#490=ADVANCED_FACE('217565 Support moteur superieur',(#489),#301,.T.) ;
#514=ADVANCED_FACE('217565 Support moteur superieur',(#513),#495,.T.) ;
#533=ADVANCED_FACE('217565 Support moteur superieur',(#532),#253,.T.) ;
#554=ADVANCED_FACE('217565 Support moteur superieur',(#553),#538,.F.) ;
#567=ADVANCED_FACE('217565 Support moteur superieur',(#566),#559,.T.) ;
#4=APPLICATION_PROTOCOL_DEFINITION('international standard','ap242_managed_model_based_3d_engineering',2014,#1) ;
#180=B_SPLINE_CURVE_WITH_KNOTS('',4,(#181,#182,#183,#184,#185),.UNSPECIFIED.,.F.,.U.,(5,5),(0.,5.12027438446),.UNSPECIFIED.) ;
#214=B_SPLINE_CURVE_WITH_KNOTS('',4,(#215,#216,#217,#218,#219),.UNSPECIFIED.,.F.,.U.,(5,5),(0.,5.12027438446),.UNSPECIFIED.) ;
#418=B_SPLINE_CURVE_WITH_KNOTS('',4,(#419,#420,#421,#422,#423),.UNSPECIFIED.,.F.,.U.,(5,5),(0.,5.12027438442),.UNSPECIFIED.) ;
#539=B_SPLINE_CURVE_WITH_KNOTS('',4,(#540,#541,#542,#543,#544),.UNSPECIFIED.,.F.,.U.,(5,5),(0.,5.12027438442),.UNSPECIFIED.) ;
#22=COLOUR_RGB('Colour',0.949019607843,0.635294117647,0.341176470588) ;
#69=FACE_OUTER_BOUND('',#64,.T.) ;
#100=FACE_OUTER_BOUND('',#95,.T.) ;
#126=FACE_OUTER_BOUND('',#121,.T.) ;
#157=FACE_OUTER_BOUND('',#152,.T.) ;
#207=FACE_OUTER_BOUND('',#201,.T.) ;
#247=FACE_OUTER_BOUND('',#240,.T.) ;
#271=FACE_OUTER_BOUND('',#266,.T.) ;
#295=FACE_OUTER_BOUND('',#290,.T.) ;
#335=FACE_OUTER_BOUND('',#328,.T.) ;
#353=FACE_OUTER_BOUND('',#347,.T.) ;
#390=FACE_OUTER_BOUND('',#379,.T.) ;
#431=FACE_OUTER_BOUND('',#425,.T.) ;
#468=FACE_OUTER_BOUND('',#457,.T.) ;
#489=FACE_OUTER_BOUND('',#482,.T.) ;
#513=FACE_OUTER_BOUND('',#508,.T.) ;
#532=FACE_OUTER_BOUND('',#527,.T.) ;
#553=FACE_OUTER_BOUND('',#546,.T.) ;
#566=FACE_OUTER_BOUND('',#560,.T.) ;
#9=PRODUCT_CATEGORY_RELATIONSHIP(' ',' ',#7,#8) ;
#6=PRODUCT_DEFINITION_FORMATION_WITH_SPECIFIED_SOURCE('--A',' ',#5,.NOT_KNOWN.) ;
#20=SHAPE_DEFINITION_REPRESENTATION(#11,#19) ;
#12=(LENGTH_UNIT()NAMED_UNIT(*)SI_UNIT(.MILLI.,.METRE.)) ;
#13=(NAMED_UNIT(*)PLANE_ANGLE_UNIT()SI_UNIT($,.RADIAN.)) ;
#14=(NAMED_UNIT(*)SI_UNIT($,.STERADIAN.)SOLID_ANGLE_UNIT()) ;
#16=(GEOMETRIC_REPRESENTATION_CONTEXT(3)GLOBAL_UNCERTAINTY_ASSIGNED_CONTEXT((#15))GLOBAL_UNIT_ASSIGNED_CONTEXT((#12,#13,#14))REPRESENTATION_CONTEXT(' ',' ')) ;
ENDSEC;
END-ISO-10303-21;
