ISO-10303-21;
HEADER;
FILE_DESCRIPTION(('CATIA V5 STEP Exchange','CAx-IF Rec.Pracs.--- Model Styling and Organization---1.4--- 2014-01-23','CAx-IF Rec.Pracs.---Representation and Presentation of Product Manufacturing Information (PMI)---4.0---2014-10-13','CAx-IF Rec.Pracs.---3D Tessellated Data Validation Properties---0.5---2014-09-14'),'2;1');

FILE_NAME('V:\\catia\\priv\\e_dmacia\\Laura\\step au 14-12-2023\\M3D-217578_--A_CATPART_1.stp','2023-12-14T15:19:48+00:00',('none'),('none'),'CATIA Version 5-6 Release 2016 SP5 HF64','CATIA V5 STEP AP242','none');

FILE_SCHEMA(('AP242_MANAGED_MODEL_BASED_3D_ENGINEERING_MIM_LF  {1 0 10303 442 1 1 4}'));

ENDSEC;
DATA;
#5=PRODUCT('M3D-217578','','SUPPORT COLLECTOR',(#2)) ;
#2=PRODUCT_CONTEXT(' ',#1,'mechanical') ;
#1=APPLICATION_CONTEXT('managed model based 3d engineering') ;
#10=PRODUCT_DEFINITION('MASTER',' ',#6,#3) ;
#3=PRODUCT_DEFINITION_CONTEXT('part definition',#1,' ') ;
#11=PRODUCT_DEFINITION_SHAPE(' ',' ',#10) ;
#1547=MECHANICAL_DESIGN_GEOMETRIC_PRESENTATION_REPRESENTATION(' ',(#70,#82,#114,#127,#925,#938,#970,#983,#1015,#1028,#1060,#1073,#1106,#1118,#1150,#1163,#1186,#1206,#1230,#1250,#1268,#1288,#1308,#1356,#1418,#1431,#1474,#1531,#1544,#29),#16) ;
#19=SHAPE_REPRESENTATION(' ',(#18),#16) ;
#7=PRODUCT_CATEGORY('part','specification') ;
#17=CARTESIAN_POINT(' ',(0.,0.,0.)) ;
#31=CARTESIAN_POINT('Axis2P3D Location',(30.,1132.66173141,434.)) ;
#36=CARTESIAN_POINT('Line Origine',(28.2228953122,1133.8308657,433.029163284)) ;
#40=CARTESIAN_POINT('Vertex',(30.,1132.66173141,434.)) ;
#42=CARTESIAN_POINT('Vertex',(26.4457906243,1135.,432.058326569)) ;
#45=CARTESIAN_POINT('Axis2P3D Location',(30.,1135.,434.)) ;
#49=CARTESIAN_POINT('Vertex',(33.5542093757,1135.,435.941673431)) ;
#52=CARTESIAN_POINT('Line Origine',(31.7771046878,1133.8308657,434.970836716)) ;
#71=CARTESIAN_POINT('Axis2P3D Location',(30.,1135.,434.)) ;
#83=CARTESIAN_POINT('Axis2P3D Location',(30.,1149.9,434.)) ;
#88=CARTESIAN_POINT('Axis2P3D Location',(30.,1145.,434.)) ;
#92=CARTESIAN_POINT('Vertex',(33.5542093757,1145.,435.941673431)) ;
#94=CARTESIAN_POINT('Vertex',(26.4457906243,1145.,432.058326569)) ;
#97=CARTESIAN_POINT('Line Origine',(33.5542093757,1142.65500001,435.941673431)) ;
#102=CARTESIAN_POINT('Line Origine',(26.4457906243,1142.65500001,432.058326569)) ;
#115=CARTESIAN_POINT('Axis2P3D Location',(30.,1145.,434.)) ;
#128=CARTESIAN_POINT('Axis2P3D Location',(0.,1120.,0.)) ;
#133=CARTESIAN_POINT('Line Origine',(50.,1120.,435.)) ;
#137=CARTESIAN_POINT('Vertex',(50.,1120.,490.)) ;
#139=CARTESIAN_POINT('Vertex',(50.,1120.,380.)) ;
#142=CARTESIAN_POINT('Axis2P3D Location',(30.,1120.,490.)) ;
#146=CARTESIAN_POINT('Vertex',(12.6794919243,1120.,500.)) ;
#149=CARTESIAN_POINT('Line Origine',(9.50406544377,1120.,494.5)) ;
#153=CARTESIAN_POINT('Vertex',(6.32863896323,1120.,489.)) ;
#156=CARTESIAN_POINT('Axis2P3D Location',(-45.6328852638,1120.,519.)) ;
#160=CARTESIAN_POINT('Vertex',(-45.6328852638,1120.,459.)) ;
#163=CARTESIAN_POINT('Line Origine',(-75.3164426319,1120.,459.)) ;
#167=CARTESIAN_POINT('Vertex',(-105.,1120.,459.)) ;
#170=CARTESIAN_POINT('Line Origine',(-134.683557368,1120.,459.)) ;
#174=CARTESIAN_POINT('Vertex',(-164.367114736,1120.,459.)) ;
#177=CARTESIAN_POINT('Axis2P3D Location',(-164.367114736,1120.,519.)) ;
#181=CARTESIAN_POINT('Vertex',(-216.328638963,1120.,489.)) ;
#184=CARTESIAN_POINT('Line Origine',(-219.504065444,1120.,494.5)) ;
#188=CARTESIAN_POINT('Vertex',(-222.679491924,1120.,500.)) ;
#191=CARTESIAN_POINT('Axis2P3D Location',(-240.,1120.,490.)) ;
#195=CARTESIAN_POINT('Vertex',(-260.,1120.,490.)) ;
#198=CARTESIAN_POINT('Line Origine',(-260.,1120.,435.)) ;
#202=CARTESIAN_POINT('Vertex',(-260.,1120.,380.)) ;
#205=CARTESIAN_POINT('Axis2P3D Location',(-240.,1120.,380.)) ;
#209=CARTESIAN_POINT('Vertex',(-222.679491924,1120.,370.)) ;
#212=CARTESIAN_POINT('Line Origine',(-220.081415713,1120.,374.5)) ;
#216=CARTESIAN_POINT('Vertex',(-217.483339502,1120.,379.)) ;
#219=CARTESIAN_POINT('Axis2P3D Location',(-165.521815275,1120.,349.)) ;
#223=CARTESIAN_POINT('Vertex',(-165.521815275,1120.,409.)) ;
#226=CARTESIAN_POINT('Line Origine',(-135.260907637,1120.,409.)) ;
#230=CARTESIAN_POINT('Vertex',(-105.,1120.,409.)) ;
#233=CARTESIAN_POINT('Line Origine',(-74.7390923627,1120.,409.)) ;
#237=CARTESIAN_POINT('Vertex',(-44.4781847255,1120.,409.)) ;
#240=CARTESIAN_POINT('Axis2P3D Location',(-44.4781847255,1120.,349.)) ;
#244=CARTESIAN_POINT('Vertex',(7.4833395016,1120.,379.)) ;
#247=CARTESIAN_POINT('Line Origine',(10.081415713,1120.,374.5)) ;
#251=CARTESIAN_POINT('Vertex',(12.6794919243,1120.,370.)) ;
#254=CARTESIAN_POINT('Axis2P3D Location',(30.,1120.,380.)) ;
#279=CARTESIAN_POINT('Axis2P3D Location',(30.,1120.,380.)) ;
#283=CARTESIAN_POINT('Vertex',(35.19309481,1120.,382.837000625)) ;
#285=CARTESIAN_POINT('Vertex',(24.80690519,1120.,377.162999375)) ;
#288=CARTESIAN_POINT('Axis2P3D Location',(30.,1120.,380.)) ;
#297=CARTESIAN_POINT('Axis2P3D Location',(30.,1120.,485.)) ;
#301=CARTESIAN_POINT('Vertex',(24.80690519,1120.,482.162999375)) ;
#303=CARTESIAN_POINT('Vertex',(35.19309481,1120.,487.837000625)) ;
#306=CARTESIAN_POINT('Axis2P3D Location',(30.,1120.,485.)) ;
#315=CARTESIAN_POINT('Axis2P3D Location',(-240.,1120.,380.)) ;
#319=CARTESIAN_POINT('Vertex',(-245.19309481,1120.,377.162999375)) ;
#321=CARTESIAN_POINT('Vertex',(-234.80690519,1120.,382.837000625)) ;
#324=CARTESIAN_POINT('Axis2P3D Location',(-240.,1120.,380.)) ;
#333=CARTESIAN_POINT('Axis2P3D Location',(-240.,1120.,485.)) ;
#337=CARTESIAN_POINT('Vertex',(-245.19309481,1120.,482.162999375)) ;
#339=CARTESIAN_POINT('Vertex',(-234.80690519,1120.,487.837000625)) ;
#342=CARTESIAN_POINT('Axis2P3D Location',(-240.,1120.,485.)) ;
#352=CARTESIAN_POINT('Axis2P3D Location',(30.,1135.,380.)) ;
#357=CARTESIAN_POINT('Line Origine',(50.,1135.,380.)) ;
#361=CARTESIAN_POINT('Vertex',(50.,1145.,380.)) ;
#364=CARTESIAN_POINT('Line Origine',(12.6794919243,1135.,370.)) ;
#368=CARTESIAN_POINT('Vertex',(12.6794919243,1145.,370.)) ;
#371=CARTESIAN_POINT('Axis2P3D Location',(30.,1145.,380.)) ;
#383=CARTESIAN_POINT('Axis2P3D Location',(7.4833395016,0.,379.)) ;
#389=CARTESIAN_POINT('Control Point',(10.,1143.,374.641016151)) ;
#390=CARTESIAN_POINT('Control Point',(10.,1142.67934125,374.641016151)) ;
#391=CARTESIAN_POINT('Control Point',(9.98714724591,1142.35868269,374.663277774)) ;
#392=CARTESIAN_POINT('Control Point',(9.96143986183,1142.04091436,374.70780427)) ;
#393=CARTESIAN_POINT('Control Point',(9.87530028796,1141.32865988,374.857002388)) ;
#394=CARTESIAN_POINT('Control Point',(9.73205791334,1140.65288354,375.105105459)) ;
#395=CARTESIAN_POINT('Control Point',(9.63587843877,1140.28824658,375.271693196)) ;
#396=CARTESIAN_POINT('Control Point',(9.3251795488,1139.29556524,375.809839459)) ;
#397=CARTESIAN_POINT('Control Point',(8.92576304003,1138.43088364,376.501649145)) ;
#398=CARTESIAN_POINT('Control Point',(8.64153190717,1137.92122919,376.993951909)) ;
#399=CARTESIAN_POINT('Control Point',(8.23923084408,1137.30211622,377.69075779)) ;
#400=CARTESIAN_POINT('Control Point',(7.81284054074,1136.75462458,378.429287459)) ;
#401=CARTESIAN_POINT('Control Point',(7.70414049688,1136.62115091,378.617561458)) ;
#402=CARTESIAN_POINT('Control Point',(7.59430417294,1136.49196429,378.807803551)) ;
#403=CARTESIAN_POINT('Control Point',(7.4833395016,1136.36677832,379.)) ;
#404=CARTESIAN_POINT('Vertex',(10.,1143.,374.641016151)) ;
#406=CARTESIAN_POINT('Vertex',(7.4833395016,1136.36677832,379.)) ;
#409=CARTESIAN_POINT('Line Origine',(10.,1144.,374.641016151)) ;
#413=CARTESIAN_POINT('Vertex',(10.,1145.,374.641016151)) ;
#416=CARTESIAN_POINT('Line Origine',(11.3397459622,1145.,372.320508076)) ;
#421=CARTESIAN_POINT('Line Origine',(7.4833395016,1128.18338916,379.)) ;
#435=CARTESIAN_POINT('Axis2P3D Location',(-44.4781847255,1135.,349.)) ;
#440=CARTESIAN_POINT('Axis2P3D Location',(-44.4781847255,1133.,349.)) ;
#444=CARTESIAN_POINT('Vertex',(1.42108547152E-013,1133.,389.27022577)) ;
#446=CARTESIAN_POINT('Vertex',(-44.4781847255,1133.,409.)) ;
#450=CARTESIAN_POINT('Control Point',(7.4833395016,1136.36677832,379.)) ;
#451=CARTESIAN_POINT('Control Point',(6.32445230631,1135.05936742,381.007251502)) ;
#452=CARTESIAN_POINT('Control Point',(4.96998609517,1134.10277147,383.127247412)) ;
#453=CARTESIAN_POINT('Control Point',(3.46293549784,1133.39722108,385.223744906)) ;
#454=CARTESIAN_POINT('Control Point',(1.78604509441,1133.,387.297551365)) ;
#455=CARTESIAN_POINT('Control Point',(4.04121180964E-013,1133.,389.27022577)) ;
#457=CARTESIAN_POINT('Line Origine',(-44.4781847255,1135.,409.)) ;
#470=CARTESIAN_POINT('Axis2P3D Location',(-105.,0.,409.)) ;
#475=CARTESIAN_POINT('Line Origine',(-74.7390923627,1133.,409.)) ;
#479=CARTESIAN_POINT('Vertex',(-105.,1133.,409.)) ;
#482=CARTESIAN_POINT('Line Origine',(-105.,1126.5,409.)) ;
#494=CARTESIAN_POINT('Line Origine',(-135.260907637,1133.,409.)) ;
#498=CARTESIAN_POINT('Vertex',(-165.521815275,1133.,409.)) ;
#501=CARTESIAN_POINT('Line Origine',(-165.521815275,1126.5,409.)) ;
#513=CARTESIAN_POINT('Axis2P3D Location',(-165.521815275,1135.,349.)) ;
#519=CARTESIAN_POINT('Control Point',(-217.483339502,1136.36677832,379.)) ;
#520=CARTESIAN_POINT('Control Point',(-216.324452306,1135.05936742,381.007251503)) ;
#521=CARTESIAN_POINT('Control Point',(-214.969986095,1134.10277147,383.127247412)) ;
#522=CARTESIAN_POINT('Control Point',(-213.462935497,1133.39722108,385.223744907)) ;
#523=CARTESIAN_POINT('Control Point',(-211.786045095,1133.,387.297551365)) ;
#524=CARTESIAN_POINT('Control Point',(-210.,1133.,389.27022577)) ;
#525=CARTESIAN_POINT('Vertex',(-217.483339502,1136.36677832,379.)) ;
#527=CARTESIAN_POINT('Vertex',(-210.,1133.,389.27022577)) ;
#530=CARTESIAN_POINT('Axis2P3D Location',(-165.521815275,1133.,349.)) ;
#535=CARTESIAN_POINT('Line Origine',(-217.483339502,1135.,379.)) ;
#548=CARTESIAN_POINT('Axis2P3D Location',(-217.483339502,0.,379.)) ;
#553=CARTESIAN_POINT('Line Origine',(-222.679491924,1132.5,370.)) ;
#557=CARTESIAN_POINT('Vertex',(-222.679491924,1145.,370.)) ;
#560=CARTESIAN_POINT('Line Origine',(-221.339745962,1145.,372.320508076)) ;
#564=CARTESIAN_POINT('Vertex',(-220.,1145.,374.641016151)) ;
#567=CARTESIAN_POINT('Line Origine',(-220.,1144.,374.641016151)) ;
#571=CARTESIAN_POINT('Vertex',(-220.,1143.,374.641016151)) ;
#575=CARTESIAN_POINT('Control Point',(-220.,1143.,374.641016151)) ;
#576=CARTESIAN_POINT('Control Point',(-220.,1142.67934125,374.641016151)) ;
#577=CARTESIAN_POINT('Control Point',(-219.987147246,1142.35868269,374.663277774)) ;
#578=CARTESIAN_POINT('Control Point',(-219.961439862,1142.04091436,374.70780427)) ;
#579=CARTESIAN_POINT('Control Point',(-219.875300288,1141.32865988,374.857002388)) ;
#580=CARTESIAN_POINT('Control Point',(-219.732057913,1140.65288354,375.105105459)) ;
#581=CARTESIAN_POINT('Control Point',(-219.635878439,1140.28824658,375.271693195)) ;
#582=CARTESIAN_POINT('Control Point',(-219.325179549,1139.29556524,375.809839459)) ;
#583=CARTESIAN_POINT('Control Point',(-218.92576304,1138.43088364,376.501649145)) ;
#584=CARTESIAN_POINT('Control Point',(-218.641531907,1137.92122919,376.993951909)) ;
#585=CARTESIAN_POINT('Control Point',(-218.239230844,1137.30211622,377.69075779)) ;
#586=CARTESIAN_POINT('Control Point',(-217.812840541,1136.75462458,378.429287459)) ;
#587=CARTESIAN_POINT('Control Point',(-217.704140497,1136.62115091,378.617561458)) ;
#588=CARTESIAN_POINT('Control Point',(-217.594304173,1136.49196429,378.807803551)) ;
#589=CARTESIAN_POINT('Control Point',(-217.483339502,1136.36677832,379.)) ;
#600=CARTESIAN_POINT('Axis2P3D Location',(-240.,1135.,380.)) ;
#605=CARTESIAN_POINT('Line Origine',(-260.,1135.,380.)) ;
#609=CARTESIAN_POINT('Vertex',(-260.,1145.,380.)) ;
#612=CARTESIAN_POINT('Axis2P3D Location',(-240.,1145.,380.)) ;
#624=CARTESIAN_POINT('Axis2P3D Location',(-260.,0.,380.)) ;
#629=CARTESIAN_POINT('Line Origine',(-260.,1132.5,490.)) ;
#633=CARTESIAN_POINT('Vertex',(-260.,1145.,490.)) ;
#636=CARTESIAN_POINT('Line Origine',(-260.,1145.,435.)) ;
#648=CARTESIAN_POINT('Axis2P3D Location',(-216.328638963,0.,489.)) ;
#654=CARTESIAN_POINT('Control Point',(-220.,1143.,495.358983849)) ;
#655=CARTESIAN_POINT('Control Point',(-220.,1142.67934125,495.358983849)) ;
#656=CARTESIAN_POINT('Control Point',(-219.987147246,1142.35868269,495.336722226)) ;
#657=CARTESIAN_POINT('Control Point',(-219.961439862,1142.04091436,495.29219573)) ;
#658=CARTESIAN_POINT('Control Point',(-219.875300288,1141.32865988,495.142997612)) ;
#659=CARTESIAN_POINT('Control Point',(-219.732057913,1140.65288354,494.894894541)) ;
#660=CARTESIAN_POINT('Control Point',(-219.635878439,1140.28824658,494.728306805)) ;
#661=CARTESIAN_POINT('Control Point',(-219.320726056,1139.28133636,494.182446866)) ;
#662=CARTESIAN_POINT('Control Point',(-218.914294507,1138.40612161,493.478486773)) ;
#663=CARTESIAN_POINT('Control Point',(-218.622643352,1137.88748476,492.973332154)) ;
#664=CARTESIAN_POINT('Control Point',(-218.014385747,1136.96104913,491.919799078)) ;
#665=CARTESIAN_POINT('Control Point',(-217.352593299,1136.19572668,490.773540935)) ;
#666=CARTESIAN_POINT('Control Point',(-217.017977249,1135.85334125,490.193968934)) ;
#667=CARTESIAN_POINT('Control Point',(-216.676155511,1135.541421,489.601916317)) ;
#668=CARTESIAN_POINT('Control Point',(-216.328638963,1135.25736938,489.)) ;
#669=CARTESIAN_POINT('Vertex',(-220.,1143.,495.358983849)) ;
#671=CARTESIAN_POINT('Vertex',(-216.328638963,1135.25736938,489.)) ;
#674=CARTESIAN_POINT('Line Origine',(-220.,1144.,495.358983849)) ;
#678=CARTESIAN_POINT('Vertex',(-220.,1145.,495.358983849)) ;
#681=CARTESIAN_POINT('Line Origine',(-221.339745962,1145.,497.679491924)) ;
#685=CARTESIAN_POINT('Vertex',(-222.679491924,1145.,500.)) ;
#688=CARTESIAN_POINT('Line Origine',(-222.679491924,1132.5,500.)) ;
#693=CARTESIAN_POINT('Line Origine',(-216.328638963,1127.62868469,489.)) ;
#707=CARTESIAN_POINT('Axis2P3D Location',(-164.367114736,1135.,519.)) ;
#712=CARTESIAN_POINT('Axis2P3D Location',(-164.367114736,1133.,519.)) ;
#716=CARTESIAN_POINT('Vertex',(-210.,1133.,480.043103531)) ;
#718=CARTESIAN_POINT('Vertex',(-164.367114736,1133.,459.)) ;
#722=CARTESIAN_POINT('Control Point',(-216.328638963,1135.25736938,489.)) ;
#723=CARTESIAN_POINT('Control Point',(-215.023390504,1134.19049087,486.739243352)) ;
#724=CARTESIAN_POINT('Control Point',(-213.523895237,1133.44849493,484.443812178)) ;
#725=CARTESIAN_POINT('Control Point',(-211.831034448,1133.,482.187919789)) ;
#726=CARTESIAN_POINT('Control Point',(-210.,1133.,480.043103531)) ;
#728=CARTESIAN_POINT('Line Origine',(-164.367114736,1135.,459.)) ;
#741=CARTESIAN_POINT('Axis2P3D Location',(-105.,0.,459.)) ;
#746=CARTESIAN_POINT('Line Origine',(-134.683557368,1133.,459.)) ;
#750=CARTESIAN_POINT('Vertex',(-105.,1133.,459.)) ;
#753=CARTESIAN_POINT('Line Origine',(-105.,1126.5,459.)) ;
#765=CARTESIAN_POINT('Line Origine',(-75.3164426319,1133.,459.)) ;
#769=CARTESIAN_POINT('Vertex',(-45.6328852638,1133.,459.)) ;
#772=CARTESIAN_POINT('Line Origine',(-45.6328852638,1126.5,459.)) ;
#784=CARTESIAN_POINT('Axis2P3D Location',(-45.6328852638,1135.,519.)) ;
#790=CARTESIAN_POINT('Control Point',(6.32863896323,1135.25736938,489.)) ;
#791=CARTESIAN_POINT('Control Point',(5.0233905039,1134.19049087,486.739243352)) ;
#792=CARTESIAN_POINT('Control Point',(3.52389523671,1133.44849493,484.443812178)) ;
#793=CARTESIAN_POINT('Control Point',(1.83103444814,1133.,482.187919788)) ;
#794=CARTESIAN_POINT('Control Point',(3.41504602375E-013,1133.,480.043103531)) ;
#795=CARTESIAN_POINT('Vertex',(6.32863896323,1135.25736938,489.)) ;
#797=CARTESIAN_POINT('Vertex',(1.42108547152E-013,1133.,480.043103531)) ;
#800=CARTESIAN_POINT('Axis2P3D Location',(-45.6328852638,1133.,519.)) ;
#805=CARTESIAN_POINT('Line Origine',(6.32863896323,1135.,489.)) ;
#818=CARTESIAN_POINT('Axis2P3D Location',(6.32863896323,0.,489.)) ;
#823=CARTESIAN_POINT('Line Origine',(12.6794919243,1132.5,500.)) ;
#827=CARTESIAN_POINT('Vertex',(12.6794919243,1145.,500.)) ;
#830=CARTESIAN_POINT('Line Origine',(11.3397459622,1145.,497.679491924)) ;
#834=CARTESIAN_POINT('Vertex',(10.,1145.,495.358983849)) ;
#837=CARTESIAN_POINT('Line Origine',(10.,1144.,495.358983849)) ;
#841=CARTESIAN_POINT('Vertex',(10.,1143.,495.358983849)) ;
#845=CARTESIAN_POINT('Control Point',(10.,1143.,495.358983849)) ;
#846=CARTESIAN_POINT('Control Point',(10.,1142.67934125,495.358983849)) ;
#847=CARTESIAN_POINT('Control Point',(9.98714724591,1142.35868269,495.336722226)) ;
#848=CARTESIAN_POINT('Control Point',(9.96143986184,1142.04091436,495.29219573)) ;
#849=CARTESIAN_POINT('Control Point',(9.87530028794,1141.32865988,495.142997612)) ;
#850=CARTESIAN_POINT('Control Point',(9.73205791324,1140.65288354,494.894894541)) ;
#851=CARTESIAN_POINT('Control Point',(9.63587843889,1140.28824658,494.728306805)) ;
#852=CARTESIAN_POINT('Control Point',(9.32072605619,1139.28133636,494.182446866)) ;
#853=CARTESIAN_POINT('Control Point',(8.91429450747,1138.40612161,493.478486774)) ;
#854=CARTESIAN_POINT('Control Point',(8.62264335197,1137.88748476,492.973332154)) ;
#855=CARTESIAN_POINT('Control Point',(8.01438574706,1136.96104913,491.919799078)) ;
#856=CARTESIAN_POINT('Control Point',(7.35259329933,1136.19572668,490.773540935)) ;
#857=CARTESIAN_POINT('Control Point',(7.01797724851,1135.85334125,490.193968934)) ;
#858=CARTESIAN_POINT('Control Point',(6.67615551107,1135.541421,489.601916317)) ;
#859=CARTESIAN_POINT('Control Point',(6.32863896323,1135.25736938,489.)) ;
#870=CARTESIAN_POINT('Axis2P3D Location',(50.,0.,380.)) ;
#875=CARTESIAN_POINT('Line Origine',(50.,1145.,435.)) ;
#879=CARTESIAN_POINT('Vertex',(50.,1145.,490.)) ;
#882=CARTESIAN_POINT('Line Origine',(50.,1132.5,490.)) ;
#894=CARTESIAN_POINT('Axis2P3D Location',(30.,1149.9,380.)) ;
#899=CARTESIAN_POINT('Axis2P3D Location',(30.,1145.,380.)) ;
#903=CARTESIAN_POINT('Vertex',(35.19309481,1145.,382.837000625)) ;
#905=CARTESIAN_POINT('Vertex',(24.80690519,1145.,377.162999375)) ;
#908=CARTESIAN_POINT('Line Origine',(35.19309481,1131.65500001,382.837000625)) ;
#913=CARTESIAN_POINT('Line Origine',(24.80690519,1131.65500001,377.162999375)) ;
#926=CARTESIAN_POINT('Axis2P3D Location',(30.,1145.,380.)) ;
#939=CARTESIAN_POINT('Axis2P3D Location',(30.,1149.9,485.)) ;
#944=CARTESIAN_POINT('Axis2P3D Location',(30.,1145.,485.)) ;
#948=CARTESIAN_POINT('Vertex',(24.80690519,1145.,482.162999375)) ;
#950=CARTESIAN_POINT('Vertex',(35.19309481,1145.,487.837000625)) ;
#953=CARTESIAN_POINT('Line Origine',(24.80690519,1131.65500001,482.162999375)) ;
#958=CARTESIAN_POINT('Line Origine',(35.19309481,1131.65500001,487.837000625)) ;
#971=CARTESIAN_POINT('Axis2P3D Location',(30.,1145.,485.)) ;
#984=CARTESIAN_POINT('Axis2P3D Location',(-240.,1149.9,380.)) ;
#989=CARTESIAN_POINT('Axis2P3D Location',(-240.,1145.,380.)) ;
#993=CARTESIAN_POINT('Vertex',(-245.19309481,1145.,377.162999375)) ;
#995=CARTESIAN_POINT('Vertex',(-234.80690519,1145.,382.837000625)) ;
#998=CARTESIAN_POINT('Line Origine',(-245.19309481,1131.65500001,377.162999375)) ;
#1003=CARTESIAN_POINT('Line Origine',(-234.80690519,1131.65500001,382.837000625)) ;
#1016=CARTESIAN_POINT('Axis2P3D Location',(-240.,1145.,380.)) ;
#1029=CARTESIAN_POINT('Axis2P3D Location',(-240.,1149.9,485.)) ;
#1034=CARTESIAN_POINT('Axis2P3D Location',(-240.,1145.,485.)) ;
#1038=CARTESIAN_POINT('Vertex',(-245.19309481,1145.,482.162999375)) ;
#1040=CARTESIAN_POINT('Vertex',(-234.80690519,1145.,487.837000625)) ;
#1043=CARTESIAN_POINT('Line Origine',(-245.19309481,1131.65500001,482.162999375)) ;
#1048=CARTESIAN_POINT('Line Origine',(-234.80690519,1131.65500001,487.837000625)) ;
#1061=CARTESIAN_POINT('Axis2P3D Location',(-240.,1145.,485.)) ;
#1074=CARTESIAN_POINT('Axis2P3D Location',(-240.,1132.66173141,434.)) ;
#1079=CARTESIAN_POINT('Line Origine',(-241.777104688,1133.8308657,433.029163284)) ;
#1083=CARTESIAN_POINT('Vertex',(-240.,1132.66173141,434.)) ;
#1085=CARTESIAN_POINT('Vertex',(-243.554209376,1135.,432.058326569)) ;
#1088=CARTESIAN_POINT('Axis2P3D Location',(-240.,1135.,434.)) ;
#1092=CARTESIAN_POINT('Vertex',(-236.445790624,1135.,435.941673431)) ;
#1095=CARTESIAN_POINT('Line Origine',(-238.222895312,1133.8308657,434.970836716)) ;
#1107=CARTESIAN_POINT('Axis2P3D Location',(-240.,1135.,434.)) ;
#1119=CARTESIAN_POINT('Axis2P3D Location',(-240.,1149.9,434.)) ;
#1124=CARTESIAN_POINT('Axis2P3D Location',(-240.,1145.,434.)) ;
#1128=CARTESIAN_POINT('Vertex',(-236.445790624,1145.,435.941673431)) ;
#1130=CARTESIAN_POINT('Vertex',(-243.554209376,1145.,432.058326569)) ;
#1133=CARTESIAN_POINT('Line Origine',(-236.445790624,1142.65500001,435.941673431)) ;
#1138=CARTESIAN_POINT('Line Origine',(-243.554209376,1142.65500001,432.058326569)) ;
#1151=CARTESIAN_POINT('Axis2P3D Location',(-240.,1145.,434.)) ;
#1164=CARTESIAN_POINT('Axis2P3D Location',(10.,1143.,459.)) ;
#1169=CARTESIAN_POINT('Line Origine',(10.,1145.,435.)) ;
#1174=CARTESIAN_POINT('Line Origine',(10.,1143.,435.)) ;
#1187=CARTESIAN_POINT('Axis2P3D Location',(2.86814756283E-013,1143.,459.)) ;
#1192=CARTESIAN_POINT('Line Origine',(3.5603205966E-013,1133.,459.)) ;
#1207=CARTESIAN_POINT('Axis2P3D Location',(1.42108547152E-013,1133.,459.)) ;
#1212=CARTESIAN_POINT('Line Origine',(-210.,1133.,434.65666465)) ;
#1231=CARTESIAN_POINT('Axis2P3D Location',(-210.,1143.,459.)) ;
#1236=CARTESIAN_POINT('Line Origine',(-220.,1143.,459.)) ;
#1251=CARTESIAN_POINT('Axis2P3D Location',(-220.,1145.,459.)) ;
#1256=CARTESIAN_POINT('Line Origine',(-220.,1145.,435.)) ;
#1269=CARTESIAN_POINT('Axis2P3D Location',(-240.,1133.,490.)) ;
#1273=CARTESIAN_POINT('Vertex',(-226.771243445,1133.,505.)) ;
#1275=CARTESIAN_POINT('Vertex',(-253.228756555,1133.,505.)) ;
#1278=CARTESIAN_POINT('Line Origine',(-240.,1133.,505.)) ;
#1289=CARTESIAN_POINT('Axis2P3D Location',(30.,1133.,490.)) ;
#1293=CARTESIAN_POINT('Vertex',(43.2287565553,1133.,505.)) ;
#1295=CARTESIAN_POINT('Vertex',(16.7712434447,1133.,505.)) ;
#1298=CARTESIAN_POINT('Line Origine',(30.,1133.,505.)) ;
#1309=CARTESIAN_POINT('Axis2P3D Location',(-220.,1145.,459.)) ;
#1314=CARTESIAN_POINT('Line Origine',(-240.,1145.,503.5)) ;
#1318=CARTESIAN_POINT('Vertex',(-225.243645437,1145.,503.5)) ;
#1320=CARTESIAN_POINT('Vertex',(-254.756354563,1145.,503.5)) ;
#1323=CARTESIAN_POINT('Axis2P3D Location',(-240.,1145.,490.)) ;
#1328=CARTESIAN_POINT('Axis2P3D Location',(-240.,1145.,490.)) ;
#1357=CARTESIAN_POINT('Axis2P3D Location',(-240.,1135.,490.)) ;
#1363=CARTESIAN_POINT('Control Point',(-226.771243445,1143.5,505.)) ;
#1364=CARTESIAN_POINT('Control Point',(-226.22593068,1143.98092065,504.519079346)) ;
#1365=CARTESIAN_POINT('Control Point',(-225.717140787,1144.48243961,504.017560391)) ;
#1366=CARTESIAN_POINT('Control Point',(-225.243645437,1145.,503.5)) ;
#1367=CARTESIAN_POINT('Vertex',(-226.771243445,1143.5,505.)) ;
#1370=CARTESIAN_POINT('Line Origine',(-226.771243445,1135.,505.)) ;
#1375=CARTESIAN_POINT('Line Origine',(-253.228756555,1135.,505.)) ;
#1379=CARTESIAN_POINT('Vertex',(-253.228756555,1143.5,505.)) ;
#1383=CARTESIAN_POINT('Control Point',(-253.228756555,1143.5,505.)) ;
#1384=CARTESIAN_POINT('Control Point',(-253.77406932,1143.98092065,504.519079346)) ;
#1385=CARTESIAN_POINT('Control Point',(-254.282859213,1144.48243961,504.017560391)) ;
#1386=CARTESIAN_POINT('Control Point',(-254.756354563,1145.,503.5)) ;
#1401=CARTESIAN_POINT('Axis2P3D Location',(50.,1190.,505.)) ;
#1406=CARTESIAN_POINT('Line Origine',(-240.,1143.5,505.)) ;
#1419=CARTESIAN_POINT('Axis2P3D Location',(-268.,1145.,503.5)) ;
#1432=CARTESIAN_POINT('Line Origine',(30.,1145.,503.5)) ;
#1436=CARTESIAN_POINT('Vertex',(44.7563545634,1145.,503.5)) ;
#1438=CARTESIAN_POINT('Vertex',(15.2436454366,1145.,503.5)) ;
#1441=CARTESIAN_POINT('Axis2P3D Location',(30.,1145.,490.)) ;
#1446=CARTESIAN_POINT('Axis2P3D Location',(30.,1145.,490.)) ;
#1475=CARTESIAN_POINT('Axis2P3D Location',(30.,1135.,490.)) ;
#1481=CARTESIAN_POINT('Control Point',(43.2287565553,1143.5,505.)) ;
#1482=CARTESIAN_POINT('Control Point',(43.7740693202,1143.98092065,504.519079346)) ;
#1483=CARTESIAN_POINT('Control Point',(44.282859213,1144.48243961,504.017560391)) ;
#1484=CARTESIAN_POINT('Control Point',(44.7563545634,1145.,503.5)) ;
#1485=CARTESIAN_POINT('Vertex',(43.2287565553,1143.5,505.)) ;
#1488=CARTESIAN_POINT('Line Origine',(43.2287565553,1135.,505.)) ;
#1493=CARTESIAN_POINT('Line Origine',(16.7712434447,1135.,505.)) ;
#1497=CARTESIAN_POINT('Vertex',(16.7712434447,1143.5,505.)) ;
#1501=CARTESIAN_POINT('Control Point',(16.7712434447,1143.5,505.)) ;
#1502=CARTESIAN_POINT('Control Point',(16.2259306798,1143.98092065,504.519079346)) ;
#1503=CARTESIAN_POINT('Control Point',(15.717140787,1144.48243961,504.017560391)) ;
#1504=CARTESIAN_POINT('Control Point',(15.2436454366,1145.,503.5)) ;
#1519=CARTESIAN_POINT('Line Origine',(30.,1143.5,505.)) ;
#1532=CARTESIAN_POINT('Axis2P3D Location',(2.,1145.,503.5)) ;
#8=PRODUCT_RELATED_PRODUCT_CATEGORY('part',$,(#5)) ;
#29=STYLED_ITEM(' ',(#28),#21) ;
#28=PRESENTATION_STYLE_ASSIGNMENT((#27)) ;
#69=PRESENTATION_STYLE_ASSIGNMENT((#68)) ;
#27=SURFACE_STYLE_USAGE(.BOTH.,#26) ;
#68=SURFACE_STYLE_USAGE(.BOTH.,#67) ;
#26=SURFACE_SIDE_STYLE(' ',(#25)) ;
#67=SURFACE_SIDE_STYLE(' ',(#66)) ;
#25=SURFACE_STYLE_FILL_AREA(#24) ;
#66=SURFACE_STYLE_FILL_AREA(#65) ;
#24=FILL_AREA_STYLE(' ',(#23)) ;
#65=FILL_AREA_STYLE(' ',(#64)) ;
#23=FILL_AREA_STYLE_COLOUR(' ',#22) ;
#64=FILL_AREA_STYLE_COLOUR(' ',#63) ;
#38=VECTOR('Line Direction',#37,1.) ;
#54=VECTOR('Line Direction',#53,1.) ;
#99=VECTOR('Line Direction',#98,1.) ;
#104=VECTOR('Line Direction',#103,1.) ;
#135=VECTOR('Line Direction',#134,1.) ;
#151=VECTOR('Line Direction',#150,1.) ;
#165=VECTOR('Line Direction',#164,1.) ;
#172=VECTOR('Line Direction',#171,1.) ;
#186=VECTOR('Line Direction',#185,1.) ;
#200=VECTOR('Line Direction',#199,1.) ;
#214=VECTOR('Line Direction',#213,1.) ;
#228=VECTOR('Line Direction',#227,1.) ;
#235=VECTOR('Line Direction',#234,1.) ;
#249=VECTOR('Line Direction',#248,1.) ;
#359=VECTOR('Line Direction',#358,1.) ;
#366=VECTOR('Line Direction',#365,1.) ;
#411=VECTOR('Line Direction',#410,1.) ;
#418=VECTOR('Line Direction',#417,1.) ;
#423=VECTOR('Line Direction',#422,1.) ;
#459=VECTOR('Line Direction',#458,1.) ;
#477=VECTOR('Line Direction',#476,1.) ;
#484=VECTOR('Line Direction',#483,1.) ;
#496=VECTOR('Line Direction',#495,1.) ;
#503=VECTOR('Line Direction',#502,1.) ;
#537=VECTOR('Line Direction',#536,1.) ;
#555=VECTOR('Line Direction',#554,1.) ;
#562=VECTOR('Line Direction',#561,1.) ;
#569=VECTOR('Line Direction',#568,1.) ;
#607=VECTOR('Line Direction',#606,1.) ;
#631=VECTOR('Line Direction',#630,1.) ;
#638=VECTOR('Line Direction',#637,1.) ;
#676=VECTOR('Line Direction',#675,1.) ;
#683=VECTOR('Line Direction',#682,1.) ;
#690=VECTOR('Line Direction',#689,1.) ;
#695=VECTOR('Line Direction',#694,1.) ;
#730=VECTOR('Line Direction',#729,1.) ;
#748=VECTOR('Line Direction',#747,1.) ;
#755=VECTOR('Line Direction',#754,1.) ;
#767=VECTOR('Line Direction',#766,1.) ;
#774=VECTOR('Line Direction',#773,1.) ;
#807=VECTOR('Line Direction',#806,1.) ;
#825=VECTOR('Line Direction',#824,1.) ;
#832=VECTOR('Line Direction',#831,1.) ;
#839=VECTOR('Line Direction',#838,1.) ;
#877=VECTOR('Line Direction',#876,1.) ;
#884=VECTOR('Line Direction',#883,1.) ;
#910=VECTOR('Line Direction',#909,1.) ;
#915=VECTOR('Line Direction',#914,1.) ;
#955=VECTOR('Line Direction',#954,1.) ;
#960=VECTOR('Line Direction',#959,1.) ;
#1000=VECTOR('Line Direction',#999,1.) ;
#1005=VECTOR('Line Direction',#1004,1.) ;
#1045=VECTOR('Line Direction',#1044,1.) ;
#1050=VECTOR('Line Direction',#1049,1.) ;
#1081=VECTOR('Line Direction',#1080,1.) ;
#1097=VECTOR('Line Direction',#1096,1.) ;
#1135=VECTOR('Line Direction',#1134,1.) ;
#1140=VECTOR('Line Direction',#1139,1.) ;
#1171=VECTOR('Line Direction',#1170,1.) ;
#1176=VECTOR('Line Direction',#1175,1.) ;
#1194=VECTOR('Line Direction',#1193,1.) ;
#1214=VECTOR('Line Direction',#1213,1.) ;
#1238=VECTOR('Line Direction',#1237,1.) ;
#1258=VECTOR('Line Direction',#1257,1.) ;
#1280=VECTOR('Line Direction',#1279,1.) ;
#1300=VECTOR('Line Direction',#1299,1.) ;
#1316=VECTOR('Line Direction',#1315,1.) ;
#1372=VECTOR('Line Direction',#1371,1.) ;
#1377=VECTOR('Line Direction',#1376,1.) ;
#1408=VECTOR('Line Direction',#1407,1.) ;
#1434=VECTOR('Line Direction',#1433,1.) ;
#1490=VECTOR('Line Direction',#1489,1.) ;
#1495=VECTOR('Line Direction',#1494,1.) ;
#1521=VECTOR('Line Direction',#1520,1.) ;
#32=DIRECTION('Axis2P3D Direction',(-0.,1.,0.)) ;
#33=DIRECTION('Axis2P3D XDirection',(0.87758256189,0.,0.479425538604)) ;
#37=DIRECTION('Vector Direction',(-0.760008792515,0.5,-0.415194695654)) ;
#46=DIRECTION('Axis2P3D Direction',(-0.,1.,0.)) ;
#53=DIRECTION('Vector Direction',(0.760008792515,0.5,0.415194695654)) ;
#72=DIRECTION('Axis2P3D Direction',(-0.,1.,0.)) ;
#84=DIRECTION('Axis2P3D Direction',(0.,-1.,-0.)) ;
#85=DIRECTION('Axis2P3D XDirection',(0.87758256189,0.,0.479425538604)) ;
#89=DIRECTION('Axis2P3D Direction',(0.,-1.,-0.)) ;
#98=DIRECTION('Vector Direction',(0.,-1.,0.)) ;
#103=DIRECTION('Vector Direction',(0.,-1.,0.)) ;
#116=DIRECTION('Axis2P3D Direction',(0.,-1.,-0.)) ;
#129=DIRECTION('Axis2P3D Direction',(0.,1.,0.)) ;
#130=DIRECTION('Axis2P3D XDirection',(0.,0.,1.)) ;
#134=DIRECTION('Vector Direction',(0.,0.,1.)) ;
#143=DIRECTION('Axis2P3D Direction',(0.,1.,0.)) ;
#150=DIRECTION('Vector Direction',(0.5,0.,0.866025403784)) ;
#157=DIRECTION('Axis2P3D Direction',(0.,1.,0.)) ;
#164=DIRECTION('Vector Direction',(1.,0.,0.)) ;
#171=DIRECTION('Vector Direction',(-1.,0.,0.)) ;
#178=DIRECTION('Axis2P3D Direction',(0.,1.,0.)) ;
#185=DIRECTION('Vector Direction',(-0.5,0.,0.866025403784)) ;
#192=DIRECTION('Axis2P3D Direction',(0.,1.,0.)) ;
#199=DIRECTION('Vector Direction',(0.,0.,1.)) ;
#206=DIRECTION('Axis2P3D Direction',(0.,1.,0.)) ;
#213=DIRECTION('Vector Direction',(-0.5,0.,-0.866025403784)) ;
#220=DIRECTION('Axis2P3D Direction',(0.,1.,0.)) ;
#227=DIRECTION('Vector Direction',(-1.,0.,0.)) ;
#234=DIRECTION('Vector Direction',(1.,0.,0.)) ;
#241=DIRECTION('Axis2P3D Direction',(0.,1.,0.)) ;
#248=DIRECTION('Vector Direction',(0.5,0.,-0.866025403784)) ;
#255=DIRECTION('Axis2P3D Direction',(0.,1.,0.)) ;
#280=DIRECTION('Axis2P3D Direction',(0.,1.,0.)) ;
#289=DIRECTION('Axis2P3D Direction',(0.,1.,0.)) ;
#298=DIRECTION('Axis2P3D Direction',(0.,1.,0.)) ;
#307=DIRECTION('Axis2P3D Direction',(0.,1.,0.)) ;
#316=DIRECTION('Axis2P3D Direction',(0.,1.,0.)) ;
#325=DIRECTION('Axis2P3D Direction',(0.,1.,0.)) ;
#334=DIRECTION('Axis2P3D Direction',(0.,1.,0.)) ;
#343=DIRECTION('Axis2P3D Direction',(0.,1.,0.)) ;
#353=DIRECTION('Axis2P3D Direction',(0.,1.,0.)) ;
#354=DIRECTION('Axis2P3D XDirection',(1.,0.,6.12323399574E-017)) ;
#358=DIRECTION('Vector Direction',(0.,1.,0.)) ;
#365=DIRECTION('Vector Direction',(0.,1.,0.)) ;
#372=DIRECTION('Axis2P3D Direction',(0.,1.,0.)) ;
#384=DIRECTION('Axis2P3D Direction',(0.866025403784,-0.,0.5)) ;
#385=DIRECTION('Axis2P3D XDirection',(0.5,0.,-0.866025403784)) ;
#410=DIRECTION('Vector Direction',(0.,1.,0.)) ;
#417=DIRECTION('Vector Direction',(-0.5,0.,0.866025403784)) ;
#422=DIRECTION('Vector Direction',(0.,1.,0.)) ;
#436=DIRECTION('Axis2P3D Direction',(0.,1.,0.)) ;
#437=DIRECTION('Axis2P3D XDirection',(-1.13310777953E-015,0.,1.)) ;
#441=DIRECTION('Axis2P3D Direction',(0.,1.,0.)) ;
#458=DIRECTION('Vector Direction',(0.,1.,0.)) ;
#471=DIRECTION('Axis2P3D Direction',(0.,0.,1.)) ;
#472=DIRECTION('Axis2P3D XDirection',(1.,0.,0.)) ;
#476=DIRECTION('Vector Direction',(1.,0.,0.)) ;
#483=DIRECTION('Vector Direction',(0.,1.,0.)) ;
#495=DIRECTION('Vector Direction',(1.,0.,0.)) ;
#502=DIRECTION('Vector Direction',(0.,1.,0.)) ;
#514=DIRECTION('Axis2P3D Direction',(0.,1.,0.)) ;
#515=DIRECTION('Axis2P3D XDirection',(-0.866025403784,0.,0.5)) ;
#531=DIRECTION('Axis2P3D Direction',(0.,1.,0.)) ;
#536=DIRECTION('Vector Direction',(0.,1.,0.)) ;
#549=DIRECTION('Axis2P3D Direction',(0.866025403784,0.,-0.5)) ;
#550=DIRECTION('Axis2P3D XDirection',(-0.5,0.,-0.866025403784)) ;
#554=DIRECTION('Vector Direction',(0.,1.,0.)) ;
#561=DIRECTION('Vector Direction',(0.5,0.,0.866025403784)) ;
#568=DIRECTION('Vector Direction',(0.,-1.,0.)) ;
#601=DIRECTION('Axis2P3D Direction',(0.,1.,0.)) ;
#602=DIRECTION('Axis2P3D XDirection',(0.866025403784,0.,-0.5)) ;
#606=DIRECTION('Vector Direction',(0.,1.,0.)) ;
#613=DIRECTION('Axis2P3D Direction',(0.,1.,0.)) ;
#625=DIRECTION('Axis2P3D Direction',(-1.,0.,0.)) ;
#626=DIRECTION('Axis2P3D XDirection',(0.,0.,1.)) ;
#630=DIRECTION('Vector Direction',(0.,1.,0.)) ;
#637=DIRECTION('Vector Direction',(0.,0.,1.)) ;
#649=DIRECTION('Axis2P3D Direction',(-0.866025403784,0.,-0.5)) ;
#650=DIRECTION('Axis2P3D XDirection',(-0.5,0.,0.866025403784)) ;
#675=DIRECTION('Vector Direction',(0.,-1.,0.)) ;
#682=DIRECTION('Vector Direction',(0.5,0.,-0.866025403784)) ;
#689=DIRECTION('Vector Direction',(0.,1.,0.)) ;
#694=DIRECTION('Vector Direction',(0.,1.,0.)) ;
#708=DIRECTION('Axis2P3D Direction',(0.,1.,0.)) ;
#709=DIRECTION('Axis2P3D XDirection',(5.66553889765E-016,0.,-1.)) ;
#713=DIRECTION('Axis2P3D Direction',(0.,1.,0.)) ;
#729=DIRECTION('Vector Direction',(0.,1.,0.)) ;
#742=DIRECTION('Axis2P3D Direction',(0.,0.,-1.)) ;
#743=DIRECTION('Axis2P3D XDirection',(-1.,0.,0.)) ;
#747=DIRECTION('Vector Direction',(-1.,0.,0.)) ;
#754=DIRECTION('Vector Direction',(0.,1.,0.)) ;
#766=DIRECTION('Vector Direction',(-1.,0.,0.)) ;
#773=DIRECTION('Vector Direction',(0.,1.,0.)) ;
#785=DIRECTION('Axis2P3D Direction',(0.,1.,0.)) ;
#786=DIRECTION('Axis2P3D XDirection',(0.866025403784,0.,-0.5)) ;
#801=DIRECTION('Axis2P3D Direction',(0.,1.,0.)) ;
#806=DIRECTION('Vector Direction',(0.,1.,0.)) ;
#819=DIRECTION('Axis2P3D Direction',(-0.866025403784,0.,0.5)) ;
#820=DIRECTION('Axis2P3D XDirection',(0.5,0.,0.866025403784)) ;
#824=DIRECTION('Vector Direction',(0.,1.,0.)) ;
#831=DIRECTION('Vector Direction',(-0.5,0.,-0.866025403784)) ;
#838=DIRECTION('Vector Direction',(0.,1.,0.)) ;
#871=DIRECTION('Axis2P3D Direction',(-1.,0.,0.)) ;
#872=DIRECTION('Axis2P3D XDirection',(0.,0.,1.)) ;
#876=DIRECTION('Vector Direction',(0.,0.,1.)) ;
#883=DIRECTION('Vector Direction',(0.,1.,0.)) ;
#895=DIRECTION('Axis2P3D Direction',(0.,-1.,-0.)) ;
#896=DIRECTION('Axis2P3D XDirection',(0.87758256189,0.,0.479425538604)) ;
#900=DIRECTION('Axis2P3D Direction',(0.,-1.,-0.)) ;
#909=DIRECTION('Vector Direction',(0.,-1.,0.)) ;
#914=DIRECTION('Vector Direction',(0.,-1.,0.)) ;
#927=DIRECTION('Axis2P3D Direction',(0.,-1.,-0.)) ;
#940=DIRECTION('Axis2P3D Direction',(0.,-1.,0.)) ;
#941=DIRECTION('Axis2P3D XDirection',(0.87758256189,0.,0.479425538604)) ;
#945=DIRECTION('Axis2P3D Direction',(0.,-1.,0.)) ;
#954=DIRECTION('Vector Direction',(0.,-1.,0.)) ;
#959=DIRECTION('Vector Direction',(0.,-1.,0.)) ;
#972=DIRECTION('Axis2P3D Direction',(0.,-1.,0.)) ;
#985=DIRECTION('Axis2P3D Direction',(0.,-1.,0.)) ;
#986=DIRECTION('Axis2P3D XDirection',(0.87758256189,0.,0.479425538604)) ;
#990=DIRECTION('Axis2P3D Direction',(0.,-1.,0.)) ;
#999=DIRECTION('Vector Direction',(0.,-1.,0.)) ;
#1004=DIRECTION('Vector Direction',(0.,-1.,0.)) ;
#1017=DIRECTION('Axis2P3D Direction',(0.,-1.,0.)) ;
#1030=DIRECTION('Axis2P3D Direction',(0.,-1.,0.)) ;
#1031=DIRECTION('Axis2P3D XDirection',(0.87758256189,0.,0.479425538604)) ;
#1035=DIRECTION('Axis2P3D Direction',(0.,-1.,0.)) ;
#1044=DIRECTION('Vector Direction',(0.,-1.,0.)) ;
#1049=DIRECTION('Vector Direction',(0.,-1.,0.)) ;
#1062=DIRECTION('Axis2P3D Direction',(0.,-1.,0.)) ;
#1075=DIRECTION('Axis2P3D Direction',(0.,1.,0.)) ;
#1076=DIRECTION('Axis2P3D XDirection',(0.87758256189,0.,0.479425538604)) ;
#1080=DIRECTION('Vector Direction',(-0.760008792515,0.5,-0.415194695654)) ;
#1089=DIRECTION('Axis2P3D Direction',(-0.,1.,0.)) ;
#1096=DIRECTION('Vector Direction',(0.760008792515,0.5,0.415194695654)) ;
#1108=DIRECTION('Axis2P3D Direction',(-0.,1.,0.)) ;
#1120=DIRECTION('Axis2P3D Direction',(0.,-1.,0.)) ;
#1121=DIRECTION('Axis2P3D XDirection',(0.87758256189,0.,0.479425538604)) ;
#1125=DIRECTION('Axis2P3D Direction',(0.,-1.,0.)) ;
#1134=DIRECTION('Vector Direction',(0.,-1.,0.)) ;
#1139=DIRECTION('Vector Direction',(0.,-1.,0.)) ;
#1152=DIRECTION('Axis2P3D Direction',(0.,-1.,0.)) ;
#1165=DIRECTION('Axis2P3D Direction',(-1.,0.,0.)) ;
#1166=DIRECTION('Axis2P3D XDirection',(0.,1.,0.)) ;
#1170=DIRECTION('Vector Direction',(0.,0.,-1.)) ;
#1175=DIRECTION('Vector Direction',(0.,0.,-1.)) ;
#1188=DIRECTION('Axis2P3D Direction',(-0.,0.,1.)) ;
#1189=DIRECTION('Axis2P3D XDirection',(6.92173033773E-015,-1.,0.)) ;
#1193=DIRECTION('Vector Direction',(0.,0.,1.)) ;
#1208=DIRECTION('Axis2P3D Direction',(-0.,-1.,-0.)) ;
#1209=DIRECTION('Axis2P3D XDirection',(-1.,0.,0.)) ;
#1213=DIRECTION('Vector Direction',(0.,0.,-1.)) ;
#1232=DIRECTION('Axis2P3D Direction',(-0.,0.,1.)) ;
#1233=DIRECTION('Axis2P3D XDirection',(-1.,1.22464679915E-016,0.)) ;
#1237=DIRECTION('Vector Direction',(0.,0.,1.)) ;
#1252=DIRECTION('Axis2P3D Direction',(1.,0.,0.)) ;
#1253=DIRECTION('Axis2P3D XDirection',(0.,-1.,0.)) ;
#1257=DIRECTION('Vector Direction',(0.,0.,-1.)) ;
#1270=DIRECTION('Axis2P3D Direction',(-0.,-1.,-0.)) ;
#1279=DIRECTION('Vector Direction',(-1.,0.,0.)) ;
#1290=DIRECTION('Axis2P3D Direction',(-0.,-1.,-0.)) ;
#1299=DIRECTION('Vector Direction',(-1.,0.,0.)) ;
#1310=DIRECTION('Axis2P3D Direction',(-0.,-1.,-0.)) ;
#1311=DIRECTION('Axis2P3D XDirection',(-1.,0.,0.)) ;
#1315=DIRECTION('Vector Direction',(1.,0.,0.)) ;
#1324=DIRECTION('Axis2P3D Direction',(-0.,-1.,-0.)) ;
#1329=DIRECTION('Axis2P3D Direction',(-0.,-1.,-0.)) ;
#1358=DIRECTION('Axis2P3D Direction',(0.,1.,0.)) ;
#1359=DIRECTION('Axis2P3D XDirection',(-1.,-0.,-1.83697019872E-016)) ;
#1371=DIRECTION('Vector Direction',(0.,1.,0.)) ;
#1376=DIRECTION('Vector Direction',(0.,1.,0.)) ;
#1402=DIRECTION('Axis2P3D Direction',(-0.,-0.,-1.)) ;
#1403=DIRECTION('Axis2P3D XDirection',(0.,-1.,0.)) ;
#1407=DIRECTION('Vector Direction',(1.,0.,0.)) ;
#1420=DIRECTION('Axis2P3D Direction',(0.,-0.707106781187,-0.707106781187)) ;
#1421=DIRECTION('Axis2P3D XDirection',(1.,0.,0.)) ;
#1433=DIRECTION('Vector Direction',(1.,0.,0.)) ;
#1442=DIRECTION('Axis2P3D Direction',(-0.,-1.,-0.)) ;
#1447=DIRECTION('Axis2P3D Direction',(-0.,-1.,-0.)) ;
#1476=DIRECTION('Axis2P3D Direction',(0.,1.,0.)) ;
#1477=DIRECTION('Axis2P3D XDirection',(-0.866025403784,0.,0.5)) ;
#1489=DIRECTION('Vector Direction',(0.,1.,0.)) ;
#1494=DIRECTION('Vector Direction',(0.,1.,0.)) ;
#1520=DIRECTION('Vector Direction',(1.,0.,0.)) ;
#1533=DIRECTION('Axis2P3D Direction',(0.,-0.707106781187,-0.707106781187)) ;
#1534=DIRECTION('Axis2P3D XDirection',(1.,0.,0.)) ;
#15=UNCERTAINTY_MEASURE_WITH_UNIT(LENGTH_MEASURE(0.005),#12,'distance_accuracy_value','CONFUSED CURVE UNCERTAINTY') ;
#18=AXIS2_PLACEMENT_3D(' ',#17,$,$) ;
#34=AXIS2_PLACEMENT_3D('Cone Axis2P3D',#31,#32,#33) ;
#47=AXIS2_PLACEMENT_3D('Circle Axis2P3D',#45,#46,$) ;
#73=AXIS2_PLACEMENT_3D('Circle Axis2P3D',#71,#72,$) ;
#86=AXIS2_PLACEMENT_3D('Cylinder Axis2P3D',#83,#84,#85) ;
#90=AXIS2_PLACEMENT_3D('Circle Axis2P3D',#88,#89,$) ;
#117=AXIS2_PLACEMENT_3D('Circle Axis2P3D',#115,#116,$) ;
#131=AXIS2_PLACEMENT_3D('Plane Axis2P3D',#128,#129,#130) ;
#144=AXIS2_PLACEMENT_3D('Circle Axis2P3D',#142,#143,$) ;
#158=AXIS2_PLACEMENT_3D('Circle Axis2P3D',#156,#157,$) ;
#179=AXIS2_PLACEMENT_3D('Circle Axis2P3D',#177,#178,$) ;
#193=AXIS2_PLACEMENT_3D('Circle Axis2P3D',#191,#192,$) ;
#207=AXIS2_PLACEMENT_3D('Circle Axis2P3D',#205,#206,$) ;
#221=AXIS2_PLACEMENT_3D('Circle Axis2P3D',#219,#220,$) ;
#242=AXIS2_PLACEMENT_3D('Circle Axis2P3D',#240,#241,$) ;
#256=AXIS2_PLACEMENT_3D('Circle Axis2P3D',#254,#255,$) ;
#281=AXIS2_PLACEMENT_3D('Circle Axis2P3D',#279,#280,$) ;
#290=AXIS2_PLACEMENT_3D('Circle Axis2P3D',#288,#289,$) ;
#299=AXIS2_PLACEMENT_3D('Circle Axis2P3D',#297,#298,$) ;
#308=AXIS2_PLACEMENT_3D('Circle Axis2P3D',#306,#307,$) ;
#317=AXIS2_PLACEMENT_3D('Circle Axis2P3D',#315,#316,$) ;
#326=AXIS2_PLACEMENT_3D('Circle Axis2P3D',#324,#325,$) ;
#335=AXIS2_PLACEMENT_3D('Circle Axis2P3D',#333,#334,$) ;
#344=AXIS2_PLACEMENT_3D('Circle Axis2P3D',#342,#343,$) ;
#355=AXIS2_PLACEMENT_3D('Cylinder Axis2P3D',#352,#353,#354) ;
#373=AXIS2_PLACEMENT_3D('Circle Axis2P3D',#371,#372,$) ;
#386=AXIS2_PLACEMENT_3D('Plane Axis2P3D',#383,#384,#385) ;
#438=AXIS2_PLACEMENT_3D('Cylinder Axis2P3D',#435,#436,#437) ;
#442=AXIS2_PLACEMENT_3D('Circle Axis2P3D',#440,#441,$) ;
#473=AXIS2_PLACEMENT_3D('Plane Axis2P3D',#470,#471,#472) ;
#516=AXIS2_PLACEMENT_3D('Cylinder Axis2P3D',#513,#514,#515) ;
#532=AXIS2_PLACEMENT_3D('Circle Axis2P3D',#530,#531,$) ;
#551=AXIS2_PLACEMENT_3D('Plane Axis2P3D',#548,#549,#550) ;
#603=AXIS2_PLACEMENT_3D('Cylinder Axis2P3D',#600,#601,#602) ;
#614=AXIS2_PLACEMENT_3D('Circle Axis2P3D',#612,#613,$) ;
#627=AXIS2_PLACEMENT_3D('Plane Axis2P3D',#624,#625,#626) ;
#651=AXIS2_PLACEMENT_3D('Plane Axis2P3D',#648,#649,#650) ;
#710=AXIS2_PLACEMENT_3D('Cylinder Axis2P3D',#707,#708,#709) ;
#714=AXIS2_PLACEMENT_3D('Circle Axis2P3D',#712,#713,$) ;
#744=AXIS2_PLACEMENT_3D('Plane Axis2P3D',#741,#742,#743) ;
#787=AXIS2_PLACEMENT_3D('Cylinder Axis2P3D',#784,#785,#786) ;
#802=AXIS2_PLACEMENT_3D('Circle Axis2P3D',#800,#801,$) ;
#821=AXIS2_PLACEMENT_3D('Plane Axis2P3D',#818,#819,#820) ;
#873=AXIS2_PLACEMENT_3D('Plane Axis2P3D',#870,#871,#872) ;
#897=AXIS2_PLACEMENT_3D('Cylinder Axis2P3D',#894,#895,#896) ;
#901=AXIS2_PLACEMENT_3D('Circle Axis2P3D',#899,#900,$) ;
#928=AXIS2_PLACEMENT_3D('Circle Axis2P3D',#926,#927,$) ;
#942=AXIS2_PLACEMENT_3D('Cylinder Axis2P3D',#939,#940,#941) ;
#946=AXIS2_PLACEMENT_3D('Circle Axis2P3D',#944,#945,$) ;
#973=AXIS2_PLACEMENT_3D('Circle Axis2P3D',#971,#972,$) ;
#987=AXIS2_PLACEMENT_3D('Cylinder Axis2P3D',#984,#985,#986) ;
#991=AXIS2_PLACEMENT_3D('Circle Axis2P3D',#989,#990,$) ;
#1018=AXIS2_PLACEMENT_3D('Circle Axis2P3D',#1016,#1017,$) ;
#1032=AXIS2_PLACEMENT_3D('Cylinder Axis2P3D',#1029,#1030,#1031) ;
#1036=AXIS2_PLACEMENT_3D('Circle Axis2P3D',#1034,#1035,$) ;
#1063=AXIS2_PLACEMENT_3D('Circle Axis2P3D',#1061,#1062,$) ;
#1077=AXIS2_PLACEMENT_3D('Cone Axis2P3D',#1074,#1075,#1076) ;
#1090=AXIS2_PLACEMENT_3D('Circle Axis2P3D',#1088,#1089,$) ;
#1109=AXIS2_PLACEMENT_3D('Circle Axis2P3D',#1107,#1108,$) ;
#1122=AXIS2_PLACEMENT_3D('Cylinder Axis2P3D',#1119,#1120,#1121) ;
#1126=AXIS2_PLACEMENT_3D('Circle Axis2P3D',#1124,#1125,$) ;
#1153=AXIS2_PLACEMENT_3D('Circle Axis2P3D',#1151,#1152,$) ;
#1167=AXIS2_PLACEMENT_3D('Plane Axis2P3D',#1164,#1165,#1166) ;
#1190=AXIS2_PLACEMENT_3D('Cylinder Axis2P3D',#1187,#1188,#1189) ;
#1210=AXIS2_PLACEMENT_3D('Plane Axis2P3D',#1207,#1208,#1209) ;
#1234=AXIS2_PLACEMENT_3D('Cylinder Axis2P3D',#1231,#1232,#1233) ;
#1254=AXIS2_PLACEMENT_3D('Plane Axis2P3D',#1251,#1252,#1253) ;
#1271=AXIS2_PLACEMENT_3D('Circle Axis2P3D',#1269,#1270,$) ;
#1291=AXIS2_PLACEMENT_3D('Circle Axis2P3D',#1289,#1290,$) ;
#1312=AXIS2_PLACEMENT_3D('Plane Axis2P3D',#1309,#1310,#1311) ;
#1325=AXIS2_PLACEMENT_3D('Circle Axis2P3D',#1323,#1324,$) ;
#1330=AXIS2_PLACEMENT_3D('Circle Axis2P3D',#1328,#1329,$) ;
#1360=AXIS2_PLACEMENT_3D('Cylinder Axis2P3D',#1357,#1358,#1359) ;
#1404=AXIS2_PLACEMENT_3D('Plane Axis2P3D',#1401,#1402,#1403) ;
#1422=AXIS2_PLACEMENT_3D('Plane Axis2P3D',#1419,#1420,#1421) ;
#1443=AXIS2_PLACEMENT_3D('Circle Axis2P3D',#1441,#1442,$) ;
#1448=AXIS2_PLACEMENT_3D('Circle Axis2P3D',#1446,#1447,$) ;
#1478=AXIS2_PLACEMENT_3D('Cylinder Axis2P3D',#1475,#1476,#1477) ;
#1535=AXIS2_PLACEMENT_3D('Plane Axis2P3D',#1532,#1533,#1534) ;
#39=LINE('Line',#36,#38) ;
#55=LINE('Line',#52,#54) ;
#100=LINE('Line',#97,#99) ;
#105=LINE('Line',#102,#104) ;
#136=LINE('Line',#133,#135) ;
#152=LINE('Line',#149,#151) ;
#166=LINE('Line',#163,#165) ;
#173=LINE('Line',#170,#172) ;
#187=LINE('Line',#184,#186) ;
#201=LINE('Line',#198,#200) ;
#215=LINE('Line',#212,#214) ;
#229=LINE('Line',#226,#228) ;
#236=LINE('Line',#233,#235) ;
#250=LINE('Line',#247,#249) ;
#360=LINE('Line',#357,#359) ;
#367=LINE('Line',#364,#366) ;
#412=LINE('Line',#409,#411) ;
#419=LINE('Line',#416,#418) ;
#424=LINE('Line',#421,#423) ;
#460=LINE('Line',#457,#459) ;
#478=LINE('Line',#475,#477) ;
#485=LINE('Line',#482,#484) ;
#497=LINE('Line',#494,#496) ;
#504=LINE('Line',#501,#503) ;
#538=LINE('Line',#535,#537) ;
#556=LINE('Line',#553,#555) ;
#563=LINE('Line',#560,#562) ;
#570=LINE('Line',#567,#569) ;
#608=LINE('Line',#605,#607) ;
#632=LINE('Line',#629,#631) ;
#639=LINE('Line',#636,#638) ;
#677=LINE('Line',#674,#676) ;
#684=LINE('Line',#681,#683) ;
#691=LINE('Line',#688,#690) ;
#696=LINE('Line',#693,#695) ;
#731=LINE('Line',#728,#730) ;
#749=LINE('Line',#746,#748) ;
#756=LINE('Line',#753,#755) ;
#768=LINE('Line',#765,#767) ;
#775=LINE('Line',#772,#774) ;
#808=LINE('Line',#805,#807) ;
#826=LINE('Line',#823,#825) ;
#833=LINE('Line',#830,#832) ;
#840=LINE('Line',#837,#839) ;
#878=LINE('Line',#875,#877) ;
#885=LINE('Line',#882,#884) ;
#911=LINE('Line',#908,#910) ;
#916=LINE('Line',#913,#915) ;
#956=LINE('Line',#953,#955) ;
#961=LINE('Line',#958,#960) ;
#1001=LINE('Line',#998,#1000) ;
#1006=LINE('Line',#1003,#1005) ;
#1046=LINE('Line',#1043,#1045) ;
#1051=LINE('Line',#1048,#1050) ;
#1082=LINE('Line',#1079,#1081) ;
#1098=LINE('Line',#1095,#1097) ;
#1136=LINE('Line',#1133,#1135) ;
#1141=LINE('Line',#1138,#1140) ;
#1172=LINE('Line',#1169,#1171) ;
#1177=LINE('Line',#1174,#1176) ;
#1195=LINE('Line',#1192,#1194) ;
#1215=LINE('Line',#1212,#1214) ;
#1239=LINE('Line',#1236,#1238) ;
#1259=LINE('Line',#1256,#1258) ;
#1281=LINE('Line',#1278,#1280) ;
#1301=LINE('Line',#1298,#1300) ;
#1317=LINE('Line',#1314,#1316) ;
#1373=LINE('Line',#1370,#1372) ;
#1378=LINE('Line',#1375,#1377) ;
#1409=LINE('Line',#1406,#1408) ;
#1435=LINE('Line',#1432,#1434) ;
#1491=LINE('Line',#1488,#1490) ;
#1496=LINE('Line',#1493,#1495) ;
#1522=LINE('Line',#1519,#1521) ;
#48=CIRCLE('generated circle',#47,4.05) ;
#74=CIRCLE('generated circle',#73,4.05) ;
#91=CIRCLE('generated circle',#90,4.05) ;
#118=CIRCLE('generated circle',#117,4.05) ;
#145=CIRCLE('generated circle',#144,20.) ;
#159=CIRCLE('generated circle',#158,60.) ;
#180=CIRCLE('generated circle',#179,60.) ;
#194=CIRCLE('generated circle',#193,20.) ;
#208=CIRCLE('generated circle',#207,20.) ;
#222=CIRCLE('generated circle',#221,60.) ;
#243=CIRCLE('generated circle',#242,60.) ;
#257=CIRCLE('generated circle',#256,20.) ;
#282=CIRCLE('generated circle',#281,5.9175) ;
#291=CIRCLE('generated circle',#290,5.9175) ;
#300=CIRCLE('generated circle',#299,5.9175) ;
#309=CIRCLE('generated circle',#308,5.9175) ;
#318=CIRCLE('generated circle',#317,5.9175) ;
#327=CIRCLE('generated circle',#326,5.9175) ;
#336=CIRCLE('generated circle',#335,5.9175) ;
#345=CIRCLE('generated circle',#344,5.9175) ;
#374=CIRCLE('generated circle',#373,20.) ;
#443=CIRCLE('generated circle',#442,60.) ;
#533=CIRCLE('generated circle',#532,60.) ;
#615=CIRCLE('generated circle',#614,20.) ;
#715=CIRCLE('generated circle',#714,60.) ;
#803=CIRCLE('generated circle',#802,60.) ;
#902=CIRCLE('generated circle',#901,5.9175) ;
#929=CIRCLE('generated circle',#928,5.9175) ;
#947=CIRCLE('generated circle',#946,5.9175) ;
#974=CIRCLE('generated circle',#973,5.9175) ;
#992=CIRCLE('generated circle',#991,5.9175) ;
#1019=CIRCLE('generated circle',#1018,5.9175) ;
#1037=CIRCLE('generated circle',#1036,5.9175) ;
#1064=CIRCLE('generated circle',#1063,5.9175) ;
#1091=CIRCLE('generated circle',#1090,4.05) ;
#1110=CIRCLE('generated circle',#1109,4.05) ;
#1127=CIRCLE('generated circle',#1126,4.05) ;
#1154=CIRCLE('generated circle',#1153,4.05) ;
#1272=CIRCLE('generated circle',#1271,20.) ;
#1292=CIRCLE('generated circle',#1291,20.) ;
#1326=CIRCLE('generated circle',#1325,20.) ;
#1331=CIRCLE('generated circle',#1330,20.) ;
#1444=CIRCLE('generated circle',#1443,20.) ;
#1449=CIRCLE('generated circle',#1448,20.) ;
#132=PLANE('',#131) ;
#387=PLANE('',#386) ;
#474=PLANE('',#473) ;
#552=PLANE('',#551) ;
#628=PLANE('',#627) ;
#652=PLANE('',#651) ;
#745=PLANE('',#744) ;
#822=PLANE('',#821) ;
#874=PLANE('',#873) ;
#1168=PLANE('',#1167) ;
#1211=PLANE('',#1210) ;
#1255=PLANE('',#1254) ;
#1313=PLANE('',#1312) ;
#1405=PLANE('',#1404) ;
#1423=PLANE('',#1422) ;
#1536=PLANE('',#1535) ;
#87=CYLINDRICAL_SURFACE('generated cylinder',#86,4.05) ;
#356=CYLINDRICAL_SURFACE('generated cylinder',#355,20.) ;
#439=CYLINDRICAL_SURFACE('generated cylinder',#438,60.) ;
#517=CYLINDRICAL_SURFACE('generated cylinder',#516,60.) ;
#604=CYLINDRICAL_SURFACE('generated cylinder',#603,20.) ;
#711=CYLINDRICAL_SURFACE('generated cylinder',#710,60.) ;
#788=CYLINDRICAL_SURFACE('generated cylinder',#787,60.) ;
#898=CYLINDRICAL_SURFACE('generated cylinder',#897,5.9175) ;
#943=CYLINDRICAL_SURFACE('generated cylinder',#942,5.9175) ;
#988=CYLINDRICAL_SURFACE('generated cylinder',#987,5.9175) ;
#1033=CYLINDRICAL_SURFACE('generated cylinder',#1032,5.9175) ;
#1123=CYLINDRICAL_SURFACE('generated cylinder',#1122,4.05) ;
#1191=CYLINDRICAL_SURFACE('generated cylinder',#1190,10.) ;
#1235=CYLINDRICAL_SURFACE('generated cylinder',#1234,10.) ;
#1361=CYLINDRICAL_SURFACE('generated cylinder',#1360,20.) ;
#1479=CYLINDRICAL_SURFACE('generated cylinder',#1478,20.) ;
#35=CONICAL_SURFACE('Cone',#34,0.,1.0471975512) ;
#1078=CONICAL_SURFACE('Cone',#1077,0.,1.0471975512) ;
#296=FACE_BOUND('',#293,.T.) ;
#314=FACE_BOUND('',#311,.T.) ;
#332=FACE_BOUND('',#329,.T.) ;
#350=FACE_BOUND('',#347,.T.) ;
#1346=FACE_BOUND('',#1343,.T.) ;
#1350=FACE_BOUND('',#1347,.T.) ;
#1354=FACE_BOUND('',#1351,.T.) ;
#1464=FACE_BOUND('',#1461,.T.) ;
#1468=FACE_BOUND('',#1465,.T.) ;
#1472=FACE_BOUND('',#1469,.T.) ;
#44=EDGE_CURVE('',#41,#43,#39,.T.) ;
#51=EDGE_CURVE('',#50,#43,#48,.F.) ;
#56=EDGE_CURVE('',#41,#50,#55,.T.) ;
#75=EDGE_CURVE('',#43,#50,#74,.F.) ;
#96=EDGE_CURVE('',#93,#95,#91,.T.) ;
#101=EDGE_CURVE('',#50,#93,#100,.F.) ;
#106=EDGE_CURVE('',#43,#95,#105,.F.) ;
#119=EDGE_CURVE('',#95,#93,#118,.T.) ;
#141=EDGE_CURVE('',#138,#140,#136,.F.) ;
#148=EDGE_CURVE('',#147,#138,#145,.T.) ;
#155=EDGE_CURVE('',#154,#147,#152,.T.) ;
#162=EDGE_CURVE('',#161,#154,#159,.F.) ;
#169=EDGE_CURVE('',#168,#161,#166,.T.) ;
#176=EDGE_CURVE('',#175,#168,#173,.F.) ;
#183=EDGE_CURVE('',#182,#175,#180,.F.) ;
#190=EDGE_CURVE('',#189,#182,#187,.F.) ;
#197=EDGE_CURVE('',#196,#189,#194,.T.) ;
#204=EDGE_CURVE('',#203,#196,#201,.T.) ;
#211=EDGE_CURVE('',#210,#203,#208,.T.) ;
#218=EDGE_CURVE('',#217,#210,#215,.T.) ;
#225=EDGE_CURVE('',#224,#217,#222,.F.) ;
#232=EDGE_CURVE('',#231,#224,#229,.T.) ;
#239=EDGE_CURVE('',#238,#231,#236,.F.) ;
#246=EDGE_CURVE('',#245,#238,#243,.F.) ;
#253=EDGE_CURVE('',#252,#245,#250,.F.) ;
#258=EDGE_CURVE('',#140,#252,#257,.T.) ;
#287=EDGE_CURVE('',#284,#286,#282,.T.) ;
#292=EDGE_CURVE('',#286,#284,#291,.T.) ;
#305=EDGE_CURVE('',#302,#304,#300,.T.) ;
#310=EDGE_CURVE('',#304,#302,#309,.T.) ;
#323=EDGE_CURVE('',#320,#322,#318,.T.) ;
#328=EDGE_CURVE('',#322,#320,#327,.T.) ;
#341=EDGE_CURVE('',#338,#340,#336,.T.) ;
#346=EDGE_CURVE('',#340,#338,#345,.T.) ;
#363=EDGE_CURVE('',#140,#362,#360,.T.) ;
#370=EDGE_CURVE('',#252,#369,#367,.T.) ;
#375=EDGE_CURVE('',#369,#362,#374,.F.) ;
#408=EDGE_CURVE('',#405,#407,#388,.T.) ;
#415=EDGE_CURVE('',#405,#414,#412,.T.) ;
#420=EDGE_CURVE('',#369,#414,#419,.T.) ;
#425=EDGE_CURVE('',#245,#407,#424,.T.) ;
#448=EDGE_CURVE('',#445,#447,#443,.F.) ;
#456=EDGE_CURVE('',#407,#445,#449,.T.) ;
#461=EDGE_CURVE('',#238,#447,#460,.T.) ;
#481=EDGE_CURVE('',#480,#447,#478,.T.) ;
#486=EDGE_CURVE('',#231,#480,#485,.T.) ;
#500=EDGE_CURVE('',#499,#480,#497,.T.) ;
#505=EDGE_CURVE('',#224,#499,#504,.T.) ;
#529=EDGE_CURVE('',#526,#528,#518,.T.) ;
#534=EDGE_CURVE('',#499,#528,#533,.F.) ;
#539=EDGE_CURVE('',#217,#526,#538,.T.) ;
#559=EDGE_CURVE('',#210,#558,#556,.T.) ;
#566=EDGE_CURVE('',#558,#565,#563,.T.) ;
#573=EDGE_CURVE('',#565,#572,#570,.T.) ;
#590=EDGE_CURVE('',#572,#526,#574,.T.) ;
#611=EDGE_CURVE('',#203,#610,#608,.T.) ;
#616=EDGE_CURVE('',#610,#558,#615,.F.) ;
#635=EDGE_CURVE('',#196,#634,#632,.T.) ;
#640=EDGE_CURVE('',#610,#634,#639,.T.) ;
#673=EDGE_CURVE('',#670,#672,#653,.T.) ;
#680=EDGE_CURVE('',#679,#670,#677,.T.) ;
#687=EDGE_CURVE('',#686,#679,#684,.T.) ;
#692=EDGE_CURVE('',#189,#686,#691,.T.) ;
#697=EDGE_CURVE('',#182,#672,#696,.T.) ;
#720=EDGE_CURVE('',#717,#719,#715,.F.) ;
#727=EDGE_CURVE('',#672,#717,#721,.T.) ;
#732=EDGE_CURVE('',#175,#719,#731,.T.) ;
#752=EDGE_CURVE('',#751,#719,#749,.T.) ;
#757=EDGE_CURVE('',#168,#751,#756,.T.) ;
#771=EDGE_CURVE('',#770,#751,#768,.T.) ;
#776=EDGE_CURVE('',#161,#770,#775,.T.) ;
#799=EDGE_CURVE('',#796,#798,#789,.T.) ;
#804=EDGE_CURVE('',#770,#798,#803,.F.) ;
#809=EDGE_CURVE('',#154,#796,#808,.T.) ;
#829=EDGE_CURVE('',#147,#828,#826,.T.) ;
#836=EDGE_CURVE('',#828,#835,#833,.T.) ;
#843=EDGE_CURVE('',#842,#835,#840,.T.) ;
#860=EDGE_CURVE('',#842,#796,#844,.T.) ;
#881=EDGE_CURVE('',#362,#880,#878,.T.) ;
#886=EDGE_CURVE('',#138,#880,#885,.T.) ;
#907=EDGE_CURVE('',#904,#906,#902,.T.) ;
#912=EDGE_CURVE('',#284,#904,#911,.F.) ;
#917=EDGE_CURVE('',#286,#906,#916,.F.) ;
#930=EDGE_CURVE('',#906,#904,#929,.T.) ;
#952=EDGE_CURVE('',#949,#951,#947,.T.) ;
#957=EDGE_CURVE('',#302,#949,#956,.F.) ;
#962=EDGE_CURVE('',#304,#951,#961,.F.) ;
#975=EDGE_CURVE('',#951,#949,#974,.T.) ;
#997=EDGE_CURVE('',#994,#996,#992,.T.) ;
#1002=EDGE_CURVE('',#320,#994,#1001,.F.) ;
#1007=EDGE_CURVE('',#322,#996,#1006,.F.) ;
#1020=EDGE_CURVE('',#996,#994,#1019,.T.) ;
#1042=EDGE_CURVE('',#1039,#1041,#1037,.T.) ;
#1047=EDGE_CURVE('',#338,#1039,#1046,.F.) ;
#1052=EDGE_CURVE('',#340,#1041,#1051,.F.) ;
#1065=EDGE_CURVE('',#1041,#1039,#1064,.T.) ;
#1087=EDGE_CURVE('',#1084,#1086,#1082,.T.) ;
#1094=EDGE_CURVE('',#1093,#1086,#1091,.F.) ;
#1099=EDGE_CURVE('',#1084,#1093,#1098,.T.) ;
#1111=EDGE_CURVE('',#1086,#1093,#1110,.F.) ;
#1132=EDGE_CURVE('',#1129,#1131,#1127,.T.) ;
#1137=EDGE_CURVE('',#1093,#1129,#1136,.F.) ;
#1142=EDGE_CURVE('',#1086,#1131,#1141,.F.) ;
#1155=EDGE_CURVE('',#1131,#1129,#1154,.T.) ;
#1173=EDGE_CURVE('',#835,#414,#1172,.T.) ;
#1178=EDGE_CURVE('',#842,#405,#1177,.T.) ;
#1196=EDGE_CURVE('',#798,#445,#1195,.F.) ;
#1216=EDGE_CURVE('',#717,#528,#1215,.T.) ;
#1240=EDGE_CURVE('',#670,#572,#1239,.F.) ;
#1260=EDGE_CURVE('',#679,#565,#1259,.T.) ;
#1277=EDGE_CURVE('',#1274,#1276,#1272,.T.) ;
#1282=EDGE_CURVE('',#1274,#1276,#1281,.T.) ;
#1297=EDGE_CURVE('',#1294,#1296,#1292,.T.) ;
#1302=EDGE_CURVE('',#1294,#1296,#1301,.T.) ;
#1322=EDGE_CURVE('',#1319,#1321,#1317,.F.) ;
#1327=EDGE_CURVE('',#686,#1319,#1326,.T.) ;
#1332=EDGE_CURVE('',#1321,#634,#1331,.T.) ;
#1369=EDGE_CURVE('',#1368,#1319,#1362,.T.) ;
#1374=EDGE_CURVE('',#1368,#1274,#1373,.F.) ;
#1381=EDGE_CURVE('',#1380,#1276,#1378,.F.) ;
#1387=EDGE_CURVE('',#1321,#1380,#1382,.F.) ;
#1410=EDGE_CURVE('',#1368,#1380,#1409,.F.) ;
#1440=EDGE_CURVE('',#1437,#1439,#1435,.F.) ;
#1445=EDGE_CURVE('',#880,#1437,#1444,.T.) ;
#1450=EDGE_CURVE('',#1439,#828,#1449,.T.) ;
#1487=EDGE_CURVE('',#1486,#1437,#1480,.T.) ;
#1492=EDGE_CURVE('',#1486,#1294,#1491,.F.) ;
#1499=EDGE_CURVE('',#1498,#1296,#1496,.F.) ;
#1505=EDGE_CURVE('',#1439,#1498,#1500,.F.) ;
#1523=EDGE_CURVE('',#1486,#1498,#1522,.F.) ;
#30=CLOSED_SHELL('Closed Shell',(#62,#81,#113,#126,#351,#382,#434,#469,#493,#512,#547,#599,#623,#647,#706,#740,#764,#783,#817,#869,#893,#924,#937,#969,#982,#1014,#1027,#1059,#1072,#1105,#1117,#1149,#1162,#1185,#1205,#1229,#1249,#1267,#1287,#1307,#1355,#1400,#1417,#1430,#1473,#1518,#1530,#1543)) ;
#1546=SHAPE_REPRESENTATION_RELATIONSHIP(' ',' ',#19,#1545) ;
#57=EDGE_LOOP('',(#58,#59,#60)) ;
#76=EDGE_LOOP('',(#77,#78,#79)) ;
#107=EDGE_LOOP('',(#108,#109,#110,#111)) ;
#120=EDGE_LOOP('',(#121,#122,#123,#124)) ;
#259=EDGE_LOOP('',(#260,#261,#262,#263,#264,#265,#266,#267,#268,#269,#270,#271,#272,#273,#274,#275,#276,#277)) ;
#293=EDGE_LOOP('',(#294,#295)) ;
#311=EDGE_LOOP('',(#312,#313)) ;
#329=EDGE_LOOP('',(#330,#331)) ;
#347=EDGE_LOOP('',(#348,#349)) ;
#376=EDGE_LOOP('',(#377,#378,#379,#380)) ;
#426=EDGE_LOOP('',(#427,#428,#429,#430,#431,#432)) ;
#462=EDGE_LOOP('',(#463,#464,#465,#466,#467)) ;
#487=EDGE_LOOP('',(#488,#489,#490,#491)) ;
#506=EDGE_LOOP('',(#507,#508,#509,#510)) ;
#540=EDGE_LOOP('',(#541,#542,#543,#544,#545)) ;
#591=EDGE_LOOP('',(#592,#593,#594,#595,#596,#597)) ;
#617=EDGE_LOOP('',(#618,#619,#620,#621)) ;
#641=EDGE_LOOP('',(#642,#643,#644,#645)) ;
#698=EDGE_LOOP('',(#699,#700,#701,#702,#703,#704)) ;
#733=EDGE_LOOP('',(#734,#735,#736,#737,#738)) ;
#758=EDGE_LOOP('',(#759,#760,#761,#762)) ;
#777=EDGE_LOOP('',(#778,#779,#780,#781)) ;
#810=EDGE_LOOP('',(#811,#812,#813,#814,#815)) ;
#861=EDGE_LOOP('',(#862,#863,#864,#865,#866,#867)) ;
#887=EDGE_LOOP('',(#888,#889,#890,#891)) ;
#918=EDGE_LOOP('',(#919,#920,#921,#922)) ;
#931=EDGE_LOOP('',(#932,#933,#934,#935)) ;
#963=EDGE_LOOP('',(#964,#965,#966,#967)) ;
#976=EDGE_LOOP('',(#977,#978,#979,#980)) ;
#1008=EDGE_LOOP('',(#1009,#1010,#1011,#1012)) ;
#1021=EDGE_LOOP('',(#1022,#1023,#1024,#1025)) ;
#1053=EDGE_LOOP('',(#1054,#1055,#1056,#1057)) ;
#1066=EDGE_LOOP('',(#1067,#1068,#1069,#1070)) ;
#1100=EDGE_LOOP('',(#1101,#1102,#1103)) ;
#1112=EDGE_LOOP('',(#1113,#1114,#1115)) ;
#1143=EDGE_LOOP('',(#1144,#1145,#1146,#1147)) ;
#1156=EDGE_LOOP('',(#1157,#1158,#1159,#1160)) ;
#1179=EDGE_LOOP('',(#1180,#1181,#1182,#1183)) ;
#1197=EDGE_LOOP('',(#1198,#1199,#1200,#1201,#1202,#1203)) ;
#1217=EDGE_LOOP('',(#1218,#1219,#1220,#1221,#1222,#1223,#1224,#1225,#1226,#1227)) ;
#1241=EDGE_LOOP('',(#1242,#1243,#1244,#1245,#1246,#1247)) ;
#1261=EDGE_LOOP('',(#1262,#1263,#1264,#1265)) ;
#1283=EDGE_LOOP('',(#1284,#1285)) ;
#1303=EDGE_LOOP('',(#1304,#1305)) ;
#1333=EDGE_LOOP('',(#1334,#1335,#1336,#1337,#1338,#1339,#1340,#1341)) ;
#1343=EDGE_LOOP('',(#1344,#1345)) ;
#1347=EDGE_LOOP('',(#1348,#1349)) ;
#1351=EDGE_LOOP('',(#1352,#1353)) ;
#1388=EDGE_LOOP('',(#1389,#1390,#1391,#1392,#1393,#1394,#1395,#1396,#1397,#1398)) ;
#1411=EDGE_LOOP('',(#1412,#1413,#1414,#1415)) ;
#1424=EDGE_LOOP('',(#1425,#1426,#1427,#1428)) ;
#1451=EDGE_LOOP('',(#1452,#1453,#1454,#1455,#1456,#1457,#1458,#1459)) ;
#1461=EDGE_LOOP('',(#1462,#1463)) ;
#1465=EDGE_LOOP('',(#1466,#1467)) ;
#1469=EDGE_LOOP('',(#1470,#1471)) ;
#1506=EDGE_LOOP('',(#1507,#1508,#1509,#1510,#1511,#1512,#1513,#1514,#1515,#1516)) ;
#1524=EDGE_LOOP('',(#1525,#1526,#1527,#1528)) ;
#1537=EDGE_LOOP('',(#1538,#1539,#1540,#1541)) ;
#58=ORIENTED_EDGE('',*,*,#44,.T.) ;
#59=ORIENTED_EDGE('',*,*,#51,.F.) ;
#60=ORIENTED_EDGE('',*,*,#56,.F.) ;
#77=ORIENTED_EDGE('',*,*,#56,.T.) ;
#78=ORIENTED_EDGE('',*,*,#75,.F.) ;
#79=ORIENTED_EDGE('',*,*,#44,.F.) ;
#108=ORIENTED_EDGE('',*,*,#96,.F.) ;
#109=ORIENTED_EDGE('',*,*,#101,.F.) ;
#110=ORIENTED_EDGE('',*,*,#51,.T.) ;
#111=ORIENTED_EDGE('',*,*,#106,.T.) ;
#121=ORIENTED_EDGE('',*,*,#119,.F.) ;
#122=ORIENTED_EDGE('',*,*,#106,.F.) ;
#123=ORIENTED_EDGE('',*,*,#75,.T.) ;
#124=ORIENTED_EDGE('',*,*,#101,.T.) ;
#260=ORIENTED_EDGE('',*,*,#141,.F.) ;
#261=ORIENTED_EDGE('',*,*,#148,.F.) ;
#262=ORIENTED_EDGE('',*,*,#155,.F.) ;
#263=ORIENTED_EDGE('',*,*,#162,.F.) ;
#264=ORIENTED_EDGE('',*,*,#169,.F.) ;
#265=ORIENTED_EDGE('',*,*,#176,.F.) ;
#266=ORIENTED_EDGE('',*,*,#183,.F.) ;
#267=ORIENTED_EDGE('',*,*,#190,.F.) ;
#268=ORIENTED_EDGE('',*,*,#197,.F.) ;
#269=ORIENTED_EDGE('',*,*,#204,.F.) ;
#270=ORIENTED_EDGE('',*,*,#211,.F.) ;
#271=ORIENTED_EDGE('',*,*,#218,.F.) ;
#272=ORIENTED_EDGE('',*,*,#225,.F.) ;
#273=ORIENTED_EDGE('',*,*,#232,.F.) ;
#274=ORIENTED_EDGE('',*,*,#239,.F.) ;
#275=ORIENTED_EDGE('',*,*,#246,.F.) ;
#276=ORIENTED_EDGE('',*,*,#253,.F.) ;
#277=ORIENTED_EDGE('',*,*,#258,.F.) ;
#294=ORIENTED_EDGE('',*,*,#287,.T.) ;
#295=ORIENTED_EDGE('',*,*,#292,.T.) ;
#312=ORIENTED_EDGE('',*,*,#305,.T.) ;
#313=ORIENTED_EDGE('',*,*,#310,.T.) ;
#330=ORIENTED_EDGE('',*,*,#323,.T.) ;
#331=ORIENTED_EDGE('',*,*,#328,.T.) ;
#348=ORIENTED_EDGE('',*,*,#341,.T.) ;
#349=ORIENTED_EDGE('',*,*,#346,.T.) ;
#377=ORIENTED_EDGE('',*,*,#363,.F.) ;
#378=ORIENTED_EDGE('',*,*,#258,.T.) ;
#379=ORIENTED_EDGE('',*,*,#370,.T.) ;
#380=ORIENTED_EDGE('',*,*,#375,.T.) ;
#427=ORIENTED_EDGE('',*,*,#408,.F.) ;
#428=ORIENTED_EDGE('',*,*,#415,.T.) ;
#429=ORIENTED_EDGE('',*,*,#420,.F.) ;
#430=ORIENTED_EDGE('',*,*,#370,.F.) ;
#431=ORIENTED_EDGE('',*,*,#253,.T.) ;
#432=ORIENTED_EDGE('',*,*,#425,.T.) ;
#463=ORIENTED_EDGE('',*,*,#448,.F.) ;
#464=ORIENTED_EDGE('',*,*,#456,.F.) ;
#465=ORIENTED_EDGE('',*,*,#425,.F.) ;
#466=ORIENTED_EDGE('',*,*,#246,.T.) ;
#467=ORIENTED_EDGE('',*,*,#461,.T.) ;
#488=ORIENTED_EDGE('',*,*,#481,.T.) ;
#489=ORIENTED_EDGE('',*,*,#461,.F.) ;
#490=ORIENTED_EDGE('',*,*,#239,.T.) ;
#491=ORIENTED_EDGE('',*,*,#486,.T.) ;
#507=ORIENTED_EDGE('',*,*,#500,.T.) ;
#508=ORIENTED_EDGE('',*,*,#486,.F.) ;
#509=ORIENTED_EDGE('',*,*,#232,.T.) ;
#510=ORIENTED_EDGE('',*,*,#505,.T.) ;
#541=ORIENTED_EDGE('',*,*,#529,.T.) ;
#542=ORIENTED_EDGE('',*,*,#534,.F.) ;
#543=ORIENTED_EDGE('',*,*,#505,.F.) ;
#544=ORIENTED_EDGE('',*,*,#225,.T.) ;
#545=ORIENTED_EDGE('',*,*,#539,.T.) ;
#592=ORIENTED_EDGE('',*,*,#539,.F.) ;
#593=ORIENTED_EDGE('',*,*,#218,.T.) ;
#594=ORIENTED_EDGE('',*,*,#559,.T.) ;
#595=ORIENTED_EDGE('',*,*,#566,.T.) ;
#596=ORIENTED_EDGE('',*,*,#573,.T.) ;
#597=ORIENTED_EDGE('',*,*,#590,.T.) ;
#618=ORIENTED_EDGE('',*,*,#559,.F.) ;
#619=ORIENTED_EDGE('',*,*,#211,.T.) ;
#620=ORIENTED_EDGE('',*,*,#611,.T.) ;
#621=ORIENTED_EDGE('',*,*,#616,.T.) ;
#642=ORIENTED_EDGE('',*,*,#611,.F.) ;
#643=ORIENTED_EDGE('',*,*,#204,.T.) ;
#644=ORIENTED_EDGE('',*,*,#635,.T.) ;
#645=ORIENTED_EDGE('',*,*,#640,.F.) ;
#699=ORIENTED_EDGE('',*,*,#673,.F.) ;
#700=ORIENTED_EDGE('',*,*,#680,.F.) ;
#701=ORIENTED_EDGE('',*,*,#687,.F.) ;
#702=ORIENTED_EDGE('',*,*,#692,.F.) ;
#703=ORIENTED_EDGE('',*,*,#190,.T.) ;
#704=ORIENTED_EDGE('',*,*,#697,.T.) ;
#734=ORIENTED_EDGE('',*,*,#720,.F.) ;
#735=ORIENTED_EDGE('',*,*,#727,.F.) ;
#736=ORIENTED_EDGE('',*,*,#697,.F.) ;
#737=ORIENTED_EDGE('',*,*,#183,.T.) ;
#738=ORIENTED_EDGE('',*,*,#732,.T.) ;
#759=ORIENTED_EDGE('',*,*,#752,.T.) ;
#760=ORIENTED_EDGE('',*,*,#732,.F.) ;
#761=ORIENTED_EDGE('',*,*,#176,.T.) ;
#762=ORIENTED_EDGE('',*,*,#757,.T.) ;
#778=ORIENTED_EDGE('',*,*,#771,.T.) ;
#779=ORIENTED_EDGE('',*,*,#757,.F.) ;
#780=ORIENTED_EDGE('',*,*,#169,.T.) ;
#781=ORIENTED_EDGE('',*,*,#776,.T.) ;
#811=ORIENTED_EDGE('',*,*,#799,.T.) ;
#812=ORIENTED_EDGE('',*,*,#804,.F.) ;
#813=ORIENTED_EDGE('',*,*,#776,.F.) ;
#814=ORIENTED_EDGE('',*,*,#162,.T.) ;
#815=ORIENTED_EDGE('',*,*,#809,.T.) ;
#862=ORIENTED_EDGE('',*,*,#809,.F.) ;
#863=ORIENTED_EDGE('',*,*,#155,.T.) ;
#864=ORIENTED_EDGE('',*,*,#829,.T.) ;
#865=ORIENTED_EDGE('',*,*,#836,.T.) ;
#866=ORIENTED_EDGE('',*,*,#843,.F.) ;
#867=ORIENTED_EDGE('',*,*,#860,.T.) ;
#888=ORIENTED_EDGE('',*,*,#881,.T.) ;
#889=ORIENTED_EDGE('',*,*,#886,.F.) ;
#890=ORIENTED_EDGE('',*,*,#141,.T.) ;
#891=ORIENTED_EDGE('',*,*,#363,.T.) ;
#919=ORIENTED_EDGE('',*,*,#907,.F.) ;
#920=ORIENTED_EDGE('',*,*,#912,.F.) ;
#921=ORIENTED_EDGE('',*,*,#292,.F.) ;
#922=ORIENTED_EDGE('',*,*,#917,.T.) ;
#932=ORIENTED_EDGE('',*,*,#930,.F.) ;
#933=ORIENTED_EDGE('',*,*,#917,.F.) ;
#934=ORIENTED_EDGE('',*,*,#287,.F.) ;
#935=ORIENTED_EDGE('',*,*,#912,.T.) ;
#964=ORIENTED_EDGE('',*,*,#952,.F.) ;
#965=ORIENTED_EDGE('',*,*,#957,.F.) ;
#966=ORIENTED_EDGE('',*,*,#310,.F.) ;
#967=ORIENTED_EDGE('',*,*,#962,.T.) ;
#977=ORIENTED_EDGE('',*,*,#975,.F.) ;
#978=ORIENTED_EDGE('',*,*,#962,.F.) ;
#979=ORIENTED_EDGE('',*,*,#305,.F.) ;
#980=ORIENTED_EDGE('',*,*,#957,.T.) ;
#1009=ORIENTED_EDGE('',*,*,#997,.F.) ;
#1010=ORIENTED_EDGE('',*,*,#1002,.F.) ;
#1011=ORIENTED_EDGE('',*,*,#328,.F.) ;
#1012=ORIENTED_EDGE('',*,*,#1007,.T.) ;
#1022=ORIENTED_EDGE('',*,*,#1020,.F.) ;
#1023=ORIENTED_EDGE('',*,*,#1007,.F.) ;
#1024=ORIENTED_EDGE('',*,*,#323,.F.) ;
#1025=ORIENTED_EDGE('',*,*,#1002,.T.) ;
#1054=ORIENTED_EDGE('',*,*,#1042,.F.) ;
#1055=ORIENTED_EDGE('',*,*,#1047,.F.) ;
#1056=ORIENTED_EDGE('',*,*,#346,.F.) ;
#1057=ORIENTED_EDGE('',*,*,#1052,.T.) ;
#1067=ORIENTED_EDGE('',*,*,#1065,.F.) ;
#1068=ORIENTED_EDGE('',*,*,#1052,.F.) ;
#1069=ORIENTED_EDGE('',*,*,#341,.F.) ;
#1070=ORIENTED_EDGE('',*,*,#1047,.T.) ;
#1101=ORIENTED_EDGE('',*,*,#1087,.T.) ;
#1102=ORIENTED_EDGE('',*,*,#1094,.F.) ;
#1103=ORIENTED_EDGE('',*,*,#1099,.F.) ;
#1113=ORIENTED_EDGE('',*,*,#1099,.T.) ;
#1114=ORIENTED_EDGE('',*,*,#1111,.F.) ;
#1115=ORIENTED_EDGE('',*,*,#1087,.F.) ;
#1144=ORIENTED_EDGE('',*,*,#1132,.F.) ;
#1145=ORIENTED_EDGE('',*,*,#1137,.F.) ;
#1146=ORIENTED_EDGE('',*,*,#1094,.T.) ;
#1147=ORIENTED_EDGE('',*,*,#1142,.T.) ;
#1157=ORIENTED_EDGE('',*,*,#1155,.F.) ;
#1158=ORIENTED_EDGE('',*,*,#1142,.F.) ;
#1159=ORIENTED_EDGE('',*,*,#1111,.T.) ;
#1160=ORIENTED_EDGE('',*,*,#1137,.T.) ;
#1180=ORIENTED_EDGE('',*,*,#843,.T.) ;
#1181=ORIENTED_EDGE('',*,*,#1173,.T.) ;
#1182=ORIENTED_EDGE('',*,*,#415,.F.) ;
#1183=ORIENTED_EDGE('',*,*,#1178,.F.) ;
#1198=ORIENTED_EDGE('',*,*,#1178,.T.) ;
#1199=ORIENTED_EDGE('',*,*,#408,.T.) ;
#1200=ORIENTED_EDGE('',*,*,#456,.T.) ;
#1201=ORIENTED_EDGE('',*,*,#1196,.F.) ;
#1202=ORIENTED_EDGE('',*,*,#799,.F.) ;
#1203=ORIENTED_EDGE('',*,*,#860,.F.) ;
#1218=ORIENTED_EDGE('',*,*,#1196,.T.) ;
#1219=ORIENTED_EDGE('',*,*,#448,.T.) ;
#1220=ORIENTED_EDGE('',*,*,#481,.F.) ;
#1221=ORIENTED_EDGE('',*,*,#500,.F.) ;
#1222=ORIENTED_EDGE('',*,*,#534,.T.) ;
#1223=ORIENTED_EDGE('',*,*,#1216,.F.) ;
#1224=ORIENTED_EDGE('',*,*,#720,.T.) ;
#1225=ORIENTED_EDGE('',*,*,#752,.F.) ;
#1226=ORIENTED_EDGE('',*,*,#771,.F.) ;
#1227=ORIENTED_EDGE('',*,*,#804,.T.) ;
#1242=ORIENTED_EDGE('',*,*,#1216,.T.) ;
#1243=ORIENTED_EDGE('',*,*,#529,.F.) ;
#1244=ORIENTED_EDGE('',*,*,#590,.F.) ;
#1245=ORIENTED_EDGE('',*,*,#1240,.F.) ;
#1246=ORIENTED_EDGE('',*,*,#673,.T.) ;
#1247=ORIENTED_EDGE('',*,*,#727,.T.) ;
#1262=ORIENTED_EDGE('',*,*,#680,.T.) ;
#1263=ORIENTED_EDGE('',*,*,#1240,.T.) ;
#1264=ORIENTED_EDGE('',*,*,#573,.F.) ;
#1265=ORIENTED_EDGE('',*,*,#1260,.F.) ;
#1284=ORIENTED_EDGE('',*,*,#1277,.F.) ;
#1285=ORIENTED_EDGE('',*,*,#1282,.T.) ;
#1304=ORIENTED_EDGE('',*,*,#1297,.F.) ;
#1305=ORIENTED_EDGE('',*,*,#1302,.T.) ;
#1334=ORIENTED_EDGE('',*,*,#1322,.F.) ;
#1335=ORIENTED_EDGE('',*,*,#1327,.F.) ;
#1336=ORIENTED_EDGE('',*,*,#687,.T.) ;
#1337=ORIENTED_EDGE('',*,*,#1260,.T.) ;
#1338=ORIENTED_EDGE('',*,*,#566,.F.) ;
#1339=ORIENTED_EDGE('',*,*,#616,.F.) ;
#1340=ORIENTED_EDGE('',*,*,#640,.T.) ;
#1341=ORIENTED_EDGE('',*,*,#1332,.F.) ;
#1344=ORIENTED_EDGE('',*,*,#1042,.T.) ;
#1345=ORIENTED_EDGE('',*,*,#1065,.T.) ;
#1348=ORIENTED_EDGE('',*,*,#997,.T.) ;
#1349=ORIENTED_EDGE('',*,*,#1020,.T.) ;
#1352=ORIENTED_EDGE('',*,*,#1155,.T.) ;
#1353=ORIENTED_EDGE('',*,*,#1132,.T.) ;
#1389=ORIENTED_EDGE('',*,*,#1369,.F.) ;
#1390=ORIENTED_EDGE('',*,*,#1374,.T.) ;
#1391=ORIENTED_EDGE('',*,*,#1277,.T.) ;
#1392=ORIENTED_EDGE('',*,*,#1381,.F.) ;
#1393=ORIENTED_EDGE('',*,*,#1387,.F.) ;
#1394=ORIENTED_EDGE('',*,*,#1332,.T.) ;
#1395=ORIENTED_EDGE('',*,*,#635,.F.) ;
#1396=ORIENTED_EDGE('',*,*,#197,.T.) ;
#1397=ORIENTED_EDGE('',*,*,#692,.T.) ;
#1398=ORIENTED_EDGE('',*,*,#1327,.T.) ;
#1412=ORIENTED_EDGE('',*,*,#1410,.T.) ;
#1413=ORIENTED_EDGE('',*,*,#1381,.T.) ;
#1414=ORIENTED_EDGE('',*,*,#1282,.F.) ;
#1415=ORIENTED_EDGE('',*,*,#1374,.F.) ;
#1425=ORIENTED_EDGE('',*,*,#1410,.F.) ;
#1426=ORIENTED_EDGE('',*,*,#1369,.T.) ;
#1427=ORIENTED_EDGE('',*,*,#1322,.T.) ;
#1428=ORIENTED_EDGE('',*,*,#1387,.T.) ;
#1452=ORIENTED_EDGE('',*,*,#1440,.F.) ;
#1453=ORIENTED_EDGE('',*,*,#1445,.F.) ;
#1454=ORIENTED_EDGE('',*,*,#881,.F.) ;
#1455=ORIENTED_EDGE('',*,*,#375,.F.) ;
#1456=ORIENTED_EDGE('',*,*,#420,.T.) ;
#1457=ORIENTED_EDGE('',*,*,#1173,.F.) ;
#1458=ORIENTED_EDGE('',*,*,#836,.F.) ;
#1459=ORIENTED_EDGE('',*,*,#1450,.F.) ;
#1462=ORIENTED_EDGE('',*,*,#952,.T.) ;
#1463=ORIENTED_EDGE('',*,*,#975,.T.) ;
#1466=ORIENTED_EDGE('',*,*,#907,.T.) ;
#1467=ORIENTED_EDGE('',*,*,#930,.T.) ;
#1470=ORIENTED_EDGE('',*,*,#96,.T.) ;
#1471=ORIENTED_EDGE('',*,*,#119,.T.) ;
#1507=ORIENTED_EDGE('',*,*,#1487,.F.) ;
#1508=ORIENTED_EDGE('',*,*,#1492,.T.) ;
#1509=ORIENTED_EDGE('',*,*,#1297,.T.) ;
#1510=ORIENTED_EDGE('',*,*,#1499,.F.) ;
#1511=ORIENTED_EDGE('',*,*,#1505,.F.) ;
#1512=ORIENTED_EDGE('',*,*,#1450,.T.) ;
#1513=ORIENTED_EDGE('',*,*,#829,.F.) ;
#1514=ORIENTED_EDGE('',*,*,#148,.T.) ;
#1515=ORIENTED_EDGE('',*,*,#886,.T.) ;
#1516=ORIENTED_EDGE('',*,*,#1445,.T.) ;
#1525=ORIENTED_EDGE('',*,*,#1523,.T.) ;
#1526=ORIENTED_EDGE('',*,*,#1499,.T.) ;
#1527=ORIENTED_EDGE('',*,*,#1302,.F.) ;
#1528=ORIENTED_EDGE('',*,*,#1492,.F.) ;
#1538=ORIENTED_EDGE('',*,*,#1523,.F.) ;
#1539=ORIENTED_EDGE('',*,*,#1487,.T.) ;
#1540=ORIENTED_EDGE('',*,*,#1440,.T.) ;
#1541=ORIENTED_EDGE('',*,*,#1505,.T.) ;
#21=MANIFOLD_SOLID_BREP('217578 - Appui frotteur',#30) ;
#41=VERTEX_POINT('',#40) ;
#43=VERTEX_POINT('',#42) ;
#50=VERTEX_POINT('',#49) ;
#93=VERTEX_POINT('',#92) ;
#95=VERTEX_POINT('',#94) ;
#138=VERTEX_POINT('',#137) ;
#140=VERTEX_POINT('',#139) ;
#147=VERTEX_POINT('',#146) ;
#154=VERTEX_POINT('',#153) ;
#161=VERTEX_POINT('',#160) ;
#168=VERTEX_POINT('',#167) ;
#175=VERTEX_POINT('',#174) ;
#182=VERTEX_POINT('',#181) ;
#189=VERTEX_POINT('',#188) ;
#196=VERTEX_POINT('',#195) ;
#203=VERTEX_POINT('',#202) ;
#210=VERTEX_POINT('',#209) ;
#217=VERTEX_POINT('',#216) ;
#224=VERTEX_POINT('',#223) ;
#231=VERTEX_POINT('',#230) ;
#238=VERTEX_POINT('',#237) ;
#245=VERTEX_POINT('',#244) ;
#252=VERTEX_POINT('',#251) ;
#284=VERTEX_POINT('',#283) ;
#286=VERTEX_POINT('',#285) ;
#302=VERTEX_POINT('',#301) ;
#304=VERTEX_POINT('',#303) ;
#320=VERTEX_POINT('',#319) ;
#322=VERTEX_POINT('',#321) ;
#338=VERTEX_POINT('',#337) ;
#340=VERTEX_POINT('',#339) ;
#362=VERTEX_POINT('',#361) ;
#369=VERTEX_POINT('',#368) ;
#405=VERTEX_POINT('',#404) ;
#407=VERTEX_POINT('',#406) ;
#414=VERTEX_POINT('',#413) ;
#445=VERTEX_POINT('',#444) ;
#447=VERTEX_POINT('',#446) ;
#480=VERTEX_POINT('',#479) ;
#499=VERTEX_POINT('',#498) ;
#526=VERTEX_POINT('',#525) ;
#528=VERTEX_POINT('',#527) ;
#558=VERTEX_POINT('',#557) ;
#565=VERTEX_POINT('',#564) ;
#572=VERTEX_POINT('',#571) ;
#610=VERTEX_POINT('',#609) ;
#634=VERTEX_POINT('',#633) ;
#670=VERTEX_POINT('',#669) ;
#672=VERTEX_POINT('',#671) ;
#679=VERTEX_POINT('',#678) ;
#686=VERTEX_POINT('',#685) ;
#717=VERTEX_POINT('',#716) ;
#719=VERTEX_POINT('',#718) ;
#751=VERTEX_POINT('',#750) ;
#770=VERTEX_POINT('',#769) ;
#796=VERTEX_POINT('',#795) ;
#798=VERTEX_POINT('',#797) ;
#828=VERTEX_POINT('',#827) ;
#835=VERTEX_POINT('',#834) ;
#842=VERTEX_POINT('',#841) ;
#880=VERTEX_POINT('',#879) ;
#904=VERTEX_POINT('',#903) ;
#906=VERTEX_POINT('',#905) ;
#949=VERTEX_POINT('',#948) ;
#951=VERTEX_POINT('',#950) ;
#994=VERTEX_POINT('',#993) ;
#996=VERTEX_POINT('',#995) ;
#1039=VERTEX_POINT('',#1038) ;
#1041=VERTEX_POINT('',#1040) ;
#1084=VERTEX_POINT('',#1083) ;
#1086=VERTEX_POINT('',#1085) ;
#1093=VERTEX_POINT('',#1092) ;
#1129=VERTEX_POINT('',#1128) ;
#1131=VERTEX_POINT('',#1130) ;
#1274=VERTEX_POINT('',#1273) ;
#1276=VERTEX_POINT('',#1275) ;
#1294=VERTEX_POINT('',#1293) ;
#1296=VERTEX_POINT('',#1295) ;
#1319=VERTEX_POINT('',#1318) ;
#1321=VERTEX_POINT('',#1320) ;
#1368=VERTEX_POINT('',#1367) ;
#1380=VERTEX_POINT('',#1379) ;
#1437=VERTEX_POINT('',#1436) ;
#1439=VERTEX_POINT('',#1438) ;
#1486=VERTEX_POINT('',#1485) ;
#1498=VERTEX_POINT('',#1497) ;
#1545=ADVANCED_BREP_SHAPE_REPRESENTATION('NONE',(#21),#16) ;
#62=ADVANCED_FACE('217578 - Appui frotteur',(#61),#35,.F.) ;
#81=ADVANCED_FACE('217578 - Appui frotteur',(#80),#35,.F.) ;
#113=ADVANCED_FACE('217578 - Appui frotteur',(#112),#87,.F.) ;
#126=ADVANCED_FACE('217578 - Appui frotteur',(#125),#87,.F.) ;
#351=ADVANCED_FACE('217578 - Appui frotteur',(#278,#296,#314,#332,#350),#132,.F.) ;
#382=ADVANCED_FACE('217578 - Appui frotteur',(#381),#356,.T.) ;
#434=ADVANCED_FACE('217578 - Appui frotteur',(#433),#387,.F.) ;
#469=ADVANCED_FACE('217578 - Appui frotteur',(#468),#439,.F.) ;
#493=ADVANCED_FACE('217578 - Appui frotteur',(#492),#474,.F.) ;
#512=ADVANCED_FACE('217578 - Appui frotteur',(#511),#474,.F.) ;
#547=ADVANCED_FACE('217578 - Appui frotteur',(#546),#517,.F.) ;
#599=ADVANCED_FACE('217578 - Appui frotteur',(#598),#552,.T.) ;
#623=ADVANCED_FACE('217578 - Appui frotteur',(#622),#604,.T.) ;
#647=ADVANCED_FACE('217578 - Appui frotteur',(#646),#628,.T.) ;
#706=ADVANCED_FACE('217578 - Appui frotteur',(#705),#652,.F.) ;
#740=ADVANCED_FACE('217578 - Appui frotteur',(#739),#711,.F.) ;
#764=ADVANCED_FACE('217578 - Appui frotteur',(#763),#745,.F.) ;
#783=ADVANCED_FACE('217578 - Appui frotteur',(#782),#745,.F.) ;
#817=ADVANCED_FACE('217578 - Appui frotteur',(#816),#788,.F.) ;
#869=ADVANCED_FACE('217578 - Appui frotteur',(#868),#822,.T.) ;
#893=ADVANCED_FACE('217578 - Appui frotteur',(#892),#874,.F.) ;
#924=ADVANCED_FACE('217578 - Appui frotteur',(#923),#898,.F.) ;
#937=ADVANCED_FACE('217578 - Appui frotteur',(#936),#898,.F.) ;
#969=ADVANCED_FACE('217578 - Appui frotteur',(#968),#943,.F.) ;
#982=ADVANCED_FACE('217578 - Appui frotteur',(#981),#943,.F.) ;
#1014=ADVANCED_FACE('217578 - Appui frotteur',(#1013),#988,.F.) ;
#1027=ADVANCED_FACE('217578 - Appui frotteur',(#1026),#988,.F.) ;
#1059=ADVANCED_FACE('217578 - Appui frotteur',(#1058),#1033,.F.) ;
#1072=ADVANCED_FACE('217578 - Appui frotteur',(#1071),#1033,.F.) ;
#1105=ADVANCED_FACE('217578 - Appui frotteur',(#1104),#1078,.F.) ;
#1117=ADVANCED_FACE('217578 - Appui frotteur',(#1116),#1078,.F.) ;
#1149=ADVANCED_FACE('217578 - Appui frotteur',(#1148),#1123,.F.) ;
#1162=ADVANCED_FACE('217578 - Appui frotteur',(#1161),#1123,.F.) ;
#1185=ADVANCED_FACE('217578 - Appui frotteur',(#1184),#1168,.T.) ;
#1205=ADVANCED_FACE('217578 - Appui frotteur',(#1204),#1191,.F.) ;
#1229=ADVANCED_FACE('217578 - Appui frotteur',(#1228),#1211,.F.) ;
#1249=ADVANCED_FACE('217578 - Appui frotteur',(#1248),#1235,.F.) ;
#1267=ADVANCED_FACE('217578 - Appui frotteur',(#1266),#1255,.T.) ;
#1287=ADVANCED_FACE('217578 - Appui frotteur',(#1286),#1211,.F.) ;
#1307=ADVANCED_FACE('217578 - Appui frotteur',(#1306),#1211,.F.) ;
#1355=ADVANCED_FACE('217578 - Appui frotteur',(#1342,#1346,#1350,#1354),#1313,.F.) ;
#1400=ADVANCED_FACE('217578 - Appui frotteur',(#1399),#1361,.T.) ;
#1417=ADVANCED_FACE('217578 - Appui frotteur',(#1416),#1405,.F.) ;
#1430=ADVANCED_FACE('217578 - Appui frotteur',(#1429),#1423,.F.) ;
#1473=ADVANCED_FACE('217578 - Appui frotteur',(#1460,#1464,#1468,#1472),#1313,.F.) ;
#1518=ADVANCED_FACE('217578 - Appui frotteur',(#1517),#1479,.T.) ;
#1530=ADVANCED_FACE('217578 - Appui frotteur',(#1529),#1405,.F.) ;
#1543=ADVANCED_FACE('217578 - Appui frotteur',(#1542),#1536,.F.) ;
#4=APPLICATION_PROTOCOL_DEFINITION('international standard','ap242_managed_model_based_3d_engineering',2014,#1) ;
#388=B_SPLINE_CURVE_WITH_KNOTS('',5,(#389,#390,#391,#392,#393,#394,#395,#396,#397,#398,#399,#400,#401,#402,#403),.UNSPECIFIED.,.F.,.U.,(6,3,3,3,6),(0.,2.26739975193,5.16826640069,10.5307270159,12.3324506474),.UNSPECIFIED.) ;
#449=B_SPLINE_CURVE_WITH_KNOTS('',5,(#450,#451,#452,#453,#454,#455),.UNSPECIFIED.,.F.,.U.,(6,6),(0.,18.8167496997),.UNSPECIFIED.) ;
#518=B_SPLINE_CURVE_WITH_KNOTS('',5,(#519,#520,#521,#522,#523,#524),.UNSPECIFIED.,.F.,.U.,(6,6),(0.,18.8167497008),.UNSPECIFIED.) ;
#574=B_SPLINE_CURVE_WITH_KNOTS('',5,(#575,#576,#577,#578,#579,#580,#581,#582,#583,#584,#585,#586,#587,#588,#589),.UNSPECIFIED.,.F.,.U.,(6,3,3,3,6),(0.,2.26739975162,5.16826640276,10.5307270179,12.3324506494),.UNSPECIFIED.) ;
#653=B_SPLINE_CURVE_WITH_KNOTS('',5,(#654,#655,#656,#657,#658,#659,#660,#661,#662,#663,#664,#665,#666,#667,#668),.UNSPECIFIED.,.F.,.U.,(6,3,3,3,6),(0.,2.26739975187,5.16826640172,10.6491718174,15.9583917535),.UNSPECIFIED.) ;
#721=B_SPLINE_CURVE_WITH_KNOTS('',4,(#722,#723,#724,#725,#726),.UNSPECIFIED.,.F.,.U.,(5,5),(0.,15.9528544698),.UNSPECIFIED.) ;
#789=B_SPLINE_CURVE_WITH_KNOTS('',4,(#790,#791,#792,#793,#794),.UNSPECIFIED.,.F.,.U.,(5,5),(0.,15.9528544691),.UNSPECIFIED.) ;
#844=B_SPLINE_CURVE_WITH_KNOTS('',5,(#845,#846,#847,#848,#849,#850,#851,#852,#853,#854,#855,#856,#857,#858,#859),.UNSPECIFIED.,.F.,.U.,(6,3,3,3,6),(0.,2.26739975221,5.16826640267,10.649171817,15.9583917529),.UNSPECIFIED.) ;
#1362=B_SPLINE_CURVE_WITH_KNOTS('',3,(#1363,#1364,#1365,#1366),.UNSPECIFIED.,.F.,.U.,(4,4),(0.,3.69849111547),.UNSPECIFIED.) ;
#1382=B_SPLINE_CURVE_WITH_KNOTS('',3,(#1383,#1384,#1385,#1386),.UNSPECIFIED.,.F.,.U.,(4,4),(0.,3.6984911153),.UNSPECIFIED.) ;
#1480=B_SPLINE_CURVE_WITH_KNOTS('',3,(#1481,#1482,#1483,#1484),.UNSPECIFIED.,.F.,.U.,(4,4),(0.,3.69849111529),.UNSPECIFIED.) ;
#1500=B_SPLINE_CURVE_WITH_KNOTS('',3,(#1501,#1502,#1503,#1504),.UNSPECIFIED.,.F.,.U.,(4,4),(0.,3.6984911151),.UNSPECIFIED.) ;
#22=COLOUR_RGB('Colour',0.6,0.576470588235,0.749019607843) ;
#63=COLOUR_RGB('Colour',1.,0.501960784314,0.501960784314) ;
#70=OVER_RIDING_STYLED_ITEM(' ',(#69),#62,#29) ;
#82=OVER_RIDING_STYLED_ITEM(' ',(#69),#81,#29) ;
#114=OVER_RIDING_STYLED_ITEM(' ',(#69),#113,#29) ;
#127=OVER_RIDING_STYLED_ITEM(' ',(#69),#126,#29) ;
#925=OVER_RIDING_STYLED_ITEM(' ',(#69),#924,#29) ;
#938=OVER_RIDING_STYLED_ITEM(' ',(#69),#937,#29) ;
#970=OVER_RIDING_STYLED_ITEM(' ',(#69),#969,#29) ;
#983=OVER_RIDING_STYLED_ITEM(' ',(#69),#982,#29) ;
#1015=OVER_RIDING_STYLED_ITEM(' ',(#69),#1014,#29) ;
#1028=OVER_RIDING_STYLED_ITEM(' ',(#69),#1027,#29) ;
#1060=OVER_RIDING_STYLED_ITEM(' ',(#69),#1059,#29) ;
#1073=OVER_RIDING_STYLED_ITEM(' ',(#69),#1072,#29) ;
#1106=OVER_RIDING_STYLED_ITEM(' ',(#69),#1105,#29) ;
#1118=OVER_RIDING_STYLED_ITEM(' ',(#69),#1117,#29) ;
#1150=OVER_RIDING_STYLED_ITEM(' ',(#69),#1149,#29) ;
#1163=OVER_RIDING_STYLED_ITEM(' ',(#69),#1162,#29) ;
#1186=OVER_RIDING_STYLED_ITEM(' ',(#69),#1185,#29) ;
#1206=OVER_RIDING_STYLED_ITEM(' ',(#69),#1205,#29) ;
#1230=OVER_RIDING_STYLED_ITEM(' ',(#69),#1229,#29) ;
#1250=OVER_RIDING_STYLED_ITEM(' ',(#69),#1249,#29) ;
#1268=OVER_RIDING_STYLED_ITEM(' ',(#69),#1267,#29) ;
#1288=OVER_RIDING_STYLED_ITEM(' ',(#69),#1287,#29) ;
#1308=OVER_RIDING_STYLED_ITEM(' ',(#69),#1307,#29) ;
#1356=OVER_RIDING_STYLED_ITEM(' ',(#69),#1355,#29) ;
#1418=OVER_RIDING_STYLED_ITEM(' ',(#69),#1417,#29) ;
#1431=OVER_RIDING_STYLED_ITEM(' ',(#69),#1430,#29) ;
#1474=OVER_RIDING_STYLED_ITEM(' ',(#69),#1473,#29) ;
#1531=OVER_RIDING_STYLED_ITEM(' ',(#69),#1530,#29) ;
#1544=OVER_RIDING_STYLED_ITEM(' ',(#69),#1543,#29) ;
#61=FACE_OUTER_BOUND('',#57,.T.) ;
#80=FACE_OUTER_BOUND('',#76,.T.) ;
#112=FACE_OUTER_BOUND('',#107,.T.) ;
#125=FACE_OUTER_BOUND('',#120,.T.) ;
#278=FACE_OUTER_BOUND('',#259,.T.) ;
#381=FACE_OUTER_BOUND('',#376,.T.) ;
#433=FACE_OUTER_BOUND('',#426,.T.) ;
#468=FACE_OUTER_BOUND('',#462,.T.) ;
#492=FACE_OUTER_BOUND('',#487,.T.) ;
#511=FACE_OUTER_BOUND('',#506,.T.) ;
#546=FACE_OUTER_BOUND('',#540,.T.) ;
#598=FACE_OUTER_BOUND('',#591,.T.) ;
#622=FACE_OUTER_BOUND('',#617,.T.) ;
#646=FACE_OUTER_BOUND('',#641,.T.) ;
#705=FACE_OUTER_BOUND('',#698,.T.) ;
#739=FACE_OUTER_BOUND('',#733,.T.) ;
#763=FACE_OUTER_BOUND('',#758,.T.) ;
#782=FACE_OUTER_BOUND('',#777,.T.) ;
#816=FACE_OUTER_BOUND('',#810,.T.) ;
#868=FACE_OUTER_BOUND('',#861,.T.) ;
#892=FACE_OUTER_BOUND('',#887,.T.) ;
#923=FACE_OUTER_BOUND('',#918,.T.) ;
#936=FACE_OUTER_BOUND('',#931,.T.) ;
#968=FACE_OUTER_BOUND('',#963,.T.) ;
#981=FACE_OUTER_BOUND('',#976,.T.) ;
#1013=FACE_OUTER_BOUND('',#1008,.T.) ;
#1026=FACE_OUTER_BOUND('',#1021,.T.) ;
#1058=FACE_OUTER_BOUND('',#1053,.T.) ;
#1071=FACE_OUTER_BOUND('',#1066,.T.) ;
#1104=FACE_OUTER_BOUND('',#1100,.T.) ;
#1116=FACE_OUTER_BOUND('',#1112,.T.) ;
#1148=FACE_OUTER_BOUND('',#1143,.T.) ;
#1161=FACE_OUTER_BOUND('',#1156,.T.) ;
#1184=FACE_OUTER_BOUND('',#1179,.T.) ;
#1204=FACE_OUTER_BOUND('',#1197,.T.) ;
#1228=FACE_OUTER_BOUND('',#1217,.T.) ;
#1248=FACE_OUTER_BOUND('',#1241,.T.) ;
#1266=FACE_OUTER_BOUND('',#1261,.T.) ;
#1286=FACE_OUTER_BOUND('',#1283,.T.) ;
#1306=FACE_OUTER_BOUND('',#1303,.T.) ;
#1342=FACE_OUTER_BOUND('',#1333,.T.) ;
#1399=FACE_OUTER_BOUND('',#1388,.T.) ;
#1416=FACE_OUTER_BOUND('',#1411,.T.) ;
#1429=FACE_OUTER_BOUND('',#1424,.T.) ;
#1460=FACE_OUTER_BOUND('',#1451,.T.) ;
#1517=FACE_OUTER_BOUND('',#1506,.T.) ;
#1529=FACE_OUTER_BOUND('',#1524,.T.) ;
#1542=FACE_OUTER_BOUND('',#1537,.T.) ;
#9=PRODUCT_CATEGORY_RELATIONSHIP(' ',' ',#7,#8) ;
#6=PRODUCT_DEFINITION_FORMATION_WITH_SPECIFIED_SOURCE('--A',' ',#5,.NOT_KNOWN.) ;
#20=SHAPE_DEFINITION_REPRESENTATION(#11,#19) ;
#12=(LENGTH_UNIT()NAMED_UNIT(*)SI_UNIT(.MILLI.,.METRE.)) ;
#13=(NAMED_UNIT(*)PLANE_ANGLE_UNIT()SI_UNIT($,.RADIAN.)) ;
#14=(NAMED_UNIT(*)SI_UNIT($,.STERADIAN.)SOLID_ANGLE_UNIT()) ;
#16=(GEOMETRIC_REPRESENTATION_CONTEXT(3)GLOBAL_UNCERTAINTY_ASSIGNED_CONTEXT((#15))GLOBAL_UNIT_ASSIGNED_CONTEXT((#12,#13,#14))REPRESENTATION_CONTEXT(' ',' ')) ;
ENDSEC;
END-ISO-10303-21;
