ISO-10303-21;
HEADER;
FILE_DESCRIPTION(('CATIA V5 STEP Exchange','CAx-IF Rec.Pracs.--- Model Styling and Organization---1.4--- 2014-01-23','CAx-IF Rec.Pracs.---Representation and Presentation of Product Manufacturing Information (PMI)---4.0---2014-10-13','CAx-IF Rec.Pracs.---3D Tessellated Data Validation Properties---0.5---2014-09-14'),'2;1');

FILE_NAME('C:\\Users\\asgay\\OneDrive - Alstom\\Bureau\\M3D-255974_B.stp','2023-11-16T09:39:24+00:00',('none'),('none'),'CATIA Version 5-6 Release 2016 SP5 HF64','CATIA V5 STEP AP242','none');

FILE_SCHEMA(('AP242_MANAGED_MODEL_BASED_3D_ENGINEERING_MIM_LF  {1 0 10303 442 1 1 4}'));

ENDSEC;
DATA;
#5=PRODUCT('M3D-255974','','SENSOR SUPPORT',(#2)) ;
#2=PRODUCT_CONTEXT(' ',#1,'mechanical') ;
#1=APPLICATION_CONTEXT('managed model based 3d engineering') ;
#10=PRODUCT_DEFINITION('MASTER',' ',#6,#3) ;
#3=PRODUCT_DEFINITION_CONTEXT('part definition',#1,' ') ;
#11=PRODUCT_DEFINITION_SHAPE(' ',' ',#10) ;
#492=MECHANICAL_DESIGN_GEOMETRIC_PRESENTATION_REPRESENTATION(' ',(#29),#16) ;
#493=MECHANICAL_DESIGN_GEOMETRIC_PRESENTATION_REPRESENTATION(' ',(#489),#16) ;
#19=SHAPE_REPRESENTATION(' ',(#18),#16) ;
#7=PRODUCT_CATEGORY('part','specification') ;
#17=CARTESIAN_POINT(' ',(0.,0.,0.)) ;
#31=CARTESIAN_POINT('Axis2P3D Location',(701.665,-33.,136.375997133)) ;
#36=CARTESIAN_POINT('Axis2P3D Location',(701.665,-33.,149.716)) ;
#40=CARTESIAN_POINT('Vertex',(698.665,-33.,149.716)) ;
#42=CARTESIAN_POINT('Vertex',(704.665,-33.,149.716)) ;
#45=CARTESIAN_POINT('Line Origine',(704.665,-33.,136.375997133)) ;
#49=CARTESIAN_POINT('Vertex',(704.665,-33.,121.716)) ;
#52=CARTESIAN_POINT('Axis2P3D Location',(701.665,-33.,121.716)) ;
#56=CARTESIAN_POINT('Vertex',(698.665,-33.,121.716)) ;
#59=CARTESIAN_POINT('Line Origine',(698.665,-33.,136.375997133)) ;
#71=CARTESIAN_POINT('Axis2P3D Location',(701.665,-33.,149.716)) ;
#76=CARTESIAN_POINT('Axis2P3D Location',(701.665,-33.,121.716)) ;
#88=CARTESIAN_POINT('Axis2P3D Location',(701.665,0.,149.716)) ;
#93=CARTESIAN_POINT('Line Origine',(688.665,0.,149.716)) ;
#97=CARTESIAN_POINT('Vertex',(688.665,-53.4415568635,149.716)) ;
#99=CARTESIAN_POINT('Vertex',(688.665,53.4415568635,149.716)) ;
#102=CARTESIAN_POINT('Axis2P3D Location',(701.665,0.,149.716)) ;
#106=CARTESIAN_POINT('Vertex',(714.665,-53.4415568635,149.716)) ;
#109=CARTESIAN_POINT('Line Origine',(714.665,0.,149.716)) ;
#113=CARTESIAN_POINT('Vertex',(714.665,53.4415568635,149.716)) ;
#116=CARTESIAN_POINT('Axis2P3D Location',(701.665,0.,149.716)) ;
#127=CARTESIAN_POINT('Axis2P3D Location',(701.665,33.,149.716)) ;
#131=CARTESIAN_POINT('Vertex',(704.665,33.,149.716)) ;
#133=CARTESIAN_POINT('Vertex',(698.665,33.,149.716)) ;
#136=CARTESIAN_POINT('Axis2P3D Location',(701.665,33.,149.716)) ;
#150=CARTESIAN_POINT('Axis2P3D Location',(688.665,-53.4415568635,121.716)) ;
#155=CARTESIAN_POINT('Line Origine',(688.665,0.,136.716)) ;
#159=CARTESIAN_POINT('Vertex',(688.665,53.4415568635,136.716)) ;
#161=CARTESIAN_POINT('Vertex',(688.665,-53.4415568635,136.716)) ;
#164=CARTESIAN_POINT('Line Origine',(688.665,-53.4415568635,143.216)) ;
#169=CARTESIAN_POINT('Line Origine',(688.665,53.4415568635,143.216)) ;
#181=CARTESIAN_POINT('Axis2P3D Location',(701.665,0.,126.716)) ;
#186=CARTESIAN_POINT('Axis2P3D Location',(701.665,0.,121.716)) ;
#190=CARTESIAN_POINT('Vertex',(688.665,-53.4415568635,121.716)) ;
#192=CARTESIAN_POINT('Vertex',(714.665,-53.4415568635,121.716)) ;
#195=CARTESIAN_POINT('Axis2P3D Location',(701.665,0.,121.716)) ;
#199=CARTESIAN_POINT('Vertex',(756.665,-5.68434188608E-014,121.716)) ;
#202=CARTESIAN_POINT('Line Origine',(756.665,-1.34711147906E-014,126.716)) ;
#206=CARTESIAN_POINT('Vertex',(756.665,-5.68434188608E-014,131.716)) ;
#209=CARTESIAN_POINT('Axis2P3D Location',(701.665,0.,131.716)) ;
#213=CARTESIAN_POINT('Vertex',(719.665,-51.9711458407,131.716)) ;
#217=CARTESIAN_POINT('Control Point',(719.665,-51.9711458407,131.716)) ;
#218=CARTESIAN_POINT('Control Point',(718.147266788,-52.4968067121,131.716)) ;
#219=CARTESIAN_POINT('Control Point',(716.611429679,-52.968732302,132.284364331)) ;
#220=CARTESIAN_POINT('Control Point',(715.307651592,-53.285772321,133.496606972)) ;
#221=CARTESIAN_POINT('Control Point',(714.665,-53.4415568635,135.109814004)) ;
#222=CARTESIAN_POINT('Control Point',(714.665,-53.4415568635,136.716)) ;
#223=CARTESIAN_POINT('Vertex',(714.665,-53.4415568635,136.716)) ;
#226=CARTESIAN_POINT('Line Origine',(714.665,-53.4415568635,126.716)) ;
#232=CARTESIAN_POINT('Control Point',(683.665,-51.9711458407,131.716)) ;
#233=CARTESIAN_POINT('Control Point',(685.182733211,-52.4968067121,131.716)) ;
#234=CARTESIAN_POINT('Control Point',(686.718570318,-52.9687323013,132.284364331)) ;
#235=CARTESIAN_POINT('Control Point',(688.022348409,-53.2857723211,133.49660697)) ;
#236=CARTESIAN_POINT('Control Point',(688.665,-53.4415568635,135.109814004)) ;
#237=CARTESIAN_POINT('Control Point',(688.665,-53.4415568635,136.716)) ;
#238=CARTESIAN_POINT('Vertex',(683.665,-51.9711458407,131.716)) ;
#241=CARTESIAN_POINT('Axis2P3D Location',(701.665,0.,131.716)) ;
#245=CARTESIAN_POINT('Vertex',(646.665,5.55853704788E-014,131.716)) ;
#248=CARTESIAN_POINT('Line Origine',(646.665,6.73555739531E-015,126.716)) ;
#252=CARTESIAN_POINT('Vertex',(646.665,5.55853704788E-014,121.716)) ;
#255=CARTESIAN_POINT('Axis2P3D Location',(701.665,0.,121.716)) ;
#275=CARTESIAN_POINT('Axis2P3D Location',(714.665,7.1054273576E-015,121.716)) ;
#280=CARTESIAN_POINT('Line Origine',(714.665,0.,136.716)) ;
#284=CARTESIAN_POINT('Vertex',(714.665,53.4415568635,136.716)) ;
#287=CARTESIAN_POINT('Line Origine',(714.665,53.4415568635,143.216)) ;
#299=CARTESIAN_POINT('Axis2P3D Location',(719.665,-26.7207784318,136.716)) ;
#305=CARTESIAN_POINT('Control Point',(719.665,51.9711458407,131.716)) ;
#306=CARTESIAN_POINT('Control Point',(718.147266788,52.4968067121,131.716)) ;
#307=CARTESIAN_POINT('Control Point',(716.611437146,52.9687272718,132.284359093)) ;
#308=CARTESIAN_POINT('Control Point',(715.307644332,53.2857762164,133.496606326)) ;
#309=CARTESIAN_POINT('Control Point',(714.665,53.4415568635,135.109814004)) ;
#310=CARTESIAN_POINT('Control Point',(714.665,53.4415568635,136.716)) ;
#311=CARTESIAN_POINT('Vertex',(719.665,51.9711458407,131.716)) ;
#314=CARTESIAN_POINT('Line Origine',(719.665,-26.7207784318,131.716)) ;
#326=CARTESIAN_POINT('Axis2P3D Location',(683.665,-26.7207784318,136.716)) ;
#332=CARTESIAN_POINT('Control Point',(683.665,51.9711458407,131.716)) ;
#333=CARTESIAN_POINT('Control Point',(685.182733211,52.4968067121,131.716)) ;
#334=CARTESIAN_POINT('Control Point',(686.718562851,52.9687272711,132.284359092)) ;
#335=CARTESIAN_POINT('Control Point',(688.022355669,53.2857762166,133.496606325)) ;
#336=CARTESIAN_POINT('Control Point',(688.665,53.4415568635,135.109814004)) ;
#337=CARTESIAN_POINT('Control Point',(688.665,53.4415568635,136.716)) ;
#338=CARTESIAN_POINT('Vertex',(683.665,51.9711458407,131.716)) ;
#341=CARTESIAN_POINT('Line Origine',(683.665,-26.7207784318,131.716)) ;
#353=CARTESIAN_POINT('Axis2P3D Location',(701.665,0.,131.716)) ;
#358=CARTESIAN_POINT('Axis2P3D Location',(701.665,0.,131.716)) ;
#369=CARTESIAN_POINT('Axis2P3D Location',(701.665,0.,131.716)) ;
#380=CARTESIAN_POINT('Axis2P3D Location',(701.665,0.,121.716)) ;
#385=CARTESIAN_POINT('Axis2P3D Location',(701.665,0.,121.716)) ;
#389=CARTESIAN_POINT('Vertex',(688.665,53.4415568635,121.716)) ;
#392=CARTESIAN_POINT('Axis2P3D Location',(701.665,0.,121.716)) ;
#396=CARTESIAN_POINT('Vertex',(714.665,53.4415568635,121.716)) ;
#399=CARTESIAN_POINT('Axis2P3D Location',(701.665,0.,121.716)) ;
#412=CARTESIAN_POINT('Axis2P3D Location',(701.665,33.,121.716)) ;
#416=CARTESIAN_POINT('Vertex',(698.665,33.,121.716)) ;
#418=CARTESIAN_POINT('Vertex',(704.665,33.,121.716)) ;
#421=CARTESIAN_POINT('Axis2P3D Location',(701.665,33.,121.716)) ;
#435=CARTESIAN_POINT('Axis2P3D Location',(701.665,33.,136.375997133)) ;
#440=CARTESIAN_POINT('Line Origine',(698.665,33.,136.375997133)) ;
#445=CARTESIAN_POINT('Line Origine',(704.665,33.,136.375997133)) ;
#481=CARTESIAN_POINT('Axis2P3D Location',(0.,0.,0.)) ;
#8=PRODUCT_RELATED_PRODUCT_CATEGORY('part',$,(#5)) ;
#29=STYLED_ITEM(' ',(#28),#21) ;
#489=STYLED_ITEM(' ',(#488),#484) ;
#28=PRESENTATION_STYLE_ASSIGNMENT((#27)) ;
#488=PRESENTATION_STYLE_ASSIGNMENT((#487)) ;
#487=CURVE_STYLE(' ',#485,POSITIVE_LENGTH_MEASURE(0.180000007153),#486) ;
#27=SURFACE_STYLE_USAGE(.BOTH.,#26) ;
#26=SURFACE_SIDE_STYLE(' ',(#25)) ;
#25=SURFACE_STYLE_FILL_AREA(#24) ;
#24=FILL_AREA_STYLE(' ',(#23)) ;
#23=FILL_AREA_STYLE_COLOUR(' ',#22) ;
#47=VECTOR('Line Direction',#46,1.) ;
#61=VECTOR('Line Direction',#60,1.) ;
#95=VECTOR('Line Direction',#94,1.) ;
#111=VECTOR('Line Direction',#110,1.) ;
#157=VECTOR('Line Direction',#156,1.) ;
#166=VECTOR('Line Direction',#165,1.) ;
#171=VECTOR('Line Direction',#170,1.) ;
#204=VECTOR('Line Direction',#203,1.) ;
#228=VECTOR('Line Direction',#227,1.) ;
#250=VECTOR('Line Direction',#249,1.) ;
#282=VECTOR('Line Direction',#281,1.) ;
#289=VECTOR('Line Direction',#288,1.) ;
#316=VECTOR('Line Direction',#315,1.) ;
#343=VECTOR('Line Direction',#342,1.) ;
#442=VECTOR('Line Direction',#441,1.) ;
#447=VECTOR('Line Direction',#446,1.) ;
#32=DIRECTION('Axis2P3D Direction',(0.,0.,1.)) ;
#33=DIRECTION('Axis2P3D XDirection',(1.,0.,0.)) ;
#37=DIRECTION('Axis2P3D Direction',(0.,0.,1.)) ;
#46=DIRECTION('Vector Direction',(0.,0.,1.)) ;
#53=DIRECTION('Axis2P3D Direction',(0.,0.,1.)) ;
#60=DIRECTION('Vector Direction',(0.,0.,1.)) ;
#72=DIRECTION('Axis2P3D Direction',(0.,0.,1.)) ;
#77=DIRECTION('Axis2P3D Direction',(0.,0.,1.)) ;
#89=DIRECTION('Axis2P3D Direction',(0.,0.,1.)) ;
#90=DIRECTION('Axis2P3D XDirection',(1.,0.,0.)) ;
#94=DIRECTION('Vector Direction',(0.,1.,0.)) ;
#103=DIRECTION('Axis2P3D Direction',(0.,0.,1.)) ;
#110=DIRECTION('Vector Direction',(0.,-1.,0.)) ;
#117=DIRECTION('Axis2P3D Direction',(0.,0.,1.)) ;
#128=DIRECTION('Axis2P3D Direction',(0.,0.,1.)) ;
#137=DIRECTION('Axis2P3D Direction',(0.,0.,1.)) ;
#151=DIRECTION('Axis2P3D Direction',(1.,0.,0.)) ;
#152=DIRECTION('Axis2P3D XDirection',(0.,1.,0.)) ;
#156=DIRECTION('Vector Direction',(0.,-1.,0.)) ;
#165=DIRECTION('Vector Direction',(0.,0.,1.)) ;
#170=DIRECTION('Vector Direction',(0.,0.,1.)) ;
#182=DIRECTION('Axis2P3D Direction',(0.,0.,1.)) ;
#183=DIRECTION('Axis2P3D XDirection',(1.,0.,0.)) ;
#187=DIRECTION('Axis2P3D Direction',(0.,0.,1.)) ;
#196=DIRECTION('Axis2P3D Direction',(0.,0.,1.)) ;
#203=DIRECTION('Vector Direction',(0.,0.,1.)) ;
#210=DIRECTION('Axis2P3D Direction',(0.,0.,1.)) ;
#227=DIRECTION('Vector Direction',(0.,0.,1.)) ;
#242=DIRECTION('Axis2P3D Direction',(0.,0.,1.)) ;
#249=DIRECTION('Vector Direction',(0.,0.,1.)) ;
#256=DIRECTION('Axis2P3D Direction',(0.,0.,1.)) ;
#276=DIRECTION('Axis2P3D Direction',(-1.,0.,0.)) ;
#277=DIRECTION('Axis2P3D XDirection',(0.,-1.,0.)) ;
#281=DIRECTION('Vector Direction',(0.,-1.,0.)) ;
#288=DIRECTION('Vector Direction',(0.,0.,1.)) ;
#300=DIRECTION('Axis2P3D Direction',(0.,-1.,0.)) ;
#301=DIRECTION('Axis2P3D XDirection',(-1.,0.,0.)) ;
#315=DIRECTION('Vector Direction',(0.,-1.,0.)) ;
#327=DIRECTION('Axis2P3D Direction',(0.,-1.,0.)) ;
#328=DIRECTION('Axis2P3D XDirection',(0.,0.,-1.)) ;
#342=DIRECTION('Vector Direction',(0.,-1.,0.)) ;
#354=DIRECTION('Axis2P3D Direction',(0.,0.,1.)) ;
#355=DIRECTION('Axis2P3D XDirection',(1.,0.,0.)) ;
#359=DIRECTION('Axis2P3D Direction',(0.,0.,1.)) ;
#370=DIRECTION('Axis2P3D Direction',(0.,0.,1.)) ;
#381=DIRECTION('Axis2P3D Direction',(0.,0.,1.)) ;
#382=DIRECTION('Axis2P3D XDirection',(1.,0.,0.)) ;
#386=DIRECTION('Axis2P3D Direction',(0.,0.,1.)) ;
#393=DIRECTION('Axis2P3D Direction',(0.,0.,1.)) ;
#400=DIRECTION('Axis2P3D Direction',(0.,0.,1.)) ;
#413=DIRECTION('Axis2P3D Direction',(0.,0.,1.)) ;
#422=DIRECTION('Axis2P3D Direction',(0.,0.,1.)) ;
#436=DIRECTION('Axis2P3D Direction',(0.,0.,-1.)) ;
#437=DIRECTION('Axis2P3D XDirection',(1.,0.,0.)) ;
#441=DIRECTION('Vector Direction',(0.,0.,-1.)) ;
#446=DIRECTION('Vector Direction',(0.,0.,-1.)) ;
#482=DIRECTION('Axis2P3D Direction',(0.,0.,1.)) ;
#483=DIRECTION('Axis2P3D XDirection',(1.,0.,0.)) ;
#15=UNCERTAINTY_MEASURE_WITH_UNIT(LENGTH_MEASURE(0.005),#12,'distance_accuracy_value','CONFUSED CURVE UNCERTAINTY') ;
#18=AXIS2_PLACEMENT_3D(' ',#17,$,$) ;
#34=AXIS2_PLACEMENT_3D('Cylinder Axis2P3D',#31,#32,#33) ;
#38=AXIS2_PLACEMENT_3D('Circle Axis2P3D',#36,#37,$) ;
#54=AXIS2_PLACEMENT_3D('Circle Axis2P3D',#52,#53,$) ;
#73=AXIS2_PLACEMENT_3D('Circle Axis2P3D',#71,#72,$) ;
#78=AXIS2_PLACEMENT_3D('Circle Axis2P3D',#76,#77,$) ;
#91=AXIS2_PLACEMENT_3D('Plane Axis2P3D',#88,#89,#90) ;
#104=AXIS2_PLACEMENT_3D('Circle Axis2P3D',#102,#103,$) ;
#118=AXIS2_PLACEMENT_3D('Circle Axis2P3D',#116,#117,$) ;
#129=AXIS2_PLACEMENT_3D('Circle Axis2P3D',#127,#128,$) ;
#138=AXIS2_PLACEMENT_3D('Circle Axis2P3D',#136,#137,$) ;
#153=AXIS2_PLACEMENT_3D('Plane Axis2P3D',#150,#151,#152) ;
#184=AXIS2_PLACEMENT_3D('Cylinder Axis2P3D',#181,#182,#183) ;
#188=AXIS2_PLACEMENT_3D('Circle Axis2P3D',#186,#187,$) ;
#197=AXIS2_PLACEMENT_3D('Circle Axis2P3D',#195,#196,$) ;
#211=AXIS2_PLACEMENT_3D('Circle Axis2P3D',#209,#210,$) ;
#243=AXIS2_PLACEMENT_3D('Circle Axis2P3D',#241,#242,$) ;
#257=AXIS2_PLACEMENT_3D('Circle Axis2P3D',#255,#256,$) ;
#278=AXIS2_PLACEMENT_3D('Plane Axis2P3D',#275,#276,#277) ;
#302=AXIS2_PLACEMENT_3D('Cylinder Axis2P3D',#299,#300,#301) ;
#329=AXIS2_PLACEMENT_3D('Cylinder Axis2P3D',#326,#327,#328) ;
#356=AXIS2_PLACEMENT_3D('Plane Axis2P3D',#353,#354,#355) ;
#360=AXIS2_PLACEMENT_3D('Circle Axis2P3D',#358,#359,$) ;
#371=AXIS2_PLACEMENT_3D('Circle Axis2P3D',#369,#370,$) ;
#383=AXIS2_PLACEMENT_3D('Plane Axis2P3D',#380,#381,#382) ;
#387=AXIS2_PLACEMENT_3D('Circle Axis2P3D',#385,#386,$) ;
#394=AXIS2_PLACEMENT_3D('Circle Axis2P3D',#392,#393,$) ;
#401=AXIS2_PLACEMENT_3D('Circle Axis2P3D',#399,#400,$) ;
#414=AXIS2_PLACEMENT_3D('Circle Axis2P3D',#412,#413,$) ;
#423=AXIS2_PLACEMENT_3D('Circle Axis2P3D',#421,#422,$) ;
#438=AXIS2_PLACEMENT_3D('Cylinder Axis2P3D',#435,#436,#437) ;
#484=AXIS2_PLACEMENT_3D('Absolute Axis System',#481,#482,#483) ;
#48=LINE('Line',#45,#47) ;
#62=LINE('Line',#59,#61) ;
#96=LINE('Line',#93,#95) ;
#112=LINE('Line',#109,#111) ;
#158=LINE('Line',#155,#157) ;
#167=LINE('Line',#164,#166) ;
#172=LINE('Line',#169,#171) ;
#205=LINE('Line',#202,#204) ;
#229=LINE('Line',#226,#228) ;
#251=LINE('Line',#248,#250) ;
#283=LINE('Line',#280,#282) ;
#290=LINE('Line',#287,#289) ;
#317=LINE('Line',#314,#316) ;
#344=LINE('Line',#341,#343) ;
#443=LINE('Line',#440,#442) ;
#448=LINE('Line',#445,#447) ;
#39=CIRCLE('generated circle',#38,3.) ;
#55=CIRCLE('generated circle',#54,3.) ;
#74=CIRCLE('generated circle',#73,3.) ;
#79=CIRCLE('generated circle',#78,3.) ;
#105=CIRCLE('generated circle',#104,55.) ;
#119=CIRCLE('generated circle',#118,55.) ;
#130=CIRCLE('generated circle',#129,3.) ;
#139=CIRCLE('generated circle',#138,3.) ;
#189=CIRCLE('generated circle',#188,55.) ;
#198=CIRCLE('generated circle',#197,55.) ;
#212=CIRCLE('generated circle',#211,55.) ;
#244=CIRCLE('generated circle',#243,55.) ;
#258=CIRCLE('generated circle',#257,55.) ;
#361=CIRCLE('generated circle',#360,55.) ;
#372=CIRCLE('generated circle',#371,55.) ;
#388=CIRCLE('generated circle',#387,55.) ;
#395=CIRCLE('generated circle',#394,55.) ;
#402=CIRCLE('generated circle',#401,55.) ;
#415=CIRCLE('generated circle',#414,3.) ;
#424=CIRCLE('generated circle',#423,3.) ;
#92=PLANE('',#91) ;
#154=PLANE('',#153) ;
#279=PLANE('',#278) ;
#357=PLANE('',#356) ;
#384=PLANE('',#383) ;
#35=CYLINDRICAL_SURFACE('generated cylinder',#34,3.) ;
#185=CYLINDRICAL_SURFACE('generated cylinder',#184,55.) ;
#303=CYLINDRICAL_SURFACE('generated cylinder',#302,5.) ;
#330=CYLINDRICAL_SURFACE('generated cylinder',#329,5.) ;
#439=CYLINDRICAL_SURFACE('generated cylinder',#438,3.) ;
#144=FACE_BOUND('',#141,.T.) ;
#148=FACE_BOUND('',#145,.T.) ;
#429=FACE_BOUND('',#426,.T.) ;
#433=FACE_BOUND('',#430,.T.) ;
#44=EDGE_CURVE('',#41,#43,#39,.T.) ;
#51=EDGE_CURVE('',#50,#43,#48,.T.) ;
#58=EDGE_CURVE('',#57,#50,#55,.T.) ;
#63=EDGE_CURVE('',#57,#41,#62,.T.) ;
#75=EDGE_CURVE('',#43,#41,#74,.T.) ;
#80=EDGE_CURVE('',#50,#57,#79,.T.) ;
#101=EDGE_CURVE('',#98,#100,#96,.T.) ;
#108=EDGE_CURVE('',#98,#107,#105,.T.) ;
#115=EDGE_CURVE('',#114,#107,#112,.T.) ;
#120=EDGE_CURVE('',#100,#114,#119,.F.) ;
#135=EDGE_CURVE('',#132,#134,#130,.F.) ;
#140=EDGE_CURVE('',#134,#132,#139,.F.) ;
#163=EDGE_CURVE('',#160,#162,#158,.T.) ;
#168=EDGE_CURVE('',#162,#98,#167,.T.) ;
#173=EDGE_CURVE('',#160,#100,#172,.T.) ;
#194=EDGE_CURVE('',#191,#193,#189,.T.) ;
#201=EDGE_CURVE('',#193,#200,#198,.T.) ;
#208=EDGE_CURVE('',#200,#207,#205,.T.) ;
#215=EDGE_CURVE('',#214,#207,#212,.T.) ;
#225=EDGE_CURVE('',#214,#224,#216,.T.) ;
#230=EDGE_CURVE('',#224,#107,#229,.T.) ;
#240=EDGE_CURVE('',#162,#239,#231,.F.) ;
#247=EDGE_CURVE('',#246,#239,#244,.T.) ;
#254=EDGE_CURVE('',#253,#246,#251,.T.) ;
#259=EDGE_CURVE('',#253,#191,#258,.T.) ;
#286=EDGE_CURVE('',#285,#224,#283,.T.) ;
#291=EDGE_CURVE('',#285,#114,#290,.T.) ;
#313=EDGE_CURVE('',#312,#285,#304,.T.) ;
#318=EDGE_CURVE('',#312,#214,#317,.T.) ;
#340=EDGE_CURVE('',#160,#339,#331,.F.) ;
#345=EDGE_CURVE('',#339,#239,#344,.T.) ;
#362=EDGE_CURVE('',#246,#339,#361,.F.) ;
#373=EDGE_CURVE('',#312,#207,#372,.F.) ;
#391=EDGE_CURVE('',#253,#390,#388,.F.) ;
#398=EDGE_CURVE('',#390,#397,#395,.F.) ;
#403=EDGE_CURVE('',#397,#200,#402,.F.) ;
#420=EDGE_CURVE('',#417,#419,#415,.F.) ;
#425=EDGE_CURVE('',#419,#417,#424,.F.) ;
#444=EDGE_CURVE('',#417,#134,#443,.F.) ;
#449=EDGE_CURVE('',#419,#132,#448,.F.) ;
#30=CLOSED_SHELL('Closed Shell',(#70,#87,#149,#180,#274,#298,#325,#352,#368,#379,#434,#456,#463,#478)) ;
#490=CONSTRUCTIVE_GEOMETRY_REPRESENTATION('supplemental geometry',(#484),#16) ;
#480=SHAPE_REPRESENTATION_RELATIONSHIP(' ',' ',#19,#479) ;
#64=EDGE_LOOP('',(#65,#66,#67,#68)) ;
#81=EDGE_LOOP('',(#82,#83,#84,#85)) ;
#121=EDGE_LOOP('',(#122,#123,#124,#125)) ;
#141=EDGE_LOOP('',(#142,#143)) ;
#145=EDGE_LOOP('',(#146,#147)) ;
#174=EDGE_LOOP('',(#175,#176,#177,#178)) ;
#260=EDGE_LOOP('',(#261,#262,#263,#264,#265,#266,#267,#268,#269,#270,#271,#272)) ;
#292=EDGE_LOOP('',(#293,#294,#295,#296)) ;
#319=EDGE_LOOP('',(#320,#321,#322,#323)) ;
#346=EDGE_LOOP('',(#347,#348,#349,#350)) ;
#363=EDGE_LOOP('',(#364,#365,#366)) ;
#374=EDGE_LOOP('',(#375,#376,#377)) ;
#404=EDGE_LOOP('',(#405,#406,#407,#408,#409,#410)) ;
#426=EDGE_LOOP('',(#427,#428)) ;
#430=EDGE_LOOP('',(#431,#432)) ;
#450=EDGE_LOOP('',(#451,#452,#453,#454)) ;
#457=EDGE_LOOP('',(#458,#459,#460,#461)) ;
#464=EDGE_LOOP('',(#465,#466,#467,#468,#469,#470,#471,#472,#473,#474,#475,#476)) ;
#65=ORIENTED_EDGE('',*,*,#44,.T.) ;
#66=ORIENTED_EDGE('',*,*,#51,.F.) ;
#67=ORIENTED_EDGE('',*,*,#58,.F.) ;
#68=ORIENTED_EDGE('',*,*,#63,.T.) ;
#82=ORIENTED_EDGE('',*,*,#75,.T.) ;
#83=ORIENTED_EDGE('',*,*,#63,.F.) ;
#84=ORIENTED_EDGE('',*,*,#80,.F.) ;
#85=ORIENTED_EDGE('',*,*,#51,.T.) ;
#122=ORIENTED_EDGE('',*,*,#101,.F.) ;
#123=ORIENTED_EDGE('',*,*,#108,.T.) ;
#124=ORIENTED_EDGE('',*,*,#115,.F.) ;
#125=ORIENTED_EDGE('',*,*,#120,.F.) ;
#142=ORIENTED_EDGE('',*,*,#135,.T.) ;
#143=ORIENTED_EDGE('',*,*,#140,.T.) ;
#146=ORIENTED_EDGE('',*,*,#75,.F.) ;
#147=ORIENTED_EDGE('',*,*,#44,.F.) ;
#175=ORIENTED_EDGE('',*,*,#163,.T.) ;
#176=ORIENTED_EDGE('',*,*,#168,.T.) ;
#177=ORIENTED_EDGE('',*,*,#101,.T.) ;
#178=ORIENTED_EDGE('',*,*,#173,.F.) ;
#261=ORIENTED_EDGE('',*,*,#194,.T.) ;
#262=ORIENTED_EDGE('',*,*,#201,.T.) ;
#263=ORIENTED_EDGE('',*,*,#208,.T.) ;
#264=ORIENTED_EDGE('',*,*,#215,.F.) ;
#265=ORIENTED_EDGE('',*,*,#225,.T.) ;
#266=ORIENTED_EDGE('',*,*,#230,.T.) ;
#267=ORIENTED_EDGE('',*,*,#108,.F.) ;
#268=ORIENTED_EDGE('',*,*,#168,.F.) ;
#269=ORIENTED_EDGE('',*,*,#240,.T.) ;
#270=ORIENTED_EDGE('',*,*,#247,.F.) ;
#271=ORIENTED_EDGE('',*,*,#254,.F.) ;
#272=ORIENTED_EDGE('',*,*,#259,.T.) ;
#293=ORIENTED_EDGE('',*,*,#286,.F.) ;
#294=ORIENTED_EDGE('',*,*,#291,.T.) ;
#295=ORIENTED_EDGE('',*,*,#115,.T.) ;
#296=ORIENTED_EDGE('',*,*,#230,.F.) ;
#320=ORIENTED_EDGE('',*,*,#313,.T.) ;
#321=ORIENTED_EDGE('',*,*,#286,.T.) ;
#322=ORIENTED_EDGE('',*,*,#225,.F.) ;
#323=ORIENTED_EDGE('',*,*,#318,.F.) ;
#347=ORIENTED_EDGE('',*,*,#340,.T.) ;
#348=ORIENTED_EDGE('',*,*,#345,.T.) ;
#349=ORIENTED_EDGE('',*,*,#240,.F.) ;
#350=ORIENTED_EDGE('',*,*,#163,.F.) ;
#364=ORIENTED_EDGE('',*,*,#247,.T.) ;
#365=ORIENTED_EDGE('',*,*,#345,.F.) ;
#366=ORIENTED_EDGE('',*,*,#362,.F.) ;
#375=ORIENTED_EDGE('',*,*,#215,.T.) ;
#376=ORIENTED_EDGE('',*,*,#373,.F.) ;
#377=ORIENTED_EDGE('',*,*,#318,.T.) ;
#405=ORIENTED_EDGE('',*,*,#391,.T.) ;
#406=ORIENTED_EDGE('',*,*,#398,.T.) ;
#407=ORIENTED_EDGE('',*,*,#403,.T.) ;
#408=ORIENTED_EDGE('',*,*,#201,.F.) ;
#409=ORIENTED_EDGE('',*,*,#194,.F.) ;
#410=ORIENTED_EDGE('',*,*,#259,.F.) ;
#427=ORIENTED_EDGE('',*,*,#420,.F.) ;
#428=ORIENTED_EDGE('',*,*,#425,.F.) ;
#431=ORIENTED_EDGE('',*,*,#58,.T.) ;
#432=ORIENTED_EDGE('',*,*,#80,.T.) ;
#451=ORIENTED_EDGE('',*,*,#444,.F.) ;
#452=ORIENTED_EDGE('',*,*,#420,.T.) ;
#453=ORIENTED_EDGE('',*,*,#449,.T.) ;
#454=ORIENTED_EDGE('',*,*,#140,.F.) ;
#458=ORIENTED_EDGE('',*,*,#449,.F.) ;
#459=ORIENTED_EDGE('',*,*,#425,.T.) ;
#460=ORIENTED_EDGE('',*,*,#444,.T.) ;
#461=ORIENTED_EDGE('',*,*,#135,.F.) ;
#465=ORIENTED_EDGE('',*,*,#391,.F.) ;
#466=ORIENTED_EDGE('',*,*,#254,.T.) ;
#467=ORIENTED_EDGE('',*,*,#362,.T.) ;
#468=ORIENTED_EDGE('',*,*,#340,.F.) ;
#469=ORIENTED_EDGE('',*,*,#173,.T.) ;
#470=ORIENTED_EDGE('',*,*,#120,.T.) ;
#471=ORIENTED_EDGE('',*,*,#291,.F.) ;
#472=ORIENTED_EDGE('',*,*,#313,.F.) ;
#473=ORIENTED_EDGE('',*,*,#373,.T.) ;
#474=ORIENTED_EDGE('',*,*,#208,.F.) ;
#475=ORIENTED_EDGE('',*,*,#403,.F.) ;
#476=ORIENTED_EDGE('',*,*,#398,.F.) ;
#21=MANIFOLD_SOLID_BREP('PartBody',#30) ;
#41=VERTEX_POINT('',#40) ;
#43=VERTEX_POINT('',#42) ;
#50=VERTEX_POINT('',#49) ;
#57=VERTEX_POINT('',#56) ;
#98=VERTEX_POINT('',#97) ;
#100=VERTEX_POINT('',#99) ;
#107=VERTEX_POINT('',#106) ;
#114=VERTEX_POINT('',#113) ;
#132=VERTEX_POINT('',#131) ;
#134=VERTEX_POINT('',#133) ;
#160=VERTEX_POINT('',#159) ;
#162=VERTEX_POINT('',#161) ;
#191=VERTEX_POINT('',#190) ;
#193=VERTEX_POINT('',#192) ;
#200=VERTEX_POINT('',#199) ;
#207=VERTEX_POINT('',#206) ;
#214=VERTEX_POINT('',#213) ;
#224=VERTEX_POINT('',#223) ;
#239=VERTEX_POINT('',#238) ;
#246=VERTEX_POINT('',#245) ;
#253=VERTEX_POINT('',#252) ;
#285=VERTEX_POINT('',#284) ;
#312=VERTEX_POINT('',#311) ;
#339=VERTEX_POINT('',#338) ;
#390=VERTEX_POINT('',#389) ;
#397=VERTEX_POINT('',#396) ;
#417=VERTEX_POINT('',#416) ;
#419=VERTEX_POINT('',#418) ;
#479=ADVANCED_BREP_SHAPE_REPRESENTATION('NONE',(#21),#16) ;
#70=ADVANCED_FACE('PartBody',(#69),#35,.F.) ;
#87=ADVANCED_FACE('PartBody',(#86),#35,.F.) ;
#149=ADVANCED_FACE('PartBody',(#126,#144,#148),#92,.T.) ;
#180=ADVANCED_FACE('PartBody',(#179),#154,.F.) ;
#274=ADVANCED_FACE('PartBody',(#273),#185,.T.) ;
#298=ADVANCED_FACE('PartBody',(#297),#279,.F.) ;
#325=ADVANCED_FACE('PartBody',(#324),#303,.F.) ;
#352=ADVANCED_FACE('PartBody',(#351),#330,.F.) ;
#368=ADVANCED_FACE('PartBody',(#367),#357,.T.) ;
#379=ADVANCED_FACE('PartBody',(#378),#357,.T.) ;
#434=ADVANCED_FACE('PartBody',(#411,#429,#433),#384,.F.) ;
#456=ADVANCED_FACE('PartBody',(#455),#439,.F.) ;
#463=ADVANCED_FACE('PartBody',(#462),#439,.F.) ;
#478=ADVANCED_FACE('PartBody',(#477),#185,.T.) ;
#4=APPLICATION_PROTOCOL_DEFINITION('international standard','ap242_managed_model_based_3d_engineering',2014,#1) ;
#216=B_SPLINE_CURVE_WITH_KNOTS('',5,(#217,#218,#219,#220,#221,#222),.UNSPECIFIED.,.F.,.U.,(6,6),(0.,11.3574500946),.UNSPECIFIED.) ;
#231=B_SPLINE_CURVE_WITH_KNOTS('',5,(#232,#233,#234,#235,#236,#237),.UNSPECIFIED.,.F.,.U.,(6,6),(0.,11.3574500941),.UNSPECIFIED.) ;
#304=B_SPLINE_CURVE_WITH_KNOTS('',5,(#305,#306,#307,#308,#309,#310),.UNSPECIFIED.,.F.,.U.,(6,6),(0.,11.3574500946),.UNSPECIFIED.) ;
#331=B_SPLINE_CURVE_WITH_KNOTS('',5,(#332,#333,#334,#335,#336,#337),.UNSPECIFIED.,.F.,.U.,(6,6),(0.,11.3574500941),.UNSPECIFIED.) ;
#22=COLOUR_RGB('Colour',1.,0.501960784314,0.501960784314) ;
#491=CONSTRUCTIVE_GEOMETRY_REPRESENTATION_RELATIONSHIP('supplemental geometry','',#19,#490) ;
#486=DRAUGHTING_PRE_DEFINED_COLOUR('white') ;
#485=DRAUGHTING_PRE_DEFINED_CURVE_FONT('continuous') ;
#69=FACE_OUTER_BOUND('',#64,.T.) ;
#86=FACE_OUTER_BOUND('',#81,.T.) ;
#126=FACE_OUTER_BOUND('',#121,.T.) ;
#179=FACE_OUTER_BOUND('',#174,.T.) ;
#273=FACE_OUTER_BOUND('',#260,.T.) ;
#297=FACE_OUTER_BOUND('',#292,.T.) ;
#324=FACE_OUTER_BOUND('',#319,.T.) ;
#351=FACE_OUTER_BOUND('',#346,.T.) ;
#367=FACE_OUTER_BOUND('',#363,.T.) ;
#378=FACE_OUTER_BOUND('',#374,.T.) ;
#411=FACE_OUTER_BOUND('',#404,.T.) ;
#455=FACE_OUTER_BOUND('',#450,.T.) ;
#462=FACE_OUTER_BOUND('',#457,.T.) ;
#477=FACE_OUTER_BOUND('',#464,.T.) ;
#9=PRODUCT_CATEGORY_RELATIONSHIP(' ',' ',#7,#8) ;
#6=PRODUCT_DEFINITION_FORMATION_WITH_SPECIFIED_SOURCE('--B',' ',#5,.NOT_KNOWN.) ;
#20=SHAPE_DEFINITION_REPRESENTATION(#11,#19) ;
#12=(LENGTH_UNIT()NAMED_UNIT(*)SI_UNIT(.MILLI.,.METRE.)) ;
#13=(NAMED_UNIT(*)PLANE_ANGLE_UNIT()SI_UNIT($,.RADIAN.)) ;
#14=(NAMED_UNIT(*)SI_UNIT($,.STERADIAN.)SOLID_ANGLE_UNIT()) ;
#16=(GEOMETRIC_REPRESENTATION_CONTEXT(3)GLOBAL_UNCERTAINTY_ASSIGNED_CONTEXT((#15))GLOBAL_UNIT_ASSIGNED_CONTEXT((#12,#13,#14))REPRESENTATION_CONTEXT(' ',' ')) ;
ENDSEC;
END-ISO-10303-21;
